<svg xmlns="http://www.w3.org/2000/svg" width="188.001" height="391.875" viewBox="0 0 188.001 391.875"><defs><style>.a,.b,.d{fill:#d0d0d0;}.a{fill-rule:evenodd;}.c{fill:#23aaf7;stroke:#23aaf7;}.d{font-size:20px;font-family:SharpSansNo1-Bold, Sharp Sans No1 Bold;font-weight:700;}</style></defs><path class="a" d="M48.759-100H190.126a23.649,23.649,0,0,1,23.559,23.391V268.484a23.334,23.334,0,0,1-23.559,23.391H48.759a23.241,23.241,0,0,1-23.076-23.391V-76.609C25.683-89.284,36.255-100,48.759-100Zm83.182,6.827a12.5,12.5,0,0,1-12.5,12.675,12.817,12.817,0,0,1-12.5-12.675H48.744A16.336,16.336,0,0,0,32.389-76.594V262.648c0,9.262,2.175,21.893,16.355,21.516H190.111c14.982-.078,16.824-12.254,16.824-21.516V-76.594a16.733,16.733,0,0,0-16.824-16.579H131.923Z" transform="translate(-25.683 100)"/><g transform="translate(64 136)"><path class="b" d="M2025.273,339.676a27.041,27.041,0,0,0,6.582,17.727l-2.022,2.022a30,30,0,0,1,42.332-42.332l-2.022,2.022a27.148,27.148,0,0,0-44.87,20.561ZM2075.061,320l-2.023,2.024a27.147,27.147,0,0,1-38.277,38.276l-2.023,2.024A30,30,0,0,0,2075.061,320Z" transform="translate(-2022.416 -309.676)"/><g transform="translate(18 17.623)"><path class="c" d="M47.377-63.909H36.091v11.286H34.286V-63.909H23v-1.806H34.286V-77h1.806v11.286H47.377Z" transform="translate(-23 77)"/></g></g><text class="d" transform="translate(30 212)"><tspan x="7.13" y="22">Add a device </tspan><tspan x="13.65" y="44">to compare</tspan></text></svg>