<svg id="Layer_1" data-name="Layer 1" xmlns="http://www.w3.org/2000/svg" viewBox="0 0 173 173"><defs><style>.cls-1,.cls-3{fill:#fff;}.cls-2{fill:#231f20;}.cls-2,.cls-3{stroke:#000;stroke-miterlimit:10;}</style></defs><title>image-3-bw</title><circle class="cls-1" cx="86.05" cy="86.95" r="82.01"/><path d="M86.5,0A86.5,86.5,0,1,0,173,86.5,86.5,86.5,0,0,0,86.5,0Zm0,165.36A78.86,78.86,0,1,1,165.36,86.5,78.86,78.86,0,0,1,86.5,165.36Z" transform="translate(0 0)"/><path d="M121.26,70.9c0,.38.07.76.11,1.16l.06.66H102.78a88.15,88.15,0,0,0-2.73-20l.86-.23c1-.25,1.84-.49,2.73-.81,2.67-1,5.29-2,8-3.11.23-.09.23-.09.37.08a42.24,42.24,0,0,1,8.2,16.24l5.58,1.16a47.17,47.17,0,0,0-46.16-38h-.24a47.29,47.29,0,1,0,0,94.57h0a47.26,47.26,0,0,0,47.31-47.17q0-1.8-.12-3.57ZM66.67,35.23a44.53,44.53,0,0,0-6.51,12.51,55.45,55.45,0,0,1-9.54-3.21A41.88,41.88,0,0,1,66.67,35.23ZM37.33,71.93c.09-.93.17-1.81.3-2.69a42.17,42.17,0,0,1,8.9-20.33,4.23,4.23,0,0,1,.34-.4l.48.21a59.41,59.41,0,0,0,11.06,3.93l.23.06a87.91,87.91,0,0,0-2.72,20H37.26C37.28,72.46,37.31,72.19,37.33,71.93Zm9.55,30.28a.67.67,0,0,1-.14-.15,42.08,42.08,0,0,1-9-20.07c-.15-.92-.24-1.87-.33-2.79,0-.39-.07-.78-.12-1.16V78H55.91a88.32,88.32,0,0,0,2.73,20l-.34.09-1.57.44A54.81,54.81,0,0,0,47,102.16Zm3.73,4a58.07,58.07,0,0,1,9.5-3.22h0s0,.1.06.15a45.37,45.37,0,0,0,5,10.25c.44.65.93,1.29,1.4,1.9l.19.26a41.12,41.12,0,0,1-16.17-9.33ZM61.1,78H76.71v17.6H76.3c-.6,0-1.22,0-1.83.11-3.08.33-6.73.73-10.42,1.19a1.22,1.22,0,0,1-.33,0,.79.79,0,0,1-.1-.27A83.83,83.83,0,0,1,61.1,78Zm15.62,39-.1,0c-.46-.19-.92-.41-1.37-.65A15.46,15.46,0,0,1,70.59,112a37.2,37.2,0,0,1-5.31-10.14,78.46,78.46,0,0,1,11.44-1.13Zm0-48.58v4.32H61.15v-.26c0-.5,0-1,0-1.45a81.6,81.6,0,0,1,2.48-17c.06-.22.09-.26.08-.26a.6.6,0,0,1,.23,0A78,78,0,0,0,76.61,55.1h.16a.66.66,0,0,1,0,.14q0,6.57,0,13.16Zm0-18.45h-.2a88.65,88.65,0,0,1-11.14-1.1l-.15,0a37.19,37.19,0,0,1,5.39-10.24,14.82,14.82,0,0,1,5.24-4.52c.27-.13.54-.24.86-.36v3.64q0,6.19,0,12.38a.82.82,0,0,1,0,.22Zm31.32-5.42-.55.25a63.36,63.36,0,0,1-8.69,2.92.75.75,0,0,1-.29,0h0a.87.87,0,0,1-.15-.32,43.53,43.53,0,0,0-5.28-10.62c-.42-.61-.88-1.2-1.33-1.78,4.17.95,13.81,6.53,16.29,9.5ZM82,33.72l.23.09a14.08,14.08,0,0,1,5.7,4.63,36.63,36.63,0,0,1,5.5,10.39A82.69,82.69,0,0,1,82,50Zm-.06,21.69c0-.22,0-.28,0-.28a.92.92,0,0,1,.29,0,77.08,77.08,0,0,0,12.49-1.26,1.09,1.09,0,0,1,.26,0,.85.85,0,0,1,.09.22A83.72,83.72,0,0,1,97.6,72.73H81.93v-4q0-6.66,0-13.3ZM82,78H97.6a83.54,83.54,0,0,1-2.54,18.69,1.43,1.43,0,0,1-.08.22.53.53,0,0,1-.25,0A85.43,85.43,0,0,0,82,95.58Zm.14,39L82,117V100.78a73.14,73.14,0,0,1,11.43,1.12,33.5,33.5,0,0,1-6.49,11.55A12.76,12.76,0,0,1,82.11,116.94Zm9.79-1.39.08-.1c.61-.83,1.19-1.61,1.73-2.43a43.26,43.26,0,0,0,4.7-9.79,1.07,1.07,0,0,1,.12-.27.75.75,0,0,1,.3,0,60.44,60.44,0,0,1,9.17,3.13l.08,0a42.32,42.32,0,0,1-16.17,9.38Zm29.16-34.12a42.34,42.34,0,0,1-9,20.52c-.22.27-.24.27-.57.12a57.26,57.26,0,0,0-11.22-4L100,98a87.68,87.68,0,0,0,2.73-20h18.66c0,.26-.05.52-.07.78-.09.91-.17,1.78-.3,2.65Z" transform="translate(0 0)"/><path class="cls-1" d="M139,89.7V76.94a2.75,2.75,0,0,0-2.41-3q-13.38-2.7-26.75-5.36a4.85,4.85,0,0,0-1.86,0q-13.31,2.64-26.59,5.32a2.79,2.79,0,0,0-2.55,3,.2.2,0,0,0,0,.07c0,7.25,0,14.5,0,21.75,0,1.59.07,3.18.22,4.77a47.08,47.08,0,0,0,8.38,22.92,51.57,51.57,0,0,0,20.23,17,2.86,2.86,0,0,0,2.61-.06,52,52,0,0,0,16.43-12.27,47.39,47.39,0,0,0,12.27-31.61C139,96.22,139,93,139,89.7Z" transform="translate(0 0)"/><path d="M140.63,88.79c0,3.43.05,6.87,0,10.31a50.08,50.08,0,0,1-13,33.38,55,55,0,0,1-17.35,13,3,3,0,0,1-2.76.06,54.45,54.45,0,0,1-21.36-17.9,49.77,49.77,0,0,1-8.85-24.21c-.15-1.67-.22-3.35-.22-5,0-7.65,0-15.31,0-23a2.94,2.94,0,0,1,2.61-3.25h.08q14-2.83,28.07-5.63a5,5,0,0,1,2,0q14.13,2.8,28.25,5.66a2.91,2.91,0,0,1,2.55,3.14ZM136.12,76l-26.94-5.42a2,2,0,0,0-.73,0L82.26,75.84c-.54.11-.66.33-.66.84q0,10.88,0,21.74a45.9,45.9,0,0,0,3.73,18.27c4.7,11,12.66,18.92,23.13,24.47a1,1,0,0,0,.83,0,50.52,50.52,0,0,0,17.48-14.69,46.1,46.1,0,0,0,9.33-27.51c.09-7.37,0-14.74,0-22.11Z" transform="translate(0 0)"/><path d="M108.88,71.45H109l23.23,4.67,3,.6v.1c0,2.27,0,4.55,0,6.82,0,5,0,10.19,0,15.27a45.38,45.38,0,0,1-9.15,27,50.07,50.07,0,0,1-17.15,14.42h-.06c-10.65-5.66-18.28-13.74-22.68-24A45.41,45.41,0,0,1,82.5,98.42v-.51c0-7,0-14.14,0-21.2l17.57-3.52,8.56-1.72.26,0m0-.9a2.1,2.1,0,0,0-.43,0L82.26,75.84c-.55.11-.67.33-.67.84q0,10.88,0,21.74a46.09,46.09,0,0,0,3.74,18.27c4.7,11,12.66,18.92,23.12,24.47a1,1,0,0,0,.38.08,1.14,1.14,0,0,0,.45-.1,50.73,50.73,0,0,0,17.48-14.69,46.06,46.06,0,0,0,9.33-27.52c.09-7.37,0-14.74,0-22.11V76l-26.95-5.41a1.36,1.36,0,0,0-.29,0Z" transform="translate(0 0)"/><path class="cls-2" d="M121.68,94.62c0-.07,0,.78,0,1.64h-4.44l0-2.45a10.81,10.81,0,0,0-1.88-5.75,7.73,7.73,0,0,0-4.64-2.75,7.55,7.55,0,0,0-7,2.24,7,7,0,0,0-2.19,4.57c-.11,1.75-.08,3.5-.11,5.25a1.5,1.5,0,0,0,0,.3h21.57a3.46,3.46,0,0,1,3.35,3,16.15,16.15,0,0,1,.1,1.7q0,7.94,0,15.87a3.58,3.58,0,0,1-1.72,3.3A3.47,3.47,0,0,1,123,122q-13.79,0-27.56,0a3.48,3.48,0,0,1-3.21-2.86,15.57,15.57,0,0,1-.12-1.81V101.53a4,4,0,0,1,.7-2.37,3.3,3.3,0,0,1,2.76-1.49c1.36,0,1.36,0,1.36-1.38s0-2.47,0-3.7a11.91,11.91,0,0,1,2.82-7.43,12.17,12.17,0,0,1,5.72-3.87,12.53,12.53,0,0,1,5.54-.45,11.41,11.41,0,0,1,5.66,2.34,11.92,11.92,0,0,1,4.79,8.2,10.7,10.7,0,0,1,.09,1.39Z" transform="translate(0 0)"/><path class="cls-3" d="M111.35,116.24v-.68c0-1.23,0-2.46,0-3.7a1,1,0,0,1,.43-.85,3.93,3.93,0,0,0,1.62-4.06,4.21,4.21,0,0,0-4.84-3.46l-.17,0a4.15,4.15,0,0,0-3.24,3.1,3.72,3.72,0,0,0,1.17,4,2.28,2.28,0,0,1,.83,2.11c0,1,0,1.93,0,2.89v.59Z" transform="translate(0 0)"/></svg>