<svg xmlns="http://www.w3.org/2000/svg" width="173" height="173" viewBox="0 0 173 173"><defs><style>.a{fill:#64bca7;}.b{fill:#fff;}.c{fill:#f28e33;}</style></defs><circle class="a" cx="82.006" cy="82.006" r="82.006" transform="translate(4.045 4.943)"/><path d="M578.037,427.1a86.5,86.5,0,1,0,86.5,86.5A86.5,86.5,0,0,0,578.037,427.1Zm0,165.361A78.861,78.861,0,1,1,656.9,513.6,78.863,78.863,0,0,1,578.037,592.459Z" transform="translate(-491.537 -427.098)"/><g transform="translate(59.171 39.76)"><circle class="b" cx="27.216" cy="27.216" r="27.216"/></g><g transform="translate(57.373 37.963)"><path d="M558.854,510.471a29.014,29.014,0,1,1,29.013-29.015A29.047,29.047,0,0,1,558.854,510.471Zm0-53.534a24.52,24.52,0,1,0,24.52,24.52A24.548,24.548,0,0,0,558.854,456.936Z" transform="translate(-529.841 -452.443)"/></g><path d="M526.342,502.935c.223-.683.575-2.027,1.093-3.3.953-2.338.926-4.571-.7-6.557a19.315,19.315,0,0,0-2.808-2.525,6.029,6.029,0,0,1-.1-9.534c.712-.595,1.441-1.171,2.142-1.779a6,6,0,0,0,1.688-6.757c-.336-.893-.707-1.773-1-2.681a5.987,5.987,0,0,1,4.772-7.894c.914-.163,1.833-.3,2.746-.461a6.013,6.013,0,0,0,4.78-4.615c.195-.908.332-1.827.458-2.747a6.022,6.022,0,0,1,8.151-4.94c.776.28,1.54.595,2.313.885a6.01,6.01,0,0,0,7.092-1.895c.524-.638,1.039-1.282,1.573-1.911a5.981,5.981,0,0,1,9.32-.1c.581.656,1.11,1.357,1.67,2.031a6.031,6.031,0,0,0,7.034,1.895A24.455,24.455,0,0,1,580,448.879a5.943,5.943,0,0,1,7.062,5.072c.136.918.268,1.838.451,2.747a5.971,5.971,0,0,0,4.9,4.756c.939.162,1.884.3,2.82.481a6,6,0,0,1,4.592,7.885c-.318.953-.721,1.877-1.05,2.826A5.981,5.981,0,0,0,600.6,479.3c.726.619,1.477,1.209,2.2,1.824a6.031,6.031,0,0,1-.015,9.234c-.729.614-1.487,1.2-2.2,1.824a6.009,6.009,0,0,0-1.724,6.881c.337.893.7,1.778.99,2.686a5.983,5.983,0,0,1-4.709,7.808c-.863.154-1.73.289-2.593.439a6.048,6.048,0,0,0-5.124,5.178c-.127.789-.246,1.58-.373,2.37a6,6,0,0,1-8.049,4.811c-.9-.313-1.779-.686-2.68-1a5.966,5.966,0,0,0-6.655,1.811c-.583.689-1.141,1.4-1.719,2.093a5.97,5.97,0,0,1-9.215.213c-.625-.685-1.183-1.43-1.775-2.146a6.015,6.015,0,0,0-7.1-1.863c-.77.294-1.535.607-2.314.879a6.007,6.007,0,0,1-8.118-4.892c-.12-.789-.237-1.58-.372-2.368A6.022,6.022,0,0,0,534,510.012c-.915-.157-1.832-.3-2.744-.467C528.379,509.007,526.333,506.541,526.342,502.935Zm36.935,15.811A33.013,33.013,0,1,0,530.3,485.721,33.012,33.012,0,0,0,563.277,518.746Z" transform="translate(-476.602 -418.714)"/><path d="M574.567,498.334v25.941c-4.267-4.375-8.794-8.957-13.47-13.633l-3.927-3.927-3.927,3.927c-2.768,2.769-5.34,5.3-8.061,7.986-1.694,1.669-3.463,3.412-5.409,5.338V498.334h-6l.012,40.374.767-.767c4.387-4.387,8.83-8.861,13.124-13.188,3.487-3.511,6.745-6.793,9.5-9.547,6.851,6.85,13.116,13.1,17.4,17.381l0,.265h.264c1.627,1.627,2.883,2.933,3.808,3.893.5.521.89.924,1.162,1.2l.767.767V498.334Z" transform="translate(-470.512 -391.634)"/><g transform="translate(79.277 49.387)"><path class="c" d="M544.465,488.514a7.5,7.5,0,0,0,3.231-2.771,7.058,7.058,0,0,0,1.156-3.879,7.591,7.591,0,0,0-.139-1.477h-4.248v-3.924h3.417q-1.157-2.125-1.685-3.234a13.776,13.776,0,0,1-.9-2.539,13.042,13.042,0,0,1-.372-3.277,6.863,6.863,0,0,1,7.482-7.342,7.138,7.138,0,0,1,5.587,2.1,8.708,8.708,0,0,1,1.893,6.026v1.893h-4.8v-2.217a3.708,3.708,0,0,0-.647-2.423,2.73,2.73,0,0,0-3.785,0,3.707,3.707,0,0,0-.647,2.423,11.3,11.3,0,0,0,.508,3.418,31.957,31.957,0,0,0,1.385,3.554l.692,1.616h5.632v3.924h-4.754a13.242,13.242,0,0,1-.647,4.294,8.418,8.418,0,0,1-2.539,3.554h9.281v4.618h-15.1Z" transform="translate(-544.465 -460.07)"/></g></svg>