<svg xmlns="http://www.w3.org/2000/svg" width="173" height="173" viewBox="0 0 173 173"><defs><style>.a{fill:#64bca7;}.b{fill:#fff;}.c{fill:#f28e33;}</style></defs><circle class="a" cx="82.006" cy="82.006" r="82.006" transform="translate(4.045 4.943)"/><path d="M311.937,52.843a86.5,86.5,0,1,0,86.5,86.5A86.5,86.5,0,0,0,311.937,52.843Zm0,165.361A78.861,78.861,0,1,1,390.8,139.343,78.862,78.862,0,0,1,311.937,218.2Z" transform="translate(-225.437 -52.843)"/><g transform="translate(69.443 126.855)"><path class="b" d="M271.8,162.846a12.348,12.348,0,0,1,.95-5.084,17.566,17.566,0,0,1,3.4-4.69,20.776,20.776,0,0,0,3.345-4.392,8.257,8.257,0,0,0,.929-3.8,3.984,3.984,0,0,0-.574-2.473,2.063,2.063,0,0,0-1.681-.692q-2.256,0-2.256,2.731v2.967H271.8v-2.69a7.344,7.344,0,0,1,1.661-5.165,7.377,7.377,0,0,1,9.655,0,7.352,7.352,0,0,1,1.661,5.165,10.933,10.933,0,0,1-1.207,4.944,24.35,24.35,0,0,1-4.174,5.54,16.807,16.807,0,0,0-2.611,3.343,5.837,5.837,0,0,0-.673,2.75v.593h8.268v3.957H271.8Z" transform="translate(-271.799 -137.422)"/><path class="b" d="M290.038,160.7H281.73V156.74l7.915-18.714h4.748V156.74h2.057V160.7h-2.057v5.025h-4.354Zm0-3.957v-10.8h-.078l-4.273,10.8Z" transform="translate(-266.855 -137.291)"/><path class="b" d="M292.386,137.535h1.949v5.049h2.091v-5.049h1.95v12.4h-1.95v-5.582h-2.091v5.582h-1.949Z" transform="translate(-261.55 -137.535)"/><path class="b" d="M297.354,137.535h2.889a2.491,2.491,0,0,1,2.888,2.852v.762q0,1.932-1.276,2.446v.034a1.529,1.529,0,0,1,1,.869,4.378,4.378,0,0,1,.294,1.754v2.181a8.284,8.284,0,0,0,.035.86,2.161,2.161,0,0,0,.177.646h-1.985a2.87,2.87,0,0,1-.142-.566,8.931,8.931,0,0,1-.034-.957v-2.268a1.928,1.928,0,0,0-.276-1.188,1.16,1.16,0,0,0-.948-.337H299.3v5.316h-1.95Zm2.659,5.316a1.17,1.17,0,0,0,.878-.3,1.426,1.426,0,0,0,.292-1.011v-.957a1.577,1.577,0,0,0-.24-.974.9.9,0,0,0-.753-.3H299.3v3.544Z" transform="translate(-259.077 -137.535)"/></g><g transform="translate(50.005 47.438)"><path d="M292.03,108.321c1.044-.084,3.109-.214,5.166-.421a36.014,36.014,0,0,0,6.778-1.381,25.962,25.962,0,0,0,7.41-3.376,10.531,10.531,0,0,0,3.662-3.887,4.417,4.417,0,0,0,.371-3.246,7.147,7.147,0,0,0-1.836-3.036,16.694,16.694,0,0,0-4.3-3.1,29.47,29.47,0,0,0-4.958-2.009,37.359,37.359,0,0,0-5.659-1.3c-1.514-.229-3.048-.343-4.576-.466a45.522,45.522,0,0,0-10.775.482,52.124,52.124,0,0,0-5.251,1.209,24.294,24.294,0,0,0-6.743,2.925,11.409,11.409,0,0,0-4.192,4.085,4.632,4.632,0,0,0-.01,4.682,10.294,10.294,0,0,0,2.987,3.264,23.342,23.342,0,0,0,6.55,3.328,39.423,39.423,0,0,0,7.236,1.715A59.232,59.232,0,0,0,292.03,108.321Z" transform="translate(-255.009 -83.792)"/><path d="M279.2,116.877c.069.082.079.109.1.115a32.763,32.763,0,0,0,5.96,1.532c1.776.282,3.572.467,5.365.607a45.988,45.988,0,0,0,11.051-.548,38.014,38.014,0,0,0,6.7-1.706,21.97,21.97,0,0,0,6.842-3.728,8.6,8.6,0,0,0,2.642-3.444,4.479,4.479,0,0,0-.409-4.071,9.931,9.931,0,0,0-2.615-2.865,23.367,23.367,0,0,0-4.875-2.807.593.593,0,0,0-.825.187,12.7,12.7,0,0,1-2.919,2.465c-1.128.708-2.328,1.3-3.485,1.962a.708.708,0,0,0-.324.4,9.527,9.527,0,0,1-2.816,4.715,20.421,20.421,0,0,1-6.252,3.984,34.369,34.369,0,0,1-8.091,2.389c-1.73.282-3.475.467-5.212.7C279.77,116.8,279.508,116.834,279.2,116.877Z" transform="translate(-248.678 -76.868)"/><path d="M314.66,118.5a2.182,2.182,0,0,0-.268.181,20.148,20.148,0,0,1-5.29,3.381,29.879,29.879,0,0,1-5.675,1.979c-1.773.4-3.563.749-5.355,1.074a18.775,18.775,0,0,1-2.356.246c-1.753.1-3.5.229-5.257.225a44.632,44.632,0,0,1-7.912-.686c-1.4-.258-2.8-.557-4.177-.923-1.219-.322-2.418-.734-3.607-1.156a21.867,21.867,0,0,1-7.119-4.076c-.082-.072-.178-.127-.3-.21-.147.273-.277.5-.4.74a4.039,4.039,0,0,0-.313,3.045,8.027,8.027,0,0,0,2.72,3.836,20.415,20.415,0,0,0,5.5,3.235,31.343,31.343,0,0,0,5.028,1.624c1.164.271,2.334.521,3.512.713,1.077.175,2.167.273,3.253.379a45.445,45.445,0,0,0,7.038.129,37.044,37.044,0,0,0,6.188-.752c1.773-.407,3.563-.78,5.29-1.341a21.692,21.692,0,0,0,7.492-3.963,8.539,8.539,0,0,0,2.6-3.427A4.455,4.455,0,0,0,314.66,118.5Z" transform="translate(-255.013 -67.593)"/><path d="M299.783,110.624l-.024-.127c-.112,0-.225-.009-.337,0-.614.051-1.227.117-1.841.157a53.708,53.708,0,0,1-7.669-.022,48.068,48.068,0,0,1-6.209-.87,39,39,0,0,1-5.651-1.613,23.688,23.688,0,0,1-7.41-4.2,11.032,11.032,0,0,1-2.417-2.906,6.656,6.656,0,0,1-.956-2.954c-.048-1.068-.054-2.137-.078-3.207,0-.133-.012-.267-.019-.442a2.373,2.373,0,0,0-.261.108c-.806.482-1.637.929-2.411,1.459a10.038,10.038,0,0,0-3.387,3.589,4.529,4.529,0,0,0-.55,2.888,6.654,6.654,0,0,0,1.922,3.52,16.107,16.107,0,0,0,3.962,2.931,27.526,27.526,0,0,0,6.4,2.515,48.412,48.412,0,0,0,5.186,1.038,44.755,44.755,0,0,0,5.1.469c1.89.061,3.791.019,5.681-.1a44.24,44.24,0,0,0,4.735-.592c1.335-.231,2.648-.59,3.963-.93C298.276,111.135,299.027,110.862,299.783,110.624Z" transform="translate(-257.981 -79.572)"/><path d="M305.752,120.811l-.022-.123c-.112,0-.225-.006-.337,0-1.311.082-2.62.189-3.932.25a48.623,48.623,0,0,1-10.28-.691,38.777,38.777,0,0,1-5.973-1.486,28.02,28.02,0,0,1-6.361-2.946,13.7,13.7,0,0,1-4.189-3.875,1.34,1.34,0,0,0-.99-.592c-1.107-.2-2.214-.413-3.307-.674-.992-.237-1.965-.553-2.951-.813a.418.418,0,0,0-.37.114,4.321,4.321,0,0,0-.034,4.2,8.953,8.953,0,0,0,2.34,2.868,22.786,22.786,0,0,0,7.645,4.049,33.881,33.881,0,0,0,6.945,1.585c1.893.214,3.791.4,5.693.5a36.935,36.935,0,0,0,6.3-.231c1.188-.142,2.383-.252,3.554-.475,1.378-.264,2.741-.616,4.1-.968C304.317,121.316,305.03,121.045,305.752,120.811Z" transform="translate(-255.011 -71.897)"/><path d="M298.194,155.808c1.514-.151,3.041-.231,4.541-.467a39.514,39.514,0,0,0,9.152-2.479,22.125,22.125,0,0,0,6.306-3.775,10.46,10.46,0,0,0,2.939-4,7.726,7.726,0,0,0,.5-2.76c.008-1.291-.012-2.582,0-3.873a7.467,7.467,0,0,0-1.3-4.405.783.783,0,0,1,.015-1.046,7.727,7.727,0,0,0,1.134-2.527.647.647,0,0,1,.307-.37,23.794,23.794,0,0,0,4.753-2.883,10.761,10.761,0,0,0,3.665-4.853c.121-.355.2-.723.3-1.086l.04,0s.818-3.995,0-6.586a8.443,8.443,0,0,0-1.555-3.488,14.608,14.608,0,0,0-3.306-3.171,24.957,24.957,0,0,0-4.473-2.464c-.277-.123-.3-.244-.181-.5a6.712,6.712,0,0,0,.6-2.807c0-1.43.024-2.861,0-4.291a7.9,7.9,0,0,0-1.606-4.66,16.22,16.22,0,0,0-5.218-4.374,28.807,28.807,0,0,0-5-2.185c-1.2-.406-2.426-.716-3.652-1.022a45,45,0,0,0-6.876-1.086c-.382-.034-.765-.04-1.149-.064,0,0-4.681-.159-6.71,0-1.878.153-3.745.346-5.6.668a38.677,38.677,0,0,0-5.837,1.457,24.024,24.024,0,0,0-8.625,4.7,10.326,10.326,0,0,0-2.831,3.917c-.151.386-.223.8-.364,1.2a.688.688,0,0,1-.3.371,22.919,22.919,0,0,0-4.81,2.925,10.691,10.691,0,0,0-3.607,4.813c-.123.368-.195.753-.328,1.129a17.555,17.555,0,0,0,0,6.553,9.128,9.128,0,0,0,.957,2.527,10.929,10.929,0,0,0,1.949,2.486,21.221,21.221,0,0,0,6.4,4.079c.282.124.322.238.2.524a7.414,7.414,0,0,0-.6,3.018c.015,1.279.019,2.56,0,3.839a7.548,7.548,0,0,0,1.318,4.4.614.614,0,0,1,.01.8,7.548,7.548,0,0,0-1.329,4.432q.022,1.8,0,3.593a8.166,8.166,0,0,0,1.727,5.218,14.979,14.979,0,0,0,3.351,3.122,26.5,26.5,0,0,0,6.773,3.289,39.009,39.009,0,0,0,5.8,1.468,48.69,48.69,0,0,0,6.02.707A43.792,43.792,0,0,0,298.194,155.808Z" transform="translate(-258.822 -84.514)"/><path class="c" d="M279.2,116.877c.31-.043.572-.081.834-.115,1.737-.229,3.482-.415,5.212-.7a34.369,34.369,0,0,0,8.091-2.389,20.421,20.421,0,0,0,6.252-3.984,9.527,9.527,0,0,0,2.816-4.715.708.708,0,0,1,.324-.4c1.158-.661,2.358-1.254,3.485-1.962a12.7,12.7,0,0,0,2.919-2.465.593.593,0,0,1,.825-.187,23.367,23.367,0,0,1,4.875,2.807,9.931,9.931,0,0,1,2.615,2.865,4.479,4.479,0,0,1,.409,4.071,8.6,8.6,0,0,1-2.642,3.444,21.97,21.97,0,0,1-6.842,3.728,38.014,38.014,0,0,1-6.7,1.706,45.988,45.988,0,0,1-11.051.548c-1.793-.139-3.589-.325-5.365-.607a32.763,32.763,0,0,1-5.96-1.532C279.277,116.986,279.267,116.959,279.2,116.877Z" transform="translate(-248.678 -76.868)"/><path class="c" d="M314.66,118.5a4.455,4.455,0,0,1,.6,4.252,8.539,8.539,0,0,1-2.6,3.427,21.692,21.692,0,0,1-7.492,3.963c-1.727.56-3.517.933-5.29,1.341a37.044,37.044,0,0,1-6.188.752,45.445,45.445,0,0,1-7.038-.129c-1.086-.106-2.176-.2-3.253-.379-1.179-.192-2.349-.442-3.512-.713a31.343,31.343,0,0,1-5.028-1.624,20.415,20.415,0,0,1-5.5-3.235,8.027,8.027,0,0,1-2.72-3.836,4.039,4.039,0,0,1,.313-3.045c.121-.237.252-.467.4-.74.117.082.213.138.3.21a21.867,21.867,0,0,0,7.119,4.076c1.189.422,2.388.834,3.607,1.156,1.378.365,2.775.665,4.177.923a44.632,44.632,0,0,0,7.912.686c1.753,0,3.5-.127,5.257-.225a18.775,18.775,0,0,0,2.356-.246c1.791-.325,3.581-.67,5.355-1.074a29.879,29.879,0,0,0,5.675-1.979,20.148,20.148,0,0,0,5.29-3.381A2.182,2.182,0,0,1,314.66,118.5Z" transform="translate(-255.013 -67.593)"/><path class="c" d="M299.783,110.624c-.756.238-1.507.511-2.274.71-1.315.34-2.629.7-3.963.93a44.24,44.24,0,0,1-4.735.592c-1.89.12-3.791.162-5.681.1a44.755,44.755,0,0,1-5.1-.469,48.412,48.412,0,0,1-5.186-1.038,27.526,27.526,0,0,1-6.4-2.515A16.107,16.107,0,0,1,262.486,106a6.654,6.654,0,0,1-1.922-3.52,4.529,4.529,0,0,1,.55-2.888,10.038,10.038,0,0,1,3.387-3.589c.774-.53,1.606-.977,2.411-1.459a2.373,2.373,0,0,1,.261-.108c.008.175.016.309.019.442.024,1.069.03,2.139.078,3.207a6.656,6.656,0,0,0,.956,2.954,11.032,11.032,0,0,0,2.417,2.906,23.688,23.688,0,0,0,7.41,4.2,39,39,0,0,0,5.651,1.613,48.068,48.068,0,0,0,6.209.87,53.708,53.708,0,0,0,7.669.022c.614-.04,1.227-.106,1.841-.157.112-.009.225,0,.337,0Z" transform="translate(-257.981 -79.572)"/><path class="b" d="M305.752,120.811c-.722.234-1.435.5-2.169.695-1.359.352-2.722.7-4.1.968-1.171.223-2.367.333-3.554.475a36.935,36.935,0,0,1-6.3.231c-1.9-.1-3.8-.283-5.693-.5a33.881,33.881,0,0,1-6.945-1.585,22.786,22.786,0,0,1-7.645-4.049A8.953,8.953,0,0,1,267,114.18a4.321,4.321,0,0,1,.034-4.2.418.418,0,0,1,.37-.114c.986.261,1.959.577,2.951.813,1.093.261,2.2.473,3.307.674a1.34,1.34,0,0,1,.99.592,13.7,13.7,0,0,0,4.189,3.875,28.02,28.02,0,0,0,6.361,2.946,38.777,38.777,0,0,0,5.973,1.486,48.623,48.623,0,0,0,10.28.691c1.312-.061,2.621-.168,3.932-.25.112-.007.225,0,.337,0Z" transform="translate(-255.011 -71.897)"/><path class="b" d="M292.03,108.321a59.232,59.232,0,0,1-8.147-.538,39.423,39.423,0,0,1-7.236-1.715,23.342,23.342,0,0,1-6.55-3.328,10.294,10.294,0,0,1-2.987-3.264,4.632,4.632,0,0,1,.01-4.682,11.409,11.409,0,0,1,4.192-4.085,24.294,24.294,0,0,1,6.743-2.925,52.124,52.124,0,0,1,5.251-1.209,45.522,45.522,0,0,1,10.775-.482c1.528.123,3.062.237,4.576.466a37.359,37.359,0,0,1,5.659,1.3,29.47,29.47,0,0,1,4.958,2.009,16.694,16.694,0,0,1,4.3,3.1,7.147,7.147,0,0,1,1.836,3.036,4.417,4.417,0,0,1-.371,3.246,10.531,10.531,0,0,1-3.662,3.887,25.962,25.962,0,0,1-7.41,3.376A36.014,36.014,0,0,1,297.2,107.9C295.139,108.107,293.074,108.237,292.03,108.321Z" transform="translate(-255.009 -83.792)"/></g><path d="M307.38,69.6a60.1,60.1,0,0,0-41.5,12.338l.01.012c-.977.738-1.94,1.5-2.882,2.31a60.352,60.352,0,0,0,11.74,99.536l2-6.168a53.961,53.961,0,0,1-9.583-88.512,58.66,58.66,0,0,1,8.44-6.02c.1-.055.19-.112.286-.166.189-.109.38-.214.569-.321a53.939,53.939,0,0,1,71.24,76.833c.524-3.9,1.048-7.8,1.592-11.9l-5.854-.458a133.191,133.191,0,0,1-2.594,18.6c-.2.93-.427,1.859-.66,2.8-.058.055-.114.112-.172.168.033.037.072.064.106.1-.265,1.065-.544,2.146-.819,3.271a9.258,9.258,0,0,0,1.1-.015,97.812,97.812,0,0,1,23.17-.318l.572.049.46-5.879c-4.831-.118-8.987-.186-13.4-.277A60.332,60.332,0,0,0,307.38,69.6Z" transform="translate(-217.234 -44.593)"/></svg>