<svg xmlns="http://www.w3.org/2000/svg" width="173" height="173" viewBox="0 0 173 173"><defs><style>.a{fill:#64bca7;}.b{fill:#fff;}.c{fill:#f28e33;}</style></defs><circle class="a" cx="82.006" cy="82.006" r="82.006" transform="translate(4.045 4.944)"/><path d="M578.3,52.9a86.5,86.5,0,1,0,86.5,86.5A86.5,86.5,0,0,0,578.3,52.9Zm0,165.361A78.861,78.861,0,1,1,657.165,139.4,78.862,78.862,0,0,1,578.3,218.257Z" transform="translate(-491.804 -52.896)"/><rect class="b" width="63.006" height="43.138" transform="translate(40.492 47.552)"/><path d="M617.032,120.751a33.015,33.015,0,0,0-.232-3.781,20.461,20.461,0,0,0-17.09-17.727,50.071,50.071,0,0,0-6.836-.336c-.981,0-1.994-.006-2.984-.036-.515-.015-1.029-.012-1.6-.007l-.424,0c-.042-2.17-.034-4.329-.027-6.42.011-2.516.02-5.117-.06-7.669l-.014-.436H518.752l-.069.365c-.4,2.1-.3,58.156,0,67.422l.1.884h9.7a10.433,10.433,0,0,0,20.1,0h35.747a10.432,10.432,0,0,0,20.125-.106l12.073-.013.44,0,.018-.646c.018-.463.06-1.544.061-2.1v-1C617.044,139.842,617.05,130.217,617.032,120.751Zm-92.852,9.82c1.116-.076,2.257-.064,3.364-.051.6.006,1.2.013,1.8.007,1.351-.015,2.7-.015,4.052-.016l44.532-.061,3.442-.009q1.937,0,4.008,0h2.38l.027-.419c.048-.725.046-1.327.045-1.91v-.333q.011-8.342.006-16.684v-2.536h-5.789v16.177c-17.718.093-35.668.111-53.031.129l-4.82,0V89.981h57.851v14.6h.449c.367,0,.954,0,1.694-.01,3.83-.028,11.8-.085,14.472.264a14.756,14.756,0,0,1,12.559,13.457c.042.484.088,1.035.088,1.561q.009,13.094,0,26.185c0,.121,0,.241,0,.364,0,.228.006.463,0,.717h-4.648l-2.331.016a10.435,10.435,0,0,0-19.977.121l-7.166,0c-9.615,0-19.556-.007-28.655.03a10.434,10.434,0,0,0-19.992-.123l-4.369-.027Zm19.043,19.638a4.7,4.7,0,1,1-4.7-4.7A4.7,4.7,0,0,1,543.223,150.209Zm51.145-4.7a4.7,4.7,0,1,1-4.7,4.7A4.7,4.7,0,0,1,594.369,145.512Z" transform="translate(-478.554 -37.241)"/><g transform="translate(58.696 61.681)"><path class="c" d="M530.991,94.076h6.731v2.313h-4.186v4.51h3.285v2.313h-3.285v7.055h-2.545Z" transform="translate(-530.991 -94.076)"/><path class="c" d="M536.3,94.076h3.77a3.886,3.886,0,0,1,2.867.914,3.847,3.847,0,0,1,.9,2.81v.995q0,2.521-1.664,3.19v.048a1.988,1.988,0,0,1,1.306,1.132,5.706,5.706,0,0,1,.382,2.29V108.3a10.293,10.293,0,0,0,.046,1.122,2.754,2.754,0,0,0,.231.845h-2.59a3.536,3.536,0,0,1-.186-.74,11,11,0,0,1-.046-1.249v-2.961a2.511,2.511,0,0,0-.359-1.55,1.517,1.517,0,0,0-1.236-.439h-.879v6.939H536.3Zm3.469,6.938a1.529,1.529,0,0,0,1.146-.392,1.859,1.859,0,0,0,.382-1.32V98.053a2.057,2.057,0,0,0-.313-1.272,1.185,1.185,0,0,0-.984-.392h-1.155v4.625Z" transform="translate(-528.347 -94.076)"/><path class="c" d="M542.526,94.076h6.939v2.313h-4.393v4.279h3.491v2.313h-3.491v4.973h4.393v2.313h-6.939Z" transform="translate(-525.249 -94.076)"/><path class="c" d="M548.131,94.076h6.939v2.313h-4.395v4.279h3.492v2.313h-3.492v4.973h4.395v2.313h-6.939Z" transform="translate(-522.458 -94.076)"/></g></svg>