<svg xmlns="http://www.w3.org/2000/svg" width="173" height="173" viewBox="0 0 173 173"><defs><style>.a{fill:#64bca7;}.b{fill:#fff;}.c{fill:#f28e33;}</style></defs><circle class="a" cx="82.006" cy="82.006" r="82.006" transform="translate(4.045 4.943)"/><path d="M578.037,239.6a86.5,86.5,0,1,0,86.5,86.5A86.5,86.5,0,0,0,578.037,239.6Zm0,165.361A78.861,78.861,0,1,1,656.9,326.1,78.863,78.863,0,0,1,578.037,404.959Z" transform="translate(-491.537 -239.598)"/><path d="M602.145,301.168c.04.38.078.762.115,1.158q.031.328.063.661H583.668a88.341,88.341,0,0,0-2.728-19.993l.861-.229c.947-.25,1.841-.485,2.728-.812,2.671-.981,5.29-2.031,7.963-3.11.222-.09.222-.091.365.085a42.1,42.1,0,0,1,8.205,16.243l5.581,1.153a47.181,47.181,0,0,0-46.16-37.979h-.243a47.283,47.283,0,1,0-.015,94.566h0a47.25,47.25,0,0,0,47.317-47.162q0-1.8-.123-3.574ZM547.559,265.5a44.545,44.545,0,0,0-6.51,12.507,55.852,55.852,0,0,1-9.537-3.211A41.886,41.886,0,0,1,547.559,265.5Zm-29.338,36.694c.088-.93.171-1.809.3-2.693a42.111,42.111,0,0,1,8.894-20.324,4.458,4.458,0,0,1,.343-.4,4.1,4.1,0,0,1,.482.211,59.962,59.962,0,0,0,11.055,3.929c.076.019.153.04.231.064a88.149,88.149,0,0,0-2.722,20.014H518.145C518.172,302.727,518.2,302.46,518.221,302.194Zm9.553,30.28a.651.651,0,0,1-.144-.148,42.009,42.009,0,0,1-9.018-20.069c-.148-.92-.241-1.871-.332-2.79-.038-.388-.076-.777-.118-1.165l0-.054H536.8a88.531,88.531,0,0,0,2.729,20.01l-.337.093c-.533.145-1.054.288-1.576.431a55.966,55.966,0,0,0-9.712,3.64A.893.893,0,0,1,527.774,332.474Zm3.727,3.96a58.1,58.1,0,0,1,9.5-3.22l.051-.011c.016.04.036.1.057.157a44.89,44.89,0,0,0,4.973,10.241c.44.658.926,1.293,1.394,1.907l.195.253A41.119,41.119,0,0,1,531.5,336.434Zm10.485-28.2H557.6v17.6c-.135.006-.271.01-.406.015-.6.021-1.221.042-1.833.108-3.082.331-6.731.731-10.422,1.185a.965.965,0,0,1-.328.01.647.647,0,0,1-.1-.262A83.948,83.948,0,0,1,541.986,308.231Zm15.627,39.025-.1-.042a15.015,15.015,0,0,1-1.374-.653,15.52,15.52,0,0,1-4.661-4.267,37.292,37.292,0,0,1-5.307-10.136,77.533,77.533,0,0,1,11.439-1.134Zm.042-48.582,0,4.285v.036H542.041c0-.088,0-.175,0-.262,0-.5-.01-.977.01-1.453a82.069,82.069,0,0,1,2.476-16.957c.057-.222.093-.258.082-.256a.56.56,0,0,1,.229.015,77.842,77.842,0,0,0,12.663,1.281,1.186,1.186,0,0,1,.157.012.931.931,0,0,1,.008.138Q557.648,292.093,557.655,298.674Zm0-18.455a1.1,1.1,0,0,1-.2.006,88.536,88.536,0,0,1-11.133-1.1l-.148-.028a37.048,37.048,0,0,1,5.385-10.245,14.888,14.888,0,0,1,5.241-4.52c.265-.127.542-.235.86-.356l0,3.641q0,6.188.012,12.375A1.1,1.1,0,0,1,557.65,280.219Zm31.324-5.419c-.184.085-.367.169-.553.249a62.779,62.779,0,0,1-8.69,2.924.669.669,0,0,1-.291.04h0c-.01-.007-.06-.055-.15-.315a43.4,43.4,0,0,0-5.274-10.624c-.422-.611-.881-1.2-1.327-1.778C576.856,266.244,586.5,271.823,588.975,274.8Zm-26.107-10.813c.079.025.156.054.232.085a14.174,14.174,0,0,1,5.7,4.633,36.69,36.69,0,0,1,5.5,10.386,82.244,82.244,0,0,1-11.436,1.123Zm-.063,21.687c0-.216.02-.283.01-.283a.777.777,0,0,1,.288-.037,78.025,78.025,0,0,0,12.488-1.26,2.024,2.024,0,0,1,.265-.031.586.586,0,0,1,.085.216,83.912,83.912,0,0,1,2.545,18.712H562.816v-4.02Q562.819,292.322,562.8,285.674Zm.047,22.584h15.633a83.569,83.569,0,0,1-2.542,18.687,1.344,1.344,0,0,1-.075.22.689.689,0,0,1-.255-.018,84.2,84.2,0,0,0-12.761-1.3ZM563,347.205c-.049.02-.1.037-.15.055V331.043a73.414,73.414,0,0,1,11.426,1.12,33.462,33.462,0,0,1-6.49,11.554A12.756,12.756,0,0,1,563,347.205Zm9.794-1.388.073-.1c.611-.828,1.189-1.61,1.73-2.431a43.022,43.022,0,0,0,4.7-9.787.964.964,0,0,1,.123-.271.714.714,0,0,1,.3.043,60.024,60.024,0,0,1,9.17,3.126l.081.036A42.216,42.216,0,0,1,572.8,345.817Zm29.154-34.125a42.243,42.243,0,0,1-9.013,20.522c-.22.273-.24.277-.562.12a57.362,57.362,0,0,0-11.219-4.008c-.073-.02-.148-.037-.222-.058a88.015,88.015,0,0,0,2.728-20h18.66c-.027.262-.051.523-.075.783C602.163,309.96,602.082,310.823,601.952,311.691Z" transform="translate(-480.889 -230.266)"/><g transform="translate(77.103 66.415)"><path class="b" d="M604.3,306.528q0-6.381,0-12.763a2.761,2.761,0,0,0-2.412-2.975q-13.372-2.692-26.751-5.361a4.9,4.9,0,0,0-1.857,0q-13.3,2.64-26.588,5.329a2.792,2.792,0,0,0-2.546,3.084c0,7.251-.012,14.5.009,21.755.006,1.588.066,3.181.214,4.763a47.106,47.106,0,0,0,8.38,22.923,51.552,51.552,0,0,0,20.23,16.948,2.839,2.839,0,0,0,2.612-.057,52.122,52.122,0,0,0,16.431-12.269,47.43,47.43,0,0,0,12.27-31.615C604.347,313.041,604.3,309.785,604.3,306.528Z" transform="translate(-542.454 -283.239)"/><path d="M606.54,306.309c0,3.439.051,6.877-.009,10.314a50.089,50.089,0,0,1-12.958,33.384,55.017,55.017,0,0,1-17.351,12.955,2.993,2.993,0,0,1-2.759.06,54.426,54.426,0,0,1-21.362-17.9,49.731,49.731,0,0,1-8.848-24.205c-.157-1.67-.222-3.354-.226-5.03-.024-7.657-.01-15.314-.01-22.972a2.948,2.948,0,0,1,2.689-3.256q14.038-2.822,28.075-5.627a5.147,5.147,0,0,1,1.962,0q14.13,2.8,28.248,5.66a2.918,2.918,0,0,1,2.548,3.141Q606.543,299.572,606.54,306.309Zm-4.507-12.8c-9.044-1.82-17.993-3.62-26.943-5.413a1.892,1.892,0,0,0-.728.02q-13.094,2.624-26.188,5.248c-.545.108-.665.328-.664.842q.022,10.872.01,21.741a45.947,45.947,0,0,0,3.733,18.269c4.7,10.987,12.661,18.921,23.127,24.467a1.027,1.027,0,0,0,.83-.018,50.714,50.714,0,0,0,17.48-14.688,46.088,46.088,0,0,0,9.326-27.518c.091-7.369.018-14.74.018-22.111Z" transform="translate(-543.013 -283.938)"/><g transform="translate(4.497 4.135)"><path d="M573.3,287.6a.577.577,0,0,1,.115.01c7.723,1.546,15.446,3.1,23.228,4.664l2.993.6v.1q0,3.413.013,6.824c.016,5.007.031,10.187-.031,15.275a45.349,45.349,0,0,1-9.149,26.994,50.063,50.063,0,0,1-17.155,14.418.359.359,0,0,1-.054,0h-.008c-10.65-5.657-18.277-13.732-22.671-24a45.2,45.2,0,0,1-3.661-17.916v-.511c0-6.95,0-14.135-.01-21.2,5.858-1.165,11.809-2.361,17.567-3.517q4.28-.861,8.563-1.72a1.406,1.406,0,0,1,.259-.028m0-.9a2.214,2.214,0,0,0-.436.046q-13.094,2.624-26.188,5.248c-.544.108-.665.328-.664.842q.022,10.872.01,21.741a45.947,45.947,0,0,0,3.733,18.269c4.7,10.987,12.661,18.921,23.125,24.467a.838.838,0,0,0,.38.079,1.014,1.014,0,0,0,.451-.1,50.716,50.716,0,0,0,17.48-14.688,46.089,46.089,0,0,0,9.326-27.52c.091-7.368.018-14.739.018-22.11v-.839c-9.044-1.82-17.993-3.62-26.943-5.413a1.57,1.57,0,0,0-.292-.027Z" transform="translate(-546.016 -286.699)"/></g></g><g transform="translate(92.121 80.722)"><path class="c" d="M582.6,307.393c-.017-.078-.019.777-.029,1.631h-4.437l-.054-2.45a10.841,10.841,0,0,0-1.884-5.75,7.7,7.7,0,0,0-4.64-2.742,7.537,7.537,0,0,0-6.978,2.236,6.978,6.978,0,0,0-2.184,4.576c-.112,1.743-.084,3.494-.112,5.242a.876.876,0,0,0,0,.3h.658l20.911-.007a3.465,3.465,0,0,1,3.348,2.963,15.377,15.377,0,0,1,.1,1.7q.011,7.936,0,15.868a3.594,3.594,0,0,1-1.719,3.3,3.434,3.434,0,0,1-1.652.506q-13.779.043-27.559.013a3.489,3.489,0,0,1-3.214-2.861,15.853,15.853,0,0,1-.112-1.808q-.013-7.906,0-15.814a4,4,0,0,1,.7-2.37,3.281,3.281,0,0,1,2.753-1.489c1.359-.015,1.36,0,1.359-1.378,0-1.234-.023-2.467.006-3.7a11.911,11.911,0,0,1,2.823-7.435,12.149,12.149,0,0,1,5.719-3.869,12.6,12.6,0,0,1,5.538-.446,11.409,11.409,0,0,1,5.659,2.341,11.928,11.928,0,0,1,4.792,8.2,9.954,9.954,0,0,1,.084,1.384Z" transform="translate(-553.04 -293.491)"/><path class="b" d="M568,321.455v-.677c0-1.233.015-2.464-.01-3.7a.964.964,0,0,1,.425-.849,3.938,3.938,0,0,0,1.625-4.062,4.205,4.205,0,0,0-5.013-3.423,4.137,4.137,0,0,0-3.234,3.1,3.7,3.7,0,0,0,1.168,4.022,2.292,2.292,0,0,1,.827,2.112c-.033.963-.007,1.928-.007,2.892v.584Z" transform="translate(-548.769 -285.939)"/></g></svg>