<svg xmlns="http://www.w3.org/2000/svg" xmlns:xlink="http://www.w3.org/1999/xlink" width="120" height="114.666" viewBox="0 0 120 114.666"><defs><style>.a{clip-path:url(#a);}</style><clipPath id="a"><path d="M0-133.777H120V-248.443H0Z" transform="translate(0 248.443)"/></clipPath></defs><g class="a"><g transform="translate(0 0)"><path d="M-139.989-46.115c0-1.029-.087-2.058-.148-3.4h-48.085c0-11.668,0-25.912,0-36.126h-7.139c-.007,12.44-.012,30.881.011,43.321,0,.021,46.082.023,48.05.023.069.884.171,1.574.171,2.264q.014,19.369,0,38.739c0,.789-.066,1.58-.132,2.367-.881,10.392-8.838,19.163-19.158,20.509-2.532.33-27.109.407-36.564.421-9.455-.014-28.032-.09-30.564-.421-10.32-1.346-18.277-10.118-19.158-20.509-.067-.787-.132-1.578-.132-2.367q-.012-19.369,0-38.739c0-.69.1-1.38.171-2.264h49.914v-7.218h-57.074c-.061,1.343-.147,2.372-.148,3.4q-.013,21.743.009,43.487a48.012,48.012,0,0,0,.337,5.515c1.517,12.854,11.887,23.819,24.717,25.644,2.623.373,17.248.456,28.466.48v.012c.526,0,1.752,0,3.462-.006s2.935,0,3.462.006v-.012c11.218-.024,31.842-.107,34.466-.48,12.83-1.826,23.2-12.79,24.717-25.644A47.9,47.9,0,0,0-140-2.628q.04-21.743.009-43.487" transform="translate(259.98 85.642)"/></g><g transform="translate(29.078 54)"><path d="M-.007,0C-.013,12.441-.018,30.881,0,43.321c0,.021,0,.042,0,.063H7.133C7.125,30.923,7.124,12.462,7.133,0Z" transform="translate(0.012)"/></g><g transform="translate(42.924 54)"><path d="M-.007,0C-.013,12.441-.018,30.881,0,43.321c0,.021,0,.042,0,.063H7.133C7.125,30.923,7.124,12.462,7.133,0Z" transform="translate(0.012)"/></g><g transform="translate(56.77 54)"><path d="M-.007,0C-.013,12.441-.018,30.881,0,43.321c0,.021,0,.042,0,.063H7.133C7.125,30.923,7.124,12.462,7.133,0Z" transform="translate(0.012)"/></g><g transform="translate(70.616 54)"><path d="M-.007,0C-.013,12.441-.018,30.881,0,43.321c0,.021,0,.042,0,.063H7.133C7.125,30.923,7.124,12.462,7.133,0Z" transform="translate(0.012)"/></g><g transform="translate(84.462 54)"><path d="M-.007,0C-.013,12.441-.018,30.881,0,43.321c0,.021,0,.042,0,.063H7.133C7.125,30.923,7.124,12.462,7.133,0Z" transform="translate(0.012)"/></g></g></svg>