<svg xmlns="http://www.w3.org/2000/svg" xmlns:xlink="http://www.w3.org/1999/xlink" width="120" height="113.305" viewBox="0 0 120 113.305"><defs><style>.a{clip-path:url(#a);}</style><clipPath id="a"><path d="M0-182.824H120V-296.129H0Z" transform="translate(0 296.129)"/></clipPath></defs><g class="a"><g transform="translate(0 0)"><path d="M-13.92-90.826c-.023,1.754-.02,3.507-.015,5.261h4.743c0-1.1,0-2.2,0-3.3,0-.39.063-.778.1-1.211,10.771,1.259,19.579-2.331,26.769-10.218,4.7,7.147,11.38,10.477,19.719,10.48,8.371,0,15.073-3.356,19.749-10.486,7.213,7.935,16.039,11.406,26.71,10.253.025.482.062.883.064,1.284,0,1.066-.019,2.133-.015,3.2h4.78c.012-1.564.016-3.128-.032-4.689a2.1,2.1,0,0,1,1.186-2.112,16.33,16.33,0,0,0,3.661-2.9c4.529-5.113,4.855-10.951,2.435-17.039-2.161-5.435-4.561-10.775-6.822-16.17a5.239,5.239,0,0,1-.39-1.938c-.033-4.549-.015-9.1-.018-13.647,0-2.322-.747-3.056-3.106-3.057q-14.9,0-29.8,0-33.33,0-66.66,0c-2.262,0-3.042.77-3.045,3.018-.006,4.586.009,9.173-.011,13.759a4.341,4.341,0,0,1-.279,1.625c-2.291,5.464-4.645,10.9-6.924,16.371-3.253,7.805-1.023,16.2,6.432,20.19a1.288,1.288,0,0,1,.763,1.325m64.877-9.3c-5.065,5.19-11.294,6.524-18.2,5.03a15.6,15.6,0,0,1-11.234-8.421,24.879,24.879,0,0,1-1.413-4.895c-.184-.71.163-.991.9-.98,2.164.033,4.328.01,6.492.01l25.745,0h1.495a13.122,13.122,0,0,1-3.787,9.255M23.133-114.242c.121-1.147.218-2.275.361-3.4.334-2.624.717-5.243,1.018-7.871.087-.763.381-.988,1.125-.986q11.761.031,23.522.008c.551,0,1.013-.012,1.1.746.451,3.736.944,7.468,1.417,11.2.008.065-.043.137-.1.3Zm69.181,6.218c1.338,6.355-1.964,11.494-8.655,13.016a21.038,21.038,0,0,1-14.343-1.876,25.943,25.943,0,0,1-9.14-7.375,3.278,3.278,0,0,1-.805-2.967,16.875,16.875,0,0,0,.228-2.156h1.224c9.934,0,19.867.021,29.8-.031,1.114-.006,1.484.4,1.692,1.389M85.1-125.717c1.487,3.578,3.016,7.139,4.525,10.708a6.822,6.822,0,0,1,.209.737H56.571c-.515-4.019-1.03-8.027-1.553-12.106.437-.047.727-.1,1.016-.1q13.888-.007,27.776-.013a1.173,1.173,0,0,1,1.292.779M-7.878-142.4c9.3.033,18.6.02,27.9.02H82.3c1.669,0,1.67,0,1.671,1.716,0,2.685-.064,5.372.029,8.053.041,1.189-.38,1.412-1.47,1.409q-19.493-.052-38.987-.022H-9.139v-2.109c0-2.61.047-5.221-.021-7.829-.027-1.015.325-1.241,1.283-1.237m-6.031,25.317c1.188-2.816,2.384-5.629,3.557-8.452.248-.6.524-.965,1.285-.963,9.338.027,18.676.018,28.014.021.218,0,.436.038.862.078-.177,1.32-.356,2.588-.518,3.858-.315,2.477-.638,4.954-.921,7.435-.068.6-.192.942-.916.941q-15.968-.03-31.935-.019a4.857,4.857,0,0,1-.608-.1l1.18-2.8m-3.558,8.931c.184-.929.577-1.262,1.563-1.251,4.811.053,9.623.023,14.435.023H15.194c.148,1.229.336,2.3.371,3.367a2.172,2.172,0,0,1-.535,1.183A24.029,24.029,0,0,1,6.161-97.2c-4.7,2.259-9.561,3.342-14.728,2.26-4.292-.9-7.55-3.142-8.851-7.573a11.679,11.679,0,0,1-.048-5.64" transform="translate(22.569 147.115)"/></g><g transform="translate(8.638 58.986)"><path d="M-157.478-13.005c0,6.642,0,5.223,0,11.865,0,.463-.057.927-.089,1.417H-250.6v-1.5q0-9.919,0-19.838h-4.736q0,25.647,0,51.294c0,2.234.806,3.014,3.054,3.014q16.246,0,32.491.011,31.877,0,63.753-.014c2.621,0,3.31-.693,3.31-3.32,0-17,0-25.931,0-42.925Zm0,39.963c0,.474-.045.948-.072,1.485h-92.979c-.028-.518-.063-.885-.063-1.25,0-6.9.02-13.8-.022-20.7-.006-1.056.263-1.395,1.368-1.39,11.019.042,22.037.028,33.056.028l57.137,0c1.577,0,1.577,0,1.578,1.579q0,10.125,0,20.25" transform="translate(255.336 21.065)"/></g></g></svg>