<svg xmlns="http://www.w3.org/2000/svg" width="326.185" height="361.864" viewBox="0 0 326.185 361.864"><defs><style>.a{fill:#fff;}</style></defs><g transform="translate(-1087.01 -1151.181)"><g transform="translate(1087.01 1151.181)"><path class="a" d="M1251.75,1593.957c-8.127,0-15.578-2.156-21.748-7.785a125.744,125.744,0,1,1,187.887-32.475c-10.68,20.395-39.437,19-64.818,17.761-10.9-.531-21.192-1.032-28.536.263-7.273,1.283-16.719,5.154-26.719,9.252C1282.621,1587.2,1266.131,1593.957,1251.75,1593.957Zm58.577-217.46a113.143,113.143,0,0,0-72.286,200.234l.245.214c3.534,3.26,8.236,4.568,13.651,4.568,11.864,0,27.161-6.269,41.177-12.014,10.636-4.358,20.681-8.476,29.268-9.99,8.712-1.536,19.68-1,31.292-.437,21.719,1.058,46.338,2.256,53.286-11.236l.192-.344a112.76,112.76,0,0,0-96.825-171Z" transform="translate(-1124.132 -1232.093)"/><path class="a" d="M1216.669,1194.479c7.457,0,15.578,3.4,22.869,9.563,8.04,6.8,14.636,16.646,18.574,27.72,4.72,13.276,5.35,26.982,1.774,38.593-3.176,10.31-9.315,17.549-17.287,20.384a23.282,23.282,0,0,1-7.822,1.331c-7.454,0-15.575-3.4-22.864-9.561-8.039-6.8-14.635-16.643-18.573-27.717-4.72-13.276-5.35-26.983-1.774-38.6,3.175-10.311,9.313-17.55,17.282-20.384a23.274,23.274,0,0,1,7.822-1.331m0-12.4a35.592,35.592,0,0,0-11.976,2.047c-24.3,8.639-34.633,42.2-23.037,74.818,9.736,27.385,31.885,45.524,53.12,45.524a35.584,35.584,0,0,0,11.976-2.047c24.3-8.641,34.639-42.2,23.043-74.814-9.736-27.383-31.887-45.528-53.125-45.528Z" transform="translate(-1121.17 -1162.923)"/><path class="a" d="M1117.961,1336.418c10.6,0,22.263,7.285,30.442,19.01,6.037,8.655,9.179,18.235,8.85,26.974-.162,4.309-1.429,12.23-8.082,16.871a17.886,17.886,0,0,1-10.448,3.136c-10.6,0-22.261-7.28-30.435-19-6.04-8.659-9.184-18.242-8.854-26.983.163-4.309,1.43-12.231,8.083-16.872a17.879,17.879,0,0,1,10.445-3.136m0-12.4a30.258,30.258,0,0,0-17.538,5.366c-16.949,11.822-17.964,38.67-2.307,61.118,10.836,15.536,26.42,24.307,40.606,24.307a30.256,30.256,0,0,0,17.541-5.366c16.949-11.822,17.96-38.669,2.309-61.108-10.842-15.544-26.425-24.317-40.612-24.317Z" transform="translate(-1087.01 -1216.863)"/><path class="a" d="M1387.563,1163.581c8.428,0,16.635,4.735,23.108,13.335,7.288,9.683,11.36,22.746,11.465,36.785.1,14.09-3.795,27.244-10.982,37.041-6.381,8.7-14.553,13.522-23.013,13.586h-.17c-8.432,0-16.64-4.735-23.114-13.333-7.288-9.68-11.359-22.742-11.464-36.781-.1-14.09,3.795-27.246,10.982-37.044,6.381-8.7,14.555-13.526,23.017-13.589h.17m0-12.4h-.264c-25.793.192-46.564,28.512-46.305,63.124.257,34.5,21.3,62.422,46.977,62.422h.264c25.786-.192,46.558-28.5,46.3-63.118-.258-34.5-21.306-62.428-46.973-62.428Z" transform="translate(-1183.529 -1151.181)"/><path class="a" d="M1533.877,1261.716a16.993,16.993,0,0,1,4.374.574c7.84,2.085,11.74,9.1,13.366,13.089,3.3,8.1,3.623,18.182.909,28.384-4.541,17.073-16.576,29.464-28.618,29.464a17.02,17.02,0,0,1-4.374-.573c-7.84-2.085-11.739-9.1-13.365-13.088-3.3-8.1-3.623-18.177-.91-28.375,4.543-17.079,16.578-29.474,28.617-29.474m0-12.4c-17.508,0-34.45,15.563-40.6,38.687-7.033,26.439,3.1,51.321,23.07,56.633a29.362,29.362,0,0,0,7.561.99c17.509,0,34.453-15.561,40.6-38.676,7.036-26.45-3.1-51.332-23.071-56.643a29.332,29.332,0,0,0-7.561-.991Z" transform="translate(-1240.553 -1188.474)"/></g><g transform="translate(1223.079 1319.143)"><g transform="translate(0 0)"><path class="a" d="M1313.372,1442.49l-5.972,1.053-.916-5.193,17.656-3.114.916,5.194-5.972,1.053,5.494,31.158-5.713,1.007Z" transform="translate(-1306.484 -1427.089)"/><path class="a" d="M1339.4,1432.556l5.713-1.008,2.61,14.8,6.129-1.08-2.611-14.8,5.713-1.007,6.409,36.352-5.712,1.007-2.884-16.358-6.128,1.08,2.884,16.358-5.712,1.007Z" transform="translate(-1318.993 -1424.895)"/><path class="a" d="M1374.582,1427.632l5.713-1.008,6.409,36.353-5.712,1.007Z" transform="translate(-1332.363 -1423.817)"/><path class="a" d="M1398.129,1458.461q-2.544-1.987-3.324-6.4l-.366-2.078,5.4-.952.439,2.493q.623,3.531,3.583,3.009a2.826,2.826,0,0,0,2.056-1.246,4.243,4.243,0,0,0,.263-2.91,7.824,7.824,0,0,0-1.749-3.842,19.544,19.544,0,0,0-4.579-3.5,23.342,23.342,0,0,1-5.928-4.764,11.665,11.665,0,0,1-2.4-5.44,9.626,9.626,0,0,1,1-7.058,8.328,8.328,0,0,1,5.919-3.48q4.1-.723,6.623,1.269t3.3,6.406l.265,1.506-5.4.952-.329-1.869a4.241,4.241,0,0,0-1.208-2.6,2.679,2.679,0,0,0-2.281-.481q-2.856.5-2.242,3.983a6.957,6.957,0,0,0,1.715,3.5,20.648,20.648,0,0,0,4.6,3.472,21.7,21.7,0,0,1,5.931,4.791,12.747,12.747,0,0,1,2.4,5.734q.788,4.467-1,7.245t-5.991,3.519Q1400.675,1460.448,1398.129,1458.461Z" transform="translate(-1338.713 -1422.096)"/></g></g><g transform="translate(1198.711 1355.876)"><g transform="translate(0)"><path class="a" d="M1267.179,1516.622l8.153-1.438,8.223,25.377.1-.018-.952-26.659,8.153-1.438,6.41,36.352-5.4.952-4.853-27.523-.1.019.7,28.256-4.778.843-9.008-26.791-.1.018,4.854,27.523-4.985.879Z" transform="translate(-1267.179 -1493.165)"/><path class="a" d="M1320.678,1544.064a9.658,9.658,0,0,1-3.423-6.358l-3.37-19.111a9.661,9.661,0,0,1,1.043-7.145,10.027,10.027,0,0,1,12.879-2.271,9.659,9.659,0,0,1,3.423,6.357l3.37,19.111a9.667,9.667,0,0,1-1.043,7.145,10.028,10.028,0,0,1-12.879,2.271Zm8.274-8.046-3.5-19.838q-.632-3.583-3.593-3.061t-2.327,4.105l3.5,19.838q.631,3.582,3.591,3.061T1328.952,1536.019Z" transform="translate(-1284.841 -1491.371)"/><path class="a" d="M1345.748,1503.391l7.167-1.264,9.393,20.779.1-.019-3.837-21.759,5.089-.9,6.41,36.352-5.867,1.035-11.534-25.328-.1.019,4.679,26.536-5.09.9Z" transform="translate(-1297.037 -1488.523)"/><path class="a" d="M1385.973,1501.681l-5.972,1.053-.916-5.194,17.656-3.113.916,5.193-5.972,1.053,5.494,31.159-5.713,1.008Z" transform="translate(-1309.705 -1486.317)"/><path class="a" d="M1412,1491.749l5.713-1.008,2.61,14.8,6.128-1.081-2.61-14.8,5.712-1.007,6.41,36.352-5.713,1.007-2.884-16.358-6.128,1.081,2.885,16.357-5.713,1.007Z" transform="translate(-1322.215 -1484.123)"/><path class="a" d="M1450.025,1492.022l-1.87.33-.971-5.5,5.5-.971.87,4.933-1.968,7.362-2.649.467Z" transform="translate(-1335.585 -1483.067)"/><path class="a" d="M1470.4,1517.711q-2.545-1.987-3.324-6.4l-.366-2.078,5.4-.952.439,2.493q.622,3.532,3.583,3.009a2.822,2.822,0,0,0,2.055-1.247,4.227,4.227,0,0,0,.263-2.91,7.821,7.821,0,0,0-1.747-3.841,19.52,19.52,0,0,0-4.58-3.5,23.341,23.341,0,0,1-5.927-4.764,11.657,11.657,0,0,1-2.4-5.439,9.624,9.624,0,0,1,1-7.058,8.324,8.324,0,0,1,5.919-3.48q4.1-.723,6.622,1.269t3.3,6.406l.265,1.506-5.4.952-.329-1.87a4.241,4.241,0,0,0-1.208-2.6,2.677,2.677,0,0,0-2.281-.482q-2.857.5-2.242,3.983a6.969,6.969,0,0,0,1.715,3.5,20.61,20.61,0,0,0,4.6,3.472,21.707,21.707,0,0,1,5.931,4.791,12.765,12.765,0,0,1,2.4,5.734q.788,4.467-1,7.245t-5.993,3.519Q1472.943,1519.7,1470.4,1517.711Z" transform="translate(-1341.808 -1481.346)"/></g></g><g transform="translate(1191.779 1397.308)"><path class="a" d="M1265.287,1637.353q-3.461-2.7-4.516-8.7l-.5-2.821,7.337-1.294.6,3.386q.846,4.8,4.867,4.088a3.842,3.842,0,0,0,2.794-1.693,5.747,5.747,0,0,0,.356-3.955,10.632,10.632,0,0,0-2.375-5.22,26.576,26.576,0,0,0-6.223-4.758,31.7,31.7,0,0,1-8.052-6.473,15.837,15.837,0,0,1-3.267-7.39q-1.033-5.856,1.365-9.589t8.042-4.728q5.572-.983,9,1.724t4.48,8.7l.361,2.046-7.338,1.294-.448-2.539a5.76,5.76,0,0,0-1.641-3.53,3.638,3.638,0,0,0-3.1-.654q-3.881.684-3.047,5.412a9.462,9.462,0,0,0,2.33,4.754,28.069,28.069,0,0,0,6.252,4.718,29.519,29.519,0,0,1,8.058,6.509,17.32,17.32,0,0,1,3.265,7.79q1.07,6.069-1.355,9.842t-8.142,4.782Q1268.746,1640.054,1265.287,1637.353Z" transform="translate(-1255.998 -1563.288)"/><path class="a" d="M1297.477,1583.582l11.429-2.016q5.785-1.02,9.226,1.574t4.5,8.592l.859,4.868q1.057,6-1.288,9.612t-8.131,4.635l-3.669.647,3.546,20.107-7.761,1.368Zm15.348,20.209a3.7,3.7,0,0,0,2.671-1.562,5.45,5.45,0,0,0,.319-3.766l-1.033-5.857a5.44,5.44,0,0,0-1.588-3.429,3.7,3.7,0,0,0-3.043-.555l-3.669.647,2.675,15.169Z" transform="translate(-1271.761 -1560.754)"/><path class="a" d="M1341.4,1574.961l21.167-3.732,1.244,7.055-13.405,2.364,2.3,13.052,10.653-1.879,1.244,7.056-10.654,1.879,2.675,15.169,13.405-2.363,1.244,7.055-21.167,3.732Z" transform="translate(-1288.453 -1556.935)"/><path class="a" d="M1394.163,1614.676q-3.487-2.658-4.508-8.444l-4.678-26.529q-1.02-5.784,1.348-9.476t7.942-4.674q5.574-.983,9.063,1.676t4.507,8.444l.921,5.221-7.337,1.294-1.007-5.715q-.81-4.586-4.69-3.9t-3.071,5.271l4.864,27.587q.8,4.517,4.677,3.831t3.084-5.2l-1.331-7.549,7.338-1.293,1.231,6.984q1.021,5.786-1.347,9.476t-7.943,4.674Q1397.651,1617.335,1394.163,1614.676Z" transform="translate(-1304.896 -1554.677)"/><path class="a" d="M1426.3,1561.44l7.761-1.368,8.708,49.388-7.761,1.368Z" transform="translate(-1320.715 -1552.695)"/><path class="a" d="M1457.82,1555.585l10.512-1.854,16.752,47.97-7.761,1.369-3.14-9.558.025.141-8.82,1.555.294,9.914-7.2,1.269Zm14.288,31.526-7.761-23.8-.141.025.919,25.009Z" transform="translate(-1332.695 -1550.285)"/><path class="a" d="M1493.779,1549.541l7.761-1.368,7.465,42.332,12.771-2.252,1.244,7.055-20.531,3.62Z" transform="translate(-1346.36 -1548.173)"/></g></g></svg>