<svg xmlns="http://www.w3.org/2000/svg" width="158.341" height="155.707" viewBox="0 0 158.341 155.707"><g transform="translate(-826 -856.001)"><path d="M784.888,957.114h-8.535a70.3,70.3,0,0,0-4.129-14.582c-11.254-27.51-31.746-43.548-60.882-48.727-.993-.176-2-.292-3-.4v-8.536c22.916,2.7,42.295,12.368,57.441,30.258A85.6,85.6,0,0,1,784.888,957.114Zm-22.715-.355c-4.462-21.813-16.681-37.528-37.045-46.721a59.1,59.1,0,0,0-16.789-4.652v8.532c20.984,3.777,35.474,15.54,43.143,35.528a57.05,57.05,0,0,1,2.1,7.668h8.633C762.2,957,762.2,956.874,762.173,956.76Zm-40.91-24.41a38.426,38.426,0,0,0-12.925-4.754v8.631c9.9,2.343,17.067,8.234,21.34,17.8a25.457,25.457,0,0,1,1.1,3.091h8.8A38.836,38.836,0,0,0,721.264,932.349Zm44.488,71.589a16.467,16.467,0,0,0-10.73-8.365c-8.019-2-15.265-3.6-22.153-4.887a89.761,89.761,0,0,0-11.434-1.157l-1.617-.094a9.19,9.19,0,0,0-8.839,4.8q-.631,1.115-1.269,2.226c-.8,1.392-1.621,2.833-2.417,4.277q-.1.182-.2.364c-13.485-6.273-31.448-23.157-39.023-36.687,1.067-.618,2.146-1.266,3.2-1.975l.979-.652c6.244-4.142,7.1-6.176,6.14-14.5-1.282-11.077-4.471-21.748-7.554-32.068l-.284-.952a12.946,12.946,0,0,0-3.1-5.147c-4.543-4.7-12.912-6.349-19.053-3.755-9.4,3.971-15.925,11.035-19.392,21-3.1,8.9-3.279,18.552-.558,29.509,2.761,11.123,8.224,21.91,16.7,32.976,8.044,10.5,18.319,20.136,31.409,29.452a156.671,156.671,0,0,0,22.182,13.465l4.059-7.4a147.571,147.571,0,0,1-21.353-12.932c-12.4-8.822-22.079-17.885-29.6-27.71-7.758-10.13-12.734-19.9-15.211-29.882-2.314-9.319-2.2-17.4.338-24.706,2.687-7.723,7.5-12.958,14.709-16a7.936,7.936,0,0,1,3.051-.55,9.759,9.759,0,0,1,6.659,2.4,4.669,4.669,0,0,1,1.08,1.7l.284.953c2.98,9.971,6.06,20.281,7.258,30.622a22.259,22.259,0,0,1,.239,4.553,17.37,17.37,0,0,1-2.666,1.953c-.318.211-.654.435-1.012.674-1.276.855-2.648,1.638-4.1,2.466-.7.4-1.4.8-2.1,1.215l-3.233,1.908,1.521,3.432c7.685,17.339,32,40.124,49.08,46l3.482,1.2,1.655-3.289c.2-.389.389-.783.583-1.177.411-.836.8-1.627,1.214-2.38.763-1.384,1.569-2.8,2.35-4.159q.646-1.129,1.287-2.258a.873.873,0,0,1,.994-.54l1.64.1a82.229,82.229,0,0,1,10.367,1.026c6.722,1.258,13.809,2.822,21.666,4.78a7.748,7.748,0,0,1,5.481,10.669c-4.111,10.372-11.6,16.083-22.9,17.46-7.065.862-14.507-.328-24.13-3.853q-.921-.337-1.844-.7l-3.381,7.727c.776.306,1.551.605,2.325.889,6.108,2.238,13.92,4.633,22.591,4.633a45.121,45.121,0,0,0,5.459-.327c14.239-1.734,24.516-9.592,29.72-22.723A16.464,16.464,0,0,0,765.751,1003.938Z" transform="translate(199.454 -28.871)"/></g></svg>