<svg xmlns="http://www.w3.org/2000/svg" width="194.099" height="156.287" viewBox="0 0 194.099 156.287"><path d="M1335.159,990.716c-11.707,18.824-29.108,28.268-51.237,28.8-1.829.044-3.658.071-5.488.092-.133,11.544.021,23.413-.094,35.911-1.516-1.4-2.419-2.187-3.262-3.029-10.207-10.193-20.439-20.362-30.572-30.628a7.209,7.209,0,0,0-5.707-2.356c-9.5.119-19.011.239-28.51.011-22.129-.531-39.531-9.974-51.237-28.8-21.906-35.226-1.824-81.64,38.807-90.1a58.613,58.613,0,0,1,11.56-1.3c22.9-.123,24.138-.066,47.038-.068h3.682v9.126h-3.786c-22.671,0-23.68-.067-46.351.021a50.843,50.843,0,0,0-47.085,32.007c-12.166,30.084,7.129,64.3,39.148,69.309a65.468,65.468,0,0,0,9.579.682q15.629.125,31.258-.011a6.436,6.436,0,0,1,5.12,2.112c5.583,5.747,11.314,11.35,16.943,17.054,1.121,1.137,4.4,4.716,4.4,4.716s-.15-23.825-.138-23.814c4.4,0,8.936-.022,13.333-.057a65.47,65.47,0,0,0,9.58-.682c32.019-5.012,51.314-39.224,39.148-69.309a50.844,50.844,0,0,0-47.086-32.007q-7.419-.029-14.837-.035v-9.1q7.71.018,15.42.055a58.612,58.612,0,0,1,11.561,1.3C1336.983,909.076,1357.065,955.491,1335.159,990.716Zm-33.448-52.069c-10.983,0-98.92,0-108.113-.006v8.747c9.19.006,97.135.011,108.113,0Zm0,16.4c-10.983,0-98.92,0-108.113-.006v8.747c9.19.006,97.135.011,108.113,0Zm0,16.4c-10.983,0-98.92,0-108.113-.006v8.747c9.19.006,97.135.011,108.113,0Z" transform="translate(-1150.056 -899.231)"/></svg>