<svg xmlns="http://www.w3.org/2000/svg" width="210.025" height="175.936" viewBox="0 0 210.025 175.936"><path d="M1275.218,974.956c-5.236-.3-16.315-5.953-12.51-11.264,2-2.794,7.23-4.182,12.51-4.2,5.279.015,10.509,1.4,12.51,4.2C1291.532,969,1280.453,974.652,1275.218,974.956Zm0,14.58q-7.379-.054-14.759-.107c4.4,5.6,9.735,7.986,14.759,8.175,5.024-.189,10.363-2.578,14.759-8.175Q1282.592,989.485,1275.218,989.536Zm87.948-94.929a25.336,25.336,0,0,0-9.15-2.634,88.015,88.015,0,0,0-11.792-12.609c-17.805-15.686-41.481-24.4-66.668-24.543-25.189-.161-48.94,8.31-66.884,23.8a87.563,87.563,0,0,0-12.1,12.725,25.119,25.119,0,0,0-7.513,2.3c-18.013,8.611-24.391,32.6-8.983,46.977a16.2,16.2,0,0,0,6.747,3.849,108.1,108.1,0,0,1,11.794-43.087,78.121,78.121,0,0,1,14.437-16.393c16.547-14.28,38.5-22.124,61.875-22.124l.586,0c48.37.271,87.569,34.406,87.383,76.092-.171,38.28-33.495,69.816-76.393,74.5a13.1,13.1,0,0,0-12-7.474c-7.215,0-13.064,5.545-13.064,12.385s5.849,12.384,13.064,12.384a12.965,12.965,0,0,0,12.651-9.283,99.54,99.54,0,0,0,54.527-23.159c16.384-14.139,26.186-32.611,28.061-52.586a18.068,18.068,0,0,0,2.39-1.854C1388.4,929,1381.945,903.808,1363.166,894.607Zm-111.551,21.635c-12.63-4.325-37.384,17.733-36.634,34.753s28.038,23.919,38.37,13.763C1263.694,954.581,1264.233,920.549,1251.616,916.242Zm82.341,33.03c-.759,17.022-28.039,23.918-38.37,13.763-10.342-10.177-10.881-44.208,1.736-48.516C1309.953,910.194,1334.707,932.251,1333.957,949.272Z" transform="translate(-1171.392 -854.818)"/></svg>