<svg xmlns="http://www.w3.org/2000/svg" width="158.566" height="158.566" viewBox="0 0 158.566 158.566"><path d="M115.608,95.021c-1.989-.991-11.674-5.728-13.478-6.382s-3.125-.991-4.446.991c-1.3,1.949-5.094,6.369-6.237,7.677-1.156,1.288-2.306,1.387-4.268.5A53.622,53.622,0,0,1,71.3,87.991,59.942,59.942,0,0,1,60.334,74.315c-1.15-1.982-.126-3.072.859-4.063.9-.892,1.989-2.279,2.98-3.455a16.748,16.748,0,0,0,1.962-3.277,3.632,3.632,0,0,0-.165-3.462c-.5-.991-4.44-10.7-6.092-14.575-1.586-3.858-3.218-3.37-4.44-3.37-1.136-.1-2.451-.1-3.773-.1A7.448,7.448,0,0,0,46.4,44.385c-1.8,1.982-6.9,6.739-6.9,16.352s7.069,18.929,8.054,20.316c.984,1.288,13.908,21.109,33.7,29.632,4.717,1.982,8.391,3.171,11.258,4.156a27.334,27.334,0,0,0,12.421.8c3.792-.6,11.674-4.764,13.32-9.421,1.685-4.658,1.685-8.523,1.189-9.415s-1.784-1.387-3.766-2.279M79.686,143.7H79.58a66.093,66.093,0,0,1-33.4-9.118L43.8,133.169l-24.776,6.442,6.64-24.082-1.579-2.478A65.2,65.2,0,0,1,14.073,78.3c0-35.975,29.434-65.309,65.686-65.309A65.631,65.631,0,0,1,145.365,78.4c-.026,35.968-29.467,65.309-65.64,65.309m55.848-120.92A80.221,80.221,0,0,0,79.58,0C36.094,0,.687,35.241.667,78.576a78.2,78.2,0,0,0,10.538,39.278L0,158.566l41.855-10.915a79.694,79.694,0,0,0,37.725,9.56h.04c43.507,0,78.926-35.254,78.946-78.6a77.923,77.923,0,0,0-23.091-55.571"/></svg>