<svg xmlns="http://www.w3.org/2000/svg" width="66.248" height="66.253" viewBox="0 0 66.248 66.253">
  <g id="Group_1626" data-name="Group 1626" transform="translate(-923.492 -2667.491)">
    <g id="Group_1626-2" data-name="Group 1626" transform="translate(244.73 2364.482)">
      <path id="Path_673" data-name="Path 673" d="M740.505,363.237h2.982a1.5,1.5,0,0,1,1.521,1.478v3.026a1.5,1.5,0,0,1-1.478,1.521h-3.026a1.5,1.5,0,0,1-1.521-1.478.247.247,0,0,1,0-.044v-2.982a1.5,1.5,0,0,1,1.476-1.521Zm-12.044,0h2.982a1.5,1.5,0,0,1,1.521,1.478v3.026a1.5,1.5,0,0,1-1.478,1.521h-3.022a1.5,1.5,0,0,1-1.521-1.478.273.273,0,0,1,0-.044v-2.982a1.5,1.5,0,0,1,1.477-1.521h.041Zm6.02-6.023h2.986a1.5,1.5,0,0,1,1.518,1.473v3.026a1.5,1.5,0,0,1-1.47,1.521h-3.032a1.5,1.5,0,0,1-1.518-1.474.3.3,0,0,1,0-.047V358.73a1.494,1.494,0,0,1,1.474-1.516h.042Zm-12.044,0h2.982a1.5,1.5,0,0,1,1.521,1.478v3.021a1.5,1.5,0,0,1-1.478,1.521h-3.023a1.5,1.5,0,0,1-1.521-1.478.26.26,0,0,1,0-.044V358.73a1.5,1.5,0,0,1,1.481-1.516h.038Zm-6.021,6.023H719.4a1.5,1.5,0,0,1,1.518,1.473v3.03a1.5,1.5,0,0,1-1.47,1.521h-3.032a1.5,1.5,0,0,1-1.518-1.474.321.321,0,0,1,0-.048v-2.982a1.5,1.5,0,0,1,1.47-1.52Zm-12.044,0h2.982a1.5,1.5,0,0,1,1.521,1.478v3.026a1.5,1.5,0,0,1-1.478,1.521h-3.026a1.5,1.5,0,0,1-1.521-1.478.247.247,0,0,1,0-.044v-2.982a1.5,1.5,0,0,1,1.476-1.521Zm6.023-6.023h2.982a1.5,1.5,0,0,1,1.521,1.478v3.021a1.5,1.5,0,0,1-1.478,1.521h-3.026a1.5,1.5,0,0,1-1.52-1.479.245.245,0,0,1,0-.042V358.73a1.5,1.5,0,0,1,1.481-1.516Zm-12.048,0h2.986a1.5,1.5,0,0,1,1.518,1.473v3.026a1.5,1.5,0,0,1-1.47,1.521h-3.032a1.5,1.5,0,0,1-1.518-1.474.29.29,0,0,1,0-.047V358.73a1.494,1.494,0,0,1,1.474-1.516h.042Zm-6.02,6.023H695.3a1.5,1.5,0,0,1,1.521,1.478v3.026a1.5,1.5,0,0,1-1.479,1.52h-3.02a1.5,1.5,0,0,1-1.521-1.478.273.273,0,0,1,0-.044v-2.982a1.5,1.5,0,0,1,1.478-1.52Zm-12.048,0h2.986a1.5,1.5,0,0,1,1.518,1.473v3.03a1.5,1.5,0,0,1-1.47,1.521h-3.032a1.5,1.5,0,0,1-1.518-1.474.321.321,0,0,1,0-.047v-2.982a1.5,1.5,0,0,1,1.469-1.521h.047Zm6.023-6.023h2.982a1.5,1.5,0,0,1,1.521,1.478v3.021a1.5,1.5,0,0,1-1.478,1.521H686.3a1.5,1.5,0,0,1-1.521-1.478.26.26,0,0,1,0-.044V358.73a1.5,1.5,0,0,1,1.481-1.516h.039Zm54.2-6.02h2.982a1.5,1.5,0,0,1,1.521,1.47V355.7a1.5,1.5,0,0,1-1.474,1.518h-3.028a1.5,1.5,0,0,1-1.521-1.47.291.291,0,0,1,0-.047v-2.986a1.494,1.494,0,0,1,1.472-1.519h.048Zm-12.044,0h2.982a1.5,1.5,0,0,1,1.521,1.47V355.7a1.5,1.5,0,0,1-1.474,1.518h-3.024a1.5,1.5,0,0,1-1.521-1.47.321.321,0,0,1,0-.047v-2.986a1.494,1.494,0,0,1,1.472-1.519h.045Zm6.02-6.023h2.986a1.5,1.5,0,0,1,1.518,1.473v3.03a1.5,1.5,0,0,1-1.47,1.521h-3.03a1.5,1.5,0,0,1-1.518-1.474.3.3,0,0,1,0-.047v-2.982a1.5,1.5,0,0,1,1.468-1.522h.047Zm-12.044,0h2.982a1.5,1.5,0,0,1,1.521,1.478v3.026a1.5,1.5,0,0,1-1.478,1.521h-3.022a1.5,1.5,0,0,1-1.521-1.478.26.26,0,0,1,0-.044v-2.982a1.5,1.5,0,0,1,1.475-1.522h.042Zm-6.023,6.023H719.4a1.494,1.494,0,0,1,1.518,1.468V355.7a1.494,1.494,0,0,1-1.469,1.518h-3.033a1.493,1.493,0,0,1-1.518-1.469.32.32,0,0,1,0-.048v-2.986a1.493,1.493,0,0,1,1.467-1.519h.047Zm-12.044,0h2.982a1.5,1.5,0,0,1,1.521,1.47V355.7a1.5,1.5,0,0,1-1.474,1.518h-3.026a1.5,1.5,0,0,1-1.521-1.47.291.291,0,0,1,0-.047v-2.986a1.494,1.494,0,0,1,1.472-1.519h.046Zm6.023-6.023h2.982a1.5,1.5,0,0,1,1.521,1.478v3.026a1.5,1.5,0,0,1-1.478,1.521h-3.022a1.5,1.5,0,0,1-1.521-1.478.273.273,0,0,1,0-.044v-2.982a1.5,1.5,0,0,1,1.475-1.522h.042Zm-12.048,0h2.986a1.5,1.5,0,0,1,1.518,1.473v3.03a1.5,1.5,0,0,1-1.47,1.521h-3.028a1.5,1.5,0,0,1-1.518-1.474.29.29,0,0,1,0-.047v-2.982a1.494,1.494,0,0,1,1.468-1.522h.045Zm-6.016,6.022H695.3a1.5,1.5,0,0,1,1.521,1.47V355.7a1.5,1.5,0,0,1-1.474,1.518h-3.024a1.5,1.5,0,0,1-1.521-1.47.321.321,0,0,1,0-.047v-2.986a1.5,1.5,0,0,1,1.473-1.518ZM716.415,327.1H719.4a1.5,1.5,0,0,1,1.518,1.473v3.03a1.5,1.5,0,0,1-1.468,1.524h-3.035a1.5,1.5,0,0,1-1.518-1.474.321.321,0,0,1,0-.047v-2.982a1.5,1.5,0,0,1,1.467-1.524Zm6.023-6.023h2.982a1.5,1.5,0,0,1,1.521,1.478v3.026a1.5,1.5,0,0,1-1.479,1.52h-3.023a1.5,1.5,0,0,1-1.521-1.478.26.26,0,0,1,0-.044V322.6a1.5,1.5,0,0,1,1.48-1.518h.041Zm18.068,18.07h2.982a1.5,1.5,0,0,1,1.521,1.478v3.024a1.5,1.5,0,0,1-1.478,1.521h-3.026a1.5,1.5,0,0,1-1.521-1.478.247.247,0,0,1,0-.044v-2.982a1.5,1.5,0,0,1,1.478-1.52Zm-12.044,0h2.982a1.5,1.5,0,0,1,1.521,1.478v3.026a1.5,1.5,0,0,1-1.478,1.521h-3.022a1.5,1.5,0,0,1-1.521-1.478.273.273,0,0,1,0-.044v-2.983a1.5,1.5,0,0,1,1.478-1.52h.04Zm6.02-6.02h2.986a1.494,1.494,0,0,1,1.518,1.468v3.034a1.494,1.494,0,0,1-1.469,1.518h-3.033a1.493,1.493,0,0,1-1.518-1.469.32.32,0,0,1,0-.048v-2.986a1.492,1.492,0,0,1,1.468-1.518h.048Zm-12.044,0h2.982a1.5,1.5,0,0,1,1.521,1.469v3.033a1.5,1.5,0,0,1-1.474,1.518h-3.027a1.5,1.5,0,0,1-1.521-1.47.3.3,0,0,1,0-.047v-2.986a1.5,1.5,0,0,1,1.473-1.518h.046Zm-6.023,6.02H719.4a1.5,1.5,0,0,1,1.518,1.473v3.03a1.5,1.5,0,0,1-1.47,1.521h-3.032A1.5,1.5,0,0,1,714.9,343.7a.305.305,0,0,1,0-.047v-2.983a1.494,1.494,0,0,1,1.47-1.52h.045Zm-12.044,0h2.982a1.5,1.5,0,0,1,1.521,1.478v3.026a1.5,1.5,0,0,1-1.478,1.521h-3.023a1.5,1.5,0,0,1-1.521-1.478.247.247,0,0,1,0-.044v-2.983a1.5,1.5,0,0,1,1.478-1.52h.041Zm6.023-6.02h2.982A1.5,1.5,0,0,1,714.9,334.6v3.033a1.5,1.5,0,0,1-1.474,1.518h-3.027a1.5,1.5,0,0,1-1.52-1.472.29.29,0,0,1,0-.046v-2.986a1.5,1.5,0,0,1,1.473-1.518h.045Zm24.083-24.091h2.986a1.5,1.5,0,0,1,1.518,1.473v3.03a1.5,1.5,0,0,1-1.47,1.521h-3.027a1.5,1.5,0,0,1-1.518-1.474.305.305,0,0,1,0-.047v-2.983a1.5,1.5,0,0,1,1.469-1.521h.042Zm-6.011,6.023h2.982a1.5,1.5,0,0,1,1.518,1.474v3.023a1.5,1.5,0,0,1-1.474,1.518h-3.026a1.5,1.5,0,0,1-1.521-1.47.321.321,0,0,1,0-.047v-2.986a1.494,1.494,0,0,1,1.479-1.512Zm0,12.044h2.982a1.5,1.5,0,0,1,1.521,1.478v3.026a1.5,1.5,0,0,1-1.478,1.521h-3.026a1.5,1.5,0,0,1-1.521-1.478.273.273,0,0,1,0-.044v-2.982a1.5,1.5,0,0,1,1.473-1.525h.048Zm6.02-6.023h2.986a1.5,1.5,0,0,1,1.518,1.473v3.03a1.5,1.5,0,0,1-1.475,1.516h-3.03a1.5,1.5,0,0,1-1.518-1.474.3.3,0,0,1,0-.047V322.6a1.5,1.5,0,0,1,1.473-1.518h.047Zm6.022,6.02h2.982a1.5,1.5,0,0,1,1.521,1.478V331.6a1.5,1.5,0,0,1-1.478,1.521h-3.026a1.5,1.5,0,0,1-1.521-1.478.274.274,0,0,1,0-.044v-2.982a1.5,1.5,0,0,1,1.477-1.521Zm0-24.091h2.982a1.5,1.5,0,0,1,1.521,1.478v3.026a1.5,1.5,0,0,1-1.478,1.521h-3.026a1.5,1.5,0,0,1-1.521-1.478.273.273,0,0,1,0-.044V304.53a1.5,1.5,0,0,1,1.484-1.514h.038Zm0,12.047h2.982a1.5,1.5,0,0,1,1.52,1.472v3.029a1.5,1.5,0,0,1-1.474,1.518h-3.028a1.5,1.5,0,0,1-1.521-1.47.321.321,0,0,1,0-.047v-2.986a1.494,1.494,0,0,1,1.479-1.512h.042Z" fill="#fff" fill-rule="evenodd"/>
    </g>
    <g id="Group_1626-3" data-name="Group 1626" transform="translate(1668.502 3036.753) rotate(-180)">
      <path id="Path_673-2" data-name="Path 673" d="M740.505,363.237h2.982a1.5,1.5,0,0,1,1.521,1.478v3.026a1.5,1.5,0,0,1-1.478,1.521h-3.026a1.5,1.5,0,0,1-1.521-1.478.247.247,0,0,1,0-.044v-2.982a1.5,1.5,0,0,1,1.476-1.521Zm-12.044,0h2.982a1.5,1.5,0,0,1,1.521,1.478v3.026a1.5,1.5,0,0,1-1.478,1.521h-3.022a1.5,1.5,0,0,1-1.521-1.478.273.273,0,0,1,0-.044v-2.982a1.5,1.5,0,0,1,1.477-1.521h.041Zm6.02-6.023h2.986a1.5,1.5,0,0,1,1.518,1.473v3.026a1.5,1.5,0,0,1-1.47,1.521h-3.032a1.5,1.5,0,0,1-1.518-1.474.3.3,0,0,1,0-.047V358.73a1.494,1.494,0,0,1,1.474-1.516h.042Zm-12.044,0h2.982a1.5,1.5,0,0,1,1.521,1.478v3.021a1.5,1.5,0,0,1-1.478,1.521h-3.023a1.5,1.5,0,0,1-1.521-1.478.26.26,0,0,1,0-.044V358.73a1.5,1.5,0,0,1,1.481-1.516h.038Zm-6.021,6.023H719.4a1.5,1.5,0,0,1,1.518,1.473v3.03a1.5,1.5,0,0,1-1.47,1.521h-3.032a1.5,1.5,0,0,1-1.518-1.474.321.321,0,0,1,0-.048v-2.982a1.5,1.5,0,0,1,1.47-1.52Zm-12.044,0h2.982a1.5,1.5,0,0,1,1.521,1.478v3.026a1.5,1.5,0,0,1-1.478,1.521h-3.026a1.5,1.5,0,0,1-1.521-1.478.247.247,0,0,1,0-.044v-2.982a1.5,1.5,0,0,1,1.476-1.521Zm6.023-6.023h2.982a1.5,1.5,0,0,1,1.521,1.478v3.021a1.5,1.5,0,0,1-1.478,1.521h-3.026a1.5,1.5,0,0,1-1.52-1.479.245.245,0,0,1,0-.042V358.73a1.5,1.5,0,0,1,1.481-1.516Zm-12.048,0h2.986a1.5,1.5,0,0,1,1.518,1.473v3.026a1.5,1.5,0,0,1-1.47,1.521h-3.032a1.5,1.5,0,0,1-1.518-1.474.29.29,0,0,1,0-.047V358.73a1.494,1.494,0,0,1,1.474-1.516h.042Zm-6.02,6.023H695.3a1.5,1.5,0,0,1,1.521,1.478v3.026a1.5,1.5,0,0,1-1.479,1.52h-3.02a1.5,1.5,0,0,1-1.521-1.478.273.273,0,0,1,0-.044v-2.982a1.5,1.5,0,0,1,1.478-1.52Zm-12.048,0h2.986a1.5,1.5,0,0,1,1.518,1.473v3.03a1.5,1.5,0,0,1-1.47,1.521h-3.032a1.5,1.5,0,0,1-1.518-1.474.321.321,0,0,1,0-.047v-2.982a1.5,1.5,0,0,1,1.469-1.521h.047Zm6.023-6.023h2.982a1.5,1.5,0,0,1,1.521,1.478v3.021a1.5,1.5,0,0,1-1.478,1.521H686.3a1.5,1.5,0,0,1-1.521-1.478.26.26,0,0,1,0-.044V358.73a1.5,1.5,0,0,1,1.481-1.516h.039Zm54.2-6.02h2.982a1.5,1.5,0,0,1,1.521,1.47V355.7a1.5,1.5,0,0,1-1.474,1.518h-3.028a1.5,1.5,0,0,1-1.521-1.47.291.291,0,0,1,0-.047v-2.986a1.494,1.494,0,0,1,1.472-1.519h.048Zm-12.044,0h2.982a1.5,1.5,0,0,1,1.521,1.47V355.7a1.5,1.5,0,0,1-1.474,1.518h-3.024a1.5,1.5,0,0,1-1.521-1.47.321.321,0,0,1,0-.047v-2.986a1.494,1.494,0,0,1,1.472-1.519h.045Zm6.02-6.023h2.986a1.5,1.5,0,0,1,1.518,1.473v3.03a1.5,1.5,0,0,1-1.47,1.521h-3.03a1.5,1.5,0,0,1-1.518-1.474.3.3,0,0,1,0-.047v-2.982a1.5,1.5,0,0,1,1.468-1.522h.047Zm-12.044,0h2.982a1.5,1.5,0,0,1,1.521,1.478v3.026a1.5,1.5,0,0,1-1.478,1.521h-3.022a1.5,1.5,0,0,1-1.521-1.478.26.26,0,0,1,0-.044v-2.982a1.5,1.5,0,0,1,1.475-1.522h.042Zm-6.023,6.023H719.4a1.494,1.494,0,0,1,1.518,1.468V355.7a1.494,1.494,0,0,1-1.469,1.518h-3.033a1.493,1.493,0,0,1-1.518-1.469.32.32,0,0,1,0-.048v-2.986a1.493,1.493,0,0,1,1.467-1.519h.047Zm-12.044,0h2.982a1.5,1.5,0,0,1,1.521,1.47V355.7a1.5,1.5,0,0,1-1.474,1.518h-3.026a1.5,1.5,0,0,1-1.521-1.47.291.291,0,0,1,0-.047v-2.986a1.494,1.494,0,0,1,1.472-1.519h.046Zm6.023-6.023h2.982a1.5,1.5,0,0,1,1.521,1.478v3.026a1.5,1.5,0,0,1-1.478,1.521h-3.022a1.5,1.5,0,0,1-1.521-1.478.273.273,0,0,1,0-.044v-2.982a1.5,1.5,0,0,1,1.475-1.522h.042Zm-12.048,0h2.986a1.5,1.5,0,0,1,1.518,1.473v3.03a1.5,1.5,0,0,1-1.47,1.521h-3.028a1.5,1.5,0,0,1-1.518-1.474.29.29,0,0,1,0-.047v-2.982a1.494,1.494,0,0,1,1.468-1.522h.045Zm-6.016,6.022H695.3a1.5,1.5,0,0,1,1.521,1.47V355.7a1.5,1.5,0,0,1-1.474,1.518h-3.024a1.5,1.5,0,0,1-1.521-1.47.321.321,0,0,1,0-.047v-2.986a1.5,1.5,0,0,1,1.473-1.518ZM716.415,327.1H719.4a1.5,1.5,0,0,1,1.518,1.473v3.03a1.5,1.5,0,0,1-1.468,1.524h-3.035a1.5,1.5,0,0,1-1.518-1.474.321.321,0,0,1,0-.047v-2.982a1.5,1.5,0,0,1,1.467-1.524Zm6.023-6.023h2.982a1.5,1.5,0,0,1,1.521,1.478v3.026a1.5,1.5,0,0,1-1.479,1.52h-3.023a1.5,1.5,0,0,1-1.521-1.478.26.26,0,0,1,0-.044V322.6a1.5,1.5,0,0,1,1.48-1.518h.041Zm18.068,18.07h2.982a1.5,1.5,0,0,1,1.521,1.478v3.024a1.5,1.5,0,0,1-1.478,1.521h-3.026a1.5,1.5,0,0,1-1.521-1.478.247.247,0,0,1,0-.044v-2.982a1.5,1.5,0,0,1,1.478-1.52Zm-12.044,0h2.982a1.5,1.5,0,0,1,1.521,1.478v3.026a1.5,1.5,0,0,1-1.478,1.521h-3.022a1.5,1.5,0,0,1-1.521-1.478.273.273,0,0,1,0-.044v-2.983a1.5,1.5,0,0,1,1.478-1.52h.04Zm6.02-6.02h2.986a1.494,1.494,0,0,1,1.518,1.468v3.034a1.494,1.494,0,0,1-1.469,1.518h-3.033a1.493,1.493,0,0,1-1.518-1.469.32.32,0,0,1,0-.048v-2.986a1.492,1.492,0,0,1,1.468-1.518h.048Zm-12.044,0h2.982a1.5,1.5,0,0,1,1.521,1.469v3.033a1.5,1.5,0,0,1-1.474,1.518h-3.027a1.5,1.5,0,0,1-1.521-1.47.3.3,0,0,1,0-.047v-2.986a1.5,1.5,0,0,1,1.473-1.518h.046Zm-6.023,6.02H719.4a1.5,1.5,0,0,1,1.518,1.473v3.03a1.5,1.5,0,0,1-1.47,1.521h-3.032A1.5,1.5,0,0,1,714.9,343.7a.305.305,0,0,1,0-.047v-2.983a1.494,1.494,0,0,1,1.47-1.52h.045Zm-12.044,0h2.982a1.5,1.5,0,0,1,1.521,1.478v3.026a1.5,1.5,0,0,1-1.478,1.521h-3.023a1.5,1.5,0,0,1-1.521-1.478.247.247,0,0,1,0-.044v-2.983a1.5,1.5,0,0,1,1.478-1.52h.041Zm6.023-6.02h2.982A1.5,1.5,0,0,1,714.9,334.6v3.033a1.5,1.5,0,0,1-1.474,1.518h-3.027a1.5,1.5,0,0,1-1.52-1.472.29.29,0,0,1,0-.046v-2.986a1.5,1.5,0,0,1,1.473-1.518h.045Zm24.083-24.091h2.986a1.5,1.5,0,0,1,1.518,1.473v3.03a1.5,1.5,0,0,1-1.47,1.521h-3.027a1.5,1.5,0,0,1-1.518-1.474.305.305,0,0,1,0-.047v-2.983a1.5,1.5,0,0,1,1.469-1.521h.042Zm-6.011,6.023h2.982a1.5,1.5,0,0,1,1.518,1.474v3.023a1.5,1.5,0,0,1-1.474,1.518h-3.026a1.5,1.5,0,0,1-1.521-1.47.321.321,0,0,1,0-.047v-2.986a1.494,1.494,0,0,1,1.479-1.512Zm0,12.044h2.982a1.5,1.5,0,0,1,1.521,1.478v3.026a1.5,1.5,0,0,1-1.478,1.521h-3.026a1.5,1.5,0,0,1-1.521-1.478.273.273,0,0,1,0-.044v-2.982a1.5,1.5,0,0,1,1.473-1.525h.048Zm6.02-6.023h2.986a1.5,1.5,0,0,1,1.518,1.473v3.03a1.5,1.5,0,0,1-1.475,1.516h-3.03a1.5,1.5,0,0,1-1.518-1.474.3.3,0,0,1,0-.047V322.6a1.5,1.5,0,0,1,1.473-1.518h.047Zm6.022,6.02h2.982a1.5,1.5,0,0,1,1.521,1.478V331.6a1.5,1.5,0,0,1-1.478,1.521h-3.026a1.5,1.5,0,0,1-1.521-1.478.274.274,0,0,1,0-.044v-2.982a1.5,1.5,0,0,1,1.477-1.521Zm0-24.091h2.982a1.5,1.5,0,0,1,1.521,1.478v3.026a1.5,1.5,0,0,1-1.478,1.521h-3.026a1.5,1.5,0,0,1-1.521-1.478.273.273,0,0,1,0-.044V304.53a1.5,1.5,0,0,1,1.484-1.514h.038Zm0,12.047h2.982a1.5,1.5,0,0,1,1.52,1.472v3.029a1.5,1.5,0,0,1-1.474,1.518h-3.028a1.5,1.5,0,0,1-1.521-1.47.321.321,0,0,1,0-.047v-2.986a1.494,1.494,0,0,1,1.479-1.512h.042Z" fill="#fff" fill-rule="evenodd"/>
    </g>
  </g>
</svg>
