<svg xmlns="http://www.w3.org/2000/svg" width="67.204" height="85.027" viewBox="0 0 67.204 85.027">
  <g id="Group_1628" data-name="Group 1628" transform="translate(-16.398 92.528)">
    <path id="Path_685" data-name="Path 685" d="M81.5-73.6H73a2.115,2.115,0,0,1-2.1-2.1,2.115,2.115,0,0,1,2.1-2.1h3.3a38.321,38.321,0,0,0-53.4.7,2.173,2.173,0,0,1-3,0,2.173,2.173,0,0,1,0-3,42.694,42.694,0,0,1,59.5-.7v-3.4a2.115,2.115,0,0,1,2.1-2.1,2.182,2.182,0,0,1,2.1,2.1v8.5a2.111,2.111,0,0,1-2.1,2.1Zm-63,59.9a2.115,2.115,0,0,0,2.1-2.1v-3.4A42.384,42.384,0,0,0,50-7.5,42.129,42.129,0,0,0,80.1-20a2.173,2.173,0,0,0,0-3,2.173,2.173,0,0,0-3,0A38.065,38.065,0,0,1,50-11.7,37.736,37.736,0,0,1,23.7-22.2H27a2.115,2.115,0,0,0,2.1-2.1A2.182,2.182,0,0,0,27-26.4H18.5a2.115,2.115,0,0,0-2.1,2.1v8.5a2.182,2.182,0,0,0,2.1,2.1ZM24-46.3l1.8-.8a20.061,20.061,0,0,1,0-6L24-53.8a4.341,4.341,0,0,1-2.4-2.4,4.037,4.037,0,0,1,0-3.4l1.5-3.7a4.441,4.441,0,0,1,4.1-2.8,4.677,4.677,0,0,1,1.7.3l1.8.8A21.271,21.271,0,0,1,35-69.2L34.3-71a4.037,4.037,0,0,1,0-3.4,4.341,4.341,0,0,1,2.4-2.4l3.7-1.5a4.693,4.693,0,0,1,1.7-.3,4.445,4.445,0,0,1,4.1,2.8L47-74a30.192,30.192,0,0,1,6,0l.8-1.8a4.441,4.441,0,0,1,4.1-2.8,4.677,4.677,0,0,1,1.7.3l3.7,1.5a4.442,4.442,0,0,1,2.4,5.9L65-69.2a21.271,21.271,0,0,1,4.2,4.3l1.8-.8a4.693,4.693,0,0,1,1.7-.3,4.445,4.445,0,0,1,4.1,2.8l1.5,3.7a4.037,4.037,0,0,1,0,3.4,4.341,4.341,0,0,1-2.4,2.4l-1.7.7a20.061,20.061,0,0,1,0,6l1.8.8a4.341,4.341,0,0,1,2.4,2.4,4.037,4.037,0,0,1,0,3.4l-1.5,3.7A4.381,4.381,0,0,1,72.7-34a4.677,4.677,0,0,1-1.7-.3L69.2-35a21.271,21.271,0,0,1-4.3,4.2l.8,1.8a4.037,4.037,0,0,1,0,3.4,4.341,4.341,0,0,1-2.4,2.4l-3.7,1.5a4.693,4.693,0,0,1-1.7.3,4.445,4.445,0,0,1-4.1-2.8L53-25.8a30.192,30.192,0,0,1-6,0L46.2-24a4.441,4.441,0,0,1-4.1,2.8,4.677,4.677,0,0,1-1.7-.3L36.7-23a4.341,4.341,0,0,1-2.4-2.4,4.037,4.037,0,0,1,0-3.4l.8-1.8a21.271,21.271,0,0,1-4.2-4.3l-1.9.6a4.693,4.693,0,0,1-1.7.3,4.445,4.445,0,0,1-4.1-2.8l-1.5-3.7a4.037,4.037,0,0,1,0-3.4A4.157,4.157,0,0,1,24-46.3ZM25.5-42,27-38.3c.1.2.2.2.3.1l3.4-1.4a2.1,2.1,0,0,1,2.6.8,19.211,19.211,0,0,0,5.5,5.5,2.192,2.192,0,0,1,.8,2.6l-1.4,3.4v.2a.1.1,0,0,0,.1.1L42-25.5a.365.365,0,0,0,.3-.1L43.7-29a2.217,2.217,0,0,1,2.4-1.3,20.472,20.472,0,0,0,7.8,0h.4a2.3,2.3,0,0,1,2,1.3l1.4,3.4c.1.2.2.2.3.1L61.7-27a.1.1,0,0,0,.1-.1v-.2l-1.4-3.4a2.1,2.1,0,0,1,.8-2.6,19.211,19.211,0,0,0,5.5-5.5,2.192,2.192,0,0,1,2.6-.8l3.4,1.4a.365.365,0,0,0,.3-.1L74.5-42v-.2a.1.1,0,0,0-.1-.1L71-43.7a2.217,2.217,0,0,1-1.3-2.4,20.472,20.472,0,0,0,0-7.8A2.1,2.1,0,0,1,71-56.3l3.4-1.4a.1.1,0,0,0,.1-.1V-58L73-61.7c-.1-.2-.2-.2-.3-.1l-3.4,1.4a2.1,2.1,0,0,1-2.6-.8,19.211,19.211,0,0,0-5.5-5.5,2.192,2.192,0,0,1-.8-2.6l1.4-3.4a.191.191,0,0,0-.1-.3L58-74.5a.365.365,0,0,0-.3.1L56.3-71a2.217,2.217,0,0,1-2.4,1.3,20.472,20.472,0,0,0-7.8,0A2.1,2.1,0,0,1,43.7-71l-1.4-3.4c-.1-.2-.2-.2-.3-.1L38.3-73a.1.1,0,0,0-.1.1v.2l1.4,3.4a2.1,2.1,0,0,1-.8,2.6,19.211,19.211,0,0,0-5.5,5.5,2.192,2.192,0,0,1-2.6.8l-3.4-1.4a.365.365,0,0,0-.3.1L25.5-58v.2a.1.1,0,0,0,.1.1L29-56.3a2.217,2.217,0,0,1,1.3,2.4,20.472,20.472,0,0,0,0,7.8A2.1,2.1,0,0,1,29-43.7l-3.4,1.4a.1.1,0,0,0-.1.1v.2Zm12.8-3.2a12.541,12.541,0,0,1,0-9.7A12.608,12.608,0,0,1,50-62.7a11.943,11.943,0,0,1,4.9,1,12.606,12.606,0,0,1,6.9,6.9,12.541,12.541,0,0,1,0,9.7,12.608,12.608,0,0,1-11.7,7.8,11.943,11.943,0,0,1-4.9-1A12.32,12.32,0,0,1,38.3-45.2Zm3.9-1.6a8.629,8.629,0,0,0,4.6,4.6,8.7,8.7,0,0,0,3.2.6,8.532,8.532,0,0,0,7.8-5.2,8.175,8.175,0,0,0,0-6.5,8.629,8.629,0,0,0-4.6-4.6,8.7,8.7,0,0,0-3.2-.6,8.532,8.532,0,0,0-7.8,5.2A8.175,8.175,0,0,0,42.2-46.8Z" fill="#fff"/>
  </g>
</svg>
