<svg xmlns="http://www.w3.org/2000/svg" xmlns:xlink="http://www.w3.org/1999/xlink" width="132" height="132" viewBox="0 0 132 132">
  <defs>
    <linearGradient id="linear-gradient" x1="0.5" x2="0.5" y2="1" gradientUnits="objectBoundingBox">
      <stop offset="0" stop-color="#57d591"/>
      <stop offset="1" stop-color="#a3d047"/>
    </linearGradient>
  </defs>
  <g id="Group_1659" data-name="Group 1659" transform="translate(-894 -1268)">
    <g id="Group_1606" data-name="Group 1606" transform="translate(1288 4175) rotate(180)">
      <circle id="Ellipse_25" data-name="Ellipse 25" cx="66" cy="66" r="66" transform="translate(262 2775)" fill="url(#linear-gradient)"/>
    </g>
    <g id="Group_1620" data-name="Group 1620" transform="translate(913 1384)">
      <path id="Path_672" data-name="Path 672" d="M76.509-75.437,44.706-68.1A4.276,4.276,0,0,0,41.572-64.5v32.262a27.069,27.069,0,0,0-7.3-.42c-6.245.2-12.07,3.751-12.27,9.939.54,6.966,6.441,9.671,12.117,9.595A13.223,13.223,0,0,0,46.426-25.362c.076-9.37.038-18.927.038-28.364l29.357-6.728V-34.69a27.068,27.068,0,0,0-7.3-.42c-6.245.2-12.07,3.751-12.27,9.939.54,6.966,6.441,9.671,12.117,9.595A13.223,13.223,0,0,0,80.675-27.81c.072-16.222.038-28.97.038-44-.75-2.169-2.346-3.717-4.2-3.631Zm-.688,5.2v4.74L46.464-58.771v-4.7ZM68.635-30.217a22.353,22.353,0,0,1,6.46.459c.741.382.631.827.726,1.414-.492,4.367-3.789,7.731-7.569,7.874-3.383.1-7.129-1.209-7.11-4.625.387-4.052,4.611-5.031,7.492-5.122ZM34.385-27.77a22.353,22.353,0,0,1,6.46.459c.741.382.631.827.726,1.414-.492,4.367-3.789,7.731-7.569,7.874-3.383.1-7.129-1.209-7.11-4.625.387-4.052,4.611-5.031,7.492-5.122Z" transform="translate(-8.715 -7.371)" fill="#fff"/>
    </g>
  </g>
</svg>
