<svg xmlns="http://www.w3.org/2000/svg" width="76" height="62" viewBox="0 0 76 62">
  <g id="Group_1676" data-name="Group 1676" transform="translate(-12 81)">
    <path id="Path_736" data-name="Path 736" d="M39-81a2.2,2.2,0,0,0-1.781,1.094L33.75-73H20a8.026,8.026,0,0,0-8,8v38a8.026,8.026,0,0,0,8,8H80a8.026,8.026,0,0,0,8-8V-65a8.026,8.026,0,0,0-8-8H66.25l-3.469-6.906A2.044,2.044,0,0,0,61-81Zm1.219,4H59.781l3.438,6.875A2.052,2.052,0,0,0,65-69H80a3.949,3.949,0,0,1,4,4v38a3.949,3.949,0,0,1-4,4H20a3.949,3.949,0,0,1-4-4V-65a3.949,3.949,0,0,1,4-4H35a2.052,2.052,0,0,0,1.781-1.125ZM50-63A17.033,17.033,0,0,0,33-46,17.033,17.033,0,0,0,50-29,17.033,17.033,0,0,0,67-46,17.033,17.033,0,0,0,50-63Zm0,4A12.97,12.97,0,0,1,63-46,12.97,12.97,0,0,1,50-33,12.97,12.97,0,0,1,37-46,12.97,12.97,0,0,1,50-59Z" fill="#fff"/>
  </g>
</svg>
