<svg xmlns="http://www.w3.org/2000/svg" xmlns:xlink="http://www.w3.org/1999/xlink" width="132" height="132" viewBox="0 0 132 132">
  <defs>
    <linearGradient id="linear-gradient" x1="0.5" x2="0.5" y2="1" gradientUnits="objectBoundingBox">
      <stop offset="0" stop-color="#fd7f8e"/>
      <stop offset="1" stop-color="#29c0b4"/>
    </linearGradient>
  </defs>
  <g id="Group_1659" data-name="Group 1659" transform="translate(-894 -1258)">
    <g id="Group_1606" data-name="Group 1606" transform="translate(1288 4165) rotate(180)">
      <circle id="Ellipse_25" data-name="Ellipse 25" cx="66" cy="66" r="66" transform="translate(262 2775)" fill="url(#linear-gradient)"/>
    </g>
    <g id="Group_1701" data-name="Group 1701" transform="translate(918.422 1385.229)">
      <path id="Path_750" data-name="Path 750" d="M65.017-87H44a6.023,6.023,0,0,0-6,6v49.531a6.023,6.023,0,0,0,6,6H65.017a6.023,6.023,0,0,0,6-6V-81A6.023,6.023,0,0,0,65.017-87ZM47.006-75.743a3,3,0,0,1-3,3,3,3,0,0,1-3-3V-81a3,3,0,0,1,3-3,3,3,0,0,1,3,3Z" transform="translate(-4.866 -1.996)" fill="#fff"/>
      <path id="Path_751" data-name="Path 751" d="M32.008-33.462V-82.993a6.762,6.762,0,0,1,6.754-6.754H51.468A6.021,6.021,0,0,0,45.517-95H24.5a6.023,6.023,0,0,0-6,6v55.535a6.023,6.023,0,0,0,6,6H35.682a6.756,6.756,0,0,1-3.673-6Zm-4.5-50.281a3,3,0,0,1-3,3,3,3,0,0,1-3-3V-89a3,3,0,0,1,3-3,3,3,0,0,1,3,3Z" fill="#fff"/>
    </g>
  </g>
</svg>
