<svg xmlns="http://www.w3.org/2000/svg" xmlns:xlink="http://www.w3.org/1999/xlink" width="132" height="132" viewBox="0 0 132 132">
  <defs>
    <linearGradient id="linear-gradient" x1="0.5" x2="0.5" y2="1" gradientUnits="objectBoundingBox">
      <stop offset="0" stop-color="#57d591"/>
      <stop offset="1" stop-color="#a670af"/>
    </linearGradient>
  </defs>
  <g id="Group_1666" data-name="Group 1666" transform="translate(-894 -1860)">
    <g id="Group_1659" data-name="Group 1659" transform="translate(0 592)">
      <g id="Group_1606" data-name="Group 1606" transform="translate(1288 4175) rotate(180)">
        <path id="Path_735" data-name="Path 735" d="M66,0A66,66,0,1,1,0,66,66,66,0,0,1,66,0Z" transform="translate(394 2907) rotate(180)" fill="url(#linear-gradient)"/>
      </g>
    </g>
    <g id="Group_1700" data-name="Group 1700" transform="translate(928.361 1982.429)">
      <path id="Path_749" data-name="Path 749" d="M26.968-26.662c8.521,0,15.574-3.041,18.2-7.386a31.369,31.369,0,0,0,9.562,1.441c10.841,0,19.322-4.908,19.322-11.174l0-32.617c0-6.269-8.485-11.177-19.322-11.177S35.406-82.668,35.406-76.4v12.165a32.347,32.347,0,0,0-8.436-1.086c-10.841,0-19.332,4.9-19.332,11.168v16.314c0,6.269,8.491,11.174,19.328,11.174ZM70.036-43.779c0,3.384-6.282,7.154-15.3,7.154a27.179,27.179,0,0,1-8.772-1.407v-4.259a31.476,31.476,0,0,0,8.772,1.2c6.358,0,11.878-1.707,15.3-4.366Zm0-6.759c-1.4,3.106-7.291,6.089-15.3,6.089a27.368,27.368,0,0,1-8.772-1.383V-50.44a31.629,31.629,0,0,0,8.772,1.19c6.358,0,11.878-1.707,15.3-4.366Zm0-8.151c-1.4,3.106-7.291,6.086-15.3,6.086a27.857,27.857,0,0,1-8.791-1.386c0-.052.018-.107.018-.159a7.578,7.578,0,0,0-2.3-5.241A29.879,29.879,0,0,0,54.735-57.4c6.358,0,11.878-1.707,15.3-4.366Zm0-8.154c-1.4,3.106-7.291,6.086-15.3,6.086s-13.9-2.977-15.308-6.086v-3.081c3.43,2.659,8.953,4.366,15.308,4.366s11.878-1.71,15.3-4.366ZM40.152-78.436c1.891-2.7,7.359-5.113,14.582-5.113,9.02,0,15.3,3.767,15.3,7.154,0,3.571-3.751,5.2-6.652,6.162a27.389,27.389,0,0,1-8.65,1.319c-6.2,0-11.122-1.784-13.689-4.027a4.011,4.011,0,0,1-.893-5.5ZM12.386-56.186c1.2-1.707,3.831-3.3,7.429-4.238a28.448,28.448,0,0,1,7.154-.869,32.508,32.508,0,0,1,9.568,1.441,10.818,10.818,0,0,1,4.528,2.576,4.507,4.507,0,0,1,1.542,3.127c0,3.54-6.419,7.487-15.638,7.487-5.8,0-10.486-1.56-13.16-3.6-1.891-1.438-2.937-3.773-1.423-5.927Zm-.725,8.515c3.43,2.659,8.953,4.366,15.308,4.366,6.557,0,12.242-1.811,15.638-4.62v1.94c0,3.54-6.419,7.484-15.638,7.484-8.011,0-13.9-2.977-15.308-6.083Zm0,8.157c3.43,2.659,8.953,4.363,15.308,4.363,6.557,0,12.242-1.811,15.638-4.617l.1,3.357s-3.473,5.446-15.739,5.728c-9.02.205-15.308-3.767-15.308-7.151Z" transform="translate(-11)" fill="#fff"/>
    </g>
  </g>
</svg>
