<svg xmlns="http://www.w3.org/2000/svg" width="46.039" height="90" viewBox="0 0 46.039 90">
  <g id="Group_1696" data-name="Group 1696" transform="translate(-26.981 95)">
    <path id="Path_738" data-name="Path 738" d="M64.828-95H35.172a8.2,8.2,0,0,0-8.191,8.2V-13.2A8.2,8.2,0,0,0,35.172-5H64.828a8.2,8.2,0,0,0,8.191-8.2V-86.8A8.2,8.2,0,0,0,64.828-95Zm4.746,81.805a4.757,4.757,0,0,1-4.746,4.75H35.172a4.757,4.757,0,0,1-4.746-4.75V-86.8a4.757,4.757,0,0,1,4.746-4.75h3.785l0,1.449a3.922,3.922,0,0,0,3.922,3.922H57.207A3.928,3.928,0,0,0,61.133-90.1v-1.449h3.7a4.757,4.757,0,0,1,4.746,4.75Z" fill="#fff"/>
  </g>
</svg>
