<svg xmlns="http://www.w3.org/2000/svg" width="64.897" height="64.884" viewBox="0 0 64.897 64.884">
  <g id="Group_1697" data-name="Group 1697" transform="translate(-3.105 96.889)">
    <path id="Path_739" data-name="Path 739" d="M20.425-11.788H5.287A2.162,2.162,0,0,1,3.125-13.95V-29.088A2.162,2.162,0,0,1,5.287-31.25,2.162,2.162,0,0,1,7.45-29.088v12.975H20.425a2.162,2.162,0,0,1,2.162,2.162A2.162,2.162,0,0,1,20.425-11.788Z" transform="translate(-0.006 -20.217)" fill="#fff"/>
    <path id="Path_740" data-name="Path 740" d="M86.05-77.413a2.162,2.162,0,0,1-2.162-2.162V-92.55H70.912a2.162,2.162,0,0,1-2.162-2.162,2.162,2.162,0,0,1,2.162-2.162H86.05a2.165,2.165,0,0,1,1.53.633,2.165,2.165,0,0,1,.633,1.53v15.137a2.165,2.165,0,0,1-.633,1.53,2.165,2.165,0,0,1-1.53.633Z" transform="translate(-20.219 -0.004)" fill="#fff"/>
    <path id="Path_741" data-name="Path 741" d="M5.281-15.122a2.161,2.161,0,0,1-1.535-.627,2.169,2.169,0,0,1-.641-1.535,2.169,2.169,0,0,1,.641-1.535L26.387-41.44a2.17,2.17,0,0,1,3.071,0,2.17,2.17,0,0,1,0,3.071L6.817-15.75a2.161,2.161,0,0,1-1.535.627Z" transform="translate(0 -16.883)" fill="#fff"/>
    <path id="Path_742" data-name="Path 742" d="M60.093-69.913a2.161,2.161,0,0,1-1.535-.627,2.169,2.169,0,0,1-.641-1.535,2.169,2.169,0,0,1,.641-1.535l22.62-22.641a2.17,2.17,0,0,1,3.071,0,2.17,2.17,0,0,1,0,3.071L61.629-70.54a2.161,2.161,0,0,1-1.535.627Z" transform="translate(-16.883 0)" fill="#fff"/>
  </g>
</svg>
