<svg xmlns="http://www.w3.org/2000/svg" xmlns:xlink="http://www.w3.org/1999/xlink" width="132" height="132" viewBox="0 0 132 132">
  <defs>
    <linearGradient id="linear-gradient" x1="0.5" x2="0.5" y2="1" gradientUnits="objectBoundingBox">
      <stop offset="0" stop-color="#569cce"/>
      <stop offset="1" stop-color="#a771ae"/>
    </linearGradient>
  </defs>
  <g id="Group_1698" data-name="Group 1698" transform="translate(-894 -2452)">
    <g id="Group_1666" data-name="Group 1666" transform="translate(1920 4444) rotate(180)">
      <g id="Group_1659" data-name="Group 1659" transform="translate(0 592)">
        <g id="Group_1606" data-name="Group 1606" transform="translate(1288 4175) rotate(180)">
          <path id="Path_735" data-name="Path 735" d="M66,0A66,66,0,1,1,0,66,66,66,0,0,1,66,0Z" transform="translate(394 2907) rotate(180)" fill="url(#linear-gradient)"/>
        </g>
      </g>
    </g>
    <g id="Group_1697" data-name="Group 1697" transform="translate(924.895 2582.769)">
      <path id="Path_739" data-name="Path 739" d="M20.425-11.788H5.287A2.162,2.162,0,0,1,3.125-13.95V-29.088A2.162,2.162,0,0,1,5.287-31.25,2.162,2.162,0,0,1,7.45-29.088v12.975H20.425a2.162,2.162,0,0,1,2.162,2.162A2.162,2.162,0,0,1,20.425-11.788Z" transform="translate(-0.006 -20.217)" fill="#fff"/>
      <path id="Path_740" data-name="Path 740" d="M86.05-77.413a2.162,2.162,0,0,1-2.162-2.162V-92.55H70.912a2.162,2.162,0,0,1-2.162-2.162,2.162,2.162,0,0,1,2.162-2.162H86.05a2.165,2.165,0,0,1,1.53.633,2.165,2.165,0,0,1,.633,1.53v15.137a2.165,2.165,0,0,1-.633,1.53,2.165,2.165,0,0,1-1.53.633Z" transform="translate(-20.219 -0.004)" fill="#fff"/>
      <path id="Path_741" data-name="Path 741" d="M5.281-15.122a2.161,2.161,0,0,1-1.535-.627,2.169,2.169,0,0,1-.641-1.535,2.169,2.169,0,0,1,.641-1.535L26.387-41.44a2.17,2.17,0,0,1,3.071,0,2.17,2.17,0,0,1,0,3.071L6.817-15.75a2.161,2.161,0,0,1-1.535.627Z" transform="translate(0 -16.883)" fill="#fff"/>
      <path id="Path_742" data-name="Path 742" d="M60.093-69.913a2.161,2.161,0,0,1-1.535-.627,2.169,2.169,0,0,1-.641-1.535,2.169,2.169,0,0,1,.641-1.535l22.62-22.641a2.17,2.17,0,0,1,3.071,0,2.17,2.17,0,0,1,0,3.071L61.629-70.54a2.161,2.161,0,0,1-1.535.627Z" transform="translate(-16.883 0)" fill="#fff"/>
    </g>
  </g>
</svg>
