<svg xmlns="http://www.w3.org/2000/svg" width="70" height="70" viewBox="0 0 70 70">
  <path id="Icon_awesome-arrow-circle-up" data-name="Icon awesome-arrow-circle-up" d="M.563,35.563a35,35,0,1,1,35,35A34.994,34.994,0,0,1,.563,35.563Zm20.266,4.079L31.046,28.986v25.77a3.379,3.379,0,0,0,3.387,3.387h2.258a3.379,3.379,0,0,0,3.387-3.387V28.986L50.3,39.641a3.391,3.391,0,0,0,4.841.056l1.538-1.552a3.373,3.373,0,0,0,0-4.784L37.962,14.633a3.373,3.373,0,0,0-4.784,0L14.435,33.361a3.373,3.373,0,0,0,0,4.784L15.974,39.7A3.408,3.408,0,0,0,20.829,39.641Z" transform="translate(-0.563 -0.563)" fill="#fff"/>
</svg>
