<svg xmlns="http://www.w3.org/2000/svg" width="30" height="30" viewBox="0 0 30 30">
  <g id="Icon-Arrow_Next" data-name="Icon-Arrow / Next" transform="translate(30 30) rotate(180)">
    <path id="Path_319" data-name="Path 319" d="M2023.844,324.676a13.52,13.52,0,0,0,3.291,8.863l-1.011,1.011a15,15,0,0,1,21.166-21.166l-1.011,1.011a13.574,13.574,0,0,0-22.435,10.28Zm24.894-9.839-1.012,1.012a13.574,13.574,0,0,1-19.138,19.138L2027.577,336a15,15,0,0,0,21.162-21.162Zm-4.725,9.807a29.514,29.514,0,0,1-5.377-4.471l-.122-.123-1.258,1.258c1.07.961,2,1.782,2.978,2.654h-9.672v1.429h9.94c-1.013.943-2.56,2.432-3.328,3.122l1.253,1.253a40.2,40.2,0,0,1,4.244-3.759c.229-.174.463-.343.7-.512l.073,0c0-.015,0-.029,0-.044.27-.192.545-.386.829-.589A2.765,2.765,0,0,0,2044.014,324.644Z" transform="translate(-2022.416 -309.676)"/>
  </g>
</svg>
