<svg xmlns="http://www.w3.org/2000/svg" width="32.463" height="32.75" viewBox="0 0 32.463 32.75">
  <g id="Icon-Search" transform="translate(0 0)">
    <path id="Path_311" data-name="Path 311" d="M1194.755,847.132a11.86,11.86,0,1,0,11.664,11.859A11.763,11.763,0,0,0,1194.755,847.132Zm0,22.037a10.18,10.18,0,1,1,10.011-10.178A10.1,10.1,0,0,1,1194.755,869.169Zm19.492,10.714-10.712-10.89,1.307-1.329,10.712,10.89ZM1195.139,850.9v1.705c-.127-.008-.255-.013-.384-.013a6.343,6.343,0,0,0-6.29,6.4c0,.012,0,.024,0,.036h-1.675c0-.012,0-.024,0-.036a8.032,8.032,0,0,1,7.965-8.1C1194.884,850.893,1195.012,850.9,1195.139,850.9Z" transform="translate(-1183.091 -847.132)" fill="#fff"/>
  </g>
</svg>
