<svg id="Icon-Value" xmlns="http://www.w3.org/2000/svg" xmlns:xlink="http://www.w3.org/1999/xlink" width="211" height="211" viewBox="0 0 211 211">
  <defs>
    <clipPath id="clip-path">
      <path id="Path_52" data-name="Path 52" d="M0-174H211V-385H0Z" transform="translate(0 385)" fill="none"/>
    </clipPath>
  </defs>
  <g id="Group_54" data-name="Group 54" clip-path="url(#clip-path)">
    <g id="Group_39" data-name="Group 39" transform="translate(4.932 6.029)">
      <path id="Path_37" data-name="Path 37" d="M-164.961-82.481A100.019,100.019,0,0,1-264.981,17.539,100.019,100.019,0,0,1-365-82.481,100.019,100.019,0,0,1-264.981-182.5,100.019,100.019,0,0,1-164.961-82.481" transform="translate(365 182.5)" fill="#fcc44c"/>
    </g>
    <g id="Group_40" data-name="Group 40" transform="translate(0)">
      <path id="Path_38" data-name="Path 38" d="M-87,0A105.5,105.5,0,0,0-192.5,105.5,105.5,105.5,0,0,0-87,211,105.5,105.5,0,0,0,18.5,105.5,105.5,105.5,0,0,0-87,0m0,201.683A96.183,96.183,0,0,1-183.183,105.5,96.183,96.183,0,0,1-87,9.317,96.183,96.183,0,0,1,9.183,105.5,96.183,96.183,0,0,1-87,201.683" transform="translate(192.5)"/>
    </g>
    <g id="Group_41" data-name="Group 41" transform="translate(31.239 27.005)">
      <path id="Path_39" data-name="Path 39" d="M-96.857-24.321c1.319.222,2.661.457,4.054.686a11.078,11.078,0,0,0-.123-1.336c-2.17-9.736-2.651-18.217-2.59-28.144,0-.233,0-.466,0-.7H-102.7c.315,5.884.629,10.945.938,16.318a73.22,73.22,0,0,0-38.968-11.161,73.578,73.578,0,0,0-73.578,73.578,73.3,73.3,0,0,0,18.951,49.287l5.524-5.523a65.529,65.529,0,0,1-16.676-43.764,65.78,65.78,0,0,1,65.779-65.78,65.467,65.467,0,0,1,31.83,8.2c-4.8-.265-9.583-.533-14.621-.8V-26.3a162.56,162.56,0,0,1,22.869,1.384c1.151.158,2.3.343,3.465.537.073.065.148.128.221.192.043-.043.072-.093.111-.138" transform="translate(214.309 53.814)"/>
    </g>
    <g id="Group_42" data-name="Group 42" transform="translate(56.61 56.521)">
      <path id="Path_40" data-name="Path 40" d="M-3.344-81.252C-4.663-81.474-6-81.709-7.4-81.937A11.078,11.078,0,0,0-7.275-80.6c2.17,9.736,2.651,18.217,2.59,28.144,0,.233,0,.466,0,.7H2.5c-.315-5.884-.629-10.945-.938-16.318A73.22,73.22,0,0,0,40.531-56.916a73.578,73.578,0,0,0,73.578-73.578,73.3,73.3,0,0,0-18.951-49.287l-5.524,5.523a65.529,65.529,0,0,1,16.676,43.764,65.78,65.78,0,0,1-65.779,65.78,65.467,65.467,0,0,1-31.83-8.2c4.8.265,9.583.533,14.621.8v-7.161A162.56,162.56,0,0,1,.453-80.66C-.7-80.818-1.848-81-3.012-81.2c-.073-.065-.148-.128-.221-.192-.043.043-.072.093-.111.138" transform="translate(7.398 179.781)"/>
    </g>
    <g id="Group_43" data-name="Group 43" transform="translate(75.919 64.961)">
      <path id="Path_41" data-name="Path 41" d="M-25.7-22.486c1.274-.1,3.792-.261,6.3-.512a44,44,0,0,0,8.267-1.684A31.706,31.706,0,0,0-2.092-28.8a12.865,12.865,0,0,0,4.467-4.741,5.393,5.393,0,0,0,.453-3.96,8.719,8.719,0,0,0-2.24-3.7,20.385,20.385,0,0,0-5.25-3.784,36.012,36.012,0,0,0-6.046-2.449,45.48,45.48,0,0,0-6.9-1.591c-1.846-.28-3.717-.419-5.581-.568a55.526,55.526,0,0,0-13.142.588,63.8,63.8,0,0,0-6.4,1.474,29.641,29.641,0,0,0-8.224,3.567,13.9,13.9,0,0,0-5.114,4.983,5.643,5.643,0,0,0-.013,5.71,12.534,12.534,0,0,0,3.642,3.981,28.493,28.493,0,0,0,7.989,4.06,48.313,48.313,0,0,0,8.826,2.092,72.237,72.237,0,0,0,9.936.654" transform="translate(56.859 49.754)" fill="#2b2e34"/>
    </g>
    <g id="Group_44" data-name="Group 44" transform="translate(99.153 90.369)">
      <path id="Path_42" data-name="Path 42" d="M0-17.1c.083.1.1.134.118.142a39.842,39.842,0,0,0,7.268,1.868c2.166.343,4.356.571,6.544.74a56.107,56.107,0,0,0,13.477-.668A46.349,46.349,0,0,0,35.583-17.1a26.808,26.808,0,0,0,8.345-4.547,10.507,10.507,0,0,0,3.223-4.2,5.472,5.472,0,0,0-.5-4.966,12.177,12.177,0,0,0-3.19-3.495,28.488,28.488,0,0,0-5.947-3.423.723.723,0,0,0-1.007.229A15.458,15.458,0,0,1,32.948-34.5c-1.375.864-2.838,1.588-4.251,2.393a.875.875,0,0,0-.4.488,11.6,11.6,0,0,1-3.434,5.752,24.928,24.928,0,0,1-7.626,4.86,41.826,41.826,0,0,1-9.869,2.913c-2.109.344-4.238.571-6.357.851C.7-17.2.379-17.155,0-17.1" transform="translate(0 37.842)" fill="#2b2e34"/>
    </g>
    <g id="Group_45" data-name="Group 45" transform="translate(75.904 124.403)">
      <path id="Path_43" data-name="Path 43" d="M-48.467,0a2.8,2.8,0,0,0-.326.221,24.517,24.517,0,0,1-6.453,4.123,36.409,36.409,0,0,1-6.921,2.414c-2.164.494-4.347.913-6.531,1.311a23.341,23.341,0,0,1-2.875.3c-2.136.119-4.275.28-6.412.274A54.356,54.356,0,0,1-87.633,7.8c-1.71-.313-3.415-.68-5.095-1.125-1.487-.394-2.949-.895-4.4-1.41A26.7,26.7,0,0,1-105.81.3c-.1-.087-.218-.156-.36-.256-.18.333-.339.614-.487.9a4.93,4.93,0,0,0-.383,3.714,9.805,9.805,0,0,0,3.318,4.679,24.892,24.892,0,0,0,6.709,3.945,38.219,38.219,0,0,0,6.132,1.981c1.419.33,2.848.636,4.285.869,1.313.213,2.642.333,3.968.463a55.434,55.434,0,0,0,8.585.157,45.092,45.092,0,0,0,7.546-.917c2.162-.5,4.346-.952,6.452-1.634a26.461,26.461,0,0,0,9.139-4.835,10.436,10.436,0,0,0,3.177-4.179A5.435,5.435,0,0,0-48.467,0" transform="translate(107.239)" fill="#2b2e34"/>
    </g>
    <g id="Group_46" data-name="Group 46" transform="translate(65.014 80.447)">
      <path id="Path_44" data-name="Path 44" d="M-39.5-16.277l-.03-.156c-.137,0-.275-.009-.411,0-.749.062-1.5.142-2.246.191a65.609,65.609,0,0,1-9.353-.027,58.821,58.821,0,0,1-7.572-1.061A47.573,47.573,0,0,1-66-19.3a28.89,28.89,0,0,1-9.039-5.123,13.416,13.416,0,0,1-2.947-3.544,8.114,8.114,0,0,1-1.167-3.6c-.059-1.3-.065-2.607-.095-3.91,0-.163-.015-.326-.025-.539a2.731,2.731,0,0,0-.317.131c-.984.588-2,1.133-2.941,1.78a12.23,12.23,0,0,0-4.131,4.376,5.529,5.529,0,0,0-.67,3.522,8.11,8.11,0,0,0,2.343,4.294,19.715,19.715,0,0,0,4.832,3.574,33.627,33.627,0,0,0,7.8,3.067A59.337,59.337,0,0,0-66.033-14a54.647,54.647,0,0,0,6.22.572c2.307.074,4.625.023,6.929-.122a53.908,53.908,0,0,0,5.775-.721c1.628-.282,3.231-.721,4.834-1.136.937-.243,1.851-.574,2.775-.866" transform="translate(87.4 36.015)" fill="#2b2e34"/>
    </g>
    <g id="Group_47" data-name="Group 47" transform="translate(75.913 108.609)">
      <path id="Path_45" data-name="Path 45" d="M-39.5-11.019l-.028-.15c-.136,0-.273-.008-.41,0-1.6.1-3.2.231-4.8.3A59.273,59.273,0,0,1-57.274-11.7a47.32,47.32,0,0,1-7.285-1.812,34.278,34.278,0,0,1-7.759-3.593,16.744,16.744,0,0,1-5.11-4.726,1.632,1.632,0,0,0-1.207-.722c-1.35-.245-2.7-.5-4.034-.822-1.209-.289-2.4-.673-3.6-.992a.509.509,0,0,0-.451.14,5.275,5.275,0,0,0-.042,5.126,10.921,10.921,0,0,0,2.854,3.5,27.8,27.8,0,0,0,9.324,4.938,41.4,41.4,0,0,0,8.471,1.932c2.308.261,4.624.484,6.943.607a44.985,44.985,0,0,0,7.686-.282c1.449-.173,2.906-.306,4.336-.579,1.68-.321,3.341-.75,5-1.18.895-.231,1.765-.562,2.645-.847" transform="translate(87.404 24.38)" fill="#2b2e34"/>
    </g>
    <g id="Group_48" data-name="Group 48" transform="translate(61.93 62.313)">
      <path id="Path_46" data-name="Path 46" d="M-39.6-71.706c1.847-.184,3.708-.281,5.539-.569A48.209,48.209,0,0,0-22.9-75.3a26.957,26.957,0,0,0,7.69-4.6,12.751,12.751,0,0,0,3.585-4.884,9.4,9.4,0,0,0,.614-3.367c.01-1.575-.015-3.149,0-4.724a9.1,9.1,0,0,0-1.584-5.372.955.955,0,0,1,.018-1.276,9.435,9.435,0,0,0,1.383-3.082.783.783,0,0,1,.374-.451,28.9,28.9,0,0,0,5.8-3.517,13.109,13.109,0,0,0,4.471-5.918c.147-.432.241-.882.36-1.324l.049.006s1-4.873,0-8.033A10.3,10.3,0,0,0-2.036-126.1a17.842,17.842,0,0,0-4.032-3.867,30.488,30.488,0,0,0-5.456-3.007c-.338-.149-.365-.3-.22-.614a8.194,8.194,0,0,0,.729-3.422c0-1.744.03-3.489,0-5.234a9.64,9.64,0,0,0-1.957-5.684,19.774,19.774,0,0,0-6.366-5.334,35.09,35.09,0,0,0-6.1-2.666c-1.458-.494-2.958-.874-4.454-1.246a54.721,54.721,0,0,0-8.386-1.324c-.466-.042-.934-.05-1.4-.079,0,0-5.709-.193-8.184.007-2.291.185-4.567.421-6.833.814a47.428,47.428,0,0,0-7.119,1.777,29.349,29.349,0,0,0-10.519,5.729,12.61,12.61,0,0,0-3.452,4.777c-.184.472-.273.982-.443,1.461a.837.837,0,0,1-.361.452,27.945,27.945,0,0,0-5.865,3.568,13.029,13.029,0,0,0-4.4,5.87c-.15.449-.237.919-.4,1.377a21.4,21.4,0,0,0-.005,7.992,11.088,11.088,0,0,0,1.166,3.082,13.259,13.259,0,0,0,2.378,3.033,25.842,25.842,0,0,0,7.8,4.974c.343.151.393.291.245.639a9.054,9.054,0,0,0-.729,3.682c.018,1.56.024,3.121.005,4.681a9.222,9.222,0,0,0,1.608,5.369.747.747,0,0,1,.013.98,9.2,9.2,0,0,0-1.621,5.405c.019,1.461.015,2.922,0,4.383a9.953,9.953,0,0,0,2.106,6.365A18.248,18.248,0,0,0-70.2-78.351a32.262,32.262,0,0,0,8.261,4.012,47.405,47.405,0,0,0,7.073,1.79,59.261,59.261,0,0,0,7.341.863,53.323,53.323,0,0,0,7.928-.019" transform="translate(87.62 158.659)"/>
    </g>
    <g id="Group_49" data-name="Group 49" transform="translate(99.153 90.369)">
      <path id="Path_47" data-name="Path 47" d="M0-17.1c.379-.052.7-.1,1.017-.139,2.12-.28,4.248-.507,6.357-.851a41.826,41.826,0,0,0,9.869-2.913,24.928,24.928,0,0,0,7.626-4.86A11.6,11.6,0,0,0,28.3-31.617a.875.875,0,0,1,.4-.488c1.413-.805,2.876-1.529,4.251-2.393A15.458,15.458,0,0,0,36.509-37.5a.723.723,0,0,1,1.007-.229,28.488,28.488,0,0,1,5.947,3.423,12.177,12.177,0,0,1,3.19,3.495,5.472,5.472,0,0,1,.5,4.966,10.507,10.507,0,0,1-3.223,4.2A26.808,26.808,0,0,1,35.583-17.1a46.349,46.349,0,0,1-8.176,2.082,56.107,56.107,0,0,1-13.477.668c-2.188-.169-4.378-.4-6.544-.74A39.842,39.842,0,0,1,.118-16.961C.1-16.968.083-17,0-17.1" transform="translate(0 37.842)" fill="#fcc44c"/>
    </g>
    <g id="Group_50" data-name="Group 50" transform="translate(75.904 124.403)">
      <path id="Path_48" data-name="Path 48" d="M-48.467,0a5.435,5.435,0,0,1,.738,5.187,10.436,10.436,0,0,1-3.177,4.179A26.461,26.461,0,0,1-60.045,14.2c-2.106.682-4.29,1.137-6.452,1.634a45.092,45.092,0,0,1-7.546.917,55.434,55.434,0,0,1-8.585-.157c-1.326-.129-2.655-.249-3.968-.463-1.438-.233-2.866-.539-4.285-.869a38.219,38.219,0,0,1-6.132-1.981,24.892,24.892,0,0,1-6.709-3.945,9.805,9.805,0,0,1-3.318-4.679,4.93,4.93,0,0,1,.383-3.714c.147-.288.307-.57.487-.9.141.1.259.169.36.256A26.7,26.7,0,0,0-97.128,5.27c1.451.515,2.913,1.017,4.4,1.41,1.68.445,3.385.811,5.095,1.125a54.356,54.356,0,0,0,9.648.837c2.137.005,4.276-.155,6.412-.274a23.341,23.341,0,0,0,2.875-.3c2.185-.4,4.367-.817,6.531-1.311a36.409,36.409,0,0,0,6.921-2.414A24.517,24.517,0,0,0-48.793.221,2.8,2.8,0,0,1-48.467,0" transform="translate(107.239)" fill="#fcc44c"/>
    </g>
    <g id="Group_51" data-name="Group 51" transform="translate(65.014 80.447)">
      <path id="Path_49" data-name="Path 49" d="M-39.5-16.277c-.924.292-1.838.623-2.775.866-1.6.414-3.206.854-4.834,1.136a53.908,53.908,0,0,1-5.775.721c-2.3.145-4.622.2-6.929.122A54.647,54.647,0,0,1-66.033-14a59.337,59.337,0,0,1-6.325-1.266,33.627,33.627,0,0,1-7.8-3.067,19.715,19.715,0,0,1-4.832-3.574,8.11,8.11,0,0,1-2.343-4.294,5.529,5.529,0,0,1,.67-3.522A12.23,12.23,0,0,1-82.534-34.1c.944-.647,1.957-1.192,2.941-1.78a2.731,2.731,0,0,1,.317-.131c.01.213.021.376.025.539.03,1.3.036,2.608.095,3.91a8.114,8.114,0,0,0,1.167,3.6,13.416,13.416,0,0,0,2.947,3.544A28.89,28.89,0,0,0-66-19.3a47.573,47.573,0,0,0,6.892,1.968,58.821,58.821,0,0,0,7.572,1.061,65.609,65.609,0,0,0,9.353.027c.75-.048,1.5-.129,2.246-.191.136-.011.274,0,.411,0l.03.156" transform="translate(87.4 36.015)" fill="#fcc44c"/>
    </g>
    <g id="Group_52" data-name="Group 52" transform="translate(75.913 108.609)">
      <path id="Path_50" data-name="Path 50" d="M-39.5-11.019c-.881.286-1.75.616-2.645.847-1.657.43-3.318.859-5,1.18-1.43.273-2.888.407-4.336.579a44.985,44.985,0,0,1-7.686.282c-2.319-.123-4.635-.346-6.943-.607a41.4,41.4,0,0,1-8.471-1.932,27.8,27.8,0,0,1-9.324-4.938,10.921,10.921,0,0,1-2.854-3.5,5.275,5.275,0,0,1,.042-5.126.509.509,0,0,1,.451-.14c1.2.319,2.39.7,3.6.992,1.335.319,2.684.577,4.034.822a1.632,1.632,0,0,1,1.207.722,16.744,16.744,0,0,0,5.11,4.726,34.278,34.278,0,0,0,7.759,3.593A47.32,47.32,0,0,0-57.274-11.7a59.273,59.273,0,0,0,12.538.841c1.6-.074,3.2-.2,4.8-.3.136-.009.273,0,.41,0l.028.15" transform="translate(87.404 24.38)" fill="#fff"/>
    </g>
    <g id="Group_53" data-name="Group 53" transform="translate(75.919 64.961)">
      <path id="Path_51" data-name="Path 51" d="M-25.7-22.486a72.237,72.237,0,0,1-9.936-.654,48.313,48.313,0,0,1-8.826-2.092,28.493,28.493,0,0,1-7.989-4.06,12.534,12.534,0,0,1-3.642-3.981,5.643,5.643,0,0,1,.013-5.71,13.9,13.9,0,0,1,5.114-4.983,29.641,29.641,0,0,1,8.224-3.567,63.8,63.8,0,0,1,6.4-1.474A55.526,55.526,0,0,1-23.193-49.6c1.864.149,3.734.288,5.581.568a45.48,45.48,0,0,1,6.9,1.591,36.012,36.012,0,0,1,6.046,2.449A20.385,20.385,0,0,1,.587-41.2a8.719,8.719,0,0,1,2.24,3.7,5.393,5.393,0,0,1-.453,3.96A12.865,12.865,0,0,1-2.092-28.8a31.706,31.706,0,0,1-9.038,4.118A44,44,0,0,1-19.4-23c-2.508.251-5.026.41-6.3.512" transform="translate(56.859 49.754)" fill="#fff"/>
    </g>
  </g>
</svg>
