<svg id="Icon-Tick_Selected" data-name="Icon-Tick – Selected" xmlns="http://www.w3.org/2000/svg" width="40" height="40" viewBox="0 0 40 40">
  <path id="Path_323" data-name="Path 323" d="M2019.656,1200.261A15.743,15.743,0,1,0,2035.4,1216,15.743,15.743,0,0,0,2019.656,1200.261Zm8.445,11.368c-2.1,1.907-9,8.856-10.624,11.2a3.121,3.121,0,0,1-.257.284c-.221-.337-.432-.665-.64-.985-.017,0-.033,0-.051,0,0-.028,0-.056,0-.083-.184-.282-.368-.56-.557-.833a32.271,32.271,0,0,0-3.421-4.247l1.506-1.385c.759.919,3.352,3.976,3.352,3.976s8.292-8.384,9.451-9.572l1.391,1.512ZM2001.645,1216a18.028,18.028,0,0,0,4.388,11.818l-1.348,1.348a20,20,0,0,1,28.221-28.221l-1.348,1.348A18.1,18.1,0,0,0,2001.645,1216Zm33.192-13.119-1.349,1.349a18.1,18.1,0,0,1-25.518,25.518l-1.349,1.349a20,20,0,0,0,28.216-28.216Z" transform="translate(-1999.74 -1196)" fill="#23AAF7"/>
</svg>
