<svg xmlns="http://www.w3.org/2000/svg" xmlns:xlink="http://www.w3.org/1999/xlink" width="119.731" height="120" viewBox="0 0 119.731 120">
  <defs>
    <linearGradient id="linear-gradient" y1="0.5" x2="1" y2="0.5" gradientUnits="objectBoundingBox">
      <stop offset="0.087" stop-color="#e8af42"/>
      <stop offset="1" stop-color="#df8026"/>
    </linearGradient>
  </defs>
  <g id="Group_1747" data-name="Group 1747" transform="translate(-1064.439 -871.292)">
    <path id="Path_765" data-name="Path 765" d="M1071.335,955.974c.319-.981.824-2.91,1.57-4.741,1.367-3.356,1.328-6.563-1.009-9.413a27.753,27.753,0,0,0-4.032-3.625,8.652,8.652,0,0,1-.138-13.683c1.022-.855,2.069-1.682,3.075-2.555a8.609,8.609,0,0,0,2.424-9.7c-.482-1.282-1.014-2.547-1.433-3.849a8.6,8.6,0,0,1,6.851-11.332c1.311-.233,2.63-.425,3.941-.662a8.633,8.633,0,0,0,6.861-6.624c.279-1.3.476-2.623.657-3.942a8.644,8.644,0,0,1,11.7-7.09c1.115.4,2.21.852,3.319,1.269a8.625,8.625,0,0,0,10.181-2.719c.752-.916,1.491-1.842,2.258-2.744a8.584,8.584,0,0,1,13.375-.143c.834.941,1.594,1.947,2.4,2.915a8.655,8.655,0,0,0,10.1,2.719,35.194,35.194,0,0,1,4.927-1.674,8.529,8.529,0,0,1,10.137,7.279c.2,1.318.385,2.639.648,3.944a8.571,8.571,0,0,0,7.039,6.825c1.349.234,2.7.433,4.048.691a8.6,8.6,0,0,1,6.594,11.316c-.457,1.368-1.035,2.7-1.508,4.058a8.585,8.585,0,0,0,2.614,9.552c1.042.887,2.12,1.735,3.165,2.619a8.657,8.657,0,0,1-.022,13.254c-1.047.883-2.135,1.719-3.165,2.62a8.625,8.625,0,0,0-2.473,9.877c.483,1.281,1,2.552,1.422,3.854a8.592,8.592,0,0,1-6.761,11.21c-1.239.221-2.482.415-3.722.629a8.683,8.683,0,0,0-7.354,7.434c-.184,1.132-.354,2.267-.535,3.4a8.616,8.616,0,0,1-11.554,6.907c-1.293-.45-2.555-.986-3.847-1.439a8.564,8.564,0,0,0-9.552,2.6c-.837.989-1.639,2.008-2.469,3a8.569,8.569,0,0,1-13.227.307c-.9-.983-1.7-2.054-2.547-3.081a8.634,8.634,0,0,0-10.195-2.676c-1.106.423-2.2.87-3.321,1.261a8.623,8.623,0,0,1-11.654-7.021c-.171-1.134-.339-2.27-.534-3.4a8.641,8.641,0,0,0-7.251-7.272c-1.313-.227-2.63-.429-3.939-.673C1074.259,964.691,1071.322,961.152,1071.335,955.974Zm53.017,22.7a47.387,47.387,0,1,0-47.328-47.4A47.387,47.387,0,0,0,1124.352,978.67Z" transform="translate(0 0)" fill="#e8af42"/>
    <circle id="Ellipse_81" data-name="Ellipse 81" cx="46.248" cy="46.248" r="46.248" transform="translate(1079.314 884.942)" fill="url(#linear-gradient)"/>
    <path id="Path_766" data-name="Path 766" d="M1155.861,914.292a49.085,49.085,0,1,0,49.085,49.085A49.084,49.084,0,0,0,1155.861,914.292Zm0,93.834a44.75,44.75,0,1,1,44.75-44.75A44.75,44.75,0,0,1,1155.861,1008.126Z" transform="translate(-31.542 -32.036)" fill="#df8026"/>
    <path id="Path_767" data-name="Path 767" d="M1241.451,1018.294c.171.581.342,1.174.526,1.786a4.994,4.994,0,0,0,.519-.315,54.011,54.011,0,0,1,10.94-6.638l.286-.137-1.427-2.927c-2.333,1.3-4.329,2.427-6.455,3.619a33.315,33.315,0,0,0-64.033-15.927l3.344,1.152a29.786,29.786,0,0,1,57.3,12.831c-.844-2.005-1.684-4.006-2.574-6.11l-2.915,1.421a73.506,73.506,0,0,1,3.974,9.582c.164.5.317,1,.469,1.517-.012.043-.023.085-.035.128C1241.4,1018.285,1241.425,1018.287,1241.451,1018.294Z" transform="translate(-87.44 -78.67)" fill="#fff"/>
    <path id="Path_768" data-name="Path 768" d="M1154.069,1070.25c-.172-.581-.342-1.174-.525-1.786a4.976,4.976,0,0,0-.519.315,54.019,54.019,0,0,1-10.94,6.638l-.286.137,1.427,2.927c2.333-1.3,4.33-2.428,6.455-3.619a33.315,33.315,0,0,0,64.033,15.927l-3.344-1.152a29.786,29.786,0,0,1-57.3-12.831c.844,2,1.684,4.005,2.574,6.11l2.915-1.421a73.614,73.614,0,0,1-3.974-9.582c-.164-.5-.317-1-.469-1.517.012-.042.023-.085.035-.128C1154.122,1070.258,1154.1,1070.257,1154.069,1070.25Z" transform="translate(-57.634 -146.896)" fill="#fff"/>
    <text id="_12_month_guarantee" data-name="12 month
guarantee" transform="translate(1124.805 929.536)" fill="#fff" font-size="11" font-family="BebasNeue-Regular, Bebas Neue"><tspan x="-17.1" y="0">12 month</tspan><tspan x="-19.322" y="13">guarantee</tspan></text>
  </g>
</svg>
