<svg xmlns="http://www.w3.org/2000/svg" width="144.092" height="120.28" viewBox="0 0 144.092 120.28">
  <g id="Group_1658" data-name="Group 1658" transform="translate(-377.153 -771.042)">
    <path id="Path_721" data-name="Path 721" d="M661.482,812.8c.156-.481.4-1.425.769-2.322a4.26,4.26,0,0,0-.494-4.611,13.591,13.591,0,0,0-1.975-1.776,4.237,4.237,0,0,1-.067-6.7c.5-.419,1.013-.824,1.506-1.251a4.216,4.216,0,0,0,1.187-4.75c-.236-.628-.5-1.248-.7-1.885a4.21,4.21,0,0,1,3.355-5.55c.643-.114,1.289-.208,1.931-.324a4.228,4.228,0,0,0,3.36-3.244c.136-.637.233-1.285.322-1.931a4.233,4.233,0,0,1,5.731-3.473c.546.2,1.083.417,1.626.621a4.224,4.224,0,0,0,4.987-1.332c.368-.448.73-.9,1.106-1.344a4.2,4.2,0,0,1,6.551-.07c.409.461.781.954,1.175,1.428a4.239,4.239,0,0,0,4.945,1.332,17.245,17.245,0,0,1,2.414-.82,4.178,4.178,0,0,1,4.965,3.565c.1.645.188,1.293.317,1.932a4.2,4.2,0,0,0,3.448,3.343c.661.114,1.324.212,1.983.339a4.214,4.214,0,0,1,3.229,5.542c-.224.67-.507,1.32-.739,1.988a4.2,4.2,0,0,0,1.28,4.679c.511.434,1.038.85,1.55,1.283a4.24,4.24,0,0,1-.011,6.492c-.513.433-1.046.842-1.55,1.283a4.224,4.224,0,0,0-1.211,4.838c.236.627.489,1.25.7,1.887a4.208,4.208,0,0,1-3.312,5.491c-.607.108-1.216.2-1.823.308a4.253,4.253,0,0,0-3.6,3.641c-.09.555-.174,1.11-.262,1.665a4.22,4.22,0,0,1-5.659,3.383c-.633-.22-1.252-.483-1.884-.7a4.2,4.2,0,0,0-4.679,1.273c-.41.484-.8.983-1.209,1.47a4.2,4.2,0,0,1-6.478.15c-.439-.481-.832-1.006-1.248-1.509a4.229,4.229,0,0,0-4.993-1.31c-.542.207-1.079.426-1.626.618A4.223,4.223,0,0,1,670.681,823c-.084-.556-.166-1.112-.261-1.665a4.232,4.232,0,0,0-3.552-3.562c-.643-.111-1.288-.21-1.929-.329A4.365,4.365,0,0,1,661.482,812.8Zm25.967,11.116A23.21,23.21,0,1,0,664.268,800.7,23.21,23.21,0,0,0,687.449,823.916Z" transform="translate(-195.71 0)" fill="#e8af42"/>
    <path id="Path_722" data-name="Path 722" d="M435.558,781.839a58.4,58.4,0,1,0,58.4,58.4A58.4,58.4,0,0,0,435.558,781.839Zm0,111.651A53.247,53.247,0,1,1,488.8,840.244,53.247,53.247,0,0,1,435.558,893.491Z" transform="translate(0 -7.326)"/>
    <circle id="Ellipse_75" data-name="Ellipse 75" cx="54.197" cy="54.197" r="54.197" transform="translate(381.704 777.936)" fill="#2896e2"/>
    <path id="Path_723" data-name="Path 723" d="M594.466,913.619a16.658,16.658,0,0,0-10.641,3.709c-4.248,3.266-2.249,7.6-.664,12.716,2.068,6.668,3.809,10.836,9.5,14.793,4.652,3.233,8.507,4.072,12.983.6a17.745,17.745,0,0,0-11.182-31.814Z" transform="translate(-142.193 -99.12)"/>
    <path id="Path_724" data-name="Path 724" d="M662.317,886.778c.451-3.7-3.367-7.508-6.514-7.387-3.292.127-5.788,3.35-5.711,7.59.053,2.906,2.178,4.7,5.57,4.7C660.606,891.681,662.328,890.412,662.317,886.778Z" transform="translate(-190.128 -75.278)" fill="#fff"/>
    <path id="Path_725" data-name="Path 725" d="M453.878,891.723c3.408.03,5.413-1.7,5.471-4.712.082-4.284-2.364-7.565-5.641-7.565-3.609,0-6.432,3.22-6.472,7.383C447.2,890.471,448.839,891.678,453.878,891.723Z" transform="translate(-48.819 -75.319)" fill="#fff"/>
    <path id="Path_726" data-name="Path 726" d="M456.1,929.314c.29-5.633,3.484-11.128,9.954-14.234,6.427-3.085,12.784-2.437,18.586,1.836,4.4,3.24,4.462,6.089,2.851,11.406-2.062,6.809-4.77,13.019-10.663,16.924-5.214,3.455-11.049,3.078-15.67-1.7C457.842,940.121,456.055,935.643,456.1,929.314Zm28.928,2.893c.391-6.884-5.62-9.395-10.2-9.5-4.692-.107-9.335,4.251-9.378,8.658a10.3,10.3,0,0,0,10.1,10.137C481.123,941.5,485.029,937.9,485.031,932.206Z" transform="translate(-54.996 -98.804)"/>
    <path id="Path_727" data-name="Path 727" d="M550.039,1022.856a12.493,12.493,0,0,1-10.262-5.1c-1.344-1.638-.682-4.82,1.033-6.09a1.915,1.915,0,0,1,1.47-.176,23.7,23.7,0,0,0,13.11.046,2.356,2.356,0,0,1,1.972.628c2.052,2.354,1.775,5.023-.633,7.025C554.429,1021.1,552.1,1022.987,550.039,1022.856Z" transform="translate(-112.785 -167.25)"/>
    <path id="Path_728" data-name="Path 728" d="M662.317,886.778c.012,3.635-1.711,4.9-6.656,4.9-3.391,0-5.517-1.794-5.57-4.7-.077-4.24,2.419-7.463,5.711-7.59C658.949,879.27,662.767,883.08,662.317,886.778Z" transform="translate(-190.128 -75.278)"/>
    <path id="Path_729" data-name="Path 729" d="M453.878,891.723c-5.039-.045-6.678-1.252-6.643-4.894.04-4.163,2.863-7.383,6.472-7.383,3.277,0,5.724,3.281,5.641,7.565C459.291,890.026,457.286,891.753,453.878,891.723Z" transform="translate(-48.819 -75.319)"/>
    <path id="Path_730" data-name="Path 730" d="M599.634,1054.017a1.416,1.416,0,0,0-1.03.889c-.291.652-.543,1.323-.871,1.956a9.729,9.729,0,0,1-2.214,2.787c-.117.085-.235.17-.357.251a9.867,9.867,0,0,1-3.475,1.522c-.7.147-1.412.211-2.117.318a1.415,1.415,0,0,0-1.131.756,1.506,1.506,0,0,0,1.428,2.271,13.886,13.886,0,0,0,1.9-.216,12.094,12.094,0,0,0,5.428-2.292,12.639,12.639,0,0,0,3.536-4.49,14.175,14.175,0,0,0,.713-1.772A1.505,1.505,0,0,0,599.634,1054.017Z" transform="translate(-147.043 -196.897)"/>
    <g id="Group_1658-2" data-name="Group 1658" transform="translate(390.235 818.137)">
      <path id="Path_731" data-name="Path 731" d="M511.008,927.486c-.113-.011-.226-.025-.339-.036l.352-.055s-4.071-2.335-16.728-1.269q-1.74.147-3.291.307c-1.74.117-3.476.272-5.2.51-4.529.624-7.517.837-12.872,2.811a7.045,7.045,0,0,1-1.046.3l-2.992.6L463.6,930.6c-.354-.184-3.273-.508-3.639-.628a92.967,92.967,0,0,0-18-3.66,96.138,96.138,0,0,0-17.541-.5c-.463-.03-4.59-.224-4.113,2.48.009.053.022.1.033.151.171,1.361.3,2.731.537,4.079a2.767,2.767,0,0,0,.73,1.174c.556.642,1.36,1.12,1.7,1.866a25.543,25.543,0,0,1,1.3,4.046c.725,2.712,1.321,5.469,2.114,8.156a10.152,10.152,0,0,0,5.163,6.451,23.812,23.812,0,0,0,16.738,1.936,14.436,14.436,0,0,0,10.221-7.918c1.223-2.468,2.232-5.066,3.363-7.591A9.111,9.111,0,0,1,463.585,938a3.636,3.636,0,0,1,6.029,1.44,88.232,88.232,0,0,0,3.655,8.4c1.511,2.91,3.386,5.485,6.329,6.942,6.593,3.264,13.195,3.052,19.847.508,3.444-1.317,5.608-4.013,6.62-7.867.33-1.258.6-2.536.9-3.8.555-2.32,1.073-4.651,1.687-6.951a3.7,3.7,0,0,1,2.036-2.539,1.26,1.26,0,0,0,.614-.834c.252-1.523.425-3.063.623-4.6C512.027,927.917,511.779,927.558,511.008,927.486Z" transform="translate(-420.271 -925.624)" fill="#4dc9ac"/>
      <ellipse id="Ellipse_76" data-name="Ellipse 76" cx="1.833" cy="2.034" rx="1.833" ry="2.034" transform="translate(2.953 2.476) rotate(-1.475)" fill="#fff"/>
      <ellipse id="Ellipse_77" data-name="Ellipse 77" cx="1.833" cy="2.034" rx="1.833" ry="2.034" transform="translate(84.623 2.772) rotate(-1.475)" fill="#fff"/>
    </g>
    <path id="Path_732" data-name="Path 732" d="M506.371,952.435c.39-6.884-5.62-9.394-10.2-9.5-4.692-.107-9.335,4.251-9.378,8.658a10.3,10.3,0,0,0,10.1,10.137C502.464,961.732,506.37,958.133,506.371,952.435Z" transform="translate(-76.373 -119.545)" fill="#a0e0c6"/>
    <path id="Path_733" data-name="Path 733" d="M515.058,972.248a3.882,3.882,0,0,1-4.158-3.911,4.1,4.1,0,0,1,8.2-.393A4.025,4.025,0,0,1,515.058,972.248Z" transform="translate(-93.167 -134.252)"/>
    <path id="Path_734" data-name="Path 734" d="M615.48,961.6a1.33,1.33,0,0,1-.535-.113h0a18.288,18.288,0,0,0-10.585-.714,1.335,1.335,0,0,1-1.531-1.854,17.443,17.443,0,0,1,13.036-9.248,1.335,1.335,0,1,1,.378,2.643,14.733,14.733,0,0,0-9.431,5.37,20.63,20.63,0,0,1,9.208,1.36,1.335,1.335,0,0,1-.539,2.556Z" transform="translate(-157.12 -124.229)" fill="#fff"/>
    <circle id="Ellipse_78" data-name="Ellipse 78" cx="1.727" cy="1.727" r="1.727" transform="translate(421.143 829.509)" fill="#fff"/>
    <circle id="Ellipse_79" data-name="Ellipse 79" cx="23.058" cy="23.058" r="23.058" transform="translate(468.628 777.542)" fill="#e8af42" stroke="#e8af42" stroke-miterlimit="10" stroke-width="13"/>
    <circle id="Ellipse_80" data-name="Ellipse 80" cx="21.238" cy="21.238" r="21.238" transform="translate(470.449 779.362)" fill="none" stroke="#fff" stroke-miterlimit="10" stroke-width="5.645"/>
    <text id="BOO_approved_" data-name="BOO
approved!" transform="translate(490.759 799.123)" fill="#fff" font-size="13" font-family="BebasNeue-Regular, Bebas Neue"><tspan x="-7.826" y="0">BOO</tspan><tspan font-size="8"><tspan x="-13.34" y="8">approved!</tspan></tspan></text>
  </g>
</svg>
