<svg id="Icon-Free_Delivery" data-name="Icon-Free Delivery" xmlns="http://www.w3.org/2000/svg" width="120" height="120" viewBox="0 0 120 120">
  <g id="Group_1630" data-name="Group 1630">
    <circle id="Ellipse_61" data-name="Ellipse 61" cx="56.8" cy="56.8" r="56.8" transform="translate(2.88 3.52)" fill="#91bf47"/>
    <path id="Path_687" data-name="Path 687" d="M817.89,185.178a60,60,0,1,0,60,60A60,60,0,0,0,817.89,185.178Zm0,114.7a54.7,54.7,0,1,1,54.7-54.7A54.7,54.7,0,0,1,817.89,299.879Z" transform="translate(-757.89 -185.178)"/>
    <path id="Path_688" data-name="Path 688" d="M853,363.56h6.08l4.48-5.76,5.12.96,1.92,4.8h29.12l1.92-4.8,3.52-.64,5.12,1.92v3.52h8.32V338.28l-3.84-6.08-6.4-3.2H853Z" transform="translate(-824.256 -284.638)" fill="#db1c24"/>
    <rect id="Rectangle_793" data-name="Rectangle 793" width="44.869" height="30.72" transform="translate(27.657 32.691)" fill="#fff"/>
    <path id="Path_689" data-name="Path 689" d="M916.83,315.927a23.442,23.442,0,0,0-.164-2.692A14.572,14.572,0,0,0,904.5,300.612a35.5,35.5,0,0,0-4.869-.239c-.7,0-1.42,0-2.125-.026-.366-.011-.733-.008-1.137-.005l-.3,0c-.03-1.545-.024-3.082-.018-4.572.006-1.791.013-3.643-.043-5.461l-.01-.31h-49.15l-.049.26c-.283,1.5-.215,41.415,0,48.013l.068.63h6.906a7.43,7.43,0,0,0,14.312,0h25.457a7.429,7.429,0,0,0,14.332-.075l8.6-.01.313,0,.013-.46c.013-.329.043-1.1.044-1.494v-.709C916.839,329.523,916.843,322.668,916.83,315.927Zm-66.123,6.993c.795-.054,1.606-.045,2.395-.036.428,0,.857.009,1.285,0,.962-.01,1.924-.011,2.886-.011l31.713-.044,2.45-.006q1.379,0,2.855,0h1.694l.02-.3c.034-.516.033-.945.032-1.36v-.237q.009-5.941,0-11.882v-1.805H891.92v11.52c-12.618.066-25.4.079-37.766.091l-3.433,0V294.015h41.2v10.4h.32c.261,0,.68,0,1.206-.007,2.728-.02,8.4-.061,10.306.188a10.508,10.508,0,0,1,8.944,9.582c.029.345.063.737.063,1.112q.006,9.324,0,18.647c0,.086,0,.171,0,.258,0,.163,0,.33,0,.512h-3.31l-1.66.012a7.431,7.431,0,0,0-14.226.086h-5.1c-6.846,0-13.926-.005-20.405.021a7.431,7.431,0,0,0-14.238-.088l-3.11-.019Zm13.561,13.986a3.346,3.346,0,1,1-3.346-3.346A3.35,3.35,0,0,1,864.269,336.906Zm36.422-3.346a3.346,3.346,0,1,1-3.346,3.346A3.35,3.35,0,0,1,900.691,333.56Z" transform="translate(-819.931 -258.016)"/>
    <text id="free" transform="translate(39.793 52.477)" fill="#319ce3" font-size="15" font-family="BebasNeue-Regular, Bebas Neue"><tspan x="0" y="0">free</tspan></text>
  </g>
</svg>
