<svg id="Logo-Social" xmlns="http://www.w3.org/2000/svg" width="61" height="61" viewBox="0 0 61 61">
  <circle id="Ellipse_30" data-name="Ellipse 30" cx="30.5" cy="30.5" r="30.5" fill="#9fcd48"/>
  <g id="Group_751" data-name="Group 751" transform="translate(-346.116 -663.974)">
    <path id="Path_345" data-name="Path 345" d="M357.132,694.843c-.027,3.622,1,6.185,2.9,8.147,2.644,2.731,5.983,3.335,8.966,1.357a16.682,16.682,0,0,0,6.934-9.239,6.2,6.2,0,0,0-2.464-7.359,9.8,9.8,0,0,0-10.635-1.05A9.5,9.5,0,0,0,357.132,694.843Zm28.874-9.161a9.531,9.531,0,0,0-6.089,2.122,6.277,6.277,0,0,0-2.4,7.3,17.109,17.109,0,0,0,6.766,9.131,6.453,6.453,0,0,0,8.119-.349,10.154,10.154,0,0,0-6.4-18.2ZM377.413,709.2c1.179.075,2.511-1.006,3.828-2.1a2.6,2.6,0,0,0,.362-4.02,1.351,1.351,0,0,0-1.129-.359,13.556,13.556,0,0,1-7.5-.026,1.091,1.091,0,0,0-.841.1,2.694,2.694,0,0,0-.592,3.485A7.151,7.151,0,0,0,377.413,709.2ZM397.6,683.966a4.1,4.1,0,0,0-3.727-4.227c-1.884.072-3.312,1.916-3.268,4.343.03,1.662,1.246,2.689,3.187,2.689C396.625,686.771,397.611,686.045,397.6,683.966Zm-38.412,2.806c1.95.017,3.1-.971,3.131-2.7.047-2.452-1.353-4.329-3.228-4.329-2.065,0-3.681,1.843-3.7,4.225C355.371,686.055,356.309,686.746,359.192,686.772Z" fill="#fff"/>
    <path id="Path_346" data-name="Path 346" d="M357.132,694.843a9.5,9.5,0,0,1,5.7-8.144,9.8,9.8,0,0,1,10.635,1.05,6.2,6.2,0,0,1,2.464,7.359,16.682,16.682,0,0,1-6.934,9.239c-2.983,1.978-6.322,1.374-8.966-1.357C358.128,701.028,357.105,698.465,357.132,694.843Zm16.332,1.656c.224-3.939-2.995-5.376-5.617-5.436a5.5,5.5,0,0,0-5.366,4.954,5.9,5.9,0,0,0,5.78,5.8C371.449,701.818,373.464,699.759,373.464,696.5Z"/>
    <path id="Path_347" data-name="Path 347" d="M386.006,685.682a10.154,10.154,0,0,1,6.4,18.2,6.453,6.453,0,0,1-8.119.349,17.109,17.109,0,0,1-6.766-9.131,6.277,6.277,0,0,1,2.4-7.3A9.531,9.531,0,0,1,386.006,685.682Zm-1.064,16.125a5.825,5.825,0,0,0,6.005-5.534,5.412,5.412,0,0,0-5.084-5.218c-3.274-.144-5.769,1.968-5.879,4.978C379.856,699.523,381.706,701.678,384.942,701.807Z"/>
    <path id="Path_348" data-name="Path 348" d="M377.413,709.2a7.151,7.151,0,0,1-5.873-2.919,2.694,2.694,0,0,1,.592-3.485,1.091,1.091,0,0,1,.841-.1,13.556,13.556,0,0,0,7.5.026,1.351,1.351,0,0,1,1.129.359,2.6,2.6,0,0,1-.362,4.02C379.924,708.2,378.592,709.278,377.413,709.2Z"/>
    <path id="Path_349" data-name="Path 349" d="M397.6,683.966c.007,2.079-.979,2.8-3.808,2.8-1.941,0-3.157-1.027-3.187-2.689-.044-2.427,1.384-4.271,3.268-4.343A4.1,4.1,0,0,1,397.6,683.966Z"/>
    <path id="Path_350" data-name="Path 350" d="M359.192,686.772c-2.883-.026-3.821-.717-3.8-2.8.023-2.382,1.639-4.225,3.7-4.225,1.875,0,3.275,1.877,3.228,4.329C362.289,685.8,361.142,686.789,359.192,686.772Z"/>
    <path id="Path_351" data-name="Path 351" d="M368.823,699.127a2.22,2.22,0,0,1-2.379-2.237,2.347,2.347,0,0,1,4.689-.225A2.3,2.3,0,0,1,368.823,699.127Z"/>
    <path id="Path_352" data-name="Path 352" d="M384.686,699.122a2.362,2.362,0,0,1-2.368-2.431,2.414,2.414,0,0,1,2.429-2.262,2.442,2.442,0,0,1,2.283,2.42A2.222,2.222,0,0,1,384.686,699.122Z"/>
  </g>
</svg>
