<svg id="Group_1396" data-name="Group 1396" xmlns="http://www.w3.org/2000/svg" width="120" height="127.247" viewBox="0 0 120 127.247">
  <circle id="Ellipse_50" data-name="Ellipse 50" cx="56.883" cy="56.883" r="56.883" transform="translate(2.805 3.428)" fill="#a3d147"/>
  <path id="Path_539" data-name="Path 539" d="M560.766,236.3a60,60,0,1,0,60,60A60,60,0,0,0,560.766,236.3Zm0,114.7a54.7,54.7,0,1,1,54.7-54.7A54.7,54.7,0,0,1,560.766,351Z" transform="translate(-500.766 -236.298)"/>
  <path id="Path_540" data-name="Path 540" d="M524.942,272.16a41.9,41.9,0,0,0-6.4,29.5l.01,0c.123.844.267,1.689.443,2.535a42.074,42.074,0,0,0,64.752,26.248l-3.1-3.293a37.62,37.62,0,0,1-57.292-23.865,40.755,40.755,0,0,1-.844-7.177c0-.077-.005-.154-.006-.231,0-.152,0-.3,0-.456a37.6,37.6,0,0,1,70.86-17.725c-2.21-1.631-4.412-3.259-6.736-4.968l-2.246,3.422a92.75,92.75,0,0,1,10.5,7.832c.5.436.992.885,1.488,1.342.015.055.031.108.046.162.033-.007.063-.022.1-.032.561.521,1.128,1.054,1.723,1.6a6.241,6.241,0,0,0,.361-.676,68.265,68.265,0,0,1,7.585-14.263l.222-.332-3.437-2.255c-1.695,2.911-3.131,5.428-4.668,8.092a42.059,42.059,0,0,0-73.356-5.455Z" transform="translate(-500.093 -235.641)"/>
  <g id="Group_1387" data-name="Group 1387" transform="translate(58.026 82.412)">
    <path id="Path_541" data-name="Path 541" d="M579.583,330.965c.656-.053,1.951-.134,3.243-.264a22.625,22.625,0,0,0,4.255-.866,16.319,16.319,0,0,0,4.651-2.12,6.633,6.633,0,0,0,2.3-2.439,2.781,2.781,0,0,0,.233-2.038,4.486,4.486,0,0,0-1.153-1.905,10.459,10.459,0,0,0-2.7-1.947,18.4,18.4,0,0,0-3.112-1.26,23.219,23.219,0,0,0-3.552-.819c-.951-.144-1.913-.216-2.872-.293a28.562,28.562,0,0,0-6.764.3,33.113,33.113,0,0,0-3.3.758,15.255,15.255,0,0,0-4.233,1.837,7.151,7.151,0,0,0-2.632,2.564,2.9,2.9,0,0,0-.006,2.938,6.453,6.453,0,0,0,1.874,2.049,14.654,14.654,0,0,0,4.112,2.089,24.722,24.722,0,0,0,4.541,1.076A37.127,37.127,0,0,0,579.583,330.965Z" transform="translate(-556.346 -315.568)"/>
    <path id="Path_542" data-name="Path 542" d="M575.055,340.191c.043.053.049.069.06.073a20.459,20.459,0,0,0,3.741.962c1.115.177,2.241.293,3.367.38a28.885,28.885,0,0,0,6.936-.343,23.951,23.951,0,0,0,4.208-1.071,13.807,13.807,0,0,0,4.295-2.341,5.4,5.4,0,0,0,1.658-2.161,2.815,2.815,0,0,0-.257-2.556,6.251,6.251,0,0,0-1.642-1.8,14.687,14.687,0,0,0-3.061-1.762.371.371,0,0,0-.517.117,7.963,7.963,0,0,1-1.833,1.548c-.708.445-1.461.817-2.188,1.231a.445.445,0,0,0-.2.25,5.985,5.985,0,0,1-1.767,2.961,12.824,12.824,0,0,1-3.925,2.5,21.54,21.54,0,0,1-5.078,1.5c-1.086.177-2.181.293-3.272.437Z" transform="translate(-555.898 -315.078)"/>
    <path id="Path_543" data-name="Path 543" d="M593.786,346.376a1.328,1.328,0,0,0-.168.114,12.606,12.606,0,0,1-3.32,2.122,18.732,18.732,0,0,1-3.563,1.243c-1.114.255-2.237.47-3.361.674a11.74,11.74,0,0,1-1.48.154c-1.1.061-2.2.144-3.3.141a27.91,27.91,0,0,1-4.965-.431c-.88-.161-1.758-.349-2.622-.579-.766-.2-1.518-.46-2.265-.725a13.733,13.733,0,0,1-4.468-2.559c-.052-.045-.113-.08-.186-.132-.092.171-.174.317-.25.465a2.541,2.541,0,0,0-.2,1.912,5.042,5.042,0,0,0,1.707,2.407,12.812,12.812,0,0,0,3.453,2.03,19.572,19.572,0,0,0,3.155,1.019c.73.17,1.465.327,2.2.448.676.11,1.361.171,2.043.238a28.64,28.64,0,0,0,4.418.081,23.366,23.366,0,0,0,3.885-.472c1.113-.257,2.236-.49,3.319-.842a13.61,13.61,0,0,0,4.7-2.488,5.371,5.371,0,0,0,1.635-2.151A2.8,2.8,0,0,0,593.786,346.376Z" transform="translate(-556.346 -314.421)"/>
    <path id="Path_544" data-name="Path 544" d="M582.8,334.761l-.014-.08c-.071,0-.142-.005-.212,0-.385.032-.771.074-1.156.1a33.993,33.993,0,0,1-4.813-.013,30.342,30.342,0,0,1-3.9-.547,24.468,24.468,0,0,1-3.547-1.013,14.843,14.843,0,0,1-4.651-2.637,6.887,6.887,0,0,1-1.517-1.823,4.181,4.181,0,0,1-.6-1.854c-.03-.671-.033-1.342-.049-2.012,0-.084-.007-.168-.012-.278a1.7,1.7,0,0,0-.163.068c-.506.3-1.028.584-1.514.916a6.3,6.3,0,0,0-2.126,2.252,2.846,2.846,0,0,0-.345,1.813,4.177,4.177,0,0,0,1.206,2.21,10.173,10.173,0,0,0,2.486,1.839,17.337,17.337,0,0,0,4.016,1.579,30.711,30.711,0,0,0,3.255.651,28.269,28.269,0,0,0,3.2.294c1.188.038,2.38.013,3.567-.062a27.79,27.79,0,0,0,2.971-.372c.839-.144,1.663-.371,2.488-.584C581.85,335.081,582.32,334.911,582.8,334.761Z" transform="translate(-556.557 -315.269)"/>
    <path id="Path_545" data-name="Path 545" d="M588.2,345.429l-.015-.077c-.07,0-.14,0-.211,0-.823.052-1.645.118-2.468.157a30.5,30.5,0,0,1-6.453-.433,24.242,24.242,0,0,1-3.75-.933,17.617,17.617,0,0,1-3.993-1.848,8.616,8.616,0,0,1-2.63-2.433.844.844,0,0,0-.621-.372c-.7-.126-1.39-.259-2.077-.423-.622-.149-1.232-.346-1.852-.51a.264.264,0,0,0-.233.072,2.716,2.716,0,0,0-.022,2.638,5.619,5.619,0,0,0,1.469,1.8,14.3,14.3,0,0,0,4.8,2.541,21.278,21.278,0,0,0,4.359.994c1.189.135,2.38.249,3.573.313a23.1,23.1,0,0,0,3.956-.145c.745-.088,1.5-.157,2.232-.3.865-.165,1.72-.385,2.573-.607C587.295,345.746,587.743,345.576,588.2,345.429Z" transform="translate(-556.346 -314.726)"/>
    <path id="Path_546" data-name="Path 546" d="M581.33,360.37c.951-.095,1.909-.144,2.851-.293a24.758,24.758,0,0,0,5.745-1.555,13.874,13.874,0,0,0,3.957-2.37,6.549,6.549,0,0,0,1.845-2.513,4.857,4.857,0,0,0,.316-1.733c.005-.81-.008-1.621,0-2.431a4.689,4.689,0,0,0-.816-2.765.491.491,0,0,1,.009-.657,4.844,4.844,0,0,0,.712-1.585.4.4,0,0,1,.192-.233,14.823,14.823,0,0,0,2.983-1.81,6.743,6.743,0,0,0,2.3-3.046c.076-.222.124-.454.185-.682l.026,0a10.247,10.247,0,0,0,0-4.134,5.3,5.3,0,0,0-.974-2.19,9.21,9.21,0,0,0-2.076-1.99,15.69,15.69,0,0,0-2.807-1.547c-.174-.077-.188-.153-.113-.316a4.231,4.231,0,0,0,.375-1.762c0-.9.016-1.8,0-2.693a4.957,4.957,0,0,0-1.008-2.926,10.168,10.168,0,0,0-3.276-2.745,18.011,18.011,0,0,0-3.138-1.371c-.75-.255-1.522-.45-2.292-.642a28.17,28.17,0,0,0-4.316-.681c-.24-.022-.481-.026-.721-.042,0,0-2.938-.1-4.212,0-1.179.1-2.35.217-3.517.42A24.28,24.28,0,0,0,569.9,317a15.091,15.091,0,0,0-5.414,2.949,6.491,6.491,0,0,0-1.777,2.458c-.095.243-.14.506-.229.752a.433.433,0,0,1-.185.233,14.416,14.416,0,0,0-3.019,1.836,6.717,6.717,0,0,0-2.264,3.021c-.077.232-.122.473-.206.709a11.015,11.015,0,0,0,0,4.113,5.7,5.7,0,0,0,.6,1.586,6.849,6.849,0,0,0,1.224,1.561,13.292,13.292,0,0,0,4.015,2.56c.177.078.2.15.126.329a4.657,4.657,0,0,0-.375,1.9c.009.8.012,1.606,0,2.409a4.75,4.75,0,0,0,.828,2.763.384.384,0,0,1,.006.5,4.74,4.74,0,0,0-.834,2.782c.01.752.008,1.5,0,2.256a5.122,5.122,0,0,0,1.084,3.276,9.374,9.374,0,0,0,2.1,1.958,16.606,16.606,0,0,0,4.251,2.065,24.388,24.388,0,0,0,3.64.92,30.375,30.375,0,0,0,3.778.445A27.48,27.48,0,0,0,581.33,360.37Z" transform="translate(-556.616 -315.619)"/>
    <path id="Path_547" data-name="Path 547" d="M575.055,340.191l.524-.072c1.091-.144,2.186-.261,3.272-.437a21.54,21.54,0,0,0,5.078-1.5,12.824,12.824,0,0,0,3.925-2.5,5.985,5.985,0,0,0,1.767-2.961.445.445,0,0,1,.2-.25c.727-.415,1.48-.786,2.188-1.231a7.963,7.963,0,0,0,1.833-1.548.371.371,0,0,1,.517-.117,14.687,14.687,0,0,1,3.061,1.762,6.251,6.251,0,0,1,1.642,1.8,2.815,2.815,0,0,1,.257,2.556,5.4,5.4,0,0,1-1.658,2.161,13.807,13.807,0,0,1-4.295,2.341,23.951,23.951,0,0,1-4.208,1.071,28.885,28.885,0,0,1-6.936.343c-1.126-.087-2.252-.2-3.367-.38a20.459,20.459,0,0,1-3.741-.962C575.1,340.26,575.1,340.244,575.055,340.191Z" transform="translate(-555.898 -315.078)" fill="#23aaf7"/>
    <path id="Path_548" data-name="Path 548" d="M593.786,346.376a2.8,2.8,0,0,1,.379,2.67,5.371,5.371,0,0,1-1.635,2.151,13.61,13.61,0,0,1-4.7,2.488c-1.084.351-2.207.585-3.319.842a23.366,23.366,0,0,1-3.885.472,28.64,28.64,0,0,1-4.418-.081c-.682-.067-1.366-.128-2.043-.238-.74-.12-1.474-.277-2.2-.448a19.572,19.572,0,0,1-3.155-1.019,12.812,12.812,0,0,1-3.453-2.03,5.042,5.042,0,0,1-1.707-2.407,2.541,2.541,0,0,1,.2-1.912c.076-.149.158-.294.25-.465.073.052.134.087.186.132a13.733,13.733,0,0,0,4.468,2.559c.747.265,1.5.523,2.265.725.864.23,1.742.418,2.622.579a27.91,27.91,0,0,0,4.965.431c1.1,0,2.2-.08,3.3-.141a11.74,11.74,0,0,0,1.48-.154c1.124-.2,2.247-.42,3.361-.674a18.732,18.732,0,0,0,3.563-1.243,12.606,12.606,0,0,0,3.32-2.122A1.328,1.328,0,0,1,593.786,346.376Z" transform="translate(-556.346 -314.421)" fill="#23aaf7"/>
    <path id="Path_549" data-name="Path 549" d="M582.8,334.761c-.476.15-.945.32-1.427.446-.825.213-1.65.439-2.488.584a27.79,27.79,0,0,1-2.971.372c-1.187.075-2.379.1-3.567.062a28.269,28.269,0,0,1-3.2-.294,30.711,30.711,0,0,1-3.255-.651,17.337,17.337,0,0,1-4.016-1.579,10.173,10.173,0,0,1-2.486-1.839,4.177,4.177,0,0,1-1.206-2.21,2.846,2.846,0,0,1,.345-1.813,6.3,6.3,0,0,1,2.126-2.252c.486-.332,1.008-.613,1.514-.916a1.7,1.7,0,0,1,.163-.068c.005.11.01.194.012.278.016.67.019,1.341.049,2.012a4.181,4.181,0,0,0,.6,1.854,6.887,6.887,0,0,0,1.517,1.823,14.843,14.843,0,0,0,4.651,2.637,24.468,24.468,0,0,0,3.547,1.013,30.342,30.342,0,0,0,3.9.547,33.993,33.993,0,0,0,4.813.013c.386-.025.771-.066,1.156-.1.07-.005.141,0,.212,0Z" transform="translate(-556.557 -315.269)" fill="#23aaf7"/>
    <path id="Path_550" data-name="Path 550" d="M588.2,345.429c-.453.148-.9.317-1.361.436-.853.221-1.708.442-2.573.607-.737.141-1.487.21-2.232.3a23.1,23.1,0,0,1-3.956.145c-1.193-.063-2.384-.178-3.573-.313a21.278,21.278,0,0,1-4.359-.994,14.3,14.3,0,0,1-4.8-2.541,5.619,5.619,0,0,1-1.469-1.8,2.716,2.716,0,0,1,.022-2.638.264.264,0,0,1,.233-.072c.619.164,1.229.362,1.852.51.687.164,1.382.3,2.077.423a.844.844,0,0,1,.621.372,8.616,8.616,0,0,0,2.63,2.433,17.617,17.617,0,0,0,3.993,1.848,24.242,24.242,0,0,0,3.75.933,30.5,30.5,0,0,0,6.453.433c.823-.038,1.645-.1,2.468-.157.071-.005.141,0,.211,0Z" transform="translate(-556.346 -314.726)" fill="#fff"/>
    <path id="Path_551" data-name="Path 551" d="M579.583,330.965a37.127,37.127,0,0,1-5.114-.338,24.722,24.722,0,0,1-4.541-1.076,14.654,14.654,0,0,1-4.112-2.089,6.453,6.453,0,0,1-1.874-2.049,2.9,2.9,0,0,1,.006-2.938,7.151,7.151,0,0,1,2.632-2.564,15.255,15.255,0,0,1,4.233-1.837,33.113,33.113,0,0,1,3.3-.758,28.562,28.562,0,0,1,6.764-.3c.959.077,1.921.149,2.872.293a23.219,23.219,0,0,1,3.552.819,18.4,18.4,0,0,1,3.112,1.26,10.459,10.459,0,0,1,2.7,1.947,4.486,4.486,0,0,1,1.153,1.905,2.781,2.781,0,0,1-.233,2.038,6.633,6.633,0,0,1-2.3,2.439,16.319,16.319,0,0,1-4.651,2.12,22.625,22.625,0,0,1-4.255.866C581.534,330.831,580.239,330.912,579.583,330.965Z" transform="translate(-556.346 -315.568)" fill="#fff"/>
  </g>
  <g id="Group_1388" data-name="Group 1388" transform="translate(29.926 40.966)">
    <path id="Path_552" data-name="Path 552" d="M545.4,278.268h-1.759v-1.194a4.438,4.438,0,0,0,1.154-.121,1.463,1.463,0,0,0,.7-.406,2.51,2.51,0,0,0,.458-.819h1.133v10.713H545.4Z" transform="translate(-529.022 -275.728)" fill="#fff"/>
    <path id="Path_553" data-name="Path 553" d="M551.793,284.5h-3.215v-1.53l3.061-7.238h1.837v7.238h.8v1.53h-.8v1.944h-1.683Zm0-1.53v-4.178h-.031l-1.653,4.178Z" transform="translate(-528.829 -275.728)" fill="#fff"/>
    <path id="Path_554" data-name="Path 554" d="M557.209,275.728h2.572a2.449,2.449,0,0,1,1.881.673,2.8,2.8,0,0,1,.629,1.974v5.417a2.8,2.8,0,0,1-.629,1.975,2.449,2.449,0,0,1-1.881.673h-2.572Zm2.54,9.181a.815.815,0,0,0,.636-.244,1.171,1.171,0,0,0,.221-.8V278.3a1.169,1.169,0,0,0-.221-.8.815.815,0,0,0-.636-.245h-.857v7.651Z" transform="translate(-528.493 -275.728)" fill="#fff"/>
    <path id="Path_555" data-name="Path 555" d="M564.505,275.728h2.282l1.743,10.713h-1.683l-.307-2.128v.031h-1.912l-.307,2.1h-1.56Zm1.837,7.163-.75-5.3h-.03l-.734,5.3Z" transform="translate(-528.277 -275.728)" fill="#fff"/>
    <path id="Path_556" data-name="Path 556" d="M570.659,281.88l-2.035-6.152h1.79l1.148,3.934h.03l1.148-3.934h1.637l-2.035,6.152v4.561h-1.683Z" transform="translate(-528.049 -275.728)" fill="#fff"/>
    <path id="Path_557" data-name="Path 557" d="M529.57,288.028h2.4l1.071,7.667h.03l1.072-7.667h2.4V298.74h-1.592v-8.11h-.03l-1.224,8.11h-1.409l-1.224-8.11h-.031v8.11H529.57Z" transform="translate(-529.57 -275.249)" fill="#fff"/>
    <path id="Path_558" data-name="Path 558" d="M538.035,298.195a2.8,2.8,0,0,1-.658-1.989v-5.632a2.8,2.8,0,0,1,.658-1.99,2.912,2.912,0,0,1,3.8,0,2.8,2.8,0,0,1,.658,1.99v5.632a2.8,2.8,0,0,1-.658,1.989,2.908,2.908,0,0,1-3.8,0Zm2.77-1.882v-5.846q0-1.057-.872-1.056t-.873,1.056v5.846q0,1.055.873,1.056T540.8,296.313Z" transform="translate(-529.266 -275.254)" fill="#fff"/>
    <path id="Path_559" data-name="Path 559" d="M543.386,288.028H545.5l1.637,6.412h.03v-6.412h1.5V298.74h-1.729l-2.021-7.819h-.031v7.819h-1.5Z" transform="translate(-529.032 -275.249)" fill="#fff"/>
    <path id="Path_560" data-name="Path 560" d="M549.675,288.028h4.591v1.53h-2.908v2.831h2.312v1.53h-2.312v3.29h2.908v1.529h-4.591Z" transform="translate(-528.787 -275.249)" fill="#fff"/>
    <path id="Path_561" data-name="Path 561" d="M556.586,294.18l-2.035-6.152h1.789l1.149,3.932h.03l1.148-3.932H560.3l-2.035,6.152v4.56h-1.683Z" transform="translate(-528.597 -275.249)" fill="#fff"/>
    <path id="Path_562" data-name="Path 562" d="M560.59,292.447h3.366v1.529H560.59Z" transform="translate(-528.361 -275.077)" fill="#fff"/>
    <path id="Path_563" data-name="Path 563" d="M564.8,288.028h2.54a2.153,2.153,0,0,1,2.495,2.463v.429a2.953,2.953,0,0,1-.267,1.346,1.571,1.571,0,0,1-.819.75v.03q1.253.429,1.254,2.235v.918a2.554,2.554,0,0,1-.65,1.889,2.583,2.583,0,0,1-1.9.65H564.8Zm2.342,4.362a1.01,1.01,0,0,0,.757-.26,1.23,1.23,0,0,0,.251-.873v-.6a1.358,1.358,0,0,0-.206-.843.782.782,0,0,0-.65-.26h-.811v2.831Zm.307,4.821a.838.838,0,0,0,.656-.238,1.219,1.219,0,0,0,.214-.819v-.933a1.559,1.559,0,0,0-.252-1.018,1.07,1.07,0,0,0-.833-.283h-.751v3.29Z" transform="translate(-528.197 -275.249)" fill="#fff"/>
    <path id="Path_564" data-name="Path 564" d="M572.069,288.028h2.28l1.744,10.712h-1.683l-.307-2.127v.03h-1.913l-.307,2.1h-1.56Zm1.836,7.162-.749-5.295h-.03l-.736,5.295Z" transform="translate(-527.982 -275.249)" fill="#fff"/>
    <path id="Path_565" data-name="Path 565" d="M577.191,298.21a2.761,2.761,0,0,1-.635-1.944v-5.754a2.761,2.761,0,0,1,.635-1.944,2.816,2.816,0,0,1,3.688,0,2.765,2.765,0,0,1,.635,1.944v1.132h-1.592v-1.239q0-.994-.843-.994t-.841.994v5.983q0,.98.841.98t.843-.98v-1.637h1.592v1.515a2.765,2.765,0,0,1-.635,1.944,2.813,2.813,0,0,1-3.688,0Z" transform="translate(-527.739 -275.254)" fill="#fff"/>
    <path id="Path_566" data-name="Path 566" d="M582.3,288.028h1.683v4.514l2.142-4.514h1.684L585.8,291.96l2.035,6.779h-1.76l-1.423-4.774-.673,1.362v3.412H582.3Z" transform="translate(-527.516 -275.249)" fill="#fff"/>
    <path id="Path_567" data-name="Path 567" d="M533.623,310.5a2.844,2.844,0,0,1-.643-2v-5.631a2.839,2.839,0,0,1,.643-2,2.847,2.847,0,0,1,3.733,0,2.834,2.834,0,0,1,.644,2v.918h-1.593v-1.025q0-1.055-.872-1.056t-.872,1.056v5.862q0,1.041.872,1.041t.872-1.041v-2.1h-.841V305H538v3.5a2.84,2.84,0,0,1-.644,2,2.85,2.85,0,0,1-3.733,0Z" transform="translate(-529.437 -274.775)" fill="#fff"/>
    <path id="Path_568" data-name="Path 568" d="M539.441,310.5a2.84,2.84,0,0,1-.643-2v-8.171h1.683v8.3a1.16,1.16,0,0,0,.222.795.941.941,0,0,0,1.27,0,1.167,1.167,0,0,0,.221-.795v-8.3h1.623V308.5a2.844,2.844,0,0,1-.642,2,2.852,2.852,0,0,1-3.734,0Z" transform="translate(-529.21 -274.77)" fill="#fff"/>
    <path id="Path_569" data-name="Path 569" d="M546.094,300.327h2.282l1.743,10.713h-1.683l-.307-2.127v.03h-1.913l-.305,2.1h-1.561Zm1.837,7.163-.75-5.3h-.03l-.735,5.3Z" transform="translate(-528.994 -274.77)" fill="#fff"/>
    <path id="Path_570" data-name="Path 570" d="M550.684,300.327h2.495a2.152,2.152,0,0,1,2.493,2.464v.658q0,1.668-1.1,2.111v.032a1.315,1.315,0,0,1,.865.749,3.793,3.793,0,0,1,.251,1.515v1.883a7.033,7.033,0,0,0,.031.742,1.89,1.89,0,0,0,.153.559h-1.714a2.56,2.56,0,0,1-.123-.49,7.55,7.55,0,0,1-.03-.826v-1.96a1.664,1.664,0,0,0-.237-1.024,1,1,0,0,0-.819-.291h-.582v4.591h-1.683Zm2.3,4.591a1.007,1.007,0,0,0,.756-.26,1.23,1.23,0,0,0,.252-.873v-.827a1.361,1.361,0,0,0-.206-.841.782.782,0,0,0-.65-.261h-.766v3.061Z" transform="translate(-528.747 -274.77)" fill="#fff"/>
    <path id="Path_571" data-name="Path 571" d="M557.936,300.327h2.281l1.744,10.713h-1.683l-.307-2.127v.03h-1.913l-.307,2.1h-1.56Zm1.837,7.163-.75-5.3h-.03l-.734,5.3Z" transform="translate(-528.533 -274.77)" fill="#fff"/>
    <path id="Path_572" data-name="Path 572" d="M562.525,300.327h2.113l1.637,6.412h.03v-6.412h1.5V311.04h-1.729l-2.02-7.82h-.031v7.82h-1.5Z" transform="translate(-528.286 -274.77)" fill="#fff"/>
    <path id="Path_573" data-name="Path 573" d="M570.147,301.857h-1.759v-1.53h5.2v1.53h-1.76v9.182h-1.684Z" transform="translate(-528.058 -274.77)" fill="#fff"/>
    <path id="Path_574" data-name="Path 574" d="M574.176,300.327h4.591v1.53h-2.908v2.831h2.312v1.53h-2.312v3.29h2.908v1.53h-4.591Z" transform="translate(-527.832 -274.77)" fill="#fff"/>
    <path id="Path_575" data-name="Path 575" d="M579.522,300.327h4.591v1.53h-2.907v2.831h2.311v1.53h-2.311v3.29h2.907v1.53h-4.591Z" transform="translate(-527.624 -274.77)" fill="#fff"/>
  </g>
</svg>
