<?xml version="1.0" encoding="UTF-8" standalone="no"?>
<!DOCTYPE svg PUBLIC "-//W3C//DTD SVG 1.1//EN" "http://www.w3.org/Graphics/SVG/1.1/DTD/svg11.dtd">
<svg>
<metadata>
Created by FontForge 20120731 at Sat Jun 29 13:22:11 2019
 By www
Copyright (c) 2013 by Lucas Sharp. All rights reserved.
</metadata>
<defs>
<font id="SharpSansNo1-Semibold" horiz-adv-x="588">
  <font-face font-family="Sharp Sans No1 Semibold" font-weight="600" font-stretch="normal" units-per-em="1000" panose-1="0 0 0 0 0 0 0 0 0 0" ascent="750" descent="-250" x-height="500" cap-height="730" bbox="-75 -261 1381.02 1092" underline-thickness="50" underline-position="-100" unicode-range="U+0020-F60B"/>
<missing-glyph horiz-adv-x="900" d="M85 0v730h730v-730h-730zM450 331l-283 -283h566zM167 682l283 -283l283 283h-566zM484 365l283 -283v566zM416 365l-283 283v-566z"/>
    <glyph glyph-name="interrobang" unicode="!?" horiz-adv-x="531" d="M217 189q-8 220 -8 424v28q-56 -17 -84 -84l-99 37q23 65 83.5 105.5t146.5 40.5q103 0 167.5 -54.5t64.5 -142.5q0 -52 -20 -88t-48 -56.5t-56 -42.5t-48 -61t-20 -96v-10h-79zM202 0v137h108v-137h-108zM379 544q0 33 -20 59t-54 37v-27q0 -84 -7 -208q7 8 28 29 t28.5 31.5t16 32t8.5 46.5z"/>
    <glyph glyph-name="interrobangdown" unicode="¡¿" horiz-adv-x="531" d="M277 -240q-103 0 -167.5 54.5t-64.5 142.5q0 52 20 88t48 57t56 42.5t48 60.5t20 96v11h79q8 -222 8 -425v-28q56 17 84 84l99 -37q-23 -65 -83.5 -105.5t-146.5 -40.5zM331 500v-137h-108v137h108zM154 -44q0 -33 19.5 -59t54.5 -37v27q0 102 6 207q-7 -8 -27.5 -28.5 t-28 -31t-16 -32t-8.5 -46.5z"/>
    <glyph glyph-name=".notdef" horiz-adv-x="900" d="M85 0v730h730v-730h-730zM450 331l-283 -283h566zM167 682l283 -283l283 283h-566zM484 365l283 -283v566zM416 365l-283 283v-566z"/>
    <glyph glyph-name=".null" horiz-adv-x="0"/>
    <glyph glyph-name="nonmarkingreturn" horiz-adv-x="333"/>
    <glyph glyph-name="space" unicode=" " horiz-adv-x="248"/>
    <glyph glyph-name="exclam" unicode="!" horiz-adv-x="224" d="M83 193q-24 185 -24 420v117h107v-117q0 -235 -24 -420h-59zM59 0v137h107v-137h-107z"/>
    <glyph glyph-name="quotedbl" unicode="&quot;" horiz-adv-x="313" d="M75 500q-28 88 -28 146v84h88v-84q0 -26 -10.5 -74t-18.5 -72h-31zM207 500q-28 88 -28 146v84h88v-84q0 -26 -10.5 -74t-18.5 -72h-31z"/>
    <glyph glyph-name="numbersign" unicode="#" horiz-adv-x="817" d="M501 0v171h-189v-171h-108v171h-169v104h169v189h-169v104h169v162h108v-162h189v162h109v-162h172v-104h-172v-189h172v-104h-172v-171h-109zM312 464v-189h189v189h-189z"/>
    <glyph glyph-name="dollar" unicode="$" d="M556 209q0 -78 -55 -139t-147 -76v-114h-108v114q-132 17 -222 122l93 78q49 -77 131 -96v245q-41 13 -71 27t-61 37t-47.5 57t-16.5 77q0 76 53 130t141 66v103h108v-105q110 -17 185 -104l-89 -67q-36 55 -98 73v-217q43 -14 73.5 -28.5t63.5 -39t50 -60.5t17 -83z M446 209q0 66 -94 101v-213q44 12 69 42t25 70zM161 544q0 -33 22.5 -54t64.5 -37v187q-41 -9 -64 -34.5t-23 -61.5z"/>
    <glyph glyph-name="percent" unicode="%" horiz-adv-x="840" d="M135 566q0 -35 24 -59.5t58 -24.5t58 24.5t24 59.5t-24 59.5t-58 24.5t-58 -24.5t-24 -59.5zM455 164q0 72 50.5 123t123.5 51q72 0 123 -51t51 -123q0 -73 -51 -124t-123 -51q-73 0 -123.5 51t-50.5 124zM41 0l627 730h137l-627 -730h-137zM547 164q0 -35 24 -59.5 t58 -24.5t58 24.5t24 59.5q0 34 -24 58.5t-58 24.5t-58 -24.5t-24 -58.5zM43 566q0 73 51 123.5t123 50.5t123 -50.5t51 -123.5q0 -72 -51 -123t-123 -51t-123 51t-51 123z"/>
    <glyph glyph-name="ampersand" unicode="&amp;" horiz-adv-x="754" d="M588 0l-63 63q-97 -74 -206 -74q-75 0 -132.5 21t-89.5 56.5t-48 76t-16 84.5q0 69 35 123t95 88q-38 59 -38 123q0 76 55.5 127.5t143.5 51.5q141 0 197 -116l-100 -45q-30 65 -95 65q-39 0 -63.5 -24t-24.5 -59q0 -42 22.5 -73.5t98.5 -108.5l174 -175q55 73 71 161 h-121v102h228v-48q0 -69 -29.5 -144t-80.5 -138l135 -137h-148zM318 85q74 0 138 45l-186 188l-45 45q-84 -49 -84 -135q0 -58 46.5 -100.5t130.5 -42.5z"/>
    <glyph glyph-name="quotesingle" unicode="'" horiz-adv-x="181" d="M106 500h-31q-28 88 -28 146v84h88v-84q0 -26 -10.5 -74t-18.5 -72z"/>
    <glyph glyph-name="parenleft" unicode="(" horiz-adv-x="409" d="M313 -251q-278 191 -278 501q0 165 71 283.5t200 212.5l73 -80q-230 -159 -230 -415q0 -262 233 -414z"/>
    <glyph glyph-name="parenright" unicode=")" horiz-adv-x="409" d="M260 249q0 258 -230 415l73 81q128 -94 199.5 -213t71.5 -283q0 -310 -278 -501l-69 87q233 153 233 414z"/>
    <glyph glyph-name="asterisk" unicode="*" horiz-adv-x="420" d="M338 425l-102 84l21 -132h-94l20 132l-104 -84l-46 82l124 47l-124 49l48 81l103 -85l-21 132h94l-21 -132l104 84l47 -82l-126 -47l126 -48z"/>
    <glyph glyph-name="plus" unicode="+" horiz-adv-x="457" d="M44 319v92h140v138h90v-138h140v-92h-140v-140h-90v140h-140z"/>
    <glyph glyph-name="comma" unicode="," horiz-adv-x="205" d="M25 -117l38 204h102l-66 -204h-74z"/>
    <glyph glyph-name="hyphen" unicode="-" horiz-adv-x="457" d="M44 206v93h370v-93h-370z"/>
    <glyph glyph-name="period" unicode="." horiz-adv-x="205" d="M49 0v137h107v-137h-107z"/>
    <glyph glyph-name="slash" unicode="/" horiz-adv-x="497" d="M19 0l346 730h115l-346 -730h-115z"/>
    <glyph glyph-name="zero" unicode="0" d="M293 95q64 0 98.5 36.5t34.5 96.5v269q0 65 -34 102t-97 37q-64 0 -98.5 -38t-34.5 -101v-268q0 -62 33.5 -98t97.5 -36zM294 -10q-115 0 -177.5 64t-62.5 171v274q0 104 67 172.5t173 68.5q108 0 174.5 -68.5t66.5 -171.5v-275q0 -108 -64 -171.5t-177 -63.5z"/>
    <glyph glyph-name="one" unicode="1" d="M44 0v104h195v445q-16 -23 -50 -37.5t-69 -14.5h-11v113h5q66 0 97.5 37t31.5 83h104v-626h198v-104h-501z"/>
    <glyph glyph-name="two" unicode="2" d="M53 0v104q0 43 16.5 80.5t51 71.5t62.5 55.5t75 52.5l27 18t28 19l24.5 17.5t24 19t19.5 18t18 20t12 19t9.5 21t2.5 21.5q0 48 -34.5 78t-95.5 30q-103 0 -156 -105l-94 48q35 70 99.5 111t149.5 41q109 0 175.5 -58.5t66.5 -145.5q0 -33 -13 -64t-29 -52.5t-48 -48.5 t-51.5 -40.5t-59.5 -39.5q-45 -29 -65.5 -44t-50 -40.5t-42 -50t-12.5 -52.5h376v-104h-486z"/>
    <glyph glyph-name="three" unicode="3" d="M293 -10q-89 0 -151.5 29.5t-110.5 92.5l91 69q62 -92 171 -92q64 0 104.5 34t40.5 87q0 52 -39 83.5t-104 31.5h-84v101h83q63 0 98 31t35 81q0 46 -36 76.5t-99 30.5q-108 0 -158 -86l-92 53q37 60 102.5 94t148.5 34q109 0 174.5 -55.5t65.5 -143.5q0 -110 -94 -163 q107 -52 107 -170q0 -95 -68 -156.5t-185 -61.5z"/>
    <glyph glyph-name="four" unicode="4" d="M350 0v158h-309v100l300 472h115v-473h91v-99h-91v-158h-106zM156 257h194v306z"/>
    <glyph glyph-name="five" unicode="5" d="M295 -10q-90 0 -155.5 37t-99.5 100l104 62q45 -98 152 -98q61 0 102.5 41.5t41.5 107.5q0 68 -42.5 110t-105.5 42q-91 0 -141 -74l-101 45l54 367h405v-102h-317l-28 -179q58 42 138 42q105 0 176.5 -65t71.5 -187q0 -109 -71.5 -179t-183.5 -70z"/>
    <glyph glyph-name="six" unicode="6" d="M295 -10q-111 0 -183.5 71.5t-72.5 176.5q0 96 54 175l202 317h129l-163 -251q30 7 53 7q100 0 168 -70.5t68 -177.5t-73 -177.5t-182 -70.5zM293 89q62 0 106 44.5t44 106.5t-44 106.5t-106 44.5q-61 0 -104.5 -44.5t-43.5 -106.5t43.5 -106.5t104.5 -44.5z"/>
    <glyph glyph-name="seven" unicode="7" d="M133 0l295 626h-384v104h501v-94l-296 -636h-116z"/>
    <glyph glyph-name="eight" unicode="8" d="M294 -10q-121 0 -187 60.5t-66 162.5q0 114 101 175q-78 54 -78 151q0 90 63.5 145.5t168.5 55.5q103 0 167.5 -56t64.5 -145q0 -95 -82 -151q102 -62 102 -175q0 -101 -68 -162t-186 -61zM294 87q70 0 110 36t40 90t-39 89.5t-110 35.5q-70 0 -110 -36t-40 -89 q0 -54 39 -90t110 -36zM295 431q64 0 98.5 30t34.5 78q0 46 -35 77t-96 31q-62 0 -97.5 -31t-35.5 -77q0 -48 33.5 -78t97.5 -30z"/>
    <glyph glyph-name="nine" unicode="9" d="M294 0h-129l162 250q-25 -6 -53 -6q-99 0 -167 70.5t-68 177.5t73 177.5t182 70.5q110 0 183 -71.5t73 -175.5q0 -96 -55 -176zM296 340q61 0 104.5 44.5t43.5 106.5t-43.5 106.5t-104.5 44.5q-62 0 -106.5 -44.5t-44.5 -106.5t44.5 -106.5t106.5 -44.5z"/>
    <glyph glyph-name="colon" unicode=":" horiz-adv-x="204" d="M49 0v137h107v-137h-107zM49 363v137h107v-137h-107z"/>
    <glyph glyph-name="semicolon" unicode=";" horiz-adv-x="205" d="M49 363v137h107v-137h-107zM25 -117l38 204h102l-66 -204h-74z"/>
    <glyph glyph-name="less" unicode="&lt;" horiz-adv-x="457" d="M414 181l-370 138v92l370 136v-95l-257 -87l257 -89v-95z"/>
    <glyph glyph-name="equal" unicode="=" horiz-adv-x="457" d="M44 400v92h370v-92h-370zM44 235v92h370v-92h-370z"/>
    <glyph glyph-name="greater" unicode="&gt;" horiz-adv-x="457" d="M44 181v95l256 89l-256 87v95l370 -136v-92z"/>
    <glyph glyph-name="question" unicode="?" horiz-adv-x="531" d="M201 189v10q0 58 13 102t33 68t42.5 45.5t42.5 36.5t33 39t13 54q0 44 -32.5 73t-83.5 29q-87 0 -124 -89l-99 37q24 66 82 106t143 40q98 0 161 -54.5t63 -142.5q0 -44 -14 -77.5t-35 -52t-46 -39t-46 -40t-35 -54.5t-14 -81v-10h-97zM196 0v137h107v-137h-107z"/>
    <glyph glyph-name="at" unicode="@" horiz-adv-x="816" d="M408 -125q-155 0 -264 109.5t-109 265.5q0 155 110.5 265t265.5 110q162 0 266 -101t104 -236q0 -89 -44 -149t-120 -60q-82 0 -117 55q-42 -56 -128 -56q-67 0 -115.5 49.5t-40.5 131.5q10 85 63.5 132t116.5 47q68 0 104 -43l3 37h93l-20 -181q-9 -82 48 -82 q31 0 49 32.5t18 85.5q0 99 -78.5 174.5t-201.5 75.5q-118 0 -201 -84t-83 -203t81.5 -203t199.5 -84q123 0 207 89l68 -57q-50 -54 -122 -87t-153 -33zM392 164q39 0 65 28t30 68q5 39 -16.5 67t-59.5 28t-67.5 -26.5t-32.5 -67.5q-5 -40 18.5 -68.5t62.5 -28.5z"/>
    <glyph glyph-name="A" unicode="A" horiz-adv-x="696" d="M24 0l268 730h112l268 -730h-113l-57 156h-308l-56 -156h-114zM348 580l-116 -320h232z"/>
    <glyph glyph-name="B" unicode="B" horiz-adv-x="601" d="M56 0v730h247q112 0 176 -53t64 -146q0 -101 -86 -149q109 -47 109 -171q0 -100 -66.5 -155.5t-179.5 -55.5h-264zM315 325h-150v-225h155q64 0 100.5 30.5t36.5 82.5q0 112 -142 112zM303 631h-138v-205h142q63 0 95 28.5t32 76.5t-33.5 74t-97.5 26z"/>
    <glyph glyph-name="C" unicode="C" horiz-adv-x="761" d="M410 -10q-160 0 -267.5 109t-107.5 266q0 159 109 267t266 108q102 0 187.5 -50t135.5 -134l-95 -59q-35 65 -93.5 101.5t-134.5 36.5q-113 0 -189.5 -78.5t-76.5 -191.5q0 -112 76.5 -190t188.5 -78q82 0 142.5 40.5t93.5 109.5l98 -52q-48 -94 -136 -149.5t-197 -55.5z "/>
    <glyph glyph-name="D" unicode="D" horiz-adv-x="676" d="M56 0v730h202q174 0 278.5 -103t104.5 -262q0 -157 -107.5 -261t-271.5 -104h-206zM247 630h-82v-529h86q124 0 202 75t78 189q0 118 -75 191.5t-209 73.5z"/>
    <glyph glyph-name="E" unicode="E" horiz-adv-x="540" d="M56 0v730h438v-103h-329v-209h329v-103h-329v-211h329v-104h-438z"/>
    <glyph glyph-name="F" unicode="F" horiz-adv-x="517" d="M56 0v730h413v-103h-304v-209h304v-103h-304v-315h-109z"/>
    <glyph glyph-name="G" unicode="G" horiz-adv-x="811" d="M414 -10q-163 0 -271 110t-108 265q0 158 107.5 266.5t270.5 108.5q107 0 193.5 -51t134.5 -137l-95 -57q-36 67 -95.5 104t-137.5 37q-117 0 -193 -79t-76 -192t77 -191.5t193 -78.5q101 0 165.5 55.5t82.5 146.5h-262v103h376v-39q0 -155 -99 -263t-263 -108z"/>
    <glyph glyph-name="H" unicode="H" horiz-adv-x="659" d="M495 0v315h-330v-315h-109v730h109v-311h330v311h108v-730h-108z"/>
    <glyph glyph-name="I" unicode="I" horiz-adv-x="235" d="M63 0v730h109v-730h-109z"/>
    <glyph glyph-name="J" unicode="J" horiz-adv-x="486" d="M233 -10q-75 0 -130.5 37t-76.5 99l104 45q12 -36 38.5 -58t62.5 -22q44 0 68.5 30t24.5 80v529h108v-522q0 -103 -53 -160.5t-146 -57.5z"/>
    <glyph glyph-name="K" unicode="K" horiz-adv-x="631" d="M490 0l-219 367l-106 -127v-240h-109v730h109v-348l290 348h133l-240 -288l266 -442h-124z"/>
    <glyph glyph-name="L" unicode="L" horiz-adv-x="506" d="M56 0v730h109v-626h295v-104h-404z"/>
    <glyph glyph-name="M" unicode="M" horiz-adv-x="827" d="M56 0v730h108l248 -343l256 343h103v-730h-108v556l-253 -341l-245 333v-548h-109z"/>
    <glyph glyph-name="N" unicode="N" horiz-adv-x="713" d="M56 0v730h123l370 -552v552h108v-730h-115l-377 561v-561h-109z"/>
    <glyph glyph-name="O" unicode="O" horiz-adv-x="819" d="M409 -10q-155 0 -264.5 110t-109.5 265t109.5 265t264.5 110q156 0 265.5 -110t109.5 -265t-109.5 -265t-265.5 -110zM409 96q112 0 189 78.5t77 190.5t-77 191t-189 79q-111 0 -188 -79t-77 -191t77 -190.5t188 -78.5z"/>
    <glyph glyph-name="P" unicode="P" horiz-adv-x="599" d="M56 0v730h240q115 0 189.5 -73.5t74.5 -182.5t-74.5 -182.5t-190.5 -73.5h-130v-218h-109zM288 630h-123v-311h123q74 0 118.5 44t44.5 111t-44.5 111.5t-118.5 44.5z"/>
    <glyph glyph-name="Q" unicode="Q" horiz-adv-x="819" d="M649 0l-267 339h131l107 -135q55 73 55 161q0 112 -77 191t-189 79q-111 0 -188 -79t-77 -191t77 -190.5t188 -78.5q51 0 97 19l68 -86q-78 -39 -165 -39q-155 0 -264.5 110t-109.5 265t109.5 265t264.5 110q156 0 265.5 -110t109.5 -265q0 -138 -94 -247l94 -118h-135z "/>
    <glyph glyph-name="R" unicode="R" horiz-adv-x="584" d="M56 0v730h227q114 0 186 -68t72 -170q0 -76 -41.5 -137t-116.5 -84l174 -271h-125l-220 348h59q76 0 118.5 44t42.5 100q0 63 -41 100t-119 37h-107v-629h-109z"/>
    <glyph glyph-name="S" unicode="S" horiz-adv-x="563" d="M285 -10q-169 0 -272 133l96 75q66 -106 175 -106q59 0 95.5 33.5t36.5 83.5q0 22 -10.5 40t-22 29t-38.5 23t-42 17.5t-51 16.5q-37 12 -60.5 21t-54 26.5t-48 37.5t-30.5 51t-13 70q0 84 67 141.5t167 57.5q143 0 236 -108l-89 -66q-50 78 -147 78q-55 0 -88.5 -28.5 t-33.5 -72.5q0 -20 10 -37t21 -27t39 -22.5t40.5 -17t50.5 -17.5q47 -16 76.5 -29.5t64 -38t51.5 -61t17 -84.5q0 -88 -67 -153.5t-176 -65.5z"/>
    <glyph glyph-name="T" unicode="T" horiz-adv-x="593" d="M243 0v628h-207v102h522v-102h-207v-628h-108z"/>
    <glyph glyph-name="U" unicode="U" horiz-adv-x="620" d="M310 -10q-113 0 -184.5 70t-71.5 186v484h109v-491q0 -61 42 -104t104 -43q63 0 106 43t43 104v491h108v-484q0 -116 -72 -186t-184 -70z"/>
    <glyph glyph-name="V" unicode="V" horiz-adv-x="668" d="M279 0l-255 730h113l197 -569l197 569h113l-255 -730h-110z"/>
    <glyph glyph-name="W" unicode="W" horiz-adv-x="1045" d="M235 0l-210 730h114l155 -559l176 559h106l175 -560l159 560h110l-215 -730h-108l-175 561l-176 -561h-111z"/>
    <glyph glyph-name="X" unicode="X" horiz-adv-x="642" d="M499 0l-178 280l-177 -280h-122l235 371l-225 359h122l168 -264l167 264h122l-226 -356l236 -374h-122z"/>
    <glyph glyph-name="Y" unicode="Y" horiz-adv-x="624" d="M258 0v346l-237 384h120l171 -280l172 280h120l-238 -385v-345h-108z"/>
    <glyph glyph-name="Z" unicode="Z" horiz-adv-x="578" d="M48 0v100l355 527h-344v103h472v-99l-356 -527h356v-104h-483z"/>
    <glyph glyph-name="bracketleft" unicode="[" horiz-adv-x="360" d="M44 -230v960h273v-103h-165v-754h165v-103h-273z"/>
    <glyph glyph-name="backslash" unicode="\" horiz-adv-x="497" d="M365 0l-346 730h115l346 -730h-115z"/>
    <glyph glyph-name="bracketright" unicode="]" horiz-adv-x="360" d="M44 -230v103h164v754h-164v103h273v-960h-273z"/>
    <glyph glyph-name="asciicircum" unicode="^" horiz-adv-x="485" d="M85 541l120 169h74l121 -169h-91l-67 96l-65 -96h-92z"/>
    <glyph glyph-name="underscore" unicode="_" horiz-adv-x="507" d="M44 -102v92h420v-92h-420z"/>
    <glyph glyph-name="grave" unicode="`" horiz-adv-x="485" d="M266 554l-148 166h114l116 -166h-82z"/>
    <glyph glyph-name="a" unicode="a" horiz-adv-x="608" d="M283 -10q-100 0 -174.5 72.5t-74.5 187.5q0 116 74 188t176 72q49 0 93.5 -20t72.5 -55v65h107v-500h-107v69q-29 -37 -73.5 -58t-93.5 -21zM298 88q68 0 113 47.5t45 115.5t-45 115t-113 47q-67 0 -112.5 -47t-45.5 -115t45.5 -115.5t112.5 -47.5z"/>
    <glyph glyph-name="b" unicode="b" horiz-adv-x="605" d="M325 -10q-51 0 -95.5 20.5t-72.5 57.5v-68h-105v730h106v-297q28 36 72 56.5t94 20.5q102 0 175.5 -72t73.5 -188q0 -115 -74 -187.5t-174 -72.5zM309 88q67 0 112.5 47.5t45.5 115.5t-45.5 115t-112.5 47t-112 -47.5t-45 -114.5q0 -68 45 -115.5t112 -47.5z"/>
    <glyph glyph-name="c" unicode="c" horiz-adv-x="561" d="M295 -10q-110 0 -185.5 75.5t-75.5 184.5q0 110 75.5 185t185.5 75q82 0 145 -42t92 -111l-96 -41q-19 44 -56 69t-85 25q-66 0 -111 -46.5t-45 -113.5t45.5 -113.5t112.5 -46.5q49 0 86 27t55 71l97 -41q-31 -72 -93 -114.5t-147 -42.5z"/>
    <glyph glyph-name="d" unicode="d" horiz-adv-x="607" d="M283 -10q-100 0 -174.5 72.5t-74.5 187.5q0 116 74 188t176 72q49 0 93.5 -20t72.5 -55v295h106v-730h-106v69q-29 -37 -73.5 -58t-93.5 -21zM298 88q68 0 113 47.5t45 115.5t-45 115t-113 47q-67 0 -112.5 -47t-45.5 -115t45.5 -115.5t112.5 -47.5z"/>
    <glyph glyph-name="e" unicode="e" horiz-adv-x="586" d="M298 -10q-117 0 -190.5 74t-73.5 184t75 186t185 76q111 0 184 -72t73 -183v-42h-414q11 -58 53.5 -93t107.5 -35q50 0 88 24t58 66l88 -49q-73 -136 -234 -136zM294 416q-55 0 -96 -31t-56 -81h300q-12 54 -51 83t-97 29z"/>
    <glyph glyph-name="f" unicode="f" horiz-adv-x="359" d="M29 404v96h85v26q0 117 43.5 160.5t161.5 43.5h9v-99q-70 0 -88 -18.5t-18 -87.5v-25h106v-96h-106v-404h-108v404h-85z"/>
    <glyph glyph-name="g" unicode="g" horiz-adv-x="609" d="M283 -10q-100 0 -174.5 72.5t-74.5 187.5q0 116 74 188t176 72q49 0 93 -21t73 -57v68h107v-488q0 -113 -67.5 -184t-184.5 -71q-90 0 -154 38.5t-94 102.5l99 47q41 -90 149 -90q67 0 106.5 43.5t39.5 109.5v63q-29 -38 -74 -59.5t-94 -21.5zM298 88q68 0 113 47.5 t45 115.5t-45 115t-113 47q-67 0 -112.5 -47t-45.5 -115t45.5 -115.5t112.5 -47.5z"/>
    <glyph glyph-name="h" unicode="h" horiz-adv-x="565" d="M52 0v730h106v-293q56 73 154 73q95 0 149 -58t54 -160v-292h-109v282q0 64 -30.5 99.5t-90.5 35.5q-55 0 -90.5 -38.5t-35.5 -103.5v-275h-107z"/>
    <glyph glyph-name="i" unicode="i" horiz-adv-x="210" d="M51 0v500h108v-500h-108zM51 569v140h108v-140h-108z"/>
    <glyph glyph-name="j" unicode="j" horiz-adv-x="210" d="M-56 -230v101q69 0 88 18.5t19 85.5v525h108v-526q0 -115 -43 -159.5t-156 -44.5h-16zM51 569v140h108v-140h-108z"/>
    <glyph glyph-name="k" unicode="k" horiz-adv-x="539" d="M397 0l-155 222l-84 -92v-130h-106v730h106v-478l225 248h129l-195 -214l200 -286h-120z"/>
    <glyph glyph-name="l" unicode="l" horiz-adv-x="211" d="M52 0v730h107v-730h-107z"/>
    <glyph glyph-name="m" unicode="m" horiz-adv-x="895" d="M51 0v500h106v-60q51 70 147 70q118 0 165 -90q56 90 169 90q100 0 153.5 -56t53.5 -154v-300h-109v293q0 57 -30.5 90.5t-85.5 33.5q-52 0 -85.5 -35.5t-33.5 -99.5v-282h-108v298q0 55 -29.5 87t-83.5 32q-55 0 -88.5 -36t-33.5 -103v-278h-107z"/>
    <glyph glyph-name="n" unicode="n" horiz-adv-x="564" d="M51 0v500h106v-65q55 75 154 75q95 0 149 -58t54 -160v-292h-108v283q0 63 -31 98.5t-90 35.5q-55 0 -91 -38.5t-36 -103.5v-275h-107z"/>
    <glyph glyph-name="o" unicode="o" horiz-adv-x="587" d="M293 -10q-108 0 -183.5 75.5t-75.5 184.5t75.5 184.5t183.5 75.5t184 -75.5t76 -184.5t-76 -184.5t-184 -75.5zM293 90q64 0 109 47t45 113t-45 113t-109 47t-108.5 -47t-44.5 -113t44.5 -113t108.5 -47z"/>
    <glyph glyph-name="p" unicode="p" horiz-adv-x="605" d="M325 -10q-112 0 -168 72v-292h-106v730h106v-70q28 37 72.5 58.5t94.5 21.5q102 0 175.5 -72t73.5 -188q0 -115 -74.5 -187.5t-173.5 -72.5zM309 88q67 0 112.5 47.5t45.5 115.5t-45.5 115t-112.5 47q-68 0 -113 -47t-45 -115t45 -115.5t113 -47.5z"/>
    <glyph glyph-name="q" unicode="q" horiz-adv-x="607" d="M283 -10q-100 0 -174.5 72.5t-74.5 187.5q0 116 74 188t176 72q49 0 93 -21t73 -57v68h106v-730h-106v293q-57 -73 -167 -73zM298 88q68 0 113 47.5t45 115.5t-45 115t-113 47q-67 0 -112.5 -47t-45.5 -115t45.5 -115.5t112.5 -47.5z"/>
    <glyph glyph-name="r" unicode="r" horiz-adv-x="390" d="M51 0v500h107v-77q41 77 138 77h59v-102h-75q-65 0 -93 -35.5t-28 -114.5v-248h-108z"/>
    <glyph glyph-name="s" unicode="s" horiz-adv-x="471" d="M235 -10q-153 0 -219 116l96 50q43 -73 128 -73q43 0 67 19t24 47q0 37 -109 59l-12 3q-30 6 -51 12.5t-46 18t-40 26.5t-25.5 38.5t-10.5 53.5q0 62 54 107t139 44q138 0 201 -97l-89 -49q-37 57 -112 57q-41 0 -63.5 -17.5t-22.5 -42.5q0 -13 7 -22t26.5 -16.5 t34.5 -11.5t50 -12q38 -8 63 -16.5t54 -25t43.5 -43.5t14.5 -64q0 -60 -52 -111t-150 -50z"/>
    <glyph glyph-name="t" unicode="t" horiz-adv-x="367" d="M30 404v96h85v118l108 59v-177h106v-96h-106v-199q0 -68 18.5 -86t87.5 -18v-101h-16q-114 0 -156 43.5t-42 160.5v200h-85z"/>
    <glyph glyph-name="u" unicode="u" horiz-adv-x="564" d="M255 -10q-98 0 -151.5 58t-53.5 161v291h109v-282q0 -63 31 -98.5t90 -35.5q54 0 90 38.5t36 102.5v275h107v-500h-106v65q-55 -75 -152 -75z"/>
    <glyph glyph-name="v" unicode="v" horiz-adv-x="535" d="M215 0l-192 500h113l133 -361l131 361h111l-189 -500h-107z"/>
    <glyph glyph-name="w" unicode="w" horiz-adv-x="874" d="M197 0l-166 501l109 -1l114 -355l131 355h106l129 -355l118 355h109l-174 -500h-103l-133 357l-135 -357h-105z"/>
    <glyph glyph-name="x" unicode="x" horiz-adv-x="548" d="M18 0l191 254l-183 246h130l120 -165l121 165h127l-182 -246l193 -254h-131l-130 172l-125 -172h-131z"/>
    <glyph glyph-name="y" unicode="y" horiz-adv-x="556" d="M121 -231l107 257l-207 474h115l146 -347l138 347h113l-302 -731h-110z"/>
    <glyph glyph-name="z" unicode="z" horiz-adv-x="523" d="M40 0v98l300 306h-293v96h432v-98l-300 -306h304v-96h-443z"/>
    <glyph glyph-name="braceleft" unicode="{" horiz-adv-x="387" d="M354 -230h-11q-125 0 -172.5 47t-47.5 170v108q0 62 -17 82.5t-77 20.5v100q60 0 77 20.5t17 82.5v112q0 123 47.5 170t172.5 47h11v-99q-79 0 -101.5 -22.5t-22.5 -96.5v-112q0 -62 -16.5 -98t-55.5 -54q39 -18 55.5 -54t16.5 -98v-108q0 -74 22.5 -96.5t101.5 -22.5 v-99z"/>
    <glyph glyph-name="bar" unicode="|" horiz-adv-x="205" d="M49 -230v960h108v-960h-108z"/>
    <glyph glyph-name="braceright" unicode="}" horiz-adv-x="387" d="M34 -230v100q78 0 101 22t23 96v108q0 61 16 98t55 54q-39 18 -55 54t-16 98v112q0 74 -23 96t-101 22v100h11q125 0 172.5 -47t47.5 -170v-112q0 -62 17 -82.5t77 -20.5v-100q-60 0 -77 -20.5t-17 -82.5v-108q0 -123 -47.5 -170t-172.5 -47h-11z"/>
    <glyph glyph-name="asciitilde" unicode="~" horiz-adv-x="472" d="M66 568q1 57 28 91.5t73 34.5q33 0 77 -25q40 -25 55 -25q31 0 32 45h70q0 -58 -26 -92t-75 -34q-35 0 -87 31q-29 18 -46 18q-29 0 -30 -44h-71z"/>
    <glyph glyph-name="exclamdown" unicode="¡" horiz-adv-x="224" d="M59 -230v117q0 236 24 421h59q24 -185 24 -421v-117h-107zM59 363v137h107v-137h-107z"/>
    <glyph glyph-name="cent" unicode="¢" d="M253 -130v126q-94 20 -154 93t-60 170q0 98 60.5 170.5t153.5 91.5v127h108v-126q68 -12 120 -52.5t77 -100.5l-96 -42q-20 47 -60.5 73.5t-91.5 26.5q-70 0 -118 -49t-48 -119q0 -71 48.5 -120t119.5 -49q52 0 92.5 28.5t59.5 74.5l97 -41q-27 -63 -78.5 -104.5 t-121.5 -53.5v-124h-108z"/>
    <glyph glyph-name="sterling" unicode="£" d="M57 335v87h73q-27 56 -27 117q0 89 59 145t151 56q154 0 213 -128l-100 -45q-35 77 -113 77q-44 0 -72 -29t-28 -75q0 -52 35 -118h210v-87h-162q42 -84 42 -162q0 -29 -9 -57q39 -35 61 -35q20 0 27 11.5t7 41.5v86h111v-83q0 -80 -31 -113.5t-98 -33.5q-52 0 -115 54 q-45 -55 -114 -55q-67 0 -103.5 30.5t-36.5 80.5q0 49 32.5 80.5t86.5 31.5q51 0 100 -33q-1 28 -13 58t-23 47t-36 51h-127zM172 67q38 0 61 29q-41 34 -70 34q-15 0 -24 -9t-9 -23t11.5 -22.5t30.5 -8.5z"/>
    <glyph glyph-name="currency" unicode="¤" horiz-adv-x="773" d="M391 102q-79 0 -144 43l-110 -114l-73 72l111 114q-43 65 -43 145t43 145l-113 120l74 71l113 -118q65 42 142 42t140 -41l107 110l73 -72l-106 -109q45 -68 45 -148q0 -84 -47 -150l107 -110l-73 -71l-108 110q-62 -39 -138 -39zM391 202q64 0 109 47t45 113t-45 113 t-109 47q-65 0 -109 -46.5t-44 -113.5t44 -113.5t109 -46.5z"/>
    <glyph glyph-name="yen" unicode="¥" d="M84 295v88h156v19l-210 328h122l143 -233l143 233h121l-210 -328v-19h155v-88h-155v-93h155v-88h-155v-114h-109v114h-156v88h156v93h-156z"/>
    <glyph glyph-name="brokenbar" unicode="¦" horiz-adv-x="226" d="M49 310v420h108v-420h-108zM49 -230v420h108v-420h-108z"/>
    <glyph glyph-name="section" unicode="§" horiz-adv-x="589" d="M292 -10q-96 0 -160.5 46t-78.5 108l108 28q7 -41 44 -67t94 -26q47 0 76.5 16.5t29.5 47.5q0 28 -28.5 41t-99.5 29q-19 5 -30 7q-108 26 -159.5 59.5t-51.5 94.5q0 40 25 72.5t65 47.5q-43 37 -43 94q0 68 55.5 110.5t149.5 41.5q92 0 151 -41.5t72 -100.5l-103 -27 q-6 39 -37 62t-85 23q-46 0 -73.5 -16.5t-27.5 -47.5q0 -16 10 -28t34 -21.5t46 -16t65 -16.5q107 -25 159 -59t52 -94q0 -39 -23.5 -70.5t-61.5 -46.5q44 -35 44 -92q0 -70 -61 -114.5t-157 -43.5zM306 302q63 -16 78 -21q61 18 61 63q0 29 -39.5 47t-124.5 37 q-47 10 -76 22q-29 -6 -46 -23.5t-17 -39.5q0 -30 38.5 -47.5t125.5 -37.5z"/>
    <glyph glyph-name="dieresis" unicode="¨" horiz-adv-x="488" d="M269 558v138h107v-138h-107zM108 558v138h107v-138h-107z"/>
    <glyph glyph-name="copyright" unicode="©" horiz-adv-x="817" d="M409 -10q-155 0 -264.5 110t-109.5 265t109.5 265t264.5 110t264.5 -110t109.5 -265t-109.5 -265t-264.5 -110zM409 78q119 0 201 84t82 203t-82 203.5t-201 84.5q-120 0 -201 -84t-81 -204t81 -203.5t201 -83.5zM414 165q-87 0 -144.5 58t-57.5 142t58 142.5t144 58.5 q58 0 105.5 -29.5t70.5 -75.5l-86 -44q-10 25 -34 41.5t-57 16.5q-45 0 -77 -32t-32 -78t32 -78t77 -32q33 0 58.5 17.5t34.5 43.5l88 -37q-24 -50 -72 -82t-108 -32z"/>
    <glyph glyph-name="ordfeminine" unicode="ª" horiz-adv-x="386" d="M173 435q-52 0 -94.5 40t-42.5 110q0 71 43 111t95 40q54 0 88 -36v30h79v-289h-79v32q-35 -38 -89 -38zM191 508q32 0 53 23t21 55q0 33 -21 55t-53 22q-33 0 -55 -21.5t-22 -55.5q0 -33 22 -55.5t55 -22.5z"/>
    <glyph glyph-name="guillemotleft" unicode="«" horiz-adv-x="471" d="M228 108l-173 114v62l173 114v-75l-107 -70l107 -71v-74zM416 108l-173 114v62l173 114v-75l-107 -70l107 -71v-74z"/>
    <glyph glyph-name="logicalnot" unicode="¬" horiz-adv-x="603" d="M460 178v240h-432v104h540v-344h-108z"/>
    <glyph glyph-name="uni00AD" unicode="­" horiz-adv-x="457" d="M44 206v93h370v-93h-370z"/>
    <glyph glyph-name="registered" unicode="®" horiz-adv-x="379" d="M190 430q-64 0 -109.5 45.5t-45.5 109.5t45.5 109.5t109.5 45.5t109 -45.5t45 -109.5t-45 -109.5t-109 -45.5zM124 510v154h76q30 0 47.5 -16t17.5 -40q0 -36 -29 -49l32 -48q28 33 28 74q0 45 -31 77t-75 32q-45 0 -76 -32t-31 -77t31 -77t76 -32t76 34h-50l-43 72v-72 h-49zM188 621h-15v-32h15q27 0 27 17q0 15 -27 15z"/>
    <glyph glyph-name="macron" unicode="¯" horiz-adv-x="485" d="M111 554v77h264v-77h-264z"/>
    <glyph glyph-name="degree" unicode="°" horiz-adv-x="415" d="M208 433q-64 0 -109 45t-45 109t45 108.5t109 44.5t108.5 -44.5t44.5 -108.5t-44.5 -109t-108.5 -45zM208 523q26 0 44.5 18.5t18.5 44.5t-18.5 44.5t-44.5 18.5t-44.5 -18.5t-18.5 -44.5t18.5 -44.5t44.5 -18.5z"/>
    <glyph glyph-name="plusminus" unicode="±" horiz-adv-x="457" d="M44 424v92h140v139h90v-139h140v-92h-140v-139h-90v139h-140zM44 122v92h370v-92h-370z"/>
    <glyph glyph-name="twosuperior" unicode="²" horiz-adv-x="334" d="M24 308v75q0 36 19 67t40 47.5t55 37.5q58 36 70 53q9 12 9 25q0 19 -13.5 31t-38.5 12q-46 0 -70 -57l-79 41q44 96 150 96q65 0 105.5 -35t40.5 -88q0 -26 -9 -48t-29 -40.5t-34.5 -29t-40.5 -26.5q-27 -16 -39 -24t-25 -22t-14 -28h190v-87h-287z"/>
    <glyph glyph-name="threesuperior" unicode="³" horiz-adv-x="323" d="M156 302q-94 0 -145 57l73 61q28 -34 68 -34q25 0 41 13.5t16 35.5q0 23 -19 35t-50 12h-43v83h42q29 0 45.5 13t16.5 34q0 20 -14.5 32t-39.5 12q-39 0 -61 -35l-70 52q47 63 133 63q66 0 106 -33t40 -88q0 -53 -45 -87q55 -32 55 -95q0 -57 -40.5 -94t-108.5 -37z"/>
    <glyph glyph-name="acute" unicode="´" horiz-adv-x="485" d="M118 554l116 166h114l-148 -166h-82z"/>
    <glyph glyph-name="mu" unicode="µ" horiz-adv-x="561" d="M49 -230v730h109v-266q0 -70 32 -110t88 -40q55 0 91 38.5t36 102.5v275h107v-500h-106v61q-53 -71 -145 -71q-57 0 -105 34v-254h-107z"/>
    <glyph glyph-name="mu" unicode="μ" horiz-adv-x="561" d="M49 -230v730h109v-266q0 -70 32 -110t88 -40q55 0 91 38.5t36 102.5v275h107v-500h-106v61q-53 -71 -145 -71q-57 0 -105 34v-254h-107z"/>
    <glyph glyph-name="paragraph" unicode="¶" horiz-adv-x="632" d="M337 0v302h-91q-93 0 -155 62t-62 152t62 152t154 62h339v-730h-94v630h-60v-630h-93z"/>
    <glyph glyph-name="periodcentered" unicode="·" horiz-adv-x="205" d="M49 184v137h107v-137h-107z"/>
    <glyph glyph-name="cedilla" unicode="¸" horiz-adv-x="485" d="M226 -237q-82 0 -144 57l69 42q43 -34 81 -34q25 0 43 10t18 25q0 32 -64 32h-46v105h75v-53q53 1 85 -21.5t32 -58.5q0 -45 -43.5 -74.5t-105.5 -29.5z"/>
    <glyph glyph-name="onesuperior" unicode="¹" horiz-adv-x="296" d="M23 308v87h82v203q-21 -29 -66 -29h-6v91h3q38 0 55 21t17 49h90v-335h79v-87h-254z"/>
    <glyph glyph-name="ordmasculine" unicode="º" horiz-adv-x="371" d="M186 435q-62 0 -106 44t-44 106q0 63 44 107t106 44t105.5 -44t43.5 -107q0 -62 -43.5 -106t-105.5 -44zM186 511q30 0 51 22t21 52q0 32 -20.5 54t-51.5 22t-52 -22t-21 -54q0 -30 21.5 -52t51.5 -22z"/>
    <glyph glyph-name="guillemotright" unicode="»" horiz-adv-x="471" d="M243 108v75l108 70l-108 71v75l173 -115v-61zM55 108v75l108 70l-108 71v75l173 -115v-61z"/>
    <glyph glyph-name="onequarter" unicode="¼" horiz-adv-x="832" d="M97 0l527 730h125l-527 -730h-125zM660 0v90h-176v83l174 249h90v-251h61v-81h-61v-90h-88zM23 308v87h82v203q-21 -29 -66 -29h-6v91h3q38 0 55 21t17 49h90v-335h79v-87h-254zM581 171h79v113z"/>
    <glyph glyph-name="onehalf" unicode="½" horiz-adv-x="859" d="M97 0l527 730h125l-527 -730h-125zM546 0v75q0 36 19 67t40 47.5t55 37.5q58 36 70 53q9 12 9 25q0 19 -13.5 31t-38.5 12q-46 0 -70 -57l-79 41q44 96 150 96q65 0 105.5 -35t40.5 -88q0 -26 -9 -48t-29 -40.5t-34.5 -29t-40.5 -26.5q-27 -16 -39 -24t-25 -22t-14 -28 h190v-87h-287zM23 308v87h82v203q-21 -29 -66 -29h-6v91h3q38 0 55 21t17 49h90v-335h79v-87h-254z"/>
    <glyph glyph-name="threequarters" unicode="¾" horiz-adv-x="835" d="M100 0l527 730h125l-527 -730h-125zM663 0v90h-176v83l174 249h90v-251h61v-81h-61v-90h-88zM156 302q-94 0 -145 57l73 61q28 -34 68 -34q25 0 41 13.5t16 35.5q0 23 -19 35t-50 12h-43v83h42q29 0 45.5 13t16.5 34q0 20 -14.5 32t-39.5 12q-39 0 -61 -35l-70 52 q47 63 133 63q66 0 106 -33t40 -88q0 -53 -45 -87q55 -32 55 -95q0 -57 -40.5 -94t-108.5 -37zM584 171h79v113z"/>
    <glyph glyph-name="questiondown" unicode="¿" horiz-adv-x="531" d="M267 -240q-98 0 -161 54.5t-63 142.5q0 44 14 77.5t35 52t46 39t46 40t35 54.5t14 81v10h97v-10q0 -50 -10 -89.5t-25.5 -64t-34 -44t-37.5 -34t-34.5 -29.5t-25.5 -36t-10 -48q0 -44 32.5 -73t83.5 -29q87 0 124 89l99 -37q-24 -66 -82 -106t-143 -40zM228 363v137h107 v-137h-107z"/>
    <glyph glyph-name="Agrave" unicode="À" horiz-adv-x="696" d="M24 0l268 730h112l268 -730h-113l-57 156h-308l-56 -156h-114zM348 580l-116 -320h232zM306 784l-148 166h114l116 -166h-82z"/>
    <glyph glyph-name="Aacute" unicode="Á" horiz-adv-x="696" d="M24 0l268 730h112l268 -730h-113l-57 156h-308l-56 -156h-114zM348 580l-116 -320h232zM302 784l116 166h114l-148 -166h-82z"/>
    <glyph glyph-name="Acircumflex" unicode="Â" horiz-adv-x="696" d="M24 0l268 730h112l268 -730h-113l-57 156h-308l-56 -156h-114zM348 580l-116 -320h232zM187 784l119 166h75l119 -166h-91l-66 94l-64 -94h-92z"/>
    <glyph glyph-name="Atilde" unicode="Ã" horiz-adv-x="696" d="M24 0l268 730h112l268 -730h-113l-57 156h-308l-56 -156h-114zM348 580l-116 -320h232zM173 784q0 58 28 93t74 35q35 0 79 -26q40 -26 57 -26q33 0 33 48h71q0 -60 -26.5 -94t-76.5 -34q-34 0 -89 32q-32 19 -48 19q-31 0 -31 -47h-71z"/>
    <glyph glyph-name="Adieresis" unicode="Ä" horiz-adv-x="696" d="M24 0l268 730h112l268 -730h-113l-57 156h-308l-56 -156h-114zM348 580l-116 -320h232zM373 788v138h107v-138h-107zM212 788v138h107v-138h-107z"/>
    <glyph glyph-name="Aring" unicode="Å" horiz-adv-x="696" d="M24 0l252 688q-43 33 -43 89q0 47 32.5 80t78.5 33q48 0 81 -33t33 -80q0 -51 -40 -86l254 -691h-113l-57 156h-308l-56 -156h-114zM348 580l-116 -320h232zM344 734q19 0 32 12.5t13 30.5t-13 31.5t-32 13.5q-17 0 -30 -13.5t-13 -31.5t13 -30.5t30 -12.5z"/>
    <glyph glyph-name="AE" unicode="Æ" horiz-adv-x="980" d="M20 0l339 730h567v-103h-428l51 -209h377v-103h-352l51 -211h301v-104h-389l-37 154h-292l-71 -154h-117zM401 572l-147 -318h222z"/>
    <glyph glyph-name="Ccedilla" unicode="Ç" horiz-adv-x="761" d="M405 -237q-82 0 -144 57l69 42q43 -34 81 -34q25 0 43 10t18 25q0 32 -64 32h-46v98q-143 17 -235 122.5t-92 249.5q0 159 109 267t266 108q102 0 187.5 -50t135.5 -134l-95 -59q-35 65 -93.5 101.5t-134.5 36.5q-113 0 -189.5 -78.5t-76.5 -191.5q0 -112 76.5 -190 t188.5 -78q82 0 142.5 40.5t93.5 109.5l98 -52q-45 -88 -125.5 -142.5t-180.5 -61.5v-44q53 1 85 -21.5t32 -58.5q0 -45 -43.5 -74.5t-105.5 -29.5z"/>
    <glyph glyph-name="Egrave" unicode="È" horiz-adv-x="540" d="M56 0v730h438v-103h-329v-209h329v-103h-329v-211h329v-104h-438zM242 784l-148 166h114l116 -166h-82z"/>
    <glyph glyph-name="Eacute" unicode="É" horiz-adv-x="540" d="M56 0v730h438v-103h-329v-209h329v-103h-329v-211h329v-104h-438zM218 784l116 166h114l-148 -166h-82z"/>
    <glyph glyph-name="Ecircumflex" unicode="Ê" horiz-adv-x="540" d="M56 0v730h438v-103h-329v-209h329v-103h-329v-211h329v-104h-438zM115 784l119 166h75l119 -166h-91l-66 94l-64 -94h-92z"/>
    <glyph glyph-name="Edieresis" unicode="Ë" horiz-adv-x="540" d="M56 0v730h438v-103h-329v-209h329v-103h-329v-211h329v-104h-438zM143 788v138h107v-138h-107zM304 788v138h107v-138h-107z"/>
    <glyph glyph-name="Igrave" unicode="Ì" horiz-adv-x="235" d="M63 0v730h109v-730h-109zM77 784l-148 166h114l116 -166h-82z"/>
    <glyph glyph-name="Iacute" unicode="Í" horiz-adv-x="235" d="M63 0v730h109v-730h-109zM74 784l116 166h114l-148 -166h-82z"/>
    <glyph glyph-name="Icircumflex" unicode="Î" horiz-adv-x="235" d="M63 0v730h109v-730h-109zM-40 784l119 166h75l119 -166h-91l-66 94l-64 -94h-92z"/>
    <glyph glyph-name="Idieresis" unicode="Ï" horiz-adv-x="235" d="M166 788v138h107v-138h-107zM-38 788v138h107v-138h-107zM63 0v730h109v-730h-109z"/>
    <glyph glyph-name="Eth" unicode="Ð" horiz-adv-x="713" d="M22 318v97h72v315h201q174 0 278.5 -103t104.5 -262q0 -157 -107.5 -261t-271.5 -104h-205v318h-72zM283 630h-80v-215h188v-97h-188v-217h84q125 0 203.5 75t78.5 189q0 118 -76 191.5t-210 73.5z"/>
    <glyph glyph-name="Ntilde" unicode="Ñ" horiz-adv-x="713" d="M56 0v730h123l370 -552v552h108v-730h-115l-377 561v-561h-109zM183 784q0 58 28 93t74 35q35 0 79 -26q40 -26 57 -26q33 0 33 48h71q0 -60 -26.5 -94t-76.5 -34q-34 0 -89 32q-32 19 -48 19q-31 0 -31 -47h-71z"/>
    <glyph glyph-name="Ograve" unicode="Ò" horiz-adv-x="819" d="M409 -10q-155 0 -264.5 110t-109.5 265t109.5 265t264.5 110q156 0 265.5 -110t109.5 -265t-109.5 -265t-265.5 -110zM409 96q112 0 189 78.5t77 190.5t-77 191t-189 79q-111 0 -188 -79t-77 -191t77 -190.5t188 -78.5zM367 784l-148 166h114l116 -166h-82z"/>
    <glyph glyph-name="Oacute" unicode="Ó" horiz-adv-x="819" d="M361 784l116 166h114l-148 -166h-82zM409 -10q-155 0 -264.5 110t-109.5 265t109.5 265t264.5 110q156 0 265.5 -110t109.5 -265t-109.5 -265t-265.5 -110zM409 96q112 0 189 78.5t77 190.5t-77 191t-189 79q-111 0 -188 -79t-77 -191t77 -190.5t188 -78.5z"/>
    <glyph glyph-name="Ocircumflex" unicode="Ô" horiz-adv-x="819" d="M409 -10q-155 0 -264.5 110t-109.5 265t109.5 265t264.5 110q156 0 265.5 -110t109.5 -265t-109.5 -265t-265.5 -110zM409 96q112 0 189 78.5t77 190.5t-77 191t-189 79q-111 0 -188 -79t-77 -191t77 -190.5t188 -78.5zM249 784l119 166h75l119 -166h-91l-66 94l-64 -94 h-92z"/>
    <glyph glyph-name="Otilde" unicode="Õ" horiz-adv-x="819" d="M409 -10q-155 0 -264.5 110t-109.5 265t109.5 265t264.5 110q156 0 265.5 -110t109.5 -265t-109.5 -265t-265.5 -110zM409 96q112 0 189 78.5t77 190.5t-77 191t-189 79q-111 0 -188 -79t-77 -191t77 -190.5t188 -78.5zM232 784q0 58 28 93t74 35q35 0 79 -26 q40 -26 57 -26q33 0 33 48h71q0 -60 -26.5 -94t-76.5 -34q-34 0 -89 32q-32 19 -48 19q-31 0 -31 -47h-71z"/>
    <glyph glyph-name="Odieresis" unicode="Ö" horiz-adv-x="819" d="M432 788v138h107v-138h-107zM271 788v138h107v-138h-107zM409 -10q-155 0 -264.5 110t-109.5 265t109.5 265t264.5 110q156 0 265.5 -110t109.5 -265t-109.5 -265t-265.5 -110zM409 96q112 0 189 78.5t77 190.5t-77 191t-189 79q-111 0 -188 -79t-77 -191t77 -190.5 t188 -78.5z"/>
    <glyph glyph-name="multiply" unicode="×" horiz-adv-x="457" d="M116 187l-64 64l113 113l-113 114l63 63l113 -114l114 114l64 -64l-114 -114l113 -112l-63 -63l-113 112z"/>
    <glyph glyph-name="Oslash" unicode="Ø" horiz-adv-x="819" d="M61 0l81 102q-107 110 -107 263q0 155 109.5 265t264.5 110q101 0 193 -53l34 43h126l-83 -105q105 -108 105 -260q0 -155 -109.5 -265t-265.5 -110q-103 0 -190 52l-33 -42h-125zM144 365q0 -102 65 -178l327 415q-60 33 -127 33q-111 0 -188 -79t-77 -191zM409 96 q112 0 189 78.5t77 190.5q0 99 -63 175l-327 -414q58 -30 124 -30z"/>
    <glyph glyph-name="Ugrave" unicode="Ù" horiz-adv-x="620" d="M310 -10q-113 0 -184.5 70t-71.5 186v484h109v-491q0 -61 42 -104t104 -43q63 0 106 43t43 104v491h108v-484q0 -116 -72 -186t-184 -70zM275 784l-148 166h114l116 -166h-82z"/>
    <glyph glyph-name="Uacute" unicode="Ú" horiz-adv-x="620" d="M258 784l116 166h114l-148 -166h-82zM310 -10q-113 0 -184.5 70t-71.5 186v484h109v-491q0 -61 42 -104t104 -43q63 0 106 43t43 104v491h108v-484q0 -116 -72 -186t-184 -70z"/>
    <glyph glyph-name="Ucircumflex" unicode="Û" horiz-adv-x="620" d="M310 -10q-113 0 -184.5 70t-71.5 186v484h109v-491q0 -61 42 -104t104 -43q63 0 106 43t43 104v491h108v-484q0 -116 -72 -186t-184 -70zM151 784l119 166h75l119 -166h-91l-66 94l-64 -94h-92z"/>
    <glyph glyph-name="Udieresis" unicode="Ü" horiz-adv-x="620" d="M339 788v138h107v-138h-107zM178 788v138h107v-138h-107zM310 -10q-113 0 -184.5 70t-71.5 186v484h109v-491q0 -61 42 -104t104 -43q63 0 106 43t43 104v491h108v-484q0 -116 -72 -186t-184 -70z"/>
    <glyph glyph-name="Yacute" unicode="Ý" horiz-adv-x="624" d="M258 0v346l-237 384h120l171 -280l172 280h120l-238 -385v-345h-108zM264 784l116 166h114l-148 -166h-82z"/>
    <glyph glyph-name="Thorn" unicode="Þ" horiz-adv-x="563" d="M56 0v730h109v-139h133q100 0 164 -62t64 -156t-64 -156t-164 -62h-133v-155h-109zM291 490h-126v-235h126q57 0 91.5 33t34.5 85q0 51 -34.5 84t-91.5 33z"/>
    <glyph glyph-name="germandbls" unicode="ß" horiz-adv-x="535" d="M-53 -230v101q65 0 84.5 21t19.5 84v542q-2 96 54.5 154.5t158.5 58.5q93 0 151.5 -56t58.5 -143q0 -52 -26 -91.5t-73 -59.5q56 -20 91.5 -65.5t35.5 -107.5q0 -95 -61.5 -156t-161.5 -61q-47 0 -74 12v97q19 -12 73 -12q49 0 81.5 34.5t32.5 84.5t-38 84.5t-101 34.5 h-21v98h21q51 0 83.5 31t32.5 78q0 45 -29.5 76t-76.5 31q-50 0 -80 -29t-30 -82v-553q0 -115 -41 -160.5t-149 -45.5h-16z"/>
    <glyph glyph-name="agrave" unicode="à" horiz-adv-x="608" d="M283 -10q-100 0 -174.5 72.5t-74.5 187.5q0 116 74 188t176 72q49 0 93.5 -20t72.5 -55v65h107v-500h-107v69q-29 -37 -73.5 -58t-93.5 -21zM298 88q68 0 113 47.5t45 115.5t-45 115t-113 47q-67 0 -112.5 -47t-45.5 -115t45.5 -115.5t112.5 -47.5zM255 554l-148 166h114 l116 -166h-82z"/>
    <glyph glyph-name="aacute" unicode="á" horiz-adv-x="608" d="M283 -10q-100 0 -174.5 72.5t-74.5 187.5q0 116 74 188t176 72q49 0 93.5 -20t72.5 -55v65h107v-500h-107v69q-29 -37 -73.5 -58t-93.5 -21zM298 88q68 0 113 47.5t45 115.5t-45 115t-113 47q-67 0 -112.5 -47t-45.5 -115t45.5 -115.5t112.5 -47.5zM234 554l116 166h114 l-148 -166h-82z"/>
    <glyph glyph-name="acircumflex" unicode="â" horiz-adv-x="608" d="M283 -10q-100 0 -174.5 72.5t-74.5 187.5q0 116 74 188t176 72q49 0 93.5 -20t72.5 -55v65h107v-500h-107v69q-29 -37 -73.5 -58t-93.5 -21zM298 88q68 0 113 47.5t45 115.5t-45 115t-113 47q-67 0 -112.5 -47t-45.5 -115t45.5 -115.5t112.5 -47.5zM159 554l119 166h75 l119 -166h-91l-66 94l-64 -94h-92z"/>
    <glyph glyph-name="atilde" unicode="ã" horiz-adv-x="608" d="M283 -10q-100 0 -174.5 72.5t-74.5 187.5q0 116 74 188t176 72q49 0 93.5 -20t72.5 -55v65h107v-500h-107v69q-29 -37 -73.5 -58t-93.5 -21zM298 88q68 0 113 47.5t45 115.5t-45 115t-113 47q-67 0 -112.5 -47t-45.5 -115t45.5 -115.5t112.5 -47.5zM138 554q0 58 28 93 t74 35q35 0 79 -26q40 -26 57 -26q33 0 33 48h71q0 -60 -26.5 -94t-76.5 -34q-34 0 -89 32q-32 19 -48 19q-31 0 -31 -47h-71z"/>
    <glyph glyph-name="adieresis" unicode="ä" horiz-adv-x="608" d="M283 -10q-100 0 -174.5 72.5t-74.5 187.5q0 116 74 188t176 72q49 0 93.5 -20t72.5 -55v65h107v-500h-107v69q-29 -37 -73.5 -58t-93.5 -21zM298 88q68 0 113 47.5t45 115.5t-45 115t-113 47q-67 0 -112.5 -47t-45.5 -115t45.5 -115.5t112.5 -47.5zM338 558v138h107v-138 h-107zM177 558v138h107v-138h-107z"/>
    <glyph glyph-name="aring" unicode="å" horiz-adv-x="608" d="M283 -10q-100 0 -174.5 72.5t-74.5 187.5q0 116 74 188t176 72q49 0 93.5 -20t72.5 -55v65h107v-500h-107v69q-29 -37 -73.5 -58t-93.5 -21zM298 88q68 0 113 47.5t45 115.5t-45 115t-113 47q-67 0 -112.5 -47t-45.5 -115t45.5 -115.5t112.5 -47.5zM294 547 q-46 0 -78.5 33t-32.5 79q0 47 32.5 80t78.5 33q48 0 81 -33t33 -80t-33 -79.5t-81 -32.5zM294 616q19 0 32 12.5t13 30.5t-13 31.5t-32 13.5q-17 0 -30 -13.5t-13 -31.5t13 -30.5t30 -12.5z"/>
    <glyph glyph-name="ae" unicode="æ" horiz-adv-x="922" d="M635 -10q-143 0 -217 107q-26 -46 -81 -76.5t-124 -30.5q-91 0 -135.5 38t-45.5 102q0 66 44 102t124 56q13 3 35.5 8.5t35.5 8.5t31 8t28 10t20.5 11t15 14t4.5 18q0 26 -26.5 43t-74.5 17q-61 0 -93.5 -28t-32.5 -72v-3h-98v2q0 86 58.5 135.5t161.5 49.5 q131 0 181 -76q74 76 184 76q111 0 184 -72.5t73 -183.5v-38h-414q10 -59 53.5 -95t108.5 -36q50 0 89 25.5t59 67.5l90 -40q-32 -69 -94.5 -108.5t-143.5 -39.5zM218 79q59 0 104 40t52 78v33v14l-2 14q-10 -23 -121 -47q-59 -13 -85.5 -29.5t-26.5 -48.5q0 -54 79 -54z M630 416q-54 0 -94 -30t-56 -80h299q-13 52 -52.5 81t-96.5 29z"/>
    <glyph glyph-name="ccedilla" unicode="ç" horiz-adv-x="561" d="M298 -237q-82 0 -144 57l69 42q43 -34 81 -34q25 0 43 10t18 25q0 32 -64 32h-46v98q-96 14 -158.5 86.5t-62.5 170.5q0 110 75.5 185t185.5 75q82 0 145 -42t92 -111l-96 -41q-19 44 -56 69t-85 25q-66 0 -111 -46.5t-45 -113.5t45.5 -113.5t112.5 -46.5q49 0 86 27 t55 71l97 -41q-28 -64 -81 -105.5t-124 -49.5v-45q53 1 85 -21.5t32 -58.5q0 -45 -43.5 -74.5t-105.5 -29.5z"/>
    <glyph glyph-name="egrave" unicode="è" horiz-adv-x="586" d="M298 -10q-117 0 -190.5 74t-73.5 184t75 186t185 76q111 0 184 -72t73 -183v-42h-414q11 -58 53.5 -93t107.5 -35q50 0 88 24t58 66l88 -49q-73 -136 -234 -136zM294 416q-55 0 -96 -31t-56 -81h300q-12 54 -51 83t-97 29zM262 554l-148 166h114l116 -166h-82z"/>
    <glyph glyph-name="eacute" unicode="é" horiz-adv-x="586" d="M298 -10q-117 0 -190.5 74t-73.5 184t75 186t185 76q111 0 184 -72t73 -183v-42h-414q11 -58 53.5 -93t107.5 -35q50 0 88 24t58 66l88 -49q-73 -136 -234 -136zM294 416q-55 0 -96 -31t-56 -81h300q-12 54 -51 83t-97 29zM241 554l116 166h114l-148 -166h-82z"/>
    <glyph glyph-name="ecircumflex" unicode="ê" horiz-adv-x="586" d="M298 -10q-117 0 -190.5 74t-73.5 184t75 186t185 76q111 0 184 -72t73 -183v-42h-414q11 -58 53.5 -93t107.5 -35q50 0 88 24t58 66l88 -49q-73 -136 -234 -136zM135 554l119 166h75l119 -166h-91l-66 94l-64 -94h-92zM294 416q-55 0 -96 -31t-56 -81h300q-12 54 -51 83 t-97 29z"/>
    <glyph glyph-name="edieresis" unicode="ë" horiz-adv-x="586" d="M298 -10q-117 0 -190.5 74t-73.5 184t75 186t185 76q111 0 184 -72t73 -183v-42h-414q11 -58 53.5 -93t107.5 -35q50 0 88 24t58 66l88 -49q-73 -136 -234 -136zM294 416q-55 0 -96 -31t-56 -81h300q-12 54 -51 83t-97 29zM161 558v138h107v-138h-107zM322 558v138h107 v-138h-107z"/>
    <glyph glyph-name="igrave" unicode="ì" horiz-adv-x="210" d="M51 0v500h108v-500h-108zM76 554l-148 166h114l116 -166h-82z"/>
    <glyph glyph-name="iacute" unicode="í" horiz-adv-x="210" d="M54 554l116 166h114l-148 -166h-82zM51 0v500h108v-500h-108z"/>
    <glyph glyph-name="icircumflex" unicode="î" horiz-adv-x="210" d="M51 0v500h108v-500h-108zM-52 554l119 166h75l119 -166h-91l-66 94l-64 -94h-92z"/>
    <glyph glyph-name="idieresis" unicode="ï" horiz-adv-x="210" d="M156 558v138h107v-138h-107zM-54 558v138h108v-138h-108zM51 0v500h108v-500h-108z"/>
    <glyph glyph-name="eth" unicode="ð" horiz-adv-x="583" d="M129 525l112 93q-61 52 -148 112h155q17 -14 63 -53l64 53h101l-117 -98q186 -185 186 -384q0 -108 -73.5 -182t-181.5 -74q-105 0 -179.5 72.5t-74.5 179.5q0 106 70 176.5t172 70.5q67 0 111 -31q-37 58 -99 115l-59 -50h-102zM291 93q61 0 105 44.5t44 106.5 q0 63 -43 107.5t-105 44.5t-106 -44t-44 -108q0 -63 44 -107t105 -44z"/>
    <glyph glyph-name="ntilde" unicode="ñ" horiz-adv-x="564" d="M51 0v500h106v-65q55 75 154 75q95 0 149 -58t54 -160v-292h-108v283q0 63 -31 98.5t-90 35.5q-55 0 -91 -38.5t-36 -103.5v-275h-107zM107 554q0 58 28 93t74 35q35 0 79 -26q40 -26 57 -26q33 0 33 48h71q0 -60 -26.5 -94t-76.5 -34q-34 0 -89 32q-32 19 -48 19 q-31 0 -31 -47h-71z"/>
    <glyph glyph-name="ograve" unicode="ò" horiz-adv-x="587" d="M293 -10q-108 0 -183.5 75.5t-75.5 184.5t75.5 184.5t183.5 75.5t184 -75.5t76 -184.5t-76 -184.5t-184 -75.5zM293 90q64 0 109 47t45 113t-45 113t-109 47t-108.5 -47t-44.5 -113t44.5 -113t108.5 -47zM257 554l-148 166h114l116 -166h-82z"/>
    <glyph glyph-name="oacute" unicode="ó" horiz-adv-x="587" d="M244 554l116 166h114l-148 -166h-82zM293 -10q-108 0 -183.5 75.5t-75.5 184.5t75.5 184.5t183.5 75.5t184 -75.5t76 -184.5t-76 -184.5t-184 -75.5zM293 90q64 0 109 47t45 113t-45 113t-109 47t-108.5 -47t-44.5 -113t44.5 -113t108.5 -47z"/>
    <glyph glyph-name="ocircumflex" unicode="ô" horiz-adv-x="587" d="M293 -10q-108 0 -183.5 75.5t-75.5 184.5t75.5 184.5t183.5 75.5t184 -75.5t76 -184.5t-76 -184.5t-184 -75.5zM293 90q64 0 109 47t45 113t-45 113t-109 47t-108.5 -47t-44.5 -113t44.5 -113t108.5 -47zM136 554l119 166h75l119 -166h-91l-66 94l-64 -94h-92z"/>
    <glyph glyph-name="otilde" unicode="õ" horiz-adv-x="587" d="M293 -10q-108 0 -183.5 75.5t-75.5 184.5t75.5 184.5t183.5 75.5t184 -75.5t76 -184.5t-76 -184.5t-184 -75.5zM293 90q64 0 109 47t45 113t-45 113t-109 47t-108.5 -47t-44.5 -113t44.5 -113t108.5 -47zM126 554q0 58 28 93t74 35q35 0 79 -26q40 -26 57 -26q33 0 33 48 h71q0 -60 -26.5 -94t-76.5 -34q-34 0 -89 32q-32 19 -48 19q-31 0 -31 -47h-71z"/>
    <glyph glyph-name="odieresis" unicode="ö" horiz-adv-x="587" d="M322 558v138h107v-138h-107zM161 558v138h107v-138h-107zM293 -10q-108 0 -183.5 75.5t-75.5 184.5t75.5 184.5t183.5 75.5t184 -75.5t76 -184.5t-76 -184.5t-184 -75.5zM293 90q64 0 109 47t45 113t-45 113t-109 47t-108.5 -47t-44.5 -113t44.5 -113t108.5 -47z"/>
    <glyph glyph-name="divide" unicode="÷" horiz-adv-x="457" d="M44 319v92h370v-92h-370zM184 456v118h91v-118h-91zM184 155v118h91v-118h-91z"/>
    <glyph glyph-name="oslash" unicode="ø" horiz-adv-x="587" d="M293 -10q-68 0 -125 31l-17 -21h-111l60 76q-66 74 -66 174q0 109 75.5 184.5t183.5 75.5q67 0 124 -31l17 21h111l-59 -75q67 -75 67 -175q0 -109 -76 -184.5t-184 -75.5zM293 90q65 0 110 47t45 113q0 52 -28 92l-188 -240q27 -12 61 -12zM139 250q0 -51 26 -91 l188 239q-27 12 -60 12q-65 0 -109.5 -46.5t-44.5 -113.5z"/>
    <glyph glyph-name="ugrave" unicode="ù" horiz-adv-x="564" d="M255 -10q-98 0 -151.5 58t-53.5 161v291h109v-282q0 -63 31 -98.5t90 -35.5q54 0 90 38.5t36 102.5v275h107v-500h-106v65q-55 -75 -152 -75zM245 554l-148 166h114l116 -166h-82z"/>
    <glyph glyph-name="uacute" unicode="ú" horiz-adv-x="564" d="M255 -10q-98 0 -151.5 58t-53.5 161v291h109v-282q0 -63 31 -98.5t90 -35.5q54 0 90 38.5t36 102.5v275h107v-500h-106v65q-55 -75 -152 -75zM231 554l116 166h114l-148 -166h-82z"/>
    <glyph glyph-name="ucircumflex" unicode="û" horiz-adv-x="564" d="M255 -10q-98 0 -151.5 58t-53.5 161v291h109v-282q0 -63 31 -98.5t90 -35.5q54 0 90 38.5t36 102.5v275h107v-500h-106v65q-55 -75 -152 -75zM122 554l119 166h75l119 -166h-91l-66 94l-64 -94h-92z"/>
    <glyph glyph-name="udieresis" unicode="ü" horiz-adv-x="564" d="M255 -10q-98 0 -151.5 58t-53.5 161v291h109v-282q0 -63 31 -98.5t90 -35.5q54 0 90 38.5t36 102.5v275h107v-500h-106v65q-55 -75 -152 -75zM147 558v138h107v-138h-107zM308 558v138h107v-138h-107z"/>
    <glyph glyph-name="yacute" unicode="ý" horiz-adv-x="556" d="M121 -231l107 257l-207 474h115l146 -347l138 347h113l-302 -731h-110zM230 554l116 166h114l-148 -166h-82z"/>
    <glyph glyph-name="thorn" unicode="þ" horiz-adv-x="604" d="M326 -10q-108 0 -169 81v-301h-105v960h105v-301q62 81 169 81q102 0 174 -71t72 -187t-73 -189t-173 -73zM310 88q68 0 113 48t45 116t-44.5 114.5t-112.5 46.5q-67 0 -112.5 -47.5t-45.5 -114.5t46 -115t111 -48z"/>
    <glyph glyph-name="ydieresis" unicode="ÿ" horiz-adv-x="556" d="M121 -231l107 257l-207 474h115l146 -347l138 347h113l-302 -731h-110zM147 558v138h107v-138h-107zM308 558v138h107v-138h-107z"/>
    <glyph glyph-name="Amacron" unicode="Ā" horiz-adv-x="696" d="M24 0l268 730h112l268 -730h-113l-57 156h-308l-56 -156h-114zM348 580l-116 -320h232zM214 784v77h264v-77h-264z"/>
    <glyph glyph-name="amacron" unicode="ā" horiz-adv-x="608" d="M283 -10q-100 0 -174.5 72.5t-74.5 187.5q0 116 74 188t176 72q49 0 93.5 -20t72.5 -55v65h107v-500h-107v69q-29 -37 -73.5 -58t-93.5 -21zM298 88q68 0 113 47.5t45 115.5t-45 115t-113 47q-67 0 -112.5 -47t-45.5 -115t45.5 -115.5t112.5 -47.5zM186 554v77h264v-77 h-264z"/>
    <glyph glyph-name="Abreve" unicode="Ă" horiz-adv-x="696" d="M24 0l268 730h112l268 -730h-113l-57 156h-308l-56 -156h-114zM348 580l-116 -320h232zM344 780q-79 0 -120 46t-41 120h76q0 -98 85 -100q41 1 63 27t22 73h77q0 -71 -44.5 -118.5t-117.5 -47.5z"/>
    <glyph glyph-name="abreve" unicode="ă" horiz-adv-x="608" d="M283 -10q-100 0 -174.5 72.5t-74.5 187.5q0 116 74 188t176 72q49 0 93.5 -20t72.5 -55v65h107v-500h-107v69q-29 -37 -73.5 -58t-93.5 -21zM298 88q68 0 113 47.5t45 115.5t-45 115t-113 47q-67 0 -112.5 -47t-45.5 -115t45.5 -115.5t112.5 -47.5zM304 549 q-79 0 -120 46t-41 120h76q0 -98 85 -100q41 1 63 27t22 73h77q0 -71 -44.5 -118.5t-117.5 -47.5z"/>
    <glyph glyph-name="Aogonek" unicode="Ą" horiz-adv-x="696" d="M593 -222q-61 0 -100 30t-39 75q0 70 100 130l-52 143h-308l-56 -156h-114l268 730h112l268 -730h-3l2 -1q-80 -50 -103.5 -70.5t-23.5 -41.5q0 -35 49 -35q30 0 67 31l71 -48q-64 -57 -138 -57zM348 580l-116 -320h232z"/>
    <glyph glyph-name="aogonek" unicode="ą" horiz-adv-x="608" d="M283 -10q-100 0 -174.5 72.5t-74.5 187.5q0 116 74 188t176 72q49 0 93.5 -20t72.5 -55v65h107v-500h-3q-92 -64 -92 -108q0 -18 12 -29t31 -11q28 0 57 29l62 -55q-57 -50 -122 -50q-58 0 -92 31.5t-35 77.5q-1 66 75 127v57q-29 -37 -73.5 -58t-93.5 -21zM298 88 q68 0 113 47.5t45 115.5t-45 115t-113 47q-67 0 -112.5 -47t-45.5 -115t45.5 -115.5t112.5 -47.5z"/>
    <glyph glyph-name="Cacute" unicode="Ć" horiz-adv-x="761" d="M364 784l116 166h114l-148 -166h-82zM410 -10q-160 0 -267.5 109t-107.5 266q0 159 109 267t266 108q102 0 187.5 -50t135.5 -134l-95 -59q-35 65 -93.5 101.5t-134.5 36.5q-113 0 -189.5 -78.5t-76.5 -191.5q0 -112 76.5 -190t188.5 -78q82 0 142.5 40.5t93.5 109.5 l98 -52q-48 -94 -136 -149.5t-197 -55.5z"/>
    <glyph glyph-name="cacute" unicode="ć" horiz-adv-x="561" d="M245 554l116 166h114l-148 -166h-82zM295 -10q-110 0 -185.5 75.5t-75.5 184.5q0 110 75.5 185t185.5 75q82 0 145 -42t92 -111l-96 -41q-19 44 -56 69t-85 25q-66 0 -111 -46.5t-45 -113.5t45.5 -113.5t112.5 -46.5q49 0 86 27t55 71l97 -41q-31 -72 -93 -114.5 t-147 -42.5z"/>
    <glyph glyph-name="Ccircumflex" unicode="Ĉ" horiz-adv-x="761" d="M410 -10q-160 0 -267.5 109t-107.5 266q0 159 109 267t266 108q102 0 187.5 -50t135.5 -134l-95 -59q-35 65 -93.5 101.5t-134.5 36.5q-113 0 -189.5 -78.5t-76.5 -191.5q0 -112 76.5 -190t188.5 -78q82 0 142.5 40.5t93.5 109.5l98 -52q-48 -94 -136 -149.5t-197 -55.5z M255 784l119 166h75l119 -166h-91l-66 94l-64 -94h-92z"/>
    <glyph glyph-name="ccircumflex" unicode="ĉ" horiz-adv-x="561" d="M295 -10q-110 0 -185.5 75.5t-75.5 184.5q0 110 75.5 185t185.5 75q82 0 145 -42t92 -111l-96 -41q-19 44 -56 69t-85 25q-66 0 -111 -46.5t-45 -113.5t45.5 -113.5t112.5 -46.5q49 0 86 27t55 71l97 -41q-31 -72 -93 -114.5t-147 -42.5zM138 554l119 166h75l119 -166 h-91l-66 94l-64 -94h-92z"/>
    <glyph glyph-name="Cdotaccent" unicode="Ċ" horiz-adv-x="761" d="M410 -10q-160 0 -267.5 109t-107.5 266q0 159 109 267t266 108q102 0 187.5 -50t135.5 -134l-95 -59q-35 65 -93.5 101.5t-134.5 36.5q-113 0 -189.5 -78.5t-76.5 -191.5q0 -112 76.5 -190t188.5 -78q82 0 142.5 40.5t93.5 109.5l98 -52q-48 -94 -136 -149.5t-197 -55.5z M364 788v138h107v-138h-107z"/>
    <glyph glyph-name="cdotaccent" unicode="ċ" horiz-adv-x="561" d="M295 -10q-110 0 -185.5 75.5t-75.5 184.5q0 110 75.5 185t185.5 75q82 0 145 -42t92 -111l-96 -41q-19 44 -56 69t-85 25q-66 0 -111 -46.5t-45 -113.5t45.5 -113.5t112.5 -46.5q49 0 86 27t55 71l97 -41q-31 -72 -93 -114.5t-147 -42.5zM242 558v138h107v-138h-107z"/>
    <glyph glyph-name="Ccaron" unicode="Č" horiz-adv-x="761" d="M410 -10q-160 0 -267.5 109t-107.5 266q0 159 109 267t266 108q102 0 187.5 -50t135.5 -134l-95 -59q-35 65 -93.5 101.5t-134.5 36.5q-113 0 -189.5 -78.5t-76.5 -191.5q0 -112 76.5 -190t188.5 -78q82 0 142.5 40.5t93.5 109.5l98 -52q-48 -94 -136 -149.5t-197 -55.5z M371 784l-119 166h92l64 -94l66 94h91l-119 -166h-75z"/>
    <glyph glyph-name="ccaron" unicode="č" horiz-adv-x="561" d="M295 -10q-110 0 -185.5 75.5t-75.5 184.5q0 110 75.5 185t185.5 75q82 0 145 -42t92 -111l-96 -41q-19 44 -56 69t-85 25q-66 0 -111 -46.5t-45 -113.5t45.5 -113.5t112.5 -46.5q49 0 86 27t55 71l97 -41q-31 -72 -93 -114.5t-147 -42.5zM256 554l-119 166h92l64 -94 l66 94h91l-119 -166h-75z"/>
    <glyph glyph-name="Dcaron" unicode="Ď" horiz-adv-x="676" d="M56 0v730h202q174 0 278.5 -103t104.5 -262q0 -157 -107.5 -261t-271.5 -104h-206zM247 630h-82v-529h86q124 0 202 75t78 189q0 118 -75 191.5t-209 73.5zM242 784l-119 166h92l64 -94l66 94h91l-119 -166h-75z"/>
    <glyph glyph-name="dcaron" unicode="ď" horiz-adv-x="662" d="M283 -10q-100 0 -174.5 72.5t-74.5 187.5q0 116 74 188t176 72q49 0 93.5 -20t72.5 -55v295h106v-730h-106v69q-29 -37 -73.5 -58t-93.5 -21zM298 88q68 0 113 47.5t45 115.5t-45 115t-113 47q-67 0 -112.5 -47t-45.5 -115t45.5 -115.5t112.5 -47.5zM610 553l32 177h91 l-54 -177h-69z"/>
    <glyph glyph-name="Dcroat" unicode="Đ" horiz-adv-x="713" d="M22 318v97h72v315h201q174 0 278.5 -103t104.5 -262q0 -157 -107.5 -261t-271.5 -104h-205v318h-72zM283 630h-80v-215h188v-97h-188v-217h84q125 0 203.5 75t78.5 189q0 118 -76 191.5t-210 73.5z"/>
    <glyph glyph-name="dcroat" unicode="đ" horiz-adv-x="617" d="M382 562v78h68v90h106v-90h60v-78h-60v-562h-106v69q-29 -37 -73.5 -58t-93.5 -21q-100 0 -174.5 72.5t-74.5 187.5q0 116 74 188t176 72q49 0 93.5 -20t72.5 -55v127h-68zM298 88q68 0 113 47.5t45 115.5t-45 115t-113 47q-67 0 -112.5 -47t-45.5 -115t45.5 -115.5 t112.5 -47.5z"/>
    <glyph glyph-name="Emacron" unicode="Ē" horiz-adv-x="540" d="M56 0v730h438v-103h-329v-209h329v-103h-329v-211h329v-104h-438zM140 784v77h264v-77h-264z"/>
    <glyph glyph-name="emacron" unicode="ē" horiz-adv-x="586" d="M298 -10q-117 0 -190.5 74t-73.5 184t75 186t185 76q111 0 184 -72t73 -183v-42h-414q11 -58 53.5 -93t107.5 -35q50 0 88 24t58 66l88 -49q-73 -136 -234 -136zM294 416q-55 0 -96 -31t-56 -81h300q-12 54 -51 83t-97 29zM163 554v77h264v-77h-264z"/>
    <glyph glyph-name="Ebreve" unicode="Ĕ" horiz-adv-x="540" d="M56 0v730h438v-103h-329v-209h329v-103h-329v-211h329v-104h-438zM275 780q-79 0 -120 46t-41 120h76q0 -98 85 -100q41 1 63 27t22 73h77q0 -71 -44.5 -118.5t-117.5 -47.5z"/>
    <glyph glyph-name="ebreve" unicode="ĕ" horiz-adv-x="586" d="M298 -10q-117 0 -190.5 74t-73.5 184t75 186t185 76q111 0 184 -72t73 -183v-42h-414q11 -58 53.5 -93t107.5 -35q50 0 88 24t58 66l88 -49q-73 -136 -234 -136zM295 549q-79 0 -120 46t-41 120h76q0 -98 85 -100q41 1 63 27t22 73h77q0 -71 -44.5 -118.5t-117.5 -47.5z M294 416q-55 0 -96 -31t-56 -81h300q-12 54 -51 83t-97 29z"/>
    <glyph glyph-name="Edotaccent" unicode="Ė" horiz-adv-x="540" d="M56 0v730h438v-103h-329v-209h329v-103h-329v-211h329v-104h-438zM235 788v138h107v-138h-107z"/>
    <glyph glyph-name="edotaccent" unicode="ė" horiz-adv-x="586" d="M298 -10q-117 0 -190.5 74t-73.5 184t75 186t185 76q111 0 184 -72t73 -183v-42h-414q11 -58 53.5 -93t107.5 -35q50 0 88 24t58 66l88 -49q-73 -136 -234 -136zM294 416q-55 0 -96 -31t-56 -81h300q-12 54 -51 83t-97 29zM244 558v138h107v-138h-107z"/>
    <glyph glyph-name="Eogonek" unicode="Ę" horiz-adv-x="540" d="M56 0v730h438v-103h-329v-209h329v-103h-329v-211h329v-104h-2l2 -1q-80 -50 -103.5 -70.5t-23.5 -41.5q0 -35 49 -35q30 0 67 31l71 -48q-64 -57 -138 -57q-61 0 -100 30t-39 75q0 64 79 117h-300z"/>
    <glyph glyph-name="eogonek" unicode="ę" horiz-adv-x="586" d="M310 -217q-61 0 -100 30t-39 75q0 59 67 108q-93 19 -148.5 88t-55.5 164q0 110 75 186t185 76q111 0 184 -72t73 -183v-42h-414q11 -58 53.5 -93t107.5 -35q50 0 88 24t58 66l88 -49q-51 -93 -147 -124q-78 -48 -101 -68.5t-23 -41.5q0 -35 49 -35q30 0 67 31l71 -48 q-64 -57 -138 -57zM294 416q-55 0 -96 -31t-56 -81h300q-12 54 -51 83t-97 29z"/>
    <glyph glyph-name="Ecaron" unicode="Ě" horiz-adv-x="541" d="M56 0v730h438v-103h-329v-209h329v-103h-329v-211h329v-104h-438zM233 784l-119 166h92l64 -94l66 94h91l-119 -166h-75z"/>
    <glyph glyph-name="ecaron" unicode="ě" horiz-adv-x="586" d="M298 -10q-117 0 -190.5 74t-73.5 184t75 186t185 76q111 0 184 -72t73 -183v-42h-414q11 -58 53.5 -93t107.5 -35q50 0 88 24t58 66l88 -49q-73 -136 -234 -136zM259 554l-119 166h92l64 -94l66 94h91l-119 -166h-75zM294 416q-55 0 -96 -31t-56 -81h300q-12 54 -51 83 t-97 29z"/>
    <glyph glyph-name="Gcircumflex" unicode="Ĝ" horiz-adv-x="811" d="M414 -10q-163 0 -271 110t-108 265q0 158 107.5 266.5t270.5 108.5q107 0 193.5 -51t134.5 -137l-95 -57q-36 67 -95.5 104t-137.5 37q-117 0 -193 -79t-76 -192t77 -191.5t193 -78.5q101 0 165.5 55.5t82.5 146.5h-262v103h376v-39q0 -155 -99 -263t-263 -108zM251 784 l119 166h75l119 -166h-91l-66 94l-64 -94h-92z"/>
    <glyph glyph-name="gcircumflex" unicode="ĝ" horiz-adv-x="609" d="M283 -10q-100 0 -174.5 72.5t-74.5 187.5q0 116 74 188t176 72q49 0 93 -21t73 -57v68h107v-488q0 -113 -67.5 -184t-184.5 -71q-90 0 -154 38.5t-94 102.5l99 47q41 -90 149 -90q67 0 106.5 43.5t39.5 109.5v63q-29 -38 -74 -59.5t-94 -21.5zM298 88q68 0 113 47.5 t45 115.5t-45 115t-113 47q-67 0 -112.5 -47t-45.5 -115t45.5 -115.5t112.5 -47.5zM148 554l119 166h75l119 -166h-91l-66 94l-64 -94h-92z"/>
    <glyph glyph-name="Gbreve" unicode="Ğ" horiz-adv-x="811" d="M414 -10q-163 0 -271 110t-108 265q0 158 107.5 266.5t270.5 108.5q107 0 193.5 -51t134.5 -137l-95 -57q-36 67 -95.5 104t-137.5 37q-117 0 -193 -79t-76 -192t77 -191.5t193 -78.5q101 0 165.5 55.5t82.5 146.5h-262v103h376v-39q0 -155 -99 -263t-263 -108zM406 780 q-79 0 -120 46t-41 120h76q0 -98 85 -100q41 1 63 27t22 73h77q0 -71 -44.5 -118.5t-117.5 -47.5z"/>
    <glyph glyph-name="gbreve" unicode="ğ" horiz-adv-x="609" d="M283 -10q-100 0 -174.5 72.5t-74.5 187.5q0 116 74 188t176 72q49 0 93 -21t73 -57v68h107v-488q0 -113 -67.5 -184t-184.5 -71q-90 0 -154 38.5t-94 102.5l99 47q41 -90 149 -90q67 0 106.5 43.5t39.5 109.5v63q-29 -38 -74 -59.5t-94 -21.5zM298 88q68 0 113 47.5 t45 115.5t-45 115t-113 47q-67 0 -112.5 -47t-45.5 -115t45.5 -115.5t112.5 -47.5zM304 549q-79 0 -120 46t-41 120h76q0 -98 85 -100q41 1 63 27t22 73h77q0 -71 -44.5 -118.5t-117.5 -47.5z"/>
    <glyph glyph-name="Gdotaccent" unicode="Ġ" horiz-adv-x="811" d="M414 -10q-163 0 -271 110t-108 265q0 158 107.5 266.5t270.5 108.5q107 0 193.5 -51t134.5 -137l-95 -57q-36 67 -95.5 104t-137.5 37q-117 0 -193 -79t-76 -192t77 -191.5t193 -78.5q101 0 165.5 55.5t82.5 146.5h-262v103h376v-39q0 -155 -99 -263t-263 -108zM357 788 v138h107v-138h-107z"/>
    <glyph glyph-name="gdotaccent" unicode="ġ" horiz-adv-x="609" d="M283 -10q-100 0 -174.5 72.5t-74.5 187.5q0 116 74 188t176 72q49 0 93 -21t73 -57v68h107v-488q0 -113 -67.5 -184t-184.5 -71q-90 0 -154 38.5t-94 102.5l99 47q41 -90 149 -90q67 0 106.5 43.5t39.5 109.5v63q-29 -38 -74 -59.5t-94 -21.5zM298 88q68 0 113 47.5 t45 115.5t-45 115t-113 47q-67 0 -112.5 -47t-45.5 -115t45.5 -115.5t112.5 -47.5zM239 558v138h107v-138h-107z"/>
    <glyph glyph-name="Gcommaaccent" unicode="Ģ" horiz-adv-x="811" d="M414 -10q-163 0 -271 110t-108 265q0 158 107.5 266.5t270.5 108.5q107 0 193.5 -51t134.5 -137l-95 -57q-36 67 -95.5 104t-137.5 37q-117 0 -193 -79t-76 -192t77 -191.5t193 -78.5q101 0 165.5 55.5t82.5 146.5h-262v103h376v-39q0 -155 -99 -263t-263 -108zM402 -256 h-69l38 204h96z"/>
    <glyph glyph-name="gcommaaccent" unicode="ģ" horiz-adv-x="609" d="M283 -10q-100 0 -174.5 72.5t-74.5 187.5q0 116 74 188t176 72q49 0 93 -21t73 -57v68h107v-488q0 -113 -67.5 -184t-184.5 -71q-90 0 -154 38.5t-94 102.5l99 47q41 -90 149 -90q67 0 106.5 43.5t39.5 109.5v63q-29 -38 -74 -59.5t-94 -21.5zM298 88q68 0 113 47.5 t45 115.5t-45 115t-113 47q-67 0 -112.5 -47t-45.5 -115t45.5 -115.5t112.5 -47.5zM329 550h-69l38 204h96z"/>
    <glyph glyph-name="Hcircumflex" unicode="Ĥ" horiz-adv-x="659" d="M495 0v315h-330v-315h-109v730h109v-311h330v311h108v-730h-108zM172 784l119 166h75l119 -166h-91l-66 94l-64 -94h-92z"/>
    <glyph glyph-name="hcircumflex" unicode="ĥ" horiz-adv-x="565" d="M52 0v730h106v-293q56 73 154 73q95 0 149 -58t54 -160v-292h-109v282q0 64 -30.5 99.5t-90.5 35.5q-55 0 -90.5 -38.5t-35.5 -103.5v-275h-107zM-53 779l119 166h75l119 -166h-91l-66 94l-64 -94h-92z"/>
    <glyph glyph-name="Hbar" unicode="Ħ" horiz-adv-x="709" d="M18 533v83h62v114h109v-114h330v114h108v-114h60v-83h-60v-533h-108v315h-330v-315h-109v533h-62zM189 533v-114h330v114h-330z"/>
    <glyph glyph-name="hbar" unicode="ħ" horiz-adv-x="575" d="M4 566v78h58v86h106v-86h70v-78h-70v-129q56 73 154 73q95 0 149 -58t54 -160v-292h-109v282q0 64 -30.5 99.5t-90.5 35.5q-55 0 -90.5 -38.5t-35.5 -103.5v-275h-107v566h-58z"/>
    <glyph glyph-name="Itilde" unicode="Ĩ" horiz-adv-x="235" d="M63 0v730h109v-730h-109zM-46 784q0 58 28 93t74 35q35 0 79 -26q40 -26 57 -26q33 0 33 48h71q0 -60 -26.5 -94t-76.5 -34q-34 0 -89 32q-32 19 -48 19q-31 0 -31 -47h-71z"/>
    <glyph glyph-name="itilde" unicode="ĩ" horiz-adv-x="210" d="M51 0v500h108v-500h-108zM-64 554q0 58 28 93t74 35q35 0 79 -26q40 -26 57 -26q33 0 33 48h71q0 -60 -26.5 -94t-76.5 -34q-34 0 -89 32q-32 19 -48 19q-31 0 -31 -47h-71z"/>
    <glyph glyph-name="Imacron" unicode="Ī" horiz-adv-x="235" d="M63 0v730h109v-730h-109zM-15 784v77h264v-77h-264z"/>
    <glyph glyph-name="imacron" unicode="ī" horiz-adv-x="210" d="M51 0v500h108v-500h-108zM-27 554v77h264v-77h-264z"/>
    <glyph glyph-name="Ibreve" unicode="Ĭ" horiz-adv-x="235" d="M63 0v730h109v-730h-109zM115 780q-79 0 -120 46t-41 120h76q0 -98 85 -100q41 1 63 27t22 73h77q0 -71 -44.5 -118.5t-117.5 -47.5z"/>
    <glyph glyph-name="ibreve" unicode="ĭ" horiz-adv-x="210" d="M51 0v500h108v-500h-108zM104 549q-79 0 -120 46t-41 120h76q0 -98 85 -100q41 1 63 27t22 73h77q0 -71 -44.5 -118.5t-117.5 -47.5z"/>
    <glyph glyph-name="Iogonek" unicode="Į" horiz-adv-x="235" d="M118 -224q-58 0 -92 31.5t-35 77.5q-1 65 72 124v721h109v-730h-2q-92 -64 -92 -108q0 -18 12 -29t31 -11q28 0 57 29l62 -55q-57 -50 -122 -50z"/>
    <glyph glyph-name="iogonek" unicode="į" horiz-adv-x="210" d="M105 -224q-58 0 -92 31.5t-35 77.5q-1 66 73 125v490h108v-500h-2q-92 -64 -92 -108q0 -18 12 -29t31 -11q28 0 57 29l62 -55q-57 -50 -122 -50zM51 569v140h108v-140h-108z"/>
    <glyph glyph-name="Idotaccent" unicode="İ" horiz-adv-x="235" d="M63 0v730h109v-730h-109zM64 788v138h107v-138h-107z"/>
    <glyph glyph-name="dotlessi" unicode="ı" horiz-adv-x="210" d="M51 0v500h108v-500h-108z"/>
    <glyph glyph-name="IJ" unicode="Ĳ" horiz-adv-x="534" d="M236 0v105h49q50 0 70 21.5t20 76.5v527h108v-525q0 -110 -41.5 -157.5t-146.5 -47.5h-59zM51 0v730h109v-730h-109z"/>
    <glyph glyph-name="ij" unicode="ĳ" horiz-adv-x="394" d="M51 -210v101h78q69 0 88 18.5t19 85.5v505h107v-506q0 -115 -43 -159.5t-155 -44.5h-94zM51 0v500h108v-500h-108zM51 569v140h108v-140h-108zM236 569v140h107v-140h-107z"/>
    <glyph glyph-name="Jcircumflex" unicode="Ĵ" horiz-adv-x="486" d="M233 -10q-75 0 -130.5 37t-76.5 99l104 45q12 -36 38.5 -58t62.5 -22q44 0 68.5 30t24.5 80v529h108v-522q0 -103 -53 -160.5t-146 -57.5zM218 784l119 166h75l119 -166h-91l-66 94l-64 -94h-92z"/>
    <glyph glyph-name="jcircumflex" unicode="ĵ" horiz-adv-x="211" d="M-56 -230v101q69 0 88 18.5t19 85.5v525h109v-526q0 -117 -43 -160.5t-157 -43.5h-16zM-52 554l119 166h75l119 -166h-91l-66 94l-64 -94h-92z"/>
    <glyph glyph-name="Kcommaaccent" unicode="Ķ" horiz-adv-x="631" d="M490 0l-219 367l-106 -127v-240h-109v730h109v-348l290 348h133l-240 -288l266 -442h-124zM309 -256h-69l38 204h96z"/>
    <glyph glyph-name="kcommaaccent" unicode="ķ" horiz-adv-x="539" d="M397 0l-155 222l-84 -92v-130h-106v730h106v-478l225 248h129l-195 -214l200 -286h-120zM258 -251h-69l38 204h96z"/>
    <glyph glyph-name="kgreenlandic" unicode="ĸ" horiz-adv-x="539" d="M397 0l-155 222l-84 -92v-130h-106v500h106v-248l225 248h129l-195 -214l200 -286h-120z"/>
    <glyph glyph-name="Lacute" unicode="Ĺ" horiz-adv-x="506" d="M56 0v730h109v-626h295v-104h-404zM65 784l116 166h114l-148 -166h-82z"/>
    <glyph glyph-name="lacute" unicode="ĺ" horiz-adv-x="211" d="M63 779l116 166h114l-148 -166h-82zM52 0v730h107v-730h-107z"/>
    <glyph glyph-name="Lcommaaccent" unicode="Ļ" horiz-adv-x="506" d="M56 0v730h109v-626h295v-104h-404zM240 -256h-69l38 204h96z"/>
    <glyph glyph-name="lcommaaccent" unicode="ļ" horiz-adv-x="211" d="M91 -251h-69l38 204h96zM52 0v730h107v-730h-107z"/>
    <glyph glyph-name="Lcaron" unicode="Ľ" horiz-adv-x="506" d="M56 0v730h109v-626h295v-104h-404zM261 553l32 177h91l-54 -177h-69z"/>
    <glyph glyph-name="lcaron" unicode="ľ" horiz-adv-x="263" d="M211 553l32 177h91l-54 -177h-69zM49 0v730h107v-730h-107z"/>
    <glyph glyph-name="Ldot" unicode="Ŀ" horiz-adv-x="508" d="M56 0v730h109v-626h295v-104h-404zM353 292v138h107v-138h-107z"/>
    <glyph glyph-name="ldot" unicode="ŀ" horiz-adv-x="377" d="M52 0v730h107v-730h-107zM233 195v138h107v-138h-107z"/>
    <glyph glyph-name="Lslash" unicode="Ł" horiz-adv-x="542" d="M15 316v78l77 23v313h109v-279l126 39v-78l-126 -39v-269h295v-104h-404v339z"/>
    <glyph glyph-name="lslash" unicode="ł" horiz-adv-x="329" d="M19 314v78l90 26v312h108v-280l93 27v-78l-93 -27v-372h-108v340z"/>
    <glyph glyph-name="Nacute" unicode="Ń" horiz-adv-x="713" d="M56 0v730h123l370 -552v552h108v-730h-115l-377 561v-561h-109zM320 784l116 166h114l-148 -166h-82z"/>
    <glyph glyph-name="nacute" unicode="ń" horiz-adv-x="564" d="M51 0v500h106v-65q55 75 154 75q95 0 149 -58t54 -160v-292h-108v283q0 63 -31 98.5t-90 35.5q-55 0 -91 -38.5t-36 -103.5v-275h-107zM245 554l116 166h114l-148 -166h-82z"/>
    <glyph glyph-name="Ncommaaccent" unicode="Ņ" horiz-adv-x="713" d="M56 0v730h123l370 -552v552h108v-730h-115l-377 561v-561h-109zM337 -256h-69l38 204h96z"/>
    <glyph glyph-name="ncommaaccent" unicode="ņ" horiz-adv-x="564" d="M51 0v500h106v-65q55 75 154 75q95 0 149 -58t54 -160v-292h-108v283q0 63 -31 98.5t-90 35.5q-55 0 -91 -38.5t-36 -103.5v-275h-107zM282 -251h-69l38 204h96z"/>
    <glyph glyph-name="Ncaron" unicode="Ň" horiz-adv-x="713" d="M56 0v730h123l370 -552v552h108v-730h-115l-377 561v-561h-109zM320 784l-119 166h92l64 -94l66 94h91l-119 -166h-75z"/>
    <glyph glyph-name="ncaron" unicode="ň" horiz-adv-x="564" d="M51 0v500h106v-65q55 75 154 75q95 0 149 -58t54 -160v-292h-108v283q0 63 -31 98.5t-90 35.5q-55 0 -91 -38.5t-36 -103.5v-275h-107zM247 554l-119 166h92l64 -94l66 94h91l-119 -166h-75z"/>
    <glyph glyph-name="Eng" unicode="Ŋ" horiz-adv-x="713" d="M448 -213v105h13q52 1 70 21t18 75v26l-384 551v-565h-109v730h123l370 -532v532h108v-740q0 -109 -42 -156t-144 -47h-23z"/>
    <glyph glyph-name="eng" unicode="ŋ" horiz-adv-x="564" d="M298 -230v101q69 0 88.5 18.5t19.5 85.5v308q0 63 -31 98.5t-90 35.5q-55 0 -91 -38.5t-36 -103.5v-275h-107v500h106v-65q55 75 154 75q95 0 149 -58t54 -160v-318q0 -117 -43 -160.5t-157 -43.5h-16z"/>
    <glyph glyph-name="Omacron" unicode="Ō" horiz-adv-x="819" d="M272 784v77h264v-77h-264zM409 -10q-155 0 -264.5 110t-109.5 265t109.5 265t264.5 110q156 0 265.5 -110t109.5 -265t-109.5 -265t-265.5 -110zM409 96q112 0 189 78.5t77 190.5t-77 191t-189 79q-111 0 -188 -79t-77 -191t77 -190.5t188 -78.5z"/>
    <glyph glyph-name="omacron" unicode="ō" horiz-adv-x="587" d="M162 554v77h264v-77h-264zM293 -10q-108 0 -183.5 75.5t-75.5 184.5t75.5 184.5t183.5 75.5t184 -75.5t76 -184.5t-76 -184.5t-184 -75.5zM293 90q64 0 109 47t45 113t-45 113t-109 47t-108.5 -47t-44.5 -113t44.5 -113t108.5 -47z"/>
    <glyph glyph-name="Obreve" unicode="Ŏ" horiz-adv-x="819" d="M409 -10q-155 0 -264.5 110t-109.5 265t109.5 265t264.5 110q156 0 265.5 -110t109.5 -265t-109.5 -265t-265.5 -110zM409 96q112 0 189 78.5t77 190.5t-77 191t-189 79q-111 0 -188 -79t-77 -191t77 -190.5t188 -78.5zM403 780q-79 0 -120 46t-41 120h76q0 -98 85 -100 q41 1 63 27t22 73h77q0 -71 -44.5 -118.5t-117.5 -47.5z"/>
    <glyph glyph-name="obreve" unicode="ŏ" horiz-adv-x="587" d="M293 -10q-108 0 -183.5 75.5t-75.5 184.5t75.5 184.5t183.5 75.5t184 -75.5t76 -184.5t-76 -184.5t-184 -75.5zM293 90q64 0 109 47t45 113t-45 113t-109 47t-108.5 -47t-44.5 -113t44.5 -113t108.5 -47zM293 549q-79 0 -120 46t-41 120h76q0 -98 85 -100q41 1 63 27 t22 73h77q0 -71 -44.5 -118.5t-117.5 -47.5z"/>
    <glyph glyph-name="Ohungarumlaut" unicode="Ő" horiz-adv-x="819" d="M280 784l115 166h108l-148 -166h-75zM434 784l116 166h108l-148 -166h-76zM409 -10q-155 0 -264.5 110t-109.5 265t109.5 265t264.5 110q156 0 265.5 -110t109.5 -265t-109.5 -265t-265.5 -110zM409 96q112 0 189 78.5t77 190.5t-77 191t-189 79q-111 0 -188 -79 t-77 -191t77 -190.5t188 -78.5z"/>
    <glyph glyph-name="ohungarumlaut" unicode="ő" horiz-adv-x="587" d="M176 554l115 166h108l-148 -166h-75zM330 554l116 166h108l-148 -166h-76zM293 -10q-108 0 -183.5 75.5t-75.5 184.5t75.5 184.5t183.5 75.5t184 -75.5t76 -184.5t-76 -184.5t-184 -75.5zM293 90q64 0 109 47t45 113t-45 113t-109 47t-108.5 -47t-44.5 -113t44.5 -113 t108.5 -47z"/>
    <glyph glyph-name="OE" unicode="Œ" horiz-adv-x="1159" d="M675 0v109q-104 -119 -266 -119q-155 0 -264.5 110t-109.5 265t109.5 265t264.5 110q162 0 266 -120v110h438v-103h-329v-209h329v-103h-329v-211h329v-104h-438zM409 97q111 0 188.5 78.5t77.5 189.5v11q-5 108 -81.5 183t-184.5 75q-111 0 -188.5 -79t-77.5 -190 t77.5 -189.5t188.5 -78.5z"/>
    <glyph glyph-name="oe" unicode="œ" horiz-adv-x="1001" d="M293 -10q-108 0 -183.5 75.5t-75.5 184.5t75.5 184.5t183.5 75.5q65 0 119 -28.5t89 -77.5q73 106 207 106q111 0 184.5 -72.5t73.5 -183.5v-38h-415q10 -59 54 -95t109 -36q50 0 88.5 25t59.5 68l90 -40q-33 -69 -95 -108.5t-144 -39.5q-144 0 -214 104 q-34 -49 -88 -76.5t-118 -27.5zM293 90q65 0 110 47t45 113q0 67 -45 113.5t-110 46.5t-109.5 -46.5t-44.5 -113.5q0 -66 44.5 -113t109.5 -47zM709 416q-54 0 -94.5 -30t-56.5 -80h299q-13 52 -52.5 81t-95.5 29z"/>
    <glyph glyph-name="Racute" unicode="Ŕ" horiz-adv-x="584" d="M56 0v730h227q114 0 186 -68t72 -170q0 -76 -41.5 -137t-116.5 -84l174 -271h-125l-220 348h59q76 0 118.5 44t42.5 100q0 63 -41 100t-119 37h-107v-629h-109zM213 784l116 166h114l-148 -166h-82z"/>
    <glyph glyph-name="racute" unicode="ŕ" horiz-adv-x="390" d="M51 0v500h107v-77q41 77 138 77h59v-102h-75q-65 0 -93 -35.5t-28 -114.5v-248h-108zM163 554l116 166h114l-148 -166h-82z"/>
    <glyph glyph-name="Rcommaaccent" unicode="Ŗ" horiz-adv-x="584" d="M56 0v730h227q114 0 186 -68t72 -170q0 -76 -41.5 -137t-116.5 -84l174 -271h-125l-220 348h59q76 0 118.5 44t42.5 100q0 63 -41 100t-119 37h-107v-629h-109zM283 -256h-69l38 204h96z"/>
    <glyph glyph-name="rcommaaccent" unicode="ŗ" horiz-adv-x="390" d="M51 0v500h107v-77q41 77 138 77h59v-102h-75q-65 0 -93 -35.5t-28 -114.5v-248h-108zM95 -251h-69l38 204h96z"/>
    <glyph glyph-name="Rcaron" unicode="Ř" horiz-adv-x="584" d="M56 0v730h227q114 0 186 -68t72 -170q0 -76 -41.5 -137t-116.5 -84l174 -271h-125l-220 348h59q76 0 118.5 44t42.5 100q0 63 -41 100t-119 37h-107v-629h-109zM233 784l-119 166h92l64 -94l66 94h91l-119 -166h-75z"/>
    <glyph glyph-name="rcaron" unicode="ř" horiz-adv-x="390" d="M51 0v500h107v-77q41 77 138 77h59v-102h-75q-65 0 -93 -35.5t-28 -114.5v-248h-108zM162 554l-119 166h92l64 -94l66 94h91l-119 -166h-75z"/>
    <glyph glyph-name="Sacute" unicode="Ś" horiz-adv-x="563" d="M231 784l116 166h114l-148 -166h-82zM285 -10q-169 0 -272 133l96 75q66 -106 175 -106q59 0 95.5 33.5t36.5 83.5q0 22 -10.5 40t-22 29t-38.5 23t-42 17.5t-51 16.5q-37 12 -60.5 21t-54 26.5t-48 37.5t-30.5 51t-13 70q0 84 67 141.5t167 57.5q143 0 236 -108l-89 -66 q-50 78 -147 78q-55 0 -88.5 -28.5t-33.5 -72.5q0 -20 10 -37t21 -27t39 -22.5t40.5 -17t50.5 -17.5q47 -16 76.5 -29.5t64 -38t51.5 -61t17 -84.5q0 -88 -67 -153.5t-176 -65.5z"/>
    <glyph glyph-name="sacute" unicode="ś" horiz-adv-x="471" d="M158 554l116 166h114l-148 -166h-82zM235 -10q-153 0 -219 116l96 50q43 -73 128 -73q43 0 67 19t24 47q0 37 -109 59l-12 3q-30 6 -51 12.5t-46 18t-40 26.5t-25.5 38.5t-10.5 53.5q0 62 54 107t139 44q138 0 201 -97l-89 -49q-37 57 -112 57q-41 0 -63.5 -17.5 t-22.5 -42.5q0 -13 7 -22t26.5 -16.5t34.5 -11.5t50 -12q38 -8 63 -16.5t54 -25t43.5 -43.5t14.5 -64q0 -60 -52 -111t-150 -50z"/>
    <glyph glyph-name="Scircumflex" unicode="Ŝ" horiz-adv-x="563" d="M285 -10q-169 0 -272 133l96 75q66 -106 175 -106q59 0 95.5 33.5t36.5 83.5q0 22 -10.5 40t-22 29t-38.5 23t-42 17.5t-51 16.5q-37 12 -60.5 21t-54 26.5t-48 37.5t-30.5 51t-13 70q0 84 67 141.5t167 57.5q143 0 236 -108l-89 -66q-50 78 -147 78q-55 0 -88.5 -28.5 t-33.5 -72.5q0 -20 10 -37t21 -27t39 -22.5t40.5 -17t50.5 -17.5q47 -16 76.5 -29.5t64 -38t51.5 -61t17 -84.5q0 -88 -67 -153.5t-176 -65.5zM124 784l119 166h75l119 -166h-91l-66 94l-64 -94h-92z"/>
    <glyph glyph-name="scircumflex" unicode="ŝ" horiz-adv-x="471" d="M235 -10q-153 0 -219 116l96 50q43 -73 128 -73q43 0 67 19t24 47q0 37 -109 59l-12 3q-30 6 -51 12.5t-46 18t-40 26.5t-25.5 38.5t-10.5 53.5q0 62 54 107t139 44q138 0 201 -97l-89 -49q-37 57 -112 57q-41 0 -63.5 -17.5t-22.5 -42.5q0 -13 7 -22t26.5 -16.5 t34.5 -11.5t50 -12q38 -8 63 -16.5t54 -25t43.5 -43.5t14.5 -64q0 -60 -52 -111t-150 -50zM54 554l119 166h75l119 -166h-91l-66 94l-64 -94h-92z"/>
    <glyph glyph-name="Scedilla" unicode="Ş" horiz-adv-x="563" d="M279 -237q-82 0 -144 57l69 42q43 -34 81 -34q25 0 43 10t18 25q0 32 -64 32h-46v98q-136 16 -223 130l96 75q66 -106 175 -106q59 0 95.5 33.5t36.5 83.5q0 22 -10.5 40t-22 29t-38.5 23t-42 17.5t-51 16.5q-37 12 -60.5 21t-54 26.5t-48 37.5t-30.5 51t-13 70 q0 84 67 141.5t167 57.5q143 0 236 -108l-89 -66q-50 78 -147 78q-55 0 -88.5 -28.5t-33.5 -72.5q0 -20 10 -37t21 -27t39 -22.5t40.5 -17t50.5 -17.5q47 -16 76.5 -29.5t64 -38t51.5 -61t17 -84.5q0 -83 -59.5 -146t-157.5 -71v-45q53 1 85 -21.5t32 -58.5 q0 -45 -43.5 -74.5t-105.5 -29.5z"/>
    <glyph glyph-name="scedilla" unicode="ş" horiz-adv-x="471" d="M213 -237q-82 0 -144 57l69 42q43 -34 81 -34q25 0 43 10t18 25q0 32 -64 32h-46v101q-105 21 -154 110l96 50q43 -73 128 -73q43 0 67 19t24 47q0 37 -109 59l-12 3q-30 6 -51 12.5t-46 18t-40 26.5t-25.5 38.5t-10.5 53.5q0 62 54 107t139 44q138 0 201 -97l-89 -49 q-37 57 -112 57q-41 0 -63.5 -17.5t-22.5 -42.5q0 -13 7 -22t26.5 -16.5t34.5 -11.5t50 -12q38 -8 63 -16.5t54 -25t43.5 -43.5t14.5 -64q0 -59 -49.5 -108.5t-142.5 -52.5v-43q53 1 85 -21.5t32 -58.5q0 -45 -43.5 -74.5t-105.5 -29.5z"/>
    <glyph glyph-name="Scaron" unicode="Š" horiz-adv-x="563" d="M285 -10q-169 0 -272 133l96 75q66 -106 175 -106q59 0 95.5 33.5t36.5 83.5q0 22 -10.5 40t-22 29t-38.5 23t-42 17.5t-51 16.5q-37 12 -60.5 21t-54 26.5t-48 37.5t-30.5 51t-13 70q0 84 67 141.5t167 57.5q143 0 236 -108l-89 -66q-50 78 -147 78q-55 0 -88.5 -28.5 t-33.5 -72.5q0 -20 10 -37t21 -27t39 -22.5t40.5 -17t50.5 -17.5q47 -16 76.5 -29.5t64 -38t51.5 -61t17 -84.5q0 -88 -67 -153.5t-176 -65.5zM247 784l-119 166h92l64 -94l66 94h91l-119 -166h-75z"/>
    <glyph glyph-name="scaron" unicode="š" horiz-adv-x="471" d="M235 -10q-153 0 -219 116l96 50q43 -73 128 -73q43 0 67 19t24 47q0 37 -109 59l-12 3q-30 6 -51 12.5t-46 18t-40 26.5t-25.5 38.5t-10.5 53.5q0 62 54 107t139 44q138 0 201 -97l-89 -49q-37 57 -112 57q-41 0 -63.5 -17.5t-22.5 -42.5q0 -13 7 -22t26.5 -16.5 t34.5 -11.5t50 -12q38 -8 63 -16.5t54 -25t43.5 -43.5t14.5 -64q0 -60 -52 -111t-150 -50zM175 554l-119 166h92l64 -94l66 94h91l-119 -166h-75z"/>
    <glyph glyph-name="Tcommaaccent" unicode="Ţ" horiz-adv-x="603" d="M285 -256h-69l38 204h96zM249 0v628h-207v102h522v-102h-207v-628h-108z"/>
    <glyph glyph-name="tcommaaccent" unicode="ţ" horiz-adv-x="367" d="M30 404v96h85v118l108 59v-177h106v-96h-106v-199q0 -68 18.5 -86t87.5 -18v-101h-16q-114 0 -156 43.5t-42 160.5v200h-85zM187 -251h-69l38 204h96z"/>
    <glyph glyph-name="Tcaron" unicode="Ť" horiz-adv-x="603" d="M249 0v628h-207v102h522v-102h-207v-628h-108zM260 784l-119 166h92l64 -94l66 94h91l-119 -166h-75z"/>
    <glyph glyph-name="tcaron" unicode="ť" horiz-adv-x="367" d="M30 404v96h85v118l108 59v-177h106v-96h-106v-199q0 -68 18.5 -86t87.5 -18v-101h-16q-114 0 -156 43.5t-42 160.5v200h-85zM275 561l32 177h91l-54 -177h-69z"/>
    <glyph glyph-name="Tbar" unicode="Ŧ" horiz-adv-x="603" d="M139 338v103h110v187h-207v102h522v-102h-207v-187h107v-103h-107v-338h-108v338h-110z"/>
    <glyph glyph-name="tbar" unicode="ŧ" horiz-adv-x="367" d="M30 410v90h85v118l108 59v-177h106v-90h-106v-105h104v-88h-104v-15q0 -68 18.5 -86t87.5 -18v-98h-16q-114 0 -156 43.5t-42 160.5v13h-78v88h78v105h-85z"/>
    <glyph glyph-name="Utilde" unicode="Ũ" horiz-adv-x="620" d="M310 -10q-113 0 -184.5 70t-71.5 186v484h109v-491q0 -61 42 -104t104 -43q63 0 106 43t43 104v491h108v-484q0 -116 -72 -186t-184 -70zM135 784q0 58 28 93t74 35q35 0 79 -26q40 -26 57 -26q33 0 33 48h71q0 -60 -26.5 -94t-76.5 -34q-34 0 -89 32q-32 19 -48 19 q-31 0 -31 -47h-71z"/>
    <glyph glyph-name="utilde" unicode="ũ" horiz-adv-x="564" d="M255 -10q-98 0 -151.5 58t-53.5 161v291h109v-282q0 -63 31 -98.5t90 -35.5q54 0 90 38.5t36 102.5v275h107v-500h-106v65q-55 -75 -152 -75zM109 554q0 58 28 93t74 35q35 0 79 -26q40 -26 57 -26q33 0 33 48h71q0 -60 -26.5 -94t-76.5 -34q-34 0 -89 32q-32 19 -48 19 q-31 0 -31 -47h-71z"/>
    <glyph glyph-name="Umacron" unicode="Ū" horiz-adv-x="620" d="M310 -10q-113 0 -184.5 70t-71.5 186v484h109v-491q0 -61 42 -104t104 -43q63 0 106 43t43 104v491h108v-484q0 -116 -72 -186t-184 -70zM176 784v77h264v-77h-264z"/>
    <glyph glyph-name="umacron" unicode="ū" horiz-adv-x="564" d="M255 -10q-98 0 -151.5 58t-53.5 161v291h109v-282q0 -63 31 -98.5t90 -35.5q54 0 90 38.5t36 102.5v275h107v-500h-106v65q-55 -75 -152 -75zM148 554v77h264v-77h-264z"/>
    <glyph glyph-name="Ubreve" unicode="Ŭ" horiz-adv-x="620" d="M310 -10q-113 0 -184.5 70t-71.5 186v484h109v-491q0 -61 42 -104t104 -43q63 0 106 43t43 104v491h108v-484q0 -116 -72 -186t-184 -70zM309 780q-79 0 -120 46t-41 120h76q0 -98 85 -100q41 1 63 27t22 73h77q0 -71 -44.5 -118.5t-117.5 -47.5z"/>
    <glyph glyph-name="ubreve" unicode="ŭ" horiz-adv-x="564" d="M255 -10q-98 0 -151.5 58t-53.5 161v291h109v-282q0 -63 31 -98.5t90 -35.5q54 0 90 38.5t36 102.5v275h107v-500h-106v65q-55 -75 -152 -75zM278 549q-79 0 -120 46t-41 120h76q0 -98 85 -100q41 1 63 27t22 73h77q0 -71 -44.5 -118.5t-117.5 -47.5z"/>
    <glyph glyph-name="Uring" unicode="Ů" horiz-adv-x="620" d="M306 755q-46 0 -78.5 33t-32.5 79q0 47 32.5 80t78.5 33q48 0 81 -33t33 -80t-33 -79.5t-81 -32.5zM306 824q19 0 32 12.5t13 30.5t-13 31.5t-32 13.5q-17 0 -30 -13.5t-13 -31.5t13 -30.5t30 -12.5zM310 -10q-113 0 -184.5 70t-71.5 186v484h109v-491q0 -61 42 -104 t104 -43q63 0 106 43t43 104v491h108v-484q0 -116 -72 -186t-184 -70z"/>
    <glyph glyph-name="uring" unicode="ů" horiz-adv-x="564" d="M255 -10q-98 0 -151.5 58t-53.5 161v291h109v-282q0 -63 31 -98.5t90 -35.5q54 0 90 38.5t36 102.5v275h107v-500h-106v65q-55 -75 -152 -75zM280 550q-46 0 -78.5 33t-32.5 79q0 47 32.5 80t78.5 33q48 0 81 -33t33 -80t-33 -79.5t-81 -32.5zM280 619q19 0 32 12.5 t13 30.5t-13 31.5t-32 13.5q-17 0 -30 -13.5t-13 -31.5t13 -30.5t30 -12.5z"/>
    <glyph glyph-name="Uhungarumlaut" unicode="Ű" horiz-adv-x="620" d="M310 -10q-113 0 -184.5 70t-71.5 186v484h109v-491q0 -61 42 -104t104 -43q63 0 106 43t43 104v491h108v-484q0 -116 -72 -186t-184 -70zM176 784l115 166h108l-148 -166h-75zM330 784l116 166h108l-148 -166h-76z"/>
    <glyph glyph-name="uhungarumlaut" unicode="ű" horiz-adv-x="564" d="M255 -10q-98 0 -151.5 58t-53.5 161v291h109v-282q0 -63 31 -98.5t90 -35.5q54 0 90 38.5t36 102.5v275h107v-500h-106v65q-55 -75 -152 -75zM313 554l116 166h108l-148 -166h-76zM159 554l115 166h108l-148 -166h-75z"/>
    <glyph glyph-name="Uogonek" unicode="Ų" horiz-adv-x="620" d="M317 -219q-61 0 -100 30t-39 75q0 60 70 110q-88 18 -141 84.5t-53 165.5v484h109v-491q0 -61 42 -104t104 -43q63 0 106 43t43 104v491h108v-484q0 -92 -46.5 -156t-124.5 -88q-80 -50 -103.5 -70.5t-23.5 -41.5q0 -35 49 -35q30 0 67 31l71 -48q-64 -57 -138 -57z"/>
    <glyph glyph-name="uogonek" unicode="ų" horiz-adv-x="564" d="M458 -224q-58 0 -92 31.5t-35 77.5q-1 67 76 128v52q-55 -75 -152 -75q-98 0 -151.5 58t-53.5 161v291h109v-282q0 -63 31 -98.5t90 -35.5q54 0 90 38.5t36 102.5v275h107v-500h-3q-92 -64 -92 -108q0 -18 12 -29t31 -11q28 0 57 29l62 -55q-57 -50 -122 -50z"/>
    <glyph glyph-name="Wcircumflex" unicode="Ŵ" horiz-adv-x="1045" d="M235 0l-210 730h114l155 -559l176 559h106l175 -560l159 560h110l-215 -730h-108l-175 561l-176 -561h-111zM364 784l119 166h75l119 -166h-91l-66 94l-64 -94h-92z"/>
    <glyph glyph-name="wcircumflex" unicode="ŵ" horiz-adv-x="874" d="M197 0l-166 501l109 -1l114 -355l131 355h106l129 -355l118 355h109l-174 -500h-103l-133 357l-135 -357h-105zM281 554l119 166h75l119 -166h-91l-66 94l-64 -94h-92z"/>
    <glyph glyph-name="Ycircumflex" unicode="Ŷ" horiz-adv-x="624" d="M258 0v346l-237 384h120l171 -280l172 280h120l-238 -385v-345h-108zM154 784l119 166h75l119 -166h-91l-66 94l-64 -94h-92z"/>
    <glyph glyph-name="ycircumflex" unicode="ŷ" horiz-adv-x="556" d="M121 -231l107 257l-207 474h115l146 -347l138 347h113l-302 -731h-110zM120 554l119 166h75l119 -166h-91l-66 94l-64 -94h-92z"/>
    <glyph glyph-name="Ydieresis" unicode="Ÿ" horiz-adv-x="624" d="M258 0v346l-237 384h120l171 -280l172 280h120l-238 -385v-345h-108zM178 788v138h107v-138h-107zM339 788v138h107v-138h-107z"/>
    <glyph glyph-name="Zacute" unicode="Ź" horiz-adv-x="578" d="M48 0v100l355 527h-344v103h472v-99l-356 -527h356v-104h-483zM237 784l116 166h114l-148 -166h-82z"/>
    <glyph glyph-name="zacute" unicode="ź" horiz-adv-x="523" d="M40 0v98l300 306h-293v96h432v-98l-300 -306h304v-96h-443zM217 554l116 166h114l-148 -166h-82z"/>
    <glyph glyph-name="Zdotaccent" unicode="Ż" horiz-adv-x="578" d="M48 0v100l355 527h-344v103h472v-99l-356 -527h356v-104h-483zM241 788v138h107v-138h-107z"/>
    <glyph glyph-name="zdotaccent" unicode="ż" horiz-adv-x="523" d="M40 0v98l300 306h-293v96h432v-98l-300 -306h304v-96h-443zM214 558v138h107v-138h-107z"/>
    <glyph glyph-name="Zcaron" unicode="Ž" horiz-adv-x="578" d="M48 0v100l355 527h-344v103h472v-99l-356 -527h356v-104h-483zM255 784l-119 166h92l64 -94l66 94h91l-119 -166h-75z"/>
    <glyph glyph-name="zcaron" unicode="ž" horiz-adv-x="523" d="M40 0v98l300 306h-293v96h432v-98l-300 -306h304v-96h-443zM230 554l-119 166h92l64 -94l66 94h91l-119 -166h-75z"/>
    <glyph glyph-name="florin" unicode="ƒ" d="M79 322v96h176l33 107q33 114 89.5 159.5t150.5 45.5h9v-99q-61 0 -91 -23t-49 -87l-32 -103h154v-96h-183l-35 -116q-35 -116 -86 -161t-148 -45h-15v100q62 0 91 22.5t49 87.5l34 112h-147z"/>
    <glyph glyph-name="Aringacute" unicode="Ǻ" horiz-adv-x="696" d="M24 0l253 688q-44 34 -44 90q0 47 32.5 80t78.5 33q48 0 81 -33t33 -80q0 -54 -40 -86l254 -692h-113l-57 156h-308l-56 -156h-114zM348 581l-116 -321h233zM301 926l116 166h114l-148 -166h-82zM344 735q19 0 32 12.5t13 30.5t-13 31.5t-32 13.5q-17 0 -30 -13.5 t-13 -31.5t13 -30.5t30 -12.5z"/>
    <glyph glyph-name="aringacute" unicode="ǻ" horiz-adv-x="607" d="M283 -10q-100 0 -174.5 72.5t-74.5 187.5q0 116 74 188t176 72q49 0 93.5 -20t72.5 -55v65h107v-500h-107v69q-29 -37 -73.5 -58t-93.5 -21zM298 88q68 0 113 47.5t45 115.5t-45 115t-113 47q-67 0 -112.5 -47t-45.5 -115t45.5 -115.5t112.5 -47.5zM295 547 q-46 0 -78.5 33t-32.5 79q0 47 32.5 80t78.5 33q48 0 81 -33t33 -80t-33 -79.5t-81 -32.5zM251 803l116 166h114l-148 -166h-82zM295 616q19 0 32 12.5t13 30.5t-13 31.5t-32 13.5q-17 0 -30 -13.5t-13 -31.5t13 -30.5t30 -12.5z"/>
    <glyph glyph-name="AEacute" unicode="Ǽ" horiz-adv-x="1016" d="M42 0l339 730h567v-103h-428l51 -209h377v-103h-352l51 -211h301v-104h-389l-37 154h-292l-71 -154h-117zM423 572l-147 -318h222zM527 784l116 166h114l-148 -166h-82z"/>
    <glyph glyph-name="aeacute" unicode="ǽ" horiz-adv-x="922" d="M635 -10q-143 0 -217 107q-26 -46 -81 -76.5t-124 -30.5q-91 0 -135.5 38t-45.5 102q0 66 44 102t124 56q13 3 35.5 8.5t35.5 8.5t31 8t28 10t20.5 11t15 14t4.5 18q0 26 -26.5 43t-74.5 17q-61 0 -93.5 -28t-32.5 -72v-3h-98v2q0 86 58.5 135.5t161.5 49.5 q131 0 181 -76q74 76 184 76q111 0 184 -72.5t73 -183.5v-38h-414q10 -59 53.5 -95t108.5 -36q50 0 89 25.5t59 67.5l90 -40q-32 -69 -94.5 -108.5t-143.5 -39.5zM218 79q59 0 104 40t52 78v33v14l-2 14q-10 -23 -121 -47q-59 -13 -85.5 -29.5t-26.5 -48.5q0 -54 79 -54z M630 416q-54 0 -94 -30t-56 -80h299q-13 52 -52.5 81t-96.5 29zM410 554l116 166h114l-148 -166h-82z"/>
    <glyph glyph-name="Oslashacute" unicode="Ǿ" horiz-adv-x="819" d="M61 0l81 102q-107 110 -107 263q0 155 109.5 265t264.5 110q101 0 193 -53l34 43h126l-83 -105q105 -108 105 -260q0 -155 -109.5 -265t-265.5 -110q-103 0 -190 52l-33 -42h-125zM144 365q0 -102 65 -178l327 415q-60 33 -127 33q-111 0 -188 -79t-77 -191zM409 96 q112 0 189 78.5t77 190.5q0 99 -63 175l-327 -414q58 -30 124 -30zM355 784l116 166h114l-148 -166h-82z"/>
    <glyph glyph-name="oslashacute" unicode="ǿ" horiz-adv-x="587" d="M293 -10q-68 0 -125 31l-17 -21h-111l60 76q-66 74 -66 174q0 109 75.5 184.5t183.5 75.5q67 0 124 -31l17 21h111l-59 -75q67 -75 67 -175q0 -109 -76 -184.5t-184 -75.5zM293 90q65 0 110 47t45 113q0 52 -28 92l-188 -240q27 -12 61 -12zM139 250q0 -51 26 -91 l188 239q-27 12 -60 12q-65 0 -109.5 -46.5t-44.5 -113.5zM245 554l116 166h114l-148 -166h-82z"/>
    <glyph glyph-name="Scommaaccent" unicode="Ș" horiz-adv-x="563" d="M269 -251h-69l38 204h96zM285 -10q-169 0 -272 133l96 75q66 -106 175 -106q59 0 95.5 33.5t36.5 83.5q0 22 -10.5 40t-22 29t-38.5 23t-42 17.5t-51 16.5q-37 12 -60.5 21t-54 26.5t-48 37.5t-30.5 51t-13 70q0 84 67 141.5t167 57.5q143 0 236 -108l-89 -66 q-50 78 -147 78q-55 0 -88.5 -28.5t-33.5 -72.5q0 -20 10 -37t21 -27t39 -22.5t40.5 -17t50.5 -17.5q47 -16 76.5 -29.5t64 -38t51.5 -61t17 -84.5q0 -88 -67 -153.5t-176 -65.5z"/>
    <glyph glyph-name="scommaaccent" unicode="ș" horiz-adv-x="471" d="M203 -254h-69l38 204h96zM235 -10q-153 0 -219 116l96 50q43 -73 128 -73q43 0 67 19t24 47q0 37 -109 59l-12 3q-30 6 -51 12.5t-46 18t-40 26.5t-25.5 38.5t-10.5 53.5q0 62 54 107t139 44q138 0 201 -97l-89 -49q-37 57 -112 57q-41 0 -63.5 -17.5t-22.5 -42.5 q0 -13 7 -22t26.5 -16.5t34.5 -11.5t50 -12q38 -8 63 -16.5t54 -25t43.5 -43.5t14.5 -64q0 -60 -52 -111t-150 -50z"/>
    <glyph glyph-name="dotlessj" unicode="ȷ" horiz-adv-x="211" d="M-56 -230v101q69 0 88 18.5t19 85.5v525h109v-526q0 -117 -43 -160.5t-157 -43.5h-16z"/>
    <glyph glyph-name="circumflex" unicode="ˆ" horiz-adv-x="485" d="M86 554l119 166h75l119 -166h-91l-66 94l-64 -94h-92z"/>
    <glyph glyph-name="caron" unicode="ˇ" horiz-adv-x="485" d="M204 554l-119 166h92l64 -94l66 94h91l-119 -166h-75z"/>
    <glyph glyph-name="breve" unicode="˘" horiz-adv-x="485" d="M241 549q-79 0 -120 46t-41 120h76q0 -98 85 -100q41 1 63 27t22 73h77q0 -71 -44.5 -118.5t-117.5 -47.5z"/>
    <glyph glyph-name="dotaccent" unicode="˙" horiz-adv-x="488" d="M181 558v138h107v-138h-107z"/>
    <glyph glyph-name="ring" unicode="˚" horiz-adv-x="485" d="M240 550q-46 0 -78.5 33t-32.5 79q0 47 32.5 80t78.5 33q48 0 81 -33t33 -80t-33 -79.5t-81 -32.5zM240 619q19 0 32 12.5t13 30.5t-13 31.5t-32 13.5q-17 0 -30 -13.5t-13 -31.5t13 -30.5t30 -12.5z"/>
    <glyph glyph-name="ogonek" unicode="˛" horiz-adv-x="485" d="M237 -222q-61 0 -100 30t-39 75q0 41 32 77.5t113 76.5l72 -38q-80 -50 -103.5 -70.5t-23.5 -41.5q0 -35 49 -35q30 0 67 31l71 -48q-64 -57 -138 -57z"/>
    <glyph glyph-name="tilde" unicode="˜" horiz-adv-x="485" d="M69 554q0 58 28 93t74 35q35 0 79 -26q40 -26 57 -26q33 0 33 48h71q0 -60 -26.5 -94t-76.5 -34q-34 0 -89 32q-32 19 -48 19q-31 0 -31 -47h-71z"/>
    <glyph glyph-name="hungarumlaut" unicode="˝" horiz-adv-x="485" d="M53 554l115 166h108l-148 -166h-75zM207 554l116 166h108l-148 -166h-76z"/>
    <glyph glyph-name="uni0328" unicode="̨" horiz-adv-x="485" d="M265 -224q-58 0 -92 31.5t-35 77.5q-1 77 109 152l70 -37q-92 -64 -92 -108q0 -18 12 -29t31 -11q28 0 57 29l62 -55q-57 -50 -122 -50z"/>
    <glyph glyph-name="pi" unicode="π" horiz-adv-x="766" d="M40 626v104h687v-104h-136v-423q0 -56 17.5 -77t66.5 -21h34v-105h-43q-105 0 -144 47t-40 158l1 421h-209v-626h-108v626h-126z"/>
    <glyph glyph-name="pi" unicode="ϖ" horiz-adv-x="766" d="M40 626v104h687v-104h-136v-423q0 -56 17.5 -77t66.5 -21h34v-105h-43q-105 0 -144 47t-40 158l1 421h-209v-626h-108v626h-126z"/>
    <glyph glyph-name="uni0E3F" unicode="฿" horiz-adv-x="508" d="M49 64v596h172v70h68v-71q85 -5 132 -47.5t47 -116.5q0 -82 -71 -123q77 -39 77 -133q1 -79 -49 -124t-136 -50v-65h-68v64h-172zM156 320v-160h65v160h-65zM366 241q0 68 -77 77v-157q36 5 56.5 26.5t20.5 53.5zM156 563v-144h65v144h-65zM361 493q0 61 -72 69v-142 q72 8 72 73z"/>
    <glyph glyph-name="Wgrave" unicode="Ẁ" horiz-adv-x="1045" d="M235 0l-210 730h114l155 -559l176 559h106l175 -560l159 560h110l-215 -730h-108l-175 561l-176 -561h-111zM477 784l-148 166h114l116 -166h-82z"/>
    <glyph glyph-name="wgrave" unicode="ẁ" horiz-adv-x="874" d="M197 0l-166 501l109 -1l114 -355l131 355h106l129 -355l118 355h109l-174 -500h-103l-133 357l-135 -357h-105zM396 554l-148 166h114l116 -166h-82z"/>
    <glyph glyph-name="Wacute" unicode="Ẃ" horiz-adv-x="1045" d="M235 0l-210 730h114l155 -559l176 559h106l175 -560l159 560h110l-215 -730h-108l-175 561l-176 -561h-111zM475 784l116 166h114l-148 -166h-82z"/>
    <glyph glyph-name="wacute" unicode="ẃ" horiz-adv-x="874" d="M197 0l-166 501l109 -1l114 -355l131 355h106l129 -355l118 355h109l-174 -500h-103l-133 357l-135 -357h-105zM396 554l116 166h114l-148 -166h-82z"/>
    <glyph glyph-name="Wdieresis" unicode="Ẅ" horiz-adv-x="1045" d="M235 0l-210 730h114l155 -559l176 559h106l175 -560l159 560h110l-215 -730h-108l-175 561l-176 -561h-111zM388 788v138h107v-138h-107zM549 788v138h107v-138h-107z"/>
    <glyph glyph-name="wdieresis" unicode="ẅ" horiz-adv-x="874" d="M197 0l-166 501l109 -1l114 -355l131 355h106l129 -355l118 355h109l-174 -500h-103l-133 357l-135 -357h-105zM305 558v138h107v-138h-107zM466 558v138h107v-138h-107z"/>
    <glyph glyph-name="Ygrave" unicode="Ỳ" horiz-adv-x="624" d="M258 0v346l-237 384h120l171 -280l172 280h120l-238 -385v-345h-108zM269 784l-148 166h114l116 -166h-82z"/>
    <glyph glyph-name="ygrave" unicode="ỳ" horiz-adv-x="556" d="M121 -231l107 257l-207 474h115l146 -347l138 347h113l-302 -731h-110zM237 554l-148 166h114l116 -166h-82z"/>
    <glyph glyph-name="figuredash" unicode="‒" horiz-adv-x="647" d="M44 206v93h560v-93h-560z"/>
    <glyph glyph-name="endash" unicode="–" horiz-adv-x="497" d="M44 206v93h410v-93h-410z"/>
    <glyph glyph-name="emdash" unicode="—" horiz-adv-x="697" d="M44 206v93h610v-93h-610z"/>
    <glyph glyph-name="uni2015" unicode="―" horiz-adv-x="997" d="M44 206v93h910v-93h-910z"/>
    <glyph glyph-name="doublebar" unicode="‖" horiz-adv-x="391" d="M49 -230v960h108v-960h-108zM234 -230v960h108v-960h-108z"/>
    <glyph glyph-name="quoteleft" unicode="‘" horiz-adv-x="204" d="M129 730l38 -204h-69l-67 204h98z"/>
    <glyph glyph-name="quoteright" unicode="’" horiz-adv-x="204" d="M103 526h-68l38 204h98z"/>
    <glyph glyph-name="quotesinglbase" unicode="‚" horiz-adv-x="204" d="M95 -117h-69l38 204h98z"/>
    <glyph glyph-name="reversequoteleft" unicode="‛" horiz-adv-x="204" d="M103 526h-68l38 204h98z"/>
    <glyph glyph-name="quotedblleft" unicode="“" horiz-adv-x="345" d="M131 730l38 -204h-68l-66 204h96zM272 730l38 -204h-68l-66 204h96z"/>
    <glyph glyph-name="quotedblright" unicode="”" horiz-adv-x="345" d="M103 526h-68l38 204h98zM245 526h-69l38 204h98z"/>
    <glyph glyph-name="quotedblbase" unicode="„" horiz-adv-x="345" d="M96 -117h-68l38 204h98zM238 -117h-69l38 204h98z"/>
    <glyph glyph-name="reversequotedblleft" unicode="‟" horiz-adv-x="345" d="M103 526h-68l38 204h98zM245 526h-69l38 204h98z"/>
    <glyph glyph-name="dagger" unicode="†" horiz-adv-x="550" d="M49 404v96h171v230h109v-230h173v-96h-173v-404h-109v404h-171z"/>
    <glyph glyph-name="daggerdbl" unicode="‡" horiz-adv-x="550" d="M49 447v95h171v188h109v-188h173v-95h-173v-155h173v-95h-173v-197h-109v197h-171v95h171v155h-171z"/>
    <glyph glyph-name="bullet" unicode="•" horiz-adv-x="367" d="M184 160q-38 0 -65.5 27.5t-27.5 65.5t27.5 65.5t65.5 27.5t65.5 -27.5t27.5 -65.5t-27.5 -65.5t-65.5 -27.5z"/>
    <glyph glyph-name="ellipsis" unicode="…" horiz-adv-x="539" d="M49 0v137h107v-137h-107zM216 0v137h108v-137h-108zM383 0v137h108v-137h-108z"/>
    <glyph glyph-name="perthousand" unicode="‰" horiz-adv-x="1231" d="M41 0l627 730h137l-627 -730h-137zM629 -11q-73 0 -123.5 51t-50.5 124q0 72 50.5 123t123.5 51q72 0 123 -51t51 -123q0 -73 -51 -124t-123 -51zM629 80q34 0 58 24.5t24 59.5q0 34 -24 58.5t-58 24.5t-58 -24.5t-24 -58.5q0 -35 24 -59.5t58 -24.5zM217 392 q-72 0 -123 51t-51 123q0 73 51 123.5t123 50.5t123 -50.5t51 -123.5q0 -72 -51 -123t-123 -51zM217 482q34 0 58 24.5t24 59.5t-24 59.5t-58 24.5t-58 -24.5t-24 -59.5t24 -59.5t58 -24.5zM1014 -11q-72 0 -123 51t-51 124q0 72 51 123t123 51q73 0 124 -51t51 -123 q0 -73 -51 -124t-124 -51zM1014 80q34 0 58.5 24.5t24.5 59.5q0 34 -24.5 58.5t-58.5 24.5t-58 -24.5t-24 -58.5q0 -35 24 -59.5t58 -24.5z"/>
    <glyph glyph-name="minute" unicode="′" horiz-adv-x="204" d="M103 526h-68l38 204h98z"/>
    <glyph glyph-name="second" unicode="″" horiz-adv-x="345" d="M103 526h-68l38 204h98zM245 526h-69l38 204h98z"/>
    <glyph glyph-name="tripleprime" unicode="‴" horiz-adv-x="445" d="M75 500q-28 88 -28 146v84h88v-84q0 -26 -10.5 -74t-18.5 -72h-31zM207 500q-28 88 -28 146v84h88v-84q0 -26 -10.5 -74t-18.5 -72h-31zM339 500q-28 88 -28 146v84h88v-84q0 -26 -10.5 -74t-18.5 -72h-31z"/>
    <glyph glyph-name="guilsinglleft" unicode="‹" horiz-adv-x="283" d="M223 100l-162 119v68l162 119v-83l-98 -70l98 -70v-83z"/>
    <glyph glyph-name="guilsinglright" unicode="›" horiz-adv-x="283" d="M61 101v82l99 70l-99 71v83l162 -119v-68z"/>
    <glyph glyph-name="fraction" unicode="⁄" horiz-adv-x="688" d="M19 0l527 730h125l-527 -730h-125z"/>
    <glyph glyph-name="uni2070" unicode="⁰" horiz-adv-x="469" d="M234 302q-90 0 -152.5 63.5t-62.5 153.5t62.5 153.5t152.5 63.5q91 0 154 -63.5t63 -153.5t-63 -153.5t-154 -63.5zM234 393q53 0 88.5 37t35.5 89q0 53 -35.5 90t-88.5 37q-52 0 -87 -37t-35 -90q0 -52 35 -89t87 -37z"/>
    <glyph glyph-name="uni2074" unicode="⁴" horiz-adv-x="371" d="M199 308v90h-176v83l174 249h90v-251h61v-81h-61v-90h-88zM120 479h79v113z"/>
    <glyph glyph-name="uni2075" unicode="⁵" horiz-adv-x="331" d="M164 302q-51 0 -89.5 22t-58.5 57l87 48q19 -40 61 -40q24 0 40.5 16t16.5 41t-16.5 41.5t-41.5 16.5q-40 0 -59 -37l-83 33l31 230h237v-85h-165l-10 -72q28 14 60 14q61 0 100 -37.5t39 -103.5q0 -64 -42 -104t-107 -40z"/>
    <glyph glyph-name="uni2076" unicode="⁶" horiz-adv-x="353" d="M177 302q-69 0 -113.5 43.5t-44.5 107.5q0 59 37 115l103 162h106l-83 -129q4 1 11 1q60 0 101 -41.5t41 -107.5q0 -65 -45 -108t-113 -43zM176 387q28 0 48 20t20 48t-20 47t-48 19t-47 -19.5t-19 -47.5t19 -47.5t47 -19.5z"/>
    <glyph glyph-name="uni2077" unicode="⁷" horiz-adv-x="317" d="M46 308l152 336h-176v86h272v-80l-149 -342h-99z"/>
    <glyph glyph-name="uni2078" unicode="⁸" horiz-adv-x="333" d="M166 302q-63 0 -102.5 38t-39.5 97t46 95q-33 31 -33 81q0 55 35.5 89t93.5 34q57 0 94 -34.5t37 -88.5q0 -47 -33 -80q44 -36 44 -96t-39.5 -97.5t-102.5 -37.5zM166 383q24 0 39 15.5t15 38.5t-15 38.5t-39 15.5t-39 -16t-15 -38q0 -23 15 -38.5t39 -15.5zM166 569 q20 0 32 12t12 32q0 19 -12 31.5t-32 12.5t-31.5 -12.5t-11.5 -31.5q0 -20 11.5 -32t31.5 -12z"/>
    <glyph glyph-name="uni2079" unicode="⁹" horiz-adv-x="353" d="M88 308l83 129h-11q-60 0 -101 41.5t-41 106.5q0 66 45 108.5t113 42.5t113 -43.5t45 -107.5q0 -59 -37 -115l-102 -162h-107zM177 517q28 0 47 20t19 48t-19 47.5t-47 19.5t-47.5 -20t-19.5 -48t19.5 -47.5t47.5 -19.5z"/>
    <glyph glyph-name="uni207A" unicode="⁺" horiz-adv-x="263" d="M25 481v76h70v68h74v-68h69v-76h-69v-69h-74v69h-70z"/>
    <glyph glyph-name="uni207B" unicode="⁻" horiz-adv-x="263" d="M25 481v76h213v-76h-213z"/>
    <glyph glyph-name="uni207C" unicode="⁼" horiz-adv-x="260" d="M24 531v73h213v-73h-213zM24 431v74h213v-74h-213z"/>
    <glyph glyph-name="uni207D" unicode="⁽" horiz-adv-x="268" d="M177 231q-152 112 -152 291q0 176 151 290l57 -75q-115 -83 -115 -215q0 -130 116 -215z"/>
    <glyph glyph-name="uni207E" unicode="⁾" horiz-adv-x="268" d="M92 231l-57 76q115 85 115 215q0 132 -115 215l58 75q151 -116 151 -290q0 -178 -152 -291z"/>
    <glyph glyph-name="uni2080" unicode="₀" horiz-adv-x="469" d="M234 -6q-90 0 -152.5 63.5t-62.5 153.5t62.5 153.5t152.5 63.5q91 0 154 -63.5t63 -153.5t-63 -153.5t-154 -63.5zM234 85q53 0 88.5 37t35.5 89q0 53 -35.5 90t-88.5 37q-52 0 -87 -37t-35 -90q0 -52 35 -89t87 -37z"/>
    <glyph glyph-name="uni2081" unicode="₁" horiz-adv-x="296" d="M23 0v87h82v203q-21 -29 -66 -29h-6v91h3q38 0 55 21t17 49h90v-335h79v-87h-254z"/>
    <glyph glyph-name="uni2082" unicode="₂" horiz-adv-x="334" d="M24 0v75q0 36 19 67t40 47.5t55 37.5q58 36 70 53q9 12 9 25q0 19 -13.5 31t-38.5 12q-46 0 -70 -57l-79 41q44 96 150 96q65 0 105.5 -35t40.5 -88q0 -26 -9 -48t-29 -40.5t-34.5 -29t-40.5 -26.5q-27 -16 -39 -24t-25 -22t-14 -28h190v-87h-287z"/>
    <glyph glyph-name="uni2083" unicode="₃" horiz-adv-x="323" d="M156 -6q-94 0 -145 57l73 61q28 -34 68 -34q25 0 41 13.5t16 35.5q0 23 -19 35t-50 12h-43v83h42q29 0 45.5 13t16.5 34q0 20 -14.5 32t-39.5 12q-39 0 -61 -35l-70 52q47 63 133 63q66 0 106 -33t40 -88q0 -53 -45 -87q55 -32 55 -95q0 -57 -40.5 -94t-108.5 -37z"/>
    <glyph glyph-name="uni2084" unicode="₄" horiz-adv-x="371" d="M199 0v90h-176v83l174 249h90v-251h61v-81h-61v-90h-88zM120 171h79v113z"/>
    <glyph glyph-name="uni2085" unicode="₅" horiz-adv-x="331" d="M164 -6q-51 0 -89.5 22t-58.5 57l87 48q19 -40 61 -40q24 0 40.5 16t16.5 41t-16.5 41.5t-41.5 16.5q-40 0 -59 -37l-83 33l31 230h237v-85h-165l-10 -72q28 14 60 14q61 0 100 -37.5t39 -103.5q0 -64 -42 -104t-107 -40z"/>
    <glyph glyph-name="uni2086" unicode="₆" horiz-adv-x="353" d="M177 -6q-69 0 -113.5 43.5t-44.5 107.5q0 59 37 115l103 162h106l-83 -129q4 1 11 1q60 0 101 -41.5t41 -107.5q0 -65 -45 -108t-113 -43zM176 79q28 0 48 20t20 48t-20 47t-48 19t-47 -19.5t-19 -47.5t19 -47.5t47 -19.5z"/>
    <glyph glyph-name="uni2087" unicode="₇" horiz-adv-x="317" d="M46 0l152 336h-176v86h272v-80l-149 -342h-99z"/>
    <glyph glyph-name="uni2088" unicode="₈" horiz-adv-x="333" d="M166 -6q-63 0 -102.5 38t-39.5 97t46 95q-33 31 -33 81q0 55 35.5 89t93.5 34q57 0 94 -34.5t37 -88.5q0 -47 -33 -80q44 -36 44 -96t-39.5 -97.5t-102.5 -37.5zM166 75q24 0 39 15.5t15 38.5t-15 38.5t-39 15.5t-39 -16t-15 -38q0 -23 15 -38.5t39 -15.5zM166 261 q20 0 32 12t12 32q0 19 -12 31.5t-32 12.5t-31.5 -12.5t-11.5 -31.5q0 -20 11.5 -32t31.5 -12z"/>
    <glyph glyph-name="uni2089" unicode="₉" horiz-adv-x="353" d="M88 0l83 129h-11q-60 0 -101 41.5t-41 106.5q0 66 45 108.5t113 42.5t113 -43.5t45 -107.5q0 -59 -37 -115l-102 -162h-107zM177 209q28 0 47 20t19 48t-19 47.5t-47 19.5t-47.5 -20t-19.5 -48t19.5 -47.5t47.5 -19.5z"/>
    <glyph glyph-name="uni208A" unicode="₊" horiz-adv-x="263" d="M25 173v76h70v68h74v-68h69v-76h-69v-69h-74v69h-70z"/>
    <glyph glyph-name="uni208B" unicode="₋" horiz-adv-x="263" d="M25 173v76h213v-76h-213z"/>
    <glyph glyph-name="uni208C" unicode="₌" horiz-adv-x="260" d="M24 223v73h213v-73h-213zM24 123v74h213v-74h-213z"/>
    <glyph glyph-name="uni208D" unicode="₍" horiz-adv-x="268" d="M177 -77q-152 112 -152 291q0 176 151 290l57 -75q-115 -83 -115 -215q0 -130 116 -215z"/>
    <glyph glyph-name="uni208E" unicode="₎" horiz-adv-x="268" d="M92 -77l-57 76q115 85 115 215q0 132 -115 215l58 75q151 -116 151 -290q0 -178 -152 -291z"/>
    <glyph glyph-name="uni20A1" unicode="₡" horiz-adv-x="760" d="M169 -120h-69l77 188q-67 52 -104.5 129.5t-37.5 167.5q0 159 109 267t266 108q13 0 41 -2l42 102h71l-48 -116q28 -8 52 -19l55 135h71l-69 -168q66 -46 107 -116l-94 -59q-24 43 -56 72l-194 -472h20q79 0 138.5 38.5t93.5 103.5l97 -54q-50 -90 -135 -142.5 t-192 -52.5q-29 0 -64 5l-47 -115h-70l53 130q-24 9 -50 23zM144 365q0 -112 76 -191l189 461q-113 -1 -189 -79t-76 -191zM273 133q28 -16 50 -23l204 497q-20 12 -51 20z"/>
    <glyph glyph-name="uni20A2" unicode="₢" horiz-adv-x="760" d="M410 -10q-161 0 -268 109t-107 266q0 159 109 267t266 108q102 0 187.5 -50t134.5 -134l-94 -59q-35 65 -94 101.5t-134 36.5q-113 0 -189.5 -78.5t-76.5 -191.5q0 -93 53.5 -164.5t139.5 -94.5v320h107v-77q41 77 138 77h46v-103h-62q-65 0 -93 -35.5t-28 -114.5v-74 q68 9 119 47.5t81 99.5l97 -53q-48 -93 -135.5 -148t-196.5 -55z"/>
    <glyph glyph-name="franc" unicode="₣" horiz-adv-x="509" d="M49 0v730h413v-103h-305v-134h305v-95h-305v-77h305v-95h-305v-226h-108z"/>
    <glyph glyph-name="lira" unicode="₤" horiz-adv-x="693" d="M79 333v86h100q-24 57 -24 114q0 92 61 149.5t159 57.5q159 0 218 -122l-97 -48q-34 76 -121 76q-52 0 -84 -31.5t-32 -79.5q0 -52 25 -116h197v-86h-158q37 -83 37 -151q0 -30 -10 -63q62 -42 104 -42q45 0 64.5 24t19.5 80v34h111v-48q0 -177 -173 -177q-80 0 -162 61 q-52 -62 -132 -62q-66 0 -101 28.5t-35 78.5q0 47 34 77.5t88 30.5t116 -38q1 4 1 13q0 27 -10 56t-20 47t-30 51h-146zM181 61q44 0 75 34q-49 35 -83 35q-41 0 -41 -34q0 -16 13.5 -25.5t35.5 -9.5z"/>
    <glyph glyph-name="uni20A6" unicode="₦" horiz-adv-x="816" d="M33 394v64h85v272h116l171 -272h185v272h109v-272h85v-64h-85v-53h85v-64h-85v-277h-109l-175 277h-189v-277h-108v277h-85v64h85v53h-85zM226 394v-53h148l-33 53h-115zM446 394l33 -53h111v53h-144zM300 458l-74 118v-118h74zM520 277l70 -111v111h-70z"/>
    <glyph glyph-name="peseta" unicode="₧" horiz-adv-x="1341" d="M1062 0h-241q-114 0 -156 43.5t-42 160.5v200h-80q-22 -82 -91.5 -134t-163.5 -52h-131v-218h-108v730h239q107 0 180.5 -65.5t82.5 -164.5h72v118l107 59v-177h111v-96h-111v-199q0 -67 19 -85.5t87 -18.5h231q44 0 67.5 15.5t23.5 42.5q0 18 -16 29.5t-34.5 16 t-53.5 10.5q-8 1 -12 2q-30 5 -50 9.5t-46.5 15.5t-42 24.5t-27 37t-11.5 54.5q0 65 53 109.5t138 43.5q139 0 204 -97l-89 -49q-39 57 -113 57q-41 0 -63 -16.5t-22 -41.5q0 -13 6.5 -22t26 -15.5t29.5 -9t42 -8.5l15 -3q29 -5 49.5 -10.5t46 -16.5t41 -25.5t26.5 -38 t11 -54.5q0 -70 -48.5 -116t-155.5 -45zM281 630h-124v-311h124q73 0 117.5 44t44.5 111t-44.5 111.5t-117.5 44.5z"/>
    <glyph glyph-name="uni20A8" unicode="₨" horiz-adv-x="986" d="M730 -6q-160 0 -288.5 82.5t-240.5 271.5h63q76 0 118.5 44t42.5 100q0 63 -41.5 100t-119.5 37h-107v-629h-108v730h226q115 0 187 -68t72 -170q0 -74 -40.5 -134.5t-113.5 -84.5q72 -94 157.5 -137.5t196.5 -43.5q55 0 82.5 17.5t27.5 45.5q0 38 -105 57q-9 2 -14 3 q-30 6 -50 11t-46 16t-41.5 25t-26.5 37.5t-11 53.5q0 65 53 109.5t138 43.5q139 0 204 -97l-89 -49q-39 57 -113 57q-41 0 -63 -16.5t-22 -41.5q0 -17 16 -28.5t34 -16.5t54 -12l15 -3q29 -5 49.5 -10.5t46 -17t41 -26t26.5 -38.5t11 -55q0 -32 -11.5 -59.5t-35.5 -51.5 t-69 -38t-105 -14z"/>
    <glyph glyph-name="uni20A9" unicode="₩" horiz-adv-x="1089" d="M30 394v64h94l-78 272h114l75 -272h175l86 272h101l85 -272h176l78 272h110l-80 -272h93v-64h-112l-16 -53h128v-64h-147l-81 -277h-108l-86 277h-183l-87 -277h-111l-80 277h-146v64h128l-16 53h-112zM490 394l-16 -53h143l-17 53h-110zM702 394l16 -53h107l15 53h-138z M253 394l15 -53h105l17 53h-137zM738 277l37 -116l32 116h-69zM545 569l-35 -111h70zM286 277l31 -114l36 114h-67z"/>
    <glyph glyph-name="uni20AA" unicode="₪" horiz-adv-x="762" d="M49 0v730h208q138 0 204.5 -67.5t66.5 -205.5v-191q1 -57 -22 -79t-86 -22v292q0 96 -36 134t-132 38h-95v-629h-108zM234 0v560q66 0 87 -19.5t21 -80.5v-359h97q95 0 130.5 38t35.5 134v457h108v-457q0 -139 -66 -206t-203 -67h-210z"/>
    <glyph glyph-name="Euro" unicode="€" d="M30 426v86h77q5 99 71.5 163.5t169.5 64.5q113 0 181 -76l-79 -71q-37 43 -102 43q-60 0 -93.5 -33.5t-38.5 -90.5h242l-15 -86h-227v-122h208l-13 -85h-195q2 -58 35 -91t95 -33q68 0 105 51l92 -65q-64 -91 -196 -91q-114 0 -176 62t-64 167h-77v85h77v122h-77z"/>
    <glyph glyph-name="uni20AE" unicode="₮" horiz-adv-x="605" d="M125 320v68l124 51v189h-207v102h522v-102h-207v-145l121 50v-68l-121 -50v-70l121 50v-68l-121 -50v-277h-108v233l-124 -51v68l124 51v70z"/>
    <glyph glyph-name="uni20B1" unicode="₱" horiz-adv-x="721" d="M35 501v64h79v165h239q88 0 154.5 -45.5t94.5 -119.5h89v-64h-75q2 -18 2 -27q0 -10 -2 -26h75v-64h-89q-27 -75 -93.5 -120.5t-155.5 -45.5h-131v-218h-108v384h-79v64h79v53h-79zM508 474q0 9 -2 27h-284v-53h284q2 16 2 26zM346 319q90 0 135 65h-259v-65h124z M346 630h-124v-65h259q-47 65 -135 65z"/>
    <glyph glyph-name="published" unicode="℗" horiz-adv-x="817" d="M409 -68q-155 0 -264.5 110t-109.5 266q0 155 109.5 265t264.5 110t264.5 -110t109.5 -265q0 -156 -109.5 -266t-264.5 -110zM409 20q119 0 201 84.5t82 203.5t-82 203t-201 84q-120 0 -201 -83.5t-81 -203.5t81 -204t201 -84zM272 115v385h175q61 0 102.5 -41t41.5 -101 q0 -61 -39.5 -103.5t-102.5 -42.5h-83v-97h-94zM433 421h-67v-129h67q28 0 46 19.5t18 46.5q0 26 -18.5 44.5t-45.5 18.5z"/>
    <glyph glyph-name="servicemark" unicode="℠" horiz-adv-x="639" d="M275 440v290h73l87 -115l92 115h67v-290h-77v167l-83 -98l-82 98v-167h-77zM134 433q-77 0 -114 54l67 45q17 -31 47 -31q13 0 21 7.5t8 18.5q0 13 -20.5 21.5t-45.5 14t-45.5 27.5t-20.5 58q0 37 29 61t74 24q62 0 101 -48l-63 -40q-14 24 -39 24q-28 0 -28 -20 q0 -10 21 -18t46 -15t46 -29t21 -56q0 -43 -29 -70.5t-76 -27.5z"/>
    <glyph glyph-name="trademark" unicode="™" horiz-adv-x="666" d="M302 440v290h73l87 -115l92 115h67v-290h-77v167l-83 -98l-82 98v-167h-77zM115 440v219h-82v71h239v-71h-80v-219h-77z"/>
    <glyph glyph-name="uni2153" unicode="⅓" horiz-adv-x="858" d="M97 0l527 730h125l-527 -730h-125zM691 -6q-94 0 -145 57l73 61q28 -34 68 -34q25 0 41 13.5t16 35.5q0 23 -19 35t-50 12h-43v83h42q29 0 45.5 13t16.5 34q0 20 -14.5 32t-39.5 12q-39 0 -61 -35l-70 52q47 63 133 63q66 0 106 -33t40 -88q0 -53 -45 -87q55 -32 55 -95 q0 -57 -40.5 -94t-108.5 -37zM23 308v87h82v203q-21 -29 -66 -29h-6v91h3q38 0 55 21t17 49h90v-335h79v-87h-254z"/>
    <glyph glyph-name="uni2154" unicode="⅔" horiz-adv-x="873" d="M112 0l527 730h125l-527 -730h-125zM24 308v75q0 36 19 67t40 47.5t55 37.5q58 36 70 53q9 12 9 25q0 19 -13.5 31t-38.5 12q-46 0 -70 -57l-79 41q44 96 150 96q65 0 105.5 -35t40.5 -88q0 -26 -9 -48t-29 -40.5t-34.5 -29t-40.5 -26.5q-27 -16 -39 -24t-25 -22t-14 -28 h190v-87h-287zM706 -6q-94 0 -145 57l73 61q28 -34 68 -34q25 0 41 13.5t16 35.5q0 23 -19 35t-50 12h-43v83h42q29 0 45.5 13t16.5 34q0 20 -14.5 32t-39.5 12q-39 0 -61 -35l-70 52q47 63 133 63q66 0 106 -33t40 -88q0 -53 -45 -87q55 -32 55 -95q0 -57 -40.5 -94 t-108.5 -37z"/>
    <glyph glyph-name="uni2155" unicode="⅕" horiz-adv-x="849" d="M97 0l527 730h125l-527 -730h-125zM682 -6q-51 0 -89.5 22t-58.5 57l87 48q19 -40 61 -40q24 0 40.5 16t16.5 41t-16.5 41.5t-41.5 16.5q-40 0 -59 -37l-83 33l31 230h237v-85h-165l-10 -72q28 14 60 14q61 0 100 -37.5t39 -103.5q0 -64 -42 -104t-107 -40zM23 308v87h82 v203q-21 -29 -66 -29h-6v91h3q38 0 55 21t17 49h90v-335h79v-87h-254z"/>
    <glyph glyph-name="uni2156" unicode="⅖" horiz-adv-x="864" d="M112 0l527 730h125l-527 -730h-125zM697 -6q-51 0 -89.5 22t-58.5 57l87 48q19 -40 61 -40q24 0 40.5 16t16.5 41t-16.5 41.5t-41.5 16.5q-40 0 -59 -37l-83 33l31 230h237v-85h-165l-10 -72q28 14 60 14q61 0 100 -37.5t39 -103.5q0 -64 -42 -104t-107 -40zM24 308v75 q0 36 19 67t40 47.5t55 37.5q58 36 70 53q9 12 9 25q0 19 -13.5 31t-38.5 12q-46 0 -70 -57l-79 41q44 96 150 96q65 0 105.5 -35t40.5 -88q0 -26 -9 -48t-29 -40.5t-34.5 -29t-40.5 -26.5q-27 -16 -39 -24t-25 -22t-14 -28h190v-87h-287z"/>
    <glyph glyph-name="uni2157" unicode="⅗" horiz-adv-x="852" d="M100 0l527 730h125l-527 -730h-125zM685 -6q-51 0 -89.5 22t-58.5 57l87 48q19 -40 61 -40q24 0 40.5 16t16.5 41t-16.5 41.5t-41.5 16.5q-40 0 -59 -37l-83 33l31 230h237v-85h-165l-10 -72q28 14 60 14q61 0 100 -37.5t39 -103.5q0 -64 -42 -104t-107 -40zM156 302 q-94 0 -145 57l73 61q28 -34 68 -34q25 0 41 13.5t16 35.5q0 23 -19 35t-50 12h-43v83h42q29 0 45.5 13t16.5 34q0 20 -14.5 32t-39.5 12q-39 0 -61 -35l-70 52q47 63 133 63q66 0 106 -33t40 -88q0 -53 -45 -87q55 -32 55 -95q0 -57 -40.5 -94t-108.5 -37z"/>
    <glyph glyph-name="uni2158" unicode="⅘" horiz-adv-x="849" d="M97 0l527 730h125l-527 -730h-125zM682 -6q-51 0 -89.5 22t-58.5 57l87 48q19 -40 61 -40q24 0 40.5 16t16.5 41t-16.5 41.5t-41.5 16.5q-40 0 -59 -37l-83 33l31 230h237v-85h-165l-10 -72q28 14 60 14q61 0 100 -37.5t39 -103.5q0 -64 -42 -104t-107 -40zM199 308v90 h-176v83l174 249h90v-251h61v-81h-61v-90h-88zM120 479h79v113z"/>
    <glyph glyph-name="uni2159" unicode="⅙" horiz-adv-x="839" d="M97 0l527 730h125l-527 -730h-125zM663 -6q-69 0 -113.5 43.5t-44.5 107.5q0 59 37 115l103 162h106l-83 -129q4 1 11 1q60 0 101 -41.5t41 -107.5q0 -65 -45 -108t-113 -43zM23 308v87h82v203q-21 -29 -66 -29h-6v91h3q38 0 55 21t17 49h90v-335h79v-87h-254zM662 79 q28 0 48 20t20 48t-20 47t-48 19t-47 -19.5t-19 -47.5t19 -47.5t47 -19.5z"/>
    <glyph glyph-name="uni215A" unicode="⅚" horiz-adv-x="837" d="M95 0l527 730h125l-527 -730h-125zM661 -6q-69 0 -113.5 43.5t-44.5 107.5q0 59 37 115l103 162h106l-83 -129q4 1 11 1q60 0 101 -41.5t41 -107.5q0 -65 -45 -108t-113 -43zM164 302q-51 0 -89.5 22t-58.5 57l87 48q19 -40 61 -40q24 0 40.5 16t16.5 41t-16.5 41.5 t-41.5 16.5q-40 0 -59 -37l-83 33l31 230h237v-85h-165l-10 -72q28 14 60 14q61 0 100 -37.5t39 -103.5q0 -64 -42 -104t-107 -40zM660 79q28 0 48 20t20 48t-20 47t-48 19t-47 -19.5t-19 -47.5t19 -47.5t47 -19.5z"/>
    <glyph glyph-name="uni215B" unicode="⅛" horiz-adv-x="851" d="M684 -6q-63 0 -102.5 38t-39.5 97t46 95q-33 31 -33 81q0 55 35.5 89t93.5 34q57 0 94 -34.5t37 -88.5q0 -47 -33 -80q44 -36 44 -96t-39.5 -97.5t-102.5 -37.5zM97 0l527 730h125l-527 -730h-125zM23 308v87h82v203q-21 -29 -66 -29h-6v91h3q38 0 55 21t17 49h90v-335 h79v-87h-254zM684 75q24 0 39 15.5t15 38.5t-15 38.5t-39 15.5t-39 -16t-15 -38q0 -23 15 -38.5t39 -15.5zM684 261q20 0 32 12t12 32q0 19 -12 31.5t-32 12.5t-31.5 -12.5t-11.5 -31.5q0 -20 11.5 -32t31.5 -12z"/>
    <glyph glyph-name="uni215C" unicode="⅜" horiz-adv-x="855" d="M688 -6q-63 0 -102.5 38t-39.5 97t46 95q-33 31 -33 81q0 55 35.5 89t93.5 34q57 0 94 -34.5t37 -88.5q0 -47 -33 -80q44 -36 44 -96t-39.5 -97.5t-102.5 -37.5zM100 0l527 730h125l-527 -730h-125zM156 302q-94 0 -145 57l73 61q28 -34 68 -34q25 0 41 13.5t16 35.5 q0 23 -19 35t-50 12h-43v83h42q29 0 45.5 13t16.5 34q0 20 -14.5 32t-39.5 12q-39 0 -61 -35l-70 52q47 63 133 63q66 0 106 -33t40 -88q0 -53 -45 -87q55 -32 55 -95q0 -57 -40.5 -94t-108.5 -37zM688 75q24 0 39 15.5t15 38.5t-15 38.5t-39 15.5t-39 -16t-15 -38 q0 -23 15 -38.5t39 -15.5zM688 261q20 0 32 12t12 32q0 19 -12 31.5t-32 12.5t-31.5 -12.5t-11.5 -31.5q0 -20 11.5 -32t31.5 -12z"/>
    <glyph glyph-name="uni215D" unicode="⅝" horiz-adv-x="850" d="M683 -6q-63 0 -102.5 38t-39.5 97t46 95q-33 31 -33 81q0 55 35.5 89t93.5 34q57 0 94 -34.5t37 -88.5q0 -47 -33 -80q44 -36 44 -96t-39.5 -97.5t-102.5 -37.5zM95 0l527 730h125l-527 -730h-125zM164 302q-51 0 -89.5 22t-58.5 57l87 48q19 -40 61 -40q24 0 40.5 16 t16.5 41t-16.5 41.5t-41.5 16.5q-40 0 -59 -37l-83 33l31 230h237v-85h-165l-10 -72q28 14 60 14q61 0 100 -37.5t39 -103.5q0 -64 -42 -104t-107 -40zM683 75q24 0 39 15.5t15 38.5t-15 38.5t-39 15.5t-39 -16t-15 -38q0 -23 15 -38.5t39 -15.5zM683 261q20 0 32 12t12 32 q0 19 -12 31.5t-32 12.5t-31.5 -12.5t-11.5 -31.5q0 -20 11.5 -32t31.5 -12z"/>
    <glyph glyph-name="uni215E" unicode="⅞" horiz-adv-x="798" d="M631 -6q-63 0 -102.5 38t-39.5 97t46 95q-33 31 -33 81q0 55 35.5 89t93.5 34q57 0 94 -34.5t37 -88.5q0 -47 -33 -80q44 -36 44 -96t-39.5 -97.5t-102.5 -37.5zM44 0l527 730h125l-527 -730h-125zM46 308l152 336h-176v86h272v-80l-149 -342h-99zM631 75q24 0 39 15.5 t15 38.5t-15 38.5t-39 15.5t-39 -16t-15 -38q0 -23 15 -38.5t39 -15.5zM631 261q20 0 32 12t12 32q0 19 -12 31.5t-32 12.5t-31.5 -12.5t-11.5 -31.5q0 -20 11.5 -32t31.5 -12z"/>
    <glyph glyph-name="uni215F" unicode="⅟" horiz-adv-x="766" d="M97 0l527 730h125l-527 -730h-125zM23 308v87h82v203q-21 -29 -66 -29h-6v91h3q38 0 55 21t17 49h90v-335h79v-87h-254z"/>
    <glyph glyph-name="arrowleft" unicode="←" horiz-adv-x="896" d="M285 90q-36 74 -95.5 141.5t-127.5 107.5v52q66 42 126.5 115.5t85.5 136.5l95 -55q-22 -48 -60.5 -93.5t-80.5 -76.5h586v-104h-584q86 -60 144 -163z"/>
    <glyph glyph-name="arrowup" unicode="↑" horiz-adv-x="896" d="M386 0v575q-76 -96 -169 -139l-55 94q64 26 137 86t115 126h50q41 -66 114 -126t137 -86l-55 -94q-96 44 -169 139v-575h-105z"/>
    <glyph glyph-name="arrowright" unicode="→" horiz-adv-x="896" d="M591 90l-88 61q55 101 143 163h-584v104h585q-96 76 -139 170l95 55q26 -64 85.5 -137.5t125.5 -114.5v-52q-67 -41 -127 -108.5t-96 -140.5z"/>
    <glyph glyph-name="arrowdown" unicode="↓" horiz-adv-x="896" d="M413 -12q-41 66 -114.5 126t-136.5 86l54 95q93 -43 168 -138v573h106v-575q75 96 170 140l54 -95q-63 -26 -136.5 -86t-114.5 -126h-50z"/>
    <glyph glyph-name="uni2196" unicode="↖" horiz-adv-x="896" d="M672 64l-414 414q15 -122 -21 -219l-105 28q26 63 35 154t-7 174l35 35q82 -17 173 -8t154 36l28 -105q-99 -36 -218 -22l414 -414z"/>
    <glyph glyph-name="uni2197" unicode="↗" horiz-adv-x="896" d="M207 63l-74 74l414 414q-122 -15 -219 21l29 105q63 -26 154 -35t173 7l36 -35q-17 -83 -8 -173.5t35 -153.5l-105 -28q-36 96 -21 218z"/>
    <glyph glyph-name="uni2198" unicode="↘" horiz-adv-x="896" d="M699 103q-83 17 -173.5 8t-153.5 -35l-28 105q96 36 218 21l-414 414l74 74l414 -414q-15 121 21 219l105 -29q-26 -63 -35 -154t7 -173z"/>
    <glyph glyph-name="uni2199" unicode="↙" horiz-adv-x="896" d="M522 61q-62 27 -153.5 36t-173.5 -8l-36 35q17 83 8 174t-35 154l105 28q36 -99 21 -219l414 414l74 -74l-413 -413q119 14 218 -22z"/>
    <glyph glyph-name="partialdiff" unicode="∂" horiz-adv-x="583" d="M290 -8q-105 0 -179.5 72.5t-74.5 179.5q0 106 70 176.5t172 70.5q67 0 111 -31q-72 114 -296 270h162q290 -226 290 -482q0 -108 -73.5 -182t-181.5 -74zM291 93q61 0 105 44.5t44 106.5q0 63 -43 107.5t-105 44.5t-106 -44t-44 -108q0 -63 44 -107t105 -44z"/>
    <glyph glyph-name="increment" unicode="∆" horiz-adv-x="897" d="M877 0h-857l429 742zM448 533l-246 -429h493z"/>
    <glyph glyph-name="product" unicode="∏" horiz-adv-x="766" d="M40 626v104h687v-104h-127v-626h-108v626h-218v-626h-108v626h-126z"/>
    <glyph glyph-name="summation" unicode="∑" horiz-adv-x="563" d="M35 0v115l240 262l-231 247v106h484v-103h-347l233 -251l-251 -272h365v-104h-493z"/>
    <glyph glyph-name="minus" unicode="−" horiz-adv-x="457" d="M44 319v92h370v-92h-370z"/>
    <glyph glyph-name="radical" unicode="√" horiz-adv-x="789" d="M291 0l-154 400h-92v100h167l140 -377l278 607h117l-342 -730h-114z"/>
    <glyph glyph-name="infinity" unicode="∞" horiz-adv-x="915" d="M250 210q-72 0 -123.5 51t-51.5 123q0 73 51.5 124t123.5 51q54 0 103.5 -29t105.5 -81q116 110 206 110q73 0 124 -51t51 -124q0 -72 -51 -123t-124 -51q-52 0 -101 29t-106 82q-56 -52 -105.5 -81.5t-102.5 -29.5zM251 302q53 0 141 83q-87 80 -141 80 q-33 0 -57.5 -24.5t-24.5 -56.5q0 -33 24.5 -57.5t57.5 -24.5zM665 303q33 0 57 24.5t24 57.5q0 32 -24 56.5t-57 24.5q-31 0 -63.5 -20.5t-76.5 -59.5q88 -83 140 -83z"/>
    <glyph glyph-name="integral" unicode="∫" horiz-adv-x="359" d="M8 -204v99q70 0 88 18.5t18 86.5v526q0 117 43.5 160.5t161.5 43.5h9v-99q-70 0 -88 -18.5t-18 -87.5v-524q0 -118 -43.5 -161.5t-161.5 -43.5h-9z"/>
    <glyph glyph-name="approxequal" unicode="≈" horiz-adv-x="450" d="M40 394v93q54 26 97 26q31 0 91.5 -19t85.5 -19q39 0 96 25v-93q-44 -25 -96 -25q-29 0 -90.5 19t-86.5 19q-41 0 -97 -26zM40 227v93q56 27 94 27q31 0 94 -18.5t88 -18.5q42 0 94 23v-93q-40 -23 -94 -23q-29 0 -93 18.5t-89 18.5q-36 0 -94 -27z"/>
    <glyph glyph-name="notequal" unicode="≠" horiz-adv-x="457" d="M360 561l-32 -69h86v-92h-129l-34 -73h163v-92h-206l-31 -67h-84l30 67h-79v92h121l34 73h-155v92h197l32 69h87z"/>
    <glyph glyph-name="equivalence" unicode="≡" horiz-adv-x="457" d="M44 317v92h370v-92h-370zM44 153v91h370v-91h-370zM44 482v92h370v-92h-370z"/>
    <glyph glyph-name="lessequal" unicode="≤" horiz-adv-x="457" d="M413 265l-370 138v92l370 136v-95l-256 -87l256 -89v-95zM43 136v92h370v-92h-370z"/>
    <glyph glyph-name="greaterequal" unicode="≥" horiz-adv-x="457" d="M43 265v95l255 89l-255 87v95l370 -136v-92zM43 136v92h370v-92h-370z"/>
    <glyph glyph-name="squaremultiply" unicode="⊠" horiz-adv-x="926" d="M100 0v730h726v-730h-726zM209 626v-522h509v522h-509zM332 166l-64 63l132 137l-134 140l64 63l133 -138l133 139l64 -63l-135 -140l133 -138l-64 -63l-132 136z"/>
    <glyph glyph-name="house" unicode="⌂" horiz-adv-x="874" d="M774 0h-674v427l337 323l337 -323v-427z"/>
    <glyph glyph-name="blacksquare" unicode="■" horiz-adv-x="926" d="M100 0v730h726v-730h-726z"/>
    <glyph glyph-name="blacksquare" unicode="" horiz-adv-x="926" d="M100 0v730h726v-730h-726z"/>
    <glyph glyph-name="whitesquare" unicode="□" horiz-adv-x="926" d="M100 0v730h726v-730h-726zM209 626v-522h509v522h-509z"/>
    <glyph glyph-name="blacksmallsquare" unicode="▪" horiz-adv-x="700" d="M100 0v500h500v-500h-500z"/>
    <glyph glyph-name="whitesmallsquare" unicode="▫" horiz-adv-x="700" d="M100 0v500h500v-500h-500zM208 395v-289h285v289h-285z"/>
    <glyph glyph-name="triagup" unicode="▲" horiz-adv-x="897" d="M877 0h-857l429 742z"/>
    <glyph glyph-name="triagrt" unicode="►" horiz-adv-x="897" d="M100 -57v857l742 -428z"/>
    <glyph glyph-name="triagdn" unicode="▼" horiz-adv-x="897" d="M20 730h857l-428 -742z"/>
    <glyph glyph-name="triaglf" unicode="◄" horiz-adv-x="897" d="M797 800v-857l-742 429z"/>
    <glyph glyph-name="lozenge" unicode="◊" horiz-adv-x="843" d="M415 -16l-382 382l380 380l382 -382zM172 367l244 -244l240 241l-244 243z"/>
    <glyph glyph-name="whitecircle" unicode="○" horiz-adv-x="927" d="M464 -10q-155 0 -264.5 110t-109.5 265t109.5 265t264.5 110t264.5 -110t109.5 -265t-109.5 -265t-264.5 -110zM464 96q111 0 188 78.5t77 190.5t-77 191t-188 79q-112 0 -188.5 -79t-76.5 -191t76.5 -190.5t188.5 -78.5z"/>
    <glyph glyph-name="whitecircle" unicode="◯" horiz-adv-x="927" d="M464 -10q-155 0 -264.5 110t-109.5 265t109.5 265t264.5 110t264.5 -110t109.5 -265t-109.5 -265t-264.5 -110zM464 96q111 0 188 78.5t77 190.5t-77 191t-188 79q-112 0 -188.5 -79t-76.5 -191t76.5 -190.5t188.5 -78.5z"/>
    <glyph glyph-name="bullseye" unicode="◎" horiz-adv-x="927" d="M839 365q0 -155 -110 -265t-265 -110t-265 110t-110 265t110 265t265 110t265 -110t110 -265zM742 365q0 116 -81.5 194.5t-196.5 78.5t-196.5 -78.5t-81.5 -194.5t81.5 -194.5t196.5 -78.5t196.5 78.5t81.5 194.5zM697 365q0 -98 -66.5 -166t-165.5 -68t-165.5 68 t-66.5 166q0 97 66.5 166t165.5 69t165.5 -69t66.5 -166zM600 365q0 55 -38.5 94t-96.5 39t-97 -39t-39 -94q0 -56 39 -94t97 -38t96.5 38t38.5 94zM559 365q0 -39 -27 -66.5t-67 -27.5t-68 27.5t-28 66.5t28 66.5t68 27.5t67 -27.5t27 -66.5z"/>
    <glyph glyph-name="blackcircle" unicode="●" horiz-adv-x="927" d="M464 -10q-155 0 -264.5 110t-109.5 265t109.5 265t264.5 110t264.5 -110t109.5 -265t-109.5 -265t-264.5 -110z"/>
    <glyph glyph-name="uni25E2" unicode="◢" horiz-adv-x="897" d="M873 533l-606 -606l-222 828z"/>
    <glyph glyph-name="uni25E3" unicode="◣" horiz-adv-x="897" d="M632 -73l-606 606l828 222z"/>
    <glyph glyph-name="uni25E4" unicode="◤" horiz-adv-x="897" d="M857 -54l-828 222l606 606z"/>
    <glyph glyph-name="uni25E5" unicode="◥" horiz-adv-x="897" d="M872 163l-828 -221l223 828z"/>
    <glyph glyph-name="uni2605" unicode="★" horiz-adv-x="900" d="M562 303l72 -218l-187 135l-186 -135l72 219l-186 135l229 -1l72 218l71 -218l230 -1z"/>
    <glyph glyph-name="ballotboxwithx" unicode="☒" horiz-adv-x="700" d="M100 0v500h500v-500h-500zM199 403v-306h302v306h-302zM279 374l70 -70l71 73l56 -56l-70 -72l71 -70l-56 -56l-71 69l-69 -71l-56 56l69 71l-71 70z"/>
    <glyph glyph-name="uni263C" unicode="☼" horiz-adv-x="928" d="M287 365q0 71 51.5 122.5t122.5 51.5t122.5 -51.5t51.5 -122.5t-51.5 -122.5t-122.5 -51.5t-122.5 51.5t-51.5 122.5zM451 577l-17 142h54l-17 -142h-20zM471 155l17 -142h-54l17 142h20zM250 356l-142 -17v54l142 -17v-20zM672 376l142 17v-54l-142 17v20zM273 464 l-133 55l28 47l115 -87zM649 268l133 -55l-28 -47l-115 87zM348 544l-87 115l47 28l55 -133zM574 188l87 -115l-47 -28l-55 133zM559 554l55 133l47 -28l-87 -115zM363 178l-55 -133l-47 28l87 115zM639 480l113 86l30 -46l-133 -56zM283 252l-113 -86l-30 46l133 56z"/>
    <glyph glyph-name="uni263E" unicode="☾" horiz-adv-x="787" d="M534 616q-99 0 -169 -73.5t-70 -177.5t70 -177.5t169 -73.5q32 0 71 12q-81 -57 -178 -57q-122 0 -209 87t-87 209t87 209t209 87q97 0 178 -57q-46 12 -71 12z"/>
    <glyph glyph-name="spade" unicode="♠" horiz-adv-x="920" d="M594 0h-259q27 50 39.5 75.5t33.5 92.5t21 122q-21 -59 -64 -97.5t-106 -38.5q-70 0 -120.5 47t-50.5 111q0 82 52 150t183 173l140 112h1l140 -112q128 -103 178 -171t50 -152q0 -64 -46 -110.5t-111 -46.5q-69 0 -114.5 38.5t-66.5 96.5q0 -29 6 -61t13 -55.5t21.5 -56 t21 -45.5t22.5 -42t16 -30z"/>
    <glyph glyph-name="club" unicode="♣" horiz-adv-x="920" d="M595 0h-259q80 150 91 248q-22 -53 -66.5 -85.5t-100.5 -32.5q-74 0 -125.5 52t-51.5 125t51.5 125t125.5 52q19 0 42 -7q-19 41 -19 87q0 73 51 124.5t124 51.5t124.5 -51.5t51.5 -124.5q0 -45 -19 -88q22 8 46 8q73 0 124.5 -51.5t51.5 -125.5q0 -73 -51.5 -125 t-125.5 -52q-56 0 -99 32t-64 85q3 -25 10.5 -52t15.5 -48t20 -46.5t19 -39t19 -35.5t14 -26z"/>
    <glyph glyph-name="heart" unicode="♥" horiz-adv-x="920" d="M89 550q0 78 53 134t130 56q75 0 126 -45.5t59 -115.5q9 70 59.5 115.5t125.5 45.5q77 0 133 -56.5t56 -133.5q0 -85 -52.5 -177t-179.5 -233l-142 -157l-141 157q-125 139 -176 231.5t-51 178.5z"/>
    <glyph glyph-name="diamond" unicode="♦" horiz-adv-x="920" d="M133 390l327 401l327 -401l-327 -400z"/>
    <glyph glyph-name="uni267B" unicode="♻" horiz-adv-x="921" d="M821 246l1 -2l-91 -157q-13 -19 -19.5 -27.5t-23 -16.5t-39.5 -8h-54v-47l-106 128l106 127v-46h136q25 0 47.5 12.5t32.5 24.5zM184 111h-2l-90 158q-10 19 -14 29.5t-3 28.5t13 38l27 46l-40 23l164 29l55 -156l-38 23q-66 -113 -68 -118q-12 -21 -13 -46.5t4 -39.5z M389 728v1h182q22 -1 33.5 -2.5t26.5 -11.5t26 -30l26 -46l41 23l-58 -157l-162 30l38 22l-67 118q-13 22 -34.5 35t-36.5 16zM197 558l63 112q11 18 32 29q43 22 91 9t64 -42l-109 -189zM429 35h-127q-23 0 -42 12q-40 23 -53.5 74t4.5 76h218v-162zM767 491l65 -110 q9 -14 9 -41q1 -45 -35.5 -81.5t-69.5 -36.5l-109 189z"/>
    <glyph glyph-name="uni267C" unicode="♼" horiz-adv-x="921" d="M837 366q0 -156 -110 -265.5t-265 -109.5q-157 0 -267 109.5t-110 265.5t110 266.5t267 110.5q155 0 265 -110.5t110 -266.5zM304 606l-49 -86l109 -63l84 146q-12 23 -49.5 33t-70.5 -7q-19 -12 -24 -23zM399 652v-1q46 -4 67 -41l53 -91l-30 -18l126 -23l44 122 l-31 -18l-21 36q-13 22 -27.5 28t-39.5 6h-141zM332 114h99v126h-170q-14 -20 -3 -59.5t42 -57.5q16 -9 32 -9zM243 173h1q-18 41 3 79l53 91l30 -18l-43 121l-127 -22l31 -18l-21 -36q-9 -15 -10 -29.5t2 -21.5t11 -24zM746 383l-49 85l-110 -63l85 -147q26 0 54.5 28.5 t27.5 64.5q0 18 -8 32zM739 276l-1 1q-26 -37 -70 -37h-105v35l-83 -98l83 -99v36h41q26 0 39 9.5t25 30.5z"/>
    <glyph glyph-name="uni267D" unicode="♽" horiz-adv-x="921" d="M837 366q0 -156 -110 -265.5t-265 -109.5q-157 0 -267 109.5t-110 265.5t110 266.5t267 110.5q155 0 265 -110.5t110 -266.5zM818 366q0 149 -104 253.5t-252 104.5q-149 0 -254 -104.5t-105 -253.5q0 -148 105 -252.5t254 -104.5q148 0 252 104.5t104 252.5zM255 520 l49 86q5 11 24 23q33 17 70.5 7t49.5 -33l-84 -146zM399 651v1h141q25 0 39.5 -6t27.5 -28l21 -36l31 18l-44 -122l-126 23l30 18l-53 91q-9 16 -26 26.5t-29 12.5zM431 114h-99q-16 0 -32 9q-31 18 -42 57.5t3 59.5h170v-126zM244 173h-1l-70 122q-8 17 -11 24t-2 21.5 t10 29.5l21 36l-31 18l127 22l43 -121l-30 18l-53 -91q-9 -17 -10 -36.5t3 -31.5zM697 468l49 -85q8 -14 8 -32q1 -36 -27.5 -64.5t-54.5 -28.5l-85 147zM738 277l1 -1l-71 -122q-8 -14 -14 -21t-19 -13t-31 -6h-41v-36l-83 99l83 98v-35h105q20 0 37.5 9t24.5 19z"/>
    <glyph glyph-name="mediumwhitecircle" unicode="⚪" horiz-adv-x="698" d="M349 -10q-108 0 -183.5 75.5t-75.5 184.5t75.5 184.5t183.5 75.5t184 -75.5t76 -184.5t-76 -184.5t-184 -75.5zM349 90q64 0 109 47t45 113t-45 113t-109 47t-108.5 -47t-44.5 -113t44.5 -113t108.5 -47z"/>
    <glyph glyph-name="mediumblackcircle" unicode="⚫" horiz-adv-x="698" d="M349 -10q-108 0 -183.5 76t-75.5 184t75.5 184t183.5 76t183.5 -76t75.5 -184t-75.5 -184t-183.5 -76z"/>
    <glyph glyph-name="anglebracketleft" unicode="〈" horiz-adv-x="381" d="M248 -230l-227 480l227 480h115l-228 -480l228 -480h-115z"/>
    <glyph glyph-name="anglebracketright" unicode="〉" horiz-adv-x="381" d="M136 -230h-115l228 480l-228 480h115l227 -480z"/>
    <glyph glyph-name="cordinal" unicode="" horiz-adv-x="356" d="M186 435q-62 0 -106 44t-44 106q0 63 44 107t106 44q45 0 81 -22.5t54 -60.5l-69 -34q-20 42 -66 42q-31 0 -52 -22t-21 -54q0 -31 21 -52.5t52 -21.5q49 0 67 43l70 -33q-19 -39 -55 -62.5t-82 -23.5z"/>
    <glyph glyph-name="p.smcp" unicode="" horiz-adv-x="506" d="M53 0v596h197q97 0 159 -61t62 -151t-62 -152t-160 -62h-89v-170h-107zM245 497h-85v-227h85q53 0 85.5 32.5t32.5 81.5t-32.5 81t-85.5 32z"/>
    <glyph glyph-name="p.smcp" unicode="" horiz-adv-x="506" d="M53 0v596h197q97 0 159 -61t62 -151t-62 -152t-160 -62h-89v-170h-107zM245 497h-85v-227h85q53 0 85.5 32.5t32.5 81.5t-32.5 81t-85.5 32z"/>
    <glyph glyph-name="a.smcp" unicode="" horiz-adv-x="581" d="M24 0l213 596h107l214 -596h-110l-40 114h-235l-40 -114h-109zM291 449l-83 -235h165z"/>
    <glyph glyph-name="a.smcp" unicode="" horiz-adv-x="581" d="M24 0l213 596h107l214 -596h-110l-40 114h-235l-40 -114h-109zM291 449l-83 -235h165z"/>
    <glyph glyph-name="b.smcp" unicode="" horiz-adv-x="511" d="M53 0v596h203q97 0 150 -42.5t53 -121.5q0 -81 -66 -120q84 -39 84 -137q1 -85 -55 -130t-155 -45h-214zM266 256h-106v-159h109q48 0 74 21.5t26 59.5q0 78 -103 78zM259 500h-99v-145h102q46 0 68.5 20t22.5 55q0 70 -94 70z"/>
    <glyph glyph-name="b.smcp" unicode="" horiz-adv-x="511" d="M53 0v596h203q97 0 150 -42.5t53 -121.5q0 -81 -66 -120q84 -39 84 -137q1 -85 -55 -130t-155 -45h-214zM266 256h-106v-159h109q48 0 74 21.5t26 59.5q0 78 -103 78zM259 500h-99v-145h102q46 0 68.5 20t22.5 55q0 70 -94 70z"/>
    <glyph glyph-name="c.smcp" unicode="" horiz-adv-x="641" d="M345 -8q-132 0 -219.5 89t-87.5 217q0 129 88.5 217.5t218.5 88.5q84 0 156 -42.5t111 -112.5l-94 -55q-25 48 -71 77.5t-102 29.5q-86 0 -142 -59.5t-56 -143.5q0 -85 56.5 -143.5t139.5 -58.5q61 0 107 32t70 85l99 -48q-39 -79 -111 -126t-163 -47z"/>
    <glyph glyph-name="c.smcp" unicode="" horiz-adv-x="641" d="M345 -8q-132 0 -219.5 89t-87.5 217q0 129 88.5 217.5t218.5 88.5q84 0 156 -42.5t111 -112.5l-94 -55q-25 48 -71 77.5t-102 29.5q-86 0 -142 -59.5t-56 -143.5q0 -85 56.5 -143.5t139.5 -58.5q61 0 107 32t70 85l99 -48q-39 -79 -111 -126t-163 -47z"/>
    <glyph glyph-name="d.smcp" unicode="" horiz-adv-x="572" d="M53 0v596h170q140 0 225.5 -84.5t85.5 -213.5q0 -128 -87.5 -213t-220.5 -85h-173zM216 497h-57v-397h60q92 0 149.5 56.5t57.5 141.5q0 88 -55.5 143.5t-154.5 55.5z"/>
    <glyph glyph-name="d.smcp" unicode="" horiz-adv-x="572" d="M53 0v596h170q140 0 225.5 -84.5t85.5 -213.5q0 -128 -87.5 -213t-220.5 -85h-173zM216 497h-57v-397h60q92 0 149.5 56.5t57.5 141.5q0 88 -55.5 143.5t-154.5 55.5z"/>
    <glyph glyph-name="e.smcp" unicode="" horiz-adv-x="453" d="M53 0v596h356v-100h-250v-147h250v-100h-250v-148h250v-101h-356z"/>
    <glyph glyph-name="e.smcp" unicode="" horiz-adv-x="453" d="M53 0v596h356v-100h-250v-147h250v-100h-250v-148h250v-101h-356z"/>
    <glyph glyph-name="f.smcp" unicode="" horiz-adv-x="431" d="M53 0v596h338v-100h-232v-147h232v-100h-232v-249h-106z"/>
    <glyph glyph-name="f.smcp" unicode="" horiz-adv-x="431" d="M53 0v596h338v-100h-232v-147h232v-100h-232v-249h-106z"/>
    <glyph glyph-name="g.smcp" unicode="" horiz-adv-x="673" d="M344 -8q-135 0 -222.5 89.5t-87.5 216.5q0 129 88 217.5t220 88.5q88 0 158 -41t110 -110l-94 -54q-26 49 -71 76.5t-103 27.5q-85 0 -142.5 -60t-57.5 -145q0 -87 56.5 -146t144.5 -59q71 0 118 38.5t62 103.5h-198v101h313v-44q0 -125 -81.5 -212.5t-212.5 -87.5z"/>
    <glyph glyph-name="g.smcp" unicode="" horiz-adv-x="673" d="M344 -8q-135 0 -222.5 89.5t-87.5 216.5q0 129 88 217.5t220 88.5q88 0 158 -41t110 -110l-94 -54q-26 49 -71 76.5t-103 27.5q-85 0 -142.5 -60t-57.5 -145q0 -87 56.5 -146t144.5 -59q71 0 118 38.5t62 103.5h-198v101h313v-44q0 -125 -81.5 -212.5t-212.5 -87.5z"/>
    <glyph glyph-name="h.smcp" unicode="" horiz-adv-x="555" d="M396 0v248h-236v-248h-107v596h107v-244h236v244h107v-596h-107z"/>
    <glyph glyph-name="h.smcp" unicode="" horiz-adv-x="555" d="M396 0v248h-236v-248h-107v596h107v-244h236v244h107v-596h-107z"/>
    <glyph glyph-name="i.smcp" unicode="" horiz-adv-x="224" d="M58 0v596h108v-596h-108z"/>
    <glyph glyph-name="i.smcp" unicode="" horiz-adv-x="224" d="M58 0v596h108v-596h-108z"/>
    <glyph glyph-name="j.smcp" unicode="" horiz-adv-x="419" d="M196 -8q-66 0 -112.5 31.5t-64.5 84.5l102 43q19 -60 74 -60q31 0 48.5 21.5t17.5 57.5v426h108v-420q0 -88 -45 -136t-128 -48z"/>
    <glyph glyph-name="j.smcp" unicode="" horiz-adv-x="419" d="M196 -8q-66 0 -112.5 31.5t-64.5 84.5l102 43q19 -60 74 -60q31 0 48.5 21.5t17.5 57.5v426h108v-420q0 -88 -45 -136t-128 -48z"/>
    <glyph glyph-name="k.smcp" unicode="" horiz-adv-x="537" d="M398 0l-163 284l-75 -88v-196h-107v596h107v-264l219 264h129l-196 -236l207 -360h-121z"/>
    <glyph glyph-name="k.smcp" unicode="" horiz-adv-x="537" d="M398 0l-163 284l-75 -88v-196h-107v596h107v-264l219 264h129l-196 -236l207 -360h-121z"/>
    <glyph glyph-name="l.smcp" unicode="" horiz-adv-x="422" d="M53 0v596h107v-493h225v-103h-332z"/>
    <glyph glyph-name="l.smcp" unicode="" horiz-adv-x="422" d="M53 0v596h107v-493h225v-103h-332z"/>
    <glyph glyph-name="m.smcp" unicode="" horiz-adv-x="689" d="M53 0v596h106l186 -259l190 259h102v-596h-107v419l-185 -252l-186 255v-422h-106z"/>
    <glyph glyph-name="m.smcp" unicode="" horiz-adv-x="689" d="M53 0v596h106l186 -259l190 259h102v-596h-107v419l-185 -252l-186 255v-422h-106z"/>
    <glyph glyph-name="n.smcp" unicode="" horiz-adv-x="603" d="M53 0v596h117l274 -414v414h106v-596h-109l-282 425v-425h-106z"/>
    <glyph glyph-name="n.smcp" unicode="" horiz-adv-x="603" d="M53 0v596h117l274 -414v414h106v-596h-109l-282 425v-425h-106z"/>
    <glyph glyph-name="o.smcp" unicode="" horiz-adv-x="679" d="M339 -8q-127 0 -216 89.5t-89 216.5t89 216.5t216 89.5t216.5 -89.5t89.5 -216.5t-89.5 -216.5t-216.5 -89.5zM339 96q83 0 140 59t57 143t-57 143.5t-140 59.5t-139.5 -59.5t-56.5 -143.5t56.5 -143t139.5 -59z"/>
    <glyph glyph-name="o.smcp" unicode="" horiz-adv-x="679" d="M339 -8q-127 0 -216 89.5t-89 216.5t89 216.5t216 89.5t216.5 -89.5t89.5 -216.5t-89.5 -216.5t-216.5 -89.5zM339 96q83 0 140 59t57 143t-57 143.5t-140 59.5t-139.5 -59.5t-56.5 -143.5t56.5 -143t139.5 -59z"/>
    <glyph glyph-name="q.smcp" unicode="" horiz-adv-x="686" d="M342 -8q-127 0 -215.5 89.5t-88.5 216.5t88.5 216.5t215.5 89.5t216.5 -89.5t89.5 -216.5q0 -113 -75 -199l79 -99h-124l-219 282h120l76 -97q34 49 34 113q0 84 -57 143.5t-140 59.5t-139.5 -59.5t-56.5 -143.5t56.5 -143t139.5 -59q38 0 68 12l66 -85q-62 -31 -134 -31 z"/>
    <glyph glyph-name="q.smcp" unicode="" horiz-adv-x="686" d="M342 -8q-127 0 -215.5 89.5t-88.5 216.5t88.5 216.5t215.5 89.5t216.5 -89.5t89.5 -216.5q0 -113 -75 -199l79 -99h-124l-219 282h120l76 -97q34 49 34 113q0 84 -57 143.5t-140 59.5t-139.5 -59.5t-56.5 -143.5t56.5 -143t139.5 -59q38 0 68 12l66 -85q-62 -31 -134 -31 z"/>
    <glyph glyph-name="r.smcp" unicode="" horiz-adv-x="500" d="M53 0v596h196q97 0 156.5 -56.5t59.5 -141.5q0 -60 -32.5 -108.5t-91.5 -69.5l137 -220h-124l-174 293h59q54 0 85 31.5t31 72.5q0 47 -28.5 73.5t-84.5 26.5h-82v-497h-107z"/>
    <glyph glyph-name="r.smcp" unicode="" horiz-adv-x="500" d="M53 0v596h196q97 0 156.5 -56.5t59.5 -141.5q0 -60 -32.5 -108.5t-91.5 -69.5l137 -220h-124l-174 293h59q54 0 85 31.5t31 72.5q0 47 -28.5 73.5t-84.5 26.5h-82v-497h-107z"/>
    <glyph glyph-name="s.smcp" unicode="" horiz-adv-x="483" d="M241 -8q-137 0 -226 108l94 74q49 -82 132 -82q42 0 68.5 24t26.5 58q0 23 -18.5 40.5t-36.5 25t-59 20.5q-8 3 -12 4q-38 12 -61.5 22t-51.5 29.5t-42 49t-14 70.5q0 73 55.5 121.5t139.5 48.5q122 0 201 -91l-87 -66q-39 63 -113 63q-39 0 -63 -20.5t-24 -51.5 q0 -23 19 -40t35 -24t60 -21q7 -3 11 -4q37 -12 61.5 -22.5t53 -30.5t43 -50t14.5 -71q0 -75 -56.5 -129.5t-149.5 -54.5z"/>
    <glyph glyph-name="s.smcp" unicode="" horiz-adv-x="483" d="M241 -8q-137 0 -226 108l94 74q49 -82 132 -82q42 0 68.5 24t26.5 58q0 23 -18.5 40.5t-36.5 25t-59 20.5q-8 3 -12 4q-38 12 -61.5 22t-51.5 29.5t-42 49t-14 70.5q0 73 55.5 121.5t139.5 48.5q122 0 201 -91l-87 -66q-39 63 -113 63q-39 0 -63 -20.5t-24 -51.5 q0 -23 19 -40t35 -24t60 -21q7 -3 11 -4q37 -12 61.5 -22.5t53 -30.5t43 -50t14.5 -71q0 -75 -56.5 -129.5t-149.5 -54.5z"/>
    <glyph glyph-name="t.smcp" unicode="" horiz-adv-x="502" d="M199 0v495h-162v101h429v-101h-161v-495h-106z"/>
    <glyph glyph-name="t.smcp" unicode="" horiz-adv-x="502" d="M199 0v495h-162v101h429v-101h-161v-495h-106z"/>
    <glyph glyph-name="u.smcp" unicode="" horiz-adv-x="528" d="M264 -8q-97 0 -155.5 56.5t-58.5 156.5v391h107v-395q0 -50 29.5 -80t77.5 -30t77.5 30t29.5 80v395h107v-391q0 -100 -59 -156.5t-155 -56.5z"/>
    <glyph glyph-name="u.smcp" unicode="" horiz-adv-x="528" d="M264 -8q-97 0 -155.5 56.5t-58.5 156.5v391h107v-395q0 -50 29.5 -80t77.5 -30t77.5 30t29.5 80v395h107v-391q0 -100 -59 -156.5t-155 -56.5z"/>
    <glyph glyph-name="v.smcp" unicode="" horiz-adv-x="560" d="M225 0l-202 596h112l146 -436l144 436h112l-201 -596h-111z"/>
    <glyph glyph-name="v.smcp" unicode="" horiz-adv-x="560" d="M225 0l-202 596h112l146 -436l144 436h112l-201 -596h-111z"/>
    <glyph glyph-name="w.smcp" unicode="" horiz-adv-x="862" d="M192 0l-168 596h111l113 -425l129 425h105l129 -429l120 429h108l-174 -596h-107l-128 429l-129 -429h-109z"/>
    <glyph glyph-name="w.smcp" unicode="" horiz-adv-x="862" d="M192 0l-168 596h111l113 -425l129 425h105l129 -429l120 429h108l-174 -596h-107l-128 429l-129 -429h-109z"/>
    <glyph glyph-name="x.smcp" unicode="" horiz-adv-x="540" d="M402 0l-130 212l-131 -212h-120l191 303l-182 293h118l125 -202l122 202h120l-183 -291l188 -305h-118z"/>
    <glyph glyph-name="x.smcp" unicode="" horiz-adv-x="540" d="M402 0l-130 212l-131 -212h-120l191 303l-182 293h118l125 -202l122 202h120l-183 -291l188 -305h-118z"/>
    <glyph glyph-name="y.smcp" unicode="" horiz-adv-x="531" d="M212 0v281l-191 315h117l127 -213l129 213h117l-191 -316v-280h-108z"/>
    <glyph glyph-name="y.smcp" unicode="" horiz-adv-x="531" d="M212 0v281l-191 315h117l127 -213l129 213h117l-191 -316v-280h-108z"/>
    <glyph glyph-name="z.smcp" unicode="" horiz-adv-x="473" d="M39 0v99l268 397h-261v100h387v-97l-270 -398h270v-101h-394z"/>
    <glyph glyph-name="z.smcp" unicode="" horiz-adv-x="473" d="M39 0v99l268 397h-261v100h387v-97l-270 -398h270v-101h-394z"/>
    <glyph glyph-name="anocross.smcp" unicode="" horiz-adv-x="581" d="M24 0l213 596h107l214 -596h-110l-157 449l-158 -449h-109z"/>
    <glyph glyph-name="aacute.smcp" unicode="" horiz-adv-x="581" d="M24 0l213 596h107l214 -596h-110l-40 114h-235l-40 -114h-109zM291 449l-83 -235h165zM248 650l116 166h114l-148 -166h-82z"/>
    <glyph glyph-name="aacute.smcp" unicode="" horiz-adv-x="581" d="M24 0l213 596h107l214 -596h-110l-40 114h-235l-40 -114h-109zM291 449l-83 -235h165zM248 650l116 166h114l-148 -166h-82z"/>
    <glyph glyph-name="agrave.smcp" unicode="" horiz-adv-x="581" d="M24 0l213 596h107l214 -596h-110l-40 114h-235l-40 -114h-109zM291 449l-83 -235h165zM250 650l-148 166h114l116 -166h-82z"/>
    <glyph glyph-name="agrave.smcp" unicode="" horiz-adv-x="581" d="M24 0l213 596h107l214 -596h-110l-40 114h-235l-40 -114h-109zM291 449l-83 -235h165zM250 650l-148 166h114l116 -166h-82z"/>
    <glyph glyph-name="acircumflex.smcp" unicode="" horiz-adv-x="581" d="M24 0l213 596h107l214 -596h-110l-40 114h-235l-40 -114h-109zM133 646l119 166h75l119 -166h-91l-66 94l-64 -94h-92zM291 449l-83 -235h165z"/>
    <glyph glyph-name="acircumflex.smcp" unicode="" horiz-adv-x="581" d="M24 0l213 596h107l214 -596h-110l-40 114h-235l-40 -114h-109zM133 646l119 166h75l119 -166h-91l-66 94l-64 -94h-92zM291 449l-83 -235h165z"/>
    <glyph glyph-name="adieresis.smcp" unicode="" horiz-adv-x="581" d="M24 0l213 596h107l214 -596h-110l-40 114h-235l-40 -114h-109zM291 449l-83 -235h165zM157 654v138h107v-138h-107zM318 654v138h107v-138h-107z"/>
    <glyph glyph-name="adieresis.smcp" unicode="" horiz-adv-x="581" d="M24 0l213 596h107l214 -596h-110l-40 114h-235l-40 -114h-109zM291 449l-83 -235h165zM157 654v138h107v-138h-107zM318 654v138h107v-138h-107z"/>
    <glyph glyph-name="atilde.smcp" unicode="" horiz-adv-x="581" d="M24 0l213 596h107l214 -596h-110l-40 114h-235l-40 -114h-109zM118 650q0 58 28 93t74 35q35 0 79 -26q40 -26 57 -26q33 0 33 48h71q0 -60 -26.5 -94t-76.5 -34q-34 0 -89 32q-32 19 -48 19q-31 0 -31 -47h-71zM291 449l-83 -235h165z"/>
    <glyph glyph-name="atilde.smcp" unicode="" horiz-adv-x="581" d="M24 0l213 596h107l214 -596h-110l-40 114h-235l-40 -114h-109zM118 650q0 58 28 93t74 35q35 0 79 -26q40 -26 57 -26q33 0 33 48h71q0 -60 -26.5 -94t-76.5 -34q-34 0 -89 32q-32 19 -48 19q-31 0 -31 -47h-71zM291 449l-83 -235h165z"/>
    <glyph glyph-name="aring.smcp" unicode="" horiz-adv-x="581" d="M24 0l201 562q-48 33 -48 93q0 47 32.5 80t78.5 33q48 0 81 -33t33 -80q0 -59 -47 -91l203 -564h-110l-40 114h-235l-40 -114h-109zM291 449l-83 -235h165zM288 612q19 0 32 12.5t13 30.5t-13 31.5t-32 13.5q-17 0 -30 -13.5t-13 -31.5t13 -30.5t30 -12.5z"/>
    <glyph glyph-name="aring.smcp" unicode="" horiz-adv-x="581" d="M24 0l201 562q-48 33 -48 93q0 47 32.5 80t78.5 33q48 0 81 -33t33 -80q0 -59 -47 -91l203 -564h-110l-40 114h-235l-40 -114h-109zM291 449l-83 -235h165zM288 612q19 0 32 12.5t13 30.5t-13 31.5t-32 13.5q-17 0 -30 -13.5t-13 -31.5t13 -30.5t30 -12.5z"/>
    <glyph glyph-name="amacron.smcp" unicode="" horiz-adv-x="581" d="M24 0l213 596h107l214 -596h-110l-40 114h-235l-40 -114h-109zM157 650v77h264v-77h-264zM291 449l-83 -235h165z"/>
    <glyph glyph-name="amacron.smcp" unicode="" horiz-adv-x="581" d="M24 0l213 596h107l214 -596h-110l-40 114h-235l-40 -114h-109zM157 650v77h264v-77h-264zM291 449l-83 -235h165z"/>
    <glyph glyph-name="abreve.smcp" unicode="" horiz-adv-x="581" d="M24 0l213 596h107l214 -596h-110l-40 114h-235l-40 -114h-109zM288 643q-79 0 -120 46t-41 120h76q0 -98 85 -100q41 1 63 27t22 73h77q0 -71 -44.5 -118.5t-117.5 -47.5zM291 449l-83 -235h165z"/>
    <glyph glyph-name="abreve.smcp" unicode="" horiz-adv-x="581" d="M24 0l213 596h107l214 -596h-110l-40 114h-235l-40 -114h-109zM288 643q-79 0 -120 46t-41 120h76q0 -98 85 -100q41 1 63 27t22 73h77q0 -71 -44.5 -118.5t-117.5 -47.5zM291 449l-83 -235h165z"/>
    <glyph glyph-name="aringacute.smcp" unicode="" horiz-adv-x="581" d="M24 0l201 562q-48 33 -48 93q0 47 32.5 80t78.5 33q48 0 81 -33t33 -80q0 -59 -47 -91l203 -564h-110l-40 114h-235l-40 -114h-109zM291 449l-83 -235h165zM245 806l116 166h114l-148 -166h-82zM288 612q19 0 32 12.5t13 30.5t-13 31.5t-32 13.5q-17 0 -30 -13.5 t-13 -31.5t13 -30.5t30 -12.5z"/>
    <glyph glyph-name="aringacute.smcp" unicode="" horiz-adv-x="581" d="M24 0l201 562q-48 33 -48 93q0 47 32.5 80t78.5 33q48 0 81 -33t33 -80q0 -59 -47 -91l203 -564h-110l-40 114h-235l-40 -114h-109zM291 449l-83 -235h165zM245 806l116 166h114l-148 -166h-82zM288 612q19 0 32 12.5t13 30.5t-13 31.5t-32 13.5q-17 0 -30 -13.5 t-13 -31.5t13 -30.5t30 -12.5z"/>
    <glyph glyph-name="aogonek.smcp" unicode="" horiz-adv-x="581" d="M24 0l213 596h107l214 -596h-3l2 -1q-80 -50 -103.5 -70.5t-23.5 -41.5q0 -35 49 -35q30 0 67 31l71 -48q-64 -57 -138 -57q-61 0 -100 30t-39 75q0 71 103 131l-35 100h-235l-40 -114h-109zM291 449l-83 -235h165z"/>
    <glyph glyph-name="aogonek.smcp" unicode="" horiz-adv-x="581" d="M24 0l213 596h107l214 -596h-3l2 -1q-80 -50 -103.5 -70.5t-23.5 -41.5q0 -35 49 -35q30 0 67 31l71 -48q-64 -57 -138 -57q-61 0 -100 30t-39 75q0 71 103 131l-35 100h-235l-40 -114h-109zM291 449l-83 -235h165z"/>
    <glyph glyph-name="edieresis.smcp" unicode="" horiz-adv-x="452" d="M53 0v596h356v-100h-250v-147h250v-100h-250v-148h250v-101h-356zM101 654v138h107v-138h-107zM262 654v138h107v-138h-107z"/>
    <glyph glyph-name="edieresis.smcp" unicode="" horiz-adv-x="452" d="M53 0v596h356v-100h-250v-147h250v-100h-250v-148h250v-101h-356zM101 654v138h107v-138h-107zM262 654v138h107v-138h-107z"/>
    <glyph glyph-name="ae.smcp" unicode="" horiz-adv-x="820" d="M21 0l276 596h480v-101h-343l29 -145h314v-101h-295l29 -147h266v-102h-356l-21 110h-213l-50 -110h-116zM337 437l-105 -229h149z"/>
    <glyph glyph-name="ae.smcp" unicode="" horiz-adv-x="820" d="M21 0l276 596h480v-101h-343l29 -145h314v-101h-295l29 -147h266v-102h-356l-21 110h-213l-50 -110h-116zM337 437l-105 -229h149z"/>
    <glyph glyph-name="aeacute.smcp" unicode="" horiz-adv-x="823" d="M21 0l276 596h480v-101h-343l29 -145h314v-101h-295l29 -147h266v-102h-356l-21 110h-213l-50 -110h-116zM337 437l-105 -229h149zM438 650l116 166h114l-148 -166h-82z"/>
    <glyph glyph-name="aeacute.smcp" unicode="" horiz-adv-x="823" d="M21 0l276 596h480v-101h-343l29 -145h314v-101h-295l29 -147h266v-102h-356l-21 110h-213l-50 -110h-116zM337 437l-105 -229h149zM438 650l116 166h114l-148 -166h-82z"/>
    <glyph glyph-name="cacute.smcp" unicode="" horiz-adv-x="641" d="M299 650l116 166h114l-148 -166h-82zM345 -8q-132 0 -219.5 89t-87.5 217q0 129 88.5 217.5t218.5 88.5q84 0 156 -42.5t111 -112.5l-94 -55q-25 48 -71 77.5t-102 29.5q-86 0 -142 -59.5t-56 -143.5q0 -85 56.5 -143.5t139.5 -58.5q61 0 107 32t70 85l99 -48 q-39 -79 -111 -126t-163 -47z"/>
    <glyph glyph-name="cacute.smcp" unicode="" horiz-adv-x="641" d="M299 650l116 166h114l-148 -166h-82zM345 -8q-132 0 -219.5 89t-87.5 217q0 129 88.5 217.5t218.5 88.5q84 0 156 -42.5t111 -112.5l-94 -55q-25 48 -71 77.5t-102 29.5q-86 0 -142 -59.5t-56 -143.5q0 -85 56.5 -143.5t139.5 -58.5q61 0 107 32t70 85l99 -48 q-39 -79 -111 -126t-163 -47z"/>
    <glyph glyph-name="ccircumflex.smcp" unicode="" horiz-adv-x="641" d="M345 -8q-132 0 -219.5 89t-87.5 217q0 129 88.5 217.5t218.5 88.5q84 0 156 -42.5t111 -112.5l-94 -55q-25 48 -71 77.5t-102 29.5q-86 0 -142 -59.5t-56 -143.5q0 -85 56.5 -143.5t139.5 -58.5q61 0 107 32t70 85l99 -48q-39 -79 -111 -126t-163 -47zM191 648l119 166 h75l119 -166h-91l-66 94l-64 -94h-92z"/>
    <glyph glyph-name="ccircumflex.smcp" unicode="" horiz-adv-x="641" d="M345 -8q-132 0 -219.5 89t-87.5 217q0 129 88.5 217.5t218.5 88.5q84 0 156 -42.5t111 -112.5l-94 -55q-25 48 -71 77.5t-102 29.5q-86 0 -142 -59.5t-56 -143.5q0 -85 56.5 -143.5t139.5 -58.5q61 0 107 32t70 85l99 -48q-39 -79 -111 -126t-163 -47zM191 648l119 166 h75l119 -166h-91l-66 94l-64 -94h-92z"/>
    <glyph glyph-name="ccaron.smcp" unicode="" horiz-adv-x="641" d="M345 -8q-132 0 -219.5 89t-87.5 217q0 129 88.5 217.5t218.5 88.5q84 0 156 -42.5t111 -112.5l-94 -55q-25 48 -71 77.5t-102 29.5q-86 0 -142 -59.5t-56 -143.5q0 -85 56.5 -143.5t139.5 -58.5q61 0 107 32t70 85l99 -48q-39 -79 -111 -126t-163 -47zM309 650l-119 166 h92l64 -94l66 94h91l-119 -166h-75z"/>
    <glyph glyph-name="ccaron.smcp" unicode="" horiz-adv-x="641" d="M345 -8q-132 0 -219.5 89t-87.5 217q0 129 88.5 217.5t218.5 88.5q84 0 156 -42.5t111 -112.5l-94 -55q-25 48 -71 77.5t-102 29.5q-86 0 -142 -59.5t-56 -143.5q0 -85 56.5 -143.5t139.5 -58.5q61 0 107 32t70 85l99 -48q-39 -79 -111 -126t-163 -47zM309 650l-119 166 h92l64 -94l66 94h91l-119 -166h-75z"/>
    <glyph glyph-name="cdotaccent.smcp" unicode="" horiz-adv-x="641" d="M345 -8q-132 0 -219.5 89t-87.5 217q0 129 88.5 217.5t218.5 88.5q84 0 156 -42.5t111 -112.5l-94 -55q-25 48 -71 77.5t-102 29.5q-86 0 -142 -59.5t-56 -143.5q0 -85 56.5 -143.5t139.5 -58.5q61 0 107 32t70 85l99 -48q-39 -79 -111 -126t-163 -47zM295 654v138h107 v-138h-107z"/>
    <glyph glyph-name="cdotaccent.smcp" unicode="" horiz-adv-x="641" d="M345 -8q-132 0 -219.5 89t-87.5 217q0 129 88.5 217.5t218.5 88.5q84 0 156 -42.5t111 -112.5l-94 -55q-25 48 -71 77.5t-102 29.5q-86 0 -142 -59.5t-56 -143.5q0 -85 56.5 -143.5t139.5 -58.5q61 0 107 32t70 85l99 -48q-39 -79 -111 -126t-163 -47zM295 654v138h107 v-138h-107z"/>
    <glyph glyph-name="ccedilla.smcp" unicode="" horiz-adv-x="641" d="M337 -237q-82 0 -144 57l69 42q43 -34 81 -34q25 0 43 10t18 25q0 32 -64 32h-46v101q-113 17 -184.5 102t-71.5 200q0 129 88.5 217.5t218.5 88.5q84 0 156 -42.5t111 -112.5l-94 -55q-25 48 -71 77.5t-102 29.5q-86 0 -142 -59.5t-56 -143.5q0 -85 56.5 -143.5 t139.5 -58.5q61 0 107 32t70 85l99 -48q-37 -74 -102 -120t-148 -52v-46q53 1 85 -21.5t32 -58.5q0 -45 -43.5 -74.5t-105.5 -29.5z"/>
    <glyph glyph-name="ccedilla.smcp" unicode="" horiz-adv-x="641" d="M337 -237q-82 0 -144 57l69 42q43 -34 81 -34q25 0 43 10t18 25q0 32 -64 32h-46v101q-113 17 -184.5 102t-71.5 200q0 129 88.5 217.5t218.5 88.5q84 0 156 -42.5t111 -112.5l-94 -55q-25 48 -71 77.5t-102 29.5q-86 0 -142 -59.5t-56 -143.5q0 -85 56.5 -143.5 t139.5 -58.5q61 0 107 32t70 85l99 -48q-37 -74 -102 -120t-148 -52v-46q53 1 85 -21.5t32 -58.5q0 -45 -43.5 -74.5t-105.5 -29.5z"/>
    <glyph glyph-name="dcaron.smcp" unicode="" horiz-adv-x="572" d="M53 0v596h170q140 0 225.5 -84.5t85.5 -213.5q0 -128 -87.5 -213t-220.5 -85h-173zM216 497h-57v-397h60q92 0 149.5 56.5t57.5 141.5q0 88 -55.5 143.5t-154.5 55.5zM219 650l-119 166h92l64 -94l66 94h91l-119 -166h-75z"/>
    <glyph glyph-name="dcaron.smcp" unicode="" horiz-adv-x="572" d="M53 0v596h170q140 0 225.5 -84.5t85.5 -213.5q0 -128 -87.5 -213t-220.5 -85h-173zM216 497h-57v-397h60q92 0 149.5 56.5t57.5 141.5q0 88 -55.5 143.5t-154.5 55.5zM219 650l-119 166h92l64 -94l66 94h91l-119 -166h-75z"/>
    <glyph glyph-name="dcroat.smcp" unicode="" horiz-adv-x="604" d="M24 254v91h60v251h171q140 0 225.5 -84.5t85.5 -213.5q0 -128 -87.5 -213t-220.5 -85h-174v254h-60zM323 254h-132v-154h60q92 0 149 56.5t57 141.5q0 88 -55 143.5t-154 55.5h-57v-152h132v-91z"/>
    <glyph glyph-name="dcroat.smcp" unicode="" horiz-adv-x="604" d="M24 254v91h60v251h171q140 0 225.5 -84.5t85.5 -213.5q0 -128 -87.5 -213t-220.5 -85h-174v254h-60zM323 254h-132v-154h60q92 0 149 56.5t57 141.5q0 88 -55 143.5t-154 55.5h-57v-152h132v-91z"/>
    <glyph glyph-name="eacute.smcp" unicode="" horiz-adv-x="452" d="M53 0v596h356v-100h-250v-147h250v-100h-250v-148h250v-101h-356zM177 650l116 166h114l-148 -166h-82z"/>
    <glyph glyph-name="eacute.smcp" unicode="" horiz-adv-x="452" d="M53 0v596h356v-100h-250v-147h250v-100h-250v-148h250v-101h-356zM177 650l116 166h114l-148 -166h-82z"/>
    <glyph glyph-name="egrave.smcp" unicode="" horiz-adv-x="452" d="M53 0v596h356v-100h-250v-147h250v-100h-250v-148h250v-101h-356zM210 650l-148 166h114l116 -166h-82z"/>
    <glyph glyph-name="egrave.smcp" unicode="" horiz-adv-x="452" d="M53 0v596h356v-100h-250v-147h250v-100h-250v-148h250v-101h-356zM210 650l-148 166h114l116 -166h-82z"/>
    <glyph glyph-name="ecircumflex.smcp" unicode="" horiz-adv-x="452" d="M53 0v596h356v-100h-250v-147h250v-100h-250v-148h250v-101h-356zM77 650l119 166h75l119 -166h-91l-66 94l-64 -94h-92z"/>
    <glyph glyph-name="ecircumflex.smcp" unicode="" horiz-adv-x="452" d="M53 0v596h356v-100h-250v-147h250v-100h-250v-148h250v-101h-356zM77 650l119 166h75l119 -166h-91l-66 94l-64 -94h-92z"/>
    <glyph glyph-name="gcommaaccent.smcp" unicode="" horiz-adv-x="673" d="M344 -8q-135 0 -222.5 89.5t-87.5 216.5q0 129 88 217.5t220 88.5q88 0 158 -41t110 -110l-94 -54q-26 49 -71 76.5t-103 27.5q-85 0 -142.5 -60t-57.5 -145q0 -87 56.5 -146t144.5 -59q71 0 118 38.5t62 103.5h-198v101h313v-44q0 -125 -81.5 -212.5t-212.5 -87.5z M326 -261h-69l38 204h96z"/>
    <glyph glyph-name="gcommaaccent.smcp" unicode="" horiz-adv-x="673" d="M344 -8q-135 0 -222.5 89.5t-87.5 216.5q0 129 88 217.5t220 88.5q88 0 158 -41t110 -110l-94 -54q-26 49 -71 76.5t-103 27.5q-85 0 -142.5 -60t-57.5 -145q0 -87 56.5 -146t144.5 -59q71 0 118 38.5t62 103.5h-198v101h313v-44q0 -125 -81.5 -212.5t-212.5 -87.5z M326 -261h-69l38 204h96z"/>
    <glyph glyph-name="ecaron.smcp" unicode="" horiz-adv-x="452" d="M53 0v596h356v-100h-250v-147h250v-100h-250v-148h250v-101h-356zM197 650l-119 166h92l64 -94l66 94h91l-119 -166h-75z"/>
    <glyph glyph-name="ecaron.smcp" unicode="" horiz-adv-x="452" d="M53 0v596h356v-100h-250v-147h250v-100h-250v-148h250v-101h-356zM197 650l-119 166h92l64 -94l66 94h91l-119 -166h-75z"/>
    <glyph glyph-name="emacron.smcp" unicode="" horiz-adv-x="452" d="M53 0v596h356v-100h-250v-147h250v-100h-250v-148h250v-101h-356zM101 650v77h264v-77h-264z"/>
    <glyph glyph-name="emacron.smcp" unicode="" horiz-adv-x="452" d="M53 0v596h356v-100h-250v-147h250v-100h-250v-148h250v-101h-356zM101 650v77h264v-77h-264z"/>
    <glyph glyph-name="ebreve.smcp" unicode="" horiz-adv-x="452" d="M53 0v596h356v-100h-250v-147h250v-100h-250v-148h250v-101h-356zM237 643q-79 0 -120 46t-41 120h76q0 -98 85 -100q41 1 63 27t22 73h77q0 -71 -44.5 -118.5t-117.5 -47.5z"/>
    <glyph glyph-name="ebreve.smcp" unicode="" horiz-adv-x="452" d="M53 0v596h356v-100h-250v-147h250v-100h-250v-148h250v-101h-356zM237 643q-79 0 -120 46t-41 120h76q0 -98 85 -100q41 1 63 27t22 73h77q0 -71 -44.5 -118.5t-117.5 -47.5z"/>
    <glyph glyph-name="edotaccent.smcp" unicode="" horiz-adv-x="452" d="M53 0v596h356v-100h-250v-147h250v-100h-250v-148h250v-101h-356zM183 654v138h107v-138h-107z"/>
    <glyph glyph-name="edotaccent.smcp" unicode="" horiz-adv-x="452" d="M53 0v596h356v-100h-250v-147h250v-100h-250v-148h250v-101h-356zM183 654v138h107v-138h-107z"/>
    <glyph glyph-name="eogonek.smcp" unicode="" horiz-adv-x="452" d="M53 0v596h356v-100h-250v-147h250v-100h-250v-148h250v-101h-3l2 -1q-80 -50 -103.5 -70.5t-23.5 -41.5q0 -35 49 -35q30 0 67 31l71 -48q-64 -57 -138 -57q-61 0 -100 30t-39 75q0 64 79 117h-217z"/>
    <glyph glyph-name="eogonek.smcp" unicode="" horiz-adv-x="452" d="M53 0v596h356v-100h-250v-147h250v-100h-250v-148h250v-101h-3l2 -1q-80 -50 -103.5 -70.5t-23.5 -41.5q0 -35 49 -35q30 0 67 31l71 -48q-64 -57 -138 -57q-61 0 -100 30t-39 75q0 64 79 117h-217z"/>
    <glyph glyph-name="gcircumflex.smcp" unicode="" horiz-adv-x="673" d="M344 -8q-135 0 -222.5 89.5t-87.5 216.5q0 129 88 217.5t220 88.5q88 0 158 -41t110 -110l-94 -54q-26 49 -71 76.5t-103 27.5q-85 0 -142.5 -60t-57.5 -145q0 -87 56.5 -146t144.5 -59q71 0 118 38.5t62 103.5h-198v101h313v-44q0 -125 -81.5 -212.5t-212.5 -87.5z M185 649l119 166h75l119 -166h-91l-66 94l-64 -94h-92z"/>
    <glyph glyph-name="gcircumflex.smcp" unicode="" horiz-adv-x="673" d="M344 -8q-135 0 -222.5 89.5t-87.5 216.5q0 129 88 217.5t220 88.5q88 0 158 -41t110 -110l-94 -54q-26 49 -71 76.5t-103 27.5q-85 0 -142.5 -60t-57.5 -145q0 -87 56.5 -146t144.5 -59q71 0 118 38.5t62 103.5h-198v101h313v-44q0 -125 -81.5 -212.5t-212.5 -87.5z M185 649l119 166h75l119 -166h-91l-66 94l-64 -94h-92z"/>
    <glyph glyph-name="gbreve.smcp" unicode="" horiz-adv-x="673" d="M344 -8q-135 0 -222.5 89.5t-87.5 216.5q0 129 88 217.5t220 88.5q88 0 158 -41t110 -110l-94 -54q-26 49 -71 76.5t-103 27.5q-85 0 -142.5 -60t-57.5 -145q0 -87 56.5 -146t144.5 -59q71 0 118 38.5t62 103.5h-198v101h313v-44q0 -125 -81.5 -212.5t-212.5 -87.5z M342 646q-79 0 -120 46t-41 120h76q0 -98 85 -100q41 1 63 27t22 73h77q0 -71 -44.5 -118.5t-117.5 -47.5z"/>
    <glyph glyph-name="gbreve.smcp" unicode="" horiz-adv-x="673" d="M344 -8q-135 0 -222.5 89.5t-87.5 216.5q0 129 88 217.5t220 88.5q88 0 158 -41t110 -110l-94 -54q-26 49 -71 76.5t-103 27.5q-85 0 -142.5 -60t-57.5 -145q0 -87 56.5 -146t144.5 -59q71 0 118 38.5t62 103.5h-198v101h313v-44q0 -125 -81.5 -212.5t-212.5 -87.5z M342 646q-79 0 -120 46t-41 120h76q0 -98 85 -100q41 1 63 27t22 73h77q0 -71 -44.5 -118.5t-117.5 -47.5z"/>
    <glyph glyph-name="gdotaccent.smcp" unicode="" horiz-adv-x="673" d="M344 -8q-135 0 -222.5 89.5t-87.5 216.5q0 129 88 217.5t220 88.5q88 0 158 -41t110 -110l-94 -54q-26 49 -71 76.5t-103 27.5q-85 0 -142.5 -60t-57.5 -145q0 -87 56.5 -146t144.5 -59q71 0 118 38.5t62 103.5h-198v101h313v-44q0 -125 -81.5 -212.5t-212.5 -87.5z M290 654v138h107v-138h-107z"/>
    <glyph glyph-name="gdotaccent.smcp" unicode="" horiz-adv-x="673" d="M344 -8q-135 0 -222.5 89.5t-87.5 216.5q0 129 88 217.5t220 88.5q88 0 158 -41t110 -110l-94 -54q-26 49 -71 76.5t-103 27.5q-85 0 -142.5 -60t-57.5 -145q0 -87 56.5 -146t144.5 -59q71 0 118 38.5t62 103.5h-198v101h313v-44q0 -125 -81.5 -212.5t-212.5 -87.5z M290 654v138h107v-138h-107z"/>
    <glyph glyph-name="hcircumflex.smcp" unicode="" horiz-adv-x="555" d="M396 0v248h-236v-248h-107v596h107v-244h236v244h107v-596h-107zM120 649l119 166h75l119 -166h-91l-66 94l-64 -94h-92z"/>
    <glyph glyph-name="hcircumflex.smcp" unicode="" horiz-adv-x="555" d="M396 0v248h-236v-248h-107v596h107v-244h236v244h107v-596h-107zM120 649l119 166h75l119 -166h-91l-66 94l-64 -94h-92z"/>
    <glyph glyph-name="hbar.smcp" unicode="" horiz-adv-x="591" d="M414 0v238h-236v-238h-107v417h-53v104h53v75h107v-75h236v75h107v-75h52v-104h-52v-417h-107zM178 417v-75h236v75h-236z"/>
    <glyph glyph-name="hbar.smcp" unicode="" horiz-adv-x="591" d="M414 0v238h-236v-238h-107v417h-53v104h53v75h107v-75h236v75h107v-75h52v-104h-52v-417h-107zM178 417v-75h236v75h-236z"/>
    <glyph glyph-name="iacute.smcp" unicode="" horiz-adv-x="224" d="M67 650l116 166h114l-148 -166h-82zM58 0v596h108v-596h-108z"/>
    <glyph glyph-name="iacute.smcp" unicode="" horiz-adv-x="224" d="M67 650l116 166h114l-148 -166h-82zM58 0v596h108v-596h-108z"/>
    <glyph glyph-name="igrave.smcp" unicode="" horiz-adv-x="224" d="M73 650l-148 166h114l116 -166h-82zM58 0v596h108v-596h-108z"/>
    <glyph glyph-name="igrave.smcp" unicode="" horiz-adv-x="224" d="M73 650l-148 166h114l116 -166h-82zM58 0v596h108v-596h-108z"/>
    <glyph glyph-name="icircumflex.smcp" unicode="" horiz-adv-x="224" d="M58 0v596h108v-596h-108zM-40 646l119 166h75l119 -166h-91l-66 94l-64 -94h-92z"/>
    <glyph glyph-name="icircumflex.smcp" unicode="" horiz-adv-x="224" d="M58 0v596h108v-596h-108zM-40 646l119 166h75l119 -166h-91l-66 94l-64 -94h-92z"/>
    <glyph glyph-name="idieresis.smcp" unicode="" horiz-adv-x="224" d="M173 654v138h107v-138h-107zM-45 654v138h107v-138h-107zM58 0v596h108v-596h-108z"/>
    <glyph glyph-name="idieresis.smcp" unicode="" horiz-adv-x="224" d="M173 654v138h107v-138h-107zM-45 654v138h107v-138h-107zM58 0v596h108v-596h-108z"/>
    <glyph glyph-name="itilde.smcp" unicode="" horiz-adv-x="224" d="M58 0v596h108v-596h-108zM-55 650q0 58 28 93t74 35q35 0 79 -26q40 -26 57 -26q33 0 33 48h71q0 -60 -26.5 -94t-76.5 -34q-34 0 -89 32q-32 19 -48 19q-31 0 -31 -47h-71z"/>
    <glyph glyph-name="itilde.smcp" unicode="" horiz-adv-x="224" d="M58 0v596h108v-596h-108zM-55 650q0 58 28 93t74 35q35 0 79 -26q40 -26 57 -26q33 0 33 48h71q0 -60 -26.5 -94t-76.5 -34q-34 0 -89 32q-32 19 -48 19q-31 0 -31 -47h-71z"/>
    <glyph glyph-name="imacron.smcp" unicode="" horiz-adv-x="224" d="M-22 650v77h264v-77h-264zM58 0v596h108v-596h-108z"/>
    <glyph glyph-name="imacron.smcp" unicode="" horiz-adv-x="224" d="M-22 650v77h264v-77h-264zM58 0v596h108v-596h-108z"/>
    <glyph glyph-name="ibreve.smcp" unicode="" horiz-adv-x="224" d="M58 0v596h108v-596h-108zM111 643q-79 0 -120 46t-41 120h76q0 -98 85 -100q41 1 63 27t22 73h77q0 -71 -44.5 -118.5t-117.5 -47.5z"/>
    <glyph glyph-name="ibreve.smcp" unicode="" horiz-adv-x="224" d="M58 0v596h108v-596h-108zM111 643q-79 0 -120 46t-41 120h76q0 -98 85 -100q41 1 63 27t22 73h77q0 -71 -44.5 -118.5t-117.5 -47.5z"/>
    <glyph glyph-name="idotaccent.smcp" unicode="" horiz-adv-x="224" d="M58 0v596h108v-596h-108zM59 650v138h107v-138h-107z"/>
    <glyph glyph-name="idotaccent.smcp" unicode="" horiz-adv-x="224" d="M58 0v596h108v-596h-108zM59 650v138h107v-138h-107z"/>
    <glyph glyph-name="iogonek.smcp" unicode="" horiz-adv-x="224" d="M114 -224q-58 0 -92 31.5t-35 77.5q-1 65 71 124v587h108v-596q-92 -64 -92 -108q0 -18 12 -29t31 -11q28 0 57 29l62 -55q-57 -50 -122 -50z"/>
    <glyph glyph-name="iogonek.smcp" unicode="" horiz-adv-x="224" d="M114 -224q-58 0 -92 31.5t-35 77.5q-1 65 71 124v587h108v-596q-92 -64 -92 -108q0 -18 12 -29t31 -11q28 0 57 29l62 -55q-57 -50 -122 -50z"/>
    <glyph glyph-name="jcircumflex.smcp" unicode="" horiz-adv-x="419" d="M196 -8q-66 0 -112.5 31.5t-64.5 84.5l102 43q19 -60 74 -60q31 0 48.5 21.5t17.5 57.5v426h108v-420q0 -88 -45 -136t-128 -48zM155 645l119 166h75l119 -166h-91l-66 94l-64 -94h-92z"/>
    <glyph glyph-name="jcircumflex.smcp" unicode="" horiz-adv-x="419" d="M196 -8q-66 0 -112.5 31.5t-64.5 84.5l102 43q19 -60 74 -60q31 0 48.5 21.5t17.5 57.5v426h108v-420q0 -88 -45 -136t-128 -48zM155 645l119 166h75l119 -166h-91l-66 94l-64 -94h-92z"/>
    <glyph glyph-name="kcommaaccent.smcp" unicode="" horiz-adv-x="537" d="M398 0l-163 284l-75 -88v-196h-107v596h107v-264l219 264h129l-196 -236l207 -360h-121zM260 -249h-69l38 204h96z"/>
    <glyph glyph-name="kcommaaccent.smcp" unicode="" horiz-adv-x="537" d="M398 0l-163 284l-75 -88v-196h-107v596h107v-264l219 264h129l-196 -236l207 -360h-121zM260 -249h-69l38 204h96z"/>
    <glyph glyph-name="lacute.smcp" unicode="" horiz-adv-x="422" d="M53 0v596h107v-493h225v-103h-332zM61 650l116 166h114l-148 -166h-82z"/>
    <glyph glyph-name="lacute.smcp" unicode="" horiz-adv-x="422" d="M53 0v596h107v-493h225v-103h-332zM61 650l116 166h114l-148 -166h-82z"/>
    <glyph glyph-name="lcaron.smcp" unicode="" horiz-adv-x="422" d="M53 0v596h107v-493h225v-103h-332zM271 419l32 177h91l-54 -177h-69z"/>
    <glyph glyph-name="lcaron.smcp" unicode="" horiz-adv-x="422" d="M53 0v596h107v-493h225v-103h-332zM271 419l32 177h91l-54 -177h-69z"/>
    <glyph glyph-name="lcommaaccent.smcp" unicode="" horiz-adv-x="422" d="M53 0v596h107v-493h225v-103h-332zM205 -254h-69l38 204h96z"/>
    <glyph glyph-name="lcommaaccent.smcp" unicode="" horiz-adv-x="422" d="M53 0v596h107v-493h225v-103h-332zM205 -254h-69l38 204h96z"/>
    <glyph glyph-name="ldot.smcp" unicode="" horiz-adv-x="422" d="M53 0v596h107v-493h225v-103h-332zM277 251v138h107v-138h-107z"/>
    <glyph glyph-name="ldot.smcp" unicode="" horiz-adv-x="422" d="M53 0v596h107v-493h225v-103h-332zM277 251v138h107v-138h-107z"/>
    <glyph glyph-name="lslash.smcp" unicode="" horiz-adv-x="451" d="M15 212v83l67 25v276h107v-236l153 58v-84l-153 -57v-174h225v-103h-332v237z"/>
    <glyph glyph-name="lslash.smcp" unicode="" horiz-adv-x="451" d="M15 212v83l67 25v276h107v-236l153 58v-84l-153 -57v-174h225v-103h-332v237z"/>
    <glyph glyph-name="nacute.smcp" unicode="" horiz-adv-x="603" d="M53 0v596h117l274 -414v414h106v-596h-109l-282 425v-425h-106zM263 646l116 166h114l-148 -166h-82z"/>
    <glyph glyph-name="nacute.smcp" unicode="" horiz-adv-x="603" d="M53 0v596h117l274 -414v414h106v-596h-109l-282 425v-425h-106zM263 646l116 166h114l-148 -166h-82z"/>
    <glyph glyph-name="ntilde.smcp" unicode="" horiz-adv-x="603" d="M53 0v596h117l274 -414v414h106v-596h-109l-282 425v-425h-106zM134 650q0 58 28 93t74 35q35 0 79 -26q40 -26 57 -26q33 0 33 48h71q0 -60 -26.5 -94t-76.5 -34q-34 0 -89 32q-32 19 -48 19q-31 0 -31 -47h-71z"/>
    <glyph glyph-name="ncaron.smcp" unicode="" horiz-adv-x="603" d="M53 0v596h117l274 -414v414h106v-596h-109l-282 425v-425h-106zM268 642l-119 166h92l64 -94l66 94h91l-119 -166h-75z"/>
    <glyph glyph-name="ncaron.smcp" unicode="" horiz-adv-x="603" d="M53 0v596h117l274 -414v414h106v-596h-109l-282 425v-425h-106zM268 642l-119 166h92l64 -94l66 94h91l-119 -166h-75z"/>
    <glyph glyph-name="ncommaaccent.smcp" unicode="" horiz-adv-x="603" d="M53 0v596h117l274 -414v414h106v-596h-109l-282 425v-425h-106zM295 -254h-69l38 204h96z"/>
    <glyph glyph-name="ncommaaccent.smcp" unicode="" horiz-adv-x="603" d="M53 0v596h117l274 -414v414h106v-596h-109l-282 425v-425h-106zM295 -254h-69l38 204h96z"/>
    <glyph glyph-name="oacute.smcp" unicode="" horiz-adv-x="679" d="M339 -8q-127 0 -216 89.5t-89 216.5t89 216.5t216 89.5t216.5 -89.5t89.5 -216.5t-89.5 -216.5t-216.5 -89.5zM339 96q83 0 140 59t57 143t-57 143.5t-140 59.5t-139.5 -59.5t-56.5 -143.5t56.5 -143t139.5 -59zM289 650l116 166h114l-148 -166h-82z"/>
    <glyph glyph-name="oacute.smcp" unicode="" horiz-adv-x="679" d="M339 -8q-127 0 -216 89.5t-89 216.5t89 216.5t216 89.5t216.5 -89.5t89.5 -216.5t-89.5 -216.5t-216.5 -89.5zM339 96q83 0 140 59t57 143t-57 143.5t-140 59.5t-139.5 -59.5t-56.5 -143.5t56.5 -143t139.5 -59zM289 650l116 166h114l-148 -166h-82z"/>
    <glyph glyph-name="ograve.smcp" unicode="" horiz-adv-x="679" d="M339 -8q-127 0 -216 89.5t-89 216.5t89 216.5t216 89.5t216.5 -89.5t89.5 -216.5t-89.5 -216.5t-216.5 -89.5zM339 96q83 0 140 59t57 143t-57 143.5t-140 59.5t-139.5 -59.5t-56.5 -143.5t56.5 -143t139.5 -59zM305 650l-148 166h114l116 -166h-82z"/>
    <glyph glyph-name="ograve.smcp" unicode="" horiz-adv-x="679" d="M339 -8q-127 0 -216 89.5t-89 216.5t89 216.5t216 89.5t216.5 -89.5t89.5 -216.5t-89.5 -216.5t-216.5 -89.5zM339 96q83 0 140 59t57 143t-57 143.5t-140 59.5t-139.5 -59.5t-56.5 -143.5t56.5 -143t139.5 -59zM305 650l-148 166h114l116 -166h-82z"/>
    <glyph glyph-name="ocircumflex.smcp" unicode="" horiz-adv-x="679" d="M339 -8q-127 0 -216 89.5t-89 216.5t89 216.5t216 89.5t216.5 -89.5t89.5 -216.5t-89.5 -216.5t-216.5 -89.5zM339 96q83 0 140 59t57 143t-57 143.5t-140 59.5t-139.5 -59.5t-56.5 -143.5t56.5 -143t139.5 -59zM182 648l119 166h75l119 -166h-91l-66 94l-64 -94h-92z "/>
    <glyph glyph-name="ocircumflex.smcp" unicode="" horiz-adv-x="679" d="M339 -8q-127 0 -216 89.5t-89 216.5t89 216.5t216 89.5t216.5 -89.5t89.5 -216.5t-89.5 -216.5t-216.5 -89.5zM339 96q83 0 140 59t57 143t-57 143.5t-140 59.5t-139.5 -59.5t-56.5 -143.5t56.5 -143t139.5 -59zM182 648l119 166h75l119 -166h-91l-66 94l-64 -94h-92z "/>
    <glyph glyph-name="odieresis.smcp" unicode="" horiz-adv-x="679" d="M339 -8q-127 0 -216 89.5t-89 216.5t89 216.5t216 89.5t216.5 -89.5t89.5 -216.5t-89.5 -216.5t-216.5 -89.5zM339 96q83 0 140 59t57 143t-57 143.5t-140 59.5t-139.5 -59.5t-56.5 -143.5t56.5 -143t139.5 -59zM367 653v138h107v-138h-107zM206 653v138h107v-138h-107z "/>
    <glyph glyph-name="odieresis.smcp" unicode="" horiz-adv-x="679" d="M339 -8q-127 0 -216 89.5t-89 216.5t89 216.5t216 89.5t216.5 -89.5t89.5 -216.5t-89.5 -216.5t-216.5 -89.5zM339 96q83 0 140 59t57 143t-57 143.5t-140 59.5t-139.5 -59.5t-56.5 -143.5t56.5 -143t139.5 -59zM367 653v138h107v-138h-107zM206 653v138h107v-138h-107z "/>
    <glyph glyph-name="otilde.smcp" unicode="" horiz-adv-x="679" d="M339 -8q-127 0 -216 89.5t-89 216.5t89 216.5t216 89.5t216.5 -89.5t89.5 -216.5t-89.5 -216.5t-216.5 -89.5zM339 96q83 0 140 59t57 143t-57 143.5t-140 59.5t-139.5 -59.5t-56.5 -143.5t56.5 -143t139.5 -59zM174 650q0 58 28 93t74 35q35 0 79 -26q40 -26 57 -26 q33 0 33 48h71q0 -60 -26.5 -94t-76.5 -34q-34 0 -89 32q-32 19 -48 19q-31 0 -31 -47h-71z"/>
    <glyph glyph-name="otilde.smcp" unicode="" horiz-adv-x="679" d="M339 -8q-127 0 -216 89.5t-89 216.5t89 216.5t216 89.5t216.5 -89.5t89.5 -216.5t-89.5 -216.5t-216.5 -89.5zM339 96q83 0 140 59t57 143t-57 143.5t-140 59.5t-139.5 -59.5t-56.5 -143.5t56.5 -143t139.5 -59zM174 650q0 58 28 93t74 35q35 0 79 -26q40 -26 57 -26 q33 0 33 48h71q0 -60 -26.5 -94t-76.5 -34q-34 0 -89 32q-32 19 -48 19q-31 0 -31 -47h-71z"/>
    <glyph glyph-name="omacron.smcp" unicode="" horiz-adv-x="679" d="M339 -8q-127 0 -216 89.5t-89 216.5t89 216.5t216 89.5t216.5 -89.5t89.5 -216.5t-89.5 -216.5t-216.5 -89.5zM339 96q83 0 140 59t57 143t-57 143.5t-140 59.5t-139.5 -59.5t-56.5 -143.5t56.5 -143t139.5 -59zM207 650v77h264v-77h-264z"/>
    <glyph glyph-name="omacron.smcp" unicode="" horiz-adv-x="679" d="M339 -8q-127 0 -216 89.5t-89 216.5t89 216.5t216 89.5t216.5 -89.5t89.5 -216.5t-89.5 -216.5t-216.5 -89.5zM339 96q83 0 140 59t57 143t-57 143.5t-140 59.5t-139.5 -59.5t-56.5 -143.5t56.5 -143t139.5 -59zM207 650v77h264v-77h-264z"/>
    <glyph glyph-name="obreve.smcp" unicode="" horiz-adv-x="679" d="M339 -8q-127 0 -216 89.5t-89 216.5t89 216.5t216 89.5t216.5 -89.5t89.5 -216.5t-89.5 -216.5t-216.5 -89.5zM339 96q83 0 140 59t57 143t-57 143.5t-140 59.5t-139.5 -59.5t-56.5 -143.5t56.5 -143t139.5 -59zM338 646q-79 0 -120 46t-41 120h76q0 -98 85 -100 q41 1 63 27t22 73h77q0 -71 -44.5 -118.5t-117.5 -47.5z"/>
    <glyph glyph-name="obreve.smcp" unicode="" horiz-adv-x="679" d="M339 -8q-127 0 -216 89.5t-89 216.5t89 216.5t216 89.5t216.5 -89.5t89.5 -216.5t-89.5 -216.5t-216.5 -89.5zM339 96q83 0 140 59t57 143t-57 143.5t-140 59.5t-139.5 -59.5t-56.5 -143.5t56.5 -143t139.5 -59zM338 646q-79 0 -120 46t-41 120h76q0 -98 85 -100 q41 1 63 27t22 73h77q0 -71 -44.5 -118.5t-117.5 -47.5z"/>
    <glyph glyph-name="ohungarumlaut.smcp" unicode="" horiz-adv-x="679" d="M339 -8q-127 0 -216 89.5t-89 216.5t89 216.5t216 89.5t216.5 -89.5t89.5 -216.5t-89.5 -216.5t-216.5 -89.5zM339 96q83 0 140 59t57 143t-57 143.5t-140 59.5t-139.5 -59.5t-56.5 -143.5t56.5 -143t139.5 -59zM217 648l115 166h108l-148 -166h-75zM371 648l116 166h108 l-148 -166h-76z"/>
    <glyph glyph-name="ohungarumlaut.smcp" unicode="" horiz-adv-x="679" d="M339 -8q-127 0 -216 89.5t-89 216.5t89 216.5t216 89.5t216.5 -89.5t89.5 -216.5t-89.5 -216.5t-216.5 -89.5zM339 96q83 0 140 59t57 143t-57 143.5t-140 59.5t-139.5 -59.5t-56.5 -143.5t56.5 -143t139.5 -59zM217 648l115 166h108l-148 -166h-75zM371 648l116 166h108 l-148 -166h-76z"/>
    <glyph glyph-name="oslash.smcp" unicode="" horiz-adv-x="679" d="M339 -8q-83 0 -152 40l-25 -32h-122l73 91q-79 89 -79 207q0 127 89 216.5t216 89.5q80 0 153 -42l27 34h122l-75 -93q79 -89 79 -205q0 -127 -89.5 -216.5t-216.5 -89.5zM142 298q0 -69 39 -122l244 303q-40 20 -86 20q-83 0 -140 -59t-57 -142zM339 97q83 0 140 59 t57 142q0 66 -38 120l-243 -303q37 -18 84 -18z"/>
    <glyph glyph-name="oslash.smcp" unicode="" horiz-adv-x="679" d="M339 -8q-83 0 -152 40l-25 -32h-122l73 91q-79 89 -79 207q0 127 89 216.5t216 89.5q80 0 153 -42l27 34h122l-75 -93q79 -89 79 -205q0 -127 -89.5 -216.5t-216.5 -89.5zM142 298q0 -69 39 -122l244 303q-40 20 -86 20q-83 0 -140 -59t-57 -142zM339 97q83 0 140 59 t57 142q0 66 -38 120l-243 -303q37 -18 84 -18z"/>
    <glyph glyph-name="oslashacute.smcp" unicode="" horiz-adv-x="680" d="M339 -8q-83 0 -152 40l-25 -32h-122l73 91q-79 89 -79 207q0 127 89 216.5t216 89.5q80 0 153 -42l27 34h122l-75 -93q79 -89 79 -205q0 -127 -89.5 -216.5t-216.5 -89.5zM142 298q0 -69 39 -122l244 303q-40 20 -86 20q-83 0 -140 -59t-57 -142zM339 97q83 0 140 59 t57 142q0 66 -38 120l-243 -303q37 -18 84 -18zM288 650l116 166h114l-148 -166h-82z"/>
    <glyph glyph-name="oslashacute.smcp" unicode="" horiz-adv-x="680" d="M339 -8q-83 0 -152 40l-25 -32h-122l73 91q-79 89 -79 207q0 127 89 216.5t216 89.5q80 0 153 -42l27 34h122l-75 -93q79 -89 79 -205q0 -127 -89.5 -216.5t-216.5 -89.5zM142 298q0 -69 39 -122l244 303q-40 20 -86 20q-83 0 -140 -59t-57 -142zM339 97q83 0 140 59 t57 142q0 66 -38 120l-243 -303q37 -18 84 -18zM288 650l116 166h114l-148 -166h-82z"/>
    <glyph glyph-name="oe.smcp" unicode="" horiz-adv-x="937" d="M538 0v74q-80 -82 -199 -82q-127 0 -216 89.5t-89 216.5t89 216.5t216 89.5q118 0 199 -83v75h356v-100h-250v-147h250v-100h-250v-148h250v-101h-356zM339 96q83 0 140 59t57 143t-57 143.5t-140 59.5t-139.5 -59.5t-56.5 -143.5t56.5 -143t139.5 -59z"/>
    <glyph glyph-name="oe.smcp" unicode="" horiz-adv-x="937" d="M538 0v74q-80 -82 -199 -82q-127 0 -216 89.5t-89 216.5t89 216.5t216 89.5q118 0 199 -83v75h356v-100h-250v-147h250v-100h-250v-148h250v-101h-356zM339 96q83 0 140 59t57 143t-57 143.5t-140 59.5t-139.5 -59.5t-56.5 -143.5t56.5 -143t139.5 -59z"/>
    <glyph glyph-name="racute.smcp" unicode="" horiz-adv-x="500" d="M53 0v596h196q97 0 156.5 -56.5t59.5 -141.5q0 -60 -32.5 -108.5t-91.5 -69.5l137 -220h-124l-174 293h59q54 0 85 31.5t31 72.5q0 47 -28.5 73.5t-84.5 26.5h-82v-497h-107zM187 650l116 166h114l-148 -166h-82z"/>
    <glyph glyph-name="racute.smcp" unicode="" horiz-adv-x="500" d="M53 0v596h196q97 0 156.5 -56.5t59.5 -141.5q0 -60 -32.5 -108.5t-91.5 -69.5l137 -220h-124l-174 293h59q54 0 85 31.5t31 72.5q0 47 -28.5 73.5t-84.5 26.5h-82v-497h-107zM187 650l116 166h114l-148 -166h-82z"/>
    <glyph glyph-name="rcaron.smcp" unicode="" horiz-adv-x="500" d="M53 0v596h196q97 0 156.5 -56.5t59.5 -141.5q0 -60 -32.5 -108.5t-91.5 -69.5l137 -220h-124l-174 293h59q54 0 85 31.5t31 72.5q0 47 -28.5 73.5t-84.5 26.5h-82v-497h-107zM214 650l-119 166h92l64 -94l66 94h91l-119 -166h-75z"/>
    <glyph glyph-name="rcaron.smcp" unicode="" horiz-adv-x="500" d="M53 0v596h196q97 0 156.5 -56.5t59.5 -141.5q0 -60 -32.5 -108.5t-91.5 -69.5l137 -220h-124l-174 293h59q54 0 85 31.5t31 72.5q0 47 -28.5 73.5t-84.5 26.5h-82v-497h-107zM214 650l-119 166h92l64 -94l66 94h91l-119 -166h-75z"/>
    <glyph glyph-name="rcommaaccent.smcp" unicode="" horiz-adv-x="500" d="M53 0v596h196q97 0 156.5 -56.5t59.5 -141.5q0 -60 -32.5 -108.5t-91.5 -69.5l137 -220h-124l-174 293h59q54 0 85 31.5t31 72.5q0 47 -28.5 73.5t-84.5 26.5h-82v-497h-107zM238 -253h-69l38 204h96z"/>
    <glyph glyph-name="rcommaaccent.smcp" unicode="" horiz-adv-x="500" d="M53 0v596h196q97 0 156.5 -56.5t59.5 -141.5q0 -60 -32.5 -108.5t-91.5 -69.5l137 -220h-124l-174 293h59q54 0 85 31.5t31 72.5q0 47 -28.5 73.5t-84.5 26.5h-82v-497h-107zM238 -253h-69l38 204h96z"/>
    <glyph glyph-name="ucircumflex.smcp" unicode="" horiz-adv-x="528" d="M264 -8q-97 0 -155.5 56.5t-58.5 156.5v391h107v-395q0 -50 29.5 -80t77.5 -30t77.5 30t29.5 80v395h107v-391q0 -100 -59 -156.5t-155 -56.5zM106 650l119 166h75l119 -166h-91l-66 94l-64 -94h-92z"/>
    <glyph glyph-name="ucircumflex.smcp" unicode="" horiz-adv-x="528" d="M264 -8q-97 0 -155.5 56.5t-58.5 156.5v391h107v-395q0 -50 29.5 -80t77.5 -30t77.5 30t29.5 80v395h107v-391q0 -100 -59 -156.5t-155 -56.5zM106 650l119 166h75l119 -166h-91l-66 94l-64 -94h-92z"/>
    <glyph glyph-name="sacute.smcp" unicode="" horiz-adv-x="483" d="M191 650l116 166h114l-148 -166h-82zM241 -8q-137 0 -226 108l94 74q49 -82 132 -82q42 0 68.5 24t26.5 58q0 23 -18.5 40.5t-36.5 25t-59 20.5q-8 3 -12 4q-38 12 -61.5 22t-51.5 29.5t-42 49t-14 70.5q0 73 55.5 121.5t139.5 48.5q122 0 201 -91l-87 -66 q-39 63 -113 63q-39 0 -63 -20.5t-24 -51.5q0 -23 19 -40t35 -24t60 -21q7 -3 11 -4q37 -12 61.5 -22.5t53 -30.5t43 -50t14.5 -71q0 -75 -56.5 -129.5t-149.5 -54.5z"/>
    <glyph glyph-name="sacute.smcp" unicode="" horiz-adv-x="483" d="M191 650l116 166h114l-148 -166h-82zM241 -8q-137 0 -226 108l94 74q49 -82 132 -82q42 0 68.5 24t26.5 58q0 23 -18.5 40.5t-36.5 25t-59 20.5q-8 3 -12 4q-38 12 -61.5 22t-51.5 29.5t-42 49t-14 70.5q0 73 55.5 121.5t139.5 48.5q122 0 201 -91l-87 -66 q-39 63 -113 63q-39 0 -63 -20.5t-24 -51.5q0 -23 19 -40t35 -24t60 -21q7 -3 11 -4q37 -12 61.5 -22.5t53 -30.5t43 -50t14.5 -71q0 -75 -56.5 -129.5t-149.5 -54.5z"/>
    <glyph glyph-name="scircumflex.smcp" unicode="" horiz-adv-x="483" d="M241 -8q-137 0 -226 108l94 74q49 -82 132 -82q42 0 68.5 24t26.5 58q0 23 -18.5 40.5t-36.5 25t-59 20.5q-8 3 -12 4q-38 12 -61.5 22t-51.5 29.5t-42 49t-14 70.5q0 73 55.5 121.5t139.5 48.5q122 0 201 -91l-87 -66q-39 63 -113 63q-39 0 -63 -20.5t-24 -51.5 q0 -23 19 -40t35 -24t60 -21q7 -3 11 -4q37 -12 61.5 -22.5t53 -30.5t43 -50t14.5 -71q0 -75 -56.5 -129.5t-149.5 -54.5zM85 649l119 166h75l119 -166h-91l-66 94l-64 -94h-92z"/>
    <glyph glyph-name="scircumflex.smcp" unicode="" horiz-adv-x="483" d="M241 -8q-137 0 -226 108l94 74q49 -82 132 -82q42 0 68.5 24t26.5 58q0 23 -18.5 40.5t-36.5 25t-59 20.5q-8 3 -12 4q-38 12 -61.5 22t-51.5 29.5t-42 49t-14 70.5q0 73 55.5 121.5t139.5 48.5q122 0 201 -91l-87 -66q-39 63 -113 63q-39 0 -63 -20.5t-24 -51.5 q0 -23 19 -40t35 -24t60 -21q7 -3 11 -4q37 -12 61.5 -22.5t53 -30.5t43 -50t14.5 -71q0 -75 -56.5 -129.5t-149.5 -54.5zM85 649l119 166h75l119 -166h-91l-66 94l-64 -94h-92z"/>
    <glyph glyph-name="scaron.smcp" unicode="" horiz-adv-x="483" d="M241 -8q-137 0 -226 108l94 74q49 -82 132 -82q42 0 68.5 24t26.5 58q0 23 -18.5 40.5t-36.5 25t-59 20.5q-8 3 -12 4q-38 12 -61.5 22t-51.5 29.5t-42 49t-14 70.5q0 73 55.5 121.5t139.5 48.5q122 0 201 -91l-87 -66q-39 63 -113 63q-39 0 -63 -20.5t-24 -51.5 q0 -23 19 -40t35 -24t60 -21q7 -3 11 -4q37 -12 61.5 -22.5t53 -30.5t43 -50t14.5 -71q0 -75 -56.5 -129.5t-149.5 -54.5zM206 650l-119 166h92l64 -94l66 94h91l-119 -166h-75z"/>
    <glyph glyph-name="scaron.smcp" unicode="" horiz-adv-x="483" d="M241 -8q-137 0 -226 108l94 74q49 -82 132 -82q42 0 68.5 24t26.5 58q0 23 -18.5 40.5t-36.5 25t-59 20.5q-8 3 -12 4q-38 12 -61.5 22t-51.5 29.5t-42 49t-14 70.5q0 73 55.5 121.5t139.5 48.5q122 0 201 -91l-87 -66q-39 63 -113 63q-39 0 -63 -20.5t-24 -51.5 q0 -23 19 -40t35 -24t60 -21q7 -3 11 -4q37 -12 61.5 -22.5t53 -30.5t43 -50t14.5 -71q0 -75 -56.5 -129.5t-149.5 -54.5zM206 650l-119 166h92l64 -94l66 94h91l-119 -166h-75z"/>
    <glyph glyph-name="scommaaccent.smcp" unicode="" horiz-adv-x="483" d="M223 -251h-69l38 204h96zM241 -8q-137 0 -226 108l94 74q49 -82 132 -82q42 0 68.5 24t26.5 58q0 23 -18.5 40.5t-36.5 25t-59 20.5q-8 3 -12 4q-38 12 -61.5 22t-51.5 29.5t-42 49t-14 70.5q0 73 55.5 121.5t139.5 48.5q122 0 201 -91l-87 -66q-39 63 -113 63 q-39 0 -63 -20.5t-24 -51.5q0 -23 19 -40t35 -24t60 -21q7 -3 11 -4q37 -12 61.5 -22.5t53 -30.5t43 -50t14.5 -71q0 -75 -56.5 -129.5t-149.5 -54.5z"/>
    <glyph glyph-name="scommaaccent.smcp" unicode="" horiz-adv-x="483" d="M223 -251h-69l38 204h96zM241 -8q-137 0 -226 108l94 74q49 -82 132 -82q42 0 68.5 24t26.5 58q0 23 -18.5 40.5t-36.5 25t-59 20.5q-8 3 -12 4q-38 12 -61.5 22t-51.5 29.5t-42 49t-14 70.5q0 73 55.5 121.5t139.5 48.5q122 0 201 -91l-87 -66q-39 63 -113 63 q-39 0 -63 -20.5t-24 -51.5q0 -23 19 -40t35 -24t60 -21q7 -3 11 -4q37 -12 61.5 -22.5t53 -30.5t43 -50t14.5 -71q0 -75 -56.5 -129.5t-149.5 -54.5z"/>
    <glyph glyph-name="scedilla.smcp" unicode="" horiz-adv-x="483" d="M231 -237q-82 0 -144 57l69 42q43 -34 81 -34q25 0 43 10t18 25q0 32 -64 32h-46v101q-102 16 -173 104l94 74q49 -82 132 -82q42 0 68.5 24t26.5 58q0 23 -18.5 40.5t-36.5 25t-59 20.5q-8 3 -12 4q-38 12 -61.5 22t-51.5 29.5t-42 49t-14 70.5q0 73 55.5 121.5 t139.5 48.5q122 0 201 -91l-87 -66q-39 63 -113 63q-39 0 -63 -20.5t-24 -51.5q0 -23 19 -40t35 -24t60 -21q7 -3 11 -4q37 -12 61.5 -22.5t53 -30.5t43 -50t14.5 -71q0 -70 -50.5 -123t-133.5 -60v-46q53 1 85 -21.5t32 -58.5q0 -45 -43.5 -74.5t-105.5 -29.5z"/>
    <glyph glyph-name="scedilla.smcp" unicode="" horiz-adv-x="483" d="M231 -237q-82 0 -144 57l69 42q43 -34 81 -34q25 0 43 10t18 25q0 32 -64 32h-46v101q-102 16 -173 104l94 74q49 -82 132 -82q42 0 68.5 24t26.5 58q0 23 -18.5 40.5t-36.5 25t-59 20.5q-8 3 -12 4q-38 12 -61.5 22t-51.5 29.5t-42 49t-14 70.5q0 73 55.5 121.5 t139.5 48.5q122 0 201 -91l-87 -66q-39 63 -113 63q-39 0 -63 -20.5t-24 -51.5q0 -23 19 -40t35 -24t60 -21q7 -3 11 -4q37 -12 61.5 -22.5t53 -30.5t43 -50t14.5 -71q0 -70 -50.5 -123t-133.5 -60v-46q53 1 85 -21.5t32 -58.5q0 -45 -43.5 -74.5t-105.5 -29.5z"/>
    <glyph glyph-name="tcaron.smcp" unicode="" horiz-adv-x="502" d="M200 0v495h-162v101h429v-101h-161v-495h-106zM214 650l-119 166h92l64 -94l66 94h91l-119 -166h-75z"/>
    <glyph glyph-name="tcaron.smcp" unicode="" horiz-adv-x="502" d="M200 0v495h-162v101h429v-101h-161v-495h-106zM214 650l-119 166h92l64 -94l66 94h91l-119 -166h-75z"/>
    <glyph glyph-name="tcommaaccent.smcp" unicode="" horiz-adv-x="502" d="M235 -259h-69l38 204h96zM200 0v495h-162v101h429v-101h-161v-495h-106z"/>
    <glyph glyph-name="tcommaaccent.smcp" unicode="" horiz-adv-x="502" d="M235 -259h-69l38 204h96zM200 0v495h-162v101h429v-101h-161v-495h-106z"/>
    <glyph glyph-name="tbar.smcp" unicode="" horiz-adv-x="502" d="M406 237h-101v-237h-106v237h-102v101h102v157h-162v101h429v-101h-161v-157h101v-101z"/>
    <glyph glyph-name="tbar.smcp" unicode="" horiz-adv-x="502" d="M406 237h-101v-237h-106v237h-102v101h102v157h-162v101h429v-101h-161v-157h101v-101z"/>
    <glyph glyph-name="uacute.smcp" unicode="" horiz-adv-x="528" d="M206 645l116 166h114l-148 -166h-82zM264 -8q-97 0 -155.5 56.5t-58.5 156.5v391h107v-395q0 -50 29.5 -80t77.5 -30t77.5 30t29.5 80v395h107v-391q0 -100 -59 -156.5t-155 -56.5z"/>
    <glyph glyph-name="uacute.smcp" unicode="" horiz-adv-x="528" d="M206 645l116 166h114l-148 -166h-82zM264 -8q-97 0 -155.5 56.5t-58.5 156.5v391h107v-395q0 -50 29.5 -80t77.5 -30t77.5 30t29.5 80v395h107v-391q0 -100 -59 -156.5t-155 -56.5z"/>
    <glyph glyph-name="ugrave.smcp" unicode="" horiz-adv-x="528" d="M264 -8q-97 0 -155.5 56.5t-58.5 156.5v391h107v-395q0 -50 29.5 -80t77.5 -30t77.5 30t29.5 80v395h107v-391q0 -100 -59 -156.5t-155 -56.5zM225 643l-148 166h114l116 -166h-82z"/>
    <glyph glyph-name="ugrave.smcp" unicode="" horiz-adv-x="528" d="M264 -8q-97 0 -155.5 56.5t-58.5 156.5v391h107v-395q0 -50 29.5 -80t77.5 -30t77.5 30t29.5 80v395h107v-391q0 -100 -59 -156.5t-155 -56.5zM225 643l-148 166h114l116 -166h-82z"/>
    <glyph glyph-name="wdieresis.smcp" unicode="" horiz-adv-x="862" d="M192 0l-168 596h111l113 -425l129 425h105l129 -429l120 429h108l-174 -596h-107l-128 429l-129 -429h-109zM459 654v138h107v-138h-107zM298 654v138h107v-138h-107z"/>
    <glyph glyph-name="wdieresis.smcp" unicode="" horiz-adv-x="862" d="M192 0l-168 596h111l113 -425l129 425h105l129 -429l120 429h108l-174 -596h-107l-128 429l-129 -429h-109zM459 654v138h107v-138h-107zM298 654v138h107v-138h-107z"/>
    <glyph glyph-name="udieresis.smcp" unicode="" horiz-adv-x="528" d="M292 654v138h107v-138h-107zM131 654v138h107v-138h-107zM264 -8q-97 0 -155.5 56.5t-58.5 156.5v391h107v-395q0 -50 29.5 -80t77.5 -30t77.5 30t29.5 80v395h107v-391q0 -100 -59 -156.5t-155 -56.5z"/>
    <glyph glyph-name="udieresis.smcp" unicode="" horiz-adv-x="528" d="M292 654v138h107v-138h-107zM131 654v138h107v-138h-107zM264 -8q-97 0 -155.5 56.5t-58.5 156.5v391h107v-395q0 -50 29.5 -80t77.5 -30t77.5 30t29.5 80v395h107v-391q0 -100 -59 -156.5t-155 -56.5z"/>
    <glyph glyph-name="utilde.smcp" unicode="" horiz-adv-x="528" d="M264 -8q-97 0 -155.5 56.5t-58.5 156.5v391h107v-395q0 -50 29.5 -80t77.5 -30t77.5 30t29.5 80v395h107v-391q0 -100 -59 -156.5t-155 -56.5zM90 650q0 58 28 93t74 35q35 0 79 -26q40 -26 57 -26q33 0 33 48h71q0 -60 -26.5 -94t-76.5 -34q-34 0 -89 32q-32 19 -48 19 q-31 0 -31 -47h-71z"/>
    <glyph glyph-name="utilde.smcp" unicode="" horiz-adv-x="528" d="M264 -8q-97 0 -155.5 56.5t-58.5 156.5v391h107v-395q0 -50 29.5 -80t77.5 -30t77.5 30t29.5 80v395h107v-391q0 -100 -59 -156.5t-155 -56.5zM90 650q0 58 28 93t74 35q35 0 79 -26q40 -26 57 -26q33 0 33 48h71q0 -60 -26.5 -94t-76.5 -34q-34 0 -89 32q-32 19 -48 19 q-31 0 -31 -47h-71z"/>
    <glyph glyph-name="uring.smcp" unicode="" horiz-adv-x="528" d="M264 -8q-97 0 -155.5 56.5t-58.5 156.5v391h107v-395q0 -50 29.5 -80t77.5 -30t77.5 30t29.5 80v395h107v-391q0 -100 -59 -156.5t-155 -56.5zM262 638q-46 0 -78.5 33t-32.5 79q0 47 32.5 80t78.5 33q48 0 81 -33t33 -80t-33 -79.5t-81 -32.5zM262 707q19 0 32 12.5 t13 30.5t-13 31.5t-32 13.5q-17 0 -30 -13.5t-13 -31.5t13 -30.5t30 -12.5z"/>
    <glyph glyph-name="uring.smcp" unicode="" horiz-adv-x="528" d="M264 -8q-97 0 -155.5 56.5t-58.5 156.5v391h107v-395q0 -50 29.5 -80t77.5 -30t77.5 30t29.5 80v395h107v-391q0 -100 -59 -156.5t-155 -56.5zM262 638q-46 0 -78.5 33t-32.5 79q0 47 32.5 80t78.5 33q48 0 81 -33t33 -80t-33 -79.5t-81 -32.5zM262 707q19 0 32 12.5 t13 30.5t-13 31.5t-32 13.5q-17 0 -30 -13.5t-13 -31.5t13 -30.5t30 -12.5z"/>
    <glyph glyph-name="umacron.smcp" unicode="" horiz-adv-x="528" d="M264 -8q-97 0 -155.5 56.5t-58.5 156.5v391h107v-395q0 -50 29.5 -80t77.5 -30t77.5 30t29.5 80v395h107v-391q0 -100 -59 -156.5t-155 -56.5zM133 650v77h264v-77h-264z"/>
    <glyph glyph-name="umacron.smcp" unicode="" horiz-adv-x="528" d="M264 -8q-97 0 -155.5 56.5t-58.5 156.5v391h107v-395q0 -50 29.5 -80t77.5 -30t77.5 30t29.5 80v395h107v-391q0 -100 -59 -156.5t-155 -56.5zM133 650v77h264v-77h-264z"/>
    <glyph glyph-name="ubreve.smcp" unicode="" horiz-adv-x="528" d="M264 -8q-97 0 -155.5 56.5t-58.5 156.5v391h107v-395q0 -50 29.5 -80t77.5 -30t77.5 30t29.5 80v395h107v-391q0 -100 -59 -156.5t-155 -56.5zM265 639q-79 0 -120 46t-41 120h76q0 -98 85 -100q41 1 63 27t22 73h77q0 -71 -44.5 -118.5t-117.5 -47.5z"/>
    <glyph glyph-name="ubreve.smcp" unicode="" horiz-adv-x="528" d="M264 -8q-97 0 -155.5 56.5t-58.5 156.5v391h107v-395q0 -50 29.5 -80t77.5 -30t77.5 30t29.5 80v395h107v-391q0 -100 -59 -156.5t-155 -56.5zM265 639q-79 0 -120 46t-41 120h76q0 -98 85 -100q41 1 63 27t22 73h77q0 -71 -44.5 -118.5t-117.5 -47.5z"/>
    <glyph glyph-name="uhungarumlaut.smcp" unicode="" horiz-adv-x="528" d="M264 -8q-97 0 -155.5 56.5t-58.5 156.5v391h107v-395q0 -50 29.5 -80t77.5 -30t77.5 30t29.5 80v395h107v-391q0 -100 -59 -156.5t-155 -56.5zM133 646l115 166h108l-148 -166h-75zM287 646l116 166h108l-148 -166h-76z"/>
    <glyph glyph-name="uhungarumlaut.smcp" unicode="" horiz-adv-x="528" d="M264 -8q-97 0 -155.5 56.5t-58.5 156.5v391h107v-395q0 -50 29.5 -80t77.5 -30t77.5 30t29.5 80v395h107v-391q0 -100 -59 -156.5t-155 -56.5zM133 646l115 166h108l-148 -166h-75zM287 646l116 166h108l-148 -166h-76z"/>
    <glyph glyph-name="uogonek.smcp" unicode="" horiz-adv-x="528" d="M285 -210q-61 0 -100 30t-39 75q0 56 60 103q-73 15 -114.5 69t-41.5 138v391h107v-395q0 -50 29.5 -80t77.5 -30t77.5 30t29.5 80v395h107v-391q0 -71 -30.5 -120.5t-85.5 -73.5h1q-80 -50 -103.5 -70.5t-23.5 -41.5q0 -35 49 -35q30 0 67 31l71 -48q-64 -57 -138 -57z "/>
    <glyph glyph-name="uogonek.smcp" unicode="" horiz-adv-x="528" d="M285 -210q-61 0 -100 30t-39 75q0 56 60 103q-73 15 -114.5 69t-41.5 138v391h107v-395q0 -50 29.5 -80t77.5 -30t77.5 30t29.5 80v395h107v-391q0 -71 -30.5 -120.5t-85.5 -73.5h1q-80 -50 -103.5 -70.5t-23.5 -41.5q0 -35 49 -35q30 0 67 31l71 -48q-64 -57 -138 -57z "/>
    <glyph glyph-name="wacute.smcp" unicode="" horiz-adv-x="862" d="M192 0l-168 596h111l113 -425l129 425h105l129 -429l120 429h108l-174 -596h-107l-128 429l-129 -429h-109zM388 650l116 166h114l-148 -166h-82z"/>
    <glyph glyph-name="wacute.smcp" unicode="" horiz-adv-x="862" d="M192 0l-168 596h111l113 -425l129 425h105l129 -429l120 429h108l-174 -596h-107l-128 429l-129 -429h-109zM388 650l116 166h114l-148 -166h-82z"/>
    <glyph glyph-name="wgrave.smcp" unicode="" horiz-adv-x="862" d="M192 0l-168 596h111l113 -425l129 425h105l129 -429l120 429h108l-174 -596h-107l-128 429l-129 -429h-109zM390 650l-148 166h114l116 -166h-82z"/>
    <glyph glyph-name="wgrave.smcp" unicode="" horiz-adv-x="862" d="M192 0l-168 596h111l113 -425l129 425h105l129 -429l120 429h108l-174 -596h-107l-128 429l-129 -429h-109zM390 650l-148 166h114l116 -166h-82z"/>
    <glyph glyph-name="wcircumflex.smcp" unicode="" horiz-adv-x="862" d="M192 0l-168 596h111l113 -425l129 425h105l129 -429l120 429h108l-174 -596h-107l-128 429l-129 -429h-109zM274 645l119 166h75l119 -166h-91l-66 94l-64 -94h-92z"/>
    <glyph glyph-name="wcircumflex.smcp" unicode="" horiz-adv-x="862" d="M192 0l-168 596h111l113 -425l129 425h105l129 -429l120 429h108l-174 -596h-107l-128 429l-129 -429h-109zM274 645l119 166h75l119 -166h-91l-66 94l-64 -94h-92z"/>
    <glyph glyph-name="yacute.smcp" unicode="" horiz-adv-x="531" d="M212 0v281l-191 315h117l127 -213l129 213h117l-191 -316v-280h-108zM217 642l116 166h114l-148 -166h-82z"/>
    <glyph glyph-name="yacute.smcp" unicode="" horiz-adv-x="531" d="M212 0v281l-191 315h117l127 -213l129 213h117l-191 -316v-280h-108zM217 642l116 166h114l-148 -166h-82z"/>
    <glyph glyph-name="ygrave.smcp" unicode="" horiz-adv-x="537" d="M215 0v281l-191 315h117l127 -213l129 213h117l-191 -316v-280h-108zM232 642l-148 166h114l116 -166h-82z"/>
    <glyph glyph-name="ygrave.smcp" unicode="" horiz-adv-x="537" d="M215 0v281l-191 315h117l127 -213l129 213h117l-191 -316v-280h-108zM232 642l-148 166h114l116 -166h-82z"/>
    <glyph glyph-name="ycircumflex.smcp" unicode="" horiz-adv-x="531" d="M212 0v281l-191 315h117l127 -213l129 213h117l-191 -316v-280h-108zM108 649l119 166h75l119 -166h-91l-66 94l-64 -94h-92z"/>
    <glyph glyph-name="ycircumflex.smcp" unicode="" horiz-adv-x="531" d="M212 0v281l-191 315h117l127 -213l129 213h117l-191 -316v-280h-108zM108 649l119 166h75l119 -166h-91l-66 94l-64 -94h-92z"/>
    <glyph glyph-name="ydieresis.smcp" unicode="" horiz-adv-x="531" d="M212 0v281l-191 315h117l127 -213l129 213h117l-191 -316v-280h-108zM293 650v138h107v-138h-107zM132 650v138h107v-138h-107z"/>
    <glyph glyph-name="ydieresis.smcp" unicode="" horiz-adv-x="531" d="M212 0v281l-191 315h117l127 -213l129 213h117l-191 -316v-280h-108zM293 650v138h107v-138h-107zM132 650v138h107v-138h-107z"/>
    <glyph glyph-name="ij.smcp" unicode="" horiz-adv-x="456" d="M217 0v99h13q42 1 56 18t14 62v417h107v-413q0 -101 -38 -142t-136 -41h-16zM49 0v596h108v-596h-108z"/>
    <glyph glyph-name="ij.smcp" unicode="" horiz-adv-x="456" d="M217 0v99h13q42 1 56 18t14 62v417h107v-413q0 -101 -38 -142t-136 -41h-16zM49 0v596h108v-596h-108z"/>
    <glyph glyph-name="zacute.smcp" unicode="" horiz-adv-x="473" d="M39 0v99l268 397h-261v100h387v-97l-270 -398h270v-101h-394zM182 650l116 166h114l-148 -166h-82z"/>
    <glyph glyph-name="zacute.smcp" unicode="" horiz-adv-x="473" d="M39 0v99l268 397h-261v100h387v-97l-270 -398h270v-101h-394zM182 650l116 166h114l-148 -166h-82z"/>
    <glyph glyph-name="zcaron.smcp" unicode="" horiz-adv-x="473" d="M39 0v99l268 397h-261v100h387v-97l-270 -398h270v-101h-394zM202 650l-119 166h92l64 -94l66 94h91l-119 -166h-75z"/>
    <glyph glyph-name="zcaron.smcp" unicode="" horiz-adv-x="473" d="M39 0v99l268 397h-261v100h387v-97l-270 -398h270v-101h-394zM202 650l-119 166h92l64 -94l66 94h91l-119 -166h-75z"/>
    <glyph glyph-name="zdotaccent.smcp" unicode="" horiz-adv-x="473" d="M39 0v99l268 397h-261v100h387v-97l-270 -398h270v-101h-394zM187 654v138h107v-138h-107z"/>
    <glyph glyph-name="zdotaccent.smcp" unicode="" horiz-adv-x="473" d="M39 0v99l268 397h-261v100h387v-97l-270 -398h270v-101h-394zM187 654v138h107v-138h-107z"/>
    <glyph glyph-name="eng.smcp" unicode="" horiz-adv-x="603" d="M335 -230v101q70 0 89 18t19 86v26l-284 425v-426h-106v596h117l274 -411v411h106v-622q0 -117 -43 -160.5t-156 -43.5h-16z"/>
    <glyph glyph-name="eng.smcp" unicode="" horiz-adv-x="603" d="M335 -230v101q70 0 89 18t19 86v26l-284 425v-426h-106v596h117l274 -411v411h106v-622q0 -117 -43 -160.5t-156 -43.5h-16z"/>
    <glyph glyph-name="eth.smcp" unicode="" horiz-adv-x="604" d="M24 254v91h60v251h171q140 0 225.5 -84.5t85.5 -213.5q0 -128 -87.5 -213t-220.5 -85h-174v254h-60zM323 254h-132v-154h60q92 0 149 56.5t57 141.5q0 88 -55 143.5t-154 55.5h-57v-152h132v-91z"/>
    <glyph glyph-name="eth.smcp" unicode="" horiz-adv-x="604" d="M24 254v91h60v251h171q140 0 225.5 -84.5t85.5 -213.5q0 -128 -87.5 -213t-220.5 -85h-174v254h-60zM323 254h-132v-154h60q92 0 149 56.5t57 141.5q0 88 -55 143.5t-154 55.5h-57v-152h132v-91z"/>
    <glyph glyph-name="thorn.smcp" unicode="" horiz-adv-x="497" d="M55 0v596h107v-108h105q87 0 141.5 -54t54.5 -134q0 -81 -54 -135.5t-143 -54.5h-104v-110h-107zM264 389h-102v-179h102q41 0 67 25.5t26 63.5q0 39 -25.5 64.5t-67.5 25.5z"/>
    <glyph glyph-name="thorn.smcp" unicode="" horiz-adv-x="497" d="M55 0v596h107v-108h105q87 0 141.5 -54t54.5 -134q0 -81 -54 -135.5t-143 -54.5h-104v-110h-107zM264 389h-102v-179h102q41 0 67 25.5t26 63.5q0 39 -25.5 64.5t-67.5 25.5z"/>
    <glyph glyph-name="ordfeminine.smcp" unicode="" horiz-adv-x="372" d="M36 440l106 290h89l107 -290h-82l-17 47h-105l-17 -47h-81zM187 633l-29 -78h57z"/>
    <glyph glyph-name="ordmasculine.smcp" unicode="" horiz-adv-x="371" d="M186 435q-62 0 -106 44t-44 106q0 63 44 107t106 44t105.5 -44t43.5 -107q0 -62 -43.5 -106t-105.5 -44zM186 511q30 0 51 22t21 52q0 32 -20.5 54t-51.5 22t-52 -22t-21 -54q0 -30 21.5 -52t51.5 -22z"/>
    <glyph glyph-name="cordinal.smcp" unicode="" horiz-adv-x="356" d="M186 435q-62 0 -106 44t-44 106q0 63 44 107t106 44q45 0 81 -22.5t54 -60.5l-69 -34q-20 42 -66 42q-31 0 -52 -22t-21 -54q0 -31 21 -52.5t52 -21.5q49 0 67 43l70 -33q-19 -39 -55 -62.5t-82 -23.5z"/>
    <glyph glyph-name="fi" unicode="" horiz-adv-x="544" d="M31 404v96h85v26q0 117 43.5 160.5t161.5 43.5h9v-99q-70 0 -88 -18.5t-18 -87.5v-25h106v-96h-106v-404h-108v404h-85zM388 0v500h107v-500h-107zM388 569v140h107v-140h-107z"/>
    <glyph glyph-name="fi" unicode="ﬁ" horiz-adv-x="544" d="M31 404v96h85v26q0 117 43.5 160.5t161.5 43.5h9v-99q-70 0 -88 -18.5t-18 -87.5v-25h106v-96h-106v-404h-108v404h-85zM388 0v500h107v-500h-107zM388 569v140h107v-140h-107z"/>
    <glyph glyph-name="fl" unicode="" horiz-adv-x="544" d="M31 404v96h85v26q0 117 43.5 160.5t161.5 43.5h9v-99q-70 0 -88 -18.5t-18 -87.5v-25h106v-96h-106v-404h-108v404h-85zM388 0v730h107v-730h-107z"/>
    <glyph glyph-name="fl" unicode="ﬂ" horiz-adv-x="544" d="M31 404v96h85v26q0 117 43.5 160.5t161.5 43.5h9v-99q-70 0 -88 -18.5t-18 -87.5v-25h106v-96h-106v-404h-108v404h-85zM388 0v730h107v-730h-107z"/>
    <glyph glyph-name="ampersand.smcp" unicode="" horiz-adv-x="648" d="M478 0l-45 45q-76 -54 -165 -54q-116 0 -174.5 57t-58.5 137q0 108 100 170q-30 46 -30 97q0 65 47 108.5t122 43.5q119 0 169 -98l-100 -46q-21 49 -66 49q-27 0 -44.5 -16.5t-17.5 -40.5q0 -30 18.5 -54.5t83.5 -89.5l124 -126q41 55 53 115h-96v100h203v-48 q0 -57 -24.5 -119t-67.5 -115l113 -115h-144zM268 86q50 0 96 27l-133 134q-6 6 -18 17.5t-17 16.5q-55 -34 -55 -93q0 -44 33.5 -73t93.5 -29z"/>
    <glyph glyph-name="ampersand.smcp" unicode="" horiz-adv-x="648" d="M478 0l-45 45q-76 -54 -165 -54q-116 0 -174.5 57t-58.5 137q0 108 100 170q-30 46 -30 97q0 65 47 108.5t122 43.5q119 0 169 -98l-100 -46q-21 49 -66 49q-27 0 -44.5 -16.5t-17.5 -40.5q0 -30 18.5 -54.5t83.5 -89.5l124 -126q41 55 53 115h-96v100h203v-48 q0 -57 -24.5 -119t-67.5 -115l113 -115h-144zM268 86q50 0 96 27l-133 134q-6 6 -18 17.5t-17 16.5q-55 -34 -55 -93q0 -44 33.5 -73t93.5 -29z"/>
    <glyph glyph-name="invertedbreve" unicode="" horiz-adv-x="485" d="M80 554q0 74 41 120t120 46q73 0 117.5 -47.5t44.5 -118.5h-77q0 47 -22 73t-63 27q-85 -2 -85 -100h-76z"/>
    <glyph glyph-name="doublegrave" unicode="" horiz-adv-x="485" d="M200 554l-143 166h110l111 -166h-78zM352 554l-143 166h110l111 -166h-78z"/>
    <glyph glyph-name="caronSlovak" unicode="" horiz-adv-x="485" d="M196 543l32 177h91l-54 -177h-69z"/>
    <glyph glyph-name="commaaccent" unicode="" horiz-adv-x="488" d="M239 -249h-69l38 204h96z"/>
    <glyph glyph-name="commaaccent" unicode="" horiz-adv-x="488" d="M239 -249h-69l38 204h96z"/>
    <glyph glyph-name="dotbelow" unicode="" horiz-adv-x="488" d="M181 -186v138h107v-138h-107z"/>
    <glyph glyph-name="altcedilla" unicode="" horiz-adv-x="485" d="M233 -237q-97 0 -149 56l69 44q35 -35 79 -35q26 0 43.5 10t17.5 25q0 32 -65 32h-11v52h22q63 1 99.5 -21.5t36.5 -60.5q0 -45 -41 -73.5t-101 -28.5z"/>
    <glyph glyph-name="exclamdown.cap" unicode="" horiz-adv-x="224" d="M59 0v117q0 236 24 421h59q24 -185 24 -421v-117h-107zM59 593v137h107v-137h-107z"/>
    <glyph glyph-name="questiondown.cap" unicode="" horiz-adv-x="531" d="M267 -10q-98 0 -161 54.5t-63 143.5q0 52 19.5 88t47.5 58l56 44t47.5 60t19.5 93v10h97v-10q0 -50 -10 -89.5t-25.5 -64t-34 -44t-37.5 -34t-34.5 -29.5t-25.5 -36t-10 -48q0 -44 32.5 -72.5t83.5 -28.5q87 0 124 89l99 -38q-24 -65 -82 -105.5t-143 -40.5zM228 593v137 h107v-137h-107z"/>
    <glyph glyph-name="guilsinglleft.cap" unicode="" horiz-adv-x="283" d="M223 213l-162 119v68l162 119v-83l-98 -70l98 -70v-83z"/>
    <glyph glyph-name="guilsinglright.cap" unicode="" horiz-adv-x="283" d="M61 214v82l99 70l-99 71v82l162 -119v-67z"/>
    <glyph glyph-name="guillemotleft.cap" unicode="" horiz-adv-x="471" d="M228 221l-173 114v62l173 114v-75l-107 -70l107 -71v-74zM416 221l-173 114v62l173 114v-75l-107 -70l107 -71v-74z"/>
    <glyph glyph-name="guillemotright.cap" unicode="" horiz-adv-x="471" d="M243 221v74l108 71l-108 70v75l173 -114v-62zM55 221v74l108 71l-108 70v75l173 -114v-62z"/>
    <glyph glyph-name="slash.cap" unicode="" horiz-adv-x="497" d="M19 0l346 730h115l-346 -730h-115z"/>
    <glyph glyph-name="backslash.cap" unicode="" horiz-adv-x="497" d="M365 0l-346 730h115l346 -730h-115z"/>
    <glyph glyph-name="bar.cap" unicode="" horiz-adv-x="205" d="M49 -120v960h108v-960h-108z"/>
    <glyph glyph-name="doublebar.cap" unicode="" horiz-adv-x="391" d="M49 -120v960h108v-960h-108zM234 -120v960h108v-960h-108z"/>
    <glyph glyph-name="brokenbar.cap" unicode="" horiz-adv-x="226" d="M49 420v420h108v-420h-108zM49 -120v420h108v-420h-108z"/>
    <glyph glyph-name="bullet.cap" unicode="" horiz-adv-x="367" d="M184 271q-38 0 -65.5 27.5t-27.5 65.5t27.5 65.5t65.5 27.5t65.5 -27.5t27.5 -65.5t-27.5 -65.5t-65.5 -27.5z"/>
    <glyph glyph-name="slash.smcp" unicode="" horiz-adv-x="446" d="M26 0l283 596h112l-283 -596h-112z"/>
    <glyph glyph-name="backslash.smcp" unicode="" horiz-adv-x="446" d="M309 0l-283 596h112l283 -596h-112z"/>
    <glyph glyph-name="bar.smcp" unicode="" horiz-adv-x="203" d="M49 -98v784h106v-784h-106z"/>
    <glyph glyph-name="doublebar.smcp" unicode="" horiz-adv-x="386" d="M49 -98v784h106v-784h-106zM231 -98v784h107v-784h-107z"/>
    <glyph glyph-name="onethirdemdash" unicode="" horiz-adv-x="407" d="M44 206v93h320v-93h-320z"/>
    <glyph glyph-name="threequarteremdash" unicode="" horiz-adv-x="597" d="M44 206v93h510v-93h-510z"/>
    <glyph glyph-name="periodcentered.cap" unicode="" horiz-adv-x="205" d="M49 239v137h107v-137h-107z"/>
    <glyph glyph-name="hyphen.cap" unicode="" horiz-adv-x="457" d="M44 261v93h370v-93h-370z"/>
    <glyph glyph-name="onethirdemdash.cap" unicode="" horiz-adv-x="407" d="M44 261v93h320v-93h-320z"/>
    <glyph glyph-name="endash.cap" unicode="" horiz-adv-x="497" d="M44 261v93h410v-93h-410z"/>
    <glyph glyph-name="threequarteremdash.cap" unicode="" horiz-adv-x="597" d="M44 261v93h510v-93h-510z"/>
    <glyph glyph-name="emdash.cap" unicode="" horiz-adv-x="697" d="M44 261v93h610v-93h-610z"/>
    <glyph glyph-name="figuredash.cap" unicode="" horiz-adv-x="647" d="M44 261v93h560v-93h-560z"/>
    <glyph glyph-name="uni2015.cap" unicode="" horiz-adv-x="997" d="M44 261v93h910v-93h-910z"/>
    <glyph glyph-name="anglebracketright.smcp" unicode="" horiz-adv-x="340" d="M137 -98h-112l186 392l-187 392h113l186 -392z"/>
    <glyph glyph-name="parenleft.cap" unicode="" horiz-adv-x="409" d="M313 -142q-278 191 -278 501q0 165 71 283.5t200 212.5l73 -80q-230 -159 -230 -415q0 -261 233 -414z"/>
    <glyph glyph-name="parenright.cap" unicode="" horiz-adv-x="409" d="M96 -142l-69 88q233 153 233 413q0 257 -230 416l73 80q129 -94 200 -212.5t71 -283.5q0 -310 -278 -501z"/>
    <glyph glyph-name="bracketleft.cap" unicode="" horiz-adv-x="360" d="M44 -120v960h273v-103h-165v-754h165v-103h-273z"/>
    <glyph glyph-name="bracketright.cap" unicode="" horiz-adv-x="360" d="M44 -120v103h164v754h-164v103h273v-960h-273z"/>
    <glyph glyph-name="braceleft.cap" unicode="" horiz-adv-x="387" d="M354 -120h-11q-125 0 -172.5 47t-47.5 170v108q0 62 -17 82.5t-77 20.5v100q60 0 77 20.5t17 82.5v112q0 123 47.5 170t172.5 47h11v-99q-79 0 -101.5 -22.5t-22.5 -96.5v-112q0 -62 -16.5 -98t-55.5 -54q39 -18 55.5 -54t16.5 -98v-108q0 -74 23 -96.5t101 -22.5v-99z "/>
    <glyph glyph-name="braceright.cap" unicode="" horiz-adv-x="387" d="M34 -120v100q78 0 101 22.5t23 95.5v108q0 61 16 98t55 54q-39 18 -55 54t-16 98v112q0 74 -23 96t-101 22v100h11q125 0 172.5 -47t47.5 -170v-112q0 -62 17 -82.5t77 -20.5v-100q-60 0 -77 -20.5t-17 -82.5v-108q0 -123 -47.5 -170t-172.5 -47h-11z"/>
    <glyph glyph-name="anglebracketleft.cap" unicode="" horiz-adv-x="381" d="M248 -120l-227 480l227 480h115l-228 -480l228 -480h-115z"/>
    <glyph glyph-name="anglebracketright.cap" unicode="" horiz-adv-x="381" d="M136 -120h-115l228 480l-228 480h115l227 -480z"/>
    <glyph glyph-name="parenleft.smcp" unicode="" horiz-adv-x="317" d="M253 -97q-218 150 -218 394q0 127 53 219t156 166l65 -84q-165 -113 -165 -301q0 -192 168 -300z"/>
    <glyph glyph-name="parenleft.smcp" unicode="" horiz-adv-x="317" d="M253 -97q-218 150 -218 394q0 127 53 219t156 166l65 -84q-165 -113 -165 -301q0 -192 168 -300z"/>
    <glyph glyph-name="parenright.smcp" unicode="" horiz-adv-x="317" d="M64 -97l-59 94q168 108 168 300q0 188 -165 301l65 84q103 -74 156 -166t53 -219q0 -244 -218 -394z"/>
    <glyph glyph-name="parenright.smcp" unicode="" horiz-adv-x="317" d="M64 -97l-59 94q168 108 168 300q0 188 -165 301l65 84q103 -74 156 -166t53 -219q0 -244 -218 -394z"/>
    <glyph glyph-name="bracketleft.smcp" unicode="" horiz-adv-x="323" d="M49 -98v784h230v-101h-124v-582h124v-101h-230z"/>
    <glyph glyph-name="bracketleft.smcp" unicode="" horiz-adv-x="323" d="M49 -98v784h230v-101h-124v-582h124v-101h-230z"/>
    <glyph glyph-name="bracketright.smcp" unicode="" horiz-adv-x="323" d="M44 -98v101h124v582h-124v101h230v-784h-230z"/>
    <glyph glyph-name="bracketright.smcp" unicode="" horiz-adv-x="323" d="M44 -98v101h124v582h-124v101h230v-784h-230z"/>
    <glyph glyph-name="braceleft.smcp" unicode="" horiz-adv-x="352" d="M299 -98q-104 0 -143 38t-39 139v81q0 52 -12.5 67.5t-60.5 15.5v98q48 0 60.5 15.5t12.5 66.5v86q0 101 39 139t143 38h10v-97q-55 0 -71.5 -16t-16.5 -67v-84q0 -53 -12.5 -84t-43.5 -46q31 -16 43.5 -47t12.5 -84v-79q0 -51 16.5 -67t71.5 -16v-97h-10z"/>
    <glyph glyph-name="braceleft.smcp" unicode="" horiz-adv-x="352" d="M299 -98q-104 0 -143 38t-39 139v81q0 52 -12.5 67.5t-60.5 15.5v98q48 0 60.5 15.5t12.5 66.5v86q0 101 39 139t143 38h10v-97q-55 0 -71.5 -16t-16.5 -67v-84q0 -53 -12.5 -84t-43.5 -46q31 -16 43.5 -47t12.5 -84v-79q0 -51 16.5 -67t71.5 -16v-97h-10z"/>
    <glyph glyph-name="braceright.smcp" unicode="" horiz-adv-x="353" d="M44 -98v97q54 0 70.5 15.5t16.5 65.5v81q0 54 12 84.5t43 46.5q-30 15 -42.5 46t-12.5 84v86q0 50 -16.5 65t-70.5 15v98h10q104 0 142.5 -38t38.5 -139v-86q0 -51 13 -66.5t61 -15.5v-98q-48 0 -61 -16t-13 -67v-81q0 -101 -38.5 -139t-142.5 -38h-10z"/>
    <glyph glyph-name="braceright.smcp" unicode="" horiz-adv-x="353" d="M44 -98v97q54 0 70.5 15.5t16.5 65.5v81q0 54 12 84.5t43 46.5q-30 15 -42.5 46t-12.5 84v86q0 50 -16.5 65t-70.5 15v98h10q104 0 142.5 -38t38.5 -139v-86q0 -51 13 -66.5t61 -15.5v-98q-48 0 -61 -16t-13 -67v-81q0 -101 -38.5 -139t-142.5 -38h-10z"/>
    <glyph glyph-name="anglebracketleft.smcp" unicode="" horiz-adv-x="340" d="M319 -98h-113l-185 392l186 392h112l-186 -392z"/>
    <glyph glyph-name="a.alt" unicode="" horiz-adv-x="531" d="M201 -10q-81 0 -124.5 37.5t-43.5 97.5q0 67 45 105.5t138 60.5q9 2 25.5 6t25.5 6t23.5 6t22.5 7t18.5 7t16.5 8.5t12 9.5t8.5 11.5t2.5 13.5q0 59 -99 59q-61 0 -90.5 -24.5t-29.5 -65.5v-3h-100v2q0 84 56.5 130t159.5 46q101 0 156.5 -43t55.5 -121v-346h-103v65 q-72 -75 -176 -75zM207 79q56 0 102 33.5t69 80.5v62q-18 -20 -129 -45q-60 -13 -86.5 -30t-26.5 -47q0 -25 19 -39.5t52 -14.5z"/>
    <glyph glyph-name="g.alt" unicode="" horiz-adv-x="551" d="M273 -258q-123 0 -179 37t-56 96t52 89q-57 28 -57 97q0 73 82 99q-67 56 -67 148q0 85 59 144t143 59q55 0 99.5 -26t68.5 -70q7 43 30.5 62t67.5 19h12v-118h-14q-18 0 -27 -1.5t-18 -8t-12.5 -21t-3.5 -39.5q0 -85 -56 -144.5t-139 -59.5h-74q-62 0 -62 -34 q0 -33 58 -33h161q87 0 135 -35.5t48 -99.5q0 -72 -65 -116t-186 -44zM249 200q45 0 76 31.5t31 76.5t-31 76.5t-76 31.5q-43 0 -73.5 -32t-30.5 -76t30.5 -76t73.5 -32zM336 -54h-119q-41 1 -63 -14t-22 -39q0 -26 25 -41t94 -15h48q67 0 98 18t31 43q0 48 -92 48z"/>
    <glyph glyph-name="lowline" unicode="" horiz-adv-x="507" d="M44 -192v92h420v-92h-420z"/>
    <glyph glyph-name="underscoremonospace" unicode="" horiz-adv-x="578" d="M44 -102v92h491v-92h-491z"/>
    <glyph glyph-name="underscoremonospace" unicode="＿" horiz-adv-x="578" d="M44 -102v92h491v-92h-491z"/>
    <glyph glyph-name="at.cap" unicode="" horiz-adv-x="816" d="M408 -11q-155 0 -264 110t-109 266q0 155 110.5 265t265.5 110q162 0 266 -101t104 -236q0 -89 -44 -149.5t-120 -60.5q-81 0 -117 56q-42 -57 -128 -57q-67 0 -115.5 49.5t-40.5 131.5q10 85 63.5 132t116.5 47q67 0 104 -42l3 36h93l-20 -181q-9 -81 48 -81q31 0 49 32 t18 86q0 99 -78.5 174t-201.5 75q-118 0 -201 -84t-83 -203t81.5 -202.5t199.5 -83.5q122 0 206 89l69 -57q-51 -56 -122.5 -88.5t-152.5 -32.5zM392 278q39 0 65 28.5t30 68.5q5 39 -16.5 67t-59.5 28q-39 0 -68 -26.5t-32 -68.5q-5 -40 18.5 -68.5t62.5 -28.5z"/>
    <glyph glyph-name="Euro.LP" unicode="" horiz-adv-x="838" d="M30 423v89h99q42 103 136 165.5t212 62.5q91 0 167.5 -38t128.5 -105l-82 -69q-33 51 -89.5 79.5t-125.5 28.5q-72 0 -131 -33.5t-93 -90.5h338l-24 -89h-347q-8 -30 -8 -58q0 -29 8 -58h316l-24 -88h-259q34 -57 93 -90.5t130 -33.5q149 0 222 126l92 -58 q-111 -173 -310 -173q-120 0 -214 63t-136 166h-99v88h75q-4 25 -4 58t4 58h-75z"/>
    <glyph glyph-name="dollar.LP" unicode="" horiz-adv-x="561" d="M534 209q0 -78 -52.5 -139t-142.5 -76v-114h-106v114q-131 20 -217 129l96 75q44 -75 123 -99v243q-40 13 -69 26.5t-58.5 36.5t-45 57t-15.5 79q0 74 52 127.5t134 67.5v104h106v-105q106 -16 179 -102l-89 -67q-36 55 -92 71v-217q42 -14 72 -28.5t61 -39t47.5 -60.5 t16.5 -83zM424 209q0 65 -87 100v-211q40 12 63.5 42t23.5 69zM156 544q0 -33 20 -53.5t59 -36.5v185q-36 -11 -57.5 -36t-21.5 -59z"/>
    <glyph glyph-name="cent.LP" unicode="" horiz-adv-x="563" d="M236 -130v126q-89 19 -145.5 89.5t-56.5 164.5t56.5 164t145.5 90v126h109v-125q65 -12 114 -51.5t73 -97.5l-96 -41q-19 44 -56 69.5t-86 25.5q-65 0 -110 -46.5t-45 -113.5q0 -68 44.5 -113.5t111.5 -45.5q49 0 86 26.5t55 70.5l97 -41q-26 -60 -74.5 -100t-113.5 -52 v-125h-109z"/>
    <glyph glyph-name="sterling.LP" unicode="" horiz-adv-x="693" d="M69 320v87h102q-26 60 -26 127q0 92 62.5 149t160.5 57q80 0 136.5 -34t84.5 -92l-97 -47q-36 79 -123 79q-51 0 -82.5 -31t-31.5 -79q0 -59 35 -129h185v-87h-141q31 -69 31 -118q0 -42 -12 -80q59 -45 101 -45q45 0 64.5 24t19.5 80v34h111v-48q0 -177 -173 -177 q-69 0 -157 65q-53 -66 -139 -66q-73 0 -109 30.5t-36 83.5q0 50 33.5 82.5t91.5 32.5q55 0 113 -37v1q0 44 -50 128q-4 7 -6 10h-148zM179 62q46 0 73 43q-49 35 -83 35q-45 0 -45 -38q0 -18 15 -29t40 -11z"/>
    <glyph glyph-name="florin.LP" unicode="" horiz-adv-x="537" d="M65 322v96h163l28 107q30 116 85 160.5t139 44.5h9v-99q-48 0 -78 -21.5t-46 -85.5l-28 -106h142v-96h-166l-30 -117q-30 -117 -80.5 -161t-146.5 -44h-9v100q55 0 82.5 20.5t43.5 86.5l30 115h-138z"/>
    <glyph glyph-name="yen.LP" unicode="" horiz-adv-x="644" d="M107 295v88h161v2l-237 345h122l170 -255l170 255h121l-238 -347h161v-88h-161v-93h161v-88h-161v-114h-108v114h-161v88h161v93h-161z"/>
    <glyph glyph-name="zero.LP" unicode="" horiz-adv-x="818" d="M409 -10q-155 0 -264.5 110t-109.5 265t109.5 265t264.5 110t264.5 -110t109.5 -265t-109.5 -265t-264.5 -110zM409 96q111 0 188 78.5t77 190.5t-77 191t-188 79q-112 0 -188.5 -79t-76.5 -191t76.5 -190.5t188.5 -78.5z"/>
    <glyph glyph-name="one.LP" unicode="" horiz-adv-x="466" d="M39 0v104h145v446q-16 -24 -49.5 -38.5t-68.5 -14.5h-12v113h5q66 0 97.5 37t31.5 83h105v-626h142v-104h-396z"/>
    <glyph glyph-name="two.LP" unicode="" horiz-adv-x="558" d="M48 0v104q0 35 12 67.5t28.5 56.5t46 51t51.5 44t57 41q92 66 118 93q37 40 37 80q0 48 -33 78t-90 30q-94 0 -143 -105l-94 48q33 70 94.5 111t142.5 41q106 0 170 -58.5t64 -145.5q0 -41 -15 -76t-47 -67t-57 -51.5t-70 -50.5q-35 -24 -50 -35t-41.5 -32.5t-38.5 -37.5 t-22 -38t-10 -44h356v-104h-466z"/>
    <glyph glyph-name="three.LP" unicode="" horiz-adv-x="534" d="M255 -10q-148 0 -235 104l92 70q55 -75 143 -75q60 0 97 32.5t37 85.5q0 54 -42.5 86.5t-107.5 32.5h-73v101h73q63 0 99.5 31t36.5 80t-35 78t-93 29q-83 0 -130 -75l-91 53q34 54 92 85.5t129 31.5q108 0 171 -55t63 -146q0 -104 -92 -160q108 -54 108 -172 q0 -96 -65 -156.5t-177 -60.5z"/>
    <glyph glyph-name="four.LP" unicode="" horiz-adv-x="618" d="M366 0v168h-327v100l323 462h111v-463h107v-99h-107v-168h-107zM157 267h209v298z"/>
    <glyph glyph-name="five.LP" unicode="" horiz-adv-x="569" d="M286 -10q-86 0 -151 38t-97 98l101 61q47 -96 147 -96q59 0 99.5 39.5t40.5 101.5q0 64 -41 104.5t-100 40.5q-97 0 -143 -88l-99 45l56 396h396v-102h-308l-28 -197q59 45 134 45q102 0 172.5 -64t70.5 -180q0 -107 -70.5 -174.5t-179.5 -67.5z"/>
    <glyph glyph-name="six.LP" unicode="" horiz-adv-x="586" d="M294 -10q-112 0 -186 72.5t-74 178.5q0 102 56 183l200 306h129l-164 -245q29 9 59 9q101 0 170 -71.5t69 -180.5q0 -108 -74 -180t-185 -72zM292 89q63 0 108.5 45.5t45.5 109.5q0 63 -45.5 108t-108.5 45t-107.5 -44.5t-44.5 -108.5t44.5 -109.5t107.5 -45.5z"/>
    <glyph glyph-name="seven.LP" unicode="" horiz-adv-x="529" d="M94 0l283 626h-341v104h454v-94l-280 -636h-116z"/>
    <glyph glyph-name="eight.LP" unicode="" horiz-adv-x="543" d="M272 -10q-106 0 -170.5 62t-64.5 161q0 55 26 100.5t70 74.5q-73 58 -73 151q0 89 60.5 145t153.5 56q92 0 152.5 -56.5t60.5 -144.5q0 -93 -75 -151q43 -29 69 -74.5t26 -100.5q0 -99 -65 -161t-170 -62zM271 88q56 0 93.5 36.5t37.5 88.5t-36 88.5t-93 36.5t-94 -36.5 t-37 -88.5q0 -53 36.5 -89t92.5 -36zM272 431q50 0 82 31t32 77t-31.5 77t-80.5 31t-81 -31t-32 -77t31 -77t80 -31z"/>
    <glyph glyph-name="nine.LP" unicode="" horiz-adv-x="586" d="M167 0l164 246q-29 -8 -58 -8q-101 0 -170.5 71t-69.5 179q0 109 74.5 180.5t184.5 71.5q112 0 186 -72.5t74 -178.5q0 -101 -56 -182l-200 -307h-129zM294 334q63 0 107.5 45t44.5 109t-44.5 109.5t-107.5 45.5t-108.5 -46t-45.5 -110q0 -63 45.5 -108t108.5 -45z"/>
    <glyph glyph-name="zero.LT" unicode="" d="M293 95q64 0 98.5 36.5t34.5 96.5v269q0 65 -34 102t-97 37q-64 0 -98.5 -38t-34.5 -101v-268q0 -62 33.5 -98t97.5 -36zM294 -10q-115 0 -177.5 64t-62.5 171v274q0 104 67 172.5t173 68.5q108 0 174.5 -68.5t66.5 -171.5v-275q0 -108 -64 -171.5t-177 -63.5z"/>
    </font>
</defs>
</svg>
