<svg xmlns="http://www.w3.org/2000/svg" xmlns:xlink="http://www.w3.org/1999/xlink" width="414.801" height="415.732" viewBox="0 0 414.801 415.732"><defs><style>.a{fill:#e8af42;}.b{fill:url(#a);}.c{fill:#df8026;}.d,.e{fill:#fff;}.e{font-size:41px;font-family:BebasNeue-Regular, Bebas Neue;}</style><linearGradient id="a" y1="0.5" x2="1" y2="0.5" gradientUnits="objectBoundingBox"><stop offset="0.087" stop-color="#e8af42"/><stop offset="1" stop-color="#df8026"/></linearGradient></defs><g transform="translate(-1064.439 -871.292)"><path class="a" d="M1088.331,1164.67c1.107-3.4,2.857-10.082,5.44-16.424,4.736-11.627,4.6-22.736-3.495-32.612-3.926-4.79-9.122-8.59-13.97-12.56-15.6-12.778-15.879-34.52-.477-47.4,3.542-2.962,7.167-5.827,10.652-8.852a29.824,29.824,0,0,0,8.4-33.6c-1.668-4.44-3.513-8.824-4.963-13.335-5.839-18.174,4.925-35.917,23.733-39.257,4.543-.808,9.113-1.471,13.655-2.292a29.907,29.907,0,0,0,23.769-22.949c.966-4.509,1.648-9.085,2.278-13.657,2.721-19.775,21.711-31.323,40.533-24.563,3.861,1.386,7.657,2.953,11.5,4.4,13.372,5.022,26.244,1.577,35.272-9.42,2.6-3.172,5.167-6.38,7.823-9.507,12.672-14.923,33.332-15.161,46.338-.494,2.89,3.26,5.524,6.747,8.311,10.1,9.024,10.852,21.644,14.218,34.977,9.418,5.66-2.037,11.227-4.639,17.071-5.8,16.989-3.369,32.566,8.083,35.119,25.219.68,4.565,1.332,9.142,2.244,13.663a29.693,29.693,0,0,0,24.385,23.645c4.673.809,9.368,1.5,14.024,2.395a29.81,29.81,0,0,1,22.842,39.2c-1.584,4.739-3.584,9.338-5.224,14.06a29.744,29.744,0,0,0,9.055,33.093c3.612,3.074,7.344,6.01,10.966,9.072a29.993,29.993,0,0,1-.075,45.918c-3.627,3.059-7.4,5.954-10.966,9.076-10.169,8.893-13.31,21.631-8.568,34.218,1.672,4.439,3.463,8.842,4.925,13.351a29.766,29.766,0,0,1-23.423,38.835c-4.291.766-8.6,1.436-12.895,2.177-13.714,2.366-23.24,11.995-25.476,25.754-.637,3.923-1.226,7.855-1.854,11.78-3.082,19.252-21.594,30.341-40.03,23.928-4.479-1.557-8.852-3.415-13.327-4.985a29.671,29.671,0,0,0-33.093,9.007c-2.9,3.427-5.677,6.956-8.554,10.4-12.273,14.692-32.924,15.206-45.824,1.062-3.106-3.406-5.881-7.115-8.823-10.672-9.058-10.952-22.018-14.35-35.32-9.27-3.833,1.464-7.636,3.015-11.506,4.37-18.832,6.594-37.411-4.622-40.375-24.322-.592-3.93-1.175-7.863-1.849-11.779-2.3-13.381-11.8-22.893-25.121-25.193-4.548-.786-9.111-1.485-13.648-2.33C1098.459,1194.868,1088.285,1182.606,1088.331,1164.67ZM1272,1243.3c89.95.044,163.618-73.594,163.68-163.615.063-90.833-73.124-164.562-163.514-164.724s-164.027,73.472-164.129,164.111C1107.94,1169.625,1181.449,1243.254,1272,1243.3Z" transform="translate(0 0)"/><circle class="b" cx="160.224" cy="160.224" r="160.224" transform="translate(1115.974 918.582)"/><path class="c" d="M1276.827,914.292a170.05,170.05,0,1,0,170.051,170.05A170.05,170.05,0,0,0,1276.827,914.292Zm0,325.083a155.033,155.033,0,1,1,155.033-155.033A155.033,155.033,0,0,1,1276.827,1239.375Z" transform="translate(-4.937 -5.015)"/><path class="d" d="M1388.442,1120.339c.594,2.013,1.185,4.066,1.821,6.188a17.284,17.284,0,0,0,1.8-1.091c12.235-9.752,23.864-16.261,37.9-23l.99-.473-4.944-10.14c-8.08,4.489-15,8.41-22.363,12.539a115.417,115.417,0,0,0-221.839-55.177l11.585,3.991a103.191,103.191,0,0,1,198.521,44.451c-2.924-6.946-5.836-13.877-8.918-21.167l-10.1,4.923a254.74,254.74,0,0,1,13.768,33.2c.569,1.731,1.1,3.48,1.625,5.255-.042.148-.079.3-.12.444C1388.26,1120.31,1388.351,1120.317,1388.442,1120.339Z" transform="translate(-13.687 -12.314)"/><path class="d" d="M1184.309,1074.651c-.594-2.013-1.185-4.066-1.82-6.187a17.228,17.228,0,0,0-1.8,1.091c-12.236,9.753-23.864,16.261-37.9,23l-.989.473,4.943,10.14c8.081-4.49,15-8.411,22.364-12.54a115.417,115.417,0,0,0,221.839,55.177l-11.585-3.991a103.191,103.191,0,0,1-198.521-44.451c2.924,6.946,5.835,13.877,8.917,21.168l10.1-4.923a255.074,255.074,0,0,1-13.768-33.2c-.569-1.732-1.1-3.48-1.625-5.256.041-.147.078-.3.119-.443C1184.491,1074.681,1184.4,1074.675,1184.309,1074.651Z" transform="translate(-9.022 -22.994)"/><text class="e" transform="translate(1274.439 1077.619)"><tspan x="-63.735" y="0">12 month</tspan><tspan x="-72.016" y="33">guarantee</tspan></text></g></svg>