<svg xmlns="http://www.w3.org/2000/svg" width="375" height="397.647" viewBox="0 0 375 397.647"><defs><style>.a{fill:#a3d147;}.b{fill:#23aaf7;}.c{fill:#fff;}</style></defs><circle class="a" cx="177.76" cy="177.76" r="177.76" transform="translate(8.767 10.713)"/><path d="M688.266,236.3c-103.552,0-187.5,83.945-187.5,187.5s83.948,187.5,187.5,187.5,187.5-83.948,187.5-187.5S791.821,236.3,688.266,236.3Zm0,358.442A170.942,170.942,0,1,1,859.208,423.8,170.943,170.943,0,0,1,688.266,594.74Z" transform="translate(-500.766 -236.298)"/><path d="M539.593,312.518A130.925,130.925,0,0,0,519.606,404.7l.033-.006c.383,2.636.834,5.279,1.383,7.922a131.48,131.48,0,0,0,202.351,82.026L713.7,484.346a117.562,117.562,0,0,1-179.039-74.578,127.36,127.36,0,0,1-2.636-22.428c-.007-.24-.016-.481-.02-.721-.01-.474-.01-.951-.013-1.425A117.507,117.507,0,0,1,753.427,329.8c-6.906-5.1-13.789-10.185-21.049-15.526l-7.02,10.695a289.831,289.831,0,0,1,32.8,24.474c1.565,1.364,3.1,2.766,4.649,4.195.045.172.1.338.143.506.1-.023.2-.068.3-.1,1.753,1.627,3.526,3.292,5.383,5a19.566,19.566,0,0,0,1.127-2.114c6.3-16.666,13.89-29.805,23.7-44.572.231-.344.464-.692.695-1.039l-10.74-7.046c-5.3,9.1-9.786,16.961-14.588,25.289a131.436,131.436,0,0,0-229.237-17.045Z" transform="translate(-461.94 -198.395)"/><g transform="translate(181.331 257.536)"><path d="M613.663,360.788c2.049-.166,6.1-.419,10.133-.825a70.725,70.725,0,0,0,13.3-2.708,51,51,0,0,0,14.536-6.623,20.729,20.729,0,0,0,7.185-7.623,8.693,8.693,0,0,0,.727-6.37,14.019,14.019,0,0,0-3.6-5.955,32.69,32.69,0,0,0-8.445-6.084,57.53,57.53,0,0,0-9.724-3.938,72.567,72.567,0,0,0-11.1-2.558c-2.971-.451-5.977-.675-8.974-.916a89.253,89.253,0,0,0-21.136.945,103.5,103.5,0,0,0-10.3,2.37,47.68,47.68,0,0,0-13.227,5.74c-3.3,2.081-6.305,4.487-8.224,8.013a9.076,9.076,0,0,0-.019,9.182,20.17,20.17,0,0,0,5.857,6.4,45.8,45.8,0,0,0,12.851,6.529,77.261,77.261,0,0,0,14.191,3.364A116.036,116.036,0,0,0,613.663,360.788Z" transform="translate(-541.046 -312.671)"/><path d="M575.055,362.873c.133.166.153.214.188.227a63.94,63.94,0,0,0,11.692,3.007c3.484.552,7,.916,10.523,1.188a90.282,90.282,0,0,0,21.675-1.071,74.866,74.866,0,0,0,13.15-3.347,43.151,43.151,0,0,0,13.422-7.315,16.883,16.883,0,0,0,5.182-6.753,8.8,8.8,0,0,0-.8-7.987,19.534,19.534,0,0,0-5.13-5.62,45.9,45.9,0,0,0-9.565-5.507,1.161,1.161,0,0,0-1.617.367,24.9,24.9,0,0,1-5.727,4.838c-2.211,1.39-4.565,2.552-6.838,3.847a1.39,1.39,0,0,0-.633.783,18.7,18.7,0,0,1-5.523,9.253,40.072,40.072,0,0,1-12.266,7.815,67.3,67.3,0,0,1-15.87,4.685c-3.393.552-6.815.916-10.224,1.367C576.175,362.718,575.662,362.789,575.055,362.873Z" transform="translate(-515.188 -284.393)"/><path d="M658.062,346.376a4.108,4.108,0,0,0-.526.357,39.4,39.4,0,0,1-10.377,6.63,58.542,58.542,0,0,1-11.133,3.883c-3.48.8-6.99,1.467-10.5,2.107a36.689,36.689,0,0,1-4.623.481c-3.435.192-6.873.451-10.312.442a87.246,87.246,0,0,1-15.516-1.347c-2.75-.5-5.493-1.091-8.195-1.808-2.393-.633-4.743-1.438-7.078-2.266a42.918,42.918,0,0,1-13.961-8c-.162-.14-.354-.25-.581-.412-.289.536-.545.99-.782,1.455a7.942,7.942,0,0,0-.614,5.974A15.757,15.757,0,0,0,569.2,361.4a40.034,40.034,0,0,0,10.792,6.344,61.168,61.168,0,0,0,9.861,3.185c2.282.532,4.578,1.023,6.889,1.4,2.114.344,4.253.536,6.383.743a89.488,89.488,0,0,0,13.805.253,73.032,73.032,0,0,0,12.14-1.474c3.477-.8,6.987-1.533,10.373-2.63a42.529,42.529,0,0,0,14.7-7.776,16.784,16.784,0,0,0,5.11-6.721C660.4,351.723,659.774,349.019,658.062,346.376Z" transform="translate(-541.063 -246.516)"/><path d="M635.18,356.349l-.045-.25c-.221,0-.445-.016-.662,0-1.2.1-2.409.23-3.614.308a106.213,106.213,0,0,1-15.042-.042,94.861,94.861,0,0,1-12.179-1.708,76.474,76.474,0,0,1-11.084-3.166,46.389,46.389,0,0,1-14.536-8.24,21.521,21.521,0,0,1-4.74-5.7,13.065,13.065,0,0,1-1.877-5.792c-.094-2.1-.1-4.195-.153-6.289-.007-.263-.023-.526-.039-.87a5.314,5.314,0,0,0-.51.211c-1.581.948-3.211,1.825-4.73,2.864a19.7,19.7,0,0,0-6.643,7.039,8.894,8.894,0,0,0-1.078,5.666,13.054,13.054,0,0,0,3.769,6.906,31.8,31.8,0,0,0,7.77,5.747,54.192,54.192,0,0,0,12.549,4.935A96.02,96.02,0,0,0,592.508,360a88.345,88.345,0,0,0,10,.919c3.711.12,7.438.039,11.146-.195a86.879,86.879,0,0,0,9.286-1.162c2.62-.451,5.2-1.159,7.776-1.825C632.226,357.349,633.693,356.816,635.18,356.349Z" transform="translate(-553.184 -295.437)"/><path d="M640.583,360.041l-.045-.24c-.218,0-.438-.013-.659,0-2.571.162-5.14.37-7.711.49A95.33,95.33,0,0,1,612,358.94a75.756,75.756,0,0,1-11.718-2.916,55.056,55.056,0,0,1-12.477-5.776,26.926,26.926,0,0,1-8.218-7.6,2.638,2.638,0,0,0-1.941-1.162c-2.172-.393-4.344-.808-6.49-1.321-1.945-.464-3.851-1.081-5.786-1.594a.825.825,0,0,0-.727.224,8.489,8.489,0,0,0-.068,8.244,17.561,17.561,0,0,0,4.591,5.627,44.7,44.7,0,0,0,15,7.942,66.494,66.494,0,0,0,13.623,3.107c3.714.422,7.438.779,11.165.977a72.188,72.188,0,0,0,12.364-.454c2.328-.276,4.672-.49,6.974-.932,2.7-.516,5.373-1.2,8.039-1.9C637.768,361.031,639.167,360.5,640.583,360.041Z" transform="translate(-541.054 -264.093)"/><path d="M633.847,455.466c2.971-.3,5.964-.451,8.909-.916a77.368,77.368,0,0,0,17.951-4.86,43.353,43.353,0,0,0,12.367-7.406,20.468,20.468,0,0,0,5.766-7.854,15.18,15.18,0,0,0,.987-5.416c.016-2.533-.026-5.065,0-7.6a14.652,14.652,0,0,0-2.549-8.64,1.535,1.535,0,0,1,.029-2.052,15.138,15.138,0,0,0,2.224-4.955,1.258,1.258,0,0,1,.6-.727,46.3,46.3,0,0,0,9.322-5.656c3.175-2.575,5.847-5.555,7.191-9.52.237-.695.386-1.419.578-2.13l.081.01s1.6-7.838,0-12.919a16.577,16.577,0,0,0-3.045-6.844,28.772,28.772,0,0,0-6.487-6.217A49.019,49.019,0,0,0,679,356.933c-.545-.24-.587-.477-.354-.987a13.227,13.227,0,0,0,1.172-5.507c.007-2.805.049-5.61,0-8.416a15.492,15.492,0,0,0-3.149-9.143,31.775,31.775,0,0,0-10.237-8.578,56.3,56.3,0,0,0-9.805-4.286c-2.344-.8-4.756-1.406-7.162-2.007a88.054,88.054,0,0,0-13.487-2.127c-.75-.068-1.5-.081-2.253-.13,0,0-9.182-.312-13.162.01-3.685.3-7.344.678-10.99,1.312a75.867,75.867,0,0,0-11.448,2.857c-6.165,2.084-12.016,4.8-16.919,9.214a20.284,20.284,0,0,0-5.552,7.682c-.3.76-.438,1.581-.714,2.351a1.355,1.355,0,0,1-.578.727,45.054,45.054,0,0,0-9.435,5.737c-3.11,2.571-5.766,5.513-7.075,9.441-.24.724-.38,1.477-.643,2.214a34.426,34.426,0,0,0-.01,12.854,17.813,17.813,0,0,0,1.877,4.958,21.4,21.4,0,0,0,3.825,4.877,41.53,41.53,0,0,0,12.545,8c.552.244.633.468.393,1.029a14.554,14.554,0,0,0-1.172,5.922c.029,2.51.039,5.02.006,7.529a14.844,14.844,0,0,0,2.588,8.633,1.2,1.2,0,0,1,.019,1.575,14.815,14.815,0,0,0-2.607,8.695c.033,2.351.026,4.7-.006,7.049a16.005,16.005,0,0,0,3.386,10.237,29.3,29.3,0,0,0,6.575,6.12,51.9,51.9,0,0,0,13.286,6.455,76.2,76.2,0,0,0,11.377,2.877A94.924,94.924,0,0,0,621.1,455.5,85.867,85.867,0,0,0,633.847,455.466Z" transform="translate(-556.616 -315.619)"/><path class="b" d="M575.055,362.873c.607-.084,1.12-.156,1.637-.224,3.409-.451,6.831-.815,10.224-1.367a67.3,67.3,0,0,0,15.87-4.685,40.072,40.072,0,0,0,12.266-7.815,18.7,18.7,0,0,0,5.523-9.253,1.39,1.39,0,0,1,.633-.783c2.273-1.3,4.627-2.458,6.838-3.847a24.9,24.9,0,0,0,5.727-4.838,1.161,1.161,0,0,1,1.617-.367,45.9,45.9,0,0,1,9.565,5.507,19.534,19.534,0,0,1,5.13,5.62,8.8,8.8,0,0,1,.8,7.987,16.883,16.883,0,0,1-5.182,6.753,43.151,43.151,0,0,1-13.422,7.315,74.866,74.866,0,0,1-13.15,3.347,90.282,90.282,0,0,1-21.675,1.071c-3.52-.273-7.039-.636-10.523-1.188a63.94,63.94,0,0,1-11.692-3.007C575.207,363.088,575.188,363.039,575.055,362.873Z" transform="translate(-515.188 -284.393)"/><path class="b" d="M658.062,346.376c1.711,2.643,2.338,5.347,1.185,8.344a16.784,16.784,0,0,1-5.11,6.721,42.529,42.529,0,0,1-14.7,7.776c-3.386,1.1-6.9,1.828-10.373,2.63a73.032,73.032,0,0,1-12.14,1.474,89.488,89.488,0,0,1-13.805-.253c-2.13-.208-4.27-.4-6.383-.743-2.312-.377-4.607-.867-6.889-1.4a61.168,61.168,0,0,1-9.861-3.185A40.034,40.034,0,0,1,569.2,361.4a15.757,15.757,0,0,1-5.335-7.523,7.942,7.942,0,0,1,.614-5.974c.237-.464.493-.919.782-1.455.227.162.419.273.581.412a42.918,42.918,0,0,0,13.961,8c2.334.828,4.685,1.633,7.078,2.266,2.7.718,5.445,1.305,8.195,1.808a87.246,87.246,0,0,0,15.516,1.347c3.438.01,6.877-.25,10.312-.442a36.689,36.689,0,0,0,4.623-.481c3.513-.64,7.023-1.312,10.5-2.107a58.542,58.542,0,0,0,11.133-3.883,39.4,39.4,0,0,0,10.377-6.63A4.108,4.108,0,0,1,658.062,346.376Z" transform="translate(-541.063 -246.516)"/><path class="b" d="M635.18,356.349c-1.487.468-2.954,1-4.461,1.393-2.578.666-5.156,1.373-7.776,1.825a86.879,86.879,0,0,1-9.286,1.162c-3.708.234-7.435.315-11.146.195a88.345,88.345,0,0,1-10-.919,96.02,96.02,0,0,1-10.172-2.036,54.192,54.192,0,0,1-12.549-4.935,31.8,31.8,0,0,1-7.77-5.747,13.054,13.054,0,0,1-3.769-6.906,8.894,8.894,0,0,1,1.078-5.666,19.7,19.7,0,0,1,6.643-7.039c1.519-1.039,3.149-1.916,4.73-2.864a5.314,5.314,0,0,1,.51-.211c.016.344.032.607.039.87.049,2.094.058,4.192.153,6.289a13.065,13.065,0,0,0,1.877,5.792,21.521,21.521,0,0,0,4.74,5.7,46.389,46.389,0,0,0,14.536,8.24,76.474,76.474,0,0,0,11.084,3.166,94.861,94.861,0,0,0,12.179,1.708,106.213,106.213,0,0,0,15.042.042c1.2-.078,2.409-.208,3.614-.308.217-.016.442,0,.662,0Z" transform="translate(-553.184 -295.437)"/><path class="c" d="M640.583,360.041c-1.415.461-2.815.99-4.253,1.364-2.665.691-5.338,1.38-8.039,1.9-2.3.442-4.646.656-6.974.932a72.188,72.188,0,0,1-12.364.454c-3.727-.2-7.451-.555-11.165-.977a66.494,66.494,0,0,1-13.623-3.107,44.7,44.7,0,0,1-15-7.942,17.561,17.561,0,0,1-4.591-5.627,8.489,8.489,0,0,1,.068-8.244.825.825,0,0,1,.727-.224c1.935.513,3.841,1.13,5.786,1.594,2.146.513,4.318.929,6.49,1.321a2.638,2.638,0,0,1,1.941,1.162,26.926,26.926,0,0,0,8.218,7.6,55.056,55.056,0,0,0,12.477,5.776A75.756,75.756,0,0,0,612,358.94a95.33,95.33,0,0,0,20.166,1.354c2.571-.12,5.14-.328,7.711-.49.221-.016.442,0,.659,0Z" transform="translate(-541.054 -264.093)"/><path class="c" d="M613.663,360.788a116.036,116.036,0,0,1-15.981-1.055,77.261,77.261,0,0,1-14.191-3.364,45.8,45.8,0,0,1-12.851-6.529,20.17,20.17,0,0,1-5.857-6.4,9.076,9.076,0,0,1,.019-9.182c1.919-3.526,4.922-5.932,8.224-8.013a47.68,47.68,0,0,1,13.227-5.74,103.5,103.5,0,0,1,10.3-2.37,89.253,89.253,0,0,1,21.136-.945c3,.24,6,.464,8.974.916a72.567,72.567,0,0,1,11.1,2.558,57.53,57.53,0,0,1,9.724,3.938,32.69,32.69,0,0,1,8.445,6.084,14.019,14.019,0,0,1,3.6,5.955,8.693,8.693,0,0,1-.727,6.37,20.729,20.729,0,0,1-7.185,7.623,51,51,0,0,1-14.536,6.623,70.725,70.725,0,0,1-13.3,2.708C619.76,360.369,615.711,360.622,613.663,360.788Z" transform="translate(-541.046 -312.671)"/></g><g transform="translate(93.52 128.019)"><path class="c" d="M549.142,283.666h-5.5v-3.731a13.87,13.87,0,0,0,3.607-.38,4.57,4.57,0,0,0,2.179-1.27,7.843,7.843,0,0,0,1.432-2.558H554.4v33.477h-5.26Z" transform="translate(-497.947 -275.728)"/><path class="c" d="M558.623,303.131H548.578v-4.782l9.565-22.62h5.74v22.62h2.487v4.782h-2.487v6.075h-5.26Zm0-4.782V285.293h-.1l-5.166,13.055Z" transform="translate(-486.864 -275.728)"/><path class="c" d="M557.209,275.728h8.036q3.92,0,5.88,2.1T573.089,284v16.929q0,4.067-1.964,6.172t-5.88,2.1h-8.036Zm7.938,28.692a2.546,2.546,0,0,0,1.987-.763,3.66,3.66,0,0,0,.692-2.487V283.764a3.654,3.654,0,0,0-.692-2.487,2.547,2.547,0,0,0-1.987-.766h-2.679V304.42Z" transform="translate(-467.472 -275.728)"/><path class="c" d="M568.21,275.728h7.13l5.448,33.477h-5.26l-.958-6.649v.1H568.6l-.958,6.552h-4.877Zm5.74,22.383-2.344-16.549h-.094l-2.3,16.549Z" transform="translate(-454.996 -275.728)"/><path class="c" d="M574.984,294.952l-6.36-19.224h5.594l3.588,12.292h.094l3.588-12.292H586.6l-6.36,19.224v14.253h-5.26Z" transform="translate(-441.825 -275.728)"/><path class="c" d="M529.57,288.028h7.51l3.347,23.958h.094l3.351-23.958h7.507V321.5H546.4V296.158h-.094L542.485,321.5h-4.4l-3.825-25.344h-.1V321.5H529.57Z" transform="translate(-529.57 -248.093)"/><path class="c" d="M539.432,320.111a8.757,8.757,0,0,1-2.055-6.214V296.3a8.765,8.765,0,0,1,2.055-6.217,9.1,9.1,0,0,1,11.861,0,8.765,8.765,0,0,1,2.055,6.217v17.6a8.757,8.757,0,0,1-2.055,6.214,9.089,9.089,0,0,1-11.861,0Zm8.656-5.88V295.962q0-3.3-2.724-3.3t-2.727,3.3v18.269q0,3.3,2.727,3.3T548.088,314.232Z" transform="translate(-512.029 -248.423)"/><path class="c" d="M543.386,288.028h6.6l5.117,20.039h.094V288.028h4.688V321.5h-5.4l-6.315-24.435h-.1V321.5h-4.685Z" transform="translate(-498.529 -248.093)"/><path class="c" d="M549.675,288.028h14.348v4.782h-9.088v8.847h7.224v4.782h-7.224v10.282h9.088V321.5H549.675Z" transform="translate(-484.399 -248.093)"/><path class="c" d="M560.911,307.252l-6.36-19.224h5.591l3.591,12.289h.094l3.588-12.289h5.117l-6.36,19.224V321.5h-5.26Z" transform="translate(-473.444 -248.093)"/><path class="c" d="M560.59,292.447h10.519v4.779H560.59Z" transform="translate(-459.876 -238.165)"/><path class="c" d="M564.8,288.028h7.938q4.066,0,5.929,1.889t1.867,5.808v1.341a9.228,9.228,0,0,1-.835,4.208,4.91,4.91,0,0,1-2.558,2.344v.094q3.915,1.339,3.919,6.984v2.87a7.983,7.983,0,0,1-2.032,5.9,8.072,8.072,0,0,1-5.951,2.032H564.8Zm7.318,13.63a3.155,3.155,0,0,0,2.367-.812,3.845,3.845,0,0,0,.786-2.727v-1.864a4.245,4.245,0,0,0-.643-2.633,2.442,2.442,0,0,0-2.032-.812h-2.536v8.847Zm.958,15.065a2.618,2.618,0,0,0,2.052-.743,3.808,3.808,0,0,0,.669-2.558v-2.916a4.871,4.871,0,0,0-.786-3.182,3.345,3.345,0,0,0-2.6-.883h-2.347v10.282Z" transform="translate(-450.412 -248.093)"/><path class="c" d="M575.776,288.028H582.9l5.451,33.474h-5.26l-.958-6.646v.094h-5.977L575.2,321.5h-4.877Zm5.737,22.38-2.341-16.545h-.094l-2.3,16.545Z" transform="translate(-438.004 -248.093)"/><path class="c" d="M578.54,320.16a8.627,8.627,0,0,1-1.984-6.075V296.1a8.627,8.627,0,0,1,1.984-6.075,8.8,8.8,0,0,1,11.526,0,8.641,8.641,0,0,1,1.984,6.075v3.539h-4.974v-3.873q0-3.107-2.633-3.107t-2.626,3.107v18.7q0,3.063,2.626,3.062t2.633-3.062v-5.117h4.974v4.734a8.642,8.642,0,0,1-1.984,6.075,8.791,8.791,0,0,1-11.526,0Z" transform="translate(-424.004 -248.423)"/><path class="c" d="M582.3,288.028h5.26v14.107l6.695-14.107h5.263l-6.266,12.289,6.36,21.185h-5.5l-4.448-14.919-2.1,4.256V321.5H582.3Z" transform="translate(-411.101 -248.093)"/><path class="c" d="M534.99,332.436a8.888,8.888,0,0,1-2.01-6.244V308.6a8.871,8.871,0,0,1,2.01-6.237,8.9,8.9,0,0,1,11.666,0,8.857,8.857,0,0,1,2.013,6.237v2.87h-4.977v-3.2q0-3.3-2.724-3.3t-2.724,3.3v18.318q0,3.253,2.724,3.253t2.724-3.253v-6.552h-2.627v-4.786h7.6v10.951a8.874,8.874,0,0,1-2.013,6.244,8.907,8.907,0,0,1-11.666,0Z" transform="translate(-521.908 -220.79)"/><path class="c" d="M540.808,332.106a8.873,8.873,0,0,1-2.01-6.244V300.327h5.26v25.922a3.627,3.627,0,0,0,.695,2.484,2.942,2.942,0,0,0,3.968,0,3.645,3.645,0,0,0,.692-2.484V300.327h5.072v25.536a8.887,8.887,0,0,1-2.007,6.244,8.912,8.912,0,0,1-11.669,0Z" transform="translate(-508.837 -220.46)"/><path class="c" d="M549.8,300.327h7.13l5.448,33.477h-5.26l-.958-6.646v.094h-5.977l-.954,6.552h-4.877Zm5.74,22.383L553.2,306.161H553.1l-2.3,16.549Z" transform="translate(-496.361 -220.46)"/><path class="c" d="M550.684,300.327h7.8q4.062,0,5.929,1.89t1.864,5.812v2.055q0,5.211-3.441,6.6v.1a4.108,4.108,0,0,1,2.7,2.341,11.853,11.853,0,0,1,.786,4.734v5.883a21.992,21.992,0,0,0,.1,2.318,5.9,5.9,0,0,0,.477,1.747h-5.357a8.008,8.008,0,0,1-.383-1.533,23.59,23.59,0,0,1-.094-2.581v-6.123a5.2,5.2,0,0,0-.74-3.2,3.141,3.141,0,0,0-2.558-.909h-1.818V333.8h-5.26Zm7.175,14.347a3.147,3.147,0,0,0,2.364-.812,3.845,3.845,0,0,0,.789-2.727v-2.585a4.251,4.251,0,0,0-.643-2.627,2.444,2.444,0,0,0-2.032-.815h-2.393v9.565Z" transform="translate(-482.132 -220.46)"/><path class="c" d="M561.643,300.327h7.127l5.451,33.477h-5.26L568,327.158v.094h-5.977l-.958,6.552h-4.877Zm5.74,22.383-2.344-16.549h-.094l-2.3,16.549Z" transform="translate(-469.757 -220.46)"/><path class="c" d="M562.525,300.327h6.6l5.117,20.039h.094V300.327h4.685V333.8h-5.4l-6.312-24.438h-.1V333.8h-4.688Z" transform="translate(-455.528 -220.46)"/><path class="c" d="M573.885,305.109h-5.5v-4.782h16.26v4.782h-5.5V333.8h-5.263Z" transform="translate(-442.355 -220.46)"/><path class="c" d="M574.176,300.327h14.347v4.782h-9.088v8.847h7.224v4.782h-7.224v10.283h9.088V333.8H574.176Z" transform="translate(-429.351 -220.46)"/><path class="c" d="M579.522,300.327h14.347v4.782h-9.084v8.847h7.221v4.782h-7.221v10.283h9.084V333.8H579.522Z" transform="translate(-417.34 -220.46)"/></g></svg>