<svg xmlns="http://www.w3.org/2000/svg" width="449.637" height="375" viewBox="0 0 449.637 375"><defs><style>.a,.f{fill:#e8af42;}.b{fill:#2896e2;}.c,.h{fill:#fff;}.d{fill:#4dc9ac;}.e{fill:#a0e0c6;}.f{stroke:#e8af42;stroke-width:13px;}.f,.g{stroke-miterlimit:10;}.g{fill:none;stroke:#fff;stroke-width:5.645px;}.h{font-size:47px;font-family:BebasNeue-Regular, Bebas Neue;}.i{font-size:32px;}</style></defs><g transform="translate(-377.153 -771.322)"><path class="a" d="M668.659,900.939c.489-1.5,1.262-4.454,2.4-7.256,2.093-5.137,2.033-10.045-1.544-14.409a42.472,42.472,0,0,0-6.172-5.549c-6.894-5.645-7.015-15.251-.211-20.942,1.564-1.309,3.166-2.574,4.706-3.911a13.176,13.176,0,0,0,3.71-14.844c-.737-1.962-1.552-3.9-2.192-5.892a13.156,13.156,0,0,1,10.484-17.344c2.008-.356,4.027-.649,6.033-1.013a13.213,13.213,0,0,0,10.5-10.138c.427-1.992.728-4.014,1.006-6.034a13.23,13.23,0,0,1,17.908-10.852c1.706.612,3.383,1.3,5.08,1.942a13.2,13.2,0,0,0,15.583-4.161c1.15-1.4,2.282-2.819,3.456-4.2,5.6-6.593,14.727-6.7,20.472-.218,1.277,1.44,2.44,2.981,3.672,4.462a13.248,13.248,0,0,0,15.453,4.161,53.878,53.878,0,0,1,7.542-2.562,13.056,13.056,0,0,1,15.516,11.141c.3,2.017.588,4.039.991,6.037A13.12,13.12,0,0,0,813.831,809.8c2.065.357,4.139.663,6.2,1.058a13.17,13.17,0,0,1,10.092,17.319c-.7,2.094-1.583,4.126-2.308,6.212a13.14,13.14,0,0,0,4,14.621c1.6,1.358,3.245,2.655,4.845,4.008a13.25,13.25,0,0,1-.034,20.286c-1.6,1.352-3.267,2.631-4.844,4.01a13.2,13.2,0,0,0-3.785,15.119c.739,1.961,1.529,3.906,2.175,5.9a13.152,13.152,0,0,1-10.349,17.158c-1.9.337-3.8.634-5.7.961a13.29,13.29,0,0,0-11.255,11.378c-.283,1.733-.542,3.47-.819,5.2a13.188,13.188,0,0,1-17.685,10.572c-1.979-.688-3.911-1.508-5.888-2.2a13.111,13.111,0,0,0-14.621,3.979c-1.281,1.514-2.508,3.073-3.779,4.595a13.115,13.115,0,0,1-20.244.469c-1.373-1.5-2.6-3.143-3.9-4.715a13.214,13.214,0,0,0-15.6-4.1c-1.693.647-3.373,1.331-5.083,1.93a13.2,13.2,0,0,1-17.838-10.745c-.262-1.737-.52-3.474-.817-5.2a13.226,13.226,0,0,0-11.1-11.131c-2.009-.347-4.025-.656-6.029-1.029C673.134,914.28,668.639,908.862,668.659,900.939Zm81.147,34.738a72.531,72.531,0,1,0-72.44-72.557A72.531,72.531,0,0,0,749.807,935.677Z" transform="translate(-14.574)"/><path d="M559.667,781.839A182.514,182.514,0,1,0,742.182,964.353,182.514,182.514,0,0,0,559.667,781.839Zm0,348.911a166.4,166.4,0,1,1,166.4-166.4A166.4,166.4,0,0,1,559.667,1130.75Z" transform="translate(0 -0.546)"/><circle class="b" cx="169.366" cy="169.366" r="169.366" transform="translate(391.375 791.991)"/><path d="M622.491,913.63c-11.732-.319-23.136,3.812-33.254,11.59-13.276,10.207-7.028,23.755-2.074,39.736,6.461,20.837,11.9,33.863,29.7,46.229,14.539,10.1,26.586,12.726,40.573,1.863a55.87,55.87,0,0,0,18.88-61.349C668.762,928.821,647.85,913.711,622.491,913.63Z" transform="translate(-10.589 -7.381)"/><path class="c" d="M688.3,902.482c1.409-11.555-10.523-23.463-20.356-23.086-10.288.4-18.087,10.467-17.848,23.718.165,9.08,6.808,14.686,17.4,14.687C682.953,917.8,688.335,913.84,688.3,902.482Z" transform="translate(-14.158 -5.606)"/><path class="c" d="M468,917.81c10.649.095,16.915-5.3,17.1-14.723.257-13.389-7.388-23.64-17.629-23.641-11.277,0-20.1,10.063-20.225,23.072C447.127,913.9,452.248,917.671,468,917.81Z" transform="translate(-3.635 -5.609)"/><path d="M456.1,963.641c.906-17.6,10.887-34.775,31.106-44.481,20.085-9.642,39.95-7.616,58.082,5.736,13.75,10.126,13.942,19.027,8.91,35.645-6.444,21.279-14.907,40.684-33.322,52.888-16.293,10.8-34.53,9.62-48.969-5.3C461.539,997.415,455.954,983.422,456.1,963.641Zm90.4,9.039c1.22-21.513-17.564-29.358-31.882-29.684-14.663-.334-29.173,13.285-29.307,27.056-.165,16.895,14.565,31.677,31.567,31.679C534.292,1001.733,546.5,990.486,546.5,972.681Z" transform="translate(-4.095 -7.358)"/><path d="M573.369,1047.162c-16.033-.339-24.825-7.115-32.069-15.946-4.2-5.119-2.132-15.064,3.229-19.033a5.983,5.983,0,0,1,4.594-.55,74.079,74.079,0,0,0,40.969.142,7.363,7.363,0,0,1,6.162,1.962c6.412,7.357,5.548,15.7-1.977,21.952C587.086,1041.668,579.808,1047.572,573.369,1047.162Z" transform="translate(-8.399 -12.454)"/><path d="M688.3,902.482c.036,11.358-5.346,15.322-20.8,15.32-10.6,0-17.24-5.607-17.4-14.687-.24-13.251,7.559-23.323,17.848-23.718C677.775,879.019,689.707,890.928,688.3,902.482Z" transform="translate(-14.158 -5.606)"/><path d="M468,917.81c-15.747-.139-20.868-3.912-20.758-15.292.126-13.008,8.948-23.073,20.225-23.072,10.242,0,17.886,10.252,17.629,23.641C484.911,912.507,478.645,917.9,468,917.81Z" transform="translate(-3.635 -5.609)"/><path d="M623.846,1054.1a4.424,4.424,0,0,0-3.218,2.778c-.909,2.038-1.7,4.136-2.72,6.114a30.408,30.408,0,0,1-6.92,8.709c-.365.267-.735.532-1.114.786a30.834,30.834,0,0,1-10.859,4.755c-2.179.46-4.412.661-6.617,1a4.421,4.421,0,0,0-3.534,2.363,4.7,4.7,0,0,0,4.463,7.1,43.321,43.321,0,0,0,5.932-.675c10.879-1.958,16.829-7.054,16.962-7.161a39.494,39.494,0,0,0,11.05-14.031,44.326,44.326,0,0,0,2.229-5.538A4.7,4.7,0,0,0,623.846,1054.1Z" transform="translate(-10.95 -14.662)"/><g transform="translate(418.034 917.619)"><path class="d" d="M703.825,931.443c-.353-.033-.706-.077-1.059-.113l1.1-.173s-12.721-7.3-52.276-3.966q-5.437.459-10.285.96c-5.437.365-10.864.85-16.258,1.594-14.153,1.951-23.491,2.617-40.225,8.784a22.029,22.029,0,0,1-3.27.932l-9.351,1.87-16.533-.151c-1.106-.575-10.227-1.586-11.371-1.964-18.381-6.059-37.292-9.13-56.24-11.438a300.415,300.415,0,0,0-54.814-1.567c-1.448-.095-14.344-.7-12.852,7.75.029.166.067.315.1.47.533,4.254.943,8.533,1.677,12.746a8.645,8.645,0,0,0,2.282,3.668c1.738,2.005,4.25,3.5,5.321,5.832a79.823,79.823,0,0,1,4.048,12.645c2.267,8.475,4.129,17.09,6.607,25.487,2.711,9.192,8.158,16.1,16.134,20.158,16.823,8.564,34.282,10.267,52.307,6.05,13.874-3.247,25.015-10.775,31.94-24.742,3.822-7.712,6.973-15.833,10.51-23.723,1.282-2.861,2.289-6.2,4.306-8.265,6.257-6.393,15.813-3.2,18.841,4.5a275.694,275.694,0,0,0,11.421,26.259c4.723,9.094,10.581,17.141,19.778,21.694,20.6,10.2,41.233,9.538,62.023,1.588,10.763-4.116,17.525-12.542,20.688-24.584,1.032-3.931,1.868-7.925,2.815-11.884,1.734-7.248,3.354-14.536,5.273-21.723.915-3.424,3.085-6.586,6.363-7.934a3.939,3.939,0,0,0,1.92-2.606c.787-4.76,1.328-9.573,1.948-14.369C707.01,932.791,706.234,931.669,703.825,931.443Z" transform="translate(-420.27 -925.623)"/><ellipse class="c" cx="5.727" cy="6.357" rx="5.727" ry="6.357" transform="translate(9.229 7.739) rotate(-1.475)"/><ellipse class="c" cx="5.727" cy="6.357" rx="5.727" ry="6.357" transform="translate(264.446 8.661) rotate(-1.475)"/></g><path class="e" d="M547.981,972.624c1.219-21.513-17.564-29.358-31.882-29.684-14.663-.334-29.173,13.285-29.308,27.056-.164,16.895,14.566,31.677,31.567,31.679C535.769,1001.676,547.976,990.428,547.981,972.624Z" transform="translate(-5.687 -8.902)"/><path d="M523.9,989.677c-7.579.025-12.818-4.9-12.994-12.222s5.837-13.553,12.94-13.406c6.6.136,12.589,5.894,12.67,12.179C536.611,983.959,531.27,989.652,523.9,989.677Z" transform="translate(-6.938 -9.997)"/><path class="c" d="M642.624,986.977a4.156,4.156,0,0,1-1.672-.352h0a57.151,57.151,0,0,0-33.078-2.23,4.171,4.171,0,0,1-4.785-5.795,54.512,54.512,0,0,1,40.736-28.9A4.171,4.171,0,0,1,645,957.96a46.04,46.04,0,0,0-29.471,16.781,64.469,64.469,0,0,1,28.777,4.249,4.172,4.172,0,0,1-1.686,7.988Z" transform="translate(-11.7 -9.251)"/><circle class="c" cx="5.396" cy="5.396" r="5.396" transform="translate(514.622 953.157)"/><circle class="f" cx="72.058" cy="72.058" r="72.058" transform="translate(663.013 790.759)"/><circle class="g" cx="66.369" cy="66.369" r="66.369" transform="translate(668.702 796.448)"/><text class="h" transform="translate(734.546 855.2)"><tspan x="-28.294" y="0">BOO</tspan><tspan class="i"><tspan x="-53.36" y="31">approved!</tspan></tspan></text></g></svg>