<svg xmlns="http://www.w3.org/2000/svg" width="446.601" height="375" viewBox="0 0 446.601 375"><defs><style>.a{fill:#a3d147;}.b{fill:#fff;}</style></defs><circle class="a" cx="177.76" cy="177.76" r="177.76" transform="translate(8.767 10.713)"/><path d="M688.266,423.8c-103.552,0-187.5,83.945-187.5,187.5s83.948,187.5,187.5,187.5,187.5-83.948,187.5-187.5S791.821,423.8,688.266,423.8Zm0,358.442A170.942,170.942,0,1,1,859.208,611.3,170.943,170.943,0,0,1,688.266,782.24Z" transform="translate(-500.766 -423.798)"/><path d="M519.163,552.77a130.935,130.935,0,0,0,20.149,92.143l.026-.02c1.448,2.24,2.955,4.454,4.555,6.63a131.478,131.478,0,0,0,218.137-9.539l-13.081-5.338a117.556,117.556,0,0,1-193.835,6.624,127.72,127.72,0,0,1-11.727-19.305c-.1-.214-.211-.428-.315-.646-.208-.428-.4-.86-.6-1.289A117.507,117.507,0,0,1,720.822,479.578c-8.4-1.763-16.776-3.529-25.6-5.367l-1.935,12.643a290.367,290.367,0,0,1,40,8.62c1.99.591,3.971,1.227,5.974,1.883.114.136.227.266.338.4a2.9,2.9,0,0,0,.234-.214c2.269.75,4.575,1.526,6.974,2.308a19.6,19.6,0,0,0,.143-2.393c-1.2-17.776.237-32.883,3.026-50.393.068-.409.133-.822.2-1.23l-12.7-1.945c-1.032,10.477-1.844,19.5-2.75,29.065A131.435,131.435,0,0,0,519.163,552.77Z" transform="translate(-462.868 -384.702)"/><g transform="translate(139.656 113.458)"><path class="b" d="M545.294,517.15V465.722c0-1.925.007-1.929,1.961-1.929q35.513,0,71.026-.029c1.438,0,1.932.279,1.929,1.877q-.073,51.584,0,103.162c0,1.588-.477,1.883-1.925,1.88q-35.513-.063-71.026-.029c-1.961,0-1.964,0-1.964-2.071Z" transform="translate(-540.378 -447.462)"/><path d="M632.981,537.288q0-21.078,0-42.153l-8.558,7.016q-.034,37.836.016,75.666c0,1.506-.461,1.789-1.854,1.786q-34.154-.058-68.315-.029c-1.886,0-1.89,0-1.89-1.964V479.921c0-1.828,0-1.831,1.886-1.831q34.16,0,68.315-.029c1.383,0,1.86.266,1.857,1.782-.007,5.13-.007,9.114-.013,14.244l8.555-6.033v-16.88c0-7.636-4.779-12.419-12.386-12.429q-7.719-.01-15.432,0-24.58,0-49.159,0a12.088,12.088,0,0,0-7.744,2.438c-3.26,2.552-4.481,5.981-4.477,10.023q.024,66.117.01,132.234c0,.283,0,.571.006.854.195,6.688,4.977,11.536,11.666,11.549q32.937.078,65.877.01a11.369,11.369,0,0,0,7.175-2.422c3.2-2.516,4.48-5.883,4.477-9.88Q632.962,570.417,632.981,537.288ZM573.16,465.7q15.224-.01,30.442,0c1.919,0,2.584.7,2.6,2.7.019,2.065-.679,2.812-2.649,2.812q-7.578.01-15.149,0t-15.149,0c-1.993,0-2.682-.73-2.672-2.792C570.595,466.415,571.254,465.7,573.16,465.7Zm15.2,138.805a7.244,7.244,0,1,1,7.328-7.185A7.283,7.283,0,0,1,588.358,604.509Z" transform="translate(-543.78 -458.743)"/></g><g transform="translate(201.503 131.535)"><path d="M807.735,531.867c-2.055-17.643-9.049-32.954-21.653-45.539-12.633-12.614-28-19.549-45.659-21.588l-12.539.026.01.143c-1.685.218-3.377.409-5.058.659a72.287,72.287,0,0,0-33.76,14.328c-.919.7-1.857,1.377-2.708,2.153a1.234,1.234,0,0,1-1.942.023,73.411,73.411,0,0,0-16.227-10.4,69.682,69.682,0,0,0-17.191-5.571c-2.6-.484-5.234-.828-7.851-1.334,0,0-7.536-1.023-12.757,0-17.753,1.958-33.146,8.977-45.779,21.63-12.6,12.623-19.6,27.987-21.572,45.7a95.231,95.231,0,0,0,.013,13.107l.179-.019c.2,1.474.4,2.948.6,4.422a69.462,69.462,0,0,0,6.6,21.325c.919,1.848,1.932,3.649,2.948,5.448a1.341,1.341,0,0,1-.185,1.8,22.033,22.033,0,0,0,9.367,35.3,23.517,23.517,0,0,0,7.49,1.257c.812.01,1.1.24,1.107,1.091.1,8.549,3.87,15.033,11.175,19.409a20.646,20.646,0,0,0,10.828,2.87c1.1,0,1.442.318,1.416,1.425a21.912,21.912,0,0,0,14.11,20.513,21.357,21.357,0,0,0,7.818,1.442c1.182-.01,1.474.419,1.461,1.536a21.819,21.819,0,0,0,16.032,21.026,21.5,21.5,0,0,0,20.805-4.9c.5-.435.987-.883,1.51-1.347,3.166,4.708,7.711,6.948,12.919,8.214a25.639,25.639,0,0,0,6.513.006c1.786-.565,3.312-.932,4.747-1.526a21.265,21.265,0,0,0,12.429-14.7c.185-.828.568-.98,1.364-.757,8.117,2.266,15.2.4,21.11-5.571a19.794,19.794,0,0,0,5.672-13.675c.039-1.169.461-1.442,1.555-1.468a20.618,20.618,0,0,0,19.805-17.432,17.918,17.918,0,0,0,.328-2.838c-.013-.987.338-1.3,1.3-1.331a21.567,21.567,0,0,0,10.61-3.2,20.84,20.84,0,0,0,8.906-23.272,26.565,26.565,0,0,0-1.4-3.666,1.556,1.556,0,0,1,.338-2.006c3.338-3.63,6.792-7.172,9.9-10.994A66.4,66.4,0,0,0,803,564.724a69.068,69.068,0,0,0,4.4-19.234,1.3,1.3,0,0,1,.351-.688A119.39,119.39,0,0,0,807.735,531.867Z" transform="translate(-562.829 -464.311)"/><path class="b" d="M572.4,532.6c-5.708-4.185-6.253-11.549-1.182-16.773q8.61-8.869,17.5-17.468c5.107-4.958,12.565-4.386,16.708,1.169a11.052,11.052,0,0,1-1.357,14.464q-8.581,8.639-17.227,17.227C582.406,535.61,576.708,535.757,572.4,532.6Z" transform="translate(-551.787 -395.415)"/><path class="b" d="M593.044,539.283c-3.753,3.117-7.909,3.484-12.243,1.344a10.97,10.97,0,0,1-5.792-10.7,10.246,10.246,0,0,1,2.929-6.4c6.234-6.27,12.36-12.662,18.844-18.662,5.9-5.458,15.549-2.1,17.442,5.39.253.994.383,2.016.571,3.026a11.356,11.356,0,0,1-3.61,7.99q-6.867,6.906-13.76,13.783C595.986,536.484,594.6,537.987,593.044,539.283Z" transform="translate(-535.564 -379.259)"/><path class="b" d="M598.41,547.688a8.31,8.31,0,0,1-5.13,1.38,11.025,11.025,0,0,1-11.029-12.3,11.56,11.56,0,0,1,3.5-6.769q8.523-8.542,17.078-17.045c4.6-4.588,10.448-4.432,14.64-1.357a10.962,10.962,0,0,1,.955,16.821c-5.123,5.071-10.172,10.214-15.309,15.273A38.873,38.873,0,0,1,598.41,547.688Z" transform="translate(-519.387 -363.041)"/><path class="b" d="M617.3,543.935c-3.257,3.27-6.494,6.562-9.851,9.724a9.728,9.728,0,0,1-7.085,2.656,10.988,10.988,0,0,1-10.877-12.555,11.616,11.616,0,0,1,3.461-6.536q8.518-8.527,17.068-17.023c4.523-4.464,10.507-4.818,15.195-.984a10.693,10.693,0,0,1,1.5,15.071C623.762,537.665,620.47,540.75,617.3,543.935Z" transform="translate(-503.197 -346.882)"/><path class="b" d="M618.747,533.716a9.859,9.859,0,0,1-6.89,7.773,9.616,9.616,0,0,1-9.036-2.023c-.847-.7-1.766-1.309-2.851-2.1,1.769-1.721,3.536-3.318,5.162-5.049,2.64-2.8,5.182-5.7,7.8-8.523a1,1,0,0,1,.945-.179C617.309,526.1,619.481,529.161,618.747,533.716Z" transform="translate(-479.38 -331.205)"/><path class="a" d="M764.091,602.943a9.848,9.848,0,0,1-9.416,4.653,10.423,10.423,0,0,1-6.325-3.279q-13.125-13.135-26.263-26.266c-.789-.786-1.562-1.588-2.377-2.351a5.471,5.471,0,0,0-7.916-.065,5.4,5.4,0,0,0,.114,7.906c5.818,5.89,11.695,11.724,17.545,17.581,3.8,3.8,7.623,7.578,11.383,11.419a9.691,9.691,0,0,1-.968,14.86c-3.2,2.542-8.494,2.633-11.536-.1-3.432-3.084-6.669-6.393-9.942-9.649-6.776-6.743-13.513-13.529-20.282-20.279a5.549,5.549,0,0,0-7.932-.143,5.485,5.485,0,0,0,.075,7.922c8.542,8.581,17.14,17.107,25.656,25.714a30.827,30.827,0,0,1,5.286,6.24c2.854,5.107-.312,11.815-5.912,13.377a9.583,9.583,0,0,1-9.428-2.162c-4.256-3.714-8.481-7.461-12.753-11.153a3.444,3.444,0,0,1-1.24-2.416,21.581,21.581,0,0,0-11.081-16.88,20.956,20.956,0,0,0-10.844-2.821c-1.039.01-1.331-.279-1.357-1.344-.214-9.046-4.36-15.7-12.4-19.841a19.981,19.981,0,0,0-9.562-2.2c-1.029.016-1.36-.286-1.393-1.347-.286-9.068-4.419-15.766-12.536-19.893a20.91,20.91,0,0,0-9.458-2.175c-1.042-.006-1.367-.334-1.393-1.367-.237-8.948-4.305-15.636-12.256-19.695-8.714-4.451-18.971-2.484-25.883,4.6-2.779,2.851-5.623,5.636-8.445,8.441-.3.3-.64.536-.977.812-13.156-22.11-11.416-57.932,15.906-79.636,26.471-21.026,60.747-15.159,78.727.977-1.373,1.156-2.721,2.312-4.094,3.441q-14.2,11.684-28.416,23.354c-3.383,2.782-6.756,5.571-10.156,8.331a13.021,13.021,0,0,0-5.045,12.682,12.8,12.8,0,0,0,8.059,10.214c8.12,3.542,16.6,4.1,25.289,3.033a58.668,58.668,0,0,0,24.133-8.757,100.7,100.7,0,0,0,8.292-6.032,3.671,3.671,0,0,1,3.838-.588c3.769,1.24,7.614,2.243,11.4,3.425a6.03,6.03,0,0,1,2.425,1.351q25.412,25.422,50.757,50.912c2.7,2.711,5.412,5.406,7.961,8.253C765.977,594.943,766.169,599.229,764.091,602.943Z" transform="translate(-555.007 -456.38)"/><path class="b" d="M742.885,538.5a61.923,61.923,0,0,1-17.4,35.987c-1.247,1.286-2.5,2.575-3.711,3.89-.555.6-.964.624-1.565.016q-12.5-12.594-25.033-25.159-9.526-9.56-19.055-19.123c-.383-.383-.743-.792-1.376-1.474,1.808-.312,3.237-.558,4.665-.8a45.729,45.729,0,0,0,19.081-8,51.27,51.27,0,0,0,5.373-4.357c3.347-3.153,2.133-8.081-2.247-9.448a5.123,5.123,0,0,0-4.821,1.006c-2.065,1.552-4.042,3.234-6.192,4.663a35.763,35.763,0,0,1-12.743,5.12,44.413,44.413,0,0,1-15.208.373,57.164,57.164,0,0,1-13.351-3.506c-5.455-2.175-10.383-1.442-14.906,2.39a53.635,53.635,0,0,1-20.312,10.981,40.783,40.783,0,0,1-20.425.805,42.793,42.793,0,0,1-5.224-1.614c-2.2-.815-2.5-2.724-.685-4.221q10.222-8.435,20.48-16.828,13.559-11.148,27.11-22.309c3.529-2.9,6.883-6.065,10.649-8.627a59.9,59.9,0,0,1,32.883-10.37A62.73,62.73,0,0,1,740.2,510.922,61.985,61.985,0,0,1,742.885,538.5Z" transform="translate(-509.492 -456.307)"/><path class="a" d="M628.525,472.725l-29.637,24.293-7.594-5.282,30.195-25.325Z" transform="translate(-498.875 -459.592)"/></g></svg>