<svg xmlns="http://www.w3.org/2000/svg" width="375" height="375" viewBox="0 0 375 375"><defs><style>.a{fill:#a3d147;}.b{fill:#fff;}.c{fill:#23aaf7;}</style></defs><circle class="a" cx="177.76" cy="177.76" r="177.76" transform="translate(8.767 10.714)"/><path d="M422.166,236.143c-103.552,0-187.5,83.944-187.5,187.5s83.948,187.5,187.5,187.5,187.5-83.948,187.5-187.5S525.721,236.143,422.166,236.143Zm0,358.441A170.942,170.942,0,1,1,593.108,423.643,170.942,170.942,0,0,1,422.166,594.584Z" transform="translate(-234.666 -236.143)"/><path class="b" d="M272.166,351.991q0-43.807,0-87.614c0-3.279.007-3.283,3.338-3.283q60.5,0,121-.052c2.451,0,3.292.477,3.286,3.2q-.127,87.871,0,175.743c0,2.7-.812,3.2-3.279,3.2q-60.5-.112-121-.055c-3.344,0-3.347,0-3.347-3.526Z" transform="translate(-150.413 -180.199)"/><path class="b" d="M313.576,265.547q-12.906,0-25.809,0c-3.393,0-4.568-1.247-4.549-4.76.02-3.429,1.146-4.639,4.393-4.639q25.928-.01,51.86,0c3.266,0,4.4,1.2,4.429,4.607.029,3.516-1.156,4.789-4.516,4.792Q326.478,265.558,313.576,265.547Z" transform="translate(-125.582 -191.216)"/><path class="b" d="M301.121,346.052A12.341,12.341,0,1,1,313.6,333.816,12.412,12.412,0,0,1,301.121,346.052Z" transform="translate(-113.202 -44.66)"/><path d="M421.115,386.3q0-35.908,0-71.812L406.531,326.44q-.054,64.451.026,128.9c0,2.565-.783,3.046-3.156,3.039q-58.188-.1-116.377-.049c-3.217,0-3.221,0-3.221-3.348V371.775q0-41.605,0-83.208c0-3.114,0-3.117,3.211-3.12q58.188,0,116.38-.049c2.354,0,3.166.455,3.159,3.039-.013,8.737-.01,15.523-.02,24.26l14.575-10.273v-28.76c-.007-13.007-8.14-21.153-21.1-21.169q-13.144-.015-26.289,0-41.873.005-83.74,0a20.584,20.584,0,0,0-13.195,4.153c-5.552,4.347-7.633,10.189-7.63,17.078q.049,112.632.02,225.263c0,.487,0,.974.01,1.461.331,11.393,8.481,19.646,19.873,19.672q56.114.126,112.224.013A19.313,19.313,0,0,0,413.5,516c5.461-4.285,7.633-10.023,7.63-16.831Q421.078,442.735,421.115,386.3ZM319.209,264.346q25.928-.009,51.857,0c3.27,0,4.4,1.2,4.432,4.607.03,3.516-1.155,4.789-4.516,4.792q-12.906.015-25.808,0t-25.808,0c-3.393,0-4.568-1.247-4.549-4.76C314.839,265.557,315.962,264.346,319.209,264.346ZM345.1,500.81a12.341,12.341,0,1,1,12.484-12.237A12.412,12.412,0,0,1,345.1,500.81Z" transform="translate(-157.18 -199.418)"/><g transform="translate(138.333 89.609)"><path class="c" d="M280.492,327.282A70.911,70.911,0,0,1,312,338.334c6.532,4.276,12.507,9.425,18.6,14.344,1.549,1.25,2.276,1.35,3.471-.331a232.607,232.607,0,0,1,37.763-41.272,321.279,321.279,0,0,1,36.175-26.913c10.425-6.7,21.152-12.939,31.77-19.344,2.669-1.61,3.993-1.4,5.367.558,1.156,1.649.688,3.351-1.422,5.107a530.289,530.289,0,0,0-48.143,45.143,329.214,329.214,0,0,0-47.74,64.7c-4.013,7.208-7.39,14.769-11.221,22.081-.588,1.12-2.137,2.516-3.14,2.445a5.008,5.008,0,0,1-3.367-2.565c-7.643-15.649-16.318-30.7-27.614-43.971-6.841-8.036-14.7-15.2-22.11-22.75-.692-.708-1.7-1.224-2.12-2.052-.571-1.136-1.279-2.711-.89-3.685C277.813,328.74,279.407,328.114,280.492,327.282Z" transform="translate(-277.273 -263.743)"/></g></svg>