<svg xmlns="http://www.w3.org/2000/svg" width="42.169" height="50" viewBox="0 0 42.169 50">
  <path id="apple-logo" d="M35.283,48.987c-2.712,2.632-5.7,2.222-8.557.981a10.841,10.841,0,0,0-9.007,0c-3.988,1.721-6.1,1.221-8.506-.981C-4.348,35.026-2.346,13.76,13.066,12.959c3.738.2,6.355,2.067,8.557,2.222,3.272-.666,6.4-2.572,9.908-2.322q6.312.51,9.457,4.989a11,11,0,0,0,1.346,19.815c-1.591,4.178-3.633,8.306-7.055,11.359ZM21.322,12.809A11.392,11.392,0,0,1,31.73,1C32.525,8.155,25.225,13.51,21.322,12.809Z" transform="translate(-0.164 -1)"/>
</svg>
