<svg xmlns="http://www.w3.org/2000/svg" width="136.703" height="45" viewBox="0 0 136.703 45">
  <g id="Google_2015_logo" transform="translate(-0.36 -0.47)">
    <path id="Path_918" data-name="Path 918" d="M93.811,36.245A11.28,11.28,0,1,1,82.53,25,11.106,11.106,0,0,1,93.811,36.245Zm-4.938,0a6.359,6.359,0,1,0-12.685,0,6.359,6.359,0,1,0,12.685,0Z" transform="translate(-34.95 -12.094)"/>
    <path id="Path_919" data-name="Path 919" d="M141.811,36.245A11.28,11.28,0,1,1,130.53,25,11.106,11.106,0,0,1,141.811,36.245Zm-4.938,0a6.359,6.359,0,1,0-12.685,0,6.359,6.359,0,1,0,12.685,0Z" transform="translate(-58.615 -12.094)"/>
    <path id="Path_920" data-name="Path 920" d="M188.787,25.679V45.868c0,8.3-4.9,11.7-10.687,11.7a10.709,10.709,0,0,1-9.967-6.626l4.3-1.79a6.211,6.211,0,0,0,5.663,3.99c3.706,0,6-2.287,6-6.591V44.93h-.172A7.656,7.656,0,0,1,178,47.485a11.132,11.132,0,0,1-10.773-11.2C167.23,29.938,172.381,25,178,25a7.792,7.792,0,0,1,5.922,2.515h.172v-1.83h4.69Zm-4.34,10.606c0-3.96-2.641-6.854-6-6.854-3.407,0-6.261,2.895-6.261,6.854a6.454,6.454,0,0,0,6.261,6.773C181.806,43.059,184.447,40.2,184.447,36.285Z" transform="translate(-82.269 -12.094)"/>
    <path id="Path_921" data-name="Path 921" d="M220.316,3V35.954H215.5V3Z" transform="translate(-106.067 -1.247)"/>
    <path id="Path_922" data-name="Path 922" d="M245.785,39.941l3.833,2.555a11.193,11.193,0,0,1-9.369,4.984A11,11,0,0,1,229.09,36.235c0-6.687,4.811-11.245,10.606-11.245,5.835,0,8.69,4.644,9.623,7.154l.512,1.278L234.8,39.647a5.723,5.723,0,0,0,5.45,3.407,6.418,6.418,0,0,0,5.536-3.113Zm-11.8-4.046,10.048-4.172a4.354,4.354,0,0,0-4.172-2.383A6.168,6.168,0,0,0,233.987,35.9Z" transform="translate(-112.767 -12.089)"/>
    <path id="Path_923" data-name="Path 923" d="M18.069,21.226V16.455H34.145a15.807,15.807,0,0,1,.238,2.88c0,3.579-.978,8.005-4.132,11.159a15.966,15.966,0,0,1-12.178,4.9A17.706,17.706,0,0,1,.36,17.931,17.706,17.706,0,0,1,18.074.47,16.638,16.638,0,0,1,30.039,5.281L26.673,8.648a12.161,12.161,0,0,0-8.6-3.407A12.525,12.525,0,0,0,5.546,17.931,12.525,12.525,0,0,0,18.069,30.62a11.681,11.681,0,0,0,8.816-3.493,9.888,9.888,0,0,0,2.586-5.906Z" transform="translate(0 0)"/>
  </g>
</svg>
