<svg xmlns="http://www.w3.org/2000/svg" width="57.035" height="58" viewBox="0 0 57.035 58">
  <g id="Group_2849" data-name="Group 2849" transform="translate(20927 -6982)">
    <g id="layer1" transform="translate(-20927 6982)">
      <g id="g11533" transform="translate(0 0)">
        <path id="path4250" d="M38.42,152.133v5.42c0,1.54-.764,2.361-2.152,2.361s-2.165-.845-2.165-2.427v-5.349H32.183v5.414c0,2.664,1.48,4.191,4.06,4.191,2.6,0,4.1-1.556,4.1-4.269v-5.342Zm7.066,0L41.315,161.6h1.96l.805-1.833.058-.137h4.333l.85,1.97h2.014L47.2,152.189l-.037-.056Zm11.42,0-2.15,6.512-2.092-6.507H50.62l3.3,9.465h1.59l2.154-6.217,2.152,6.217h1.6l3.291-9.465H62.72l-2.1,6.507-2.15-6.512Zm18.8,0v9.455h1.9v-9.455Zm-54.362,0V161.6H23.26v-3.845H27.6V161.6H29.52v-9.468H27.6v3.82H23.26v-3.82Zm44.921.006V161.6h7.15v-1.724H68.156v-2.344H71.65V155.8H68.156v-1.938h5.072V152.14ZM46.3,154.53l1.37,3.17h0l.093.219H44.852l.092-.219h0Z" transform="translate(-20.909 -103.745)"/>
        <path id="path4252" d="M45.424,121.909c-.762.067-2.821.536-2.821.536h0a8.044,8.044,0,0,0-6.1,7.53v.931a11.446,11.446,0,0,0,.381,2.512c1.55,6.875,9.173,18.171,10.812,20.544.116.115.209.074.209.074a.213.213,0,0,0,.163-.218h0C50.6,128.6,45.424,121.91,45.424,121.91Zm8.338,0s-5.194,6.689-2.669,31.926h0a.216.216,0,0,0,.133.194.207.207,0,0,0,.256-.1v0c1.68-2.434,9.26-13.668,10.8-20.516,0,0,.837-3.315.029-5.561a8.134,8.134,0,0,0-5.795-5.407s-1.339-.34-2.762-.54ZM29.8,129.481s-4.422,4.2-4.642,8.647h0v.674c0,.051.006.1.009.154a8.386,8.386,0,0,0,2.89,5.712c4.349,4.239,14.881,9.591,17.328,10.805a.206.206,0,0,0,.235-.04.185.185,0,0,0,.056-.082v-.112a.144.144,0,0,0-.008-.02h0A130.326,130.326,0,0,0,29.8,129.481Zm39.569,0a130.271,130.271,0,0,0-15.839,25.675h0a.245.245,0,0,0,.049.279.261.261,0,0,0,.091.041h.093a.177.177,0,0,0,.052-.023v0c2.514-1.248,12.963-6.564,17.292-10.784A8.44,8.44,0,0,0,74,138.934c.317-4.909-4.625-9.452-4.625-9.452ZM77.6,144.016s-14.9,8-22.607,13.194h0l0,0a.232.232,0,0,0-.091.256s.073.132.18.132h0c2.76,0,13.2.016,13.465-.032a10.5,10.5,0,0,0,3.019-.7,10.28,10.28,0,0,0,5.644-5.4,10.473,10.473,0,0,0,.894-4.241v-.105a10.066,10.066,0,0,0-.506-3.114Zm-56.027.037a10.378,10.378,0,0,0,6.006,12.822,10.716,10.716,0,0,0,3.353.736c.262.048,10.427,0,13.151-.008a.23.23,0,0,0,.179-.117.149.149,0,0,0,.018-.037v-.1a.293.293,0,0,0-.083-.12h0c-7.7-5.2-22.625-13.17-22.625-13.17Zm22.2,14.841-17.53.615c1.9,3.389,5.1,6.023,8.438,5.214,2.3-.575,7.516-4.212,9.237-5.441l-.006,0c.134-.12.086-.217.086-.217a.237.237,0,0,0-.225-.157Zm11.611.013,0,.006a.257.257,0,0,0-.2.135.247.247,0,0,0,.066.236l0,0c1.678,1.2,6.766,4.761,9.217,5.451a3.807,3.807,0,0,0,.994.149h.374c1.642-.058,4.5-.9,7.1-5.368Z" transform="translate(-21.071 -121.909)"/>
      </g>
    </g>
  </g>
</svg>
