<svg xmlns="http://www.w3.org/2000/svg" width="102.616" height="45" viewBox="0 0 102.616 45">
  <g id="Group_2850" data-name="Group 2850" transform="translate(20454.133 -6932)">
    <g id="Group_2847" data-name="Group 2847" transform="translate(-20454.133 6932)">
      <g id="LG_logo__2015_" data-name="LG_logo_(2015)" transform="translate(0 0)">
        <path id="Path_924" data-name="Path 924" d="M22.518,45A22.5,22.5,0,1,0,0,22.505,22.507,22.507,0,0,0,22.518,45" transform="translate(0)"/>
        <g id="Group_2846" data-name="Group 2846" transform="translate(3.671 3.647)">
          <path id="Path_925" data-name="Path 925" d="M37.1,21.676V41.419h6.276V39.644H38.9V21.676Z" transform="translate(-19.154 -12.694)" fill="#fff"/>
          <g id="Group_2845" data-name="Group 2845">
            <path id="Path_926" data-name="Path 926" d="M24.376,27.054a2.7,2.7,0,1,0-2.7-2.7,2.7,2.7,0,0,0,2.7,2.7" transform="translate(-12.72 -12.685)" fill="#fff"/>
            <path id="Path_927" data-name="Path 927" d="M26.05,6.285c-.235-.012-.683-.026-.9-.026A18.845,18.845,0,1,0,44,25.108V24.27H30.536V26H42.2c0,.038,0,.222-.008.27A17.082,17.082,0,0,1,13.07,37.182,17.077,17.077,0,0,1,25.154,8.028c.2,0,.676,0,.9.012Z" transform="translate(-6.301 -6.259)" fill="#fff"/>
          </g>
        </g>
        <path id="Path_928" data-name="Path 928" d="M101.519,12.694H94.753V41.986h20.783v-5.7H101.519Zm28.9,18.13h5.511v5.122a15.6,15.6,0,0,1-4.883.773c-6.09,0-8.119-3.093-8.119-9.375,0-5.991,1.932-9.523,8.022-9.523,3.384,0,5.317,1.064,6.91,3.094l4.207-3.868c-2.562-3.67-7.058-4.782-11.262-4.782-9.476,0-14.453,5.171-14.453,15.03,0,9.811,4.495,15.127,14.405,15.127,4.543,0,8.99-1.159,11.405-2.851V25.36H130.421Z" transform="translate(-39.549 -5.118)"/>
      </g>
    </g>
  </g>
</svg>
