<svg xmlns="http://www.w3.org/2000/svg" width="50" height="50" viewBox="0 0 50 50">
  <g id="Group_2851" data-name="Group 2851" transform="translate(20694 -6982)">
    <g id="Group_2843" data-name="Group 2843" transform="translate(-20694 6982)">
      <path id="path20" d="M25,236.387a25,25,0,1,0,25,25,24.98,24.98,0,0,0-25-25" transform="translate(0 -236.387)"/>
      <path id="path22" d="M34.136,243.839l-7.414,24.59-.037.037-.074-.037L19.2,243.839,9.62,275.322h1.788a35.562,35.562,0,0,1,3.167-8.756c1.08-1.788,2.72-3.241,4.918-3.2,1.565.037,2.906.894,4.583,3.241a25.283,25.283,0,0,1,1.267,2.2c.708,1.379,1.3,2.794,1.3,2.794a40.5,40.5,0,0,1,2.571-4.993c1.677-2.347,3.018-3.2,4.583-3.241a5.722,5.722,0,0,1,4.918,3.2,35.562,35.562,0,0,1,3.167,8.756h1.788Z" transform="translate(-1.684 -237.692)" fill="#fff"/>
    </g>
  </g>
</svg>
