<svg xmlns="http://www.w3.org/2000/svg" width="130.978" height="22.076" viewBox="0 0 130.978 22.076">
  <path id="Nokia_wordmark" d="M6.307,21.8H0V.357H10.907L23.421,16.369V.357h6.307V21.8H19.041L6.307,5.519V21.8M59.9,15.172c0,2.981-.527,4.01-1.4,5-1.338,1.467-3.284,1.909-7.035,1.909H40.7c-3.751,0-5.7-.442-7.037-1.909-.873-.986-1.4-2.014-1.4-5V6.9c0-2.98.527-4.006,1.4-4.994C35,.442,36.947,0,40.7,0H51.466c3.751,0,5.7.442,7.035,1.911.873.987,1.4,2.014,1.4,4.994v8.268m-8.7,1.47c1.441,0,1.948-.085,2.294-.4.323-.293.465-.671.465-1.932V7.765c0-1.261-.142-1.636-.465-1.93-.345-.316-.853-.4-2.294-.4H40.962c-1.441,0-1.948.083-2.292.4-.324.295-.467.67-.467,1.93v6.546c0,1.261.142,1.639.467,1.932.344.314.851.4,2.292.4H51.2M69.066.357V21.8h-6.59V.357h6.59M80.2.357h8.7L77.158,10.388,90.4,21.8H81.092L69.066,10.619,80.2.357m11.416,0h6.591V21.8H91.616m31.718,0-1.95-3.736H108.632L106.7,21.8H99.424L111.106.357H119.3L130.978,21.8h-7.644m-12.412-8.394h8.194l-4.1-7.765-4.1,7.765"/>
</svg>
