<svg xmlns="http://www.w3.org/2000/svg" width="138.816" height="31.258" viewBox="0 0 138.816 31.258">
  <g id="Group_2852" data-name="Group 2852" transform="translate(20565.101 -6760)">
    <path id="Path_938" data-name="Path 938" d="M25.68,32.494V29.778H28.4V21.63H25.68V18.863h5.432V29.727h2.767v2.716h-8.2Zm17.679,6.764V21.579H40.643V36.542H18.916V14.815H33.879V12.1H16.2V39.258Zm0-20.394v-4.1h4.1V12.1h-4.1V8H40.643v4.1h-4.1v2.716h4.1v4.1h2.716Z" transform="translate(-20581.301 6752)"/>
    <path id="Path_939" data-name="Path 939" d="M107.018,27.53a6.986,6.986,0,0,1,0,4.1,4.468,4.468,0,0,1-.871,1.537,3.956,3.956,0,0,1-1.384.974,5.139,5.139,0,0,1-1.845.359,4.392,4.392,0,0,1-1.845-.359,3.393,3.393,0,0,1-1.384-.974,4.468,4.468,0,0,1-.871-1.537,6.986,6.986,0,0,1,0-4.1,4.468,4.468,0,0,1,.871-1.537,3.393,3.393,0,0,1,1.384-.974,5.371,5.371,0,0,1,1.845-.359,4.392,4.392,0,0,1,1.845.359,3.393,3.393,0,0,1,1.384.974,4.468,4.468,0,0,1,.871,1.537m35-3.433h-2.255v5.739h2.255a4.04,4.04,0,0,0,1.435-.2,2.876,2.876,0,0,0,1.025-.615,2.252,2.252,0,0,0,.615-.922,3.006,3.006,0,0,0,.2-1.179,2.7,2.7,0,0,0-.82-2.1,3.613,3.613,0,0,0-2.46-.717m47.86,19.062H87.7V16H189.877V43.158ZM109.99,29.579a7.258,7.258,0,0,0-.512-2.818,6.794,6.794,0,0,0-1.435-2.255,6.684,6.684,0,0,0-2.2-1.486,7.539,7.539,0,0,0-2.87-.564,8.647,8.647,0,0,0-2.87.512,7.5,7.5,0,0,0-2.255,1.486,6.794,6.794,0,0,0-1.435,2.255,8.007,8.007,0,0,0,0,5.637A6.794,6.794,0,0,0,97.846,34.6a6.912,6.912,0,0,0,2.255,1.486,8.291,8.291,0,0,0,5.739,0,6.684,6.684,0,0,0,2.2-1.486,6.794,6.794,0,0,0,1.435-2.255,7.825,7.825,0,0,0,.512-2.767m13.733-6.969h-2.255v9.07c0,.2.051.41.051.666l-7.276-9.275c-.051-.1-.154-.154-.2-.2s-.1-.1-.154-.1c-.051-.051-.1-.051-.2-.051h-1.64V36.6h2.255V27.427c0-.2-.051-.41-.051-.615l7.276,9.275a.911.911,0,0,0,.41.359,1.516,1.516,0,0,0,.512.1h1.332V22.61Zm11.581,0h-8.762V36.5H135.3v-2.05h-6.149V30.5h4.868v-2h-4.868V24.711H135.3Zm11.939,4.3a5.069,5.069,0,0,0-.307-1.793,3.6,3.6,0,0,0-.974-1.384,4.521,4.521,0,0,0-1.64-.871,7.852,7.852,0,0,0-2.306-.307h-4.1V36.5h1.9V31.321h2.255a7.151,7.151,0,0,0,2.2-.307,4.275,4.275,0,0,0,1.64-.922,3.6,3.6,0,0,0,.974-1.384,5.082,5.082,0,0,0,.359-1.793m10.3,8.045H151.5V22.61h-1.9V36.548h7.943ZM170.559,22.61h-1.9v8.455a5.159,5.159,0,0,1-.256,1.589,3.936,3.936,0,0,1-.717,1.281,3.543,3.543,0,0,1-1.127.82,4,4,0,0,1-3.075,0,3.25,3.25,0,0,1-1.179-.82,3.7,3.7,0,0,1-.717-1.23,5.16,5.16,0,0,1-.256-1.589V22.61h-1.9v8.455a6.5,6.5,0,0,0,.359,2.255,5.063,5.063,0,0,0,1.127,1.793,4.57,4.57,0,0,0,1.742,1.179,5.452,5.452,0,0,0,2.306.41,6.384,6.384,0,0,0,2.306-.41A4.853,4.853,0,0,0,170.1,33.32a6.312,6.312,0,0,0,.359-2.255V22.61ZM181.73,32.3a2.976,2.976,0,0,0-.307-1.435,3.434,3.434,0,0,0-1.845-1.691,6.008,6.008,0,0,0-1.23-.461c-.41-.154-.82-.256-1.23-.41a11.285,11.285,0,0,1-1.076-.461,3.274,3.274,0,0,1-.769-.666,1.477,1.477,0,0,1-.307-.974,2.6,2.6,0,0,1,.154-.871,1.312,1.312,0,0,1,.512-.666,2.137,2.137,0,0,1,.82-.461,3.749,3.749,0,0,1,1.127-.154,3.522,3.522,0,0,1,1.127.154c.307.1.564.256.82.359.2.154.41.256.564.359a.681.681,0,0,0,.359.154.384.384,0,0,0,.256-.051c.051-.051.154-.1.2-.2l.461-.871a4.783,4.783,0,0,0-1.691-1.076,5.578,5.578,0,0,0-2.152-.359,4.965,4.965,0,0,0-1.845.307,4.008,4.008,0,0,0-1.332.871,3.244,3.244,0,0,0-.82,1.23,3.741,3.741,0,0,0,0,2.972,3.168,3.168,0,0,0,.769,1.025,3.809,3.809,0,0,0,1.076.666l1.23.461c.41.154.82.256,1.23.41a3.416,3.416,0,0,1,1.076.461,3.275,3.275,0,0,1,.769.666,1.626,1.626,0,0,1,.307,1.025,2.294,2.294,0,0,1-.2,1.025,2.928,2.928,0,0,1-.564.82,3,3,0,0,1-.871.512,4.365,4.365,0,0,1-1.179.2,3.75,3.75,0,0,1-1.384-.2c-.359-.154-.666-.307-.974-.461-.256-.154-.461-.359-.666-.461a.626.626,0,0,0-.461-.2.462.462,0,0,0-.256.051c-.051.051-.154.1-.2.154l-.564.871a5.527,5.527,0,0,0,1.9,1.332,6.389,6.389,0,0,0,2.46.512,5.133,5.133,0,0,0,2-.359,4.854,4.854,0,0,0,1.486-.922,4.1,4.1,0,0,0,.922-1.384,5.5,5.5,0,0,0,.307-1.793" transform="translate(-20616.162 6748.1)"/>
  </g>
</svg>
