<svg xmlns="http://www.w3.org/2000/svg" width="129.676" height="30.828" viewBox="0 0 129.676 30.828">
  <path id="path1460" d="M32.971,15.954V1.08H37.61v.983c0,.541.008.983.018.983s.3-.178.651-.4c4.1-2.57,10.066-3.343,15.415-2,4.819,1.21,8.312,4.083,9.554,7.857a10.38,10.38,0,0,1-.111,6.791,11.548,11.548,0,0,1-5.966,6.248,19.5,19.5,0,0,1-8.8,1.919,20.377,20.377,0,0,1-7.513-1.343,17.591,17.591,0,0,1-2.719-1.381l-.533-.347V30.828H32.971Zm17.647,3.557A11.6,11.6,0,0,0,56.77,17a7,7,0,0,0,2.252-3.9,9.907,9.907,0,0,0,0-2.7,7.151,7.151,0,0,0-2.91-4.436,12.675,12.675,0,0,0-2.67-1.337A16.731,16.731,0,0,0,45.935,4c-4.356.639-7.3,2.8-8.09,5.936a7.353,7.353,0,0,0,.174,4.184c1.046,2.966,4.131,4.94,8.49,5.432a26,26,0,0,0,4.109-.044ZM66,15.954V1.08h4.639v.983c0,.541.01.983.022.983s.268-.16.567-.355a18.27,18.27,0,0,1,2.94-1.452A21.858,21.858,0,0,1,86.628.631c6.6,1.657,10.485,6.2,10.118,11.818-.28,4.292-3.136,7.817-7.833,9.67a20.1,20.1,0,0,1-5.068,1.23,31.249,31.249,0,0,1-4.916,0,18.211,18.211,0,0,1-7.853-2.656l-.441-.29V30.828H66V15.954Zm17.76,3.535c3.614-.54,6.16-2,7.5-4.287a7.2,7.2,0,0,0,.78-4.745c-.6-3.417-3.6-5.781-8.2-6.455a16.032,16.032,0,0,0-8.789,1.138,7.352,7.352,0,0,0-4.3,5.217,9.964,9.964,0,0,0,0,2.767,6.906,6.906,0,0,0,2.314,3.929,11.9,11.9,0,0,0,6.519,2.507,24.2,24.2,0,0,0,4.171-.071ZM13.811,23.435A20.749,20.749,0,0,1,7.464,21.97C3.4,20.235.836,17.307.14,13.611a14.153,14.153,0,0,1-.1-3.056c.5-4.431,3.767-7.941,8.928-9.6A22.047,22.047,0,0,1,18.132.173C23.691.887,27.9,3.465,29.745,7.292A10.312,10.312,0,0,1,29.25,17.1a12.346,12.346,0,0,1-3.539,3.569,18.1,18.1,0,0,1-7.84,2.673C17.245,23.423,14.391,23.486,13.811,23.435ZM17.1,19.56a12.61,12.61,0,0,0,5.987-2.032,7.3,7.3,0,0,0,2.687-3.543,5.753,5.753,0,0,0,.312-2.242,5.776,5.776,0,0,0-.309-2.236c-.849-2.6-3.331-4.534-6.8-5.3a16.71,16.71,0,0,0-9.215.6,8.45,8.45,0,0,0-4.269,3.47,7.225,7.225,0,0,0-.55,5.649A7.771,7.771,0,0,0,9.6,18.594,15.4,15.4,0,0,0,13.987,19.6,27.959,27.959,0,0,0,17.1,19.56Zm95.686,3.877c-.1-.011-.437-.045-.756-.075a18.988,18.988,0,0,1-7.226-2.171,11.313,11.313,0,0,1-5.375-6.22,10.438,10.438,0,0,1-.275-5.463,10.808,10.808,0,0,1,4.8-6.7A19.991,19.991,0,0,1,117.073.176,16.068,16.068,0,0,1,126.6,4.407a10.162,10.162,0,0,1,3.022,6.151,13.269,13.269,0,0,1-.024,2.532c-.626,4.739-4.382,8.361-10.135,9.772a18.432,18.432,0,0,1-4.891.578c-.887.009-1.693.008-1.79,0Zm3.05-3.853a11.474,11.474,0,0,0,7.162-2.9,6.688,6.688,0,0,0,1.963-3.728,9.794,9.794,0,0,0,0-2.455c-.558-3.326-3.491-5.737-7.836-6.442a15.557,15.557,0,0,0-2.824-.225c-4.872,0-8.652,1.837-10.106,4.911a6.744,6.744,0,0,0-.633,2.995,6.564,6.564,0,0,0,1.135,3.862c1.444,2.169,4.182,3.555,7.807,3.95a24.563,24.563,0,0,0,3.335.027Z"/>
</svg>
