<svg xmlns="http://www.w3.org/2000/svg" width="163.058" height="25" viewBox="0 0 163.058 25">
  <g id="Samsung_wordmark" transform="translate(-2.013 -1.852)">
    <path id="S" d="M12.837,19.485a3.051,3.051,0,0,1,.044,1.724,2.017,2.017,0,0,1-2.271,1.57,2.085,2.085,0,0,1-2.342-2.112v-2.26H2.013V20.2c0,5.2,4.087,6.769,8.47,6.769,4.213,0,7.682-1.434,8.235-5.324a11.387,11.387,0,0,0-.022-3.819C17.712,12.946,8.87,11.49,8.207,8.76a2.988,2.988,0,0,1-.022-1.226,1.921,1.921,0,0,1,2.129-1.565,1.982,1.982,0,0,1,2.161,2.112V9.526h5.816V7.885c0-5.078-4.558-5.871-7.852-5.871-4.148,0-7.535,1.373-8.153,5.176a8.129,8.129,0,0,0,.055,3.141c1.012,4.76,9.291,6.139,10.495,9.154" transform="translate(0 -0.117)"/>
    <path id="Path_931" data-name="Path 931" d="M82.241,4.737l-4.323,23.3h6.3l3.19-21.148h.131l3.1,21.148h6.265l-4.3-23.31Zm35.211,0-2.873,17.816h-.137L111.575,4.737h-9.5l-.514,23.3h5.833l.142-20.951h.131l3.89,20.951h5.915l3.9-20.946h.126l.148,20.946h5.827l-.514-23.31Z" transform="translate(-55.277 -2.097)"/>
    <path id="Path_932" data-name="Path 932" d="M12.837,19.485a3.051,3.051,0,0,1,.044,1.724,2.017,2.017,0,0,1-2.271,1.57,2.085,2.085,0,0,1-2.342-2.112v-2.26H2.013V20.2c0,5.2,4.087,6.769,8.47,6.769,4.213,0,7.682-1.434,8.235-5.324a11.387,11.387,0,0,0-.022-3.819C17.712,12.946,8.87,11.49,8.207,8.76a2.988,2.988,0,0,1-.022-1.226,1.921,1.921,0,0,1,2.129-1.565,1.982,1.982,0,0,1,2.161,2.112V9.526h5.816V7.885c0-5.078-4.558-5.871-7.852-5.871-4.148,0-7.535,1.373-8.153,5.176a8.129,8.129,0,0,0,.055,3.141c1.012,4.76,9.291,6.139,10.495,9.154" transform="translate(75.767 -0.161)"/>
    <path id="Path_933" data-name="Path 933" d="M370.662,22.864a2.1,2.1,0,0,0,2.232-1.685,5.106,5.106,0,0,0,.055-.892V3.051h5.9V19.756q0,.767-.055,1.532c-.41,4.35-3.847,5.762-8.131,5.762s-7.726-1.412-8.136-5.762c-.016-.23-.06-1.105-.055-1.532V3.045h5.9V20.281a4.649,4.649,0,0,0,.055.9,2.093,2.093,0,0,0,2.238,1.685m28.5-19.813.317,18.292h-.126L393.988,3.051h-8.645V26.109h5.729l-.317-18.927h.126l5.751,18.927h8.3V3.051Zm20.109,19.572a2.175,2.175,0,0,0,2.38-1.7,5.015,5.015,0,0,0,.055-.875V16.659h-2.391V13.267h8.257v6.249a14.437,14.437,0,0,1-.082,1.532c-.383,4.246-4.066,5.762-8.2,5.762s-7.808-1.516-8.2-5.762c-.066-.777-.082-1.094-.082-1.532V9.71c0-.416.055-1.149.1-1.532.52-4.361,4.049-5.762,8.18-5.762s7.753,1.39,8.18,5.756a13.582,13.582,0,0,1,.055,1.532v.782h-5.877V9.179a5.523,5.523,0,0,0-.071-.886,2.129,2.129,0,0,0-2.331-1.7,2.153,2.153,0,0,0-2.32,1.7,5.267,5.267,0,0,0-.1,1.1V20.046a5.75,5.75,0,0,0,.055.886,2.188,2.188,0,0,0,2.386,1.691" transform="translate(-262.497 -0.411)"/>
  </g>
</svg>
