<svg xmlns="http://www.w3.org/2000/svg" width="141.997" height="25" viewBox="0 0 141.997 25">
  <path id="path4258" d="M51.587,26c-5.144,0-9.919-1.543-13.106-4.4a10.751,10.751,0,0,1-3.565-8.119,10.912,10.912,0,0,1,3.565-8.091C41.441,2.689,46.667,1,51.587,1c5.445,0,9.8,1.371,13.134,4.394a10.8,10.8,0,0,1,3.516,8.084A11.257,11.257,0,0,1,64.722,21.6c-3.1,2.879-7.977,4.4-13.134,4.4V22.7A9.883,9.883,0,0,0,58.619,20a8.743,8.743,0,0,0,2.575-6.522,9.076,9.076,0,0,0-2.575-6.535,10.561,10.561,0,0,0-14.074,0,9.118,9.118,0,0,0-2.568,6.535A9.137,9.137,0,0,0,44.545,20a10,10,0,0,0,7.043,2.7V26ZM13.991,1.012a21.571,21.571,0,0,0-8.533,1.7C3.006,3.807,1,5.576,1,8.508a6.017,6.017,0,0,0,1.632,4.145A9.1,9.1,0,0,0,7.5,15.087c1.343.294,4.214.745,7.074,1.044,2.838.3,5.631.584,6.769.872.9.23,2.422.543,2.422,2.247a2.545,2.545,0,0,1-1.878,2.327,14.111,14.111,0,0,1-5.646.99A23.947,23.947,0,0,1,9.517,21.4a8.112,8.112,0,0,1-3.895-2.6,4.473,4.473,0,0,1-.807-2.468H1.693V25.08h3.47V23.9a.5.5,0,0,1,.751-.425,27.38,27.38,0,0,0,5.077,1.641,21.691,21.691,0,0,0,5.268.655,22.6,22.6,0,0,0,7.062-1A12.352,12.352,0,0,0,27.514,22.7a5.745,5.745,0,0,0,2.247-4.6,6.442,6.442,0,0,0-1.815-4.528A7.927,7.927,0,0,0,25.7,12.043a16.518,16.518,0,0,0-2.762-.965c-1.789-.439-5.833-.981-7.767-1.183a53.745,53.745,0,0,1-6.952-.938A1.675,1.675,0,0,1,6.922,7.4,2.139,2.139,0,0,1,8.1,5.586,13.61,13.61,0,0,1,14.49,4.32a18.5,18.5,0,0,1,7.4,1.445,8.13,8.13,0,0,1,1.761,1.049,5.3,5.3,0,0,1,1.735,2.9h2.8V2.1h-3.13v.885c0,.286-.3.657-.853.35A23.772,23.772,0,0,0,13.991,1.012M82.576,2.4,97.842,16.173,97.686,6.9c-.015-1.216-.24-1.724-1.555-1.724H93.26V2.4h13.053V5.173h-2.8c-1.342,0-1.427.429-1.443,1.724l.237,17.725h-4.47L80.253,8.928l0,11.138c.015,1.211.072,1.781,1.32,1.781h3.135v2.774H71.891V21.847h3c1.119,0,1.075-1.067,1.075-1.844V7c0-.839-.118-1.828-1.875-1.828H71.656V2.4ZM121.23,21.842a6.02,6.02,0,0,0,.773-.048.957.957,0,0,0,.6-.533,3.1,3.1,0,0,0,.06-.6l0-4.385c0-.106-.008-.151-.187-.386-.2-.257-8-9.1-8.354-9.485a3.271,3.271,0,0,0-2.4-1.23h-2.712V2.4h15.308V5.17H122.47c-.427,0-.711.4-.346.855,0,0,5.15,6.161,5.2,6.225s.089.081.155.021,5.28-6.19,5.321-6.239a.534.534,0,0,0-.455-.86h-1.893V2.4H143V5.173h-2.8A2.387,2.387,0,0,0,138,6.226c-.35.4-8.233,9.394-8.447,9.638a.591.591,0,0,0-.1.411v4.385a3.087,3.087,0,0,0,.06.6.955.955,0,0,0,.6.533,5.852,5.852,0,0,0,.765.048h2.867v2.775H118.513V21.84l2.717,0Z" transform="translate(-1 -1)"/>
</svg>
