<svg xmlns="http://www.w3.org/2000/svg" width="49.997" height="50" viewBox="0 0 49.997 50">
  <g id="Group_2853" data-name="Group 2853" transform="translate(19269.891 -7012.547)">
    <g id="Group_2840" data-name="Group 2840" transform="translate(-19269.891 7012.547)">
      <path id="Path_934" data-name="Path 934" d="M329.611-150.1h-46.2a1.9,1.9,0,0,1-1.9-1.9v-46.2a1.9,1.9,0,0,1,1.9-1.9h46.2a1.9,1.9,0,0,1,1.9,1.9V-152a1.9,1.9,0,0,1-1.9,1.9" transform="translate(-281.512 200.103)" fill-rule="evenodd"/>
      <g id="Group_2840-2" data-name="Group 2840" transform="translate(10.488 15.726)">
        <path id="Path_935" data-name="Path 935" d="M322.758-183.459h-3.933a.3.3,0,0,0-.3.3v17.948a.3.3,0,0,0,.3.3h3.933a.3.3,0,0,0,.305-.3V-183.16a.3.3,0,0,0-.305-.3" transform="translate(-294.041 183.459)" fill="#fff"/>
        <path id="Path_936" data-name="Path 936" d="M307.9-183.459H292.916a.3.3,0,0,0-.3.3v17.948a.3.3,0,0,0,.3.3h3.934a.3.3,0,0,0,.306-.3V-179.3a.3.3,0,0,1,.3-.3h8.475a2.873,2.873,0,0,1,3.06,3v11.381a.3.3,0,0,0,.305.3h3.932a.3.3,0,0,0,.3-.3v-12.732a5.086,5.086,0,0,0-1.481-3.89,5.312,5.312,0,0,0-4.157-1.625" transform="translate(-292.612 183.459)" fill="#fff"/>
        <path id="Path_937" data-name="Path 937" d="M305.615-175.893h-4.13a.3.3,0,0,0-.307.3v10.8a.3.3,0,0,0,.307.3h4.13a.3.3,0,0,0,.3-.3v-10.8a.3.3,0,0,0-.3-.3" transform="translate(-293.084 183.042)" fill="#fff"/>
      </g>
    </g>
  </g>
</svg>
