<svg xmlns="http://www.w3.org/2000/svg" xmlns:xlink="http://www.w3.org/1999/xlink" width="536" height="81.368" viewBox="0 0 536 81.368"><defs><style>.a{fill:none;}.b{clip-path:url(#a);}.c{fill:#a3d147;}</style><clipPath id="a"><path class="a" d="M0-163.314H536v-81.368H0Z" transform="translate(0 244.682)"/></clipPath></defs><g transform="translate(0 244.682)"><g class="b" transform="translate(0 -244.682)"><g transform="translate(0 0)"><path d="M-521-84.2c.456-8.845,5.471-17.475,15.631-22.352,10.093-4.845,20.075-3.828,29.186,2.882,6.909,5.088,9.291,11.846,6.762,20.2a45.8,45.8,0,0,1-19.029,25.356c-8.187,5.426-17.352,3.77-24.607-3.726-5.212-5.385-8.019-12.417-7.943-22.356m44.82,4.542c.613-10.81-8.22-14.752-15.415-14.916-7.368-.168-14.659,6.676-14.727,13.6a16.179,16.179,0,0,0,15.862,15.919c8.748,0,14.277-5.651,14.279-14.6m17.709-23.861c-6.671,5.129-9.071,12-6.581,20.033a46.938,46.938,0,0,0,18.567,25.059c7.306,5.077,15.254,4.5,22.282-.959a28.073,28.073,0,0,0,9.487-30.827c-3.8-11.5-14.3-19.089-27.046-19.13a26.156,26.156,0,0,0-16.71,5.824m.182,22.583c.3-8.26,7.149-14.056,16.136-13.661,7.52.331,14.265,7.255,13.951,14.319a15.986,15.986,0,0,1-16.48,15.187c-8.879-.354-13.958-6.267-13.607-15.846m-7.056,36.144c-8.056-.171-12.474-3.575-16.115-8.013-2.11-2.573-1.071-7.57,1.623-9.564a3.011,3.011,0,0,1,2.309-.277,37.22,37.22,0,0,0,20.586.072,3.7,3.7,0,0,1,3.1.985c3.222,3.7,2.788,7.888-.993,11.032-3.613,3-7.27,5.97-10.506,5.765m45.183-80.861c-5.17.2-9.089,5.26-8.968,11.918.083,4.563,3.42,7.38,8.746,7.381,7.765,0,10.47-1.991,10.452-7.7.708-5.806-5.288-11.791-10.229-11.6m-95.186,19.3c-7.913-.071-10.486-1.966-10.431-7.685.063-6.537,4.5-11.594,10.164-11.594,5.146,0,8.988,5.152,8.858,11.88-.091,4.734-3.24,7.446-8.591,7.4M-482.574-79.2a6.622,6.622,0,0,0-6.367-6.12,6.559,6.559,0,0,0-6.5,6.736c.088,3.678,2.721,6.154,6.53,6.141a6.321,6.321,0,0,0,6.339-6.758m37.192,6.743a6.483,6.483,0,0,1-6.5-6.672,6.629,6.629,0,0,1,6.667-6.207,6.7,6.7,0,0,1,6.265,6.641,6.1,6.1,0,0,1-6.433,6.237m-305.971,15.01c10.719,0,24.269-8.494,24.269-26.291,0-17.9-13.045-26.291-24.471-26.291-6.775,0-11.932,2.629-15.167,6.573v-16.811a5.881,5.881,0,0,0-5.882-5.881h-7.971v67.689h8.393a5.461,5.461,0,0,0,5.461-5.46c3.235,3.944,8.7,6.472,15.369,6.472m-2.831-12.741c-7.743,0-13.319-6.6-12.923-14.433a13.352,13.352,0,0,1,14.6-12.675,13.191,13.191,0,0,1,11.871,13.458,13.324,13.324,0,0,1-13.55,13.65m31.24-13.549c0-17.9,13.146-26.291,24.573-26.291,6.572,0,11.729,2.427,15.066,5.966a4.955,4.955,0,0,1,4.954-4.955h8.9v50.559h-8.191a5.663,5.663,0,0,1-5.663-5.662,19.708,19.708,0,0,1-15.268,6.674c-10.719,0-24.371-8.494-24.371-26.291m40.043-.1c0-7.484-5.459-13.551-12.943-13.551a13.24,13.24,0,0,0-13.55,13.551,13.323,13.323,0,0,0,13.55,13.65c7.484,0,12.943-6.168,12.943-13.65m19.8,25.38h7.07a6.783,6.783,0,0,0,6.784-6.783V-86.062c0-8.494,3.842-12.134,9.1-12.134,6.169,0,8.8,3.944,8.8,10.719v29.02h7.223a6.832,6.832,0,0,0,6.832-6.832V-86.062c0-8.494,3.842-12.134,9.1-12.134,6.168,0,8.8,3.944,8.8,10.719v21.685a7.336,7.336,0,0,0,7.336,7.336h6.72V-89.3c0-13.045-6.371-20.73-19.213-20.73a19.2,19.2,0,0,0-15.775,7.989c-3.033-5.158-8.393-7.989-15.572-7.989a16.744,16.744,0,0,0-13.449,6.371,5.36,5.36,0,0,0-5.36-5.36H-663.1Zm97.961-4.966h0a5.46,5.46,0,0,1-5.46,5.46h-8.393v-67.69h8.214a5.64,5.64,0,0,1,5.64,5.641v17.052c3.235-3.944,8.392-6.573,15.167-6.573,11.426,0,24.471,8.393,24.471,26.29,0,17.8-13.55,26.291-24.269,26.291-6.674,0-12.135-2.528-15.37-6.471m26.088-19.92A13.19,13.19,0,0,0-550.918-96.8a13.351,13.351,0,0,0-14.6,12.675c-.4,7.83,5.18,14.433,12.923,14.433a13.323,13.323,0,0,0,13.549-13.65" transform="translate(780.575 126.146)"/></g><g transform="translate(377.77 16.05)"><path class="c" d="M0-1.456H11.405l5.087,36.4h.144l5.087-36.4H33.128V49.4H25.574V10.9H25.43L19.618,49.4H12.933L7.122,10.9H6.974V49.4H0Zm50.637,51.58q5.882,0,9.008-3.341t3.122-9.444V10.6q0-6.1-3.122-9.445t-9.008-3.34q-5.887,0-9.008,3.34T38.5,10.6V37.339q0,6.1,3.126,9.444t9.008,3.341m4.14-12.278q0,5.016-4.14,5.016t-4.143-5.016V10.1q0-5.016,4.143-5.012t4.14,5.012Zm13.37-39.3h12.06q6.176,0,9.008,2.871t2.834,8.827v2.035a14.015,14.015,0,0,1-1.269,6.393,7.469,7.469,0,0,1-3.888,3.559v.144q5.954,2.037,5.956,10.61v4.358q0,5.883-3.085,8.971T80.717,49.4H68.146ZM79.263,19.25a4.789,4.789,0,0,0,3.6-1.236q1.2-1.232,1.2-4.14V11.04a6.445,6.445,0,0,0-.981-4A3.7,3.7,0,0,0,79.988,5.81H76.137V19.25Zm1.454,22.884a4,4,0,0,0,3.122-1.125,5.808,5.808,0,0,0,1.017-3.887V32.69q0-3.485-1.2-4.832A5.08,5.08,0,0,0,79.7,26.515H76.137V42.134ZM97.494,49.4h7.99V-1.456h-7.99Zm13.95-50.855h7.991v43.59h13.151V49.4H111.444ZM136.433,49.4h21.8V42.134H144.424V26.515H155.4V19.25H144.424V5.81H158.23V-1.456h-21.8Z" transform="translate(0 2.181)"/></g></g></g></svg>