<svg xmlns="http://www.w3.org/2000/svg" width="375" height="375" viewBox="0 0 375 375"><defs><style>.a{fill:#64bca7;}.b{fill:#fff;}.c{fill:#f28e33;}</style></defs><g transform="translate(-491.537 -427.098)"><circle class="a" cx="177.76" cy="177.76" r="177.76" transform="translate(500.305 437.812)"/><path d="M679.037,427.1c-103.552,0-187.5,83.945-187.5,187.5s83.948,187.5,187.5,187.5,187.5-83.945,187.5-187.5S782.592,427.1,679.037,427.1Zm0,358.441A170.942,170.942,0,1,1,849.979,614.6,170.945,170.945,0,0,1,679.037,785.539Z" transform="translate(0 0)"/><g transform="translate(619.797 513.283)"><circle class="b" cx="58.994" cy="58.994" r="58.994"/></g><g transform="translate(615.901 509.387)"><path d="M592.731,578.225a62.891,62.891,0,1,1,62.89-62.893A62.962,62.962,0,0,1,592.731,578.225Zm0-116.042a53.151,53.151,0,1,0,53.149,53.149A53.212,53.212,0,0,0,592.731,462.183Z" transform="translate(-529.841 -452.443)"/></g><path d="M531.951,571.82c.484-1.481,1.247-4.393,2.37-7.159,2.065-5.068,2.007-9.909-1.523-14.214a41.87,41.87,0,0,0-6.088-5.474c-6.8-5.571-6.922-15.049-.208-20.666,1.542-1.289,3.123-2.539,4.643-3.857a13,13,0,0,0,3.659-14.646c-.727-1.935-1.533-3.844-2.162-5.812a12.978,12.978,0,0,1,10.344-17.11c1.981-.354,3.974-.643,5.951-1a13.033,13.033,0,0,0,10.36-10c.422-1.968.721-3.961.993-5.955a13.054,13.054,0,0,1,17.669-10.708c1.682.607,3.338,1.289,5.013,1.919a13.026,13.026,0,0,0,15.373-4.107c1.136-1.383,2.253-2.779,3.409-4.143,5.526-6.507,14.533-6.61,20.2-.218,1.26,1.422,2.406,2.942,3.62,4.4a13.074,13.074,0,0,0,15.247,4.107,53.012,53.012,0,0,1,7.442-2.529,12.881,12.881,0,0,1,15.308,10.993c.3,1.99.581,3.984.977,5.955a12.944,12.944,0,0,0,10.63,10.308c2.036.351,4.084.653,6.114,1.042a12.994,12.994,0,0,1,9.955,17.091c-.688,2.065-1.562,4.068-2.276,6.127a12.964,12.964,0,0,0,3.948,14.425c1.575,1.341,3.2,2.62,4.779,3.955a13.074,13.074,0,0,1-.032,20.016c-1.581,1.331-3.224,2.594-4.779,3.955a13.024,13.024,0,0,0-3.737,14.916c.73,1.935,1.51,3.854,2.146,5.821a12.97,12.97,0,0,1-10.208,16.925c-1.87.334-3.75.627-5.62.951a13.111,13.111,0,0,0-11.107,11.224c-.276,1.711-.533,3.425-.809,5.136a13.008,13.008,0,0,1-17.448,10.429c-1.951-.679-3.857-1.487-5.808-2.172a12.931,12.931,0,0,0-14.426,3.925c-1.263,1.494-2.474,3.033-3.727,4.536a12.942,12.942,0,0,1-19.974.461c-1.354-1.484-2.565-3.1-3.848-4.653a13.039,13.039,0,0,0-15.4-4.039c-1.669.636-3.328,1.315-5.016,1.906a13.021,13.021,0,0,1-17.6-10.6c-.26-1.711-.513-3.425-.805-5.133a13.053,13.053,0,0,0-10.951-10.984c-1.984-.341-3.971-.646-5.948-1.013C536.367,584.983,531.932,579.638,531.951,571.82Zm80.062,34.273a71.56,71.56,0,1,0-71.471-71.584A71.558,71.558,0,0,0,612.013,606.093Z" transform="translate(67.404 37.836)"/><path d="M622.2,498.334v56.231c-9.25-9.484-19.062-19.416-29.2-29.552l-8.513-8.513-8.513,8.513c-6,6-11.575,11.5-17.474,17.312-3.672,3.617-7.507,7.4-11.724,11.571V498.334H533.769l.026,87.516,1.662-1.662c9.51-9.51,19.14-19.208,28.448-28.588,7.558-7.61,14.62-14.724,20.588-20.695,14.85,14.848,28.432,28.406,37.717,37.675l0,.575h.571c3.526,3.526,6.25,6.357,8.253,8.438,1.087,1.13,1.929,2,2.52,2.594l1.662,1.662V498.334Z" transform="translate(94.885 160.05)"/><g transform="translate(663.381 534.15)"><path class="c" d="M544.465,521.726a16.263,16.263,0,0,0,7-6.006,15.3,15.3,0,0,0,2.506-8.409,16.465,16.465,0,0,0-.3-3.2h-9.208V495.6h7.406q-2.508-4.607-3.653-7.01a29.873,29.873,0,0,1-1.951-5.5,28.272,28.272,0,0,1-.805-7.1q0-7.106,4.2-11.51t12.013-4.406q8.006,0,12.11,4.555t4.1,13.062v4.1H567.484v-4.805q0-3.6-1.4-5.253a5.918,5.918,0,0,0-8.2,0q-1.4,1.651-1.4,5.253a24.487,24.487,0,0,0,1.1,7.409,69.291,69.291,0,0,0,3,7.7l1.5,3.5h12.208v8.506H563.981a28.7,28.7,0,0,1-1.4,9.308,18.248,18.248,0,0,1-5.5,7.7h20.117v10.01H544.465Z" transform="translate(-544.465 -460.07)"/></g></g></svg>