<svg xmlns="http://www.w3.org/2000/svg" width="375" height="375" viewBox="0 0 375 375"><defs><style>.a{fill:#64bca7;}.b{fill:#fff;}.c{fill:#f28e33;}</style></defs><g transform="translate(-225.437 -52.843)"><circle class="a" cx="177.76" cy="177.76" r="177.76" transform="translate(234.205 63.558)"/><path d="M412.937,52.843c-103.552,0-187.5,83.945-187.5,187.5s83.948,187.5,187.5,187.5,187.5-83.945,187.5-187.5S516.492,52.843,412.937,52.843Zm0,358.442A170.942,170.942,0,1,1,583.879,240.343,170.943,170.943,0,0,1,412.937,411.285Z" transform="translate(0 0)"/><g transform="translate(375.963 327.817)"><path class="b" d="M271.8,192.135a26.767,26.767,0,0,1,2.059-11.02,38.076,38.076,0,0,1,7.373-10.166,45.034,45.034,0,0,0,7.25-9.519,17.9,17.9,0,0,0,2.013-8.234q0-3.857-1.244-5.36a4.472,4.472,0,0,0-3.643-1.5q-4.89,0-4.89,5.919v6.432H271.8v-5.831q0-7.291,3.6-11.195t10.464-3.9q6.857,0,10.464,3.9t3.6,11.195a23.7,23.7,0,0,1-2.617,10.718q-2.615,5.235-9.049,12.01a36.431,36.431,0,0,0-5.659,7.247,12.653,12.653,0,0,0-1.458,5.961v1.286h17.922v8.578H271.8Z" transform="translate(-271.799 -137.025)"/><path class="b" d="M299.74,187.169H281.73v-8.578l17.156-40.565h10.292v40.565h4.458v8.578h-4.458v10.893H299.74Zm0-8.578V155.179h-.169l-9.263,23.412Z" transform="translate(-249.486 -136.432)"/><path class="b" d="M292.386,137.535h4.224V148.48h4.532V137.535h4.227v26.886h-4.227v-12.1H296.61v12.1h-4.224Z" transform="translate(-225.545 -137.535)"/><path class="b" d="M297.354,137.535h6.263q3.263,0,4.763,1.516a6.4,6.4,0,0,1,1.5,4.666v1.653q0,4.188-2.766,5.3v.075a3.314,3.314,0,0,1,2.172,1.883,9.49,9.49,0,0,1,.636,3.8v4.727a17.966,17.966,0,0,0,.075,1.864,4.686,4.686,0,0,0,.383,1.4h-4.3a6.225,6.225,0,0,1-.308-1.227,19.364,19.364,0,0,1-.075-2.075V156.2a4.179,4.179,0,0,0-.6-2.575,2.515,2.515,0,0,0-2.055-.731h-1.458v11.523h-4.227Zm5.763,11.523a2.536,2.536,0,0,0,1.9-.653,3.09,3.09,0,0,0,.633-2.192v-2.075a3.419,3.419,0,0,0-.519-2.11,1.953,1.953,0,0,0-1.633-.653h-1.919v7.682Z" transform="translate(-214.383 -137.535)"/></g><g transform="translate(333.83 155.67)"><path d="M321.862,134.427c2.263-.182,6.74-.464,11.2-.912a78.062,78.062,0,0,0,14.692-2.994,56.276,56.276,0,0,0,16.062-7.318,22.828,22.828,0,0,0,7.938-8.425,9.574,9.574,0,0,0,.805-7.036,15.494,15.494,0,0,0-3.981-6.581,36.187,36.187,0,0,0-9.331-6.724A63.882,63.882,0,0,0,348.5,90.083a80.981,80.981,0,0,0-12.266-2.828c-3.282-.5-6.607-.744-9.919-1.01a98.675,98.675,0,0,0-23.357,1.045,112.993,112.993,0,0,0-11.383,2.62,52.66,52.66,0,0,0-14.617,6.341c-3.649,2.3-6.968,4.961-9.088,8.854a10.039,10.039,0,0,0-.023,10.149,22.312,22.312,0,0,0,6.474,7.075,50.6,50.6,0,0,0,14.2,7.214,85.454,85.454,0,0,0,15.685,3.718A128.39,128.39,0,0,0,321.862,134.427Z" transform="translate(-241.615 -81.257)"/><path d="M279.2,136.733c.149.179.172.237.208.25a71.021,71.021,0,0,0,12.919,3.321c3.851.61,7.744,1.013,11.63,1.315a99.683,99.683,0,0,0,23.954-1.188,82.4,82.4,0,0,0,14.529-3.7,47.623,47.623,0,0,0,14.831-8.081A18.642,18.642,0,0,0,363,121.187a9.71,9.71,0,0,0-.886-8.825,21.527,21.527,0,0,0-5.669-6.211,50.653,50.653,0,0,0-10.568-6.084,1.285,1.285,0,0,0-1.789.406,27.531,27.531,0,0,1-6.328,5.344c-2.445,1.536-5.045,2.821-7.555,4.253a1.535,1.535,0,0,0-.7.867,20.65,20.65,0,0,1-6.1,10.221,44.264,44.264,0,0,1-13.552,8.636,74.5,74.5,0,0,1-17.539,5.179c-3.75.61-7.532,1.013-11.3,1.51C280.438,136.558,279.87,136.639,279.2,136.733Z" transform="translate(-213.042 -50.008)"/><path d="M370.927,118.5a4.735,4.735,0,0,0-.581.393,43.672,43.672,0,0,1-11.467,7.328,64.768,64.768,0,0,1-12.3,4.289c-3.844.877-7.724,1.623-11.607,2.328a40.693,40.693,0,0,1-5.107.533c-3.8.211-7.6.5-11.4.487a96.743,96.743,0,0,1-17.149-1.487c-3.039-.558-6.068-1.208-9.055-2-2.643-.7-5.24-1.591-7.818-2.506a47.4,47.4,0,0,1-15.432-8.834c-.179-.156-.386-.276-.64-.455-.318.591-.6,1.091-.864,1.6a8.756,8.756,0,0,0-.679,6.6c.99,3.451,3.247,6.042,5.9,8.315a44.252,44.252,0,0,0,11.922,7.013,67.939,67.939,0,0,0,10.9,3.52c2.523.588,5.058,1.13,7.614,1.545,2.334.38,4.7.591,7.052.821a98.513,98.513,0,0,0,15.257.279,80.3,80.3,0,0,0,13.412-1.63c3.844-.883,7.724-1.692,11.468-2.906a47.021,47.021,0,0,0,16.24-8.591,18.509,18.509,0,0,0,5.646-7.429C373.511,124.408,372.817,121.421,370.927,118.5Z" transform="translate(-241.634 -8.151)"/><path d="M345.639,129.521l-.052-.276c-.243,0-.487-.02-.73,0-1.331.11-2.659.253-3.99.341a116.421,116.421,0,0,1-16.623-.049,104.2,104.2,0,0,1-13.458-1.886,84.53,84.53,0,0,1-12.25-3.5,51.347,51.347,0,0,1-16.062-9.1,23.914,23.914,0,0,1-5.24-6.3,14.428,14.428,0,0,1-2.071-6.4c-.1-2.315-.117-4.633-.169-6.951-.007-.289-.026-.578-.042-.958a5.15,5.15,0,0,0-.565.234c-1.747,1.045-3.549,2.013-5.227,3.162a21.759,21.759,0,0,0-7.341,7.779,9.817,9.817,0,0,0-1.192,6.26,14.422,14.422,0,0,0,4.166,7.63,34.913,34.913,0,0,0,8.588,6.354,59.668,59.668,0,0,0,13.867,5.451,104.943,104.943,0,0,0,11.24,2.25,97.008,97.008,0,0,0,11.055,1.016c4.1.133,8.218.042,12.315-.218a95.9,95.9,0,0,0,10.263-1.282c2.893-.5,5.74-1.279,8.591-2.016C342.373,130.628,344,130.037,345.639,129.521Z" transform="translate(-255.029 -62.212)"/><path d="M351.611,133.6l-.049-.266c-.244,0-.487-.013-.731,0-2.841.179-5.679.409-8.523.542a105.4,105.4,0,0,1-22.283-1.5,84.055,84.055,0,0,1-12.948-3.221,60.738,60.738,0,0,1-13.789-6.386,29.7,29.7,0,0,1-9.081-8.4,2.9,2.9,0,0,0-2.146-1.282c-2.4-.435-4.8-.9-7.169-1.461-2.149-.513-4.26-1.2-6.4-1.763a.906.906,0,0,0-.8.247,9.367,9.367,0,0,0-.075,9.11,19.406,19.406,0,0,0,5.071,6.218,49.39,49.39,0,0,0,16.571,8.776,73.44,73.44,0,0,0,15.055,3.435c4.1.464,8.218.86,12.341,1.078a80.062,80.062,0,0,0,13.659-.5c2.575-.308,5.165-.545,7.7-1.029,2.987-.571,5.942-1.334,8.886-2.1C348.5,134.7,350.047,134.109,351.611,133.6Z" transform="translate(-241.624 -27.576)"/><path d="M344.166,239.053c3.282-.328,6.591-.5,9.844-1.013a85.654,85.654,0,0,0,19.838-5.373,47.957,47.957,0,0,0,13.669-8.182,22.673,22.673,0,0,0,6.37-8.679,16.747,16.747,0,0,0,1.091-5.984c.016-2.8-.026-5.6,0-8.4a16.186,16.186,0,0,0-2.818-9.549,1.7,1.7,0,0,1,.033-2.266,16.75,16.75,0,0,0,2.458-5.477,1.4,1.4,0,0,1,.666-.8,51.578,51.578,0,0,0,10.3-6.25c3.506-2.847,6.458-6.14,7.945-10.52.263-.77.429-1.568.64-2.354l.088.01s1.773-8.659,0-14.276a18.3,18.3,0,0,0-3.37-7.562,31.663,31.663,0,0,0-7.166-6.873,54.1,54.1,0,0,0-9.695-5.341c-.6-.266-.649-.529-.393-1.091a14.547,14.547,0,0,0,1.3-6.084c.006-3.1.052-6.2,0-9.3a17.12,17.12,0,0,0-3.481-10.1,35.158,35.158,0,0,0-11.312-9.481,62.44,62.44,0,0,0-10.834-4.737c-2.594-.88-5.26-1.552-7.916-2.214A97.549,97.549,0,0,0,346.524,84.8c-.828-.075-1.659-.088-2.49-.14,0,0-10.146-.344-14.545.01-4.071.331-8.117.75-12.143,1.448a83.836,83.836,0,0,0-12.652,3.159c-6.812,2.3-13.279,5.3-18.695,10.182a22.383,22.383,0,0,0-6.136,8.49c-.328.838-.484,1.743-.789,2.594a1.491,1.491,0,0,1-.64.805,49.678,49.678,0,0,0-10.425,6.341c-3.438,2.841-6.373,6.091-7.818,10.432-.266.8-.422,1.633-.711,2.448a38.052,38.052,0,0,0-.01,14.2,19.787,19.787,0,0,0,2.075,5.477,23.691,23.691,0,0,0,4.224,5.39,46,46,0,0,0,13.864,8.841c.611.269.7.516.435,1.136a16.071,16.071,0,0,0-1.3,6.542c.033,2.773.042,5.549.01,8.321a16.361,16.361,0,0,0,2.857,9.539,1.331,1.331,0,0,1,.023,1.743,16.36,16.36,0,0,0-2.88,9.607q.049,3.9-.01,7.789a17.7,17.7,0,0,0,3.743,11.312,32.467,32.467,0,0,0,7.263,6.766,57.437,57.437,0,0,0,14.682,7.13,84.555,84.555,0,0,0,12.572,3.182,105.536,105.536,0,0,0,13.049,1.532A94.924,94.924,0,0,0,344.166,239.053Z" transform="translate(-258.822 -84.514)"/><path class="c" d="M279.2,136.733c.672-.094,1.24-.175,1.808-.25,3.766-.5,7.549-.9,11.3-1.51a74.5,74.5,0,0,0,17.539-5.179,44.264,44.264,0,0,0,13.552-8.636,20.65,20.65,0,0,0,6.1-10.221,1.535,1.535,0,0,1,.7-.867c2.51-1.432,5.11-2.718,7.555-4.253a27.531,27.531,0,0,0,6.328-5.344,1.285,1.285,0,0,1,1.789-.406,50.653,50.653,0,0,1,10.568,6.084,21.527,21.527,0,0,1,5.669,6.211,9.71,9.71,0,0,1,.886,8.825,18.642,18.642,0,0,1-5.727,7.464,47.623,47.623,0,0,1-14.831,8.081,82.4,82.4,0,0,1-14.529,3.7,99.683,99.683,0,0,1-23.954,1.188c-3.886-.3-7.779-.7-11.63-1.315a71.021,71.021,0,0,1-12.919-3.321C279.37,136.97,279.347,136.911,279.2,136.733Z" transform="translate(-213.042 -50.008)"/><path class="c" d="M370.927,118.5c1.89,2.919,2.584,5.906,1.308,9.218a18.509,18.509,0,0,1-5.646,7.429,47.021,47.021,0,0,1-16.24,8.591c-3.743,1.214-7.623,2.023-11.468,2.906a80.3,80.3,0,0,1-13.412,1.63A98.513,98.513,0,0,1,310.213,148c-2.354-.231-4.718-.442-7.052-.821-2.555-.416-5.091-.958-7.614-1.545a67.939,67.939,0,0,1-10.9-3.52,44.252,44.252,0,0,1-11.922-7.013c-2.649-2.273-4.906-4.864-5.9-8.315a8.756,8.756,0,0,1,.679-6.6c.263-.513.546-1.013.864-1.6.253.179.461.3.64.455a47.4,47.4,0,0,0,15.432,8.834c2.578.916,5.175,1.808,7.818,2.506,2.987.792,6.016,1.442,9.055,2a96.743,96.743,0,0,0,17.149,1.487c3.8.01,7.6-.276,11.4-.487a40.693,40.693,0,0,0,5.107-.533c3.883-.7,7.763-1.451,11.607-2.328a64.768,64.768,0,0,0,12.3-4.289,43.672,43.672,0,0,0,11.467-7.328A4.735,4.735,0,0,1,370.927,118.5Z" transform="translate(-241.634 -8.151)"/><path class="c" d="M345.639,129.521c-1.64.516-3.266,1.107-4.929,1.539-2.851.737-5.7,1.516-8.591,2.016a95.9,95.9,0,0,1-10.263,1.282c-4.1.26-8.218.351-12.315.218a97.008,97.008,0,0,1-11.055-1.016,104.943,104.943,0,0,1-11.24-2.25,59.668,59.668,0,0,1-13.867-5.451,34.913,34.913,0,0,1-8.588-6.354,14.422,14.422,0,0,1-4.166-7.63,9.817,9.817,0,0,1,1.192-6.26,21.759,21.759,0,0,1,7.341-7.779c1.679-1.149,3.481-2.117,5.227-3.162a5.15,5.15,0,0,1,.565-.234c.016.38.036.669.042.958.052,2.318.065,4.636.169,6.951a14.428,14.428,0,0,0,2.071,6.4,23.914,23.914,0,0,0,5.24,6.3,51.347,51.347,0,0,0,16.062,9.1,84.53,84.53,0,0,0,12.25,3.5,104.2,104.2,0,0,0,13.458,1.886,116.421,116.421,0,0,0,16.623.049c1.331-.088,2.659-.231,3.99-.341.243-.02.487,0,.73,0Z" transform="translate(-255.029 -62.212)"/><path class="b" d="M351.611,133.6c-1.565.507-3.11,1.094-4.7,1.507-2.945.763-5.9,1.526-8.886,2.1-2.539.484-5.13.721-7.7,1.029a80.062,80.062,0,0,1-13.659.5c-4.123-.218-8.237-.614-12.341-1.078a73.44,73.44,0,0,1-15.055-3.435,49.39,49.39,0,0,1-16.571-8.776,19.406,19.406,0,0,1-5.071-6.218,9.367,9.367,0,0,1,.075-9.11.906.906,0,0,1,.8-.247c2.136.565,4.247,1.25,6.4,1.763,2.37.565,4.77,1.026,7.169,1.461a2.9,2.9,0,0,1,2.146,1.282,29.7,29.7,0,0,0,9.081,8.4,60.738,60.738,0,0,0,13.789,6.386,84.055,84.055,0,0,0,12.948,3.221,105.4,105.4,0,0,0,22.283,1.5c2.844-.133,5.682-.364,8.523-.542.243-.016.487,0,.731,0Z" transform="translate(-241.624 -27.576)"/><path class="b" d="M321.862,134.427a128.39,128.39,0,0,1-17.659-1.166,85.454,85.454,0,0,1-15.685-3.718,50.6,50.6,0,0,1-14.2-7.214,22.312,22.312,0,0,1-6.474-7.075,10.039,10.039,0,0,1,.023-10.149c2.12-3.893,5.438-6.552,9.088-8.854a52.66,52.66,0,0,1,14.617-6.341,112.993,112.993,0,0,1,11.383-2.62,98.675,98.675,0,0,1,23.357-1.045c3.312.266,6.636.513,9.919,1.01A80.981,80.981,0,0,1,348.5,90.083a63.882,63.882,0,0,1,10.747,4.354,36.187,36.187,0,0,1,9.331,6.724,15.494,15.494,0,0,1,3.981,6.581,9.574,9.574,0,0,1-.805,7.036,22.828,22.828,0,0,1-7.938,8.425,56.276,56.276,0,0,1-16.062,7.318,78.062,78.062,0,0,1-14.692,2.994C328.6,133.963,324.125,134.245,321.862,134.427Z" transform="translate(-241.615 -81.257)"/></g><path d="M383.82,69.819a130.279,130.279,0,0,0-89.958,26.743l.023.026c-2.117,1.6-4.2,3.257-6.247,5.007a130.821,130.821,0,0,0,25.448,215.757l4.338-13.37a116.969,116.969,0,0,1-20.773-191.86,127.156,127.156,0,0,1,18.3-13.049c.208-.12.412-.244.62-.36.409-.237.825-.464,1.234-.695A116.92,116.92,0,0,1,471.223,264.563c1.136-8.461,2.273-16.9,3.451-25.792l-12.688-.993a288.723,288.723,0,0,1-5.623,40.328c-.438,2.016-.925,4.029-1.432,6.065-.127.12-.247.243-.373.364.071.081.156.14.231.214-.575,2.308-1.179,4.653-1.776,7.091a20.07,20.07,0,0,0,2.383-.032c17.552-2.5,32.646-2.172,50.224-.688l1.24.107,1-12.743c-10.471-.257-19.481-.4-29.042-.6A130.778,130.778,0,0,0,383.82,69.819Z" transform="translate(37.019 37.231)"/></g></svg>