<svg xmlns="http://www.w3.org/2000/svg" width="375" height="375" viewBox="0 0 375 375"><defs><style>.a{fill:#64bca7;}.b{fill:#fff;}.c{fill:#f28e33;}</style></defs><g transform="translate(-432 -4671)"><g transform="translate(432 4671)"><circle class="a" cx="177.76" cy="177.76" r="177.76" transform="translate(8.768 10.715)"/><path d="M412.937,426.943c-103.552,0-187.5,83.945-187.5,187.5s83.948,187.5,187.5,187.5,187.5-83.945,187.5-187.5S516.492,426.943,412.937,426.943Zm0,358.442A170.942,170.942,0,1,1,583.879,614.443,170.943,170.943,0,0,1,412.937,785.385Z" transform="translate(-225.437 -426.943)"/><g transform="translate(112.173 110.993)"><circle class="b" cx="77.396" cy="77.396" r="77.396"/></g><g transform="translate(113.27 112.091)"><path class="c" d="M336.623,614.064a76.3,76.3,0,0,1,0-152.6Z" transform="translate(-260.324 -461.467)"/></g><path d="M417.984,556.576,418,556.5c.12-.614.237-1.234.341-1.851l.029-.179q.151-.881.283-1.766l.036-.282c.081-.558.156-1.117.227-1.675.013-.127.026-.253.042-.38.062-.529.12-1.058.172-1.588.016-.162.029-.328.042-.49.045-.493.091-.987.127-1.484.013-.2.026-.412.039-.62.029-.451.058-.906.081-1.36.013-.253.019-.51.029-.763.016-.409.033-.818.042-1.227.01-.3.01-.6.013-.9s.013-.617.016-.925l0-.13c0-.068,0-.136,0-.2q0-1.252-.045-2.493c-.006-.182-.013-.36-.023-.539q-.044-1.271-.133-2.533l-.007-.172h0a80.652,80.652,0,0,0-1.906-12.646l-.1-.409c-.2-.857-.419-1.708-.649-2.555l-.023-.084c-.237-.867-.493-1.727-.76-2.584-.052-.166-.1-.328-.156-.494q-.37-1.159-.773-2.308c-.029-.081-.058-.166-.088-.25-.289-.812-.6-1.62-.912-2.425-.078-.2-.159-.4-.24-.6-.276-.679-.555-1.354-.847-2.023-.065-.146-.123-.292-.188-.435-.334-.757-.685-1.507-1.042-2.25-.114-.24-.234-.477-.351-.717-.289-.581-.581-1.162-.883-1.737-.107-.2-.208-.406-.318-.607q-.56-1.042-1.153-2.071c-.156-.273-.315-.546-.477-.815q-.438-.745-.9-1.477c-.153-.25-.3-.5-.458-.744q-.614-.964-1.257-1.909c-.2-.3-.4-.584-.6-.877-.3-.429-.6-.857-.912-1.279-.2-.273-.393-.549-.594-.818-.445-.6-.9-1.185-1.364-1.773-.234-.3-.471-.591-.711-.883q-.472-.584-.961-1.159c-.231-.273-.458-.545-.692-.815-.487-.565-.987-1.12-1.494-1.672-.257-.283-.52-.558-.779-.834-.354-.373-.711-.747-1.075-1.114-.175-.182-.347-.37-.526-.549a81.369,81.369,0,0,0-6.13-5.542l-.072-.058c-.484-.393-.971-.782-1.461-1.162l-.156-.12c-.464-.357-.929-.711-1.4-1.058l-.244-.175c-.441-.325-.89-.646-1.338-.964-.11-.075-.221-.149-.328-.224q-.638-.443-1.279-.873c-.136-.091-.273-.175-.409-.266-.406-.266-.812-.533-1.224-.792-.159-.1-.318-.2-.48-.3-.39-.243-.779-.484-1.175-.721l-.549-.321c-.373-.221-.75-.438-1.127-.653-.2-.117-.412-.227-.62-.341q-.541-.3-1.081-.594c-.221-.117-.445-.23-.666-.347-.354-.182-.7-.367-1.058-.545l-.718-.351c-.341-.169-.685-.334-1.029-.5-.25-.12-.5-.234-.757-.351-.338-.153-.672-.309-1.01-.458-.26-.117-.523-.227-.782-.338-.334-.143-.669-.289-1.007-.429-.266-.11-.532-.214-.8-.321-.338-.133-.672-.269-1.01-.4-.269-.1-.539-.2-.808-.305-.341-.123-.679-.253-1.019-.373-.269-.1-.536-.185-.805-.279-.347-.12-.695-.24-1.042-.357l-.8-.253c-.357-.114-.711-.227-1.068-.334-.263-.078-.526-.153-.789-.231-.364-.107-.727-.211-1.091-.315l-.779-.2c-.373-.1-.743-.2-1.117-.292-.253-.065-.51-.123-.766-.185-.38-.091-.763-.182-1.146-.269-.247-.055-.5-.1-.743-.159-.393-.085-.786-.169-1.182-.247-.244-.049-.484-.091-.727-.136-.4-.078-.805-.153-1.211-.224-.237-.042-.477-.078-.717-.117-.409-.068-.818-.133-1.231-.195-.237-.036-.477-.068-.714-.1-.416-.058-.828-.114-1.244-.166-.24-.029-.48-.055-.721-.084-.416-.045-.828-.094-1.244-.136-.25-.023-.5-.042-.753-.065-.406-.039-.812-.075-1.217-.1-.266-.019-.536-.036-.8-.052-.393-.026-.786-.052-1.179-.071-.286-.016-.575-.026-.864-.036-.373-.016-.744-.033-1.117-.042-.318-.007-.636-.01-.958-.016-.273,0-.545-.013-.818-.013h-.841c-.273,0-.546.01-.818.013-.321.007-.64.01-.958.016-.373.01-.744.026-1.117.042-.289.01-.575.019-.864.036-.393.02-.786.045-1.179.071-.269.016-.536.032-.8.052-.406.029-.812.065-1.218.1-.25.023-.5.042-.753.065-.416.042-.828.091-1.243.136-.24.029-.48.055-.721.084-.416.052-.828.107-1.243.166-.237.033-.477.065-.714.1-.412.062-.822.127-1.231.195-.24.039-.481.075-.718.117-.406.072-.808.146-1.211.224-.24.045-.484.088-.727.136-.393.078-.786.162-1.182.247-.247.055-.5.1-.744.159-.383.088-.766.179-1.149.269-.253.062-.506.12-.763.185-.373.094-.743.191-1.117.292l-.779.2c-.364.1-.727.208-1.091.315-.263.078-.526.153-.789.231-.357.107-.711.221-1.068.334l-.8.253c-.348.117-.695.237-1.042.357-.269.094-.539.182-.805.279-.341.12-.679.25-1.02.373-.269.1-.539.2-.808.305-.338.13-.672.266-1.01.4-.266.107-.532.211-.8.321-.338.14-.672.286-1.006.429-.26.11-.523.221-.782.338-.338.149-.672.305-1.01.458-.253.117-.506.23-.757.351-.344.162-.688.328-1.029.5-.237.117-.477.234-.718.351-.354.179-.7.364-1.058.545-.221.117-.445.231-.666.347q-.54.292-1.081.594c-.208.114-.416.224-.62.341-.377.214-.753.432-1.127.653l-.549.321c-.4.237-.786.477-1.175.721-.162.1-.321.195-.481.3-.412.26-.818.526-1.224.792-.136.091-.273.175-.409.266q-.643.428-1.279.873c-.107.075-.217.149-.328.224-.448.318-.9.64-1.338.964l-.243.175q-.7.521-1.4,1.058l-.156.12c-.49.38-.977.769-1.461,1.162l-.071.058a80.733,80.733,0,0,0-6.13,5.542c-.179.179-.351.367-.529.549-.36.367-.718.74-1.071,1.114-.26.276-.523.552-.779.834-.507.552-1.006,1.107-1.493,1.672-.234.27-.461.542-.692.815q-.487.575-.961,1.159c-.24.292-.477.588-.714.883-.461.588-.916,1.175-1.36,1.773-.2.269-.4.546-.594.818-.308.422-.614.851-.912,1.279-.2.292-.406.584-.6.877-.429.633-.847,1.266-1.257,1.909-.156.247-.305.493-.458.744q-.458.731-.9,1.477c-.159.269-.321.542-.477.815q-.594,1.028-1.153,2.071c-.107.2-.211.406-.318.607-.3.575-.594,1.156-.883,1.737-.117.24-.237.477-.351.717-.357.744-.708,1.494-1.042,2.25-.065.143-.123.289-.188.435-.292.669-.571,1.344-.847,2.023-.078.2-.162.4-.24.6-.315.805-.623,1.614-.912,2.425-.029.084-.059.169-.088.25q-.4,1.15-.773,2.308c-.052.166-.1.328-.156.494-.266.857-.523,1.718-.76,2.584l-.023.084c-.23.847-.445,1.7-.649,2.555l-.1.409a81.044,81.044,0,0,0-1.906,12.646h0l-.006.172q-.088,1.261-.133,2.533c-.01.178-.016.357-.023.539q-.039,1.242-.045,2.493l0,.2,0,.13c0,.308.01.617.016.925s0,.6.013.9c.01.409.026.818.042,1.227.01.253.016.51.029.763.023.454.052.909.081,1.36.013.208.026.416.039.62.036.5.081.99.127,1.484.013.162.026.328.042.49.052.529.11,1.058.172,1.588.016.127.029.253.042.38.068.558.146,1.117.224,1.675.016.094.026.188.039.282q.131.886.282,1.766l.029.179q.156.921.338,1.841l.019.094q.19.959.4,1.916v.007a79.417,79.417,0,0,0,21.737,39.282,81.539,81.539,0,0,0,8.818,7.568l.12.091c.406.3.818.594,1.227.886.13.091.257.185.386.276.325.227.653.445.981.669.218.149.438.3.659.448s.458.3.685.445c.328.214.653.425.981.633.117.075.237.146.354.218q.662.414,1.331.815l.032.019a80.587,80.587,0,0,0,41.123,11.289h.036a80.587,80.587,0,0,0,41.123-11.289l.029-.019q.672-.4,1.334-.815c.117-.071.237-.143.354-.218.331-.208.659-.422.987-.636.227-.149.454-.292.679-.442s.445-.3.669-.455c.325-.221.649-.438.971-.662.13-.091.257-.185.383-.276.412-.292.825-.588,1.23-.886l.12-.091a81.533,81.533,0,0,0,8.818-7.568A79.415,79.415,0,0,0,417.581,558.5h0C417.724,557.859,417.86,557.219,417.984,556.576Zm-8.6-1.886q-.18.906-.383,1.8c-.059.263-.12.523-.182.782-.114.48-.23.964-.354,1.442-.091.354-.188.7-.282,1.052-.107.393-.218.786-.331,1.175-.12.416-.25.828-.377,1.24-.1.331-.2.659-.312.987-.149.451-.305.9-.464,1.348-.1.292-.2.584-.305.873-.169.464-.347.922-.526,1.383-.107.276-.211.552-.325.825-.182.454-.373.9-.565,1.354-.12.279-.24.562-.364.841-.185.422-.38.841-.578,1.256-.143.308-.282.614-.429.919-.182.37-.37.74-.555,1.107-.175.347-.351.7-.532,1.042-.159.305-.328.6-.49.906-.224.406-.445.815-.675,1.221-.123.214-.253.428-.38.64-.282.487-.568.974-.864,1.455-.071.11-.143.218-.211.328a74.1,74.1,0,0,1-5.364,7.5l-.068.081c-.156.143-.266.14-.526.026-.718-.354-1.448-.695-2.188-1.029-.237-.107-.477-.211-.717-.318-.406-.182-.815-.361-1.231-.536s-.815-.341-1.224-.51c-.243-.1-.49-.2-.737-.3q-.77-.307-1.552-.6c-.133-.052-.266-.1-.4-.149-3.166-1.178-6.5-2.227-10.036-3.156-.325-.088-.643-.175-.974-.266l-.571-.156a145.973,145.973,0,0,0,4.448-29.442q.122-2.24.188-4.532h31.682l-.007.065c-.071.659-.136,1.318-.2,1.977-.153,1.565-.312,3.178-.565,4.74-.12.747-.253,1.484-.393,2.221C409.432,554.417,409.406,554.554,409.38,554.69Zm-35.36,48.581a70.105,70.105,0,0,1-13.458,5.7l.039-.052c.666-.9,1.3-1.776,1.916-2.653.224-.312.455-.623.669-.942.081-.12.156-.244.234-.364.039-.058.081-.117.12-.175.153-.234.3-.474.451-.711.172-.273.347-.542.519-.821a72.078,72.078,0,0,0,5.951-12.179c.4-1.026.792-2.071,1.172-3.153l.055-.149a.664.664,0,0,1,.049-.075.577.577,0,0,1,.2.007c1.208.315,2.367.63,3.493.955,3.3.954,6.25,1.935,8.951,2.987,1.221.481,2.406.977,3.565,1.5-.808.75-1.633,1.471-2.461,2.172A71.707,71.707,0,0,1,374.019,603.271Zm-19.825-.429c-.714.929-1.455,1.821-2.231,2.682a27.213,27.213,0,0,1-2.838,2.74,21.617,21.617,0,0,1-3.045,2.091,25.5,25.5,0,0,1-2.331,1.107l-.166.071V583.985c.149-.006.318-.01.494-.013,3.289.114,6.406.312,9.383.6l.867.088c2.942.3,5.747.695,8.442,1.179.075.016.153.032.224.052q-.58,1.6-1.175,3.091c-.266.656-.533,1.308-.805,1.935l-.026.059A57.243,57.243,0,0,1,354.195,602.843Zm-10.682-66.578v-.546l0-6.231q0-9.877-.016-19.75c0-1,0-2.007,0-3.01a3.1,3.1,0,0,0,.016-.318.864.864,0,0,1,.214-.045h.049a137.91,137.91,0,0,0,16.25-1.308l.058-.007c.221-.032.438-.068.656-.1,1.51-.224,3.006-.468,4.481-.74a2.554,2.554,0,0,1,.438-.052l.013,0,.013.013a2.542,2.542,0,0,1,.14.422c.507,1.955.958,3.945,1.38,5.954.078.38.162.76.24,1.143.127.64.24,1.282.36,1.925s.234,1.266.341,1.9c.091.542.175,1.088.26,1.633.117.744.23,1.487.338,2.237.071.5.136,1.006.2,1.51.1.789.2,1.578.289,2.373.055.51.11,1.016.162,1.529.078.769.149,1.545.218,2.321.049.568.1,1.133.14,1.7.049.672.091,1.348.133,2.026.045.7.088,1.409.12,2.117.013.273.02.545.033.815.019.685.016,1.37.01,2.091l-.006.442H343.516Zm.8-65.935c.269.117.539.237.805.367.24.12.477.247.711.377.153.081.308.166.461.253.26.149.52.312.776.477.136.088.273.175.409.266.247.169.49.344.734.523.153.114.305.227.458.347.218.172.438.347.656.533.179.149.354.3.532.461s.383.344.575.526.4.39.6.594c.169.169.338.338.506.516.218.231.438.471.656.717.156.172.312.344.464.526.221.253.438.523.656.792.159.192.315.38.471.578.2.257.393.523.588.786.26.344.519.685.77,1.039.13.185.257.38.383.565.305.442.61.883.9,1.344.055.088.11.182.166.269a70.485,70.485,0,0,1,6.435,13.523q-1.933.336-3.929.61c-2.912.4-5.971.724-9.2.964-2.039.146-4.13.26-6.292.331V470.05C343.847,470.145,344.084,470.235,344.308,470.33Zm34.636,11a72.042,72.042,0,0,1,8.99,7.081c-.373.185-.825.39-1.321.6-.3.123-.591.25-.89.37-2.12.867-4.916,1.86-7.581,2.714-1.286.4-2.643.805-4.084,1.211-.867.231-1.656.425-2.308.555a.585.585,0,0,1-.049-.071c-.448-1.253-.909-2.458-1.377-3.64a78.035,78.035,0,0,0-3.409-7.568c-.136-.266-.269-.529-.409-.789-.153-.292-.312-.578-.471-.864a62.849,62.849,0,0,0-5.37-8.318,71.994,71.994,0,0,1,10.984,4.454C374.117,478.382,376.627,479.846,378.945,481.326Zm-34.656,93.835c-.231-.01-.461-.016-.692-.026V545.268h26.539a145.211,145.211,0,0,1-3.218,27.091c-.058.279-.114.565-.175.841-.12.529-.253,1.049-.38,1.571-.175.737-.347,1.48-.536,2.208a1.269,1.269,0,0,1-.156.4,1.243,1.243,0,0,1-.338,0l-.075-.013a142.308,142.308,0,0,0-18.919-2.1C345.653,575.216,344.964,575.183,344.289,575.161Zm66.25-39.974c.036.373.071.747.107,1.123h-31.7a151.935,151.935,0,0,0-4.117-31.857c-.172-.7-.334-1.412-.516-2.117.49-.133.977-.26,1.461-.39,1.373-.36,2.682-.711,3.974-1.149a95.535,95.535,0,0,0,13.737-5.266,7.462,7.462,0,0,1,.766-.338.191.191,0,0,1,.1.029c.127.123.331.377.536.63q.735.921,1.441,1.857l.088.12q.628.838,1.23,1.695c.068.1.14.195.208.292.4.565.779,1.136,1.156,1.708.045.068.091.136.136.2q.6.925,1.169,1.86c.13.211.253.429.383.643.237.4.474.8.7,1.2.166.289.328.581.487.873q.278.5.546,1c.166.318.334.636.5.955s.318.633.474.951c.166.334.331.666.49,1,.136.292.269.588.4.88q.482,1.057.928,2.127c.1.234.2.468.292.7.169.416.331.834.49,1.253.088.234.179.468.266.7.162.438.318.877.474,1.318.068.2.133.4.2.594.162.484.328.971.481,1.464l.052.175q.555,1.783,1.019,3.6h.007a74.878,74.878,0,0,1,1.49,7.357c.143.938.247,1.88.348,2.834h0C410.412,533.865,410.474,534.518,410.539,535.187Zm-75.8-5.7,0,6.231v.546l0,.055H308.214c0-.149,0-.3-.007-.442-.007-.721-.01-1.406.01-2.091.013-.27.02-.542.033-.815.033-.708.075-1.412.12-2.117.042-.678.084-1.354.133-2.026.042-.571.091-1.136.14-1.7.068-.776.14-1.552.218-2.321.052-.513.107-1.02.162-1.529.091-.8.188-1.584.289-2.373.065-.5.13-1.01.2-1.51.1-.75.221-1.494.338-2.237.084-.545.169-1.091.26-1.633.107-.636.227-1.27.341-1.9s.234-1.286.36-1.925c.078-.383.162-.763.24-1.143.422-2.01.873-4,1.38-5.954a2.544,2.544,0,0,1,.14-.422l.013-.013.013,0a2.554,2.554,0,0,1,.438.052c1.474.273,2.971.516,4.481.74.217.032.435.068.656.1l.058.007a137.909,137.909,0,0,0,16.25,1.308h.049a.864.864,0,0,1,.214.045,3,3,0,0,0,.016.315c0,1,0,2.01,0,3.013Q334.732,519.61,334.74,529.489Zm-8.448,76.036c-.776-.86-1.516-1.753-2.231-2.682a57.185,57.185,0,0,1-6.792-11.87l-.023-.052c-.273-.627-.542-1.282-.808-1.938q-.6-1.49-1.175-3.091c.071-.02.149-.036.227-.052,2.691-.484,5.5-.877,8.438-1.179l.867-.088c2.977-.289,6.094-.487,9.383-.6.179,0,.347.007.493.013v27.549l-.166-.071a25.5,25.5,0,0,1-2.331-1.107,21.619,21.619,0,0,1-3.045-2.091A27.217,27.217,0,0,1,326.292,605.524Zm-33.526-10.208c-.828-.7-1.653-1.422-2.464-2.172,1.162-.519,2.347-1.016,3.571-1.5,2.7-1.052,5.646-2.032,8.948-2.987,1.127-.325,2.286-.64,3.493-.955a.577.577,0,0,1,.2-.007.642.642,0,0,1,.049.075l.055.149c.38,1.084.773,2.13,1.175,3.159a71.768,71.768,0,0,0,5.948,12.172c.172.279.347.549.52.821.153.237.3.477.451.711.039.058.081.117.12.175.078.12.156.244.234.364.214.318.445.63.669.942.617.877,1.25,1.75,1.916,2.653l.039.052a70.108,70.108,0,0,1-13.458-5.7A71.71,71.71,0,0,1,292.766,595.317Zm-3.088-11.438c-.409.169-.818.334-1.224.51s-.825.354-1.234.536c-.237.107-.477.211-.714.318-.74.334-1.471.675-2.188,1.029-.26.114-.37.117-.526-.026l-.068-.081a73.6,73.6,0,0,1-5.364-7.5c-.068-.11-.14-.218-.208-.328-.3-.48-.585-.968-.867-1.455-.127-.211-.257-.425-.38-.64-.231-.406-.451-.815-.675-1.221-.162-.3-.331-.6-.49-.906-.182-.344-.357-.695-.532-1.042-.185-.367-.373-.737-.555-1.107-.146-.305-.286-.61-.429-.919-.195-.416-.393-.834-.578-1.256-.127-.279-.244-.562-.364-.841-.192-.451-.383-.9-.565-1.354-.11-.273-.217-.549-.325-.825-.179-.461-.357-.919-.526-1.383-.1-.289-.2-.581-.305-.873-.159-.448-.315-.9-.464-1.348-.107-.328-.208-.656-.312-.987-.127-.412-.257-.825-.377-1.24-.114-.39-.224-.782-.331-1.175-.094-.351-.192-.7-.282-1.052-.123-.477-.24-.961-.354-1.442-.062-.26-.123-.519-.182-.782q-.2-.9-.383-1.8c-.026-.136-.055-.273-.081-.409-.14-.737-.273-1.474-.393-2.221-.253-1.562-.412-3.175-.565-4.74-.065-.659-.13-1.318-.2-1.977l-.006-.065h31.682q.068,2.289.188,4.532a145.971,145.971,0,0,0,4.448,29.442l-.571.156c-.331.091-.649.179-.974.266-3.539.929-6.87,1.977-10.036,3.156-.133.049-.266.1-.4.149q-.784.292-1.552.6C290.169,583.68,289.922,583.778,289.679,583.878ZM300.114,492.1c-2.665-.854-5.461-1.847-7.581-2.714-.3-.12-.594-.247-.886-.37-.5-.214-.951-.419-1.325-.6a72.048,72.048,0,0,1,8.99-7.081c2.318-1.48,4.828-2.945,7.3-4.26a71.993,71.993,0,0,1,10.984-4.454,62.849,62.849,0,0,0-5.37,8.318c-.159.286-.318.571-.471.864-.14.26-.273.523-.409.789a78.035,78.035,0,0,0-3.409,7.568c-.468,1.179-.929,2.386-1.377,3.64a.618.618,0,0,1-.049.071c-.653-.13-1.442-.325-2.308-.555C302.757,492.9,301.4,492.5,300.114,492.1Zm21.718-10.175c.292-.464.6-.906.9-1.348.127-.188.253-.38.383-.565.25-.354.51-.695.766-1.039.2-.263.39-.529.591-.786.159-.2.315-.386.471-.578.218-.269.435-.539.653-.792.156-.182.315-.354.471-.529.217-.244.432-.484.653-.714.169-.179.338-.347.507-.516q.3-.307.6-.594c.192-.182.383-.354.575-.526s.354-.312.532-.461c.217-.185.438-.361.656-.533.153-.12.305-.234.458-.347.244-.179.487-.354.734-.523.136-.091.273-.179.409-.266.257-.166.516-.325.776-.477.153-.088.305-.172.461-.253.234-.13.471-.257.711-.377.266-.13.536-.25.805-.367.224-.094.461-.185.708-.279v27.565c-2.162-.071-4.25-.185-6.292-.331-3.234-.24-6.289-.562-9.2-.964q-1.992-.278-3.929-.61a70.463,70.463,0,0,1,6.438-13.529C321.724,482.093,321.776,482,321.831,481.921ZM313,577.365l-.075.013a.342.342,0,0,1-.494-.4c-.188-.727-.36-1.471-.536-2.208-.127-.523-.26-1.042-.38-1.571-.062-.282-.117-.568-.179-.851a145.412,145.412,0,0,1-3.214-27.081h26.539v29.867c-.231.01-.461.016-.692.026-.675.023-1.364.055-2.052.1A142.309,142.309,0,0,0,313,577.365Zm-44.74-46.977a74.878,74.878,0,0,1,1.49-7.357h.007q.463-1.816,1.019-3.6l.052-.175c.156-.494.315-.981.481-1.464.068-.2.133-.4.2-.594.156-.441.312-.88.474-1.318.088-.234.179-.468.266-.7.159-.419.321-.838.49-1.253.094-.237.195-.471.292-.7q.448-1.072.929-2.127c.133-.292.266-.588.4-.88.159-.338.325-.669.49-1,.156-.318.312-.636.474-.951s.331-.636.5-.955q.268-.5.545-1c.159-.292.321-.584.487-.873.227-.4.464-.8.7-1.2.13-.214.253-.432.383-.643q.57-.935,1.169-1.86c.045-.065.091-.133.136-.2.377-.571.76-1.143,1.156-1.708.068-.1.14-.195.208-.292.4-.571.808-1.136,1.231-1.695l.088-.12q.706-.935,1.442-1.857c.2-.253.409-.506.536-.63a.194.194,0,0,1,.1-.029,7.783,7.783,0,0,1,.763.338,95.684,95.684,0,0,0,13.737,5.266c1.292.438,2.6.789,3.974,1.149.484.13.971.256,1.461.39-.182.7-.344,1.412-.516,2.117a151.941,151.941,0,0,0-4.117,31.857h-31.7c.036-.377.071-.75.107-1.123.065-.669.127-1.321.195-1.964h0C268.01,532.268,268.114,531.326,268.256,530.388Z" transform="translate(-150.62 -351.654)"/><path d="M265.786,498.41A111.708,111.708,0,0,1,400.51,477.865c-8.143-.451-16.266-.906-24.821-1.367v12.159a275.741,275.741,0,0,1,38.821,2.351c1.955.266,3.909.581,5.883.912.123.11.253.214.377.325.071-.072.12-.156.188-.234,2.237.377,4.516.776,6.883,1.162a18.793,18.793,0,0,0-.211-2.266c-3.682-16.526-4.5-30.925-4.4-47.776q0-.594.01-1.188H411.036c.533,9.99,1.065,18.581,1.591,27.7a124.925,124.925,0,0,0-156.88,20.117Z" transform="translate(-157.338 -393.242)"/><path d="M296.533,621.668a111.7,111.7,0,0,1-20.549-134.724c-.451,8.143-.906,16.27-1.364,24.822h12.156a275.708,275.708,0,0,1,2.351-38.822c.266-1.954.581-3.906.912-5.883.11-.123.214-.25.325-.377-.071-.071-.156-.12-.234-.185.377-2.24.776-4.519,1.166-6.883a18.265,18.265,0,0,0-2.269.208c-16.526,3.685-30.925,4.5-47.776,4.4l-1.188-.01v12.211c9.99-.536,18.581-1.068,27.7-1.594a124.925,124.925,0,0,0,20.117,156.88Z" transform="translate(-192.578 -353.535)"/><path d="M419.74,510.559A111.708,111.708,0,0,1,285.016,531.1c8.143.451,16.266.906,24.821,1.367V520.312a275.7,275.7,0,0,1-38.822-2.351c-1.954-.266-3.909-.581-5.883-.912-.127-.11-.253-.214-.377-.325-.071.071-.12.156-.188.234-2.237-.377-4.516-.776-6.883-1.162a18.874,18.874,0,0,0,.211,2.266c3.682,16.526,4.5,30.925,4.4,47.776q0,.594-.01,1.188H274.49c-.532-9.99-1.068-18.581-1.591-27.7a124.925,124.925,0,0,0,156.88-20.117Z" transform="translate(-152.984 -239.078)"/><path d="M308.982,467.313a111.7,111.7,0,0,1,20.549,134.724c.451-8.143.906-16.269,1.364-24.821H318.739a275.726,275.726,0,0,1-2.351,38.821c-.266,1.954-.581,3.906-.912,5.883-.11.123-.214.25-.325.373a2.589,2.589,0,0,0,.234.188c-.377,2.24-.776,4.519-1.166,6.883a18.869,18.869,0,0,0,2.27-.208c16.526-3.685,30.925-4.5,47.776-4.4l1.188.01V612.56c-9.99.536-18.581,1.068-27.7,1.594a124.921,124.921,0,0,0-20.12-156.88Z" transform="translate(-37.732 -358.797)"/></g></g></svg>