<svg xmlns="http://www.w3.org/2000/svg" width="375" height="375" viewBox="0 0 375 375"><defs><style>.a{fill:#64bca7;}.b{fill:#db1c24;}.c{fill:#fff;}.d{fill:#f28e33;font-size:51.472px;font-family:BebasNeue-Regular, Bebas Neue;}</style></defs><circle class="a" cx="177.5" cy="177.5" r="177.5" transform="translate(9 11)"/><path d="M945.39,185.178c-103.554,0-187.5,83.946-187.5,187.5s83.946,187.5,187.5,187.5,187.5-83.946,187.5-187.5S1048.943,185.178,945.39,185.178Zm0,358.442a170.942,170.942,0,1,1,170.942-170.941A170.942,170.942,0,0,1,945.39,543.62Z" transform="translate(-757.89 -185.178)"/><path class="b" d="M853,437h19l14-18,16,3,6,15h91l6-15,11-2,16,6v11h26V358l-12-19-20-10H853Z" transform="translate(-763.174 -190.37)"/><rect class="c" width="140.216" height="96" transform="translate(86.429 102.16)"/><path d="M1066.061,371.022a73.267,73.267,0,0,0-.514-8.412c-2.366-20.059-18.362-36.65-38.034-39.449a110.926,110.926,0,0,0-15.215-.748c-2.182-.007-4.438-.014-6.64-.08-1.145-.034-2.291-.026-3.553-.017-.307,0-.621.005-.944.006-.093-4.829-.075-9.632-.057-14.287.02-5.6.041-11.385-.134-17.066l-.031-.969h-153.6l-.154.814c-.883,4.679-.673,129.421,0,150.041l.214,1.968h21.58a23.217,23.217,0,0,0,44.725,0h79.552a23.216,23.216,0,0,0,44.788-.236l26.868-.031.977-.009.041-1.438c.041-1.028.135-3.435.136-4.669v-2.217C1066.088,413.508,1066.1,392.089,1066.061,371.022ZM859.427,392.876c2.483-.17,5.02-.142,7.484-.113,1.339.015,2.678.029,4.017.015,3.007-.032,6.012-.033,9.018-.033l99.1-.138q3.828-.012,7.657-.019,4.311-.008,8.922,0h5.295l.061-.935c.106-1.611.1-2.953.1-4.251v-.739q.027-18.565.015-37.13v-5.641H988.216v36c-39.432.206-79.378.246-118.017.285l-10.727.011v-77.64H988.216v32.486h1c.817,0,2.124-.01,3.77-.021,8.524-.063,26.265-.19,32.205.586,14.89,1.942,26.645,14.536,27.952,29.945.091,1.079.2,2.3.2,3.476q.02,29.136,0,58.273c0,.268,0,.535.007.807.008.51.014,1.031,0,1.6H1043l-5.186.036a23.221,23.221,0,0,0-44.456.269l-15.948,0c-21.395-.009-43.518-.017-63.767.065a23.223,23.223,0,0,0-44.493-.274l-9.72-.06Zm42.379,43.7a10.456,10.456,0,1,1-10.456-10.456A10.468,10.468,0,0,1,901.806,436.581Zm113.82-10.456a10.456,10.456,0,1,1-10.456,10.456A10.468,10.468,0,0,1,1015.626,426.125Z" transform="translate(-763.25 -190.049)"/><text class="d" transform="translate(124.353 169.364)"><tspan x="0" y="0">free</tspan></text></svg>