<svg xmlns="http://www.w3.org/2000/svg" width="375" height="375" viewBox="0 0 375 375"><defs><style>.a{fill:#64bca7;}.b{fill:#fff;}.c{fill:#f28e33;}</style></defs><g transform="translate(-491.537 -239.598)"><circle class="a" cx="177.76" cy="177.76" r="177.76" transform="translate(500.305 250.312)"/><path d="M679.037,239.6c-103.552,0-187.5,83.945-187.5,187.5s83.948,187.5,187.5,187.5,187.5-83.945,187.5-187.5S782.592,239.6,679.037,239.6Zm0,358.441A170.942,170.942,0,1,1,849.979,427.1,170.945,170.945,0,0,1,679.037,598.039Z" transform="translate(0 0)"/><path d="M706.321,351.171c.088.825.169,1.653.25,2.51q.068.711.136,1.432H666.269a191.486,191.486,0,0,0-5.912-43.338q.94-.253,1.867-.5c2.052-.542,3.99-1.052,5.912-1.76,5.789-2.127,11.468-4.4,17.26-6.74.48-.195.48-.2.792.185a91.253,91.253,0,0,1,17.786,35.208l12.1,2.5a102.271,102.271,0,0,0-100.058-82.325c-.175,0-.348,0-.526,0a102.492,102.492,0,1,0-.032,204.984h.006A102.42,102.42,0,0,0,718.026,361.1q.01-3.9-.266-7.747ZM588,273.856c-5.643,7.334-10.172,16.049-14.11,27.11a121.07,121.07,0,0,1-20.672-6.961A90.794,90.794,0,0,1,588,273.856Zm-63.594,79.539c.192-2.016.37-3.922.659-5.838A91.281,91.281,0,0,1,544.344,303.5a9.67,9.67,0,0,1,.744-.867,8.883,8.883,0,0,1,1.046.458,129.981,129.981,0,0,0,23.964,8.516c.166.042.331.088.5.14a191.065,191.065,0,0,0-5.9,43.383H524.24C524.3,354.551,524.35,353.973,524.406,353.395Zm20.708,65.636a1.409,1.409,0,0,1-.312-.321,91.058,91.058,0,0,1-19.549-43.5c-.321-1.994-.523-4.055-.721-6.049-.081-.841-.166-1.685-.256-2.526l-.01-.117h40.419a191.909,191.909,0,0,0,5.916,43.373l-.731.2c-1.156.315-2.286.623-3.416.935a121.319,121.319,0,0,0-21.052,7.89A1.932,1.932,0,0,1,545.113,419.031Zm8.078,8.584a125.935,125.935,0,0,1,20.584-6.981l.11-.023c.036.088.078.211.123.341a97.309,97.309,0,0,0,10.779,22.2c.955,1.425,2.006,2.8,3.023,4.133l.422.549A89.13,89.13,0,0,1,553.191,427.616Zm22.727-61.133h33.854v38.156c-.292.013-.588.023-.88.032-1.3.045-2.646.091-3.974.234-6.682.717-14.591,1.584-22.591,2.568a2.093,2.093,0,0,1-.711.023,1.408,1.408,0,0,1-.221-.568A181.967,181.967,0,0,1,575.919,366.483Zm33.873,84.591-.211-.091a32.522,32.522,0,0,1-2.977-1.416,33.64,33.64,0,0,1-10.1-9.25c-4.49-5.841-8.152-12.834-11.5-21.971a168.075,168.075,0,0,1,24.8-2.458Zm.091-105.308,0,9.289v.078H576.039c0-.191,0-.38-.007-.568-.01-1.091-.023-2.117.023-3.149a177.892,177.892,0,0,1,5.367-36.757c.123-.48.2-.558.179-.555a1.214,1.214,0,0,1,.5.033,168.747,168.747,0,0,0,27.448,2.776,2.578,2.578,0,0,1,.341.026,2.028,2.028,0,0,1,.016.3Q609.868,331.5,609.883,345.765Zm-.01-40a2.369,2.369,0,0,1-.432.013,191.912,191.912,0,0,1-24.133-2.39c-.107-.02-.214-.039-.322-.062,3.4-9.269,7.107-16.334,11.672-22.208,3.649-4.7,7.26-7.808,11.36-9.8.575-.276,1.175-.51,1.864-.773l0,7.893q0,13.412.026,26.825A2.377,2.377,0,0,1,609.873,305.762Zm67.9-11.747c-.4.185-.8.367-1.2.539a136.088,136.088,0,0,1-18.838,6.338,1.451,1.451,0,0,1-.63.088h0c-.023-.016-.13-.12-.325-.682a94.07,94.07,0,0,0-11.432-23.029c-.916-1.325-1.909-2.61-2.877-3.854C651.5,275.47,672.419,287.564,677.772,294.015Zm-56.591-23.438c.172.055.338.117.5.185,4.484,1.847,8.412,5.039,12.364,10.042,4.692,5.945,8.493,13.133,11.922,22.513a178.276,178.276,0,0,1-24.789,2.435Zm-.136,47.01c0-.468.042-.614.023-.614a1.68,1.68,0,0,1,.623-.081,169.132,169.132,0,0,0,27.068-2.73,4.4,4.4,0,0,1,.575-.068,1.269,1.269,0,0,1,.185.467,181.882,181.882,0,0,1,5.516,40.562H621.071v-8.714Q621.076,332,621.045,317.587Zm.1,48.955h33.886a181.146,181.146,0,0,1-5.51,40.507,2.9,2.9,0,0,1-.162.477,1.494,1.494,0,0,1-.552-.039,182.515,182.515,0,0,0-27.662-2.812Zm.331,84.422c-.107.042-.218.081-.325.12V415.931c4.471-.214,20.4,1.347,24.766,2.428C641.983,429.252,637.629,437,631.85,443.4A27.651,27.651,0,0,1,621.477,450.963Zm21.231-3.01.159-.218c1.324-1.8,2.578-3.49,3.75-5.269A93.255,93.255,0,0,0,656.8,421.252a2.078,2.078,0,0,1,.266-.588,1.547,1.547,0,0,1,.643.094,130.1,130.1,0,0,1,19.877,6.776l.175.078A91.508,91.508,0,0,1,642.708,447.953ZM705.9,373.983a91.567,91.567,0,0,1-19.536,44.484c-.477.591-.519.6-1.218.26a124.341,124.341,0,0,0-24.318-8.688c-.159-.042-.321-.081-.48-.127a190.78,190.78,0,0,0,5.912-43.36h40.448c-.059.568-.11,1.133-.162,1.7C706.36,370.229,706.185,372.1,705.9,373.983Z" transform="translate(48.054 42.115)"/><g transform="translate(658.668 383.561)"><path class="b" d="M674.541,331.265q0-13.831,0-27.666c0-3.542-1.8-5.757-5.228-6.448q-28.987-5.834-57.987-11.62a10.63,10.63,0,0,0-4.026.01q-28.826,5.723-57.633,11.552c-3.789.763-5.519,2.854-5.519,6.685,0,15.718-.026,31.438.019,47.156.013,3.442.143,6.9.464,10.325a102.108,102.108,0,0,0,18.165,49.688c11.305,16.169,26.156,28.166,43.851,36.737a6.154,6.154,0,0,0,5.662-.123,112.979,112.979,0,0,0,35.617-26.594c17.347-19.526,26.136-42.435,26.6-68.529C674.648,345.381,674.541,338.323,674.541,331.265Z" transform="translate(-540.487 -280.782)"/><path d="M680.716,332.43c0,7.455.11,14.906-.02,22.357-.49,27.555-9.769,51.747-28.088,72.364A119.254,119.254,0,0,1,615,455.232a6.489,6.489,0,0,1-5.98.13c-18.685-9.049-34.367-21.718-46.305-38.792A107.8,107.8,0,0,1,543.535,364.1c-.341-3.62-.481-7.269-.49-10.9-.052-16.6-.023-33.195-.023-49.8,0-4.042,1.825-6.253,5.828-7.058q30.429-6.117,60.857-12.2a11.156,11.156,0,0,1,4.253-.01q30.628,6.073,61.231,12.269c3.627.731,5.519,3.071,5.523,6.808Q680.723,317.827,680.716,332.43Zm-9.77-27.737c-19.6-3.945-39-7.847-58.4-11.734a4.1,4.1,0,0,0-1.578.042q-28.383,5.688-56.766,11.377c-1.182.234-1.442.711-1.438,1.825q.049,23.567.023,47.127a99.593,99.593,0,0,0,8.091,39.6c10.192,23.815,27.445,41.013,50.13,53.036a2.226,2.226,0,0,0,1.8-.039,109.931,109.931,0,0,0,37.89-31.838,99.9,99.9,0,0,0,20.214-59.649c.2-15.974.039-31.951.039-47.929Z" transform="translate(-543.013 -283.938)"/><g transform="translate(9.748 8.963)"><path d="M605.165,288.647a1.247,1.247,0,0,1,.25.023c16.74,3.351,33.481,6.718,50.351,10.11l6.487,1.305v.224q0,7.4.029,14.792c.036,10.854.068,22.081-.068,33.11a98.3,98.3,0,0,1-19.831,58.513A108.521,108.521,0,0,1,605.2,437.978a.784.784,0,0,1-.117.01h-.016c-23.084-12.263-39.617-29.766-49.143-52.026a97.982,97.982,0,0,1-7.935-38.834V346.02c0-15.065.01-30.64-.023-45.961,12.7-2.526,25.6-5.117,38.078-7.623q9.278-1.865,18.562-3.727a3.054,3.054,0,0,1,.562-.062m0-1.948a4.8,4.8,0,0,0-.945.1q-28.383,5.688-56.766,11.377c-1.179.234-1.442.711-1.438,1.825q.049,23.567.023,47.127a99.594,99.594,0,0,0,8.091,39.6c10.191,23.815,27.445,41.013,50.126,53.036a1.817,1.817,0,0,0,.825.172,2.2,2.2,0,0,0,.977-.211,109.931,109.931,0,0,0,37.89-31.838,99.9,99.9,0,0,0,20.214-59.653c.2-15.971.039-31.948.039-47.925v-1.818c-19.6-3.945-39-7.847-58.4-11.734a3.4,3.4,0,0,0-.633-.058Z" transform="translate(-546.016 -286.699)"/></g></g><g transform="translate(691.221 414.574)"><path class="c" d="M617.116,323.625c-.036-.169-.042,1.685-.062,3.536h-9.617l-.117-5.312c-.305-4.195-1.5-9.318-4.084-12.464a16.682,16.682,0,0,0-10.059-5.945c-5.851-1.107-10.938.718-15.127,4.847a15.126,15.126,0,0,0-4.734,9.919c-.243,3.779-.182,7.575-.243,11.364a1.9,1.9,0,0,0,0,.64H574.5q22.666-.01,45.328-.016a7.511,7.511,0,0,1,7.256,6.422,33.314,33.314,0,0,1,.227,3.688q.024,17.2,0,34.4c-.006,3-1.075,5.575-3.727,7.156a7.444,7.444,0,0,1-3.581,1.1q-29.869.092-59.737.029a7.562,7.562,0,0,1-6.968-6.2,34.352,34.352,0,0,1-.244-3.919q-.029-17.138-.007-34.279a8.662,8.662,0,0,1,1.516-5.136,7.112,7.112,0,0,1,5.968-3.227c2.945-.033,2.948-.01,2.945-2.987,0-2.675-.049-5.347.013-8.02a25.818,25.818,0,0,1,6.12-16.117,26.334,26.334,0,0,1,12.4-8.386,27.3,27.3,0,0,1,12-.967,24.732,24.732,0,0,1,12.266,5.075A25.856,25.856,0,0,1,616.661,316.6a21.576,21.576,0,0,1,.182,3Z" transform="translate(-553.04 -293.491)"/><path class="b" d="M575.458,336.395v-1.467c0-2.672.032-5.341-.023-8.01a2.09,2.09,0,0,1,.922-1.841c2.857-2.256,4.234-5.143,3.523-8.805a9.116,9.116,0,0,0-10.867-7.419,8.966,8.966,0,0,0-7.01,6.711,8.011,8.011,0,0,0,2.533,8.717,4.968,4.968,0,0,1,1.792,4.578c-.071,2.088-.016,4.179-.016,6.269v1.266Z" transform="translate(-533.766 -259.41)"/></g></g></svg>