<svg xmlns="http://www.w3.org/2000/svg" width="375" height="375" viewBox="0 0 375 375"><defs><style>.a{fill:#64bca7;}.b{fill:#fff;}.c{fill:#f28e33;}</style></defs><g transform="translate(-225.437 -239.443)"><circle class="a" cx="177.76" cy="177.76" r="177.76" transform="translate(234.205 250.158)"/><path d="M412.937,239.443c-103.552,0-187.5,83.945-187.5,187.5s83.948,187.5,187.5,187.5,187.5-83.945,187.5-187.5S516.492,239.443,412.937,239.443Zm0,358.441A170.942,170.942,0,1,1,583.879,426.943,170.943,170.943,0,0,1,412.937,597.885Z" transform="translate(0 0)"/><g transform="translate(343.867 345.922)"><path class="b" d="M393.441,319.565q0-13.831,0-27.666c0-3.542-1.8-5.756-5.227-6.448q-28.987-5.834-57.987-11.62a10.629,10.629,0,0,0-4.026.01q-28.826,5.722-57.633,11.552c-3.789.763-5.519,2.854-5.519,6.685,0,15.717-.026,31.438.019,47.156.013,3.442.143,6.9.464,10.325a102.106,102.106,0,0,0,18.166,49.688c11.305,16.169,26.156,28.166,43.851,36.737a6.154,6.154,0,0,0,5.662-.123,112.98,112.98,0,0,0,35.617-26.594c17.347-19.526,26.136-42.435,26.6-68.529C393.548,333.682,393.441,326.623,393.441,319.565Z" transform="translate(-259.388 -269.082)"/><path d="M399.616,320.73c0,7.455.11,14.906-.019,22.357-.49,27.555-9.769,51.747-28.088,72.364a119.254,119.254,0,0,1-37.61,28.081,6.489,6.489,0,0,1-5.98.13c-18.685-9.049-34.367-21.718-46.305-38.792A107.8,107.8,0,0,1,262.435,352.4c-.341-3.62-.48-7.269-.49-10.9-.052-16.6-.023-33.195-.023-49.8,0-4.042,1.825-6.253,5.828-7.058q30.429-6.117,60.857-12.2a11.16,11.16,0,0,1,4.253-.01q30.628,6.073,61.23,12.27c3.627.73,5.52,3.071,5.523,6.808Q399.623,306.127,399.616,320.73Zm-9.77-27.737c-19.6-3.945-39-7.848-58.4-11.734a4.1,4.1,0,0,0-1.578.042q-28.383,5.688-56.766,11.377c-1.182.234-1.441.711-1.438,1.825q.049,23.566.023,47.127a99.6,99.6,0,0,0,8.091,39.6c10.191,23.815,27.445,41.013,50.13,53.036a2.227,2.227,0,0,0,1.8-.039,109.932,109.932,0,0,0,37.89-31.838,99.9,99.9,0,0,0,20.214-59.649c.2-15.974.039-31.951.039-47.929Z" transform="translate(-261.913 -272.239)"/><g transform="translate(9.748 8.963)"><path d="M324.065,276.947a1.249,1.249,0,0,1,.25.023c16.74,3.351,33.481,6.718,50.351,10.11l6.487,1.305v.224q0,7.4.029,14.792c.036,10.854.068,22.081-.068,33.11a98.3,98.3,0,0,1-19.831,58.513A108.52,108.52,0,0,1,324.1,426.278a.781.781,0,0,1-.117.01h-.016c-23.084-12.263-39.617-29.766-49.143-52.026a97.983,97.983,0,0,1-7.935-38.834V334.32c0-15.065.01-30.64-.023-45.961,12.7-2.526,25.6-5.117,38.078-7.623q9.278-1.865,18.562-3.727a3.046,3.046,0,0,1,.562-.062m0-1.948a4.8,4.8,0,0,0-.945.1q-28.383,5.688-56.766,11.377c-1.179.234-1.441.711-1.438,1.825q.049,23.566.023,47.127a99.6,99.6,0,0,0,8.091,39.6c10.191,23.815,27.445,41.013,50.127,53.036a1.818,1.818,0,0,0,.825.172,2.2,2.2,0,0,0,.977-.211,109.934,109.934,0,0,0,37.89-31.838,99.9,99.9,0,0,0,20.214-59.653c.2-15.971.039-31.948.039-47.925v-1.818c-19.6-3.945-39-7.848-58.4-11.734a3.407,3.407,0,0,0-.633-.058Z" transform="translate(-264.916 -274.999)"/></g></g><path d="M315.317,253.017l7.515,15.228,16.8,2.442-12.16,11.853,2.871,16.737-15.03-7.9-15.031,7.9,2.871-16.737L291,270.686l16.8-2.442Z" transform="translate(147.297 30.498)"/><path d="M268.525,266.074,276.04,281.3l16.8,2.442L280.685,295.6l2.87,16.737-15.03-7.9-15.03,7.9,2.871-16.737-12.16-11.853,16.8-2.442Z" transform="translate(42.168 59.834)"/><path d="M336.025,278.674,343.54,293.9l16.8,2.442L348.185,308.2l2.871,16.737-15.03-7.9-15.031,7.9,2.871-16.737-12.16-11.853,16.8-2.442Z" transform="translate(193.824 88.143)"/><path d="M289.914,252.112l7.515,15.228,16.8,2.442-12.16,11.853,2.871,16.737-15.031-7.9-15.03,7.9,2.871-16.737-12.16-11.853,16.8-2.442Z" transform="translate(90.223 28.465)"/><path d="M333.317,302.217l7.515,15.227,16.8,2.442-12.16,11.853,2.871,16.737-15.03-7.9-15.031,7.9,2.871-16.737L309,319.887l16.8-2.442Z" transform="translate(187.739 141.038)"/><path d="M263.949,290.217l7.515,15.227,16.8,2.442-12.16,11.853,2.871,16.737-15.03-7.9-15.031,7.9,2.871-16.737-12.16-11.853,16.8-2.442Z" transform="translate(31.887 114.077)"/><path d="M414.884,373.251a116.908,116.908,0,0,1-154.7-58.331c-.26-.575-.51-1.153-.76-1.73l-11.955,7.244c.029.065.058.133.088.2a130.82,130.82,0,0,0,214.273,35.86l-11.627-7.9A116.556,116.556,0,0,1,414.884,373.251Z" transform="translate(49.507 165.689)"/><g transform="translate(362.784 326.997)"><path class="c" d="M270.887,328.5a69.236,69.236,0,0,1,30.789,10.8c6.383,4.179,12.221,9.211,18.175,14.016,1.513,1.221,2.224,1.318,3.393-.321a227.067,227.067,0,0,1,36.9-40.328,313.275,313.275,0,0,1,35.347-26.3c10.188-6.549,20.669-12.646,31.042-18.9,2.607-1.571,3.9-1.37,5.243.545q1.695,2.421-1.39,4.99A517.513,517.513,0,0,0,383.344,317.1a321.623,321.623,0,0,0-46.649,63.221c-3.919,7.045-7.217,14.432-10.964,21.575-.575,1.094-2.084,2.461-3.065,2.39a4.9,4.9,0,0,1-3.292-2.507c-7.468-15.289-15.942-29.993-26.98-42.964-6.682-7.851-14.36-14.854-21.6-22.231-.679-.688-1.669-1.191-2.075-2-.558-1.11-1.247-2.646-.87-3.6C268.27,329.917,269.825,329.3,270.887,328.5Z" transform="translate(-267.74 -266.41)"/></g></g></svg>