<svg id="Group_1396" data-name="Group 1396" xmlns="http://www.w3.org/2000/svg" width="173.895" height="184.397" viewBox="0 0 173.895 184.397">
  <circle id="Ellipse_50" data-name="Ellipse 50" cx="82.431" cy="82.431" r="82.431" transform="translate(4.065 4.968)" fill="#a3d147"/>
  <path id="Path_539" data-name="Path 539" d="M587.713,236.3a86.947,86.947,0,1,0,86.947,86.947A86.947,86.947,0,0,0,587.713,236.3Zm0,166.216a79.269,79.269,0,1,1,79.269-79.269A79.269,79.269,0,0,1,587.713,402.514Z" transform="translate(-500.766 -236.298)"/>
  <path id="Path_540" data-name="Path 540" d="M528.038,280.69a60.712,60.712,0,0,0-9.268,42.745l.015,0c.178,1.222.387,2.448.641,3.674a60.97,60.97,0,0,0,93.834,38.037l-4.487-4.773a54.516,54.516,0,0,1-83.024-34.583,59.05,59.05,0,0,1-1.223-10.4c0-.111-.008-.223-.009-.334,0-.22,0-.441-.006-.661A54.49,54.49,0,0,1,627.2,288.706c-3.2-2.364-6.394-4.723-9.761-7.2l-3.255,4.959a134.4,134.4,0,0,1,15.209,11.349c.726.632,1.438,1.283,2.156,1.945.021.08.045.157.066.235.048-.01.092-.032.138-.047.813.754,1.635,1.527,2.5,2.317a9.067,9.067,0,0,0,.522-.98,98.922,98.922,0,0,1,10.992-20.669c.107-.16.215-.321.322-.482l-4.98-3.267c-2.456,4.219-4.538,7.865-6.765,11.727a60.949,60.949,0,0,0-106.3-7.9Z" transform="translate(-492.029 -227.769)"/>
  <g id="Group_1387" data-name="Group 1387" transform="translate(84.087 119.424)">
    <path id="Path_541" data-name="Path 541" d="M586.786,337.268c.95-.077,2.827-.194,4.7-.382a32.792,32.792,0,0,0,6.165-1.256,23.649,23.649,0,0,0,6.74-3.071,9.611,9.611,0,0,0,3.332-3.535,4.031,4.031,0,0,0,.337-2.954,6.5,6.5,0,0,0-1.671-2.761,15.157,15.157,0,0,0-3.916-2.821,26.672,26.672,0,0,0-4.509-1.826,33.649,33.649,0,0,0-5.148-1.186c-1.378-.209-2.772-.313-4.161-.425a41.391,41.391,0,0,0-9.8.438,47.991,47.991,0,0,0-4.777,1.1,22.109,22.109,0,0,0-6.134,2.662,10.363,10.363,0,0,0-3.814,3.716,4.209,4.209,0,0,0-.009,4.258,9.352,9.352,0,0,0,2.716,2.969,21.237,21.237,0,0,0,5.959,3.028,35.826,35.826,0,0,0,6.581,1.56A53.8,53.8,0,0,0,586.786,337.268Z" transform="translate(-553.112 -314.956)"/>
    <path id="Path_542" data-name="Path 542" d="M575.055,344.985c.062.077.071.1.087.105a29.654,29.654,0,0,0,5.422,1.394c1.615.256,3.247.425,4.88.551a41.86,41.86,0,0,0,10.051-.5,34.715,34.715,0,0,0,6.1-1.552,20.01,20.01,0,0,0,6.224-3.392,7.828,7.828,0,0,0,2.4-3.132,4.08,4.08,0,0,0-.372-3.7,9.058,9.058,0,0,0-2.379-2.606,21.284,21.284,0,0,0-4.435-2.553.538.538,0,0,0-.75.17,11.542,11.542,0,0,1-2.656,2.243c-1.025.644-2.117,1.183-3.171,1.784a.644.644,0,0,0-.294.363,8.673,8.673,0,0,1-2.561,4.291,18.582,18.582,0,0,1-5.688,3.624,31.213,31.213,0,0,1-7.359,2.173c-1.573.256-3.16.425-4.741.634C575.574,344.913,575.336,344.946,575.055,344.985Z" transform="translate(-547.294 -308.593)"/>
    <path id="Path_543" data-name="Path 543" d="M607.371,346.376a1.915,1.915,0,0,0-.244.166,18.269,18.269,0,0,1-4.812,3.074,27.147,27.147,0,0,1-5.163,1.8c-1.614.369-3.241.681-4.87.977a17.01,17.01,0,0,1-2.144.223c-1.593.089-3.187.209-4.782.2a40.455,40.455,0,0,1-7.2-.625c-1.275-.233-2.547-.506-3.8-.839-1.11-.294-2.2-.667-3.282-1.051a19.9,19.9,0,0,1-6.474-3.708c-.075-.065-.164-.116-.27-.191-.134.248-.253.459-.363.674a3.683,3.683,0,0,0-.285,2.77,7.307,7.307,0,0,0,2.474,3.488,18.565,18.565,0,0,0,5,2.942,28.366,28.366,0,0,0,4.573,1.477c1.058.247,2.123.474,3.195.649.98.16,1.972.248,2.96.345a41.5,41.5,0,0,0,6.4.117,33.861,33.861,0,0,0,5.629-.683c1.612-.372,3.24-.711,4.81-1.219a19.722,19.722,0,0,0,6.816-3.606,7.783,7.783,0,0,0,2.37-3.117A4.056,4.056,0,0,0,607.371,346.376Z" transform="translate(-553.116 -300.069)"/>
    <path id="Path_544" data-name="Path 544" d="M593.867,339.324l-.021-.116c-.1,0-.206-.008-.307,0-.559.047-1.117.107-1.676.143a49.255,49.255,0,0,1-6.975-.02,43.993,43.993,0,0,1-5.647-.792,35.464,35.464,0,0,1-5.14-1.468,21.51,21.51,0,0,1-6.74-3.821,9.98,9.98,0,0,1-2.2-2.642,6.058,6.058,0,0,1-.87-2.686c-.044-.973-.048-1.945-.071-2.916,0-.122-.01-.244-.018-.4a2.46,2.46,0,0,0-.236.1c-.733.44-1.489.846-2.194,1.328a9.134,9.134,0,0,0-3.081,3.264,4.125,4.125,0,0,0-.5,2.627,6.053,6.053,0,0,0,1.748,3.2,14.744,14.744,0,0,0,3.6,2.665,25.127,25.127,0,0,0,5.819,2.288,44.53,44.53,0,0,0,4.717.944,40.969,40.969,0,0,0,4.639.426c1.721.056,3.449.018,5.169-.09a40.291,40.291,0,0,0,4.306-.539c1.215-.209,2.41-.537,3.606-.846C592.5,339.787,593.178,339.54,593.867,339.324Z" transform="translate(-555.844 -311.078)"/>
    <path id="Path_545" data-name="Path 545" d="M599.268,348.517l-.021-.111c-.1,0-.2-.006-.306,0-1.192.075-2.383.172-3.576.227a44.206,44.206,0,0,1-9.351-.628,35.132,35.132,0,0,1-5.434-1.352,25.53,25.53,0,0,1-5.786-2.678,12.486,12.486,0,0,1-3.811-3.526,1.224,1.224,0,0,0-.9-.539c-1.007-.182-2.014-.375-3.01-.613-.9-.215-1.786-.5-2.683-.739a.382.382,0,0,0-.337.1,3.936,3.936,0,0,0-.032,3.823,8.144,8.144,0,0,0,2.129,2.609,20.729,20.729,0,0,0,6.954,3.683,30.834,30.834,0,0,0,6.318,1.441c1.722.2,3.449.361,5.178.453a33.471,33.471,0,0,0,5.733-.211c1.08-.128,2.167-.227,3.234-.432,1.253-.239,2.492-.559,3.728-.879C597.962,348.976,598.611,348.731,599.268,348.517Z" transform="translate(-553.114 -304.024)"/>
    <path id="Path_546" data-name="Path 546" d="M592.429,380.469c1.378-.137,2.766-.209,4.131-.425a35.877,35.877,0,0,0,8.324-2.254,20.105,20.105,0,0,0,5.735-3.434,9.491,9.491,0,0,0,2.674-3.642,7.039,7.039,0,0,0,.458-2.511c.007-1.174-.012-2.349,0-3.523a6.8,6.8,0,0,0-1.182-4.006.712.712,0,0,1,.014-.952,7.02,7.02,0,0,0,1.031-2.3.583.583,0,0,1,.279-.337,21.477,21.477,0,0,0,4.323-2.623,9.771,9.771,0,0,0,3.335-4.414c.11-.322.179-.658.268-.988l.038,0s.744-3.634,0-5.991a7.686,7.686,0,0,0-1.412-3.174,13.343,13.343,0,0,0-3.008-2.883,22.733,22.733,0,0,0-4.068-2.242c-.253-.111-.272-.221-.164-.458a6.133,6.133,0,0,0,.543-2.553c0-1.3.023-2.6,0-3.9a7.184,7.184,0,0,0-1.46-4.24,14.735,14.735,0,0,0-4.747-3.978,26.1,26.1,0,0,0-4.547-1.987c-1.087-.369-2.206-.652-3.321-.93a40.832,40.832,0,0,0-6.254-.986c-.348-.032-.7-.038-1.045-.06,0,0-4.258-.145-6.1,0-1.709.139-3.406.315-5.1.608a35.188,35.188,0,0,0-5.309,1.325,21.869,21.869,0,0,0-7.846,4.273,9.406,9.406,0,0,0-2.575,3.562c-.137.352-.2.733-.331,1.09a.628.628,0,0,1-.268.337,20.9,20.9,0,0,0-4.375,2.66,9.734,9.734,0,0,0-3.281,4.378c-.111.336-.176.685-.3,1.027a15.965,15.965,0,0,0,0,5.961,8.26,8.26,0,0,0,.87,2.3,9.924,9.924,0,0,0,1.773,2.261,19.26,19.26,0,0,0,5.818,3.71c.256.113.294.217.182.477a6.749,6.749,0,0,0-.543,2.746c.013,1.164.018,2.328,0,3.491a6.883,6.883,0,0,0,1.2,4,.556.556,0,0,1,.009.73,6.87,6.87,0,0,0-1.209,4.032c.015,1.09.012,2.18,0,3.269a7.422,7.422,0,0,0,1.57,4.747,13.585,13.585,0,0,0,3.049,2.838,24.066,24.066,0,0,0,6.161,2.993,35.339,35.339,0,0,0,5.276,1.334,44.024,44.024,0,0,0,5.474.644A39.823,39.823,0,0,0,592.429,380.469Z" transform="translate(-556.616 -315.619)"/>
    <path id="Path_547" data-name="Path 547" d="M575.055,344.985c.282-.039.52-.072.759-.1,1.581-.209,3.168-.378,4.741-.634a31.213,31.213,0,0,0,7.359-2.173,18.582,18.582,0,0,0,5.688-3.624,8.673,8.673,0,0,0,2.561-4.291.644.644,0,0,1,.294-.363c1.054-.6,2.145-1.14,3.171-1.784a11.542,11.542,0,0,0,2.656-2.243.538.538,0,0,1,.75-.17,21.284,21.284,0,0,1,4.435,2.553,9.058,9.058,0,0,1,2.379,2.606,4.08,4.08,0,0,1,.372,3.7,7.828,7.828,0,0,1-2.4,3.132,20.01,20.01,0,0,1-6.224,3.392,34.715,34.715,0,0,1-6.1,1.552,41.86,41.86,0,0,1-10.051.5c-1.632-.126-3.264-.3-4.88-.551a29.654,29.654,0,0,1-5.422-1.394C575.126,345.085,575.117,345.062,575.055,344.985Z" transform="translate(-547.294 -308.593)" fill="#23aaf7"/>
    <path id="Path_548" data-name="Path 548" d="M607.371,346.376a4.056,4.056,0,0,1,.55,3.869,7.783,7.783,0,0,1-2.37,3.117,19.722,19.722,0,0,1-6.816,3.606c-1.57.509-3.2.848-4.81,1.219a33.861,33.861,0,0,1-5.629.683,41.5,41.5,0,0,1-6.4-.117c-.988-.1-1.98-.185-2.96-.345-1.072-.175-2.136-.4-3.195-.649a28.366,28.366,0,0,1-4.573-1.477,18.565,18.565,0,0,1-5-2.942,7.307,7.307,0,0,1-2.474-3.488,3.683,3.683,0,0,1,.285-2.77c.11-.215.229-.426.363-.674.105.075.194.126.27.191a19.9,19.9,0,0,0,6.474,3.708c1.082.384,2.172.757,3.282,1.051,1.253.333,2.525.605,3.8.839a40.455,40.455,0,0,0,7.2.625c1.594,0,3.189-.116,4.782-.2a17.01,17.01,0,0,0,2.144-.223c1.629-.3,3.256-.608,4.87-.977a27.147,27.147,0,0,0,5.163-1.8,18.269,18.269,0,0,0,4.812-3.074A1.915,1.915,0,0,1,607.371,346.376Z" transform="translate(-553.116 -300.069)" fill="#23aaf7"/>
    <path id="Path_549" data-name="Path 549" d="M593.867,339.324c-.69.217-1.37.464-2.069.646-1.2.309-2.391.637-3.606.846a40.291,40.291,0,0,1-4.306.539c-1.719.108-3.448.146-5.169.09a40.969,40.969,0,0,1-4.639-.426,44.53,44.53,0,0,1-4.717-.944,25.127,25.127,0,0,1-5.819-2.288,14.744,14.744,0,0,1-3.6-2.665,6.053,6.053,0,0,1-1.748-3.2,4.125,4.125,0,0,1,.5-2.627,9.134,9.134,0,0,1,3.081-3.264c.7-.482,1.46-.888,2.194-1.328a2.46,2.46,0,0,1,.236-.1c.008.16.015.282.018.4.023.971.027,1.944.071,2.916a6.058,6.058,0,0,0,.87,2.686,9.98,9.98,0,0,0,2.2,2.642,21.51,21.51,0,0,0,6.74,3.821,35.464,35.464,0,0,0,5.14,1.468,43.993,43.993,0,0,0,5.647.792,49.255,49.255,0,0,0,6.975.02c.559-.036,1.117-.1,1.676-.143.1-.008.2,0,.307,0Z" transform="translate(-555.844 -311.078)" fill="#23aaf7"/>
    <path id="Path_550" data-name="Path 550" d="M599.268,348.517c-.656.214-1.305.459-1.972.632-1.236.321-2.475.64-3.728.879-1.067.2-2.154.3-3.234.432a33.471,33.471,0,0,1-5.733.211c-1.728-.092-3.455-.257-5.178-.453a30.834,30.834,0,0,1-6.318-1.441,20.729,20.729,0,0,1-6.954-3.683,8.144,8.144,0,0,1-2.129-2.609,3.936,3.936,0,0,1,.032-3.823.382.382,0,0,1,.337-.1c.9.238,1.781.524,2.683.739,1,.238,2,.431,3.01.613a1.224,1.224,0,0,1,.9.539,12.486,12.486,0,0,0,3.811,3.526,25.53,25.53,0,0,0,5.786,2.678,35.132,35.132,0,0,0,5.434,1.352,44.206,44.206,0,0,0,9.351.628c1.192-.056,2.383-.152,3.576-.227.1-.008.2,0,.306,0Z" transform="translate(-553.114 -304.024)" fill="#fff"/>
    <path id="Path_551" data-name="Path 551" d="M586.786,337.268a53.8,53.8,0,0,1-7.41-.489,35.826,35.826,0,0,1-6.581-1.56,21.237,21.237,0,0,1-5.959-3.028,9.352,9.352,0,0,1-2.716-2.969,4.209,4.209,0,0,1,.009-4.258,10.363,10.363,0,0,1,3.814-3.716,22.109,22.109,0,0,1,6.134-2.662,47.991,47.991,0,0,1,4.777-1.1,41.391,41.391,0,0,1,9.8-.438c1.39.111,2.784.215,4.161.425a33.649,33.649,0,0,1,5.148,1.186,26.672,26.672,0,0,1,4.509,1.826,15.157,15.157,0,0,1,3.916,2.821,6.5,6.5,0,0,1,1.671,2.761,4.031,4.031,0,0,1-.337,2.954,9.611,9.611,0,0,1-3.332,3.535,23.649,23.649,0,0,1-6.74,3.071,32.792,32.792,0,0,1-6.165,1.256C589.614,337.074,587.736,337.191,586.786,337.268Z" transform="translate(-553.112 -314.956)" fill="#fff"/>
  </g>
  <g id="Group_1388" data-name="Group 1388" transform="translate(43.367 59.365)">
    <path id="Path_552" data-name="Path 552" d="M546.194,279.409h-2.549v-1.73a6.432,6.432,0,0,0,1.673-.176,2.119,2.119,0,0,0,1.01-.589,3.637,3.637,0,0,0,.664-1.186h1.641v15.524h-2.439Z" transform="translate(-522.454 -275.728)" fill="#fff"/>
    <path id="Path_553" data-name="Path 553" d="M553.236,288.435h-4.658v-2.218l4.435-10.489h2.662v10.489h1.153v2.218h-1.153v2.817h-2.439Zm0-2.218v-6.054h-.045l-2.4,6.054Z" transform="translate(-519.96 -275.728)" fill="#fff"/>
    <path id="Path_554" data-name="Path 554" d="M557.209,275.728h3.726a3.549,3.549,0,0,1,2.727.976,4.054,4.054,0,0,1,.911,2.861v7.85a4.055,4.055,0,0,1-.911,2.862,3.549,3.549,0,0,1-2.727.976h-3.726Zm3.681,13.3a1.18,1.18,0,0,0,.921-.354,1.7,1.7,0,0,0,.321-1.153v-8.071a1.7,1.7,0,0,0-.321-1.153,1.181,1.181,0,0,0-.921-.355h-1.242v11.087Z" transform="translate(-515.596 -275.728)" fill="#fff"/>
    <path id="Path_555" data-name="Path 555" d="M565.288,275.728h3.306l2.526,15.524h-2.439l-.444-3.083v.045h-2.77l-.444,3.038h-2.261Zm2.662,10.379-1.087-7.674h-.044l-1.064,7.674Z" transform="translate(-512.789 -275.728)" fill="#fff"/>
    <path id="Path_556" data-name="Path 556" d="M571.573,284.643l-2.949-8.914h2.594l1.664,5.7h.044l1.664-5.7h2.373l-2.949,8.914v6.61h-2.439Z" transform="translate(-509.825 -275.728)" fill="#fff"/>
    <path id="Path_557" data-name="Path 557" d="M529.57,288.028h3.482l1.552,11.11h.044l1.554-11.11h3.481v15.523h-2.307V291.8h-.044l-1.774,11.753h-2.042L531.744,291.8H531.7v11.753H529.57Z" transform="translate(-529.57 -269.509)" fill="#fff"/>
    <path id="Path_558" data-name="Path 558" d="M538.33,302.827a4.061,4.061,0,0,1-.953-2.882v-8.162a4.064,4.064,0,0,1,.953-2.883,4.219,4.219,0,0,1,5.5,0,4.064,4.064,0,0,1,.953,2.883v8.162a4.061,4.061,0,0,1-.953,2.882,4.215,4.215,0,0,1-5.5,0Zm4.014-2.727v-8.472q0-1.531-1.263-1.53t-1.265,1.53V300.1q0,1.529,1.265,1.53T542.344,300.1Z" transform="translate(-525.623 -269.584)" fill="#fff"/>
    <path id="Path_559" data-name="Path 559" d="M543.386,288.028h3.061l2.373,9.292h.044v-9.292h2.174v15.523h-2.505L545.6,292.22h-.045v11.331h-2.172Z" transform="translate(-522.585 -269.509)" fill="#fff"/>
    <path id="Path_560" data-name="Path 560" d="M549.675,288.028h6.653v2.218h-4.214v4.1h3.35v2.218h-3.35v4.768h4.214v2.216h-6.653Z" transform="translate(-519.405 -269.509)" fill="#fff"/>
    <path id="Path_561" data-name="Path 561" d="M557.5,296.943l-2.95-8.915h2.593l1.665,5.7h.044l1.664-5.7h2.373l-2.949,8.915v6.608H557.5Z" transform="translate(-516.94 -269.509)" fill="#fff"/>
    <path id="Path_562" data-name="Path 562" d="M560.59,292.447h4.878v2.216H560.59Z" transform="translate(-513.887 -267.275)" fill="#fff"/>
    <path id="Path_563" data-name="Path 563" d="M564.8,288.028h3.681a3.12,3.12,0,0,1,3.615,3.57v.622a4.28,4.28,0,0,1-.387,1.951,2.277,2.277,0,0,1-1.186,1.087v.044q1.816.621,1.817,3.239v1.331a3.7,3.7,0,0,1-.942,2.737,3.743,3.743,0,0,1-2.76.943H564.8Zm3.394,6.32a1.463,1.463,0,0,0,1.1-.376,1.783,1.783,0,0,0,.364-1.265v-.864a1.968,1.968,0,0,0-.3-1.221,1.133,1.133,0,0,0-.943-.376h-1.176v4.1Zm.444,6.986a1.214,1.214,0,0,0,.951-.345,1.766,1.766,0,0,0,.31-1.186v-1.352a2.259,2.259,0,0,0-.364-1.475,1.551,1.551,0,0,0-1.207-.41h-1.089v4.768Z" transform="translate(-511.757 -269.509)" fill="#fff"/>
    <path id="Path_564" data-name="Path 564" d="M572.853,288.028h3.3l2.528,15.523h-2.439l-.444-3.082v.044h-2.772l-.444,3.038h-2.261Zm2.66,10.378-1.086-7.672h-.044l-1.066,7.672Z" transform="translate(-508.965 -269.509)" fill="#fff"/>
    <path id="Path_565" data-name="Path 565" d="M577.476,302.849a4,4,0,0,1-.92-2.817v-8.338a4,4,0,0,1,.92-2.817,4.081,4.081,0,0,1,5.345,0,4.007,4.007,0,0,1,.92,2.817v1.641h-2.307v-1.8q0-1.441-1.221-1.441t-1.218,1.441v8.671q0,1.42,1.218,1.42t1.221-1.42v-2.373h2.307v2.2a4.007,4.007,0,0,1-.92,2.817,4.076,4.076,0,0,1-5.345,0Z" transform="translate(-505.815 -269.584)" fill="#fff"/>
    <path id="Path_566" data-name="Path 566" d="M582.3,288.028h2.439v6.542l3.1-6.542h2.44l-2.906,5.7,2.949,9.824h-2.55l-2.063-6.918-.976,1.974v4.944H582.3Z" transform="translate(-502.911 -269.509)" fill="#fff"/>
    <path id="Path_567" data-name="Path 567" d="M533.912,315.138a4.122,4.122,0,0,1-.932-2.9v-8.16a4.114,4.114,0,0,1,.932-2.892,4.126,4.126,0,0,1,5.41,0,4.107,4.107,0,0,1,.933,2.892v1.331h-2.308v-1.486q0-1.529-1.263-1.53t-1.263,1.53v8.494q0,1.509,1.263,1.509t1.263-1.509v-3.038h-1.218v-2.219h3.526v5.078a4.115,4.115,0,0,1-.933,2.9,4.131,4.131,0,0,1-5.41,0Z" transform="translate(-527.846 -263.366)" fill="#fff"/>
    <path id="Path_568" data-name="Path 568" d="M539.73,315.064a4.115,4.115,0,0,1-.932-2.9V300.327h2.439v12.021a1.682,1.682,0,0,0,.322,1.152,1.364,1.364,0,0,0,1.84,0,1.69,1.69,0,0,0,.321-1.152V300.327h2.352v11.841a4.121,4.121,0,0,1-.931,2.9,4.133,4.133,0,0,1-5.411,0Z" transform="translate(-524.904 -263.291)" fill="#fff"/>
    <path id="Path_569" data-name="Path 569" d="M546.877,300.327h3.306l2.526,15.524h-2.439l-.444-3.082v.044h-2.772l-.443,3.038h-2.261Zm2.662,10.379-1.087-7.674h-.044l-1.064,7.674Z" transform="translate(-522.097 -263.291)" fill="#fff"/>
    <path id="Path_570" data-name="Path 570" d="M550.684,300.327H554.3a3.119,3.119,0,0,1,3.613,3.571v.953q0,2.416-1.6,3.059v.047a1.905,1.905,0,0,1,1.254,1.086,5.5,5.5,0,0,1,.364,2.2v2.728a10.2,10.2,0,0,0,.045,1.075,2.739,2.739,0,0,0,.221.81h-2.484a3.714,3.714,0,0,1-.178-.711,10.943,10.943,0,0,1-.044-1.2V311.1a2.412,2.412,0,0,0-.343-1.484,1.457,1.457,0,0,0-1.186-.422h-.843v6.653h-2.439Zm3.327,6.653a1.459,1.459,0,0,0,1.1-.376,1.783,1.783,0,0,0,.366-1.265v-1.2a1.972,1.972,0,0,0-.3-1.218,1.133,1.133,0,0,0-.942-.378h-1.11v4.435Z" transform="translate(-518.895 -263.291)" fill="#fff"/>
    <path id="Path_571" data-name="Path 571" d="M558.72,300.327h3.3l2.528,15.524h-2.439l-.444-3.082v.044H558.9l-.444,3.038h-2.261Zm2.662,10.379-1.087-7.674h-.044l-1.064,7.674Z" transform="translate(-516.11 -263.291)" fill="#fff"/>
    <path id="Path_572" data-name="Path 572" d="M562.525,300.327h3.062l2.373,9.292H568v-9.292h2.173v15.524h-2.505l-2.927-11.333H564.7v11.333h-2.174Z" transform="translate(-512.909 -263.291)" fill="#fff"/>
    <path id="Path_573" data-name="Path 573" d="M570.937,302.545h-2.549v-2.218h7.54v2.218h-2.55v13.306h-2.441Z" transform="translate(-509.944 -263.291)" fill="#fff"/>
    <path id="Path_574" data-name="Path 574" d="M574.176,300.327h6.653v2.218h-4.214v4.1h3.35v2.218h-3.35v4.768h4.214v2.218h-6.653Z" transform="translate(-507.018 -263.291)" fill="#fff"/>
    <path id="Path_575" data-name="Path 575" d="M579.522,300.327h6.653v2.218h-4.213v4.1h3.349v2.218h-3.349v4.768h4.213v2.218h-6.653Z" transform="translate(-504.315 -263.291)" fill="#fff"/>
  </g>
</svg>
