<svg xmlns="http://www.w3.org/2000/svg" width="206.602" height="172.307" viewBox="0 0 206.602 172.307">
  <g id="Group_1658" data-name="Group 1658" transform="translate(-377.153 -771.322)">
    <path id="Path_721" data-name="Path 721" d="M662.954,830.879c.225-.69.58-2.047,1.1-3.334.961-2.36.934-4.616-.709-6.621a19.517,19.517,0,0,0-2.836-2.55,6.084,6.084,0,0,1-.1-9.623c.719-.6,1.455-1.183,2.162-1.8a6.054,6.054,0,0,0,1.7-6.821c-.339-.9-.713-1.791-1.007-2.707a6.045,6.045,0,0,1,4.818-7.969c.923-.164,1.85-.3,2.772-.465a6.071,6.071,0,0,0,4.825-4.658c.2-.915.335-1.845.462-2.773a6.079,6.079,0,0,1,8.229-4.986c.784.281,1.554.6,2.334.892a6.066,6.066,0,0,0,7.16-1.912c.528-.644,1.049-1.3,1.588-1.93a6.037,6.037,0,0,1,9.407-.1c.587.662,1.121,1.37,1.687,2.05a6.087,6.087,0,0,0,7.1,1.912,24.754,24.754,0,0,1,3.466-1.177,6,6,0,0,1,7.129,5.119c.138.927.27,1.856.455,2.774a6.028,6.028,0,0,0,4.95,4.8c.949.164,1.9.3,2.847.486a6.051,6.051,0,0,1,4.637,7.958c-.322.962-.728,1.9-1.06,2.854a6.038,6.038,0,0,0,1.838,6.718c.733.624,1.491,1.22,2.226,1.842a6.088,6.088,0,0,1-.016,9.321c-.736.621-1.5,1.209-2.226,1.842a6.066,6.066,0,0,0-1.739,6.947c.339.9.7,1.795,1,2.71a6.043,6.043,0,0,1-4.755,7.884c-.871.155-1.746.291-2.617.442a6.107,6.107,0,0,0-5.172,5.228c-.13.8-.249,1.594-.376,2.391a6.06,6.06,0,0,1-8.126,4.858c-.909-.316-1.8-.693-2.705-1.012a6.024,6.024,0,0,0-6.718,1.828c-.589.7-1.152,1.412-1.737,2.111a6.026,6.026,0,0,1-9.3.216c-.631-.691-1.194-1.444-1.791-2.167a6.072,6.072,0,0,0-7.17-1.882c-.778.3-1.55.612-2.336.887a6.064,6.064,0,0,1-8.2-4.937c-.12-.8-.239-1.6-.375-2.391a6.077,6.077,0,0,0-5.1-5.115c-.923-.159-1.849-.3-2.77-.473C665.01,837.009,662.944,834.52,662.954,830.879Zm37.286,15.962A33.327,33.327,0,1,0,666.955,813.5,33.327,33.327,0,0,0,700.24,846.841Z" transform="translate(-158.554)" fill="#e8af42"/>
    <path id="Path_722" data-name="Path 722" d="M461.016,781.839A83.863,83.863,0,1,0,544.879,865.7,83.862,83.862,0,0,0,461.016,781.839Zm0,160.319A76.457,76.457,0,1,1,537.473,865.7,76.457,76.457,0,0,1,461.016,942.158Z" transform="translate(0 -5.935)"/>
    <circle id="Ellipse_75" data-name="Ellipse 75" cx="77.821" cy="77.821" r="77.821" transform="translate(383.688 780.819)" fill="#2896e2"/>
    <path id="Path_723" data-name="Path 723" d="M600.215,913.621a23.919,23.919,0,0,0-15.28,5.325c-6.1,4.69-3.229,10.915-.953,18.258,2.969,9.574,5.469,15.56,13.645,21.241,6.68,4.642,12.216,5.847,18.643.856a25.672,25.672,0,0,0,8.675-28.189C621.476,920.6,611.867,913.658,600.215,913.621Z" transform="translate(-115.198 -80.302)"/>
    <path id="Path_724" data-name="Path 724" d="M667.646,890c.647-5.309-4.835-10.781-9.353-10.608-4.727.182-8.311,4.81-8.2,10.9.076,4.172,3.128,6.748,8,6.749C665.19,897.04,667.662,895.218,667.646,890Z" transform="translate(-154.031 -60.987)" fill="#fff"/>
    <path id="Path_725" data-name="Path 725" d="M456.774,897.074c4.893.044,7.772-2.437,7.856-6.765.118-6.152-3.395-10.862-8.1-10.862-5.182,0-9.235,4.624-9.293,10.6C447.185,895.276,449.538,897.01,456.774,897.074Z" transform="translate(-39.551 -61.02)" fill="#fff"/>
    <path id="Path_726" data-name="Path 726" d="M456.1,936.355c.416-8.088,5-15.979,14.293-20.439,9.229-4.43,18.357-3.5,26.688,2.636,6.318,4.653,6.406,8.743,4.094,16.378-2.961,9.777-6.85,18.694-15.311,24.3-7.486,4.961-15.866,4.42-22.5-2.434C458.6,951.874,456.034,945.444,456.1,936.355Zm41.537,4.154c.561-9.885-8.07-13.49-14.649-13.639-6.737-.153-13.4,6.1-13.466,12.432a14.794,14.794,0,0,0,14.5,14.556C492.029,953.858,497.639,948.69,497.64,940.509Z" transform="translate(-44.555 -80.046)"/>
    <path id="Path_727" data-name="Path 727" d="M554.825,1027.842c-7.367-.156-11.407-3.269-14.735-7.327-1.93-2.352-.98-6.922,1.484-8.745a2.749,2.749,0,0,1,2.111-.253,34.038,34.038,0,0,0,18.824.065,3.383,3.383,0,0,1,2.831.9c2.946,3.381,2.549,7.212-.908,10.087C561.128,1025.317,557.783,1028.03,554.825,1027.842Z" transform="translate(-91.373 -135.497)"/>
    <path id="Path_728" data-name="Path 728" d="M667.646,890c.017,5.219-2.456,7.04-9.557,7.039-4.869,0-7.921-2.576-8-6.749-.11-6.089,3.473-10.717,8.2-10.9C662.811,879.218,668.293,884.69,667.646,890Z" transform="translate(-154.031 -60.987)"/>
    <path id="Path_729" data-name="Path 729" d="M456.774,897.074c-7.236-.064-9.589-1.8-9.538-7.027.058-5.977,4.112-10.6,9.293-10.6,4.706,0,8.219,4.711,8.1,10.862C464.547,894.637,461.667,897.117,456.774,897.074Z" transform="translate(-39.551 -61.02)"/>
    <path id="Path_730" data-name="Path 730" d="M604.6,1054.034a2.033,2.033,0,0,0-1.479,1.276c-.418.936-.78,1.9-1.25,2.809a13.972,13.972,0,0,1-3.18,4c-.168.123-.338.244-.512.361a14.167,14.167,0,0,1-4.99,2.185c-1,.211-2.027.3-3.04.458a2.031,2.031,0,0,0-1.624,1.086,2.162,2.162,0,0,0,2.051,3.26,19.913,19.913,0,0,0,2.725-.31,17.364,17.364,0,0,0,7.794-3.29,18.148,18.148,0,0,0,5.077-6.447,20.361,20.361,0,0,0,1.024-2.545A2.162,2.162,0,0,0,604.6,1054.034Z" transform="translate(-119.126 -159.516)"/>
    <g id="Group_1658-2" data-name="Group 1658" transform="translate(395.937 838.544)">
      <path id="Path_731" data-name="Path 731" d="M550.56,928.3c-.162-.015-.325-.035-.487-.052l.506-.079s-5.845-3.353-24.02-1.822q-2.5.211-4.726.441c-2.5.168-4.992.391-7.471.732-6.5.9-10.794,1.2-18.483,4.036a10.115,10.115,0,0,1-1.5.428l-4.3.859-7.6-.069c-.508-.264-4.7-.729-5.225-.9a133.489,133.489,0,0,0-25.841-5.256,138.034,138.034,0,0,0-25.186-.72c-.665-.044-6.591-.322-5.905,3.561.014.076.031.145.048.216.245,1.955.433,3.921.771,5.856a3.973,3.973,0,0,0,1.049,1.686c.8.921,1.953,1.608,2.445,2.68a36.675,36.675,0,0,1,1.86,5.81c1.042,3.894,1.9,7.853,3.036,11.711a14.577,14.577,0,0,0,7.413,9.262,34.192,34.192,0,0,0,24.034,2.78c6.375-1.492,11.494-4.951,14.676-11.369,1.756-3.544,3.2-7.275,4.829-10.9a13.085,13.085,0,0,1,1.979-3.8c2.875-2.938,7.266-1.471,8.657,2.068a126.687,126.687,0,0,0,5.248,12.066c2.17,4.179,4.862,7.876,9.088,9.968,9.468,4.687,18.946,4.383,28.5.73,4.946-1.891,8.053-5.763,9.506-11.3.474-1.806.858-3.642,1.293-5.46.8-3.331,1.541-6.679,2.423-9.981a5.313,5.313,0,0,1,2.924-3.646,1.81,1.81,0,0,0,.882-1.2c.362-2.187.61-4.4.9-6.6C552.023,928.917,551.667,928.4,550.56,928.3Z" transform="translate(-420.27 -925.623)" fill="#4dc9ac"/>
      <ellipse id="Ellipse_76" data-name="Ellipse 76" cx="2.631" cy="2.921" rx="2.631" ry="2.921" transform="translate(4.24 3.556) rotate(-1.475)" fill="#fff"/>
      <ellipse id="Ellipse_77" data-name="Ellipse 77" cx="2.631" cy="2.921" rx="2.631" ry="2.921" transform="translate(121.509 3.98) rotate(-1.475)" fill="#fff"/>
    </g>
    <path id="Path_732" data-name="Path 732" d="M514.907,956.576c.56-9.885-8.07-13.49-14.649-13.639-6.737-.153-13.4,6.1-13.466,12.432a14.794,14.794,0,0,0,14.5,14.556C509.3,969.925,514.9,964.757,514.907,956.576Z" transform="translate(-61.874 -96.849)" fill="#a0e0c6"/>
    <path id="Path_733" data-name="Path 733" d="M516.871,975.823a5.574,5.574,0,0,1-5.971-5.616,5.89,5.89,0,0,1,11.767-.564A5.78,5.78,0,0,1,516.871,975.823Z" transform="translate(-75.479 -108.764)"/>
    <path id="Path_734" data-name="Path 734" d="M621.047,966.806a1.91,1.91,0,0,1-.768-.162h0a26.26,26.26,0,0,0-15.2-1.025,1.917,1.917,0,0,1-2.2-2.663A25.047,25.047,0,0,1,621.6,949.678a1.917,1.917,0,1,1,.542,3.794,21.155,21.155,0,0,0-13.541,7.711,29.623,29.623,0,0,1,13.222,1.952,1.917,1.917,0,0,1-.775,3.67Z" transform="translate(-127.29 -100.644)" fill="#fff"/>
    <circle id="Ellipse_78" data-name="Ellipse 78" cx="2.48" cy="2.48" r="2.48" transform="translate(440.318 854.873)" fill="#fff"/>
    <circle id="Ellipse_79" data-name="Ellipse 79" cx="33.109" cy="33.109" r="33.109" transform="translate(508.502 780.253)" fill="#e8af42" stroke="#e8af42" stroke-miterlimit="10" stroke-width="13"/>
    <circle id="Ellipse_80" data-name="Ellipse 80" cx="30.496" cy="30.496" r="30.496" transform="translate(511.116 782.867)" fill="none" stroke="#fff" stroke-miterlimit="10" stroke-width="5.645"/>
    <text id="BOO_approved_" data-name="BOO
approved!" transform="translate(540.017 809.564)" fill="#fff" font-size="21" font-family="BebasNeueBook, Bebas Neue"><tspan x="-11.97" y="0">BOO</tspan><tspan font-size="14"><tspan x="-22.582" y="14">approved!</tspan></tspan></text>
  </g>
</svg>
