<svg xmlns="http://www.w3.org/2000/svg" width="167.091" height="176.257" viewBox="0 0 167.091 176.257">
  <g id="Group_1825" data-name="Group 1825" transform="translate(-1090.164 -1043.333)">
    <circle id="Ellipse_82" data-name="Ellipse 82" cx="70.542" cy="70.542" r="70.542" transform="translate(1110.825 1075.028)" fill="#4ec5a8"/>
    <path id="Path_769" data-name="Path 769" d="M1211.855,1114.332a74.407,74.407,0,1,0,74.407,74.407A74.407,74.407,0,0,0,1211.855,1114.332Zm0,142.243a67.836,67.836,0,1,1,67.836-67.836A67.836,67.836,0,0,1,1211.855,1256.575Z" transform="translate(-29.008 -43.556)"/>
    <g id="Group_1778" data-name="Group 1778" transform="translate(1139.37 1096.097)">
      <g id="Group_1767" data-name="Group 1767" transform="translate(0 35.062)">
        <path id="Path_770" data-name="Path 770" d="M1288.526,1281.764c-1.137,1.563-1.141,1.568,0,2.534q5.539,4.674,11.083,9.342c1.836,1.548,3.656,3.115,5.516,4.635a1.523,1.523,0,0,1,.423,1.671c-.043.219-.452.464-.731.524q-8.187,1.77-16.389,3.473a1.567,1.567,0,0,1-1.122-.3c-1.017-.783-1.974-1.644-2.956-2.47-1.039-.875-2.082-1.745-3.132-2.624-.917,1.386-.866,1.792.257,2.735,1.005.844,2,1.7,3.017,2.531a4.949,4.949,0,0,0,.8.442l-.227.35c-.363.1-.722.224-1.091.3q-19.83,4.211-39.659,8.421a1.115,1.115,0,0,1-1.3-.447c-2.071-2.74-4.175-5.456-6.263-8.184-.178-.233-.32-.495-.577-.9l8.53-1.715c-.269-1.757-.411-1.864-1.932-1.564-2.383.47-4.769.932-7.151,1.406a1.139,1.139,0,0,1-1.318-.409q-5.889-7.732-11.818-15.433c-.159-.208-.279-.447-.514-.828l11.924-2.01c-.91-1.649-1.12-1.755-2.722-1.488q-4.173.7-8.347,1.381c-.392.064-.795.067-1.289.106.074-.407.11-.679.173-.944.6-2.5,1.2-5,1.8-7.495.355-1.489.144-1.848-1.39-2.351-.069.24-.147.475-.2.716-.7,2.877-1.4,5.753-2.076,8.635a16.431,16.431,0,0,0-.652,3.355c-.112,5.977-.045,11.957-.219,17.931a9.152,9.152,0,0,0,2.2,6.278q9.882,12.48,19.6,25.09a3.479,3.479,0,0,0,3.92,1.445c8.253-1.861,16.52-3.661,24.782-5.481q17.587-3.875,35.176-7.751c1.975-.436,2.75-1.385,2.763-3.392.047-6.816.079-13.631.137-20.447a2.03,2.03,0,0,0-.8-1.724q-7.544-6.324-15.05-12.694C1290.658,1283.541,1289.609,1282.671,1288.526,1281.764Z" transform="translate(-1218.389 -1271.722)" fill="#fff"/>
        <path id="Path_771" data-name="Path 771" d="M1242.692,1335.447a4.008,4.008,0,0,1-3.3-1.8c-5.807-7.5-12.677-16.345-19.6-25.084a9.666,9.666,0,0,1-2.323-6.655c.1-3.425.121-6.913.141-10.286.015-2.5.03-5.092.078-7.639a11.815,11.815,0,0,1,.475-2.706c.066-.258.132-.514.193-.771.517-2.2,1.051-4.406,1.584-6.607l.492-2.031c.042-.174.094-.346.146-.519l.232-.8.571.187c1.818.6,2.2,1.249,1.773,3.036q-.462,1.94-.929,3.879-.434,1.807-.866,3.615c-.014.061-.027.121-.039.184.178-.012.341-.027.5-.053q4.174-.679,8.344-1.38c1.864-.312,2.3-.079,3.324,1.78l.4.716-11.886,2c.011.015.022.031.034.046l3.577,4.665q4.127,5.38,8.242,10.769c.174.229.293.281.744.191q2.161-.429,4.323-.85l2.829-.555c.817-.162,1.387-.243,1.851.083.486.341.614.968.766,1.961l.084.547-8.25,1.659c.034.05.067.1.1.141q1.035,1.352,2.073,2.7c1.379,1.795,2.8,3.65,4.193,5.487.19.25.313.314.713.229q13.4-2.852,26.8-5.692l12.857-2.729c.094-.02.187-.043.282-.069l-.012-.01c-.693-.566-1.377-1.145-2.059-1.723q-.481-.406-.964-.812c-1.354-1.137-1.433-1.889-.368-3.5l.358-.542,1.576,1.32q1.031.862,2.054,1.722c.3.25.594.5.889.758.663.57,1.35,1.16,2.048,1.7a1.027,1.027,0,0,0,.65.189c4.867-1,10.073-2.107,16.384-3.472a.868.868,0,0,0,.3-.152c.1-.561.044-.8-.236-1.027-1.322-1.081-2.644-2.2-3.922-3.286q-.8-.679-1.6-1.355l-3.8-3.2q-3.642-3.069-7.282-6.139c-1.451-1.225-1.355-1.59-.1-3.317l.365-.5,1.492,1.244c.729.609,1.446,1.206,2.159,1.809l4.114,3.475c3.58,3.026,7.282,6.155,10.935,9.217a2.6,2.6,0,0,1,1.01,2.174q-.055,6.523-.09,13.046-.022,3.7-.047,7.4a3.574,3.574,0,0,1-3.218,3.955q-11.506,2.538-23.012,5.072l-12.163,2.68q-3.145.693-6.291,1.383c-6.062,1.332-12.331,2.709-18.488,4.1A5.479,5.479,0,0,1,1242.692,1335.447Zm-21.1-63.408c-.009.034-.018.067-.026.1l-.492,2.032c-.533,2.2-1.066,4.4-1.583,6.6-.062.264-.13.529-.2.794a10.826,10.826,0,0,0-.439,2.439c-.047,2.54-.062,5.125-.077,7.624-.02,3.38-.041,6.875-.141,10.313a8.578,8.578,0,0,0,2.073,5.9c6.923,8.743,13.8,17.591,19.6,25.094a2.924,2.924,0,0,0,3.334,1.234c6.161-1.389,12.431-2.767,18.495-4.1l6.29-1.383,12.164-2.68q11.506-2.535,23.012-5.071c1.714-.377,2.3-1.092,2.309-2.83q.025-3.7.047-7.4.04-6.525.09-13.049a1.454,1.454,0,0,0-.6-1.274c-3.655-3.064-7.358-6.194-10.938-9.22l-4.113-3.475c-.712-.6-1.426-1.2-2.154-1.8l-.538-.449a2.4,2.4,0,0,0-.38.649,5.005,5.005,0,0,0,.651.6q3.64,3.071,7.282,6.139l3.8,3.2q.8.677,1.6,1.358c1.274,1.081,2.592,2.2,3.905,3.272a2.1,2.1,0,0,1,.625,2.232c-.109.551-.78.892-1.177.978-6.316,1.366-11.525,2.47-16.395,3.474a2.128,2.128,0,0,1-1.592-.406c-.723-.556-1.421-1.156-2.1-1.736-.293-.251-.586-.5-.881-.751q-1.022-.861-2.051-1.719l-.57-.477c-.387.682-.211.829.493,1.421q.484.406.967.815c.678.574,1.356,1.148,2.044,1.71a2.247,2.247,0,0,0,.423.238c.1.046.194.093.287.144l.554.3-.689,1.059-.211.059c-.114.031-.227.065-.34.1-.253.075-.513.153-.786.211l-12.857,2.729q-13.4,2.844-26.8,5.692a1.684,1.684,0,0,1-1.88-.664c-1.386-1.833-2.81-3.686-4.187-5.479q-1.037-1.351-2.074-2.7a6.678,6.678,0,0,1-.377-.572c-.066-.109-.14-.229-.228-.366l-.456-.714,8.81-1.772a1.813,1.813,0,0,0-.2-.644,3.513,3.513,0,0,0-.959.107l-2.83.555q-2.16.423-4.32.85a1.707,1.707,0,0,1-1.892-.626q-4.107-5.393-8.239-10.767l-3.578-4.666a5.143,5.143,0,0,1-.342-.533c-.059-.1-.125-.214-.2-.344l-.452-.733,11.954-2.016c-.434-.7-.655-.659-1.711-.482q-4.174.7-8.349,1.381a8.629,8.629,0,0,1-.886.083c-.142.008-.292.017-.452.029l-.75.059.135-.74c.025-.138.046-.26.064-.372.039-.229.071-.417.115-.6q.432-1.808.867-3.617.465-1.939.928-3.878C1222.255,1272.559,1222.31,1272.33,1221.589,1272.039Z" transform="translate(-1217.468 -1270.55)"/>
      </g>
      <g id="Group_1768" data-name="Group 1768" transform="translate(4.867 0)">
        <path id="Path_772" data-name="Path 772" d="M1233.079,1210.958c.072-.212.149-.389.193-.575q1.016-4.193,2.022-8.389c.66-2.742,1.387-5.471,1.958-8.232.491-2.375,4.162-3.748,5.987-2.339a71.685,71.685,0,0,0,6.636,4.231,2.217,2.217,0,0,0,1.326.321q11.469-1.454,22.93-2.975,12.334-1.622,24.667-3.255c.42-.055.848-.047,1.368-.073-.119.324-.168.51-.253.677q-6.837,13.443-13.667,26.889a1.6,1.6,0,0,1-1.329.956c-2.731.428-5.456.893-8.183,1.347-.487.081-.973.174-1.52.272a8.054,8.054,0,0,1,.127.909c.015.819.359.993,1.165.834,2.053-.407,4.13-.693,6.193-1.055.635-.112.849.057.8.726-.36,5.378-.708,10.758-1.015,16.14-.045.782-.368,1.045-1.082,1.167-1.706.291-3.4.639-5.1,1a.981.981,0,0,0-.668.474,9.918,9.918,0,0,0-.206,1.661c2.5-.5,4.846-.961,7.192-1.44a.574.574,0,0,0,.388-.271,31.784,31.784,0,0,0,1.462-4.612,51.644,51.644,0,0,0,.4-5.6c.186-2.983.364-5.966.57-8.948.019-.268.163-.662.357-.747a1.019,1.019,0,0,1,.8.229c.6.453,1.154.97,1.733,1.453.635.528,1.278,1.047,1.972,1.614.2-.308.323-.526.475-.717.521-.653.417-1.139-.276-1.633-.77-.55-1.442-1.236-2.195-1.814a.855.855,0,0,1-.275-1.269q7.108-13.916,14.168-27.856a1.6,1.6,0,0,1,1.4-.973c2.468-.287,4.934-.6,7.39-.981a1.433,1.433,0,0,0,.986-.8,1.313,1.313,0,0,0-.533-1.077q-3.426-2.336-6.935-4.549a2.465,2.465,0,0,0-1.488-.331q-11.482,1.346-22.956,2.764-11.891,1.457-23.779,2.938c-5.348.66-10.7,1.29-16.045,1.983a5.6,5.6,0,0,0-4.885,4.329q-1.834,7.572-3.628,15.154c-.379,1.591-.367,1.594,1.076,2.371A1.574,1.574,0,0,0,1233.079,1210.958Z" transform="translate(-1230.962 -1180.76)" fill="#fff"/>
        <path id="Path_773" data-name="Path 773" d="M1273.876,1241.473l.083-.783c.02-.188.034-.366.046-.536a5.8,5.8,0,0,1,.18-1.229,1.506,1.506,0,0,1,1.1-.877c1.516-.324,3.309-.7,5.12-1.005.5-.085.574-.161.6-.628.329-5.748.7-11.387,1.016-16.145,0-.055,0-.1,0-.135-.034,0-.077.009-.129.018-.8.141-1.61.271-2.417.4-1.238.2-2.519.406-3.764.652a1.649,1.649,0,0,1-1.391-.193,1.508,1.508,0,0,1-.467-1.2,3.143,3.143,0,0,0-.062-.48c-.019-.109-.039-.226-.058-.355l-.081-.556,1.07-.193c.349-.064.678-.124,1.009-.179l1.917-.321c2.054-.343,4.178-.7,6.271-1.027a1.034,1.034,0,0,0,.9-.645q5.066-10.008,10.161-20l3.406-6.693c-.147.007-.287.018-.423.036q-6.174.812-12.347,1.629t-12.321,1.626c-7.751,1.019-15.337,2.013-22.932,2.976a2.775,2.775,0,0,1-1.7-.4c-.531-.324-1.068-.643-1.6-.961a50.045,50.045,0,0,1-5.084-3.306,3.06,3.06,0,0,0-2.879-.187,3.26,3.26,0,0,0-2.186,2.184c-.4,1.943-.887,3.9-1.356,5.786-.2.821-.408,1.642-.606,2.464l-.169.7q-.925,3.845-1.854,7.69a3.869,3.869,0,0,1-.142.437c-.022.06-.045.122-.067.188l-.171.5-.515-.125-.121-.027a.914.914,0,0,1-.28-.093c-1.675-.9-1.8-1.182-1.365-3.015,1.18-4.958,2.4-10.085,3.629-15.157a6.144,6.144,0,0,1,5.375-4.767c3.615-.469,7.295-.917,10.853-1.349q2.6-.316,5.2-.635,4.535-.56,9.068-1.123,7.355-.911,14.711-1.816c7.235-.886,15.023-1.834,22.959-2.765a3.059,3.059,0,0,1,1.864.417c2.282,1.437,4.621,2.971,6.952,4.561a1.84,1.84,0,0,1,.762,1.723,2,2,0,0,1-1.452,1.207c-2.169.335-4.524.647-7.412.983a1.038,1.038,0,0,0-.953.66c-4.543,8.974-9.31,18.346-14.169,27.857-.164.321-.145.348.111.545.35.269.682.559,1,.839.4.347.773.675,1.177.964a1.776,1.776,0,0,1,.834,1.175,1.673,1.673,0,0,1-.442,1.291,4.291,4.291,0,0,0-.255.378c-.057.089-.118.187-.189.3l-.354.538-1.144-.934c-.456-.371-.9-.729-1.33-1.091-.207-.173-.411-.35-.615-.526-.371-.323-.722-.627-1.1-.909a.871.871,0,0,0-.187-.1.79.79,0,0,0-.045.2c-.158,2.272-.3,4.546-.438,6.819l-.132,2.124c-.035.557-.056,1.116-.077,1.675a29.825,29.825,0,0,1-.33,3.982,19.987,19.987,0,0,1-1.035,3.444c-.153.418-.307.836-.449,1.255a1.118,1.118,0,0,1-.82.654c-1.912.39-3.825.77-5.819,1.166Zm1.407-2.165a4.264,4.264,0,0,0-.1.724l.622-.124c1.99-.4,3.9-.775,5.8-1.163.135-.392.278-.784.422-1.175a18.86,18.86,0,0,0,.981-3.241,29.093,29.093,0,0,0,.313-3.829c.021-.569.043-1.137.079-1.7l.131-2.124c.141-2.276.281-4.552.439-6.827a1.51,1.51,0,0,1,.7-1.239,1.526,1.526,0,0,1,1.382.3c.406.306.789.638,1.159.96.2.172.4.343.6.511.432.359.867.714,1.32,1.083l.144.118c.05-.075.1-.147.159-.218a.707.707,0,0,0,.2-.408c-.005-.035-.045-.167-.36-.391-.451-.322-.865-.685-1.266-1.035-.322-.281-.625-.546-.946-.792a1.415,1.415,0,0,1-.438-1.993c4.858-9.51,9.625-18.881,14.167-27.854a2.183,2.183,0,0,1,1.853-1.288c2.874-.334,5.215-.645,7.369-.977a.989.989,0,0,0,.5-.365,1.008,1.008,0,0,0-.29-.461c-2.32-1.582-4.648-3.109-6.917-4.538a1.889,1.889,0,0,0-1.112-.246c-7.932.93-15.719,1.878-22.953,2.764q-7.356.9-14.71,1.816-4.534.562-9.069,1.122-2.6.321-5.2.635c-3.556.432-7.232.879-10.844,1.347a5.022,5.022,0,0,0-4.4,3.891c-1.228,5.068-2.448,10.195-3.628,15.152a3.632,3.632,0,0,0-.182,1.115,1.956,1.956,0,0,0,.6.412q.922-3.812,1.838-7.624l.168-.7q.3-1.238.608-2.473c.467-1.878.948-3.82,1.346-5.741a4.412,4.412,0,0,1,2.918-3.037,4.208,4.208,0,0,1,3.99.358,48.964,48.964,0,0,0,4.967,3.226c.541.321,1.082.642,1.617.969a1.658,1.658,0,0,0,.951.241c7.593-.963,15.178-1.957,22.928-2.976q6.16-.809,12.32-1.626t12.347-1.629a9.054,9.054,0,0,1,.936-.06c.151,0,.31-.009.479-.018l.876-.044-.3.823c-.041.11-.073.2-.1.286a3.368,3.368,0,0,1-.18.454l-3.506,6.891q-5.088,9.994-10.16,20a2.18,2.18,0,0,1-1.757,1.266c-2.088.327-4.208.682-6.26,1.026l-1.918.32c-.311.052-.622.109-.949.168a3.017,3.017,0,0,1,.041.43,1,1,0,0,0,.041.313,1.31,1.31,0,0,0,.432-.037c1.266-.25,2.557-.458,3.8-.659.8-.129,1.6-.258,2.4-.4a1.121,1.121,0,0,1,1.483,1.336c-.318,4.756-.687,10.392-1.015,16.135a1.644,1.644,0,0,1-1.563,1.7c-1.79.305-3.568.675-5.072,1A.692.692,0,0,0,1275.283,1239.308Zm6.284-.454h0Z" transform="translate(-1230.06 -1179.841)"/>
      </g>
      <g id="Group_1769" data-name="Group 1769" transform="translate(20.67 39.633)">
        <path id="Path_774" data-name="Path 774" d="M1273.116,1287.317c.757,1.662,1.005,1.79,2.554,1.524,2.723-.467,5.448-.918,8.174-1.372,3.386-.563,6.774-1.114,10.156-1.7.274-.047.689-.261.737-.467.243-1.049-.287-1.565-1.319-1.393q-8.381,1.4-16.763,2.8C1275.484,1286.906,1274.315,1287.111,1273.116,1287.317Z" transform="translate(-1272.276 -1283.299)" fill="#fff"/>
        <path id="Path_775" data-name="Path 775" d="M1273.411,1288.6c-1.036,0-1.489-.5-2.155-1.964l-.312-.685,1.942-.333c.786-.136,1.563-.27,2.342-.4l7.608-1.271q4.578-.763,9.154-1.528a1.589,1.589,0,0,1,1.98,2.1c-.123.531-.8.838-1.2.908-2.466.426-4.976.841-7.4,1.242l-4.008.665q-3.46.575-6.919,1.162A6.211,6.211,0,0,1,1273.411,1288.6Zm-.779-1.762c.372.722.576.687,1.607.511q3.46-.594,6.925-1.164l4.008-.665c2.426-.4,4.934-.816,7.4-1.241a.888.888,0,0,0,.291-.122.653.653,0,0,0-.051-.522c-.069-.074-.271-.132-.627-.072q-4.577.766-9.155,1.529l-7.608,1.27c-.776.13-1.552.263-2.336.4Z" transform="translate(-1270.944 -1282.378)"/>
      </g>
      <g id="Group_1770" data-name="Group 1770" transform="translate(31.442 59.546)">
        <path id="Path_776" data-name="Path 776" d="M1300.57,1337.751c.363,1.871.4,1.891,2.071,1.559q3.692-.732,7.385-1.45c1.363-.263,1.64-.692,1.3-2.214Z" transform="translate(-1299.891 -1334.969)" fill="#fff"/>
        <path id="Path_777" data-name="Path 777" d="M1300.468,1338.979a1.259,1.259,0,0,1-.733-.2c-.489-.328-.61-.954-.811-1.991l-.11-.568,11.875-2.325.124.549a2.687,2.687,0,0,1-.109,2.054,2.368,2.368,0,0,1-1.645.857q-3.693.714-7.382,1.45A6.7,6.7,0,0,1,1300.468,1338.979Zm-.292-1.844a2.2,2.2,0,0,0,.214.689,5.284,5.284,0,0,0,1.061-.156q3.693-.731,7.388-1.45c.511-.1.8-.214.894-.353a1.056,1.056,0,0,0,.049-.61Z" transform="translate(-1298.813 -1333.895)"/>
      </g>
      <g id="Group_1771" data-name="Group 1771" transform="translate(0.001 35.062)">
        <path id="Path_778" data-name="Path 778" d="M1242.674,1312.293c.49,1,.916,1.2,1.647,1.039q19.827-4.22,39.659-8.421c.38-.081.75-.208,1.125-.312l.045-.416a3.34,3.34,0,0,1-.653-.366c-1.016-.831-2.012-1.687-3.017-2.531-1.123-.943-7.707-6.81-6.791-8.2,1.049.879,8.627,7.21,9.666,8.085.983.827,1.939,1.688,2.956,2.47a1.567,1.567,0,0,0,1.122.3q8.2-1.693,16.389-3.473c.279-.06.688-.3.731-.524a1.523,1.523,0,0,0-.422-1.671c-1.86-1.52-3.68-3.087-5.516-4.635q-5.541-4.671-11.083-9.342c-1.145-.966-1.141-.971,0-2.534,1.084.907,2.132,1.776,3.173,2.655q7.522,6.351,15.05,12.694a2.031,2.031,0,0,1,.8,1.724c-.058,6.815-.091,13.631-.137,20.447-.014,2.007-.789,2.956-2.764,3.392q-17.587,3.879-35.175,7.751c-8.262,1.821-16.529,3.62-24.782,5.481-2.13.48-3.1-.593-4.725-2.686-6.253-8.051-10.119-13.076-16.721-21.626-2.393-3.1-4.372-5.086-4.273-8.5.174-5.974.107-11.954.219-17.931a16.423,16.423,0,0,1,.652-3.355c.676-2.882,1.38-5.757,2.076-8.635.058-.24.136-.476.2-.716,1.534.5,1.745.862,1.39,2.351-.6,2.5-1.2,5-1.8,7.495-.063.265-.1.537-.173.944.495-.039.9-.042,1.289-.106q4.176-.68,8.347-1.381c1.6-.267,1.812-.161,2.722,1.488l-11.924,2.01a7.9,7.9,0,0,0,1.221,1.443l10.517,13.544c1.069,1.479,1.114,1.842,1.912,1.683,2.383-.473,4.768-.936,7.151-1.406,1.52-.3,1.663-.193,1.931,1.564l-8.53,1.715a4.843,4.843,0,0,0,.979,1.317Zm1,21.8c.44-.078.844-.134,1.24-.222q11.452-2.53,22.9-5.065,18.2-4.011,36.406-8.011c1.022-.225,1.265-.5,1.273-1.545.04-5.335.059-10.671.109-16.006.007-.736-.249-.933-.951-.771-1.632.377-3.274.711-4.913,1.06q-14.993,3.2-29.986,6.389-12.291,2.611-24.588,5.193c-.716.15-1.064.363-1.079,1.221-.095,5.446-.267,10.891-.411,16.335C1243.665,1333.109,1243.675,1333.548,1243.675,1334.093Zm-2.165-2,.214-.085c.029-.41.074-.819.084-1.229.121-4.829.2-9.66.382-14.488a3.361,3.361,0,0,0-.773-2.352q-9.807-12.747-19.581-25.518c-.156-.2-.351-.375-.7-.746-.038.606-.077.954-.079,1.3-.042,5-.052,10-.134,14.995a4.986,4.986,0,0,0,1.112,3.321q9.509,12.13,18.988,24.283C1241.166,1331.757,1241.346,1331.917,1241.51,1332.089Z" transform="translate(-1218.391 -1271.722)"/>
        <path id="Path_779" data-name="Path 779" d="M1242.822,1335.432c-1.776,0-2.817-1.206-4.231-3.026-4.746-6.109-8.1-10.457-12.35-15.962l-4.372-5.664c-.3-.391-.6-.764-.882-1.124-2.014-2.545-3.6-4.555-3.512-7.748.1-3.425.121-6.913.141-10.286.015-2.5.03-5.092.078-7.639a11.829,11.829,0,0,1,.475-2.706c.066-.258.133-.514.193-.771.517-2.2,1.051-4.406,1.584-6.607l.492-2.031c.042-.174.094-.346.146-.519l.233-.8.571.187c1.818.6,2.2,1.249,1.773,3.036q-.462,1.94-.929,3.879-.434,1.807-.866,3.615c-.014.061-.027.121-.039.184.178-.012.341-.027.5-.053q4.174-.679,8.345-1.38c1.864-.312,2.3-.079,3.324,1.78l.4.716L1222.1,1284.5l.113.114c.136.138.294.3.5.531l10.541,13.573c.213.293.378.532.519.736.545.789.546.789.822.733q2.162-.429,4.324-.85l2.829-.555c.817-.162,1.387-.243,1.851.083.486.341.614.968.766,1.961l.084.547-8.251,1.659a2.142,2.142,0,0,0,.42.473l.083.087,5.571,7.27c.418.853.627.808,1.006.727q13.4-2.852,26.8-5.692l12.856-2.729c.094-.02.187-.043.282-.069l-.012-.01c-.693-.566-1.377-1.145-2.06-1.723q-.481-.406-.963-.812c-1.378-1.156-8.183-7.021-6.9-8.96l.358-.542.5.417,2.985,2.5c2.607,2.179,6.01,5.024,6.681,5.589.3.25.594.5.889.758.663.57,1.35,1.16,2.048,1.7a1.028,1.028,0,0,0,.65.189c4.866-1,10.073-2.107,16.384-3.472a.87.87,0,0,0,.3-.152c.1-.561.044-.8-.236-1.027-1.322-1.081-2.644-2.2-3.922-3.286q-.8-.679-1.6-1.355l-3.8-3.2q-3.642-3.069-7.283-6.139c-1.451-1.225-1.355-1.59-.1-3.317l.365-.5,1.492,1.244c.729.609,1.446,1.206,2.16,1.809l4.113,3.475c3.58,3.026,7.282,6.155,10.935,9.217a2.6,2.6,0,0,1,1.01,2.174q-.056,6.523-.09,13.046-.023,3.7-.047,7.4a3.574,3.574,0,0,1-3.218,3.955q-11.506,2.538-23.012,5.072l-12.164,2.68q-3.145.693-6.291,1.383c-6.062,1.332-12.331,2.709-18.488,4.1A4.87,4.87,0,0,1,1242.822,1335.432Zm-21.232-63.393c-.008.034-.017.067-.025.1l-.492,2.032c-.533,2.2-1.066,4.4-1.583,6.6-.062.264-.13.529-.2.794a10.814,10.814,0,0,0-.44,2.439c-.047,2.54-.062,5.125-.077,7.624-.02,3.38-.041,6.875-.141,10.313-.081,2.771,1.321,4.543,3.261,6.994.288.364.586.741.891,1.135l4.373,5.665c4.248,5.5,7.6,9.851,12.348,15.959,1.669,2.149,2.408,2.866,4.139,2.476,6.161-1.389,12.431-2.767,18.495-4.1l6.291-1.383,12.163-2.68q11.507-2.535,23.012-5.071c1.715-.377,2.3-1.092,2.309-2.83q.026-3.7.047-7.4.04-6.525.09-13.049a1.453,1.453,0,0,0-.6-1.274c-3.655-3.064-7.358-6.194-10.938-9.22l-4.113-3.475c-.712-.6-1.427-1.2-2.154-1.8l-.538-.449a2.393,2.393,0,0,0-.38.649,5,5,0,0,0,.652.6q3.64,3.071,7.282,6.139l3.8,3.2q.8.677,1.6,1.358c1.274,1.081,2.592,2.2,3.905,3.272a2.1,2.1,0,0,1,.625,2.232c-.109.551-.78.892-1.177.978-6.315,1.366-11.525,2.47-16.395,3.474a2.128,2.128,0,0,1-1.592-.406c-.723-.556-1.421-1.156-2.1-1.736-.293-.251-.586-.5-.88-.751-.671-.565-4.073-3.408-6.678-5.586l-1.333-1.115a44.664,44.664,0,0,0,5.883,5.926q.484.406.967.815c.678.574,1.356,1.148,2.044,1.71a2.258,2.258,0,0,0,.422.238l.483.236-.129,1.212-.38.105c-.124.034-.248.071-.37.108-.253.075-.515.154-.788.212l-12.857,2.729q-13.4,2.844-26.8,5.692c-1.028.221-1.688-.157-2.262-1.3l-5.44-7.081a3.959,3.959,0,0,1-.815-1.038c-.067-.109-.14-.229-.228-.366l-.456-.714,8.81-1.772a1.8,1.8,0,0,0-.2-.644,3.513,3.513,0,0,0-.958.107l-2.83.555q-2.16.423-4.32.85c-1.022.2-1.371-.3-2-1.212-.137-.2-.3-.43-.493-.7l-10.505-13.529c-.165-.184-.308-.329-.432-.454a4.863,4.863,0,0,1-.824-1.04l-.451-.733,11.954-2.016c-.434-.7-.655-.659-1.711-.482q-4.174.7-8.35,1.381a8.621,8.621,0,0,1-.885.083c-.143.008-.292.017-.452.029l-.75.059.135-.74c.025-.138.045-.26.064-.372.039-.229.071-.417.115-.6q.432-1.808.867-3.617.465-1.939.929-3.878C1222.257,1272.559,1222.312,1272.33,1221.59,1272.039Zm20.584,61.573,0-1.2c0-.332,0-.63,0-.929q.058-2.194.12-4.388c.109-3.915.222-7.962.291-11.943a1.641,1.641,0,0,1,1.54-1.778c7.314-1.532,15.126-3.182,24.586-5.192q10.774-2.29,21.546-4.59l9.725-2.071c1.189-.25,2.417-.509,3.618-.786a1.2,1.2,0,0,1,1.661,1.341q-.045,4.766-.067,9.531-.019,3.237-.042,6.474c-.009,1.309-.429,1.82-1.727,2.107l-15.253,3.355q-10.577,2.327-21.153,4.655-6.756,1.489-13.509,2.987-4.7,1.04-9.392,2.078c-.279.062-.561.108-.855.157-.134.022-.27.044-.409.07Zm61.916-31.781a1.3,1.3,0,0,0-.227.037c-1.211.279-2.446.54-3.639.791l-9.722,2.071q-10.773,2.3-21.547,4.59c-9.462,2.01-17.275,3.66-24.59,5.192-.557.117-.61.173-.618.663-.069,3.987-.182,8.038-.291,11.955q-.061,2.193-.12,4.386c-.006.235-.006.469,0,.721.183-.031.361-.063.539-.1q4.7-1.037,9.392-2.078,6.755-1.5,13.51-2.987,10.576-2.331,21.154-4.655l15.252-3.356c.766-.169.812-.224.818-.983q.024-3.236.042-6.472.029-4.767.068-9.535A1.425,1.425,0,0,0,1304.09,1301.831ZM1240.44,1331.6l-.27-.283c-.049-.052-.1-.1-.149-.151a4.326,4.326,0,0,1-.378-.41l-5.967-7.636q-6.506-8.327-13.02-16.646a5.541,5.541,0,0,1-1.236-3.688c.057-3.489.08-7.039.1-10.471q.015-2.26.032-4.52c0-.236.019-.472.042-.781.012-.159.025-.34.038-.552l.084-1.329.916.966c.125.132.229.238.319.329a4.86,4.86,0,0,1,.424.464l5.918,7.718q6.825,8.9,13.661,17.8a3.917,3.917,0,0,1,.892,2.728c-.13,3.453-.209,6.968-.286,10.367q-.046,2.057-.1,4.113c-.008.29-.031.58-.055.87-.011.129-.022.257-.03.385l-.026.364Zm-19.727-43.667q-.018,2.195-.031,4.39c-.022,3.436-.045,6.988-.1,10.483a4.38,4.38,0,0,0,.989,2.953q6.519,8.316,13.021,16.647l5.714,7.312c0-.043,0-.087,0-.13q.051-2.055.1-4.111c.077-3.4.156-6.922.286-10.384a2.771,2.771,0,0,0-.653-1.977q-6.841-8.892-13.662-17.8Z" transform="translate(-1217.471 -1270.55)"/>
      </g>
      <g id="Group_1772" data-name="Group 1772" transform="translate(4.867 0)">
        <path id="Path_780" data-name="Path 780" d="M1233.079,1210.958a1.574,1.574,0,0,1-.263-.065c-1.443-.777-1.455-.78-1.076-2.371q1.8-7.58,3.628-15.154a5.6,5.6,0,0,1,4.885-4.329c5.344-.693,10.7-1.323,16.045-1.983q11.89-1.468,23.779-2.938,11.475-1.406,22.956-2.764a2.465,2.465,0,0,1,1.488.331q3.509,2.209,6.935,4.549a1.313,1.313,0,0,1,.533,1.077,1.433,1.433,0,0,1-.986.8c-2.455.379-4.922.693-7.39.981a1.6,1.6,0,0,0-1.4.973q-7.059,13.942-14.168,27.856a.855.855,0,0,0,.275,1.269c.753.578,1.424,1.264,2.195,1.814.693.494.8.979.276,1.633-.153.191-.273.408-.475.717-.694-.567-1.337-1.086-1.972-1.614-.58-.483-1.132-1-1.733-1.453a1.019,1.019,0,0,0-.8-.229c-.195.085-.339.479-.357.747-.206,2.981-.384,5.965-.57,8.948a51.644,51.644,0,0,1-.4,5.6,31.784,31.784,0,0,1-1.462,4.612.574.574,0,0,1-.388.271c-2.346.479-4.694.942-7.192,1.44a9.918,9.918,0,0,1,.206-1.661.981.981,0,0,1,.668-.474c1.693-.362,3.39-.71,5.1-1,.715-.122,1.037-.385,1.082-1.167.307-5.382.655-10.762,1.015-16.14.045-.669-.168-.838-.8-.726-2.063.362-4.139.649-6.193,1.055-.806.159-1.151-.015-1.165-.834a8.054,8.054,0,0,0-.127-.909c.547-.1,1.032-.19,1.52-.272,2.727-.454,5.452-.919,8.183-1.347a1.6,1.6,0,0,0,1.329-.956q6.812-13.456,13.667-26.889c.085-.167.134-.353.253-.677-.521.026-.949.018-1.368.073q-12.335,1.622-24.667,3.255-11.463,1.507-22.93,2.975a2.217,2.217,0,0,1-1.326-.321,71.685,71.685,0,0,1-6.636-4.231c-1.825-1.41-5.5-.036-5.987,2.339-.571,2.761-1.3,5.49-1.958,8.232q-1.009,4.2-2.022,8.389C1233.229,1210.569,1233.152,1210.746,1233.079,1210.958Zm74.86-24.409.067-.221c-.21-.162-.411-.338-.631-.484-1.047-.694-2.12-1.351-3.143-2.078a2.367,2.367,0,0,0-1.793-.445q-12,1.515-24.012,2.985-15.915,1.949-31.832,3.877c-.342.042-.678.129-1.191.229a6.787,6.787,0,0,0,.62.537c1.458.932,2.907,1.88,4.4,2.761a2.107,2.107,0,0,0,1.257.233c8.056-1.035,16.107-2.1,24.159-3.156q15.566-2.034,31.134-4.059C1307.3,1186.686,1307.617,1186.61,1307.939,1186.55Z" transform="translate(-1230.962 -1180.76)"/>
        <path id="Path_781" data-name="Path 781" d="M1273.876,1241.473l.083-.783c.02-.188.034-.366.046-.536a5.8,5.8,0,0,1,.18-1.229,1.506,1.506,0,0,1,1.1-.877c1.516-.324,3.309-.7,5.12-1.005.5-.085.574-.161.6-.628.329-5.748.7-11.387,1.016-16.145,0-.055,0-.1,0-.135-.034,0-.077.009-.129.018-.8.141-1.61.271-2.417.4-1.238.2-2.519.406-3.764.652a1.649,1.649,0,0,1-1.391-.193,1.508,1.508,0,0,1-.467-1.2,3.143,3.143,0,0,0-.062-.48c-.019-.109-.039-.226-.058-.355l-.081-.556,1.07-.193c.349-.064.678-.124,1.009-.179l1.917-.321c2.054-.343,4.178-.7,6.271-1.027a1.034,1.034,0,0,0,.9-.645q5.066-10.008,10.161-20l3.406-6.693c-.147.007-.287.018-.423.036q-6.174.812-12.347,1.629t-12.321,1.626c-7.751,1.019-15.337,2.013-22.932,2.976a2.775,2.775,0,0,1-1.7-.4c-.531-.324-1.068-.643-1.6-.961a50.045,50.045,0,0,1-5.084-3.306,3.06,3.06,0,0,0-2.879-.187,3.26,3.26,0,0,0-2.186,2.184c-.4,1.943-.887,3.9-1.356,5.786-.2.821-.408,1.642-.606,2.464l-.169.7q-.925,3.845-1.854,7.69a3.869,3.869,0,0,1-.142.437c-.022.06-.045.122-.067.188l-.171.5-.515-.125-.121-.027a.914.914,0,0,1-.28-.093c-1.675-.9-1.8-1.182-1.365-3.015,1.18-4.958,2.4-10.085,3.629-15.157a6.144,6.144,0,0,1,5.375-4.767c3.615-.469,7.295-.917,10.853-1.349q2.6-.316,5.2-.635,4.535-.56,9.068-1.123,7.355-.911,14.711-1.816c7.235-.886,15.023-1.834,22.959-2.765a3.059,3.059,0,0,1,1.864.417c2.282,1.437,4.621,2.971,6.952,4.561a1.84,1.84,0,0,1,.762,1.723,2,2,0,0,1-1.452,1.207c-2.169.335-4.524.647-7.412.983a1.038,1.038,0,0,0-.953.66c-4.543,8.974-9.31,18.346-14.169,27.857-.164.321-.145.348.111.545.35.269.682.559,1,.839.4.347.773.675,1.177.964a1.776,1.776,0,0,1,.834,1.175,1.673,1.673,0,0,1-.442,1.291,4.291,4.291,0,0,0-.255.378c-.057.089-.118.187-.189.3l-.354.538-1.144-.934c-.456-.371-.9-.729-1.33-1.091-.207-.173-.411-.35-.615-.526-.371-.323-.722-.627-1.1-.909a.871.871,0,0,0-.187-.1.79.79,0,0,0-.045.2c-.158,2.272-.3,4.546-.438,6.819l-.132,2.124c-.035.557-.056,1.116-.077,1.675a29.825,29.825,0,0,1-.33,3.982,19.987,19.987,0,0,1-1.035,3.444c-.153.418-.307.836-.449,1.255a1.118,1.118,0,0,1-.82.654c-1.912.39-3.825.77-5.819,1.166Zm1.407-2.165a4.264,4.264,0,0,0-.1.724l.622-.124c1.99-.4,3.9-.775,5.8-1.163.135-.392.278-.784.422-1.175a18.86,18.86,0,0,0,.981-3.241,29.093,29.093,0,0,0,.313-3.829c.021-.569.043-1.137.079-1.7l.131-2.124c.141-2.276.281-4.552.439-6.827a1.51,1.51,0,0,1,.7-1.239,1.526,1.526,0,0,1,1.382.3c.406.306.789.638,1.159.96.2.172.4.343.6.511.432.359.867.714,1.32,1.083l.144.118c.05-.075.1-.147.159-.218a.707.707,0,0,0,.2-.408c-.005-.035-.045-.167-.36-.391-.451-.322-.865-.685-1.266-1.035-.322-.281-.625-.546-.946-.792a1.415,1.415,0,0,1-.438-1.993c4.858-9.51,9.625-18.881,14.167-27.854a2.183,2.183,0,0,1,1.853-1.288c2.874-.334,5.215-.645,7.369-.977a.989.989,0,0,0,.5-.365,1.008,1.008,0,0,0-.29-.461c-2.32-1.582-4.648-3.109-6.917-4.538a1.889,1.889,0,0,0-1.112-.246c-7.932.93-15.719,1.878-22.953,2.764q-7.356.9-14.71,1.816-4.534.562-9.069,1.122-2.6.321-5.2.635c-3.556.432-7.232.879-10.844,1.347a5.022,5.022,0,0,0-4.4,3.891c-1.228,5.068-2.448,10.195-3.628,15.152a3.632,3.632,0,0,0-.182,1.115,1.956,1.956,0,0,0,.6.412q.922-3.812,1.838-7.624l.168-.7q.3-1.238.608-2.473c.467-1.878.948-3.82,1.346-5.741a4.412,4.412,0,0,1,2.918-3.037,4.208,4.208,0,0,1,3.99.358,48.964,48.964,0,0,0,4.967,3.226c.541.321,1.082.642,1.617.969a1.658,1.658,0,0,0,.951.241c7.593-.963,15.178-1.957,22.928-2.976q6.16-.809,12.32-1.626t12.347-1.629a9.054,9.054,0,0,1,.936-.06c.151,0,.31-.009.479-.018l.876-.044-.3.823c-.041.11-.073.2-.1.286a3.368,3.368,0,0,1-.18.454l-3.506,6.891q-5.088,9.994-10.16,20a2.18,2.18,0,0,1-1.757,1.266c-2.088.327-4.208.682-6.26,1.026l-1.918.32c-.311.052-.622.109-.949.168a3.017,3.017,0,0,1,.041.43,1,1,0,0,0,.041.313,1.31,1.31,0,0,0,.432-.037c1.266-.25,2.557-.458,3.8-.659.8-.129,1.6-.258,2.4-.4a1.121,1.121,0,0,1,1.483,1.336c-.318,4.756-.687,10.392-1.015,16.135a1.644,1.644,0,0,1-1.563,1.7c-1.79.305-3.568.675-5.072,1A.692.692,0,0,0,1275.283,1239.308Zm6.284-.454h0Zm-31.048-45.232a2.618,2.618,0,0,1-1.3-.329c-1.2-.712-2.4-1.479-3.551-2.219l-.862-.553a2.973,2.973,0,0,1-.429-.353c-.073-.068-.157-.146-.261-.237l-.89-.779,1.162-.226c.175-.034.329-.066.47-.1.275-.058.513-.108.76-.139q6.544-.8,13.088-1.593,9.373-1.14,18.745-2.285c8.146-1,16.224-2,24.01-2.984a2.952,2.952,0,0,1,2.2.547c.664.472,1.367.926,2.046,1.364q.542.349,1.081.7c.172.114.326.238.475.358.063.051.126.1.19.151l.317.244-.282.94-.349.065c-.1.019-.2.039-.3.059-.233.047-.467.094-.7.125l-13.9,1.812q-8.616,1.123-17.23,2.247l-7.74,1.015q-8.209,1.078-16.42,2.142A2.556,2.556,0,0,1,1250.518,1193.621Zm-4.641-3.794.421.27c1.145.735,2.329,1.5,3.515,2.2a1.53,1.53,0,0,0,.888.156q8.211-1.056,16.417-2.141l7.741-1.015q8.615-1.127,17.23-2.247l13.816-1.8c-.273-.179-.547-.356-.822-.533-.691-.445-1.4-.906-2.09-1.393a1.786,1.786,0,0,0-1.385-.342c-7.788.983-15.867,1.987-24.015,2.985q-9.372,1.148-18.746,2.285Q1252.362,1189.036,1245.877,1189.827Z" transform="translate(-1230.06 -1179.841)"/>
      </g>
      <g id="Group_1773" data-name="Group 1773" transform="translate(20.67 39.633)">
        <path id="Path_782" data-name="Path 782" d="M1273.116,1287.317c1.2-.206,2.369-.41,3.539-.606q8.381-1.4,16.763-2.8c1.032-.173,1.562.344,1.319,1.393-.048.206-.464.42-.737.467-3.382.583-6.77,1.135-10.156,1.7-2.725.454-5.451.9-8.174,1.372C1274.121,1289.106,1273.873,1288.979,1273.116,1287.317Z" transform="translate(-1272.276 -1283.299)"/>
        <path id="Path_783" data-name="Path 783" d="M1273.411,1288.6c-1.036,0-1.489-.5-2.155-1.964l-.312-.685,1.942-.333c.786-.136,1.563-.27,2.342-.4l7.608-1.271q4.578-.763,9.154-1.528a1.589,1.589,0,0,1,1.98,2.1c-.123.531-.8.838-1.2.908-2.466.426-4.976.841-7.4,1.242l-4.008.665q-3.46.575-6.919,1.162A6.211,6.211,0,0,1,1273.411,1288.6Zm-.779-1.762c.372.722.576.687,1.607.511q3.46-.594,6.925-1.164l4.008-.665c2.426-.4,4.934-.816,7.4-1.241a.888.888,0,0,0,.291-.122.653.653,0,0,0-.051-.522c-.069-.074-.271-.132-.627-.072q-4.577.766-9.155,1.529l-7.608,1.27c-.776.13-1.552.263-2.336.4Z" transform="translate(-1270.944 -1282.378)"/>
      </g>
      <g id="Group_1774" data-name="Group 1774" transform="translate(31.442 59.546)">
        <path id="Path_784" data-name="Path 784" d="M1300.57,1337.751l10.754-2.105c.342,1.522.065,1.951-1.3,2.214q-3.695.714-7.385,1.45C1300.967,1339.642,1300.933,1339.622,1300.57,1337.751Z" transform="translate(-1299.891 -1334.969)"/>
        <path id="Path_785" data-name="Path 785" d="M1300.468,1338.979a1.259,1.259,0,0,1-.733-.2c-.489-.328-.61-.954-.811-1.991l-.11-.568,11.875-2.325.124.549a2.687,2.687,0,0,1-.109,2.054,2.368,2.368,0,0,1-1.645.857q-3.693.714-7.382,1.45A6.7,6.7,0,0,1,1300.468,1338.979Zm-.292-1.844a2.2,2.2,0,0,0,.214.689,5.284,5.284,0,0,0,1.061-.156q3.693-.731,7.388-1.45c.511-.1.8-.214.894-.353a1.056,1.056,0,0,0,.049-.61Z" transform="translate(-1298.813 -1333.895)"/>
      </g>
      <g id="Group_1775" data-name="Group 1775" transform="translate(24.701 65.181)">
        <path id="Path_786" data-name="Path 786" d="M1282.875,1381.645c0-.545-.01-.984,0-1.422.144-5.445.317-10.889.411-16.335.015-.858.364-1.071,1.079-1.221q12.3-2.576,24.588-5.192,14.995-3.185,29.986-6.389c1.639-.349,3.281-.683,4.913-1.06.7-.162.958.035.951.771-.05,5.335-.069,10.67-.109,16.005-.008,1.041-.251,1.32-1.273,1.545q-18.2,4.008-36.406,8.011-11.452,2.524-22.9,5.065C1283.719,1381.511,1283.315,1381.567,1282.875,1381.645Z" transform="translate(-1282.292 -1349.393)" fill="#8973a4"/>
        <path id="Path_787" data-name="Path 787" d="M1281.375,1381.416l0-1.2c0-.332,0-.63,0-.929q.058-2.194.12-4.388c.109-3.914.222-7.962.291-11.942a1.64,1.64,0,0,1,1.54-1.778c7.314-1.532,15.127-3.182,24.586-5.192q10.774-2.29,21.546-4.59l9.725-2.071c1.189-.25,2.417-.509,3.618-.786a1.2,1.2,0,0,1,1.661,1.341q-.045,4.766-.067,9.531-.019,3.237-.042,6.474c-.009,1.309-.429,1.821-1.727,2.107l-15.252,3.355q-10.577,2.326-21.153,4.655-6.756,1.489-13.509,2.987-4.7,1.04-9.392,2.078c-.279.062-.561.108-.855.157-.133.022-.27.045-.409.07Zm61.916-31.782a1.342,1.342,0,0,0-.227.037c-1.211.28-2.446.539-3.639.791l-9.722,2.071q-10.773,2.3-21.547,4.59c-9.462,2.01-17.275,3.66-24.59,5.192-.558.117-.61.173-.618.663-.069,3.987-.182,8.037-.291,11.955q-.061,2.193-.12,4.386c-.006.235-.006.469,0,.721.183-.031.361-.063.539-.1l9.392-2.078q6.754-1.5,13.51-2.987,10.577-2.331,21.154-4.656l15.252-3.355c.766-.169.812-.224.817-.983q.024-3.236.042-6.472.029-4.768.067-9.535A1.432,1.432,0,0,0,1343.291,1349.634Z" transform="translate(-1281.371 -1348.473)"/>
      </g>
      <g id="Group_1776" data-name="Group 1776" transform="translate(1.949 49.646)">
        <path id="Path_788" data-name="Path 788" d="M1244.6,1356.231c-.164-.172-.344-.332-.49-.518q-9.494-12.142-18.988-24.282a4.986,4.986,0,0,1-1.112-3.321c.081-5,.092-10,.134-15,0-.348.042-.7.079-1.3.353.372.548.543.7.746q9.788,12.76,19.58,25.518a3.361,3.361,0,0,1,.773,2.351c-.181,4.827-.262,9.658-.383,14.488-.01.41-.055.819-.083,1.229Z" transform="translate(-1223.432 -1310.448)" fill="#8973a4"/>
        <path id="Path_789" data-name="Path 789" d="M1243.532,1354.747l-.27-.283c-.049-.052-.1-.1-.149-.151a4.281,4.281,0,0,1-.378-.41l-5.967-7.636q-6.506-8.327-13.02-16.646a5.541,5.541,0,0,1-1.235-3.688c.057-3.489.08-7.039.1-10.471q.015-2.26.032-4.52c0-.236.019-.472.042-.781.012-.159.025-.339.038-.551l.084-1.329.916.966c.125.132.229.238.319.329a4.93,4.93,0,0,1,.424.464l5.918,7.718q6.825,8.9,13.661,17.8a3.915,3.915,0,0,1,.893,2.727c-.13,3.453-.209,6.968-.286,10.367q-.047,2.057-.1,4.113c-.008.29-.031.58-.055.87-.011.129-.022.257-.03.385l-.026.364ZM1223.8,1311.08q-.018,2.195-.031,4.39c-.022,3.435-.045,6.988-.1,10.483a4.379,4.379,0,0,0,.989,2.953q6.519,8.316,13.021,16.647l5.714,7.312c0-.043,0-.087,0-.13q.051-2.055.1-4.111c.077-3.4.157-6.922.286-10.384a2.771,2.771,0,0,0-.653-1.977q-6.841-8.892-13.662-17.8Z" transform="translate(-1222.511 -1308.281)"/>
      </g>
      <g id="Group_1777" data-name="Group 1777" transform="translate(18.036 1.957)">
        <path id="Path_790" data-name="Path 790" d="M1329.958,1189.656c-.323.06-.644.137-.969.179q-15.566,2.032-31.134,4.059c-8.053,1.053-16.1,2.121-24.159,3.156a2.111,2.111,0,0,1-1.258-.232c-1.489-.881-2.938-1.829-4.4-2.761a6.748,6.748,0,0,1-.62-.537c.513-.1.849-.187,1.19-.229q15.916-1.942,31.832-3.878,12.01-1.471,24.012-2.985a2.367,2.367,0,0,1,1.793.445c1.023.727,2.1,1.384,3.143,2.078.221.146.421.323.631.484Z" transform="translate(-1266.15 -1185.823)" fill="#8973a4"/>
        <path id="Path_791" data-name="Path 791" d="M1271.419,1196.727a2.62,2.62,0,0,1-1.3-.329c-1.2-.713-2.4-1.479-3.55-2.219l-.862-.553a2.982,2.982,0,0,1-.429-.353c-.073-.068-.157-.146-.261-.237l-.89-.78,1.161-.226c.175-.034.329-.066.471-.1.275-.058.513-.108.76-.139q6.544-.8,13.088-1.593,9.372-1.14,18.745-2.285c8.146-1,16.224-2,24.01-2.985a2.954,2.954,0,0,1,2.2.547c.664.472,1.367.926,2.046,1.364q.542.349,1.081.7c.172.115.326.238.475.358.063.051.126.1.19.151l.317.244-.282.941-.349.065c-.1.019-.2.039-.3.059-.234.047-.467.094-.7.125l-13.9,1.813q-8.616,1.122-17.23,2.246l-7.74,1.015q-8.209,1.078-16.42,2.142A2.554,2.554,0,0,1,1271.419,1196.727Zm-4.641-3.794.422.27c1.145.735,2.329,1.5,3.514,2.2a1.532,1.532,0,0,0,.889.157q8.21-1.056,16.417-2.141l7.741-1.015q8.615-1.127,17.23-2.247l13.816-1.8c-.273-.179-.548-.356-.822-.533-.69-.445-1.4-.906-2.09-1.393a1.785,1.785,0,0,0-1.385-.342c-7.787.982-15.867,1.987-24.014,2.985q-9.372,1.147-18.746,2.285Q1273.263,1192.142,1266.778,1192.932Z" transform="translate(-1264.13 -1184.903)"/>
      </g>
      <path id="Path_792" data-name="Path 792" d="M1230.941,1216.442l-7.5,32.631-2.319-3.865,6.957-29.376Z" transform="translate(-1219.706 -1201.92)"/>
      <path id="Path_793" data-name="Path 793" d="M1371.067,1275.332l1.028.387,27.444,23.192-2.706,1.16-15.906-12.734-12.31-10.458Z" transform="translate(-1310.193 -1238.422)"/>
      <path id="Path_794" data-name="Path 794" d="M1360.617,1297.972l1.546-18.94,3.31-.819-1.261,21.094Z" transform="translate(-1305.285 -1240.189)"/>
      <path id="Path_795" data-name="Path 795" d="M1279.326,1277.512l-52.739,9.112-.948-3.613,58.357-9.679Z" transform="translate(-1222.481 -1237.195)"/>
      <path id="Path_796" data-name="Path 796" d="M1299.277,1330.125l-41.714,7.8-1.924-3.463,44.056-8.133Z" transform="translate(-1240.885 -1269.709)"/>
    </g>
    <path id="Path_797" data-name="Path 797" d="M1095.686,1111.14c.256-.786.66-2.33,1.257-3.8,1.095-2.687,1.063-5.255-.807-7.538a22.238,22.238,0,0,0-3.229-2.9,6.927,6.927,0,0,1-.11-10.956c.818-.684,1.656-1.346,2.462-2.046a6.893,6.893,0,0,0,1.941-7.765c-.386-1.026-.812-2.039-1.147-3.082a6.882,6.882,0,0,1,5.485-9.074c1.05-.186,2.107-.34,3.156-.53a6.913,6.913,0,0,0,5.494-5.3c.223-1.042.381-2.1.527-3.156a6.921,6.921,0,0,1,9.368-5.677c.892.32,1.77.682,2.658,1.016a6.906,6.906,0,0,0,8.152-2.177c.6-.733,1.194-1.474,1.808-2.2a6.873,6.873,0,0,1,10.71-.114c.668.753,1.277,1.559,1.921,2.334a6.93,6.93,0,0,0,8.084,2.177,28.182,28.182,0,0,1,3.945-1.34,6.83,6.83,0,0,1,8.117,5.829c.157,1.055.308,2.113.519,3.158a6.862,6.862,0,0,0,5.636,5.465c1.08.187,2.165.347,3.241.554a6.889,6.889,0,0,1,5.28,9.061c-.366,1.1-.828,2.158-1.208,3.25a6.874,6.874,0,0,0,2.093,7.648c.835.711,1.7,1.389,2.535,2.1a6.932,6.932,0,0,1-.017,10.613c-.839.707-1.709,1.376-2.535,2.1a6.907,6.907,0,0,0-1.98,7.909c.387,1.026.8,2.044,1.138,3.086a6.879,6.879,0,0,1-5.414,8.976c-.992.177-1.988.332-2.981.5a6.953,6.953,0,0,0-5.888,5.953c-.147.907-.283,1.815-.429,2.723a6.9,6.9,0,0,1-9.252,5.531c-1.035-.36-2.046-.79-3.08-1.152a6.857,6.857,0,0,0-7.648,2.082c-.67.792-1.312,1.608-1.977,2.4a6.861,6.861,0,0,1-10.591.245c-.718-.787-1.359-1.644-2.04-2.466a6.911,6.911,0,0,0-8.163-2.143c-.886.338-1.765.7-2.66,1.01a6.9,6.9,0,0,1-9.332-5.621c-.137-.909-.272-1.818-.427-2.723a6.919,6.919,0,0,0-5.806-5.823c-1.051-.182-2.106-.343-3.155-.538C1098.026,1118.119,1095.675,1115.285,1095.686,1111.14Z" transform="translate(0)" fill="#e4ab43"/>
    <g id="Group_1779" data-name="Group 1779" transform="translate(1101.516 1055.015)">
      <path id="Path_798" data-name="Path 798" d="M1155.827,1146.094q-1.108,0-2.227-.068a36.268,36.268,0,1,1,38.4-34h0A36.316,36.316,0,0,1,1155.827,1146.094Zm-.045-69.356a33.1,33.1,0,1,0,2.032.062C1157.134,1076.758,1156.454,1076.738,1155.782,1076.738Z" transform="translate(-1119.535 -1073.555)" fill="#fff"/>
    </g>
    <text id="FREE" transform="translate(1137.018 1093.014)" fill="#fff" font-size="27" font-family="BebasNeueBook, Bebas Neue"><tspan x="-19.224" y="0">FREE</tspan></text>
    <text id="Post_pack" data-name="Post pack" transform="translate(1137.018 1109.014)" fill="#fff" font-size="15" font-family="BebasNeueBook, Bebas Neue"><tspan x="-24" y="0">Post pack</tspan></text>
  </g>
</svg>
