<svg xmlns="http://www.w3.org/2000/svg" xmlns:xlink="http://www.w3.org/1999/xlink" width="180" height="180.404" viewBox="0 0 180 180.404">
  <defs>
    <linearGradient id="linear-gradient" y1="0.5" x2="1" y2="0.5" gradientUnits="objectBoundingBox">
      <stop offset="0.087" stop-color="#e8af42"/>
      <stop offset="1" stop-color="#df8026"/>
    </linearGradient>
  </defs>
  <g id="Group_1747" data-name="Group 1747" transform="translate(-1064.439 -871.292)">
    <path id="Path_765" data-name="Path 765" d="M1074.807,998.6c.48-1.475,1.24-4.375,2.361-7.127,2.055-5.045,2-9.866-1.516-14.152a41.729,41.729,0,0,0-6.062-5.45c-6.771-5.545-6.891-14.98-.207-20.57,1.537-1.285,3.11-2.528,4.622-3.841a12.942,12.942,0,0,0,3.644-14.579c-.724-1.927-1.524-3.829-2.154-5.786a12.922,12.922,0,0,1,10.3-17.035c1.971-.35,3.955-.638,5.925-.995a12.978,12.978,0,0,0,10.314-9.959c.419-1.957.715-3.943.988-5.926a12.994,12.994,0,0,1,17.589-10.659c1.676.6,3.323,1.282,4.99,1.908a12.967,12.967,0,0,0,15.306-4.088c1.13-1.377,2.242-2.768,3.395-4.125,5.5-6.476,14.464-6.579,20.108-.214,1.254,1.415,2.4,2.928,3.606,4.383a13.012,13.012,0,0,0,15.178,4.087,52.9,52.9,0,0,1,7.408-2.516,12.823,12.823,0,0,1,15.24,10.943c.3,1.981.578,3.967.974,5.929a12.885,12.885,0,0,0,10.582,10.26c2.028.351,4.065.651,6.086,1.039a12.936,12.936,0,0,1,9.912,17.012c-.687,2.057-1.555,4.052-2.267,6.1a12.907,12.907,0,0,0,3.929,14.361c1.567,1.334,3.187,2.608,4.759,3.937a13.015,13.015,0,0,1-.033,19.926c-1.574,1.328-3.209,2.584-4.758,3.938a12.966,12.966,0,0,0-3.718,14.849c.726,1.926,1.5,3.837,2.137,5.793a12.917,12.917,0,0,1-10.164,16.852c-1.862.332-3.732.623-5.6.945a13.053,13.053,0,0,0-11.055,11.176c-.277,1.7-.532,3.409-.8,5.112a12.953,12.953,0,0,1-17.371,10.383c-1.943-.676-3.841-1.482-5.783-2.163a12.876,12.876,0,0,0-14.361,3.909c-1.258,1.487-2.463,3.018-3.712,4.513a12.883,12.883,0,0,1-19.885.461c-1.348-1.478-2.552-3.088-3.829-4.631a12.98,12.98,0,0,0-15.327-4.023c-1.663.635-3.314,1.308-4.993,1.9a12.963,12.963,0,0,1-17.521-10.554c-.257-1.705-.51-3.412-.8-5.111a12.991,12.991,0,0,0-10.9-10.932c-1.974-.341-3.954-.645-5.923-1.011C1079.2,1011.705,1074.787,1006.384,1074.807,998.6Zm79.7,34.12a71.24,71.24,0,1,0-71.151-71.266A71.239,71.239,0,0,0,1154.511,1032.721Z" transform="translate(0 0)" fill="#e8af42"/>
    <circle id="Ellipse_81" data-name="Ellipse 81" cx="69.528" cy="69.528" r="69.528" transform="translate(1086.802 891.813)" fill="url(#linear-gradient)"/>
    <path id="Path_766" data-name="Path 766" d="M1180.569,914.292a73.792,73.792,0,1,0,73.792,73.792A73.792,73.792,0,0,0,1180.569,914.292Zm0,141.068a67.275,67.275,0,1,1,67.276-67.275A67.276,67.276,0,0,1,1180.569,1055.359Z" transform="translate(-26.108 -26.517)" fill="#df8026"/>
    <path id="Path_767" data-name="Path 767" d="M1271.474,1039.137c.258.874.514,1.765.79,2.685a7.5,7.5,0,0,0,.78-.473,81.208,81.208,0,0,1,16.447-9.98l.43-.205-2.146-4.4c-3.506,1.948-6.509,3.649-9.7,5.441a50.084,50.084,0,0,0-96.265-23.943l5.027,1.732a44.779,44.779,0,0,1,86.147,19.289c-1.269-3.014-2.532-6.022-3.87-9.185l-4.382,2.136a110.546,110.546,0,0,1,5.975,14.405c.247.751.477,1.51.705,2.28-.018.064-.034.128-.052.193C1271.4,1039.124,1271.435,1039.127,1271.474,1039.137Z" transform="translate(-72.376 -65.116)" fill="#fff"/>
    <path id="Path_768" data-name="Path 768" d="M1160.246,1071.149c-.258-.873-.514-1.765-.79-2.685a7.485,7.485,0,0,0-.781.473,81.2,81.2,0,0,1-16.448,9.98l-.429.205,2.145,4.4c3.507-1.948,6.509-3.65,9.7-5.441a50.084,50.084,0,0,0,96.265,23.944l-5.027-1.732A44.779,44.779,0,0,1,1158.74,1081c1.269,3.014,2.532,6.022,3.87,9.186l4.382-2.136a110.686,110.686,0,0,1-5.975-14.4c-.247-.752-.477-1.51-.705-2.281.018-.064.034-.128.052-.192C1160.325,1071.162,1160.285,1071.159,1160.246,1071.149Z" transform="translate(-47.705 -121.589)" fill="#fff"/>
    <text id="_12_month_guarantee" data-name="12 month
guarantee" transform="translate(1151.958 957.969)" fill="#fff" font-size="17" font-family="BebasNeueBook, Bebas Neue"><tspan x="-24.183" y="0">12 month</tspan><tspan x="-29.469" y="14">guarantee</tspan></text>
  </g>
</svg>
