<svg xmlns="http://www.w3.org/2000/svg" width="142" height="142" viewBox="0 0 142 142"><defs><style>.a{fill:#9fcd48;}.b{fill:#fff;}</style></defs><g transform="translate(-143 -860)"><circle class="a" cx="71" cy="71" r="71" transform="translate(143 860)"/><g transform="translate(164.632 896.769)"><path class="b" d="M359.452,714.971c-.063,8.448,2.323,14.427,6.753,19,6.167,6.37,13.955,7.779,20.913,3.165a38.91,38.91,0,0,0,16.173-21.55c2.151-7.1.126-12.84-5.747-17.165-7.744-5.7-16.227-6.568-24.806-2.449C364.1,700.12,359.839,707.453,359.452,714.971ZM426.8,693.6a22.229,22.229,0,0,0-14.2,4.95c-5.67,4.359-7.709,10.2-5.593,17.027a39.906,39.906,0,0,0,15.782,21.3c6.209,4.315,12.964,3.825,18.938-.814a23.853,23.853,0,0,0,8.063-26.2C446.564,700.09,437.633,693.638,426.8,693.6Zm-20.043,54.862c2.75.175,5.857-2.346,8.929-4.9,3.214-2.673,3.583-6.235.844-9.377a3.151,3.151,0,0,0-2.633-.837,31.621,31.621,0,0,1-17.5-.061,2.544,2.544,0,0,0-1.962.236c-2.291,1.693-3.175,5.941-1.381,8.129C396.154,745.429,399.909,748.321,406.758,748.466Zm47.1-58.865c.6-4.936-4.495-10.023-8.693-9.859-4.394.168-7.725,4.469-7.623,10.13.07,3.877,2.906,6.272,7.434,6.272C451.569,696.143,453.869,694.45,453.853,689.6Zm-89.6,6.545c4.548.04,7.224-2.265,7.3-6.288.11-5.719-3.156-10.1-7.529-10.1-4.817,0-8.586,4.3-8.64,9.855C355.345,694.473,357.533,696.085,364.257,696.146Z" transform="translate(-355.391 -679.737)"/><path d="M357.133,707.159c.387-7.518,4.651-14.851,13.286-19,8.579-4.119,17.062-3.254,24.806,2.449,5.873,4.324,7.9,10.067,5.747,17.165a38.91,38.91,0,0,1-16.174,21.55c-6.958,4.614-14.746,3.2-20.913-3.165C359.456,721.586,357.07,715.608,357.133,707.159Zm38.094,3.863c.522-9.188-6.986-12.54-13.1-12.68-6.26-.142-12.458,5.675-12.516,11.555a13.751,13.751,0,0,0,13.482,13.531C390.527,723.428,395.227,718.626,395.227,711.022Z" transform="translate(-353.071 -671.925)"/><path d="M397.781,685.686c10.832.035,19.763,6.487,22.987,16.26a23.853,23.853,0,0,1-8.063,26.2c-5.974,4.64-12.728,5.129-18.938.814a39.906,39.906,0,0,1-15.782-21.3c-2.116-6.825-.077-12.668,5.593-17.027A22.229,22.229,0,0,1,397.781,685.686ZM395.3,723.3a13.587,13.587,0,0,0,14.007-12.908c.266-6-5.465-11.889-11.858-12.171-7.637-.336-13.456,4.59-13.713,11.611C383.437,717.97,387.752,723,395.3,723.3Z" transform="translate(-326.371 -671.82)"/><path d="M385.785,717.924c-6.848-.145-10.6-3.037-13.7-6.808-1.794-2.188-.91-6.435,1.381-8.129a2.544,2.544,0,0,1,1.962-.236,31.621,31.621,0,0,0,17.5.061,3.151,3.151,0,0,1,2.633.837c2.738,3.142,2.37,6.7-.844,9.377C391.642,715.578,388.535,718.1,385.785,717.924Z" transform="translate(-334.418 -649.196)"/><path d="M406.926,689.6c.016,4.849-2.284,6.543-8.882,6.543-4.527,0-7.364-2.4-7.434-6.272-.1-5.661,3.228-9.962,7.623-10.13C402.431,679.578,407.528,684.665,406.926,689.6Z" transform="translate(-308.464 -679.737)"/><path d="M364.257,696.133c-6.725-.061-8.912-1.672-8.866-6.531.054-5.556,3.823-9.855,8.64-9.855,4.373,0,7.639,4.378,7.529,10.1C371.481,693.868,368.806,696.172,364.257,696.133Z" transform="translate(-355.391 -679.725)"/><path d="M371.994,705.38a5.179,5.179,0,0,1-5.549-5.218,5.475,5.475,0,0,1,10.937-.525A5.371,5.371,0,0,1,371.994,705.38Z" transform="translate(-340.663 -660.154)"/><path d="M387.841,705.376a5.51,5.51,0,0,1-5.523-5.67,5.631,5.631,0,0,1,5.666-5.276,5.7,5.7,0,0,1,5.325,5.645A5.182,5.182,0,0,1,387.841,705.376Z" transform="translate(-319.51 -660.162)"/></g></g></svg>