<svg id="Basket" xmlns="http://www.w3.org/2000/svg" xmlns:xlink="http://www.w3.org/1999/xlink" width="80" height="74" viewBox="0 0 80 74">
  <defs>
    <clipPath id="clip-path">
      <path id="Path_71" data-name="Path 71" d="M0-217.995H33v-30.448H0Z" transform="translate(0 248.443)" fill="#23aaf7"/>
    </clipPath>
  </defs>
  <g id="Rectangle_4" data-name="Rectangle 4" fill="#fff" stroke="#23aaf7" stroke-width="3">
    <path d="M0,0H80a0,0,0,0,1,0,0V66a8,8,0,0,1-8,8H8a8,8,0,0,1-8-8V0A0,0,0,0,1,0,0Z" stroke="none"/>
    <path d="M3,1.5H77A1.5,1.5,0,0,1,78.5,3V66A6.5,6.5,0,0,1,72,72.5H8A6.5,6.5,0,0,1,1.5,66V3A1.5,1.5,0,0,1,3,1.5Z" fill="none"/>
  </g>
  <g id="Icon-Shop" transform="translate(23.779 24.945)">
    <g id="Group_74" data-name="Group 74" clip-path="url(#clip-path)">
      <g id="Group_68" data-name="Group 68" transform="translate(0 0)">
        <path id="Path_65" data-name="Path 65" d="M-226.983-75.146c0-.273-.024-.546-.041-.9h-13.223c0-3.1,0-6.881,0-9.593h-1.963c0,3.3,0,8.2,0,11.5,0,.006,12.673.006,13.214.006.019.235.047.418.047.6q0,5.143,0,10.287c0,.21-.018.42-.036.628a6.076,6.076,0,0,1-5.268,5.446c-.7.088-7.455.108-10.055.112s-7.709-.024-8.4-.112a6.076,6.076,0,0,1-5.269-5.446c-.018-.209-.036-.419-.036-.628q0-5.143,0-10.287c0-.183.028-.367.047-.6h13.726v-1.917h-15.7c-.017.357-.04.63-.041.9q0,5.774,0,11.547a12.334,12.334,0,0,0,.093,1.465,8.026,8.026,0,0,0,6.8,6.81c.721.1,4.743.121,7.828.128v0h1.9v0c3.085-.006,8.757-.028,9.478-.128a8.025,8.025,0,0,0,6.8-6.81,12.286,12.286,0,0,0,.093-1.465q.011-5.774,0-11.547" transform="translate(259.98 85.642)" fill="#23aaf7"/>
      </g>
      <g id="Group_69" data-name="Group 69" transform="translate(7.996 14.339)">
        <path id="Path_66" data-name="Path 66" d="M-.011,0c0,3.3,0,8.2,0,11.5,0,.006,0,.011,0,.017h1.96c0-3.309,0-8.211,0-11.52Z" transform="translate(0.012)" fill="#23aaf7"/>
      </g>
      <g id="Group_70" data-name="Group 70" transform="translate(11.804 14.339)">
        <path id="Path_67" data-name="Path 67" d="M-.011,0c0,3.3,0,8.2,0,11.5,0,.006,0,.011,0,.017h1.96c0-3.309,0-8.211,0-11.52Z" transform="translate(0.012)" fill="#23aaf7"/>
      </g>
      <g id="Group_71" data-name="Group 71" transform="translate(15.612 14.339)">
        <path id="Path_68" data-name="Path 68" d="M-.011,0c0,3.3,0,8.2,0,11.5,0,.006,0,.011,0,.017h1.96c0-3.309,0-8.211,0-11.52Z" transform="translate(0.012)" fill="#23aaf7"/>
      </g>
      <g id="Group_72" data-name="Group 72" transform="translate(19.419 14.339)">
        <path id="Path_69" data-name="Path 69" d="M-.011,0c0,3.3,0,8.2,0,11.5,0,.006,0,.011,0,.017h1.96c0-3.309,0-8.211,0-11.52Z" transform="translate(0.012)" fill="#23aaf7"/>
      </g>
      <g id="Group_73" data-name="Group 73" transform="translate(23.227 14.339)">
        <path id="Path_70" data-name="Path 70" d="M-.011,0c0,3.3,0,8.2,0,11.5,0,.006,0,.011,0,.017h1.96c0-3.309,0-8.211,0-11.52Z" transform="translate(0.012)" fill="#23aaf7"/>
      </g>
    </g>
  </g>
</svg>
