<svg xmlns="http://www.w3.org/2000/svg" data-name="Icon-Arrow / Next" width="100" height="100" style=""><rect id="backgroundrect" width="100%" height="100%" x="0" y="0" fill="none" stroke="none"/>
  
<g class="currentLayer" style=""><title>Layer 1</title><path id="Path_319" data-name="Path 319" d="M4.761984375000111,50.00000512695311 a45.067,45.067 0 0 0 10.97,29.545 l-3.37,3.37 a50,50 0 0 1 70.553,-70.553 l-3.37,3.37 a45.247,45.247 0 0 0 -74.783,34.268 zm82.98,-32.8 l-3.372,3.373 a45.246,45.246 0 0 1 -63.795,63.794 l-3.372,3.373 a50,50 0 0 0 70.539,-70.54 zm-15.748,32.69 a98.386,98.386 0 0 1 -17.925,-14.9 l-0.405,-0.41100000000000003 l-4.195,4.194 c3.565,3.2 6.664,5.94 9.926,8.848 h-32.239 v4.7620000000000005 h33.135 c-3.3770000000000002,3.144 -8.532,8.107 -11.093,10.407 l4.177,4.177 a134.065,134.065 0 0 1 14.145,-12.531 c0.7640000000000001,-0.5790000000000001 1.542,-1.142 2.334,-1.7080000000000002 l0.24100000000000002,-0.016000000000000004 c0,-0.05000000000000001 -0.012000000000000002,-0.1 -0.016000000000000004,-0.14600000000000002 c0.9,-0.6400000000000001 1.818,-1.2850000000000001 2.7640000000000002,-1.965 A9.128,9.128 0 0 0 71.99398437499985,49.89200512695311 z" class="selected" fill="#a0a0a0" fill-opacity="1" transform="rotate(-90.2652816772461 50.00606155395508,50.004844665527344) "/></g></svg>