<svg xmlns="http://www.w3.org/2000/svg" width="85.973" height="99.182" viewBox="0 0 85.973 99.182">
  <g id="Group_2629" data-name="Group 2629" transform="translate(-288.295 -447.357)">
    <g id="Group_2628" data-name="Group 2628" transform="translate(290.899 461.407)">
      <circle id="Ellipse_84" data-name="Ellipse 84" cx="40.424" cy="40.424" r="40.424" fill="#706094"/>
      <rect id="Rectangle_799" data-name="Rectangle 799" width="26.788" height="16.717" transform="translate(27.836 20.072)" fill="#fff"/>
      <rect id="Rectangle_800" data-name="Rectangle 800" width="25.781" height="16.717" transform="translate(29.246 49.882)" fill="#fff"/>
      <g id="Group_1784" data-name="Group 1784" transform="translate(16.356 19.83)">
        <path id="Path_807" data-name="Path 807" d="M318.119,517.463h35.509v-2.084c-3.2-.006-32.3-.015-35.509-.029Z" transform="translate(-311.173 -490.169)" fill="#040405"/>
        <path id="Path_808" data-name="Path 808" d="M359.881,500.535a12.855,12.855,0,0,0-.09-1.474,7.967,7.967,0,0,0-6.654-6.9,19.466,19.466,0,0,0-2.661-.131c-.381,0-.776,0-1.163-.014-.2-.006-.4,0-.62,0h-.165c-.017-.844-.014-1.685-.01-2.5,0-.98.007-1.992-.023-2.986l-.005-.169h-26.97l-.005.169c-.03.993-.028,2.006-.023,2.986,0,.814.006,1.655-.01,2.5h-.785c-.388.012-.78.012-1.163.014a19.459,19.459,0,0,0-2.661.131,7.966,7.966,0,0,0-6.654,6.9,12.672,12.672,0,0,0-.089,1.474c0,1.646-.005,8.584-.005,12.244h0V514.7h.018a16.688,16.688,0,0,0,.129,2.232,7.965,7.965,0,0,0,6.9,6.653,12.878,12.878,0,0,0,1.474.09c1.861,0,1.685,0,3.205,0-.008,3.144,0,6.81.011,10.086h26.985l0-.064c.018-.282.017-.517.017-.744v-.129q.005-3.248,0-6.5v-.986h-2.253v6.3c-6.9.036-13.885.043-20.644.05h-1.876V518.119h22.52v5.568h.835c.074,0,.155-.006.233-.012v.012c2.039,0,1.641,0,3.673,0a12.877,12.877,0,0,0,1.474-.09,7.965,7.965,0,0,0,6.9-6.654,16.669,16.669,0,0,0,.129-2.232h.034C359.887,512.665,359.886,502.567,359.881,500.535Zm-2.225,13.175c-.009,1.155-.036,2.275-.108,2.822a5.744,5.744,0,0,1-5.238,4.89c-.189.017-.4.034-.608.034h-2.825c-.013-.8-.011-1.6-.009-2.374,0-.979.007-1.992-.023-2.985l-.006-.17H321.974l-.027.143c-.047.247-.077,2.4-.091,5.386h-3.567c-.206,0-.42-.018-.608-.035a5.744,5.744,0,0,1-5.238-4.889c-.05-.388-.078-1.059-.095-1.827h0V500.188c0-.206.018-.419.034-.608a5.746,5.746,0,0,1,4.885-5.239c.77-.1,2.678-.115,4.22-.109v1.561h0V503.4c0,.205,0,.42.014.666v.142h26.986l0-.064c.018-.281.017-.517.017-.744v-.129q.005-3.248,0-6.5v-.986h-2.253v6.3c-3.733.019-7.49.03-11.224.036-3.758-.007-7.539-.017-11.295-.036v-6.3h0v-1.551h0v-5.683h22.519v5.683h.835c1.491-.01,4.594-.033,5.633.1a5.745,5.745,0,0,1,4.886,5.238c.016.189.034.4.034.608C357.658,502.1,357.657,510.376,357.657,513.711Z" transform="translate(-310.122 -486.361)" fill="#040405"/>
      </g>
    </g>
    <g id="Group_2629-2" data-name="Group 2629" transform="translate(288.295 447.357)">
      <path id="Path_878" data-name="Path 878" d="M374.268,502.895c0,24.1-19.24,43.644-42.984,43.644S288.3,526.994,288.3,502.895a2.014,2.014,0,1,1,4.022-.238,2.165,2.165,0,0,1,0,.238c0,21.889,17.451,39.623,38.963,39.623s38.963-17.732,38.963-39.622-17.457-39.624-38.963-39.624a2.014,2.014,0,0,1-2.014-2.014v-8.081l-11.845,8.11,11.849,8.352V459.92h4.021v13.595a2.014,2.014,0,0,1-3.163,1.648l-17.388-12.257a2.014,2.014,0,0,1,.026-3.3l17.378-11.9a2.015,2.015,0,0,1,3.147,1.661V459.3c22.813,1.068,40.974,20.184,40.974,43.6Z" transform="translate(-288.295 -447.357)" fill="#040405"/>
    </g>
    <path id="Path_881" data-name="Path 881" d="M321.8,462.167l11.845-8.11v8.08c0,.014,0,.027,0,.041v8.341Z" transform="translate(-4.402 -0.88)" fill="#e1992f"/>
  </g>
</svg>
