<svg xmlns="http://www.w3.org/2000/svg" width="93.319" height="98.363" viewBox="0 0 93.319 98.363">
  <g id="Group_2627" data-name="Group 2627" transform="translate(-622 -1072.547)">
    <g id="Group_2625" data-name="Group 2625" transform="translate(622 1072.547)">
      <rect id="Rectangle_801" data-name="Rectangle 801" width="88.779" height="93.823" transform="translate(2.27 2.27)" fill="#e4ab43"/>
      <path id="Path_809" data-name="Path 809" d="M566.654,643.417H473.335V545.054h93.319Zm-88.779-4.54h84.239V549.594H477.875Z" transform="translate(-473.335 -545.054)"/>
    </g>
    <g id="Group_2626" data-name="Group 2626" transform="translate(666.749 1083.278)">
      <g id="Group_1786" data-name="Group 1786" transform="translate(0 0)">
        <path id="Path_810" data-name="Path 810" d="M564.32,594.241c.105-.324.272-.959.517-1.563a2.866,2.866,0,0,0-.332-3.1,9.147,9.147,0,0,0-1.329-1.2,2.852,2.852,0,0,1-.045-4.51c.337-.281.682-.554,1.013-.842a2.837,2.837,0,0,0,.8-3.2c-.159-.422-.334-.839-.472-1.268a2.833,2.833,0,0,1,2.258-3.735c.432-.077.867-.14,1.3-.219a2.845,2.845,0,0,0,2.262-2.183c.092-.429.157-.865.216-1.3a2.849,2.849,0,0,1,3.856-2.337c.367.132.728.281,1.094.418a2.843,2.843,0,0,0,3.356-.9c.248-.3.491-.607.744-.905a2.83,2.83,0,0,1,4.409-.047c.275.31.525.642.79.961a2.853,2.853,0,0,0,3.328.9,11.637,11.637,0,0,1,1.624-.552,2.812,2.812,0,0,1,3.341,2.4c.065.434.127.87.213,1.3a2.825,2.825,0,0,0,2.32,2.249c.444.077.891.143,1.334.228a2.836,2.836,0,0,1,2.173,3.73c-.15.451-.341.888-.5,1.338a2.829,2.829,0,0,0,.862,3.148c.343.293.7.572,1.043.863a2.853,2.853,0,0,1-.007,4.369c-.345.291-.7.566-1.043.864a2.842,2.842,0,0,0-.815,3.255c.159.422.329.841.468,1.27a2.831,2.831,0,0,1-2.228,3.694c-.409.073-.818.137-1.227.207a2.861,2.861,0,0,0-2.424,2.45c-.061.373-.117.747-.177,1.121a2.84,2.84,0,0,1-3.808,2.276c-.426-.148-.842-.325-1.268-.474a2.822,2.822,0,0,0-3.148.857c-.276.326-.54.662-.814.989a2.824,2.824,0,0,1-4.359.1c-.3-.324-.56-.677-.839-1.016a2.846,2.846,0,0,0-3.361-.882c-.365.139-.727.287-1.095.416a2.842,2.842,0,0,1-3.841-2.314c-.057-.374-.112-.748-.176-1.12a2.849,2.849,0,0,0-2.39-2.4c-.433-.075-.867-.141-1.3-.222A2.938,2.938,0,0,1,564.32,594.241Zm17.475,7.481A15.619,15.619,0,1,0,566.2,586.1,15.619,15.619,0,0,0,581.794,601.721Z" transform="translate(-562.047 -566.329)" fill="#fff"/>
      </g>
    </g>
    <path id="Path_875" data-name="Path 875" d="M498.047,670.433h66.98v-5.218c-8.011-.015-58.953-.036-66.98-.072Z" transform="translate(136.419 467.98)"/>
    <path id="Path_876" data-name="Path 876" d="M498.047,689.434h66.98v-5.218c-8.011-.015-58.953-.036-66.98-.072Z" transform="translate(136.419 458.564)"/>
    <path id="Path_877" data-name="Path 877" d="M498.047,708.434h66.98v-5.218c-8.011-.015-58.953-.036-66.98-.072Z" transform="translate(136.419 449.148)"/>
  </g>
</svg>
