<svg id="Emoji-Looking_up" data-name="Emoji-Looking up" xmlns="http://www.w3.org/2000/svg" width="324.144" height="226.18" viewBox="0 0 324.144 226.18">
  <g id="Group_133" data-name="Group 133" transform="translate(-865.711 -1261.422)">
    <path id="Path_179" data-name="Path 179" d="M879.077,1377.363c-.212,27.8,7.638,47.463,22.215,62.522,20.291,20.964,45.921,25.594,68.817,10.42,25.878-17.151,44.161-41.007,53.218-70.911,7.072-23.352.412-42.251-18.911-56.481-25.481-18.764-53.4-21.61-81.625-8.061C894.377,1328.492,880.352,1352.626,879.077,1377.363Z" fill="#fff"/>
    <path id="Path_180" data-name="Path 180" d="M1100.68,1307.048c-16.487-.449-32.513,5.357-46.731,16.288-18.657,14.343-25.367,33.566-18.4,56.024,9.08,29.283,26.918,52.7,51.926,70.082,20.431,14.2,42.658,12.586,62.315-2.681a78.511,78.511,0,0,0,26.532-86.213C1165.706,1328.4,1136.318,1307.161,1100.68,1307.048Z" fill="#fff"/>
    <path id="Path_181" data-name="Path 181" d="M1034.725,1487.573c9.049.576,19.278-7.72,29.383-16.121,10.575-8.792,11.788-20.511,2.777-30.85-1.748-2.005-6.143-3.448-8.659-2.756a104.1,104.1,0,0,1-57.574-.2c-1.96-.564-4.918-.366-6.456.773-7.534,5.578-10.44,19.553-4.538,26.748C999.839,1477.576,1012.194,1487.1,1034.725,1487.573Z" fill="#fff"/>
    <path id="Path_182" data-name="Path 182" d="M1189.694,1293.877c1.98-16.238-14.788-32.974-28.607-32.443-14.459.556-25.419,14.709-25.081,33.332.231,12.761,9.566,20.639,24.458,20.641C1182.181,1315.409,1189.744,1309.838,1189.694,1293.877Z" fill="#fff"/>
    <path id="Path_183" data-name="Path 183" d="M894.885,1315.413c14.965.133,23.772-7.452,24.026-20.692.361-18.815-10.382-33.221-24.774-33.222-15.848,0-28.247,14.143-28.424,32.423C865.559,1309.915,872.755,1315.217,894.885,1315.413Z" fill="#fff"/>
    <path id="Path_184" data-name="Path 184" d="M879.077,1377.363c1.275-24.737,15.3-48.871,43.714-62.511,28.227-13.549,56.144-10.7,81.625,8.061,19.323,14.23,25.983,33.129,18.911,56.481-9.057,29.9-27.34,53.76-53.218,70.911-22.9,15.174-48.526,10.544-68.817-10.42C886.715,1424.826,878.865,1405.16,879.077,1377.363Z"/>
    <path id="Path_185" data-name="Path 185" d="M1002.032,1360.066c1.713-30.232-22.988-41.257-43.109-41.715-20.606-.469-41,18.669-41.186,38.021-.232,23.743,20.469,44.517,44.362,44.52C986.565,1400.9,1002.026,1385.088,1002.032,1360.066Z" fill="#fff"/>
    <path id="Path_186" data-name="Path 186" d="M1100.68,1307.048c35.638.113,65.026,21.348,75.639,53.5a78.511,78.511,0,0,1-26.532,86.213c-19.657,15.267-41.884,16.879-62.315,2.681-25.008-17.378-42.846-40.8-51.926-70.082-6.964-22.458-.254-41.681,18.4-56.024C1068.167,1312.405,1084.193,1306.6,1100.68,1307.048Z"/>
    <path id="Path_187" data-name="Path 187" d="M1116.838,1406.807a44.7,44.7,0,0,0,46.087-42.473c.88-19.758-17.984-39.12-39.014-40.046-25.133-1.106-44.28,15.1-45.126,38.206C1077.8,1389.281,1092.005,1405.819,1116.838,1406.807Z" fill="#fff"/>
    <path id="Path_188" data-name="Path 188" d="M1034.725,1487.573c-22.531-.475-34.886-10-45.067-22.407-5.9-7.2-3-21.17,4.538-26.748,1.538-1.139,4.5-1.337,6.456-.773a104.1,104.1,0,0,0,57.574.2c2.516-.692,6.911.751,8.659,2.756,9.011,10.339,7.8,22.058-2.777,30.85C1054,1479.853,1043.774,1488.149,1034.725,1487.573Z"/>
    <path id="Path_189" data-name="Path 189" d="M1189.694,1293.877c.05,15.961-7.513,21.532-29.23,21.53-14.892,0-24.227-7.88-24.458-20.641-.338-18.623,10.622-32.776,25.081-33.332C1174.906,1260.9,1191.674,1277.639,1189.694,1293.877Z"/>
    <path id="Path_190" data-name="Path 190" d="M894.885,1315.413c-22.13-.2-29.326-5.5-29.172-21.491.177-18.28,12.576-32.424,28.424-32.423,14.392,0,25.135,14.407,24.774,33.222C918.657,1307.961,909.85,1315.546,894.885,1315.413Z"/>
    <path id="Path_191" data-name="Path 191" d="M981.606,1368.551c-12.015.04-20.321-7.772-20.6-19.375s9.253-21.487,20.515-21.254c10.464.217,19.959,9.344,20.087,19.308C1001.764,1359.486,993.3,1368.513,981.606,1368.551Z"/>
    <path id="Path_192" data-name="Path 192" d="M1142.724,1371.5c-11.574.01-20.509-9.163-20.5-21.05.005-10.418,10.164-19.875,21.035-19.583,10.651.287,19.856,10.046,19.765,20.953C1162.922,1363.41,1154.587,1371.492,1142.724,1371.5Z"/>
    <circle id="Ellipse_4" data-name="Ellipse 4" cx="7.584" cy="7.584" r="7.584" transform="translate(963.053 1350.093)" fill="#fff"/>
    <circle id="Ellipse_5" data-name="Ellipse 5" cx="7.584" cy="7.584" r="7.584" transform="translate(1123.949 1352.436)" fill="#fff"/>
  </g>
</svg>
