<svg id="Emoji-Winking" xmlns="http://www.w3.org/2000/svg" xmlns:xlink="http://www.w3.org/1999/xlink" width="153.144" height="107.18" viewBox="0 0 153.144 107.18">
  <defs>
    <clipPath id="clip-path">
      <path id="Path_261" data-name="Path 261" d="M0-119H153.144V-226.18H0Z" transform="translate(0 226.18)"/>
    </clipPath>
  </defs>
  <g id="Group_251" data-name="Group 251" transform="translate(0 0)" clip-path="url(#clip-path)">
    <g id="Group_250" data-name="Group 250" transform="translate(0 0)">
      <path id="Path_260" data-name="Path 260" d="M-83.149-62.069c3.341-11.066.195-20.021-8.935-26.765-12.038-8.892-25.228-10.24-38.564-3.82-13.424,6.463-20.051,17.9-20.653,29.622-.1,13.173,3.609,22.491,10.5,29.627,9.587,9.934,21.7,12.128,32.513,4.938a60.674,60.674,0,0,0,25.143-33.6m-27.8,24.4c-11.288,0-21.068-9.846-20.959-21.1.089-9.17,9.723-18.24,19.459-18.017,9.506.217,21.177,5.441,20.367,19.767,0,11.858-7.307,19.348-18.867,19.346m48.377,4.6c4.258,4.9,3.684,10.452-1.312,14.618-4.774,3.981-9.607,7.913-13.882,7.64-10.645-.226-16.482-4.737-21.293-10.618-2.788-3.409-1.415-10.031,2.144-12.675a3.97,3.97,0,0,1,3.05-.366,49.038,49.038,0,0,0,27.2.1,4.88,4.88,0,0,1,4.091,1.306m58.022-69.529c.024,7.563-3.55,10.2-13.81,10.2-7.036,0-11.446-3.734-11.555-9.781-.159-8.824,5.019-15.532,11.85-15.795,6.529-.252,14.452,7.679,13.516,15.374M-143.832-92.387c-10.455-.093-13.855-2.605-13.782-10.184.083-8.663,5.941-15.365,13.429-15.365,6.8,0,11.876,6.828,11.705,15.743-.12,6.274-4.281,9.868-11.352,9.805m97.23-3.964c-7.789-.213-15.361,2.539-22.079,7.718-8.814,6.8-11.985,15.906-8.695,26.549a62.188,62.188,0,0,0,24.533,33.21c9.653,6.728,20.155,5.964,29.441-1.27A37.272,37.272,0,0,0-10.866-71c-5.015-15.236-18.9-25.3-35.736-25.352m14.941,28.276A30.555,30.555,0,0,0-51.229-56.9a42.69,42.69,0,0,1,19.107,2.829,2.78,2.78,0,0,1,1.416,3.662,2.769,2.769,0,0,1-2.535,1.658,2.76,2.76,0,0,1-1.11-.235,37.838,37.838,0,0,0-21.963-1.485,2.768,2.768,0,0,1-2.8-.929,2.784,2.784,0,0,1-.38-2.93A36.214,36.214,0,0,1-32.445-73.575a2.767,2.767,0,0,1,3.133,2.357,2.776,2.776,0,0,1-2.35,3.143m-68.871,11.669c.066,5.148-3.481,8.94-8.376,8.956-5.032.017-8.51-3.265-8.628-8.139a8.68,8.68,0,0,1,8.592-8.927c.028,0,.055.005.083.006a3.591,3.591,0,0,0-1.6,2.991,3.588,3.588,0,0,0,3.583,3.594,3.589,3.589,0,0,0,3.583-3.594,3.6,3.6,0,0,0-.069-.7,8.109,8.109,0,0,1,2.831,5.81" transform="translate(157.615 117.972)"/>
    </g>
  </g>
</svg>
