<svg id="Emoji-Sad" xmlns="http://www.w3.org/2000/svg" xmlns:xlink="http://www.w3.org/1999/xlink" width="324.144" height="226.18" viewBox="0 0 324.144 226.18">
  <defs>
    <clipPath id="clip-path">
      <path id="Path_215" data-name="Path 215" d="M0,0H324.144V-226.18H0Z" fill="none"/>
    </clipPath>
  </defs>
  <g id="Group_148" data-name="Group 148" transform="translate(0 226.18)">
    <g id="Group_147" data-name="Group 147" clip-path="url(#clip-path)">
      <g id="Group_135" data-name="Group 135" transform="translate(13.366 -110.239)">
        <path id="Path_203" data-name="Path 203" d="M0,0C-.211,27.8,7.638,47.463,22.215,62.522c20.291,20.964,45.921,25.594,68.817,10.42,25.878-17.15,44.161-41.006,53.218-70.91,7.072-23.353.412-42.251-18.911-56.481-25.481-18.765-53.4-21.61-81.624-8.061C15.3-48.871,1.275-24.737,0,0M221.6-70.315c-16.487-.449-32.513,5.357-46.731,16.288C156.215-39.684,149.505-20.461,156.469,2c9.08,29.282,26.918,52.7,51.926,70.081,20.431,14.2,42.658,12.586,62.315-2.681a78.511,78.511,0,0,0,26.532-86.213c-10.613-32.152-40-53.387-75.639-53.5M155.648,110.211c9.049.576,19.278-7.721,29.383-16.122,10.575-8.792,11.788-20.51,2.777-30.849-1.747-2.005-6.143-3.449-8.659-2.757a104.1,104.1,0,0,1-57.574-.2c-1.96-.564-4.918-.365-6.456.773-7.534,5.579-10.44,19.554-4.538,26.748,10.181,12.41,22.536,21.932,45.067,22.408m154.97-193.7c1.979-16.238-14.789-32.974-28.608-32.442-14.458.555-25.418,14.709-25.081,33.331.231,12.761,9.566,20.639,24.458,20.641,21.717,0,29.28-5.568,29.231-21.53M15.808-61.95c14.965.133,23.772-7.452,24.026-20.691.361-18.816-10.382-33.222-24.774-33.223-15.848,0-28.247,14.143-28.424,32.424-.154,15.992,7.042,21.294,29.172,21.49" fill="#fff"/>
      </g>
      <g id="Group_136" data-name="Group 136" transform="translate(13.366 -110.239)">
        <path id="Path_204" data-name="Path 204" d="M0,0C1.275-24.737,15.3-48.871,43.715-62.51c28.226-13.549,56.143-10.7,81.624,8.061,19.323,14.23,25.983,33.128,18.911,56.481-9.057,29.9-27.34,53.76-53.218,70.91-22.9,15.174-48.526,10.544-68.817-10.42C7.638,47.463-.211,27.8,0,0"/>
      </g>
      <g id="Group_137" data-name="Group 137" transform="translate(111.669 -72.747)">
        <path id="Path_205" data-name="Path 205" d="M0,0C1.472-25.97-19.748-35.441-37.032-35.834c-17.7-.4-35.218,16.037-35.38,32.661-.2,20.4,17.584,38.241,38.108,38.244C-13.286,35.073,0,21.5,0,0" fill="#fff"/>
      </g>
      <g id="Group_138" data-name="Group 138" transform="translate(234.969 -180.554)">
        <path id="Path_206" data-name="Path 206" d="M0,0C35.638.113,65.026,21.348,75.639,53.5a78.51,78.51,0,0,1-26.533,86.213C29.45,154.98,7.223,156.592-13.208,142.394c-25.009-17.378-42.846-40.8-51.926-70.081-6.964-22.459-.254-41.682,18.4-56.025C-32.514,5.357-16.487-.449,0,0"/>
      </g>
      <g id="Group_139" data-name="Group 139" transform="translate(247.111 -36.7)">
        <path id="Path_207" data-name="Path 207" d="M0,0A38.4,38.4,0,0,0,39.591-36.485c.755-16.973-15.449-33.606-33.515-34.4-21.59-.951-38.037,12.975-38.765,32.82C-33.532-15.056-21.332-.849,0,0" fill="#fff"/>
      </g>
      <g id="Group_140" data-name="Group 140" transform="translate(169.014 -0.029)">
        <path id="Path_208" data-name="Path 208" d="M0,0C-22.531-.476-34.886-10-45.067-22.408c-5.9-7.194-3-21.169,4.537-26.748,1.538-1.138,4.5-1.336,6.456-.772a104.1,104.1,0,0,0,57.574.2c2.517-.691,6.912.752,8.66,2.757,9.011,10.339,7.8,22.057-2.777,30.849C19.278-7.72,9.049.576,0,0"/>
      </g>
      <g id="Group_141" data-name="Group 141" transform="translate(323.984 -193.725)">
        <path id="Path_209" data-name="Path 209" d="M0,0C.05,15.961-7.513,21.532-29.231,21.53c-14.892,0-24.227-7.88-24.458-20.641-.337-18.622,10.623-32.776,25.081-33.332C-14.789-32.974,1.98-16.238,0,0"/>
      </g>
      <g id="Group_142" data-name="Group 142" transform="translate(29.174 -172.189)">
        <path id="Path_210" data-name="Path 210" d="M0,0C-22.129-.2-29.326-5.5-29.171-21.491-29-39.771-16.6-53.915-.748-53.914c14.393,0,25.136,14.407,24.775,33.223C23.772-7.452,14.966.133,0,0"/>
      </g>
      <g id="Group_143" data-name="Group 143" transform="translate(75.444 -33.212)">
        <path id="Path_211" data-name="Path 211" d="M0,0C-10.65.033-18.013-6.458-18.26-16.1s8.2-17.852,18.185-17.659c9.275.18,17.692,7.764,17.8,16.042C17.869-7.532,10.363-.032,0,0"/>
      </g>
      <g id="Group_144" data-name="Group 144" transform="translate(245.685 -33.739)">
        <path id="Path_212" data-name="Path 212" d="M0,0C-10.259.008-18.18-6.84-18.175-15.712c0-7.777,9.009-14.836,18.646-14.618,9.441.214,17.6,7.5,17.52,15.641C17.905-6.041,10.516-.008,0,0"/>
      </g>
      <g id="Group_145" data-name="Group 145" transform="translate(253.177 -59.39)">
        <path id="Path_213" data-name="Path 213" d="M0,0A7.583,7.583,0,0,1-7.583,7.583,7.583,7.583,0,0,1-15.167,0,7.584,7.584,0,0,1-7.583-7.584,7.584,7.584,0,0,1,0,0" fill="#fff"/>
      </g>
      <g id="Group_146" data-name="Group 146" transform="translate(82.76 -60.807)">
        <path id="Path_214" data-name="Path 214" d="M0,0A7.583,7.583,0,0,1-7.583,7.583,7.583,7.583,0,0,1-15.167,0,7.584,7.584,0,0,1-7.583-7.584,7.584,7.584,0,0,1,0,0" fill="#fff"/>
      </g>
    </g>
  </g>
</svg>
