<svg id="Emoji-Confused" xmlns="http://www.w3.org/2000/svg" width="324.144" height="226.18" viewBox="0 0 324.144 226.18">
  <path id="Path_314" data-name="Path 314" d="M1583.328,1617.172c-25.481-18.765-53.4-21.61-81.625-8.061-28.414,13.639-42.439,37.774-43.714,62.511-.212,27.8,7.638,47.463,22.214,62.522,20.292,20.963,45.922,25.594,68.817,10.42,25.879-17.151,44.162-41.007,53.218-70.911C1609.311,1650.3,1602.651,1631.4,1583.328,1617.172Zm7.018,36.772c-.006,25.023-15.467,40.829-39.933,40.826-23.893,0-44.594-20.777-44.362-44.519.188-19.352,20.58-38.491,41.186-38.022C1567.357,1612.688,1592.059,1623.712,1590.346,1653.944Zm164.885.863c-10.613-32.152-40-53.387-75.639-53.5-16.487-.449-32.514,5.357-46.731,16.288-18.657,14.343-25.367,33.566-18.4,56.024,9.08,29.282,26.917,52.7,51.926,70.082,20.431,14.2,42.658,12.586,62.314-2.681A78.51,78.51,0,0,0,1755.231,1654.807Zm-22.919,42.587a44.705,44.705,0,0,1-46.088,42.473c-24.833-.988-39.035-17.527-38.053-44.314.847-23.1,19.994-39.312,45.126-38.2C1714.328,1658.273,1733.191,1677.636,1732.312,1697.394Zm-118.675,84.438c-22.531-.476-34.886-10-45.067-22.407-5.9-7.2-3-21.17,4.538-26.748,1.537-1.139,4.5-1.337,6.455-.773a104.1,104.1,0,0,0,57.574.2c2.517-.692,6.912.751,8.66,2.756,9.011,10.339,7.8,22.058-2.777,30.85C1632.915,1774.112,1622.686,1782.408,1613.637,1781.832Zm154.969-193.7c.05,15.961-7.513,21.532-29.23,21.53-14.892,0-24.227-7.88-24.458-20.641-.338-18.623,10.622-32.776,25.081-33.332C1753.818,1555.162,1770.586,1571.9,1768.606,1588.136ZM1473.8,1609.672c-22.13-.2-29.326-5.5-29.172-21.491.177-18.28,12.576-32.424,28.423-32.423,14.393,0,25.136,14.407,24.775,33.222C1497.569,1602.22,1488.762,1609.805,1473.8,1609.672Zm85.6,44.194c-10.651.035-18.013-6.89-18.261-17.175s8.2-19.046,18.186-18.84c9.274.192,17.691,8.283,17.805,17.115C1577.269,1645.83,1569.762,1653.832,1559.4,1653.866Zm126.908,80.255c-10.259.01-18.18-8.122-18.175-18.659,0-9.234,9.009-17.617,18.645-17.358,9.442.254,17.6,8.905,17.52,18.573C1704.212,1726.948,1696.823,1734.112,1686.308,1734.121Z" transform="translate(-1444.623 -1555.681)"/>
</svg>
