<svg id="Emoji-Laughing" xmlns="http://www.w3.org/2000/svg" width="324.145" height="226.181" viewBox="0 0 324.145 226.181">
  <path id="Path_145" data-name="Path 145" d="M1533.042,696.921c-.212,27.8,7.638,47.463,22.215,62.522,20.291,20.964,45.921,25.594,68.817,10.42,25.878-17.15,44.161-41.006,53.218-70.91,7.072-23.353.412-42.251-18.911-56.481-25.481-18.765-53.4-21.61-81.624-8.061C1548.343,648.05,1534.317,672.184,1533.042,696.921Z" transform="translate(-1519.676 -580.98)" fill="#fff"/>
  <path id="Path_146" data-name="Path 146" d="M1754.645,626.606c-16.486-.449-32.513,5.357-46.731,16.288-18.657,14.343-25.367,33.566-18.4,56.025,9.08,29.282,26.918,52.7,51.926,70.081,20.431,14.2,42.658,12.586,62.315-2.68a78.514,78.514,0,0,0,26.532-86.214C1819.671,647.954,1790.283,626.719,1754.645,626.606Z" transform="translate(-1519.676 -580.98)"/>
  <path id="Path_147" data-name="Path 147" d="M1688.69,807.132c9.049.576,19.278-7.721,29.383-16.122,10.575-8.792,11.788-20.51,2.777-30.849-1.748-2.005-6.143-3.449-8.659-2.757a104.1,104.1,0,0,1-57.574-.2c-1.96-.564-4.918-.366-6.456.773-7.534,5.578-10.44,19.554-4.538,26.748C1653.8,797.134,1666.16,806.656,1688.69,807.132Z" transform="translate(-1519.676 -580.98)" fill="#fff"/>
  <path id="Path_148" data-name="Path 148" d="M1843.66,613.435c1.979-16.238-14.789-32.974-28.608-32.443-14.459.556-25.419,14.71-25.081,33.332.231,12.761,9.566,20.639,24.458,20.641C1836.147,634.967,1843.709,629.4,1843.66,613.435Z" transform="translate(-1519.676 -580.98)" fill="#fff"/>
  <path id="Path_149" data-name="Path 149" d="M1548.85,634.971c14.965.133,23.772-7.452,24.026-20.691.361-18.815-10.382-33.222-24.774-33.223-15.848,0-28.247,14.143-28.424,32.424C1519.524,629.473,1526.72,634.775,1548.85,634.971Z" transform="translate(-1519.676 -580.98)" fill="#fff"/>
  <path id="Path_150" data-name="Path 150" d="M1533.042,696.921c1.275-24.737,15.3-48.871,43.715-62.51,28.226-13.549,56.143-10.7,81.624,8.061,19.323,14.23,25.983,33.128,18.911,56.481-9.057,29.9-27.34,53.76-53.218,70.91-22.9,15.174-48.526,10.544-68.817-10.42C1540.68,744.384,1532.83,724.719,1533.042,696.921Z" transform="translate(-1519.676 -580.98)"/>
  <path id="Path_151" data-name="Path 151" d="M1688.69,807.132c-22.53-.476-34.886-10-45.067-22.408-5.9-7.194-3-21.17,4.538-26.748,1.538-1.139,4.5-1.337,6.456-.773a104.1,104.1,0,0,0,57.574.2c2.516-.692,6.911.752,8.659,2.757,9.011,10.339,7.8,22.057-2.777,30.849C1707.968,799.411,1697.739,807.708,1688.69,807.132Z" transform="translate(-1519.676 -580.98)"/>
  <path id="Path_152" data-name="Path 152" d="M1843.66,613.435c.049,15.962-7.513,21.532-29.231,21.53-14.892,0-24.227-7.88-24.458-20.641-.338-18.622,10.622-32.776,25.081-33.332C1828.871,580.461,1845.639,597.2,1843.66,613.435Z" transform="translate(-1519.676 -580.98)"/>
  <path id="Path_153" data-name="Path 153" d="M1548.85,634.971c-22.13-.2-29.326-5.5-29.172-21.49.177-18.281,12.576-32.425,28.424-32.424,14.392,0,25.135,14.408,24.774,33.223C1572.622,627.519,1563.815,635.1,1548.85,634.971Z" transform="translate(-1519.676 -580.98)"/>
  <path id="Path_154" data-name="Path 154" d="M1769.683,721.6a5.854,5.854,0,0,1-2.35-.494h0c-.213-.094-21.668-9.244-46.486-3.135a5.861,5.861,0,0,1-6.725-8.142c.653-1.418,16.458-34.786,57.247-40.613a5.861,5.861,0,1,1,1.659,11.6,64.708,64.708,0,0,0-41.417,23.583,90.579,90.579,0,0,1,40.441,5.971,5.862,5.862,0,0,1-2.369,11.225Z" transform="translate(-1519.676 -580.98)" fill="#fff"/>
  <path id="Path_155" data-name="Path 155" d="M1592.224,720.044a5.854,5.854,0,0,0,2.35-.494h0c.213-.094,21.668-9.244,46.486-3.135a5.861,5.861,0,0,0,6.725-8.142c-.653-1.418-16.458-34.786-57.247-40.613a5.862,5.862,0,0,0-1.659,11.605,64.708,64.708,0,0,1,41.417,23.583,90.581,90.581,0,0,0-40.441,5.971,5.862,5.862,0,0,0,2.369,11.225Z" transform="translate(-1519.676 -580.98)" fill="#fff"/>
</svg>
