<svg id="Emoji-Looking_down" data-name="Emoji-Looking down" xmlns="http://www.w3.org/2000/svg" width="324.144" height="226.18" viewBox="0 0 324.144 226.18">
  <g id="Group_132" data-name="Group 132" transform="translate(-213.711 -1261.422)">
    <path id="Path_165" data-name="Path 165" d="M227.077,1377.363c-.212,27.8,7.638,47.463,22.215,62.522,20.291,20.964,45.921,25.594,68.817,10.42,25.878-17.151,44.161-41.007,53.218-70.911,7.072-23.352.412-42.251-18.911-56.481-25.481-18.764-53.4-21.61-81.625-8.061C242.377,1328.492,228.352,1352.626,227.077,1377.363Z" fill="#fff"/>
    <path id="Path_166" data-name="Path 166" d="M448.68,1307.048c-16.487-.449-32.513,5.357-46.731,16.288-18.657,14.343-25.367,33.566-18.4,56.024,9.08,29.283,26.918,52.7,51.926,70.082,20.431,14.2,42.658,12.586,62.315-2.681a78.511,78.511,0,0,0,26.532-86.213C513.706,1328.4,484.318,1307.161,448.68,1307.048Z" fill="#fff"/>
    <path id="Path_167" data-name="Path 167" d="M382.725,1487.573c9.049.576,19.278-7.72,29.383-16.121,10.575-8.792,11.788-20.511,2.777-30.85-1.748-2.005-6.143-3.448-8.659-2.756a104.1,104.1,0,0,1-57.574-.2c-1.96-.564-4.918-.366-6.456.773-7.534,5.578-10.44,19.553-4.538,26.748C347.839,1477.576,360.194,1487.1,382.725,1487.573Z" fill="#fff"/>
    <path id="Path_168" data-name="Path 168" d="M537.694,1293.877c1.98-16.238-14.788-32.974-28.607-32.443-14.459.556-25.419,14.709-25.081,33.332.231,12.761,9.566,20.639,24.458,20.641C530.181,1315.409,537.744,1309.838,537.694,1293.877Z" fill="#fff"/>
    <path id="Path_169" data-name="Path 169" d="M242.885,1315.413c14.965.133,23.772-7.452,24.026-20.692.361-18.815-10.382-33.221-24.774-33.222-15.848,0-28.247,14.143-28.424,32.423C213.559,1309.915,220.755,1315.217,242.885,1315.413Z" fill="#fff"/>
    <path id="Path_170" data-name="Path 170" d="M227.077,1377.363c1.275-24.737,15.3-48.871,43.714-62.511,28.227-13.549,56.144-10.7,81.625,8.061,19.323,14.23,25.983,33.129,18.911,56.481-9.057,29.9-27.34,53.76-53.218,70.911-22.9,15.174-48.526,10.544-68.817-10.42C234.715,1424.826,226.865,1405.16,227.077,1377.363Z"/>
    <path id="Path_171" data-name="Path 171" d="M320.532,1384.566c1.713-30.232-22.988-41.257-43.109-41.715-20.606-.469-41,18.669-41.186,38.021-.232,23.743,20.469,44.517,44.362,44.52C305.065,1425.4,320.526,1409.588,320.532,1384.566Z" fill="#fff"/>
    <path id="Path_172" data-name="Path 172" d="M448.68,1307.048c35.638.113,65.026,21.348,75.639,53.5a78.511,78.511,0,0,1-26.532,86.213c-19.657,15.267-41.884,16.879-62.315,2.681-25.008-17.378-42.846-40.8-51.926-70.082-6.964-22.458-.254-41.681,18.4-56.024C416.167,1312.405,432.193,1306.6,448.68,1307.048Z"/>
    <path id="Path_173" data-name="Path 173" d="M435.838,1423.807a44.7,44.7,0,0,0,46.087-42.473c.88-19.758-17.984-39.12-39.014-40.046-25.133-1.106-44.28,15.1-45.126,38.206C396.8,1406.281,411.005,1422.819,435.838,1423.807Z" fill="#fff"/>
    <path id="Path_174" data-name="Path 174" d="M382.725,1487.573c-22.531-.475-34.886-10-45.067-22.407-5.9-7.2-3-21.17,4.538-26.748,1.538-1.139,4.5-1.337,6.456-.773a104.1,104.1,0,0,0,57.574.2c2.516-.692,6.911.751,8.659,2.756,9.011,10.339,7.8,22.058-2.777,30.85C402,1479.853,391.774,1488.149,382.725,1487.573Z"/>
    <path id="Path_175" data-name="Path 175" d="M537.694,1293.877c.05,15.961-7.513,21.532-29.23,21.53-14.892,0-24.227-7.88-24.458-20.641-.338-18.623,10.622-32.776,25.081-33.332C522.906,1260.9,539.674,1277.639,537.694,1293.877Z"/>
    <path id="Path_176" data-name="Path 176" d="M242.885,1315.413c-22.13-.2-29.326-5.5-29.172-21.491.177-18.28,12.576-32.424,28.424-32.423,14.392,0,25.135,14.407,24.774,33.222C266.657,1307.961,257.85,1315.546,242.885,1315.413Z"/>
    <path id="Path_177" data-name="Path 177" d="M268.606,1423.551c-12.015.04-20.321-7.772-20.6-19.375s9.253-21.487,20.515-21.254c10.464.217,19.959,9.344,20.087,19.308C288.764,1414.486,280.3,1423.513,268.606,1423.551Z"/>
    <path id="Path_178" data-name="Path 178" d="M430.724,1423.5c-11.574.01-20.509-9.163-20.5-21.05.005-10.418,10.164-19.875,21.035-19.583,10.651.287,19.856,10.046,19.765,20.953C450.922,1415.41,442.587,1423.492,430.724,1423.5Z"/>
    <circle id="Ellipse_2" data-name="Ellipse 2" cx="7.584" cy="7.584" r="7.584" transform="translate(255.053 1382.093)" fill="#fff"/>
    <circle id="Ellipse_3" data-name="Ellipse 3" cx="7.584" cy="7.584" r="7.584" transform="translate(413.637 1382.093)" fill="#fff"/>
  </g>
</svg>
