<svg id="Emoji-News" xmlns="http://www.w3.org/2000/svg" width="324.145" height="226.18" viewBox="0 0 324.145 226.18">
  <g id="Group_130" data-name="Group 130" transform="translate(-2108.729 -582.403)">
    <path id="Path_156" data-name="Path 156" d="M2122.1,698.343c-.211,27.8,7.639,47.464,22.215,62.523,20.291,20.963,45.921,25.593,68.817,10.42,25.879-17.151,44.161-41.007,53.218-70.911,7.072-23.352.412-42.251-18.911-56.481-25.481-18.765-53.4-21.61-81.624-8.061C2137.4,649.472,2123.371,673.607,2122.1,698.343Zm221.6-70.314c-16.486-.449-32.513,5.357-46.731,16.287-18.657,14.344-25.367,33.567-18.4,56.025,9.08,29.282,26.918,52.7,51.926,70.082,20.431,14.2,42.658,12.585,62.315-2.681a78.511,78.511,0,0,0,26.532-86.213C2408.725,649.376,2379.337,628.142,2343.7,628.029Zm-65.954,180.525c9.048.576,19.277-7.72,29.382-16.121,10.575-8.792,11.788-20.511,2.777-30.85-1.747-2.005-6.143-3.448-8.659-2.757a104.1,104.1,0,0,1-57.574-.2c-1.96-.564-4.918-.366-6.456.773-7.534,5.578-10.44,19.553-4.538,26.747C2242.859,798.557,2255.214,808.078,2277.745,808.554Zm154.969-193.7c1.98-16.238-14.789-32.974-28.608-32.443-14.459.556-25.418,14.709-25.081,33.331.231,12.762,9.566,20.64,24.458,20.641C2425.2,636.389,2432.764,630.819,2432.714,614.858ZM2137.9,636.394c14.965.132,23.772-7.452,24.026-20.692.361-18.815-10.382-33.221-24.774-33.222-15.848,0-28.247,14.142-28.424,32.423C2108.578,630.9,2115.774,636.2,2137.9,636.394Z" fill="#fff"/>
    <path id="Path_157" data-name="Path 157" d="M2122.1,698.343c1.275-24.736,15.3-48.871,43.715-62.51,28.226-13.549,56.143-10.7,81.624,8.061,19.323,14.23,25.983,33.129,18.911,56.481-9.057,29.9-27.339,53.76-53.218,70.911-22.9,15.173-48.526,10.543-68.817-10.42C2129.735,745.807,2121.885,726.141,2122.1,698.343Zm125.346,12.7c1.714-30.233-22.988-41.257-43.109-41.715-20.606-.47-41,18.669-41.186,38.021-.231,23.742,20.47,44.517,44.362,44.519C2231.976,751.875,2247.436,736.069,2247.442,711.047Z"/>
    <path id="Path_158" data-name="Path 158" d="M2343.7,628.029c35.638.113,65.026,21.347,75.639,53.5a78.511,78.511,0,0,1-26.532,86.213c-19.657,15.266-41.884,16.879-62.315,2.681-25.008-17.379-42.846-40.8-51.926-70.082-6.964-22.458-.254-41.681,18.4-56.025C2311.186,633.386,2327.213,627.58,2343.7,628.029Zm-8.168,123.759a44.7,44.7,0,0,0,46.087-42.473c.88-19.758-17.984-39.121-39.014-40.046-25.133-1.106-44.279,15.1-45.126,38.206C2296.5,734.262,2310.7,750.8,2335.531,751.788Z"/>
    <path id="Path_159" data-name="Path 159" d="M2277.745,808.554c-22.531-.476-34.886-10-45.068-22.408-5.9-7.194-3-21.169,4.538-26.747,1.538-1.139,4.5-1.337,6.456-.773a104.1,104.1,0,0,0,57.574.2c2.516-.691,6.912.752,8.659,2.757,9.011,10.339,7.8,22.058-2.777,30.85C2297.022,800.834,2286.793,809.13,2277.745,808.554Z"/>
    <path id="Path_160" data-name="Path 160" d="M2432.714,614.858c.05,15.961-7.513,21.531-29.231,21.529-14.892,0-24.227-7.879-24.458-20.641-.337-18.622,10.622-32.775,25.081-33.331C2417.925,581.884,2434.694,598.62,2432.714,614.858Z"/>
    <path id="Path_161" data-name="Path 161" d="M2137.9,636.394c-22.13-.2-29.326-5.5-29.172-21.491.177-18.281,12.576-32.424,28.424-32.423,14.392,0,25.135,14.407,24.774,33.222C2161.676,628.942,2152.869,636.526,2137.9,636.394Z"/>
    <path id="Path_162" data-name="Path 162" d="M2211.822,731.222c-10.65.035-18.013-6.89-18.26-17.176s8.2-19.046,18.185-18.839c9.275.192,17.692,8.283,17.8,17.115C2229.691,723.186,2222.185,731.187,2211.822,731.222Z"/>
    <path id="Path_163" data-name="Path 163" d="M2333.566,731.178c-10.259.01-18.18-8.122-18.175-18.658,0-9.235,9.009-17.618,18.645-17.359,9.442.254,17.6,8.9,17.52,18.573C2351.47,724.005,2344.081,731.169,2333.566,731.178Z"/>
  </g>
  <path id="Path_164" data-name="Path 164" d="M2405.667,700.128h-13.443a57.507,57.507,0,0,0-114.063,0h-11.553a57.506,57.506,0,0,0-114.062,0h-15.213V719.59h16.021a57.51,57.51,0,0,0,112.446,0h13.17a57.51,57.51,0,0,0,112.445,0h14.252Zm-196.09,49.539a42.167,42.167,0,1,1,42.167-42.167A42.167,42.167,0,0,1,2209.577,749.667Zm125.615,0a42.167,42.167,0,1,1,42.167-42.167A42.166,42.166,0,0,1,2335.192,749.667Z" transform="translate(-2108.729 -582.403)" fill="#fbae17"/>
</svg>
