<svg id="Emoji-Emotionless" xmlns="http://www.w3.org/2000/svg" width="217.144" height="152.18" viewBox="0 0 217.144 152.18">
  <path id="Path_266" data-name="Path 266" d="M111.4,353.193c.854-16.643,10.25-32.882,29.285-42.058,18.909-9.116,37.61-7.2,54.68,5.424,12.944,9.574,17.406,22.29,12.668,38a86.138,86.138,0,0,1-35.651,47.711c-15.338,10.209-32.508,7.094-46.1-7.011C116.521,385.128,111.263,371.9,111.4,353.193Zm83.969,8.548c1.148-20.342-15.4-27.759-28.879-28.067-13.8-.316-27.464,12.561-27.59,25.582-.155,15.974,13.713,29.952,29.718,29.954C185.013,389.211,195.37,378.576,195.373,361.741Zm64.483-55.857c23.874.076,43.56,14.363,50.671,36a52.963,52.963,0,0,1-17.774,58.006c-13.168,10.271-28.058,11.357-41.745,1.8-16.753-11.693-28.7-27.451-34.785-47.153-4.665-15.11-.169-28.044,12.328-37.7C238.075,309.489,248.812,305.582,259.856,305.884Zm-5.472,83.268a30,30,0,0,0,30.874-28.577c.589-13.294-12.047-26.322-26.136-26.944-16.837-.744-29.662,10.162-30.23,25.706C228.235,377.361,237.748,388.488,254.384,389.153ZM235.356,416.5c7.084-5.915,7.9-13.8,1.86-20.756a6.913,6.913,0,0,0-5.8-1.855,69.445,69.445,0,0,1-38.569-.135,5.616,5.616,0,0,0-4.325.52c-5.047,3.753-6.994,13.156-3.04,18,6.821,8.35,15.1,14.756,30.191,15.077C221.734,427.734,228.587,422.152,235.356,416.5Zm64.966-141.3c-9.685.374-17.027,9.9-16.8,22.426.155,8.587,6.409,13.887,16.384,13.888,14.549,0,19.615-3.746,19.582-14.485C320.813,286.1,309.58,274.837,300.322,275.194ZM138.09,297.59c.242-12.659-6.955-22.352-16.6-22.353-10.617,0-18.923,9.515-19.041,21.815-.1,10.76,4.717,14.327,19.542,14.46C132.02,311.6,137.919,306.5,138.09,297.59Zm45.3,65.009c-.076-5.942-5.714-11.386-11.928-11.515-6.688-.139-12.348,5.751-12.182,12.675s5.1,11.58,12.233,11.556C178.454,375.292,183.482,369.908,183.389,362.6Zm81.731.95c.054-6.5-5.412-12.326-11.737-12.5-6.456-.174-12.488,5.466-12.491,11.679a12.173,12.173,0,0,0,12.175,12.554C260.112,375.28,265.062,370.459,265.12,363.549Z" transform="translate(-102.451 -275.186)"/>
</svg>
