<?xml version="1.0" encoding="UTF-8" standalone="no"?>
<svg
   xmlns:dc="http://purl.org/dc/elements/1.1/"
   xmlns:cc="http://creativecommons.org/ns#"
   xmlns:rdf="http://www.w3.org/1999/02/22-rdf-syntax-ns#"
   xmlns:svg="http://www.w3.org/2000/svg"
   xmlns="http://www.w3.org/2000/svg"
   xmlns:sodipodi="http://sodipodi.sourceforge.net/DTD/sodipodi-0.dtd"
   xmlns:inkscape="http://www.inkscape.org/namespaces/inkscape"
   width="16mm"
   height="16mm"
   viewBox="0 0 16 16"
   version="1.1"
   id="svg8"
   inkscape:version="1.0.2-2 (e86c870879, 2021-01-15)"
   sodipodi:docname="error_alert.svg">
  <defs
     id="defs2" />
  <sodipodi:namedview
     id="base"
     pagecolor="#ffffff"
     bordercolor="#666666"
     borderopacity="1.0"
     inkscape:pageopacity="0.0"
     inkscape:pageshadow="2"
     inkscape:zoom="1.979899"
     inkscape:cx="222.32932"
     inkscape:cy="182.51521"
     inkscape:document-units="mm"
     inkscape:current-layer="layer1"
     inkscape:document-rotation="0"
     showgrid="false"
     inkscape:window-width="1267"
     inkscape:window-height="1040"
     inkscape:window-x="2273"
     inkscape:window-y="17"
     inkscape:window-maximized="0" />
  <metadata
     id="metadata5">
    <rdf:RDF>
      <cc:Work
         rdf:about="">
        <dc:format>image/svg+xml</dc:format>
        <dc:type
           rdf:resource="http://purl.org/dc/dcmitype/StillImage" />
        <dc:title></dc:title>
      </cc:Work>
    </rdf:RDF>
  </metadata>
  <g
     inkscape:label="Layer 1"
     inkscape:groupmode="layer"
     id="layer1">
    <g
       id="g1140"
       transform="matrix(0.35277776,0,0,0.35277776,-705.58656,-421.89034)">
      <path
         d="m 2022.2275,1200.8114 c -9.8169,0 -17.775,7.958 -17.775,17.7749 0,9.8169 7.9581,17.7751 17.775,17.7751 9.8167,0 17.7747,-7.9582 17.7747,-17.7751 0,-9.8169 -7.958,-17.7749 -17.7747,-17.7749 z m -20.3366,17.7706 c 0,5.1021 1.8665,9.7648 4.9543,13.3439 l -1.522,1.5219 c -3.4759,-3.9718 -5.5832,-9.172 -5.5832,-14.8658 0,-12.4735 10.1089,-22.582 22.582,-22.582 5.6937,0 10.8942,2.1072 14.866,5.5834 l -1.5219,1.5218 c -3.5793,-3.088 -8.242,-4.9546 -13.3441,-4.9546 -11.291,0 -20.4311,9.1404 -20.4311,20.4314 z m 37.4771,-14.8126 -1.5235,1.5233 c 3.0604,3.5717 4.9088,8.2126 4.9088,13.2893 0,11.2911 -9.1403,20.4313 -20.4313,20.4313 -5.0768,0 -9.7176,-1.8486 -13.2895,-4.9087 l -1.5231,1.5232 c 3.9648,3.4483 9.1443,5.5363 14.8126,5.5363 12.4733,0 22.5819,-10.1087 22.5819,-22.5821 0,-5.6682 -2.0876,-10.8477 -5.5359,-14.8126 z"
         style="fill:#e51d1d;fill-opacity:1;fill-rule:nonzero;stroke:none"
         id="path1142" />
    </g>
    <path
       d="m 9.1040893,11.04875 c 0,0.709353 -0.5771,1.286459 -1.28646,1.286459 -0.70935,0 -1.28646,-0.577106 -1.28646,-1.286459 0,-0.709354 0.57711,-1.2864595 1.28646,-1.2864595 0.70936,0 1.28646,0.5771055 1.28646,1.2864595 z m -2.42401,-6.5416648 0.2187,4.373963 c 0.0103,0.205399 0.1798,0.366658 0.38546,0.366658 h 1.06679 c 0.20566,0 0.37518,-0.161259 0.38546,-0.366658 l 0.2187,-4.373963 c 0.011,-0.220451 -0.16473,-0.405219 -0.38546,-0.405219 h -1.50419 c -0.22073,0 -0.39647,0.184768 -0.38546,0.405219 z"
       style="fill:#ffffff;fill-opacity:1;fill-rule:nonzero;stroke:none;stroke-width:0.352778"
       id="path1146" />
  </g>
</svg>
