<svg xmlns="http://www.w3.org/2000/svg" width="319.388" height="336.909" viewBox="0 0 319.388 336.909">
  <g id="Group_1826" data-name="Group 1826" transform="translate(-1090.164 -1043.333)">
    <circle id="Ellipse_82" data-name="Ellipse 82" cx="134.838" cy="134.838" r="134.838" transform="translate(1129.656 1103.917)" fill="#4ec5a8"/>
    <path id="Path_769" data-name="Path 769" d="M1279.674,1114.332A142.226,142.226,0,1,0,1421.9,1256.558,142.226,142.226,0,0,0,1279.674,1114.332Zm0,271.892a129.666,129.666,0,1,1,129.666-129.666A129.666,129.666,0,0,1,1279.674,1386.224Z" transform="translate(-12.349 -18.543)"/>
    <g id="Group_1778" data-name="Group 1778" transform="translate(1184.221 1144.19)">
      <g id="Group_1767" data-name="Group 1767" transform="translate(0 67.019)">
        <path id="Path_770" data-name="Path 770" d="M1351.923,1290.245c-2.174,2.988-2.181,3,.007,4.844q10.587,8.934,21.184,17.856c3.51,2.959,6.989,5.955,10.543,8.86,1.136.928,1.029,2.079.808,3.194-.083.419-.864.886-1.4,1q-15.649,3.384-31.326,6.638a3,3,0,0,1-2.145-.569c-1.944-1.5-3.773-3.142-5.651-4.722-1.986-1.672-3.98-3.335-5.987-5.015-1.752,2.649-1.655,3.426.492,5.228,1.922,1.613,3.825,3.25,5.768,4.838a9.455,9.455,0,0,0,1.532.845l-.434.668c-.694.194-1.381.428-2.085.578q-37.9,8.049-75.806,16.1a2.131,2.131,0,0,1-2.478-.854c-3.959-5.238-7.981-10.429-11.972-15.644-.34-.445-.611-.946-1.1-1.714,5.629-1.132,10.974-2.208,16.3-3.279-.514-3.358-.786-3.562-3.692-2.99-4.556.9-9.115,1.782-13.669,2.687a2.177,2.177,0,0,1-2.519-.781q-11.256-14.779-22.59-29.5c-.3-.4-.534-.855-.983-1.583l22.792-3.843c-1.738-3.152-2.141-3.355-5.2-2.845q-7.976,1.331-15.955,2.64c-.75.122-1.519.128-2.464.2.141-.778.21-1.3.33-1.8,1.14-4.777,2.294-9.549,3.431-14.326.679-2.847.275-3.532-2.657-4.494-.131.458-.28.909-.391,1.368-1.33,5.5-2.674,11-3.968,16.505a31.406,31.406,0,0,0-1.247,6.413c-.214,11.424-.085,22.855-.418,34.274a17.5,17.5,0,0,0,4.2,12q18.89,23.856,37.467,47.958c2.022,2.611,4.259,3.492,7.494,2.762,15.775-3.557,31.578-7,47.37-10.478q33.618-7.408,67.237-14.816c3.775-.833,5.256-2.648,5.282-6.484.089-13.028.151-26.056.262-39.083a3.881,3.881,0,0,0-1.534-3.3q-14.42-12.088-28.768-24.264C1356,1293.64,1354,1291.978,1351.923,1290.245Z" transform="translate(-1217.861 -1271.049)" fill="#fff"/>
        <path id="Path_771" data-name="Path 771" d="M1265.683,1394.6c-2.5,0-4.5-1.11-6.307-3.442-11.1-14.336-24.231-31.244-37.457-47.947a18.476,18.476,0,0,1-4.44-12.72c.191-6.547.232-13.214.27-19.661.028-4.785.058-9.732.149-14.6a22.571,22.571,0,0,1,.908-5.173c.126-.492.253-.983.368-1.473.988-4.214,2.009-8.422,3.028-12.63l.941-3.882c.08-.333.179-.662.278-.992l.444-1.526,1.092.358c3.475,1.139,4.2,2.387,3.389,5.8q-.883,3.708-1.775,7.415-.83,3.454-1.656,6.911c-.027.116-.052.232-.075.352.339-.024.652-.051.953-.1q7.978-1.3,15.95-2.638c3.563-.6,4.4-.151,6.355,3.4l.755,1.369-22.719,3.83c.021.029.042.06.064.088l6.837,8.917q7.889,10.283,15.755,20.585c.332.437.561.537,1.422.366q4.13-.82,8.264-1.625l5.407-1.06c1.562-.309,2.652-.465,3.538.159.929.652,1.173,1.851,1.464,3.749l.16,1.045-15.77,3.172c.065.1.128.186.192.269q1.978,2.584,3.962,5.162c2.635,3.43,5.361,6.977,8.014,10.488.362.478.6.6,1.363.438q25.614-5.452,51.232-10.881l24.575-5.216c.179-.038.358-.082.539-.131a.137.137,0,0,1-.023-.019c-1.325-1.082-2.631-2.188-3.937-3.293q-.919-.777-1.842-1.553c-2.588-2.173-2.739-3.61-.7-6.688l.684-1.036,3.013,2.523q1.971,1.647,3.926,3.291c.57.478,1.135.964,1.7,1.45,1.268,1.089,2.58,2.217,3.915,3.243a1.965,1.965,0,0,0,1.242.362c9.3-1.919,19.254-4.028,31.318-6.637a1.661,1.661,0,0,0,.575-.29c.195-1.072.084-1.525-.452-1.963-2.527-2.066-5.054-4.208-7.5-6.281q-1.528-1.3-3.06-2.591l-7.264-6.121q-6.962-5.866-13.92-11.735c-2.774-2.341-2.59-3.04-.191-6.34l.7-.958,2.853,2.378c1.394,1.164,2.764,2.306,4.128,3.458l7.863,6.643c6.843,5.785,13.919,11.766,20.9,17.619a4.961,4.961,0,0,1,1.931,4.155q-.106,12.468-.172,24.936-.043,7.072-.09,14.144c-.03,4.354-1.87,6.615-6.152,7.559q-21.993,4.852-43.987,9.694l-23.25,5.122q-6.012,1.325-12.025,2.644c-11.588,2.546-23.57,5.178-35.34,7.832A10.466,10.466,0,0,1,1265.683,1394.6Zm-40.339-121.2c-.017.064-.033.129-.049.193l-.941,3.883c-1.019,4.2-2.038,8.4-3.025,12.614-.119.505-.249,1.011-.379,1.518a20.7,20.7,0,0,0-.839,4.663c-.09,4.855-.119,9.8-.147,14.573-.039,6.461-.078,13.141-.271,19.714a16.4,16.4,0,0,0,3.962,11.279c13.233,16.711,26.369,33.625,37.474,47.967,1.778,2.3,3.625,2.979,6.373,2.36,11.776-2.656,23.761-5.289,35.353-7.835q6.012-1.321,12.023-2.644l23.25-5.122q21.994-4.845,43.986-9.694c3.276-.721,4.39-2.087,4.413-5.41q.049-7.07.09-14.143.076-12.472.172-24.942a2.78,2.78,0,0,0-1.138-2.436c-6.986-5.857-14.064-11.839-20.908-17.624l-7.862-6.642c-1.36-1.149-2.727-2.289-4.118-3.449l-1.029-.858a4.592,4.592,0,0,0-.726,1.24,9.551,9.551,0,0,0,1.245,1.141q6.958,5.871,13.92,11.734l7.263,6.122q1.535,1.294,3.066,2.6c2.436,2.066,4.954,4.2,7.465,6.255a4.019,4.019,0,0,1,1.195,4.266c-.209,1.052-1.491,1.705-2.25,1.869-12.072,2.611-22.03,4.721-31.338,6.641a4.068,4.068,0,0,1-3.043-.775c-1.383-1.063-2.716-2.21-4.007-3.319-.56-.48-1.119-.962-1.683-1.436q-1.954-1.646-3.92-3.286l-1.09-.912c-.74,1.3-.4,1.585.942,2.716q.925.776,1.848,1.558c1.3,1.1,2.593,2.194,3.908,3.269a4.285,4.285,0,0,0,.809.455c.186.089.37.177.549.275l1.058.573-1.317,2.025-.4.112c-.217.06-.434.125-.649.191-.483.144-.981.293-1.5.4l-24.576,5.216q-25.616,5.435-51.231,10.88a3.219,3.219,0,0,1-3.593-1.27c-2.649-3.5-5.371-7.046-8-10.473q-1.982-2.581-3.964-5.166a12.723,12.723,0,0,1-.721-1.093c-.127-.208-.269-.437-.435-.7l-.872-1.364,16.841-3.387a3.46,3.46,0,0,0-.376-1.231,6.724,6.724,0,0,0-1.832.2l-5.41,1.062q-4.129.808-8.258,1.625a3.264,3.264,0,0,1-3.617-1.2q-7.85-10.308-15.749-20.58l-6.839-8.918a9.791,9.791,0,0,1-.654-1.018c-.113-.192-.239-.408-.392-.656l-.863-1.4,22.85-3.853c-.83-1.33-1.251-1.26-3.271-.921q-7.978,1.329-15.96,2.64a16.5,16.5,0,0,1-1.693.158c-.272.015-.559.031-.863.056l-1.434.112.257-1.415c.048-.264.087-.5.123-.712.074-.439.135-.8.219-1.152q.826-3.457,1.656-6.914.888-3.706,1.775-7.412C1226.619,1274.39,1226.723,1273.953,1225.344,1273.4Z" transform="translate(-1217.468 -1270.55)"/>
      </g>
      <g id="Group_1768" data-name="Group 1768" transform="translate(9.304 0)">
        <path id="Path_772" data-name="Path 772" d="M1234.491,1237.955c.138-.4.285-.744.37-1.1q1.941-8.016,3.866-16.036c1.261-5.242,2.651-10.458,3.742-15.735.939-4.539,7.956-7.165,11.444-4.47,3.952,3.055,8.4,5.475,12.684,8.088a4.236,4.236,0,0,0,2.535.613q21.923-2.78,43.83-5.687,23.576-3.1,47.151-6.222c.8-.105,1.62-.089,2.616-.139-.228.62-.321.975-.483,1.295q-13.069,25.7-26.123,51.4a3.065,3.065,0,0,1-2.541,1.827c-5.221.818-10.43,1.706-15.642,2.574-.932.156-1.859.332-2.9.519a15.332,15.332,0,0,1,.242,1.737c.028,1.566.687,1.9,2.227,1.595,3.925-.778,7.895-1.325,11.837-2.018,1.214-.214,1.622.108,1.536,1.388-.687,10.281-1.353,20.564-1.94,30.851-.086,1.495-.7,2-2.069,2.23-3.261.556-6.5,1.221-9.741,1.913a1.876,1.876,0,0,0-1.277.907,18.967,18.967,0,0,0-.394,3.176c4.776-.951,9.264-1.837,13.747-2.752a1.1,1.1,0,0,0,.741-.519c.988-2.924,2.271-5.805,2.794-8.816a98.811,98.811,0,0,0,.763-10.7c.356-5.7.7-11.4,1.09-17.1.035-.512.311-1.265.683-1.428a1.948,1.948,0,0,1,1.532.439c1.15.866,2.205,1.854,3.313,2.777,1.214,1.01,2.443,2,3.77,3.085.388-.59.617-1,.909-1.37,1-1.249.8-2.177-.527-3.121-1.473-1.05-2.757-2.363-4.2-3.467a1.634,1.634,0,0,1-.525-2.426q13.587-26.6,27.082-53.245a3.068,3.068,0,0,1,2.681-1.861c4.717-.549,9.432-1.15,14.125-1.874a2.739,2.739,0,0,0,1.884-1.531,2.51,2.51,0,0,0-1.018-2.059q-6.549-4.464-13.255-8.7a4.71,4.71,0,0,0-2.845-.633q-21.948,2.573-43.88,5.284-22.729,2.785-45.452,5.617c-10.223,1.262-20.454,2.467-30.67,3.791a10.706,10.706,0,0,0-9.338,8.276q-3.506,14.474-6.935,28.967c-.724,3.041-.7,3.047,2.057,4.531A3.015,3.015,0,0,0,1234.491,1237.955Z" transform="translate(-1230.444 -1180.233)" fill="#fff"/>
        <path id="Path_773" data-name="Path 773" d="M1313.812,1297.649l.159-1.5c.039-.36.064-.7.088-1.024a11.1,11.1,0,0,1,.345-2.349,2.877,2.877,0,0,1,2.109-1.677c2.9-.619,6.325-1.331,9.787-1.922.958-.163,1.1-.308,1.148-1.2.628-10.987,1.334-21.766,1.942-30.861.006-.105.009-.19.008-.258-.065.007-.147.017-.247.036-1.537.27-3.078.518-4.619.766-2.367.381-4.815.775-7.195,1.246a3.151,3.151,0,0,1-2.659-.37,2.881,2.881,0,0,1-.892-2.292,6.028,6.028,0,0,0-.12-.918c-.036-.209-.075-.433-.111-.678l-.154-1.062,2.046-.369c.667-.122,1.3-.236,1.929-.342l3.664-.613c3.927-.656,7.986-1.336,11.988-1.963a1.976,1.976,0,0,0,1.724-1.232q9.684-19.129,19.423-38.229l6.509-12.793c-.281.014-.549.035-.808.068q-11.8,1.552-23.6,3.115-11.776,1.555-23.552,3.107c-14.815,1.948-29.316,3.848-43.834,5.688a5.3,5.3,0,0,1-3.251-.767c-1.016-.62-2.041-1.229-3.068-1.838a95.6,95.6,0,0,1-9.718-6.319,5.85,5.85,0,0,0-5.5-.358,6.231,6.231,0,0,0-4.178,4.175c-.769,3.714-1.7,7.447-2.592,11.059-.39,1.569-.78,3.139-1.158,4.71l-.322,1.339q-1.768,7.349-3.543,14.7a7.365,7.365,0,0,1-.271.835c-.042.115-.086.233-.128.359l-.326.959-.984-.239c-.1-.023-.173-.039-.232-.052a1.744,1.744,0,0,1-.535-.177c-3.2-1.721-3.444-2.259-2.609-5.763,2.256-9.478,4.588-19.278,6.936-28.971a11.744,11.744,0,0,1,10.273-9.113c6.911-.9,13.943-1.752,20.744-2.579q4.966-.6,9.931-1.213,8.668-1.07,17.334-2.146,14.059-1.742,28.12-3.471c13.828-1.694,28.716-3.506,43.885-5.285a5.849,5.849,0,0,1,3.563.8c4.361,2.746,8.833,5.678,13.289,8.718.828.564,1.807,2.128,1.456,3.294a3.817,3.817,0,0,1-2.775,2.307c-4.145.64-8.647,1.237-14.168,1.88a1.984,1.984,0,0,0-1.821,1.261c-8.684,17.153-17.8,35.068-27.083,53.248-.314.614-.278.666.213,1.042.669.514,1.3,1.068,1.915,1.6.76.664,1.477,1.291,2.249,1.842a3.4,3.4,0,0,1,1.6,2.246,3.2,3.2,0,0,1-.845,2.467,8.2,8.2,0,0,0-.487.723c-.108.171-.226.357-.362.565l-.676,1.028-2.187-1.785c-.872-.71-1.712-1.394-2.542-2.085-.4-.331-.786-.669-1.176-1.006-.71-.618-1.381-1.2-2.095-1.737a1.677,1.677,0,0,0-.358-.2,1.52,1.52,0,0,0-.085.377c-.3,4.343-.569,8.689-.838,13.034l-.252,4.061c-.067,1.064-.107,2.133-.147,3.2a56.979,56.979,0,0,1-.631,7.612,38.208,38.208,0,0,1-1.978,6.584c-.293.8-.587,1.6-.857,2.4a2.137,2.137,0,0,1-1.568,1.25c-3.654.745-7.311,1.471-11.122,2.229Zm2.689-4.139a8.142,8.142,0,0,0-.2,1.385l1.188-.237c3.8-.755,7.45-1.481,11.093-2.224.257-.75.532-1.5.807-2.246a36.045,36.045,0,0,0,1.875-6.2,55.562,55.562,0,0,0,.6-7.319c.041-1.087.082-2.173.151-3.257l.251-4.059c.269-4.351.537-8.7.839-13.05a2.293,2.293,0,0,1,3.987-1.8c.776.584,1.508,1.22,2.215,1.835.378.328.756.656,1.141.977.826.687,1.658,1.365,2.523,2.069l.275.225c.1-.144.2-.281.3-.417a1.35,1.35,0,0,0,.384-.78c-.01-.067-.087-.32-.688-.748-.861-.616-1.653-1.308-2.419-1.978-.615-.536-1.194-1.044-1.807-1.514a2.705,2.705,0,0,1-.837-3.81c9.286-18.178,18.4-36.09,27.08-53.241a4.172,4.172,0,0,1,3.541-2.461c5.493-.639,9.969-1.233,14.085-1.868a1.886,1.886,0,0,0,.965-.7,1.929,1.929,0,0,0-.554-.88c-4.435-3.023-8.884-5.942-13.223-8.673a3.612,3.612,0,0,0-2.126-.47c-15.162,1.778-30.047,3.59-43.873,5.284q-14.06,1.721-28.117,3.47-8.667,1.075-17.335,2.145-4.966.613-9.935,1.214c-6.8.827-13.824,1.681-20.727,2.575a9.6,9.6,0,0,0-8.4,7.439c-2.346,9.688-4.679,19.487-6.935,28.962a6.953,6.953,0,0,0-.348,2.131,3.742,3.742,0,0,0,1.153.788q1.762-7.286,3.513-14.574l.322-1.338q.57-2.366,1.161-4.728c.892-3.59,1.813-7.3,2.573-10.973a8.435,8.435,0,0,1,5.579-5.806c2.814-1.041,5.736-.778,7.628.684a93.589,93.589,0,0,0,9.493,6.166c1.034.614,2.067,1.227,3.09,1.852a3.168,3.168,0,0,0,1.818.46c14.514-1.84,29.012-3.74,43.826-5.688q11.775-1.547,23.549-3.108,11.8-1.559,23.6-3.113a17.312,17.312,0,0,1,1.789-.114c.289-.008.593-.018.915-.034l1.675-.083-.578,1.574c-.078.211-.14.39-.193.546a6.437,6.437,0,0,1-.343.868l-6.7,13.172q-9.725,19.1-19.421,38.224a4.167,4.167,0,0,1-3.358,2.42c-3.991.626-8.044,1.3-11.966,1.96l-3.667.613c-.6.1-1.189.208-1.815.321a5.744,5.744,0,0,1,.079.823,1.911,1.911,0,0,0,.078.6,2.508,2.508,0,0,0,.825-.071c2.42-.479,4.887-.875,7.273-1.26,1.531-.246,3.061-.493,4.588-.761a2.142,2.142,0,0,1,2.834,2.553c-.607,9.091-1.313,19.863-1.94,30.841a3.142,3.142,0,0,1-2.988,3.258c-3.422.584-6.821,1.29-9.695,1.9A1.323,1.323,0,0,0,1316.5,1293.51Zm12.011-.868v0Z" transform="translate(-1230.06 -1179.841)"/>
      </g>
      <g id="Group_1769" data-name="Group 1769" transform="translate(39.51 75.758)">
        <path id="Path_774" data-name="Path 774" d="M1273.116,1290.45c1.447,3.178,1.921,3.421,4.882,2.913,5.2-.892,10.415-1.755,15.624-2.622,6.472-1.076,12.948-2.13,19.413-3.245.523-.09,1.317-.5,1.409-.892.464-2.005-.549-2.992-2.522-2.662q-16.02,2.68-32.041,5.349C1277.644,1289.666,1275.408,1290.057,1273.116,1290.45Z" transform="translate(-1271.511 -1282.77)" fill="#fff"/>
        <path id="Path_775" data-name="Path 775" d="M1275.66,1294.27c-1.98,0-2.847-.956-4.12-3.753l-.6-1.309,3.711-.637c1.5-.26,2.988-.516,4.477-.766l14.542-2.428q8.75-1.459,17.5-2.921a3.037,3.037,0,0,1,3.784,4.005c-.235,1.015-1.536,1.6-2.3,1.735-4.715.813-9.512,1.607-14.151,2.373l-7.66,1.271q-6.614,1.1-13.226,2.222A11.881,11.881,0,0,1,1275.66,1294.27Zm-1.488-3.367c.712,1.38,1.1,1.313,3.072.976q6.614-1.135,13.237-2.224l7.661-1.272c4.637-.766,9.43-1.559,14.138-2.371a1.7,1.7,0,0,0,.556-.234,1.248,1.248,0,0,0-.1-1c-.132-.141-.517-.252-1.2-.137q-8.748,1.464-17.5,2.922l-14.542,2.428c-1.484.248-2.967.5-4.466.762Z" transform="translate(-1270.944 -1282.378)"/>
      </g>
      <g id="Group_1770" data-name="Group 1770" transform="translate(60.101 113.821)">
        <path id="Path_776" data-name="Path 776" d="M1300.57,1339.67c.695,3.576.76,3.615,3.959,2.981q7.057-1.4,14.117-2.773c2.6-.5,3.135-1.323,2.481-4.233Z" transform="translate(-1299.272 -1334.352)" fill="#fff"/>
        <path id="Path_777" data-name="Path 777" d="M1301.976,1343.612a2.4,2.4,0,0,1-1.4-.381c-.934-.626-1.166-1.824-1.55-3.806l-.211-1.086,22.7-4.443.236,1.05c.313,1.4.505,2.836-.208,3.926a4.527,4.527,0,0,1-3.144,1.638q-7.059,1.364-14.11,2.771A12.813,12.813,0,0,1,1301.976,1343.612Zm-.559-3.525a4.217,4.217,0,0,0,.41,1.318,10.107,10.107,0,0,0,2.028-.3q7.058-1.4,14.122-2.773c.976-.189,1.535-.408,1.709-.675a2.019,2.019,0,0,0,.094-1.166Z" transform="translate(-1298.813 -1333.895)"/>
      </g>
      <g id="Group_1771" data-name="Group 1771" transform="translate(0.002 67.019)">
        <path id="Path_778" data-name="Path 778" d="M1264.278,1348.6c.937,1.912,1.751,2.284,3.148,1.987q37.9-8.066,75.806-16.1c.726-.154,1.433-.4,2.15-.6l.085-.8a6.378,6.378,0,0,1-1.248-.7c-1.942-1.588-3.845-3.225-5.767-4.838-2.147-1.8-14.732-13.016-12.981-15.667,2.006,1.68,16.49,13.781,18.476,15.454,1.878,1.581,3.707,3.226,5.651,4.722a3,3,0,0,0,2.145.569q15.68-3.236,31.326-6.638c.534-.115,1.315-.583,1.4-1,.221-1.115.328-2.266-.808-3.194-3.555-2.905-7.034-5.9-10.544-8.86q-10.591-8.928-21.184-17.856c-2.189-1.846-2.181-1.856-.007-4.844,2.073,1.733,4.076,3.4,6.064,5.075q14.378,12.139,28.767,24.264a3.884,3.884,0,0,1,1.535,3.3c-.111,13.027-.173,26.055-.262,39.083-.027,3.836-1.508,5.651-5.283,6.484q-33.617,7.415-67.236,14.816c-15.793,3.48-31.595,6.92-47.369,10.478-4.071.917-5.925-1.134-9.032-5.134-11.953-15.389-19.342-24.994-31.962-41.336-4.574-5.922-8.357-9.722-8.167-16.25.333-11.419.2-22.85.418-34.274a31.389,31.389,0,0,1,1.246-6.413c1.293-5.509,2.639-11.005,3.968-16.505.111-.459.26-.91.391-1.368,2.932.961,3.335,1.647,2.657,4.494-1.138,4.777-2.292,9.549-3.432,14.326-.12.507-.19,1.026-.33,1.8.945-.075,1.714-.081,2.464-.2q7.981-1.3,15.955-2.64c3.062-.511,3.464-.308,5.2,2.845l-22.792,3.843a15.1,15.1,0,0,0,2.333,2.757l20.1,25.889c2.044,2.827,2.13,3.52,3.656,3.217,4.554-.9,9.114-1.789,13.67-2.687,2.906-.572,3.178-.368,3.692,2.99-5.33,1.071-10.676,2.147-16.3,3.279a9.258,9.258,0,0,0,1.87,2.517Zm1.913,41.67c.841-.148,1.613-.256,2.37-.424q21.89-4.836,43.777-9.681,34.792-7.667,69.588-15.313c1.954-.43,2.418-.963,2.433-2.952.076-10.2.113-20.4.209-30.595.013-1.407-.476-1.783-1.819-1.473-3.12.721-6.259,1.359-9.39,2.027q-28.658,6.108-57.317,12.212-23.493,4.991-47,9.925c-1.368.286-2.035.693-2.063,2.333-.181,10.41-.511,20.817-.786,31.225C1266.172,1388.388,1266.191,1389.227,1266.191,1390.269Zm-4.137-3.831.409-.163c.055-.783.141-1.565.161-2.349.231-9.231.384-18.466.73-27.693a6.423,6.423,0,0,0-1.477-4.495q-18.745-24.365-37.427-48.777c-.3-.387-.67-.716-1.345-1.426-.072,1.159-.146,1.823-.151,2.488-.079,9.555-.1,19.109-.256,28.662a9.531,9.531,0,0,0,2.125,6.347q18.176,23.186,36.3,46.416C1261.4,1385.8,1261.74,1386.11,1262.053,1386.438Z" transform="translate(-1217.863 -1271.049)"/>
        <path id="Path_779" data-name="Path 779" d="M1265.928,1394.57c-3.4,0-5.385-2.305-8.087-5.784-9.071-11.677-15.485-19.988-23.607-30.51l-8.357-10.827c-.577-.747-1.141-1.461-1.686-2.149-3.85-4.865-6.891-8.707-6.713-14.811.192-6.547.231-13.214.27-19.661.028-4.785.058-9.732.148-14.6a22.612,22.612,0,0,1,.909-5.173c.127-.492.254-.983.368-1.473.989-4.214,2.009-8.422,3.029-12.63l.94-3.882c.08-.333.179-.662.278-.992l.444-1.526,1.092.358c3.475,1.139,4.2,2.388,3.389,5.8q-.883,3.708-1.775,7.415-.829,3.454-1.656,6.911c-.027.116-.052.232-.075.352.34-.024.652-.051.953-.1q7.978-1.3,15.95-2.638c3.563-.6,4.4-.151,6.354,3.4l.756,1.369-22.529,3.8.216.218c.26.263.562.568.958,1.015l20.148,25.944c.406.56.722,1.018.992,1.407,1.042,1.507,1.043,1.509,1.572,1.4q4.132-.82,8.264-1.625l5.407-1.06c1.561-.309,2.652-.465,3.538.159.929.652,1.173,1.851,1.464,3.749l.16,1.045-15.771,3.172a4.1,4.1,0,0,0,.8.9l.158.166,10.649,13.9c.8,1.63,1.2,1.544,1.922,1.39q25.614-5.452,51.232-10.881l24.574-5.216c.179-.038.358-.082.539-.131a.241.241,0,0,1-.023-.019c-1.325-1.082-2.632-2.188-3.937-3.293q-.92-.777-1.841-1.553c-2.633-2.21-15.642-13.421-13.194-17.127l.685-1.035.952.8c.71.595,2.98,2.494,5.706,4.772,4.983,4.165,11.488,9.6,12.771,10.683.57.478,1.134.964,1.7,1.45,1.268,1.089,2.58,2.217,3.915,3.243a1.964,1.964,0,0,0,1.243.362c9.3-1.919,19.253-4.028,31.317-6.637a1.664,1.664,0,0,0,.575-.29c.194-1.072.084-1.525-.452-1.963-2.528-2.066-5.054-4.208-7.5-6.281q-1.529-1.3-3.059-2.591l-7.264-6.121q-6.962-5.866-13.921-11.735c-2.773-2.341-2.59-3.04-.192-6.34l.7-.958,2.853,2.378c1.394,1.164,2.764,2.306,4.128,3.458l7.862,6.643c6.843,5.785,13.919,11.766,20.9,17.619a4.961,4.961,0,0,1,1.931,4.155q-.107,12.468-.172,24.936-.043,7.072-.09,14.144c-.031,4.354-1.87,6.615-6.152,7.559q-21.994,4.852-43.988,9.694l-23.25,5.122q-6.012,1.325-12.025,2.644c-11.588,2.546-23.571,5.178-35.34,7.832A9.308,9.308,0,0,1,1265.928,1394.57ZM1225.345,1273.4c-.016.064-.033.129-.049.193l-.94,3.883c-1.02,4.2-2.038,8.4-3.025,12.614-.119.505-.249,1.011-.378,1.518a20.674,20.674,0,0,0-.84,4.663c-.09,4.855-.119,9.8-.148,14.573-.039,6.461-.078,13.141-.27,19.714-.155,5.3,2.525,8.683,6.234,13.37.55.7,1.12,1.416,1.7,2.17l8.359,10.828c8.12,10.521,14.533,18.831,23.6,30.506,3.191,4.108,4.6,5.478,7.911,4.732,11.776-2.656,23.761-5.289,35.352-7.835q6.012-1.321,12.024-2.644l23.249-5.122q21.995-4.845,43.986-9.694c3.278-.721,4.391-2.087,4.413-5.41q.049-7.07.091-14.143.077-12.472.172-24.942a2.779,2.779,0,0,0-1.138-2.436c-6.986-5.857-14.064-11.839-20.908-17.624l-7.862-6.642c-1.361-1.149-2.727-2.289-4.118-3.449l-1.029-.858a4.58,4.58,0,0,0-.727,1.24,9.574,9.574,0,0,0,1.246,1.141q6.958,5.871,13.92,11.734l7.263,6.122q1.535,1.294,3.065,2.6c2.436,2.066,4.954,4.2,7.465,6.255a4.018,4.018,0,0,1,1.195,4.266c-.209,1.052-1.491,1.705-2.25,1.869-12.072,2.611-22.03,4.721-31.338,6.641a4.067,4.067,0,0,1-3.043-.775c-1.383-1.063-2.716-2.21-4.007-3.319-.56-.48-1.119-.962-1.683-1.436-1.283-1.08-7.785-6.515-12.765-10.678l-2.549-2.131a85.4,85.4,0,0,0,11.245,11.326q.925.776,1.848,1.558c1.3,1.1,2.593,2.194,3.907,3.269a4.313,4.313,0,0,0,.808.455l.922.45-.246,2.317-.727.2c-.236.064-.473.135-.708.206-.484.144-.984.293-1.506.4l-24.575,5.216q-25.618,5.435-51.232,10.88c-1.965.422-3.227-.3-4.323-2.481l-10.4-13.536a7.571,7.571,0,0,1-1.558-1.984c-.127-.208-.268-.437-.435-.7l-.871-1.364,16.839-3.387a3.447,3.447,0,0,0-.376-1.231,6.724,6.724,0,0,0-1.832.2l-5.41,1.062q-4.13.808-8.258,1.625c-1.953.387-2.621-.572-3.827-2.316-.262-.379-.569-.822-.942-1.339l-20.081-25.859c-.315-.351-.589-.629-.827-.867a9.294,9.294,0,0,1-1.575-1.988l-.863-1.4,22.851-3.853c-.83-1.33-1.251-1.26-3.271-.921q-7.978,1.329-15.96,2.64a16.5,16.5,0,0,1-1.692.158c-.273.015-.558.031-.863.056l-1.433.112.257-1.415c.047-.264.087-.5.122-.712.074-.439.136-.8.22-1.152q.826-3.457,1.657-6.914.889-3.706,1.775-7.412C1226.62,1274.39,1226.724,1273.953,1225.345,1273.4Zm39.346,117.7,0-2.292c0-.634-.007-1.2.008-1.776q.111-4.193.23-8.387c.208-7.483.424-15.219.556-22.828.042-2.454,1.44-3.083,2.944-3.4,13.98-2.929,28.914-6.082,47-9.924q20.594-4.376,41.185-8.773l18.589-3.959c2.272-.478,4.62-.973,6.915-1.5a2.3,2.3,0,0,1,3.175,2.563q-.086,9.11-.129,18.218-.036,6.187-.08,12.375c-.018,2.5-.82,3.479-3.3,4.027l-29.155,6.414q-20.217,4.447-40.433,8.9-12.914,2.846-25.822,5.709-8.976,1.989-17.953,3.973c-.533.118-1.072.207-1.635.3-.255.042-.516.085-.782.133Zm118.35-60.749a2.467,2.467,0,0,0-.434.07c-2.315.534-4.674,1.031-6.956,1.511l-18.584,3.958q-20.593,4.392-41.186,8.773c-18.085,3.843-33.02,7-47,9.925-1.066.224-1.165.33-1.181,1.268-.132,7.621-.348,15.364-.557,22.851q-.116,4.192-.23,8.384c-.012.449-.011.9-.008,1.379.35-.059.691-.121,1.03-.2q8.976-1.983,17.952-3.972,12.912-2.86,25.824-5.709,20.216-4.456,40.434-8.9l29.154-6.414c1.465-.324,1.552-.429,1.563-1.879q.046-6.185.08-12.372.055-9.112.129-18.225A2.7,2.7,0,0,0,1383.04,1330.342Zm-121.666,56.9-.516-.541c-.093-.1-.19-.193-.285-.289a8.278,8.278,0,0,1-.722-.783l-11.406-14.6q-12.436-15.917-24.888-31.818a10.592,10.592,0,0,1-2.362-7.05c.109-6.669.152-13.454.194-20.015q.029-4.32.062-8.639c0-.451.036-.9.081-1.493.022-.3.048-.649.073-1.054l.161-2.541,1.751,1.847c.238.251.439.454.61.629a9.265,9.265,0,0,1,.81.887l11.313,14.753q13.046,17.017,26.113,34.021a7.488,7.488,0,0,1,1.705,5.214c-.248,6.6-.4,13.318-.546,19.816q-.088,3.932-.183,7.862c-.015.554-.06,1.109-.105,1.662-.021.246-.042.491-.058.736l-.05.7Zm-37.708-83.468q-.034,4.2-.059,8.391c-.042,6.567-.086,13.357-.195,20.037a8.372,8.372,0,0,0,1.89,5.645q12.462,15.9,24.889,31.821l10.922,13.977c0-.083.006-.166.008-.248q.1-3.929.184-7.858c.147-6.5.3-13.232.547-19.849a5.3,5.3,0,0,0-1.248-3.778q-13.076-17-26.115-34.024Z" transform="translate(-1217.471 -1270.55)"/>
      </g>
      <g id="Group_1772" data-name="Group 1772" transform="translate(9.304 0)">
        <path id="Path_780" data-name="Path 780" d="M1234.491,1237.955a3.015,3.015,0,0,1-.5-.125c-2.759-1.485-2.781-1.491-2.057-4.531q3.449-14.489,6.935-28.967a10.706,10.706,0,0,1,9.338-8.276c10.216-1.324,20.447-2.529,30.67-3.791q22.727-2.805,45.452-5.617,21.935-2.688,43.88-5.284a4.71,4.71,0,0,1,2.845.633q6.707,4.223,13.255,8.7a2.51,2.51,0,0,1,1.018,2.059,2.739,2.739,0,0,1-1.884,1.531c-4.693.725-9.408,1.325-14.125,1.874a3.068,3.068,0,0,0-2.681,1.861q-13.492,26.649-27.082,53.245a1.634,1.634,0,0,0,.525,2.426c1.438,1.1,2.723,2.417,4.2,3.467,1.324.944,1.524,1.872.527,3.121-.292.365-.521.78-.909,1.37-1.326-1.083-2.556-2.076-3.77-3.085-1.108-.923-2.163-1.911-3.313-2.777a1.948,1.948,0,0,0-1.532-.439c-.372.163-.648.916-.683,1.428-.395,5.7-.734,11.4-1.09,17.1a98.811,98.811,0,0,1-.763,10.7c-.523,3.011-1.805,5.892-2.794,8.816a1.1,1.1,0,0,1-.741.519c-4.484.914-8.972,1.8-13.747,2.752a18.967,18.967,0,0,1,.394-3.176,1.876,1.876,0,0,1,1.277-.907c3.236-.692,6.48-1.357,9.741-1.913,1.366-.233,1.983-.735,2.069-2.23.587-10.287,1.253-20.571,1.94-30.851.086-1.28-.322-1.6-1.536-1.388-3.943.693-7.912,1.24-11.837,2.018-1.54.3-2.2-.028-2.227-1.595a15.332,15.332,0,0,0-.242-1.737c1.046-.187,1.973-.364,2.9-.519,5.212-.868,10.421-1.756,15.642-2.574a3.065,3.065,0,0,0,2.541-1.827q13.02-25.72,26.123-51.4c.163-.319.255-.675.483-1.295-1,.05-1.814.034-2.616.139q-23.577,3.1-47.151,6.222-21.911,2.88-43.83,5.688a4.236,4.236,0,0,1-2.535-.613c-4.284-2.613-8.732-5.033-12.684-8.088-3.488-2.695-10.505-.069-11.444,4.47-1.092,5.277-2.481,10.493-3.742,15.735q-1.929,8.02-3.866,16.036C1234.776,1237.211,1234.629,1237.55,1234.491,1237.955Zm143.092-46.656.128-.422c-.4-.31-.785-.646-1.206-.926-2-1.326-4.052-2.582-6.008-3.972a4.525,4.525,0,0,0-3.428-.85q-22.944,2.9-45.9,5.706-30.421,3.726-60.846,7.412c-.653.08-1.3.247-2.276.438a13,13,0,0,0,1.185,1.027c2.787,1.781,5.557,3.594,8.4,5.278a4.028,4.028,0,0,0,2.4.444c15.4-1.979,30.787-4.021,46.18-6.033q29.754-3.889,59.511-7.759C1376.353,1191.56,1376.966,1191.415,1377.583,1191.3Z" transform="translate(-1230.444 -1180.233)"/>
        <path id="Path_781" data-name="Path 781" d="M1313.812,1297.649l.159-1.5c.039-.36.064-.7.088-1.024a11.1,11.1,0,0,1,.345-2.349,2.877,2.877,0,0,1,2.109-1.677c2.9-.619,6.325-1.331,9.787-1.922.958-.163,1.1-.308,1.148-1.2.628-10.987,1.334-21.766,1.942-30.861.006-.105.009-.19.008-.258-.065.007-.147.017-.247.036-1.537.27-3.078.518-4.619.766-2.367.381-4.815.775-7.195,1.246a3.151,3.151,0,0,1-2.659-.37,2.881,2.881,0,0,1-.892-2.292,6.028,6.028,0,0,0-.12-.918c-.036-.209-.075-.433-.111-.678l-.154-1.062,2.046-.369c.667-.122,1.3-.236,1.929-.342l3.664-.613c3.927-.656,7.986-1.336,11.988-1.963a1.976,1.976,0,0,0,1.724-1.232q9.684-19.129,19.423-38.229l6.509-12.793c-.281.014-.549.035-.808.068q-11.8,1.552-23.6,3.115-11.776,1.555-23.552,3.107c-14.815,1.948-29.316,3.848-43.834,5.688a5.3,5.3,0,0,1-3.251-.767c-1.016-.62-2.041-1.229-3.068-1.838a95.6,95.6,0,0,1-9.718-6.319,5.85,5.85,0,0,0-5.5-.358,6.231,6.231,0,0,0-4.178,4.175c-.769,3.714-1.7,7.447-2.592,11.059-.39,1.569-.78,3.139-1.158,4.71l-.322,1.339q-1.768,7.349-3.543,14.7a7.365,7.365,0,0,1-.271.835c-.042.115-.086.233-.128.359l-.326.959-.984-.239c-.1-.023-.173-.039-.232-.052a1.744,1.744,0,0,1-.535-.177c-3.2-1.721-3.444-2.259-2.609-5.763,2.256-9.478,4.588-19.278,6.936-28.971a11.744,11.744,0,0,1,10.273-9.113c6.911-.9,13.943-1.752,20.744-2.579q4.966-.6,9.931-1.213,8.668-1.07,17.334-2.146,14.059-1.742,28.12-3.471c13.828-1.694,28.716-3.506,43.885-5.285a5.849,5.849,0,0,1,3.563.8c4.361,2.746,8.833,5.678,13.289,8.718.828.564,1.807,2.128,1.456,3.294a3.817,3.817,0,0,1-2.775,2.307c-4.145.64-8.647,1.237-14.168,1.88a1.984,1.984,0,0,0-1.821,1.261c-8.684,17.153-17.8,35.068-27.083,53.248-.314.614-.278.666.213,1.042.669.514,1.3,1.068,1.915,1.6.76.664,1.477,1.291,2.249,1.842a3.4,3.4,0,0,1,1.6,2.246,3.2,3.2,0,0,1-.845,2.467,8.2,8.2,0,0,0-.487.723c-.108.171-.226.357-.362.565l-.676,1.028-2.187-1.785c-.872-.71-1.712-1.394-2.542-2.085-.4-.331-.786-.669-1.176-1.006-.71-.618-1.381-1.2-2.095-1.737a1.677,1.677,0,0,0-.358-.2,1.52,1.52,0,0,0-.085.377c-.3,4.343-.569,8.689-.838,13.034l-.252,4.061c-.067,1.064-.107,2.133-.147,3.2a56.979,56.979,0,0,1-.631,7.612,38.208,38.208,0,0,1-1.978,6.584c-.293.8-.587,1.6-.857,2.4a2.137,2.137,0,0,1-1.568,1.25c-3.654.745-7.311,1.471-11.122,2.229Zm2.689-4.139a8.142,8.142,0,0,0-.2,1.385l1.188-.237c3.8-.755,7.45-1.481,11.093-2.224.257-.75.532-1.5.807-2.246a36.045,36.045,0,0,0,1.875-6.2,55.562,55.562,0,0,0,.6-7.319c.041-1.087.082-2.173.151-3.257l.251-4.059c.269-4.351.537-8.7.839-13.05a2.293,2.293,0,0,1,3.987-1.8c.776.584,1.508,1.22,2.215,1.835.378.328.756.656,1.141.977.826.687,1.658,1.365,2.523,2.069l.275.225c.1-.144.2-.281.3-.417a1.35,1.35,0,0,0,.384-.78c-.01-.067-.087-.32-.688-.748-.861-.616-1.653-1.308-2.419-1.978-.615-.536-1.194-1.044-1.807-1.514a2.705,2.705,0,0,1-.837-3.81c9.286-18.178,18.4-36.09,27.08-53.241a4.172,4.172,0,0,1,3.541-2.461c5.493-.639,9.969-1.233,14.085-1.868a1.886,1.886,0,0,0,.965-.7,1.929,1.929,0,0,0-.554-.88c-4.435-3.023-8.884-5.942-13.223-8.673a3.612,3.612,0,0,0-2.126-.47c-15.162,1.778-30.047,3.59-43.873,5.284q-14.06,1.721-28.117,3.47-8.667,1.075-17.335,2.145-4.966.613-9.935,1.214c-6.8.827-13.824,1.681-20.727,2.575a9.6,9.6,0,0,0-8.4,7.439c-2.346,9.688-4.679,19.487-6.935,28.962a6.953,6.953,0,0,0-.348,2.131,3.742,3.742,0,0,0,1.153.788q1.762-7.286,3.513-14.574l.322-1.338q.57-2.366,1.161-4.728c.892-3.59,1.813-7.3,2.573-10.973a8.435,8.435,0,0,1,5.579-5.806c2.814-1.041,5.736-.778,7.628.684a93.589,93.589,0,0,0,9.493,6.166c1.034.614,2.067,1.227,3.09,1.852a3.168,3.168,0,0,0,1.818.46c14.514-1.84,29.012-3.74,43.826-5.688q11.775-1.547,23.549-3.108,11.8-1.559,23.6-3.113a17.312,17.312,0,0,1,1.789-.114c.289-.008.593-.018.915-.034l1.675-.083-.578,1.574c-.078.211-.14.39-.193.546a6.437,6.437,0,0,1-.343.868l-6.7,13.172q-9.725,19.1-19.421,38.224a4.167,4.167,0,0,1-3.358,2.42c-3.991.626-8.044,1.3-11.966,1.96l-3.667.613c-.6.1-1.189.208-1.815.321a5.744,5.744,0,0,1,.079.823,1.911,1.911,0,0,0,.078.6,2.508,2.508,0,0,0,.825-.071c2.42-.479,4.887-.875,7.273-1.26,1.531-.246,3.061-.493,4.588-.761a2.142,2.142,0,0,1,2.834,2.553c-.607,9.091-1.313,19.863-1.94,30.841a3.142,3.142,0,0,1-2.988,3.258c-3.422.584-6.821,1.29-9.695,1.9A1.323,1.323,0,0,0,1316.5,1293.51Zm12.011-.868v0Zm-59.348-86.46a5,5,0,0,1-2.476-.629c-2.3-1.362-4.581-2.826-6.787-4.241l-1.648-1.057a5.655,5.655,0,0,1-.82-.674c-.14-.129-.3-.279-.5-.453l-1.7-1.49,2.22-.432c.334-.065.63-.127.9-.184.525-.112.98-.207,1.453-.266q12.509-1.526,25.017-3.044,17.915-2.179,35.83-4.368c15.571-1.907,31.011-3.826,45.894-5.7a5.644,5.644,0,0,1,4.209,1.046c1.27.9,2.612,1.769,3.911,2.607q1.037.667,2.066,1.344c.329.218.624.455.908.684.12.1.241.194.364.289l.605.466-.54,1.8-.666.125c-.19.036-.381.074-.572.113-.446.09-.892.18-1.342.239q-13.286,1.733-26.575,3.464-16.468,2.146-32.935,4.294-7.4.968-14.8,1.94-15.692,2.061-31.386,4.094A4.9,4.9,0,0,1,1269.165,1206.181Zm-8.871-7.252.805.516c2.189,1.4,4.453,2.858,6.719,4.2a2.927,2.927,0,0,0,1.7.3q15.695-2.019,31.381-4.093,7.4-.972,14.8-1.94,16.467-2.154,32.935-4.3l26.409-3.442c-.522-.342-1.046-.68-1.57-1.019-1.32-.851-2.685-1.731-3.995-2.663a3.412,3.412,0,0,0-2.647-.654c-14.886,1.879-30.329,3.8-45.9,5.706q-17.915,2.194-35.832,4.367Q1272.69,1197.417,1260.293,1198.929Z" transform="translate(-1230.06 -1179.841)"/>
      </g>
      <g id="Group_1773" data-name="Group 1773" transform="translate(39.51 75.758)">
        <path id="Path_782" data-name="Path 782" d="M1273.116,1290.45c2.292-.393,4.528-.784,6.765-1.159q16.02-2.677,32.041-5.349c1.973-.33,2.986.657,2.522,2.662-.092.394-.886.8-1.409.892-6.465,1.115-12.941,2.169-19.413,3.245-5.209.867-10.42,1.729-15.624,2.622C1275.037,1293.871,1274.563,1293.628,1273.116,1290.45Z" transform="translate(-1271.511 -1282.77)"/>
        <path id="Path_783" data-name="Path 783" d="M1275.66,1294.27c-1.98,0-2.847-.956-4.12-3.753l-.6-1.309,3.711-.637c1.5-.26,2.988-.516,4.477-.766l14.542-2.428q8.75-1.459,17.5-2.921a3.037,3.037,0,0,1,3.784,4.005c-.235,1.015-1.536,1.6-2.3,1.735-4.715.813-9.512,1.607-14.151,2.373l-7.66,1.271q-6.614,1.1-13.226,2.222A11.881,11.881,0,0,1,1275.66,1294.27Zm-1.488-3.367c.712,1.38,1.1,1.313,3.072.976q6.614-1.135,13.237-2.224l7.661-1.272c4.637-.766,9.43-1.559,14.138-2.371a1.7,1.7,0,0,0,.556-.234,1.248,1.248,0,0,0-.1-1c-.132-.141-.517-.252-1.2-.137q-8.748,1.464-17.5,2.922l-14.542,2.428c-1.484.248-2.967.5-4.466.762Z" transform="translate(-1270.944 -1282.378)"/>
      </g>
      <g id="Group_1774" data-name="Group 1774" transform="translate(60.101 113.821)">
        <path id="Path_784" data-name="Path 784" d="M1300.57,1339.67l20.557-4.024c.654,2.91.124,3.729-2.481,4.233q-7.063,1.364-14.117,2.773C1301.33,1343.285,1301.264,1343.246,1300.57,1339.67Z" transform="translate(-1299.272 -1334.352)"/>
        <path id="Path_785" data-name="Path 785" d="M1301.976,1343.612a2.4,2.4,0,0,1-1.4-.381c-.934-.626-1.166-1.824-1.55-3.806l-.211-1.086,22.7-4.443.236,1.05c.313,1.4.505,2.836-.208,3.926a4.527,4.527,0,0,1-3.144,1.638q-7.059,1.364-14.11,2.771A12.813,12.813,0,0,1,1301.976,1343.612Zm-.559-3.525a4.217,4.217,0,0,0,.41,1.318,10.107,10.107,0,0,0,2.028-.3q7.058-1.4,14.122-2.773c.976-.189,1.535-.408,1.709-.675a2.019,2.019,0,0,0,.094-1.166Z" transform="translate(-1298.813 -1333.895)"/>
      </g>
      <g id="Group_1775" data-name="Group 1775" transform="translate(47.214 124.591)">
        <path id="Path_786" data-name="Path 786" d="M1282.879,1410.513c0-1.042-.019-1.881,0-2.718.275-10.407.6-20.815.786-31.224.028-1.64.7-2.047,2.063-2.334q23.507-4.924,47-9.925,28.661-6.089,57.317-12.212c3.132-.667,6.271-1.306,9.391-2.026,1.342-.31,1.831.066,1.818,1.474-.1,10.2-.132,20.4-.208,30.593-.015,1.99-.479,2.523-2.433,2.953q-34.793,7.661-69.588,15.314-21.891,4.824-43.776,9.681C1284.492,1410.256,1283.72,1410.364,1282.879,1410.513Z" transform="translate(-1281.763 -1348.865)" fill="#8973a4"/>
        <path id="Path_787" data-name="Path 787" d="M1281.379,1411.442l0-2.292c0-.634-.008-1.2.007-1.776q.111-4.194.23-8.388c.208-7.482.424-15.219.556-22.827.042-2.454,1.439-3.084,2.944-3.4,13.98-2.929,28.914-6.083,47-9.924q20.595-4.377,41.185-8.773l18.589-3.959c2.272-.478,4.62-.973,6.915-1.5a2.3,2.3,0,0,1,3.176,2.563q-.086,9.11-.129,18.219-.036,6.187-.08,12.375c-.018,2.5-.82,3.48-3.3,4.027l-29.154,6.414q-20.218,4.446-40.433,8.9-12.914,2.847-25.823,5.709-8.976,1.989-17.953,3.973c-.534.118-1.072.207-1.635.3-.255.043-.516.085-.783.133Zm118.35-60.749a2.571,2.571,0,0,0-.434.07c-2.314.534-4.675,1.031-6.956,1.512l-18.583,3.958q-20.593,4.392-41.186,8.773c-18.085,3.843-33.02,7-47,9.925-1.067.224-1.166.33-1.182,1.268-.133,7.621-.348,15.363-.557,22.851q-.117,4.192-.23,8.384c-.011.448-.011.9-.008,1.379.349-.059.691-.121,1.03-.2q8.976-1.983,17.952-3.972,12.911-2.86,25.823-5.709,20.217-4.456,40.434-8.9l29.155-6.413c1.465-.323,1.552-.429,1.562-1.88q.046-6.185.081-12.371.055-9.113.128-18.225A2.714,2.714,0,0,0,1399.729,1350.693Z" transform="translate(-1281.371 -1348.473)"/>
      </g>
      <g id="Group_1776" data-name="Group 1776" transform="translate(3.726 94.896)">
        <path id="Path_788" data-name="Path 788" d="M1263.37,1396.716c-.314-.329-.658-.634-.936-.99q-18.148-23.209-36.3-46.414a9.531,9.531,0,0,1-2.125-6.348c.155-9.553.176-19.108.255-28.662.006-.665.079-1.329.152-2.488.675.71,1.048,1.039,1.345,1.427q18.71,24.39,37.427,48.777a6.424,6.424,0,0,1,1.477,4.495c-.347,9.227-.5,18.461-.731,27.692-.019.783-.106,1.566-.16,2.349Z" transform="translate(-1222.904 -1309.203)" fill="#8973a4"/>
        <path id="Path_789" data-name="Path 789" d="M1262.692,1397.1l-.516-.54c-.093-.1-.19-.194-.285-.289a8.2,8.2,0,0,1-.722-.783l-11.406-14.6q-12.435-15.917-24.888-31.818a10.592,10.592,0,0,1-2.361-7.05c.109-6.67.152-13.454.194-20.015q.028-4.32.061-8.639c0-.45.036-.9.081-1.493.022-.3.048-.649.073-1.054l.161-2.54,1.75,1.846c.239.252.439.455.61.629a9.383,9.383,0,0,1,.81.887l11.313,14.753q13.046,17.018,26.113,34.021a7.483,7.483,0,0,1,1.706,5.213c-.249,6.6-.4,13.318-.547,19.816q-.089,3.932-.183,7.862c-.015.555-.059,1.109-.105,1.662-.02.246-.042.492-.058.737l-.049.7Zm-37.708-83.468q-.035,4.2-.059,8.391c-.042,6.567-.086,13.357-.194,20.038a8.369,8.369,0,0,0,1.89,5.645q12.461,15.9,24.889,31.821l10.922,13.976c0-.083.006-.166.009-.247q.1-3.929.183-7.858c.147-6.5.3-13.232.548-19.849a5.3,5.3,0,0,0-1.248-3.778q-13.076-17-26.115-34.024Z" transform="translate(-1222.512 -1308.281)"/>
      </g>
      <g id="Group_1777" data-name="Group 1777" transform="translate(34.476 3.74)">
        <path id="Path_790" data-name="Path 790" d="M1386.957,1192.621c-.617.115-1.23.261-1.852.342q-29.754,3.884-59.511,7.759c-15.393,2.012-30.782,4.054-46.179,6.033a4.035,4.035,0,0,1-2.4-.444c-2.846-1.684-5.615-3.5-8.4-5.278a12.881,12.881,0,0,1-1.185-1.027c.98-.191,1.623-.358,2.276-.437q30.423-3.712,60.846-7.412,22.956-2.813,45.9-5.706a4.523,4.523,0,0,1,3.428.851c1.956,1.39,4.006,2.646,6.008,3.972.422.279.806.617,1.207.925Z" transform="translate(-1264.99 -1185.295)" fill="#8973a4"/>
        <path id="Path_791" data-name="Path 791" d="M1278.062,1207.5a5.007,5.007,0,0,1-2.476-.629c-2.3-1.362-4.58-2.826-6.786-4.242l-1.649-1.057a5.7,5.7,0,0,1-.82-.675c-.14-.129-.3-.278-.5-.453l-1.7-1.49,2.219-.431c.335-.065.63-.127.9-.184.526-.111.98-.207,1.453-.266q12.51-1.526,25.017-3.045,17.915-2.179,35.829-4.367c15.571-1.907,31.012-3.827,45.895-5.705a5.647,5.647,0,0,1,4.209,1.047c1.27.9,2.613,1.769,3.911,2.607q1.036.667,2.066,1.344c.33.219.623.455.908.684.12.1.242.194.363.289l.605.466-.539,1.8-.666.124c-.191.035-.381.075-.572.113-.446.09-.892.18-1.341.239q-13.288,1.735-26.576,3.464-16.469,2.146-32.934,4.294-7.4.969-14.8,1.94-15.692,2.061-31.387,4.094A4.914,4.914,0,0,1,1278.062,1207.5Zm-8.871-7.252.806.516c2.189,1.405,4.452,2.858,6.718,4.2a2.932,2.932,0,0,0,1.7.3q15.694-2.018,31.38-4.093,7.4-.972,14.8-1.94,16.467-2.154,32.935-4.3l26.408-3.442c-.522-.343-1.047-.68-1.571-1.018-1.319-.851-2.684-1.731-3.994-2.663a3.412,3.412,0,0,0-2.647-.654c-14.885,1.878-30.329,3.8-45.9,5.706q-17.915,2.193-35.832,4.367Q1281.588,1198.739,1269.191,1200.251Z" transform="translate(-1264.13 -1184.903)"/>
      </g>
      <path id="Path_792" data-name="Path 792" d="M1239.9,1217l-14.345,62.374-4.433-7.388,13.3-56.152Z" transform="translate(-1218.421 -1189.24)"/>
      <path id="Path_793" data-name="Path 793" d="M1373.3,1275.332l1.965.739,52.458,44.33-5.172,2.216-30.4-24.34-23.531-19.99Z" transform="translate(-1256.943 -1204.779)"/>
      <path id="Path_794" data-name="Path 794" d="M1360.617,1315.982l2.955-36.2,6.327-1.566-2.411,40.321Z" transform="translate(-1254.853 -1205.532)"/>
      <path id="Path_795" data-name="Path 795" d="M1328.26,1281.321l-100.809,17.418-1.812-6.905,111.548-18.5Z" transform="translate(-1219.602 -1204.258)"/>
      <path id="Path_796" data-name="Path 796" d="M1339.051,1333.582l-79.734,14.915-3.678-6.619,84.211-15.546Z" transform="translate(-1227.437 -1218.1)"/>
    </g>
    <path id="Path_797" data-name="Path 797" d="M1100.72,1172.943c.489-1.5,1.262-4.454,2.4-7.256,2.093-5.137,2.032-10.045-1.543-14.408a42.5,42.5,0,0,0-6.173-5.549c-6.894-5.645-7.015-15.251-.21-20.942,1.564-1.308,3.166-2.573,4.706-3.91a13.176,13.176,0,0,0,3.709-14.843c-.737-1.961-1.552-3.9-2.192-5.891A13.156,13.156,0,0,1,1111.9,1082.8c2.007-.356,4.027-.649,6.033-1.012a13.213,13.213,0,0,0,10.5-10.139c.426-1.992.728-4.014,1.007-6.033a13.229,13.229,0,0,1,17.907-10.853c1.705.612,3.382,1.3,5.08,1.942a13.2,13.2,0,0,0,15.583-4.162c1.15-1.4,2.282-2.818,3.456-4.2,5.6-6.593,14.726-6.7,20.472-.218,1.277,1.44,2.44,2.98,3.672,4.461a13.247,13.247,0,0,0,15.452,4.161,53.879,53.879,0,0,1,7.542-2.562,13.055,13.055,0,0,1,15.515,11.142c.3,2.017.589,4.039.991,6.036a13.118,13.118,0,0,0,10.774,10.446c2.064.357,4.138.663,6.195,1.058a13.169,13.169,0,0,1,10.092,17.319c-.7,2.094-1.583,4.125-2.308,6.212a13.14,13.14,0,0,0,4,14.62c1.6,1.359,3.244,2.655,4.845,4.008a13.25,13.25,0,0,1-.033,20.287c-1.6,1.351-3.267,2.63-4.845,4.009a13.2,13.2,0,0,0-3.785,15.117c.739,1.962,1.531,3.906,2.176,5.9a13.149,13.149,0,0,1-10.348,17.156c-1.9.339-3.8.635-5.7.963a13.29,13.29,0,0,0-11.255,11.378c-.281,1.734-.541,3.47-.819,5.2a13.186,13.186,0,0,1-17.684,10.572c-1.979-.689-3.911-1.509-5.888-2.2a13.107,13.107,0,0,0-14.62,3.979c-1.281,1.514-2.508,3.073-3.779,4.594a13.115,13.115,0,0,1-20.244.469c-1.372-1.5-2.6-3.143-3.9-4.714a13.211,13.211,0,0,0-15.6-4.1c-1.694.646-3.374,1.332-5.084,1.931a13.2,13.2,0,0,1-17.837-10.745c-.261-1.737-.519-3.474-.817-5.2a13.225,13.225,0,0,0-11.1-11.13c-2.009-.347-4.025-.656-6.03-1.029C1105.193,1186.284,1100.7,1180.866,1100.72,1172.943Z" transform="translate(0 0)" fill="#e4ab43"/>
    <g id="Group_1779" data-name="Group 1779" transform="translate(1111.864 1065.662)">
      <path id="Path_798" data-name="Path 798" d="M1188.905,1212.21q-2.118,0-4.257-.13a69.325,69.325,0,1,1,73.409-64.984h0A69.417,69.417,0,0,1,1188.905,1212.21Zm-.086-132.572a63.27,63.27,0,1,0,3.884.119C1191.4,1079.677,1190.1,1079.638,1188.819,1079.638Z" transform="translate(-1119.535 -1073.555)" fill="#fff"/>
    </g>
    <text id="FREE" transform="translate(1178.531 1137.965)" fill="#fff" font-size="50" font-family="BebasNeue-Regular, Bebas Neue"><tspan x="-36.825" y="0">FREE</tspan></text>
    <text id="Post_pack" data-name="Post pack" transform="translate(1178.531 1167.965)" fill="#fff" font-size="27" font-family="BebasNeue-Regular, Bebas Neue"><tspan x="-43.592" y="0">Post pack</tspan></text>
  </g>
</svg>
