<svg xmlns="http://www.w3.org/2000/svg" width="168.743" height="178" viewBox="0 0 168.743 178">
  <g id="Group_2817" data-name="Group 2817" transform="translate(-64.447 -76.012)">
    <g id="Group_2812" data-name="Group 2812">
      <path id="Path_889" data-name="Path 889" d="M227.791,179.26a71.239,71.239,0,1,1-71.239-71.239,71.239,71.239,0,0,1,71.239,71.239" fill="#4fc4a8"/>
      <path id="Path_890" data-name="Path 890" d="M158.047,247.377a68.507,68.507,0,1,1,68.506-68.507,68.508,68.508,0,0,1-68.506,68.507m0-143.65A75.142,75.142,0,1,0,233.19,178.87a75.143,75.143,0,0,0-75.143-75.143" fill="#1d1d1b"/>
    </g>
    <rect id="Rectangle_896" data-name="Rectangle 896" width="56.731" height="10.8" transform="translate(128.187 153.574)"/>
    <rect id="Rectangle_897" data-name="Rectangle 897" width="56.731" height="10.8" transform="translate(128.187 153.574)" fill="none" stroke="#000" stroke-miterlimit="10" stroke-width="3.513"/>
    <path id="Path_891" data-name="Path 891" d="M128.187,167.886v59.819h56.731V167.886Z"/>
    <path id="Path_892" data-name="Path 892" d="M128.187,167.886v59.819h56.731V167.886Z" fill="none" stroke="#000" stroke-miterlimit="10" stroke-width="3.513"/>
    <rect id="Rectangle_898" data-name="Rectangle 898" width="43.03" height="45.474" transform="translate(135.037 119.555)" fill="#4fc4a8"/>
    <rect id="Rectangle_899" data-name="Rectangle 899" width="43.03" height="45.474" transform="translate(135.037 119.555)" fill="none" stroke="#000" stroke-miterlimit="10" stroke-width="2.2"/>
    <g id="Group_2813" data-name="Group 2813">
      <path id="Path_893" data-name="Path 893" d="M165.2,140.811a7.571,7.571,0,1,0-7.561-7.574,7.571,7.571,0,0,0,7.561,7.574m-8.47-3.626c.051-.157.133-.465.251-.758a1.387,1.387,0,0,0-.161-1.5,4.568,4.568,0,0,0-.644-.579,1.382,1.382,0,0,1-.022-2.186c.163-.136.33-.268.491-.407a1.375,1.375,0,0,0,.387-1.55c-.077-.205-.161-.407-.228-.615a1.372,1.372,0,0,1,1.094-1.81c.21-.037.42-.067.63-.106a1.379,1.379,0,0,0,1.1-1.058c.044-.208.076-.419.1-.63a1.381,1.381,0,0,1,1.87-1.132c.178.063.353.136.53.2a1.378,1.378,0,0,0,1.626-.435c.121-.146.239-.295.361-.438a1.372,1.372,0,0,1,2.137-.024c.133.151.255.312.383.466a1.383,1.383,0,0,0,1.613.435,5.659,5.659,0,0,1,.787-.268,1.363,1.363,0,0,1,1.62,1.163c.031.211.061.422.1.63a1.369,1.369,0,0,0,1.125,1.091c.215.037.432.069.646.11a1.374,1.374,0,0,1,1.053,1.808c-.072.218-.165.431-.241.649a1.371,1.371,0,0,0,.418,1.525c.167.142.339.277.506.418a1.383,1.383,0,0,1,0,2.118c-.167.141-.341.274-.506.419a1.378,1.378,0,0,0-.394,1.578c.077.2.16.407.226.615a1.372,1.372,0,0,1-1.079,1.791c-.2.035-.4.066-.6.1a1.387,1.387,0,0,0-1.175,1.188c-.03.181-.056.362-.085.543a1.377,1.377,0,0,1-1.846,1.1c-.207-.071-.408-.157-.615-.23a1.368,1.368,0,0,0-1.526.416c-.134.158-.261.32-.394.479a1.369,1.369,0,0,1-2.113.049c-.143-.157-.272-.328-.407-.492a1.377,1.377,0,0,0-1.628-.427c-.178.067-.353.138-.531.2a1.378,1.378,0,0,1-1.862-1.121c-.028-.181-.054-.363-.086-.544a1.382,1.382,0,0,0-1.158-1.162c-.21-.035-.42-.068-.629-.107a1.424,1.424,0,0,1-1.128-1.515" fill="#fff"/>
      <path id="Path_894" data-name="Path 894" d="M139.979,150.379h32.464V147.85c-3.883-.007-28.574-.018-32.464-.035Z" fill="#1d1d1b"/>
      <path id="Path_895" data-name="Path 895" d="M139.979,155.025h32.464v-2.53c-3.883-.007-28.574-.018-32.464-.035Z" fill="#1d1d1b"/>
      <path id="Path_896" data-name="Path 896" d="M139.979,159.67h32.464v-2.529c-3.883-.008-28.574-.018-32.464-.035Z" fill="#1d1d1b"/>
    </g>
    <path id="Path_897" data-name="Path 897" d="M129.679,220.309v6.216l27.764-1.9,25.784,1.9v-15.8l-5.1-4.958h5.1v-39H129.679v46.911h2.937Z" fill="#8a73a3"/>
    <g id="Group_2814" data-name="Group 2814">
      <path id="Path_898" data-name="Path 898" d="M70.024,144.49c.259-.794.667-2.354,1.27-3.833,1.105-2.714,1.074-5.308-.815-7.613a22.485,22.485,0,0,0-3.262-2.931,7,7,0,0,1-.111-11.065c.826-.691,1.672-1.36,2.486-2.066a6.961,6.961,0,0,0,1.96-7.842c-.389-1.036-.82-2.06-1.158-3.112a6.95,6.95,0,0,1,5.539-9.163c1.061-.188,2.127-.344,3.187-.536a6.98,6.98,0,0,0,5.549-5.356c.225-1.052.384-2.121.531-3.187a6.989,6.989,0,0,1,9.461-5.734c.9.324,1.788.69,2.684,1.026a6.975,6.975,0,0,0,8.233-2.2c.607-.74,1.2-1.489,1.826-2.219a6.941,6.941,0,0,1,10.815-.115c.675.761,1.289,1.575,1.94,2.357a7,7,0,0,0,8.164,2.2,28.551,28.551,0,0,1,3.984-1.354,6.9,6.9,0,0,1,8.2,5.887c.159,1.066.312,2.133.524,3.189a6.932,6.932,0,0,0,5.693,5.519c1.09.188,2.186.35,3.272.559a6.957,6.957,0,0,1,5.332,9.15c-.37,1.106-.836,2.18-1.219,3.282a6.941,6.941,0,0,0,2.113,7.724c.844.718,1.714,1.4,2.56,2.118a7,7,0,0,1-.018,10.718c-.847.714-1.726,1.389-2.56,2.117a6.975,6.975,0,0,0-2,7.987c.39,1.036.808,2.064,1.149,3.117a6.947,6.947,0,0,1-5.467,9.064c-1,.179-2.007.335-3.01.508a7.022,7.022,0,0,0-5.946,6.011c-.149.917-.286,1.834-.433,2.751a6.968,6.968,0,0,1-9.344,5.584c-1.045-.363-2.066-.8-3.11-1.163a6.926,6.926,0,0,0-7.724,2.1c-.677.8-1.326,1.623-2,2.427a6.928,6.928,0,0,1-10.695.248c-.726-.795-1.373-1.661-2.06-2.491a6.983,6.983,0,0,0-8.244-2.164c-.894.342-1.782.7-2.685,1.02a6.974,6.974,0,0,1-9.425-5.677c-.137-.917-.274-1.835-.431-2.748a6.988,6.988,0,0,0-5.863-5.881c-1.061-.184-2.127-.347-3.186-.543-3.343-.623-5.717-3.486-5.707-7.672" fill="#e3ab42"/>
      <path id="Path_899" data-name="Path 899" d="M147.495,126.566a35.02,35.02,0,1,1-32.828-37.083,35.022,35.022,0,0,1,32.828,37.083" fill="#e3ab42"/>
      <path id="Path_900" data-name="Path 900" d="M147.495,126.566a35.02,35.02,0,1,1-32.828-37.083A35.022,35.022,0,0,1,147.495,126.566Z" fill="none" stroke="#fff" stroke-miterlimit="10" stroke-width="3.213"/>
    </g>
    <g id="Group_2815" data-name="Group 2815">
      <path id="Path_901" data-name="Path 901" d="M94.214,107.732h7.874v2.7h-4.9v5.277h3.842v2.705H97.19v8.252H94.214Z" fill="#fff"/>
      <path id="Path_902" data-name="Path 902" d="M103.521,107.732h4.41a3.8,3.8,0,0,1,4.41,4.356v1.163q0,2.951-1.948,3.734v.054a2.323,2.323,0,0,1,1.529,1.326,6.684,6.684,0,0,1,.446,2.678v3.328a12.753,12.753,0,0,0,.054,1.312,3.274,3.274,0,0,0,.271.988h-3.03a4.369,4.369,0,0,1-.217-.866,13.063,13.063,0,0,1-.054-1.461v-3.463a2.944,2.944,0,0,0-.419-1.813,1.777,1.777,0,0,0-1.448-.514H106.5v8.117h-2.976Zm4.058,8.117a1.786,1.786,0,0,0,1.34-.461,2.173,2.173,0,0,0,.446-1.541v-1.462A2.409,2.409,0,0,0,109,110.9a1.382,1.382,0,0,0-1.15-.46H106.5v5.412Z" fill="#fff"/>
      <path id="Path_903" data-name="Path 903" d="M114.425,107.732h8.116v2.7H117.4v5.005h4.085v2.706H117.4v5.817h5.14v2.706h-8.116Z" fill="#fff"/>
      <path id="Path_904" data-name="Path 904" d="M124.246,107.732h8.116v2.7h-5.14v5.005h4.085v2.706h-4.085v5.817h5.14v2.706h-8.116Z" fill="#fff"/>
    </g>
    <rect id="Rectangle_900" data-name="Rectangle 900" width="22.817" height="14.977" transform="translate(145.304 176.778)" fill="#fff"/>
    <rect id="Rectangle_901" data-name="Rectangle 901" width="22.817" height="14.977" transform="translate(145.304 176.778)" fill="none" stroke="#000" stroke-miterlimit="10" stroke-width="2.231"/>
    <g id="Group_2816" data-name="Group 2816">
      <path id="Path_905" data-name="Path 905" d="M89.845,130.95H88.306v-1.339h4.551v1.339H91.318v8.032H89.845Z" fill="#fff"/>
      <path id="Path_906" data-name="Path 906" d="M93.567,129.611h2.182a1.883,1.883,0,0,1,2.182,2.156v.575q0,1.46-.964,1.848v.027a1.15,1.15,0,0,1,.756.655,3.29,3.29,0,0,1,.221,1.326v1.646a6.22,6.22,0,0,0,.027.649,1.606,1.606,0,0,0,.134.489h-1.5a2.106,2.106,0,0,1-.108-.429,6.434,6.434,0,0,1-.026-.722v-1.714a1.452,1.452,0,0,0-.208-.9.876.876,0,0,0-.716-.255h-.509v4.016H93.567Zm2.008,4.016a.881.881,0,0,0,.662-.227,1.073,1.073,0,0,0,.221-.764v-.722a1.184,1.184,0,0,0-.181-.736.68.68,0,0,0-.568-.228h-.67v2.677Z" fill="#fff"/>
      <path id="Path_907" data-name="Path 907" d="M100.1,129.611h1.994l1.526,9.371h-1.472l-.268-1.86v.027h-1.674l-.267,1.833H98.573Zm1.606,6.265-.656-4.631h-.027l-.642,4.631Z" fill="#fff"/>
      <path id="Path_908" data-name="Path 908" d="M104.33,129.611h2.248a2.141,2.141,0,0,1,1.647.59,2.445,2.445,0,0,1,.549,1.726v4.74a2.443,2.443,0,0,1-.549,1.726,2.144,2.144,0,0,1-1.647.589H104.33Zm2.222,8.033a.709.709,0,0,0,.555-.215,1.016,1.016,0,0,0,.194-.7V131.86a1.019,1.019,0,0,0-.194-.7.712.712,0,0,0-.555-.214h-.75v6.694Z" fill="#fff"/>
      <path id="Path_909" data-name="Path 909" d="M109.765,129.611h4.016v1.339h-2.544v2.477h2.021v1.339h-2.021v2.878h2.544v1.338h-4.016Z" fill="#fff"/>
      <path id="Path_910" data-name="Path 910" d="M116.766,129.611h2.168a2.141,2.141,0,0,1,1.647.59,2.445,2.445,0,0,1,.549,1.726v.924a2.446,2.446,0,0,1-.549,1.727,2.144,2.144,0,0,1-1.647.589h-.7v3.815h-1.472Zm2.168,4.217a.688.688,0,0,0,.542-.2,1.013,1.013,0,0,0,.181-.682v-1.111a1.019,1.019,0,0,0-.181-.684.694.694,0,0,0-.542-.2h-.7v2.878Z" fill="#fff"/>
      <path id="Path_911" data-name="Path 911" d="M122.6,129.611H124.6l1.526,9.371h-1.472l-.268-1.86v.027h-1.674l-.267,1.833h-1.365Zm1.606,6.265-.656-4.631h-.027l-.642,4.631Z" fill="#fff"/>
      <path id="Path_912" data-name="Path 912" d="M127.281,138.513a2.41,2.41,0,0,1-.556-1.7V131.78a2.413,2.413,0,0,1,.556-1.7,2.459,2.459,0,0,1,3.226,0,2.418,2.418,0,0,1,.556,1.7v.991h-1.392v-1.085q0-.87-.737-.87t-.736.87v5.235q0,.856.736.857t.737-.857v-1.433h1.392v1.326a2.415,2.415,0,0,1-.556,1.7,2.459,2.459,0,0,1-3.226,0Z" fill="#fff"/>
      <path id="Path_913" data-name="Path 913" d="M131.947,129.611h1.472v3.949l1.874-3.949h1.473l-1.754,3.441,1.78,5.93h-1.539l-1.245-4.176L133.419,136v2.985h-1.472Z" fill="#fff"/>
    </g>
  </g>
</svg>
