<svg xmlns="http://www.w3.org/2000/svg" width="123.239" height="130" viewBox="0 0 123.239 130">
  <g id="Group_1767" data-name="Group 1767" transform="translate(-1090.164 -1043.333)">
    <circle id="Ellipse_82" data-name="Ellipse 82" cx="52.029" cy="52.029" r="52.029" transform="translate(1105.402 1066.71)" fill="#4ec5a8"/>
    <path id="Path_769" data-name="Path 769" d="M1192.328,1114.332a54.879,54.879,0,1,0,54.88,54.88A54.879,54.879,0,0,0,1192.328,1114.332Zm0,104.912a50.033,50.033,0,1,1,50.033-50.033A50.033,50.033,0,0,1,1192.328,1219.245Z" transform="translate(-33.804 -50.758)"/>
    <g id="Group_1778" data-name="Group 1778" transform="translate(1126.457 1082.25)">
      <g id="Group_1767-2" data-name="Group 1767" transform="translate(0 25.86)">
        <path id="Path_770" data-name="Path 770" d="M1270.271,1279.322c-.839,1.153-.842,1.157,0,1.869q4.085,3.447,8.174,6.89c1.354,1.142,2.7,2.3,4.068,3.419a1.123,1.123,0,0,1,.312,1.232c-.032.162-.333.342-.539.386q-6.038,1.306-12.088,2.562a1.156,1.156,0,0,1-.827-.22c-.75-.577-1.456-1.212-2.181-1.822-.766-.645-1.536-1.287-2.31-1.935-.676,1.022-.639,1.322.19,2.017.741.623,1.476,1.254,2.225,1.867a3.637,3.637,0,0,0,.591.326l-.167.258c-.268.075-.533.165-.8.223q-14.626,3.105-29.251,6.211a.822.822,0,0,1-.956-.33c-1.528-2.021-3.079-4.024-4.62-6.036-.131-.172-.236-.365-.425-.661l6.291-1.265c-.2-1.3-.3-1.375-1.425-1.154-1.758.346-3.517.688-5.274,1.037a.84.84,0,0,1-.972-.3q-4.343-5.7-8.717-11.383c-.118-.154-.206-.33-.379-.611l8.795-1.483c-.671-1.216-.826-1.295-2.007-1.1q-3.077.514-6.156,1.019c-.289.047-.586.049-.951.078.054-.3.081-.5.127-.7.44-1.843.885-3.685,1.324-5.528.262-1.1.106-1.363-1.025-1.734-.051.177-.108.35-.151.528-.513,2.122-1.032,4.243-1.531,6.369a12.126,12.126,0,0,0-.481,2.474c-.083,4.408-.033,8.819-.161,13.225a6.751,6.751,0,0,0,1.621,4.63q7.289,9.2,14.457,18.5a2.566,2.566,0,0,0,2.892,1.066c6.087-1.373,12.184-2.7,18.278-4.043q12.972-2.858,25.944-5.717a2.22,2.22,0,0,0,2.038-2.5c.034-5.027.058-10.054.1-15.081a1.5,1.5,0,0,0-.592-1.271q-5.564-4.664-11.1-9.363C1271.844,1280.633,1271.071,1279.991,1270.271,1279.322Z" transform="translate(-1218.541 -1271.916)" fill="#fff"/>
        <path id="Path_771" data-name="Path 771" d="M1236.072,1318.416a2.956,2.956,0,0,1-2.434-1.328c-4.283-5.531-9.35-12.056-14.453-18.5a7.129,7.129,0,0,1-1.714-4.908c.074-2.526.089-5.1.1-7.587.011-1.846.022-3.755.057-5.634a8.715,8.715,0,0,1,.35-2c.049-.19.1-.379.142-.568.381-1.626.775-3.25,1.169-4.873l.363-1.5c.031-.129.069-.255.107-.383l.171-.589.421.138c1.341.44,1.622.921,1.308,2.24q-.341,1.431-.685,2.861-.32,1.333-.639,2.666c-.01.045-.02.09-.029.136.131-.009.252-.02.368-.039q3.079-.5,6.155-1.018c1.375-.23,1.7-.058,2.452,1.313l.291.528-8.766,1.478.025.034,2.638,3.441q3.044,3.968,6.079,7.943c.128.169.216.207.548.141q1.594-.317,3.189-.627l2.086-.409c.6-.119,1.023-.179,1.365.061.359.252.453.714.565,1.447l.062.4-6.085,1.224c.025.037.05.072.074.1q.763,1,1.529,1.992c1.017,1.324,2.069,2.692,3.092,4.047.14.184.231.232.526.169q9.883-2.1,19.769-4.2l9.482-2.013c.069-.015.138-.032.208-.051l-.009-.007c-.511-.418-1.015-.844-1.519-1.271q-.355-.3-.711-.6c-1-.838-1.057-1.393-.271-2.581l.264-.4,1.163.974q.76.636,1.515,1.27c.22.185.438.372.656.56.489.42,1,.855,1.511,1.251a.757.757,0,0,0,.479.14c3.589-.74,7.429-1.554,12.084-2.561a.638.638,0,0,0,.222-.112c.075-.414.032-.588-.174-.757-.975-.8-1.95-1.624-2.893-2.424q-.59-.5-1.181-1l-2.8-2.362q-2.686-2.263-5.371-4.528c-1.07-.9-1-1.173-.074-2.446l.269-.37,1.1.918c.538.449,1.067.89,1.593,1.334l3.034,2.563c2.64,2.232,5.371,4.54,8.065,6.8a1.914,1.914,0,0,1,.745,1.6q-.041,4.811-.067,9.622-.016,2.729-.035,5.458a2.636,2.636,0,0,1-2.374,2.917q-8.486,1.872-16.973,3.74l-8.971,1.976-4.64,1.02c-4.471.982-9.095,2-13.636,3.022A4.04,4.04,0,0,1,1236.072,1318.416Zm-15.565-46.767q-.01.037-.019.074l-.363,1.5c-.393,1.621-.786,3.243-1.167,4.867-.046.195-.1.39-.146.586a7.978,7.978,0,0,0-.324,1.8c-.035,1.873-.046,3.78-.057,5.623-.015,2.493-.03,5.07-.1,7.607a6.327,6.327,0,0,0,1.529,4.352c5.106,6.448,10.175,12.975,14.46,18.509a2.156,2.156,0,0,0,2.459.91c4.544-1.024,9.168-2.041,13.641-3.023l4.64-1.02,8.971-1.976q8.487-1.869,16.973-3.74a1.806,1.806,0,0,0,1.7-2.087q.019-2.728.035-5.457.029-4.812.066-9.624a1.072,1.072,0,0,0-.439-.94c-2.7-2.26-5.427-4.568-8.068-6.8l-3.034-2.563c-.525-.443-1.052-.883-1.589-1.331l-.4-.331a1.772,1.772,0,0,0-.28.479,3.7,3.7,0,0,0,.481.441q2.685,2.265,5.371,4.528l2.8,2.362q.592.5,1.183,1c.94.8,1.912,1.622,2.88,2.414a1.551,1.551,0,0,1,.461,1.646c-.081.406-.576.658-.868.721-4.658,1.007-8.5,1.822-12.092,2.562a1.569,1.569,0,0,1-1.174-.3c-.533-.41-1.048-.853-1.546-1.281-.216-.185-.432-.371-.649-.554q-.754-.635-1.513-1.268l-.421-.352c-.286.5-.156.612.364,1.048q.357.3.713.6c.5.423,1,.847,1.508,1.261a1.658,1.658,0,0,0,.312.176c.072.034.143.068.212.106l.408.221-.508.781-.156.043c-.084.023-.167.048-.251.073-.186.056-.379.113-.58.156l-9.483,2.012q-9.885,2.1-19.768,4.2a1.242,1.242,0,0,1-1.386-.49c-1.022-1.352-2.072-2.719-3.089-4.041q-.765-1-1.529-1.993a4.912,4.912,0,0,1-.278-.422c-.049-.08-.1-.169-.168-.27l-.336-.526,6.5-1.307a1.334,1.334,0,0,0-.145-.475,2.6,2.6,0,0,0-.707.079l-2.087.41q-1.593.312-3.187.627a1.259,1.259,0,0,1-1.4-.462q-3.029-3.977-6.077-7.941l-2.639-3.441a3.771,3.771,0,0,1-.252-.393c-.044-.074-.092-.157-.151-.253l-.333-.54,8.817-1.487c-.32-.513-.483-.486-1.262-.356q-3.079.513-6.158,1.019a6.344,6.344,0,0,1-.653.061c-.105.006-.216.012-.333.022l-.553.043.1-.546c.019-.1.034-.192.048-.275.028-.169.052-.308.085-.445q.319-1.334.639-2.668.343-1.43.685-2.86C1221,1272.032,1221.039,1271.863,1220.507,1271.648Z" transform="translate(-1217.468 -1270.55)"/>
      </g>
      <g id="Group_1768" data-name="Group 1768" transform="translate(3.59 0)">
        <path id="Path_772" data-name="Path 772" d="M1232.673,1203.185c.053-.156.11-.287.143-.424q.749-3.093,1.492-6.187c.487-2.023,1.023-4.035,1.444-6.072.362-1.752,3.07-2.765,4.416-1.725a52.818,52.818,0,0,0,4.894,3.121,1.635,1.635,0,0,0,.978.237q8.459-1.073,16.912-2.195,9.1-1.2,18.194-2.4c.31-.041.625-.035,1.009-.054-.088.239-.124.376-.186.5q-5.043,9.915-10.08,19.832a1.182,1.182,0,0,1-.98.7c-2.015.316-4.024.659-6.036.993-.359.06-.717.128-1.121.2a5.92,5.92,0,0,1,.094.67c.011.6.265.733.859.615,1.515-.3,3.046-.511,4.568-.779.469-.083.626.042.593.536-.265,3.967-.522,7.935-.749,11.9-.033.577-.271.771-.8.86-1.258.214-2.51.471-3.759.738a.723.723,0,0,0-.493.35,7.318,7.318,0,0,0-.152,1.225c1.843-.367,3.575-.709,5.3-1.062a.424.424,0,0,0,.286-.2,23.438,23.438,0,0,0,1.078-3.4,38.131,38.131,0,0,0,.295-4.127c.137-2.2.268-4.4.421-6.6.014-.2.12-.488.264-.551a.752.752,0,0,1,.591.169c.444.334.851.715,1.278,1.071.468.39.943.772,1.454,1.191.15-.228.238-.388.351-.529.385-.482.307-.84-.2-1.2-.568-.405-1.064-.912-1.619-1.338a.631.631,0,0,1-.2-.936q5.243-10.264,10.45-20.545a1.184,1.184,0,0,1,1.035-.718c1.82-.212,3.64-.444,5.45-.723a1.057,1.057,0,0,0,.727-.591.968.968,0,0,0-.393-.795q-2.527-1.723-5.115-3.355a1.817,1.817,0,0,0-1.1-.244q-8.469.993-16.931,2.039-8.77,1.074-17.538,2.167c-3.945.487-7.892.952-11.834,1.463a4.131,4.131,0,0,0-3.6,3.193q-1.353,5.585-2.676,11.177c-.279,1.173-.271,1.176.794,1.748A1.148,1.148,0,0,0,1232.673,1203.185Z" transform="translate(-1231.111 -1180.912)" fill="#fff"/>
        <path id="Path_773" data-name="Path 773" d="M1262.377,1225.3l.062-.578c.015-.139.025-.27.034-.4a4.268,4.268,0,0,1,.133-.906,1.11,1.11,0,0,1,.814-.647c1.118-.239,2.441-.514,3.776-.742.37-.063.423-.119.443-.463.242-4.239.515-8.4.749-11.908,0-.041,0-.073,0-.1-.025,0-.057.006-.1.014-.593.1-1.188.2-1.782.3-.913.147-1.858.3-2.776.481a1.216,1.216,0,0,1-1.026-.143,1.112,1.112,0,0,1-.344-.884,2.328,2.328,0,0,0-.046-.354c-.014-.081-.029-.167-.043-.262l-.06-.41.789-.143c.257-.047.5-.091.744-.132l1.414-.236c1.515-.253,3.082-.515,4.626-.757a.762.762,0,0,0,.665-.475q3.737-7.381,7.495-14.751l2.512-4.937c-.109.006-.212.013-.312.026q-4.553.6-9.106,1.2t-9.088,1.2c-5.717.751-11.312,1.485-16.914,2.195a2.045,2.045,0,0,1-1.255-.3c-.392-.239-.788-.474-1.184-.709a36.893,36.893,0,0,1-3.75-2.438,2.258,2.258,0,0,0-2.123-.138,2.4,2.4,0,0,0-1.612,1.611c-.3,1.433-.654,2.874-1,4.267q-.226.908-.447,1.818l-.124.517q-.683,2.836-1.367,5.672a2.843,2.843,0,0,1-.1.322c-.016.044-.033.09-.05.139l-.126.37-.38-.092-.089-.02a.679.679,0,0,1-.206-.068c-1.235-.664-1.329-.871-1.007-2.224.87-3.657,1.77-7.438,2.676-11.179a4.532,4.532,0,0,1,3.964-3.516c2.667-.346,5.38-.676,8-.995q1.916-.233,3.832-.468l6.688-.828q5.425-.672,10.85-1.34c5.336-.654,11.08-1.353,16.934-2.039a2.257,2.257,0,0,1,1.375.307c1.683,1.06,3.408,2.191,5.128,3.364a1.357,1.357,0,0,1,.562,1.271,1.473,1.473,0,0,1-1.071.89c-1.6.247-3.336.477-5.467.725a.765.765,0,0,0-.7.487c-3.351,6.619-6.867,13.531-10.45,20.546-.121.237-.107.257.082.4.258.2.5.412.739.619.293.256.57.5.868.711a1.309,1.309,0,0,1,.615.867,1.234,1.234,0,0,1-.326.952,3.126,3.126,0,0,0-.188.279c-.042.066-.087.138-.14.218l-.261.4-.844-.689c-.336-.274-.66-.538-.981-.8-.153-.128-.3-.258-.454-.388-.274-.238-.533-.463-.808-.67a.637.637,0,0,0-.138-.075.58.58,0,0,0-.033.145c-.116,1.676-.22,3.353-.323,5.029l-.1,1.567c-.026.411-.041.823-.057,1.236a22.013,22.013,0,0,1-.243,2.937,14.744,14.744,0,0,1-.763,2.54c-.113.308-.226.616-.331.926a.825.825,0,0,1-.6.482c-1.41.287-2.821.568-4.292.86Zm1.037-1.6a3.146,3.146,0,0,0-.077.534l.459-.091c1.467-.292,2.875-.571,4.28-.858.1-.289.205-.578.311-.866a13.9,13.9,0,0,0,.723-2.391,21.451,21.451,0,0,0,.231-2.824c.016-.419.032-.839.058-1.257l.1-1.566c.1-1.679.207-3.358.324-5.036a1.113,1.113,0,0,1,.519-.913,1.125,1.125,0,0,1,1.019.219c.3.225.582.471.855.708.146.127.292.253.44.377.319.265.64.527.974.8l.106.087c.037-.055.075-.108.117-.161a.521.521,0,0,0,.148-.3c0-.026-.034-.123-.265-.289-.332-.237-.638-.5-.934-.763-.237-.207-.461-.4-.7-.584a1.044,1.044,0,0,1-.323-1.47c3.583-7.014,7.1-13.926,10.449-20.544a1.609,1.609,0,0,1,1.366-.95c2.12-.247,3.847-.476,5.435-.721a.73.73,0,0,0,.372-.27.744.744,0,0,0-.214-.34c-1.711-1.167-3.428-2.293-5.1-3.347a1.394,1.394,0,0,0-.82-.181c-5.851.686-11.594,1.385-16.929,2.039q-5.425.664-10.849,1.339l-6.689.828q-1.916.237-3.834.469c-2.622.319-5.334.649-8,.994a3.7,3.7,0,0,0-3.242,2.87c-.905,3.738-1.805,7.519-2.676,11.175a2.684,2.684,0,0,0-.134.822,1.445,1.445,0,0,0,.445.3q.68-2.811,1.355-5.623l.124-.516q.22-.913.448-1.824c.344-1.385.7-2.818.993-4.234a3.255,3.255,0,0,1,2.153-2.24,3.1,3.1,0,0,1,2.943.264,36.121,36.121,0,0,0,3.663,2.379c.4.237.8.474,1.193.715a1.222,1.222,0,0,0,.7.177c5.6-.71,11.194-1.443,16.911-2.195q4.543-.6,9.087-1.2t9.107-1.2a6.717,6.717,0,0,1,.69-.044c.112,0,.229-.007.353-.013l.646-.032-.223.607c-.03.081-.054.15-.074.211a2.489,2.489,0,0,1-.132.335l-2.586,5.082q-3.752,7.371-7.494,14.749a1.608,1.608,0,0,1-1.3.934c-1.54.241-3.1.5-4.617.756l-1.415.236c-.229.038-.459.08-.7.124a2.233,2.233,0,0,1,.031.317.735.735,0,0,0,.03.23.966.966,0,0,0,.318-.027c.934-.185,1.886-.338,2.806-.486.591-.095,1.181-.19,1.77-.294a.827.827,0,0,1,1.094.985c-.234,3.508-.507,7.664-.749,11.9a1.212,1.212,0,0,1-1.153,1.257c-1.32.225-2.632.5-3.741.735A.512.512,0,0,0,1263.415,1223.7Zm4.635-.335h0Z" transform="translate(-1230.06 -1179.841)"/>
      </g>
      <g id="Group_1769" data-name="Group 1769" transform="translate(15.245 29.232)">
        <path id="Path_774" data-name="Path 774" d="M1273.116,1286.415c.558,1.226.741,1.32,1.884,1.124,2.008-.344,4.019-.677,6.029-1.012,2.5-.415,5-.822,7.491-1.252.2-.035.508-.192.544-.344.179-.774-.212-1.154-.973-1.027q-6.181,1.034-12.364,2.064C1274.863,1286.112,1274,1286.263,1273.116,1286.415Z" transform="translate(-1272.497 -1283.451)" fill="#fff"/>
        <path id="Path_775" data-name="Path 775" d="M1272.764,1286.966c-.764,0-1.1-.369-1.59-1.448l-.23-.505,1.432-.246c.58-.1,1.153-.2,1.727-.3l5.611-.937,6.752-1.127a1.172,1.172,0,0,1,1.46,1.545c-.091.392-.593.618-.888.669-1.819.314-3.67.62-5.46.916l-2.956.49q-2.552.424-5.1.857A4.576,4.576,0,0,1,1272.764,1286.966Zm-.574-1.3c.275.533.425.507,1.185.377q2.552-.438,5.108-.858l2.956-.491c1.789-.3,3.639-.6,5.455-.915a.655.655,0,0,0,.214-.09.482.482,0,0,0-.038-.385c-.051-.055-.2-.1-.463-.053l-6.752,1.128-5.611.937c-.573.1-1.145.194-1.723.294Z" transform="translate(-1270.944 -1282.378)"/>
      </g>
      <g id="Group_1770" data-name="Group 1770" transform="translate(23.19 43.919)">
        <path id="Path_776" data-name="Path 776" d="M1300.57,1337.2c.268,1.38.293,1.395,1.528,1.15q2.723-.54,5.447-1.07c1.005-.194,1.209-.51.957-1.633Z" transform="translate(-1300.069 -1335.147)" fill="#fff"/>
        <path id="Path_777" data-name="Path 777" d="M1300.034,1337.645a.928.928,0,0,1-.541-.147c-.36-.242-.45-.7-.6-1.469l-.081-.419,8.759-1.714.091.405a1.982,1.982,0,0,1-.08,1.515,1.746,1.746,0,0,1-1.213.632q-2.724.526-5.445,1.069A4.942,4.942,0,0,1,1300.034,1337.645Zm-.216-1.36a1.631,1.631,0,0,0,.158.508,3.916,3.916,0,0,0,.782-.115q2.724-.539,5.449-1.07c.377-.073.592-.158.659-.26a.78.78,0,0,0,.036-.45Z" transform="translate(-1298.813 -1333.895)"/>
      </g>
      <g id="Group_1771" data-name="Group 1771" transform="translate(0.001 25.86)">
        <path id="Path_778" data-name="Path 778" d="M1236.454,1301.839c.362.738.676.881,1.215.767q14.624-3.112,29.251-6.211c.28-.06.553-.154.83-.23l.033-.307a2.454,2.454,0,0,1-.482-.27c-.749-.613-1.484-1.244-2.225-1.867-.829-.7-5.685-5.022-5.009-6.045.774.648,6.363,5.318,7.129,5.963.725.61,1.43,1.245,2.181,1.822a1.156,1.156,0,0,0,.827.22q6.05-1.249,12.088-2.562c.206-.045.507-.225.539-.386a1.123,1.123,0,0,0-.312-1.232c-1.372-1.121-2.714-2.277-4.068-3.419q-4.087-3.445-8.174-6.89c-.844-.712-.842-.716,0-1.869.8.669,1.573,1.31,2.34,1.958q5.548,4.684,11.1,9.363a1.5,1.5,0,0,1,.592,1.271c-.043,5.027-.067,10.054-.1,15.081a2.221,2.221,0,0,1-2.038,2.5q-12.971,2.861-25.944,5.717c-6.094,1.343-12.191,2.67-18.278,4.043-1.571.354-2.286-.438-3.485-1.981-4.612-5.938-7.463-9.644-12.333-15.95-1.765-2.285-3.225-3.751-3.151-6.27.129-4.406.079-8.817.161-13.225a12.11,12.11,0,0,1,.481-2.474c.5-2.126,1.018-4.246,1.531-6.369.043-.177.1-.351.151-.528,1.131.371,1.287.635,1.025,1.734-.439,1.843-.884,3.685-1.324,5.528-.047.2-.073.4-.127.7.365-.029.661-.031.951-.078q3.08-.5,6.156-1.019c1.181-.2,1.337-.119,2.007,1.1l-8.795,1.483a5.824,5.824,0,0,0,.9,1.064l7.757,9.99c.789,1.091.822,1.358,1.411,1.241,1.757-.349,3.516-.69,5.275-1.037,1.121-.221,1.226-.142,1.424,1.154l-6.291,1.265a3.571,3.571,0,0,0,.722.971Zm.738,16.079c.324-.057.622-.1.915-.163q8.446-1.866,16.892-3.736,13.425-2.958,26.851-5.909c.754-.166.933-.371.939-1.139.029-3.935.044-7.87.081-11.805.005-.543-.184-.688-.7-.568-1.2.278-2.415.524-3.623.782q-11.058,2.357-22.116,4.712-9.065,1.926-18.135,3.83c-.528.11-.785.267-.8.9-.07,4.017-.2,8.032-.3,12.048C1237.184,1317.192,1237.192,1317.516,1237.192,1317.918Zm-1.6-1.478.158-.063c.021-.3.054-.6.062-.906.089-3.562.148-7.125.282-10.686a2.479,2.479,0,0,0-.57-1.734q-7.233-9.4-14.442-18.821c-.115-.15-.259-.276-.519-.551-.028.447-.057.7-.058.96-.031,3.687-.039,7.373-.1,11.06a3.677,3.677,0,0,0,.82,2.449q7.013,8.947,14,17.91C1235.342,1316.2,1235.474,1316.313,1235.6,1316.44Z" transform="translate(-1218.544 -1271.916)"/>
        <path id="Path_779" data-name="Path 779" d="M1236.169,1318.4c-1.31,0-2.078-.889-3.12-2.232-3.5-4.506-5.975-7.713-9.109-11.773l-3.225-4.178c-.223-.288-.44-.564-.651-.829-1.486-1.877-2.659-3.36-2.59-5.715.074-2.526.089-5.1.1-7.587.011-1.846.022-3.755.057-5.634a8.715,8.715,0,0,1,.35-2c.049-.19.1-.379.142-.568.381-1.626.775-3.25,1.168-4.873l.363-1.5c.031-.129.069-.255.108-.383l.171-.589.421.138c1.341.44,1.622.921,1.308,2.24q-.341,1.431-.685,2.861-.32,1.333-.639,2.666c-.011.045-.02.09-.029.136.131-.009.252-.02.368-.039q3.079-.5,6.155-1.018c1.375-.23,1.7-.058,2.452,1.313l.291.528-8.693,1.466.083.084c.1.1.217.219.37.391l7.774,10.011c.157.216.279.393.383.543.4.582.4.582.607.541q1.594-.317,3.189-.627l2.086-.409c.6-.119,1.023-.179,1.365.061.359.252.453.714.565,1.447l.062.4-6.085,1.224a1.579,1.579,0,0,0,.31.349l.061.064,4.109,5.362c.308.629.462.6.742.536q9.883-2.1,19.769-4.2l9.482-2.013c.069-.015.138-.032.208-.051l-.009-.007c-.511-.418-1.015-.844-1.519-1.271q-.355-.3-.711-.6c-1.016-.853-6.036-5.179-5.091-6.608l.264-.4.367.307,2.2,1.841c1.923,1.607,4.433,3.705,4.928,4.122.22.185.438.372.656.56.489.42,1,.855,1.511,1.251a.757.757,0,0,0,.479.14c3.589-.74,7.429-1.554,12.084-2.561a.638.638,0,0,0,.222-.112c.075-.414.032-.588-.174-.757-.975-.8-1.95-1.624-2.893-2.424q-.59-.5-1.18-1l-2.8-2.362q-2.686-2.263-5.371-4.528c-1.07-.9-1-1.173-.074-2.446l.269-.37,1.1.918c.538.449,1.067.89,1.593,1.334l3.034,2.563c2.64,2.232,5.371,4.54,8.065,6.8a1.914,1.914,0,0,1,.745,1.6q-.041,4.811-.066,9.622-.017,2.729-.035,5.458a2.636,2.636,0,0,1-2.374,2.917q-8.486,1.872-16.973,3.74l-8.971,1.976-4.64,1.02c-4.471.982-9.095,2-13.636,3.022A3.6,3.6,0,0,1,1236.169,1318.4Zm-15.66-46.756c-.006.025-.013.05-.019.074l-.363,1.5c-.393,1.621-.786,3.243-1.167,4.867-.046.195-.1.39-.146.586a7.979,7.979,0,0,0-.324,1.8c-.035,1.873-.046,3.78-.057,5.623-.015,2.493-.03,5.07-.1,7.607-.06,2.044.974,3.35,2.406,5.159.212.269.432.546.657.837l3.225,4.178c3.133,4.06,5.608,7.266,9.107,11.771,1.231,1.585,1.776,2.114,3.053,1.826,4.544-1.024,9.168-2.041,13.641-3.023l4.64-1.02,8.971-1.976q8.487-1.869,16.973-3.74a1.806,1.806,0,0,0,1.7-2.087q.019-2.728.035-5.457.029-4.812.066-9.624a1.072,1.072,0,0,0-.439-.94c-2.7-2.26-5.427-4.568-8.068-6.8l-3.034-2.563c-.525-.443-1.052-.883-1.589-1.331l-.4-.331a1.767,1.767,0,0,0-.281.479,3.7,3.7,0,0,0,.481.441q2.685,2.265,5.371,4.528l2.8,2.362q.592.5,1.183,1c.94.8,1.912,1.622,2.881,2.414a1.551,1.551,0,0,1,.461,1.646c-.081.406-.576.658-.868.721-4.658,1.007-8.5,1.822-12.092,2.562a1.569,1.569,0,0,1-1.174-.3c-.533-.41-1.048-.853-1.546-1.281-.216-.185-.432-.371-.649-.554-.5-.417-3-2.514-4.925-4.12l-.984-.822a32.934,32.934,0,0,0,4.339,4.37q.357.3.713.6c.5.423,1,.847,1.508,1.261a1.658,1.658,0,0,0,.312.175l.356.174-.095.894-.281.078c-.091.025-.183.052-.273.08-.187.056-.38.113-.581.156l-9.483,2.012q-9.885,2.1-19.768,4.2c-.758.163-1.245-.116-1.668-.957l-4.013-5.223a2.92,2.92,0,0,1-.6-.766c-.049-.08-.1-.169-.168-.27l-.336-.526,6.5-1.307a1.324,1.324,0,0,0-.145-.475,2.6,2.6,0,0,0-.707.079l-2.087.41q-1.594.312-3.187.627c-.754.149-1.011-.221-1.477-.894-.1-.146-.219-.317-.364-.516l-7.748-9.978c-.122-.136-.227-.243-.319-.335a3.582,3.582,0,0,1-.608-.767l-.333-.54,8.817-1.487c-.32-.513-.483-.486-1.262-.356q-3.079.513-6.158,1.019a6.347,6.347,0,0,1-.653.061c-.105.006-.215.012-.333.022l-.553.043.1-.546c.018-.1.034-.192.047-.275.029-.169.052-.308.085-.445q.318-1.334.639-2.668.343-1.43.685-2.86C1221,1272.032,1221.041,1271.863,1220.509,1271.648Zm15.182,45.414,0-.884c0-.245,0-.465,0-.685q.043-1.618.089-3.236c.08-2.887.164-5.873.215-8.808a1.21,1.21,0,0,1,1.136-1.311c5.395-1.13,11.157-2.347,18.134-3.829q7.947-1.689,15.892-3.385l7.173-1.528c.877-.184,1.783-.375,2.668-.58a.886.886,0,0,1,1.225.989q-.033,3.515-.05,7.03-.014,2.388-.031,4.775c-.007.965-.317,1.343-1.274,1.554l-11.25,2.475q-7.8,1.716-15.6,3.433-4.983,1.1-9.964,2.2l-6.927,1.533c-.206.045-.414.08-.631.116-.1.017-.2.033-.3.051Zm45.667-23.441a.98.98,0,0,0-.168.027c-.893.206-1.8.4-2.684.583l-7.171,1.527q-7.946,1.695-15.892,3.385c-6.978,1.483-12.741,2.7-18.137,3.83-.411.086-.45.127-.456.489-.051,2.941-.134,5.928-.215,8.817q-.045,1.617-.089,3.235c0,.173,0,.346,0,.532.135-.023.267-.047.4-.076l6.927-1.533q4.982-1.1,9.964-2.2,7.8-1.72,15.6-3.434l11.249-2.475c.565-.125.6-.165.6-.725q.018-2.387.031-4.774.021-3.516.05-7.032A1.078,1.078,0,0,0,1281.358,1293.621Zm-46.946,21.957-.2-.209c-.036-.038-.073-.075-.11-.112a3.174,3.174,0,0,1-.279-.3l-4.4-5.632q-4.8-6.142-9.6-12.277a4.086,4.086,0,0,1-.911-2.72c.042-2.574.059-5.192.075-7.723q.011-1.667.024-3.333c0-.174.014-.348.031-.576.009-.117.019-.25.028-.407l.062-.98.675.713c.092.1.169.175.235.243a3.627,3.627,0,0,1,.313.342l4.365,5.693q5.034,6.567,10.076,13.127a2.889,2.889,0,0,1,.658,2.012c-.1,2.547-.154,5.139-.211,7.646q-.034,1.517-.071,3.034c-.005.214-.023.428-.041.641-.008.095-.016.19-.022.284l-.019.269Zm-14.55-32.207q-.013,1.619-.023,3.238c-.016,2.534-.033,5.154-.075,7.732a3.229,3.229,0,0,0,.729,2.178q4.808,6.133,9.6,12.278l4.214,5.393c0-.032,0-.064,0-.1q.038-1.516.071-3.032c.057-2.51.115-5.106.211-7.659a2.044,2.044,0,0,0-.481-1.458q-5.046-6.558-10.077-13.129Z" transform="translate(-1217.471 -1270.55)"/>
      </g>
      <g id="Group_1772" data-name="Group 1772" transform="translate(3.59 0)">
        <path id="Path_780" data-name="Path 780" d="M1232.673,1203.185a1.148,1.148,0,0,1-.194-.048c-1.064-.573-1.073-.575-.794-1.748q1.331-5.591,2.676-11.177a4.131,4.131,0,0,1,3.6-3.193c3.942-.511,7.889-.976,11.834-1.463q8.769-1.082,17.538-2.167,8.464-1.037,16.931-2.039a1.817,1.817,0,0,1,1.1.244q2.588,1.63,5.115,3.355a.968.968,0,0,1,.393.795,1.057,1.057,0,0,1-.727.591c-1.811.28-3.63.511-5.45.723a1.184,1.184,0,0,0-1.035.718q-5.206,10.283-10.45,20.545a.631.631,0,0,0,.2.936c.555.426,1.051.932,1.619,1.338.511.364.588.722.2,1.2-.113.141-.2.3-.351.529-.512-.418-.986-.8-1.454-1.191-.427-.356-.835-.737-1.278-1.071a.752.752,0,0,0-.591-.169c-.144.063-.25.353-.264.551-.152,2.2-.283,4.4-.421,6.6a38.131,38.131,0,0,1-.295,4.127,23.438,23.438,0,0,1-1.078,3.4.424.424,0,0,1-.286.2c-1.73.353-3.462.695-5.3,1.062a7.318,7.318,0,0,1,.152-1.225.723.723,0,0,1,.493-.35c1.249-.267,2.5-.524,3.759-.738.527-.09.765-.284.8-.86.227-3.969.484-7.937.749-11.9.033-.494-.124-.618-.593-.536-1.521.267-3.053.479-4.568.779-.594.117-.849-.011-.859-.615a5.92,5.92,0,0,0-.094-.67c.4-.072.761-.141,1.121-.2,2.011-.335,4.021-.678,6.036-.993a1.182,1.182,0,0,0,.98-.7q5.024-9.924,10.08-19.832c.063-.123.1-.26.186-.5-.384.019-.7.013-1.009.054q-9.1,1.2-18.194,2.4-8.454,1.111-16.912,2.195a1.635,1.635,0,0,1-.978-.237,52.818,52.818,0,0,1-4.894-3.121c-1.346-1.04-4.053-.027-4.416,1.725-.421,2.036-.957,4.049-1.444,6.072q-.745,3.094-1.492,6.188C1232.783,1202.9,1232.726,1203.029,1232.673,1203.185Zm55.214-18,.049-.163c-.155-.12-.3-.25-.466-.357-.772-.512-1.563-1-2.318-1.533a1.746,1.746,0,0,0-1.323-.328q-8.853,1.117-17.71,2.2-11.738,1.438-23.478,2.86c-.252.031-.5.1-.878.169a4.993,4.993,0,0,0,.457.4c1.076.687,2.144,1.387,3.242,2.037a1.554,1.554,0,0,0,.927.172c5.941-.764,11.88-1.552,17.819-2.328q11.481-1.5,22.963-2.994C1287.412,1185.283,1287.648,1185.227,1287.886,1185.182Z" transform="translate(-1231.111 -1180.912)"/>
        <path id="Path_781" data-name="Path 781" d="M1262.377,1225.3l.062-.578c.015-.139.025-.27.034-.4a4.268,4.268,0,0,1,.133-.906,1.11,1.11,0,0,1,.814-.647c1.118-.239,2.441-.514,3.776-.742.37-.063.423-.119.443-.463.242-4.239.515-8.4.749-11.908,0-.041,0-.073,0-.1-.025,0-.057.006-.1.014-.593.1-1.188.2-1.782.3-.913.147-1.858.3-2.776.481a1.216,1.216,0,0,1-1.026-.143,1.112,1.112,0,0,1-.344-.884,2.328,2.328,0,0,0-.046-.354c-.014-.081-.029-.167-.043-.262l-.06-.41.789-.143c.257-.047.5-.091.744-.132l1.414-.236c1.515-.253,3.082-.515,4.626-.757a.762.762,0,0,0,.665-.475q3.737-7.381,7.495-14.751l2.512-4.937c-.109.006-.212.013-.312.026q-4.553.6-9.106,1.2t-9.088,1.2c-5.717.751-11.312,1.485-16.914,2.195a2.045,2.045,0,0,1-1.255-.3c-.392-.239-.788-.474-1.184-.709a36.893,36.893,0,0,1-3.75-2.438,2.258,2.258,0,0,0-2.123-.138,2.4,2.4,0,0,0-1.612,1.611c-.3,1.433-.654,2.874-1,4.267q-.226.908-.447,1.818l-.124.517q-.683,2.836-1.367,5.672a2.843,2.843,0,0,1-.1.322c-.016.044-.033.09-.05.139l-.126.37-.38-.092-.089-.02a.679.679,0,0,1-.206-.068c-1.235-.664-1.329-.871-1.007-2.224.87-3.657,1.77-7.438,2.676-11.179a4.532,4.532,0,0,1,3.964-3.516c2.667-.346,5.38-.676,8-.995q1.916-.233,3.832-.468l6.688-.828q5.425-.672,10.85-1.34c5.336-.654,11.08-1.353,16.934-2.039a2.257,2.257,0,0,1,1.375.307c1.683,1.06,3.408,2.191,5.128,3.364a1.357,1.357,0,0,1,.562,1.271,1.473,1.473,0,0,1-1.071.89c-1.6.247-3.336.477-5.467.725a.765.765,0,0,0-.7.487c-3.351,6.619-6.867,13.531-10.45,20.546-.121.237-.107.257.082.4.258.2.5.412.739.619.293.256.57.5.868.711a1.309,1.309,0,0,1,.615.867,1.234,1.234,0,0,1-.326.952,3.126,3.126,0,0,0-.188.279c-.042.066-.087.138-.14.218l-.261.4-.844-.689c-.336-.274-.66-.538-.981-.8-.153-.128-.3-.258-.454-.388-.274-.238-.533-.463-.808-.67a.637.637,0,0,0-.138-.075.58.58,0,0,0-.033.145c-.116,1.676-.22,3.353-.323,5.029l-.1,1.567c-.026.411-.041.823-.057,1.236a22.013,22.013,0,0,1-.243,2.937,14.744,14.744,0,0,1-.763,2.54c-.113.308-.226.616-.331.926a.825.825,0,0,1-.6.482c-1.41.287-2.821.568-4.292.86Zm1.037-1.6a3.146,3.146,0,0,0-.077.534l.459-.091c1.467-.292,2.875-.571,4.28-.858.1-.289.205-.578.311-.866a13.9,13.9,0,0,0,.723-2.391,21.451,21.451,0,0,0,.231-2.824c.016-.419.032-.839.058-1.257l.1-1.566c.1-1.679.207-3.358.324-5.036a1.113,1.113,0,0,1,.519-.913,1.125,1.125,0,0,1,1.019.219c.3.225.582.471.855.708.146.127.292.253.44.377.319.265.64.527.974.8l.106.087c.037-.055.075-.108.117-.161a.521.521,0,0,0,.148-.3c0-.026-.034-.123-.265-.289-.332-.237-.638-.5-.934-.763-.237-.207-.461-.4-.7-.584a1.044,1.044,0,0,1-.323-1.47c3.583-7.014,7.1-13.926,10.449-20.544a1.609,1.609,0,0,1,1.366-.95c2.12-.247,3.847-.476,5.435-.721a.73.73,0,0,0,.372-.27.744.744,0,0,0-.214-.34c-1.711-1.167-3.428-2.293-5.1-3.347a1.394,1.394,0,0,0-.82-.181c-5.851.686-11.594,1.385-16.929,2.039q-5.425.664-10.849,1.339l-6.689.828q-1.916.237-3.834.469c-2.622.319-5.334.649-8,.994a3.7,3.7,0,0,0-3.242,2.87c-.905,3.738-1.805,7.519-2.676,11.175a2.684,2.684,0,0,0-.134.822,1.445,1.445,0,0,0,.445.3q.68-2.811,1.355-5.623l.124-.516q.22-.913.448-1.824c.344-1.385.7-2.818.993-4.234a3.255,3.255,0,0,1,2.153-2.24,3.1,3.1,0,0,1,2.943.264,36.121,36.121,0,0,0,3.663,2.379c.4.237.8.474,1.193.715a1.222,1.222,0,0,0,.7.177c5.6-.71,11.194-1.443,16.911-2.195q4.543-.6,9.087-1.2t9.107-1.2a6.717,6.717,0,0,1,.69-.044c.112,0,.229-.007.353-.013l.646-.032-.223.607c-.03.081-.054.15-.074.211a2.489,2.489,0,0,1-.132.335l-2.586,5.082q-3.752,7.371-7.494,14.749a1.608,1.608,0,0,1-1.3.934c-1.54.241-3.1.5-4.617.756l-1.415.236c-.229.038-.459.08-.7.124a2.233,2.233,0,0,1,.031.317.735.735,0,0,0,.03.23.966.966,0,0,0,.318-.027c.934-.185,1.886-.338,2.806-.486.591-.095,1.181-.19,1.77-.294a.827.827,0,0,1,1.094.985c-.234,3.508-.507,7.664-.749,11.9a1.212,1.212,0,0,1-1.153,1.257c-1.32.225-2.632.5-3.741.735A.512.512,0,0,0,1263.415,1223.7Zm4.635-.335h0Zm-22.9-33.362a1.931,1.931,0,0,1-.956-.243c-.888-.525-1.768-1.09-2.619-1.637l-.636-.408a2.194,2.194,0,0,1-.316-.26c-.054-.05-.116-.108-.193-.175l-.657-.575.857-.167c.129-.025.243-.049.347-.071.2-.043.378-.08.561-.1l9.653-1.175q6.913-.841,13.825-1.685c6.008-.736,11.966-1.476,17.709-2.2a2.178,2.178,0,0,1,1.624.4c.49.348,1.008.683,1.509,1.006.267.172.533.344.8.519.127.084.241.176.35.264l.14.111.234.18-.208.694-.257.048-.221.044c-.172.035-.344.069-.518.092L1275.922,1186q-6.355.828-12.708,1.657l-5.709.749q-6.055.8-12.111,1.58A1.891,1.891,0,0,1,1245.149,1190Zm-3.423-2.8.311.2c.845.542,1.718,1.1,2.592,1.62a1.128,1.128,0,0,0,.655.115q6.056-.779,12.109-1.579l5.709-.749q6.354-.831,12.708-1.657l10.19-1.328c-.2-.132-.4-.262-.606-.393-.509-.328-1.036-.668-1.541-1.027a1.317,1.317,0,0,0-1.021-.252c-5.744.725-11.7,1.466-17.712,2.2q-6.913.846-13.826,1.685Z" transform="translate(-1230.06 -1179.841)"/>
      </g>
      <g id="Group_1773" data-name="Group 1773" transform="translate(15.245 29.232)">
        <path id="Path_782" data-name="Path 782" d="M1273.116,1286.415c.885-.152,1.747-.3,2.61-.447q6.181-1.033,12.364-2.064c.761-.127,1.152.253.973,1.027-.035.152-.342.31-.544.344-2.495.43-4.994.837-7.491,1.252-2.01.334-4.021.667-6.029,1.012C1273.857,1287.735,1273.674,1287.641,1273.116,1286.415Z" transform="translate(-1272.497 -1283.451)"/>
        <path id="Path_783" data-name="Path 783" d="M1272.764,1286.966c-.764,0-1.1-.369-1.59-1.448l-.23-.505,1.432-.246c.58-.1,1.153-.2,1.727-.3l5.611-.937,6.752-1.127a1.172,1.172,0,0,1,1.46,1.545c-.091.392-.593.618-.888.669-1.819.314-3.67.62-5.46.916l-2.956.49q-2.552.424-5.1.857A4.576,4.576,0,0,1,1272.764,1286.966Zm-.574-1.3c.275.533.425.507,1.185.377q2.552-.438,5.108-.858l2.956-.491c1.789-.3,3.639-.6,5.455-.915a.655.655,0,0,0,.214-.09.482.482,0,0,0-.038-.385c-.051-.055-.2-.1-.463-.053l-6.752,1.128-5.611.937c-.573.1-1.145.194-1.723.294Z" transform="translate(-1270.944 -1282.378)"/>
      </g>
      <g id="Group_1774" data-name="Group 1774" transform="translate(23.19 43.919)">
        <path id="Path_784" data-name="Path 784" d="M1300.57,1337.2l7.932-1.553c.252,1.123.048,1.439-.957,1.633q-2.725.526-5.447,1.07C1300.863,1338.594,1300.838,1338.579,1300.57,1337.2Z" transform="translate(-1300.069 -1335.147)"/>
        <path id="Path_785" data-name="Path 785" d="M1300.034,1337.645a.928.928,0,0,1-.541-.147c-.36-.242-.45-.7-.6-1.469l-.081-.419,8.759-1.714.091.405a1.982,1.982,0,0,1-.08,1.515,1.746,1.746,0,0,1-1.213.632q-2.724.526-5.445,1.069A4.942,4.942,0,0,1,1300.034,1337.645Zm-.216-1.36a1.631,1.631,0,0,0,.158.508,3.916,3.916,0,0,0,.782-.115q2.724-.539,5.449-1.07c.377-.073.592-.158.659-.26a.78.78,0,0,0,.036-.45Z" transform="translate(-1298.813 -1333.895)"/>
      </g>
      <g id="Group_1775" data-name="Group 1775" transform="translate(18.218 48.075)">
        <path id="Path_786" data-name="Path 786" d="M1282.874,1373.333c0-.4-.007-.726,0-1.048.106-4.016.234-8.032.3-12.048.011-.633.268-.79.8-.9q9.07-1.9,18.135-3.83,11.059-2.349,22.116-4.712c1.209-.258,2.42-.5,3.624-.782.518-.119.707.026.7.569-.037,3.935-.051,7.87-.08,11.805-.006.768-.185.973-.939,1.139q-13.425,2.956-26.851,5.909-8.447,1.861-16.891,3.736C1283.5,1373.234,1283.2,1373.276,1282.874,1373.333Z" transform="translate(-1282.444 -1349.545)" fill="#8973a4"/>
        <path id="Path_787" data-name="Path 787" d="M1281.375,1372.77l0-.884c0-.245,0-.465,0-.685q.043-1.618.089-3.236c.08-2.887.164-5.873.215-8.808a1.21,1.21,0,0,1,1.136-1.311c5.394-1.13,11.157-2.347,18.134-3.829q7.947-1.689,15.892-3.385l7.173-1.528c.877-.184,1.783-.375,2.668-.58a.886.886,0,0,1,1.225.989q-.034,3.515-.05,7.03-.014,2.388-.031,4.775c-.007.965-.317,1.343-1.274,1.554l-11.25,2.475q-7.8,1.716-15.6,3.433-4.983,1.1-9.964,2.2l-6.927,1.533c-.206.045-.414.08-.631.116l-.3.051Zm45.667-23.441a.992.992,0,0,0-.168.027c-.893.206-1.8.4-2.684.583l-7.171,1.527q-7.946,1.695-15.892,3.385c-6.978,1.483-12.741,2.7-18.136,3.83-.411.086-.45.127-.456.489-.051,2.941-.134,5.928-.215,8.817q-.045,1.617-.089,3.235c0,.173,0,.346,0,.532.135-.023.266-.047.4-.076l6.927-1.533q4.982-1.1,9.964-2.2,7.8-1.72,15.6-3.434l11.249-2.475c.565-.125.6-.165.6-.725q.018-2.387.031-4.774.021-3.516.05-7.032A1.06,1.06,0,0,0,1327.041,1349.33Z" transform="translate(-1281.371 -1348.473)"/>
      </g>
      <g id="Group_1776" data-name="Group 1776" transform="translate(1.438 36.617)">
        <path id="Path_788" data-name="Path 788" d="M1239.2,1344.574c-.121-.127-.254-.245-.361-.382q-7-8.956-14-17.91a3.678,3.678,0,0,1-.82-2.449c.06-3.686.068-7.373.1-11.06,0-.257.031-.513.058-.96.26.274.4.4.519.551q7.22,9.411,14.442,18.821a2.478,2.478,0,0,1,.57,1.734c-.134,3.561-.193,7.124-.282,10.685-.007.3-.041.6-.062.907Z" transform="translate(-1223.584 -1310.806)" fill="#8973a4"/>
        <path id="Path_789" data-name="Path 789" d="M1238.015,1342.552l-.2-.209c-.036-.038-.073-.075-.11-.112a3.175,3.175,0,0,1-.278-.3l-4.4-5.632q-4.8-6.142-9.6-12.277a4.086,4.086,0,0,1-.911-2.72c.042-2.574.059-5.192.075-7.723q.011-1.667.024-3.333c0-.174.014-.348.031-.576.009-.117.019-.25.028-.407l.062-.98.675.713c.092.1.169.176.235.243a3.629,3.629,0,0,1,.313.342l4.365,5.693q5.034,6.567,10.076,13.127a2.888,2.888,0,0,1,.658,2.012c-.1,2.547-.154,5.139-.211,7.646q-.034,1.517-.071,3.034c-.005.214-.023.428-.04.641-.008.095-.016.19-.022.284l-.019.269Zm-14.55-32.207q-.013,1.619-.023,3.238c-.016,2.534-.033,5.154-.075,7.732a3.229,3.229,0,0,0,.729,2.178q4.808,6.133,9.6,12.278l4.214,5.393c0-.032,0-.064,0-.1q.038-1.516.071-3.032c.057-2.51.115-5.106.211-7.659a2.044,2.044,0,0,0-.482-1.458q-5.045-6.558-10.077-13.129Z" transform="translate(-1222.511 -1308.281)"/>
      </g>
      <g id="Group_1777" data-name="Group 1777" transform="translate(13.303 1.443)">
        <path id="Path_790" data-name="Path 790" d="M1313.546,1188.8c-.238.045-.475.1-.715.132q-11.481,1.5-22.963,2.994c-5.94.776-11.878,1.564-17.819,2.328a1.557,1.557,0,0,1-.928-.171c-1.1-.65-2.167-1.349-3.242-2.037a5,5,0,0,1-.457-.4c.378-.074.626-.138.878-.169q11.739-1.432,23.478-2.86,8.858-1.085,17.711-2.2a1.745,1.745,0,0,1,1.323.328c.755.536,1.546,1.021,2.318,1.532.163.108.311.238.466.357Z" transform="translate(-1266.484 -1185.975)" fill="#8973a4"/>
        <path id="Path_791" data-name="Path 791" d="M1269.506,1193.624a1.932,1.932,0,0,1-.956-.243c-.888-.526-1.767-1.09-2.619-1.637l-.636-.408a2.2,2.2,0,0,1-.317-.26c-.054-.05-.116-.107-.193-.175l-.656-.575.857-.166c.129-.025.243-.049.347-.071.2-.043.378-.08.561-.1l9.653-1.175q6.913-.841,13.825-1.685c6.008-.736,11.966-1.477,17.709-2.2a2.179,2.179,0,0,1,1.624.4c.49.348,1.008.683,1.509,1.006q.4.257.8.519c.127.084.241.176.35.264l.14.111.234.18-.208.694-.257.048-.221.044c-.172.035-.344.069-.518.092l-10.254,1.337q-6.354.828-12.708,1.657l-5.709.749q-6.055.8-12.111,1.58A1.891,1.891,0,0,1,1269.506,1193.624Zm-3.423-2.8.311.2c.845.542,1.718,1.1,2.592,1.62a1.131,1.131,0,0,0,.656.115q6.056-.779,12.109-1.579l5.709-.749q6.354-.831,12.708-1.657l10.19-1.328c-.2-.132-.4-.262-.606-.393-.509-.328-1.036-.668-1.541-1.027a1.317,1.317,0,0,0-1.021-.252c-5.744.725-11.7,1.466-17.712,2.2q-6.913.846-13.826,1.685Z" transform="translate(-1264.13 -1184.903)"/>
      </g>
      <path id="Path_792" data-name="Path 792" d="M1228.362,1216.282l-5.535,24.068-1.711-2.851,5.132-21.667Z" transform="translate(-1220.076 -1205.572)"/>
      <path id="Path_793" data-name="Path 793" d="M1370.424,1275.332l.758.285,20.241,17.105-2,.855-11.732-9.392-9.08-7.714Z" transform="translate(-1325.526 -1248.109)"/>
      <path id="Path_794" data-name="Path 794" d="M1360.617,1292.786l1.14-13.969,2.441-.6-.93,15.558Z" transform="translate(-1319.807 -1250.168)"/>
      <path id="Path_795" data-name="Path 795" d="M1265.237,1276.415l-38.9,6.721-.7-2.665,43.042-7.139Z" transform="translate(-1223.309 -1246.679)"/>
      <path id="Path_796" data-name="Path 796" d="M1287.824,1329.13l-30.766,5.755-1.419-2.554,32.494-6Z" transform="translate(-1244.757 -1284.57)"/>
    </g>
    <path id="Path_797" data-name="Path 797" d="M1094.237,1093.344c.189-.58.487-1.719.927-2.8a5.136,5.136,0,0,0-.6-5.56,16.406,16.406,0,0,0-2.382-2.141,5.109,5.109,0,0,1-.081-8.081c.6-.5,1.222-.993,1.816-1.509a5.084,5.084,0,0,0,1.431-5.727c-.285-.757-.6-1.5-.846-2.273a5.076,5.076,0,0,1,4.045-6.692c.775-.137,1.554-.251,2.328-.391a5.1,5.1,0,0,0,4.052-3.912c.164-.769.281-1.549.388-2.328a5.1,5.1,0,0,1,6.91-4.187c.658.236,1.305.5,1.96.75a5.094,5.094,0,0,0,6.013-1.606c.444-.541.881-1.087,1.333-1.62a5.069,5.069,0,0,1,7.9-.084c.493.556.942,1.15,1.417,1.721a5.111,5.111,0,0,0,5.962,1.606,20.765,20.765,0,0,1,2.91-.989,5.037,5.037,0,0,1,5.987,4.3c.116.778.227,1.558.382,2.329a5.062,5.062,0,0,0,4.157,4.031c.8.138,1.6.256,2.39.408a5.081,5.081,0,0,1,3.894,6.683c-.27.808-.611,1.592-.891,2.4a5.07,5.07,0,0,0,1.543,5.641c.616.524,1.252,1.025,1.869,1.547a5.113,5.113,0,0,1-.013,7.828c-.618.521-1.261,1.015-1.869,1.547a5.094,5.094,0,0,0-1.46,5.833c.285.757.59,1.507.84,2.276a5.074,5.074,0,0,1-3.993,6.62c-.732.131-1.466.245-2.2.371a5.128,5.128,0,0,0-4.343,4.39c-.109.669-.209,1.339-.316,2.008a5.088,5.088,0,0,1-6.824,4.079c-.763-.266-1.509-.583-2.272-.85a5.057,5.057,0,0,0-5.641,1.535c-.494.584-.968,1.186-1.458,1.773a5.061,5.061,0,0,1-7.811.181c-.529-.581-1-1.213-1.5-1.819a5.1,5.1,0,0,0-6.021-1.58c-.654.249-1.3.514-1.961.745a5.092,5.092,0,0,1-6.883-4.146c-.1-.67-.2-1.341-.315-2.008a5.1,5.1,0,0,0-4.282-4.294c-.775-.134-1.553-.253-2.327-.4C1095.963,1098.492,1094.229,1096.4,1094.237,1093.344Z" fill="#e4ab43"/>
    <g id="Group_1779" data-name="Group 1779" transform="translate(1098.537 1051.949)">
      <path id="Path_798" data-name="Path 798" d="M1146.3,1127.057q-.817,0-1.642-.05a26.75,26.75,0,1,1,28.326-25.075h0A26.785,26.785,0,0,1,1146.3,1127.057Zm-.033-51.154a24.412,24.412,0,1,0,1.5.046C1147.266,1075.918,1146.765,1075.9,1146.269,1075.9Z" transform="translate(-1119.535 -1073.556)" fill="#fff"/>
    </g>
    <text id="FREE" transform="translate(1125.164 1080.885)" fill="#fff" font-size="21" font-family="BebasNeue-Regular, Bebas Neue"><tspan x="-15.466" y="0">FREE</tspan></text>
    <text id="Post_pack" data-name="Post pack" transform="translate(1125.164 1091.885)" fill="#fff" font-size="11" font-family="BebasNeue-Regular, Bebas Neue"><tspan x="-17.76" y="0">Post pack</tspan></text>
  </g>
</svg>
