<svg xmlns="http://www.w3.org/2000/svg" width="252" height="285.246" viewBox="0 0 252 285.246"><defs><style>.a{font-size:37px;font-family:BebasNeue-Regular, Bebas Neue;}.b{fill:#91bf47;}.c{fill:#db1c24;}.d{fill:#fff;}.e{fill:#319ce3;font-size:23px;font-family:BebasNeue, Bebas Neue;}</style></defs><g transform="translate(-377 -3580.754)"><text class="a" transform="translate(377 3782)"><tspan x="42.602" y="33">Free Next Day </tspan><tspan x="2.531" y="73">Nationwide Delivery</tspan></text><g transform="translate(417 3580.754)"><circle class="b" cx="81.887" cy="81.887" r="81.887" transform="translate(4.152 5.075)"/><path d="M844.39,185.178a86.5,86.5,0,1,0,86.5,86.5A86.5,86.5,0,0,0,844.39,185.178Zm0,165.361a78.861,78.861,0,1,1,78.861-78.861A78.861,78.861,0,0,1,844.39,350.539Z" transform="translate(-757.89 -185.178)"/><path class="c" d="M853,378.824h8.765l6.459-8.3,7.381,1.384,2.768,6.92h41.981l2.768-6.92,5.075-.923,7.381,2.768v5.075h11.995V342.379l-5.536-8.765L932.811,329H853Z" transform="translate(-811.56 -265.045)"/><rect class="d" width="64.686" height="44.288" transform="translate(39.872 47.13)"/><path d="M947.847,327.378a33.8,33.8,0,0,0-.237-3.881,21.008,21.008,0,0,0-17.546-18.2,51.174,51.174,0,0,0-7.019-.345c-1.007,0-2.047-.006-3.063-.037-.528-.016-1.057-.012-1.639-.008l-.436,0c-.043-2.228-.035-4.444-.026-6.591.009-2.582.019-5.252-.062-7.873L917.8,290H846.945l-.071.376c-.407,2.159-.31,59.706,0,69.219l.1.908h9.956a10.711,10.711,0,0,0,20.633,0h36.7a10.711,10.711,0,0,0,20.662-.109l12.4-.014.451,0,.019-.663c.019-.474.062-1.585.063-2.154v-1.023C947.859,346.978,947.865,337.1,947.847,327.378ZM852.52,337.46c1.146-.078,2.316-.066,3.453-.052.618.007,1.235.013,1.853.007,1.387-.015,2.774-.015,4.16-.015l45.72-.064q1.766-.006,3.532-.009,1.989,0,4.116,0H917.8l.028-.431c.049-.743.047-1.362.047-1.961v-.341q.012-8.565.007-17.129v-2.6h-5.944v16.608c-18.191.1-36.62.113-54.445.131l-4.949.005V295.788h59.394v14.987h.461c.377,0,.98,0,1.739-.01,3.932-.029,12.117-.088,14.857.27a15.149,15.149,0,0,1,12.9,13.815c.042.5.09,1.062.09,1.6q.009,13.441,0,26.883c0,.124,0,.247,0,.372,0,.235.006.476,0,.738h-4.773l-2.392.017a10.713,10.713,0,0,0-20.509.124l-7.357,0c-9.87,0-20.076-.008-29.418.03A10.713,10.713,0,0,0,857,354.489l-4.484-.028Zm19.551,20.163a4.823,4.823,0,1,1-4.824-4.824A4.829,4.829,0,0,1,872.071,357.623ZM924.58,352.8a4.824,4.824,0,1,1-4.824,4.824A4.829,4.829,0,0,1,924.58,352.8Z" transform="translate(-808.15 -243.889)"/><text class="e" transform="translate(57.368 77.912)"><tspan x="0" y="0">free</tspan></text></g></g></svg>