<svg xmlns="http://www.w3.org/2000/svg" width="116.185" height="130.937" viewBox="0 0 116.185 130.937">
  <g id="Group_1780" data-name="Group 1780" transform="translate(-473.335 -545.054)">
    <circle id="Ellipse_84" data-name="Ellipse 84" cx="53.07" cy="53.07" r="53.07" transform="translate(479.358 567.234)" fill="#8973a4"/>
    <path id="Path_806" data-name="Path 806" d="M543.856,610.329a55.978,55.978,0,1,0,55.978,55.978A55.978,55.978,0,0,0,543.856,610.329Zm0,107.012a51.034,51.034,0,1,1,51.034-51.034A51.035,51.035,0,0,1,543.856,717.341Z" transform="translate(-10.314 -46.293)"/>
    <rect id="Rectangle_799" data-name="Rectangle 799" width="38.676" height="24.136" transform="translate(514.253 588.753)" fill="#fff"/>
    <rect id="Rectangle_800" data-name="Rectangle 800" width="37.222" height="24.136" transform="translate(516.289 631.791)" fill="#fff"/>
    <g id="Group_1784" data-name="Group 1784" transform="translate(497.678 588.405)">
      <path id="Path_807" data-name="Path 807" d="M591.534,822.193H642.8v-3.008c-4.618-.008-46.639-.021-51.266-.042Z" transform="translate(-581.505 -782.791)"/>
      <path id="Path_808" data-name="Path 808" d="M628.888,714.594a18.47,18.47,0,0,0-.13-2.124,11.5,11.5,0,0,0-9.605-9.963,28.066,28.066,0,0,0-3.843-.189c-.551,0-1.121,0-1.677-.02-.289-.009-.579-.007-.9,0l-.239,0c-.023-1.22-.019-2.433-.015-3.608.005-1.414.01-2.875-.034-4.31l-.008-.245H573.5l-.008.245c-.044,1.435-.039,2.9-.034,4.31,0,1.175.009,2.389-.015,3.608l-.238,0c-.319,0-.608,0-.9,0-.556.017-1.126.018-1.677.02a28.06,28.06,0,0,0-3.842.189,11.5,11.5,0,0,0-9.606,9.963,18.457,18.457,0,0,0-.13,2.124c0,2.377-.006,12.393-.007,17.678h0c0,.11,0,.216,0,.324v2.454h.025a24.14,24.14,0,0,0,.186,3.223,11.5,11.5,0,0,0,9.963,9.606,18.59,18.59,0,0,0,2.124.13c2.686.005,2.434.007,4.628.007-.011,4.539,0,9.831.016,14.562h38.961l.006-.093c.026-.407.026-.746.025-1.074v-.187q.007-4.688,0-9.377v-1.425h-3.254v9.091c-9.958.052-20.046.062-29.8.072l-2.709,0V739.981h32.514v8.039h.252c.206,0,.536,0,.952-.005.106,0,.219-.009.332-.018v.018c2.944,0,2.369,0,5.3-.007a18.6,18.6,0,0,0,2.124-.13,11.5,11.5,0,0,0,9.963-9.606,24.191,24.191,0,0,0,.186-3.223h.048C628.9,732.107,628.894,717.529,628.888,714.594Zm-3.212,19.018c-.013,1.668-.052,3.285-.156,4.075a8.293,8.293,0,0,1-7.562,7.059c-.273.023-.582.049-.878.049-2.366,0-2.694,0-4.079,0-.02-1.159-.017-2.311-.013-3.429.005-1.413.01-2.875-.034-4.31l-.008-.245h-38.79l-.039.206c-.067.356-.109,3.465-.131,7.777-2.405,0-2.273,0-5.146,0-.3,0-.605-.026-.878-.049a8.293,8.293,0,0,1-7.562-7.059c-.073-.558-.114-1.528-.136-2.637h0c0-3.115,0-17.847,0-20.962,0-.3.026-.605.05-.878a8.293,8.293,0,0,1,7.059-7.562c1.113-.145,3.866-.165,6.092-.159,0,.734,0,1.487,0,2.254h0v1.425q0,4.689,0,9.377v.187c0,.3,0,.605.02.963v.2h38.961l.006-.093c.026-.407.026-.746.025-1.074v-.187q.007-4.689,0-9.377v-1.425h-3.254v9.091c-5.389.028-10.814.044-16.206.054-5.425-.01-10.884-.026-16.306-.054v-9.091h0v-2.237h0v-8.2h32.512v8.2h.252c.206,0,.536,0,.952-.005,2.152-.016,6.633-.048,8.133.148a8.293,8.293,0,0,1,7.059,7.562c.023.273.049.582.05.878C625.677,716.857,625.676,728.8,625.676,733.612Z" transform="translate(-557.047 -694.133)"/>
    </g>
    <g id="Group_1785" data-name="Group 1785" transform="translate(473.335 545.054)">
      <rect id="Rectangle_801" data-name="Rectangle 801" width="51.18" height="54.088" transform="translate(1.309 1.309)" fill="#e4ab43"/>
      <path id="Path_809" data-name="Path 809" d="M527.132,601.759h-53.8v-56.7h53.8Zm-51.18-2.617h48.563v-51.47H475.952Z" transform="translate(-473.335 -545.054)"/>
    </g>
    <g id="Group_1787" data-name="Group 1787" transform="translate(499.132 551.241)">
      <g id="Group_1786" data-name="Group 1786" transform="translate(0 0)">
        <path id="Path_810" data-name="Path 810" d="M563.357,582.42c.061-.187.157-.553.3-.9a1.652,1.652,0,0,0-.192-1.789,5.267,5.267,0,0,0-.766-.689,1.644,1.644,0,0,1-.026-2.6c.194-.162.393-.32.584-.485a1.636,1.636,0,0,0,.461-1.843c-.092-.243-.193-.484-.272-.731a1.633,1.633,0,0,1,1.3-2.153c.249-.044.5-.081.749-.126a1.64,1.64,0,0,0,1.3-1.258c.053-.247.09-.5.125-.749a1.642,1.642,0,0,1,2.223-1.347c.212.076.42.162.631.241a1.639,1.639,0,0,0,1.935-.516c.143-.174.283-.35.429-.522a1.631,1.631,0,0,1,2.542-.027c.159.179.3.37.456.554a1.645,1.645,0,0,0,1.918.517,6.719,6.719,0,0,1,.936-.318,1.621,1.621,0,0,1,1.926,1.383c.037.25.073.5.123.749a1.628,1.628,0,0,0,1.337,1.3c.256.045.514.082.769.131a1.635,1.635,0,0,1,1.253,2.15c-.087.26-.2.512-.286.771a1.631,1.631,0,0,0,.5,1.815c.2.169.4.33.6.5a1.645,1.645,0,0,1,0,2.519c-.2.168-.406.327-.6.5a1.638,1.638,0,0,0-.47,1.877c.092.243.19.485.27.732a1.632,1.632,0,0,1-1.284,2.13c-.236.042-.472.079-.707.12a1.649,1.649,0,0,0-1.4,1.412c-.035.215-.067.431-.1.646a1.637,1.637,0,0,1-2.2,1.312c-.246-.085-.486-.187-.731-.273a1.627,1.627,0,0,0-1.815.494c-.159.188-.311.381-.469.57a1.628,1.628,0,0,1-2.513.058c-.17-.187-.323-.39-.484-.585a1.641,1.641,0,0,0-1.937-.509c-.21.08-.419.165-.631.24a1.638,1.638,0,0,1-2.214-1.334c-.033-.215-.065-.431-.1-.646a1.642,1.642,0,0,0-1.378-1.382c-.25-.043-.5-.081-.748-.128A1.694,1.694,0,0,1,563.357,582.42Zm10.074,4.313a9,9,0,1,0-8.993-9.007A9,9,0,0,0,573.431,586.732Z" transform="translate(-562.047 -566.329)" fill="#fff"/>
      </g>
    </g>
    <path id="Path_811" data-name="Path 811" d="M498.047,668.193H536.66v-3.008c-4.618-.008-33.985-.021-38.613-.042Z" transform="translate(-17.526 -85.168)"/>
    <path id="Path_812" data-name="Path 812" d="M498.047,687.193H536.66v-3.008c-4.618-.008-33.985-.021-38.613-.042Z" transform="translate(-17.526 -98.643)"/>
    <path id="Path_813" data-name="Path 813" d="M498.047,706.193H536.66v-3.008c-4.618-.008-33.985-.021-38.613-.042Z" transform="translate(-17.526 -112.118)"/>
  </g>
</svg>
