<svg id="Icon-Value" xmlns="http://www.w3.org/2000/svg" xmlns:xlink="http://www.w3.org/1999/xlink" width="292" height="292" viewBox="0 0 292 292">
  <defs>
    <clipPath id="clip-path">
      <path id="Path_52" data-name="Path 52" d="M0-93H292V-385H0Z" transform="translate(0 385)" fill="none"/>
    </clipPath>
  </defs>
  <g id="Group_54" data-name="Group 54" clip-path="url(#clip-path)">
    <g id="Group_39" data-name="Group 39" transform="translate(6.826 8.343)">
      <path id="Path_37" data-name="Path 37" d="M-88.169-44.084A138.416,138.416,0,0,1-226.584,94.331,138.416,138.416,0,0,1-365-44.084,138.416,138.416,0,0,1-226.584-182.5,138.415,138.415,0,0,1-88.169-44.084" transform="translate(365 182.5)" fill="#f28e33"/>
    </g>
    <g id="Group_40" data-name="Group 40" transform="translate(0)">
      <path id="Path_38" data-name="Path 38" d="M-46.5,0a146,146,0,0,0-146,146,146,146,0,0,0,146,146,146,146,0,0,0,146-146A146,146,0,0,0-46.5,0m0,279.106A133.107,133.107,0,0,1-179.606,146,133.107,133.107,0,0,1-46.5,12.894,133.107,133.107,0,0,1,86.606,146,133.107,133.107,0,0,1-46.5,279.106" transform="translate(192.5)"/>
    </g>
    <g id="Group_41" data-name="Group 41" transform="translate(43.231 37.372)">
      <path id="Path_39" data-name="Path 39" d="M-51.768-13c1.826.307,3.682.633,5.611.949a15.333,15.333,0,0,0-.17-1.848c-3-13.473-3.669-25.211-3.584-38.947,0-.323,0-.645.007-.968h-9.953c.436,8.143.871,15.146,1.3,22.582a101.328,101.328,0,0,0-53.927-15.445A101.823,101.823,0,0,0-214.309,55.146a101.445,101.445,0,0,0,26.225,68.208l7.644-7.644a90.685,90.685,0,0,1-23.078-60.565,91.032,91.032,0,0,1,91.031-91.032,90.6,90.6,0,0,1,44.05,11.354C-75.075-24.9-81.7-25.27-88.67-25.644v9.911a224.966,224.966,0,0,1,31.648,1.916c1.593.218,3.185.474,4.8.743.1.09.2.177.306.266.059-.059.1-.128.153-.191" transform="translate(214.309 53.814)"/>
    </g>
    <g id="Group_42" data-name="Group 42" transform="translate(78.342 78.218)">
      <path id="Path_40" data-name="Path 40" d="M-1.787-43.428c-1.826-.307-3.682-.633-5.611-.949a15.331,15.331,0,0,0,.17,1.848c3,13.473,3.669,25.211,3.584,38.947,0,.323,0,.645-.007.968H6.3C5.866-10.756,5.431-17.759,5-25.195A101.328,101.328,0,0,0,58.931-9.75,101.823,101.823,0,0,0,160.754-111.573a101.444,101.444,0,0,0-26.225-68.208l-7.644,7.644a90.685,90.685,0,0,1,23.078,60.565A91.032,91.032,0,0,1,58.931-20.541a90.6,90.6,0,0,1-44.05-11.354c6.639.366,13.261.738,20.234,1.112v-9.911A224.96,224.96,0,0,1,3.467-42.609c-1.593-.218-3.185-.474-4.8-.743-.1-.09-.2-.177-.306-.266-.059.059-.1.128-.153.191" transform="translate(7.398 179.781)"/>
    </g>
    <g id="Group_43" data-name="Group 43" transform="translate(105.064 89.899)">
      <path id="Path_41" data-name="Path 41" d="M-13.735-12.018c1.763-.14,5.248-.361,8.719-.708a60.9,60.9,0,0,0,11.44-2.331,43.878,43.878,0,0,0,12.507-5.7,17.8,17.8,0,0,0,6.181-6.561,7.463,7.463,0,0,0,.626-5.48,12.066,12.066,0,0,0-3.1-5.125,28.21,28.21,0,0,0-7.265-5.236,49.836,49.836,0,0,0-8.367-3.389,62.939,62.939,0,0,0-9.553-2.2c-2.555-.388-5.144-.579-7.723-.786a76.841,76.841,0,0,0-18.187.813,88.29,88.29,0,0,0-8.862,2.04A41.02,41.02,0,0,0-48.7-41.744a19.236,19.236,0,0,0-7.077,6.9,7.809,7.809,0,0,0-.017,7.9,17.346,17.346,0,0,0,5.041,5.509A39.432,39.432,0,0,0-39.7-15.819a66.859,66.859,0,0,0,12.214,2.895,99.967,99.967,0,0,0,13.75.906" transform="translate(56.859 49.754)" fill="#2b2e34"/>
    </g>
    <g id="Group_44" data-name="Group 44" transform="translate(137.216 125.061)">
      <path id="Path_42" data-name="Path 42" d="M0-9.141c.115.141.133.186.163.2A55.136,55.136,0,0,0,10.222-6.359c3,.475,6.029.79,9.057,1.024a77.646,77.646,0,0,0,18.651-.924A64.143,64.143,0,0,0,49.243-9.14a37.1,37.1,0,0,0,11.549-6.293,14.54,14.54,0,0,0,4.46-5.812,7.573,7.573,0,0,0-.689-6.872,16.852,16.852,0,0,0-4.415-4.837,39.425,39.425,0,0,0-8.23-4.736,1,1,0,0,0-1.393.316,21.393,21.393,0,0,1-4.928,4.16c-1.9,1.2-3.927,2.2-5.882,3.311a1.211,1.211,0,0,0-.547.675,16.051,16.051,0,0,1-4.752,7.96,34.5,34.5,0,0,1-10.553,6.725,57.882,57.882,0,0,1-13.657,4.031c-2.919.476-5.864.79-8.8,1.177C.965-9.275.525-9.213,0-9.141" transform="translate(0 37.842)" fill="#2b2e34"/>
    </g>
    <g id="Group_45" data-name="Group 45" transform="translate(105.043 172.16)">
      <path id="Path_43" data-name="Path 43" d="M-25.9,0a3.873,3.873,0,0,0-.451.306,33.929,33.929,0,0,1-8.931,5.706,50.386,50.386,0,0,1-9.578,3.34c-3,.684-6.015,1.264-9.038,1.815a32.3,32.3,0,0,1-3.978.413c-2.956.165-5.916.387-8.873.379A75.223,75.223,0,0,1-80.106,10.8c-2.366-.434-4.726-.94-7.05-1.556-2.058-.545-4.081-1.239-6.09-1.951A36.946,36.946,0,0,1-105.261.413c-.14-.121-.3-.216-.5-.354-.249.46-.469.85-.673,1.249a6.822,6.822,0,0,0-.529,5.14,13.57,13.57,0,0,0,4.592,6.475,34.447,34.447,0,0,0,9.284,5.459A52.89,52.89,0,0,0-84.6,21.123c1.964.457,3.941.88,5.93,1.2,1.817.3,3.656.461,5.491.64a76.714,76.714,0,0,0,11.88.217,62.4,62.4,0,0,0,10.443-1.269c2.992-.688,6.014-1.317,8.928-2.262A36.62,36.62,0,0,0-29.28,12.962a14.442,14.442,0,0,0,4.4-5.784A7.521,7.521,0,0,0-25.9,0" transform="translate(107.239)" fill="#2b2e34"/>
    </g>
    <g id="Group_46" data-name="Group 46" transform="translate(89.971 111.33)">
      <path id="Path_44" data-name="Path 44" d="M-21.112-8.7l-.041-.216c-.19,0-.381-.013-.569,0-1.037.086-2.071.2-3.109.264a90.8,90.8,0,0,1-12.944-.037,81.4,81.4,0,0,1-10.479-1.468,65.836,65.836,0,0,1-9.537-2.724A39.98,39.98,0,0,1-70.3-19.968a18.567,18.567,0,0,1-4.078-4.9,11.229,11.229,0,0,1-1.615-4.984c-.081-1.8-.089-3.608-.131-5.411-.005-.226-.02-.451-.034-.746a3.777,3.777,0,0,0-.438.181c-1.361.814-2.764,1.568-4.07,2.463a16.925,16.925,0,0,0-5.717,6.056,7.651,7.651,0,0,0-.927,4.875A11.223,11.223,0,0,0-84.067-16.5a27.283,27.283,0,0,0,6.686,4.947,46.536,46.536,0,0,0,10.8,4.244A82.115,82.115,0,0,0-57.83-5.554a75.626,75.626,0,0,0,8.608.792c3.192.1,6.4.032,9.589-.169a74.6,74.6,0,0,0,7.992-1c2.253-.39,4.472-1,6.689-1.571,1.3-.336,2.561-.795,3.84-1.2" transform="translate(87.4 36.015)" fill="#2b2e34"/>
    </g>
    <g id="Group_47" data-name="Group 47" transform="translate(105.055 150.302)">
      <path id="Path_45" data-name="Path 45" d="M-21.113-5.889l-.039-.207c-.189,0-.378-.011-.567,0-2.212.141-4.422.319-6.636.422A82.027,82.027,0,0,1-45.707-6.837,65.486,65.486,0,0,1-55.788-9.345a47.437,47.437,0,0,1-10.737-4.972A23.172,23.172,0,0,1-73.6-20.858a2.258,2.258,0,0,0-1.671-1C-77.136-22.2-79-22.554-80.851-23c-1.673-.4-3.315-.931-4.98-1.373a.7.7,0,0,0-.624.193,7.3,7.3,0,0,0-.058,7.094,15.114,15.114,0,0,0,3.95,4.84,38.47,38.47,0,0,0,12.9,6.834A57.3,57.3,0,0,0-57.937-2.732c3.194.361,6.4.67,9.608.84a62.254,62.254,0,0,0,10.636-.39c2-.239,4.022-.424,6-.8,2.325-.444,4.624-1.038,6.918-1.633,1.239-.32,2.442-.777,3.661-1.173" transform="translate(87.404 24.38)" fill="#2b2e34"/>
    </g>
    <g id="Group_48" data-name="Group 48" transform="translate(85.704 86.234)">
      <path id="Path_46" data-name="Path 46" d="M-21.165-38.325c2.556-.255,5.131-.389,7.665-.788A66.715,66.715,0,0,0,1.947-43.3a37.305,37.305,0,0,0,10.642-6.37,17.646,17.646,0,0,0,4.961-6.759,13,13,0,0,0,.849-4.659c.014-2.179-.021-4.358,0-6.537a12.6,12.6,0,0,0-2.193-7.434,1.321,1.321,0,0,1,.025-1.766,13.057,13.057,0,0,0,1.914-4.265,1.084,1.084,0,0,1,.517-.624,39.993,39.993,0,0,0,8.021-4.867,18.141,18.141,0,0,0,6.187-8.19c.2-.6.333-1.221.5-1.832l.068.008s1.381-6.744,0-11.117a14.247,14.247,0,0,0-2.622-5.889,24.691,24.691,0,0,0-5.58-5.351,42.189,42.189,0,0,0-7.55-4.161c-.468-.206-.505-.411-.3-.849a11.339,11.339,0,0,0,1.009-4.736c.006-2.414.042-4.829,0-7.243a13.34,13.34,0,0,0-2.708-7.867,27.365,27.365,0,0,0-8.81-7.381,48.565,48.565,0,0,0-8.436-3.689c-2.018-.684-4.094-1.21-6.164-1.725a75.73,75.73,0,0,0-11.6-1.832c-.645-.058-1.293-.069-1.939-.11,0,0-7.9-.268-11.326.009-3.17.256-6.32.582-9.456,1.126a65.641,65.641,0,0,0-9.852,2.459c-5.3,1.795-10.339,4.13-14.558,7.929a17.451,17.451,0,0,0-4.777,6.611c-.255.654-.378,1.358-.614,2.021a1.158,1.158,0,0,1-.5.626,38.674,38.674,0,0,0-8.117,4.938,18.031,18.031,0,0,0-6.088,8.124c-.207.622-.328,1.272-.554,1.905a29.619,29.619,0,0,0-.008,11.06A15.344,15.344,0,0,0-85.5-107.47a18.35,18.35,0,0,0,3.291,4.2,35.762,35.762,0,0,0,10.794,6.884c.475.209.545.4.339.884a12.53,12.53,0,0,0-1.009,5.1c.025,2.159.033,4.319.008,6.479a12.761,12.761,0,0,0,2.225,7.43,1.034,1.034,0,0,1,.017,1.356,12.734,12.734,0,0,0-2.243,7.48c.027,2.021.02,4.044-.007,6.066a13.774,13.774,0,0,0,2.915,8.808,25.254,25.254,0,0,0,5.656,5.267,44.647,44.647,0,0,0,11.433,5.552A65.6,65.6,0,0,0-42.3-39.494,82.005,82.005,0,0,0-32.136-38.3a73.792,73.792,0,0,0,10.971-.027" transform="translate(87.62 158.659)"/>
    </g>
    <g id="Group_49" data-name="Group 49" transform="translate(137.216 125.061)">
      <path id="Path_47" data-name="Path 47" d="M0-9.141c.525-.072.965-.134,1.408-.193,2.934-.388,5.879-.7,8.8-1.177a57.882,57.882,0,0,0,13.657-4.031,34.5,34.5,0,0,0,10.553-6.725,16.051,16.051,0,0,0,4.752-7.96,1.211,1.211,0,0,1,.547-.675c1.955-1.114,3.98-2.115,5.882-3.311a21.393,21.393,0,0,0,4.928-4.16,1,1,0,0,1,1.393-.316,39.425,39.425,0,0,1,8.23,4.736,16.852,16.852,0,0,1,4.415,4.837,7.573,7.573,0,0,1,.689,6.872,14.54,14.54,0,0,1-4.46,5.812A37.1,37.1,0,0,1,49.243-9.14,64.143,64.143,0,0,1,37.929-6.259a77.646,77.646,0,0,1-18.651.924c-3.028-.234-6.058-.549-9.057-1.024A55.136,55.136,0,0,1,.163-8.945C.133-8.955.115-9,0-9.141" transform="translate(0 37.842)" fill="#f28e33"/>
    </g>
    <g id="Group_50" data-name="Group 50" transform="translate(105.043 172.16)">
      <path id="Path_48" data-name="Path 48" d="M-25.9,0a7.521,7.521,0,0,1,1.021,7.178,14.442,14.442,0,0,1-4.4,5.784,36.62,36.62,0,0,1-12.647,6.691c-2.915.944-5.936,1.574-8.928,2.262A62.4,62.4,0,0,1-61.3,23.183a76.714,76.714,0,0,1-11.88-.217c-1.835-.179-3.674-.345-5.491-.64-1.989-.323-3.966-.746-5.93-1.2a52.89,52.89,0,0,1-8.485-2.741,34.447,34.447,0,0,1-9.284-5.459,13.57,13.57,0,0,1-4.592-6.475,6.822,6.822,0,0,1,.529-5.14c.2-.4.425-.789.673-1.249.2.138.358.234.5.354A36.946,36.946,0,0,0-93.246,7.292c2.008.713,4.031,1.407,6.09,1.951,2.325.616,4.684,1.122,7.05,1.556a75.223,75.223,0,0,0,13.352,1.159c2.957.008,5.917-.214,8.873-.379a32.3,32.3,0,0,0,3.978-.413c3.023-.551,6.043-1.131,9.038-1.815a50.386,50.386,0,0,0,9.578-3.34A33.929,33.929,0,0,0-26.356.306,3.873,3.873,0,0,1-25.9,0" transform="translate(107.239)" fill="#f28e33"/>
    </g>
    <g id="Group_51" data-name="Group 51" transform="translate(89.971 111.33)">
      <path id="Path_49" data-name="Path 49" d="M-21.112-8.7c-1.279.4-2.544.862-3.84,1.2-2.218.573-4.436,1.182-6.689,1.571a74.6,74.6,0,0,1-7.992,1c-3.189.2-6.4.272-9.589.169a75.626,75.626,0,0,1-8.608-.792,82.115,82.115,0,0,1-8.752-1.752,46.536,46.536,0,0,1-10.8-4.244A27.283,27.283,0,0,1-84.067-16.5,11.223,11.223,0,0,1-87.31-22.44a7.651,7.651,0,0,1,.927-4.875,16.925,16.925,0,0,1,5.717-6.056c1.306-.895,2.708-1.65,4.07-2.463a3.777,3.777,0,0,1,.438-.181c.014.3.029.52.034.746.042,1.8.05,3.609.131,5.411a11.229,11.229,0,0,0,1.615,4.984,18.567,18.567,0,0,0,4.078,4.9,39.98,39.98,0,0,0,12.509,7.089,65.836,65.836,0,0,0,9.537,2.724A81.4,81.4,0,0,0-37.774-8.687a90.8,90.8,0,0,0,12.944.037c1.038-.067,2.072-.178,3.109-.264.188-.015.379,0,.569,0l.041.216" transform="translate(87.4 36.015)" fill="#f28e33"/>
    </g>
    <g id="Group_52" data-name="Group 52" transform="translate(105.055 150.302)">
      <path id="Path_50" data-name="Path 50" d="M-21.113-5.889c-1.219.4-2.422.852-3.661,1.173-2.294.595-4.592,1.188-6.918,1.633-1.979.378-4,.563-6,.8a62.254,62.254,0,0,1-10.636.39c-3.209-.17-6.414-.479-9.608-.84A57.3,57.3,0,0,1-69.66-5.406a38.47,38.47,0,0,1-12.9-6.834,15.114,15.114,0,0,1-3.95-4.84,7.3,7.3,0,0,1,.058-7.094.7.7,0,0,1,.624-.193c1.665.441,3.307.972,4.98,1.373,1.847.441,3.715.8,5.583,1.138a2.258,2.258,0,0,1,1.671,1,23.172,23.172,0,0,0,7.072,6.541A47.437,47.437,0,0,0-55.788-9.345,65.486,65.486,0,0,0-45.707-6.837,82.027,82.027,0,0,0-28.355-5.673c2.214-.1,4.425-.281,6.636-.422.189-.012.378,0,.567,0l.039.207" transform="translate(87.404 24.38)" fill="#fff"/>
    </g>
    <g id="Group_53" data-name="Group 53" transform="translate(105.064 89.899)">
      <path id="Path_51" data-name="Path 51" d="M-13.735-12.018a99.967,99.967,0,0,1-13.75-.906A66.859,66.859,0,0,1-39.7-15.819a39.432,39.432,0,0,1-11.056-5.619A17.346,17.346,0,0,1-55.8-26.947a7.809,7.809,0,0,1,.017-7.9,19.236,19.236,0,0,1,7.077-6.9,41.02,41.02,0,0,1,11.381-4.937,88.29,88.29,0,0,1,8.862-2.04,76.841,76.841,0,0,1,18.187-.813c2.579.206,5.168.4,7.723.786a62.939,62.939,0,0,1,9.553,2.2,49.836,49.836,0,0,1,8.367,3.389,28.21,28.21,0,0,1,7.265,5.236,12.066,12.066,0,0,1,3.1,5.125,7.463,7.463,0,0,1-.626,5.48,17.8,17.8,0,0,1-6.181,6.561,43.878,43.878,0,0,1-12.507,5.7,60.9,60.9,0,0,1-11.44,2.331c-3.471.347-6.956.568-8.719.708" transform="translate(56.859 49.754)" fill="#fff"/>
    </g>
  </g>
</svg>
