<svg id="Group_2168" data-name="Group 2168" xmlns="http://www.w3.org/2000/svg" width="45.164" height="45.164" viewBox="0 0 45.164 45.164">
  <g id="Group_1951" data-name="Group 1951">
    <path id="Path_323" data-name="Path 323" d="M2022.228,1200.811A17.775,17.775,0,1,0,2040,1218.586,17.775,17.775,0,0,0,2022.228,1200.811Zm-20.337,17.771a20.355,20.355,0,0,0,4.954,13.344l-1.522,1.522a22.582,22.582,0,0,1,31.865-31.864l-1.522,1.522a20.435,20.435,0,0,0-33.775,15.477Zm37.477-14.813-1.524,1.523a20.435,20.435,0,0,1-28.812,28.812l-1.523,1.523a22.583,22.583,0,0,0,31.859-31.858Z" transform="translate(-1999.74 -1196)" fill="#a3d147"/>
  </g>
  <path id="Icon_awesome-bell" data-name="Icon awesome-bell" d="M10.1,23.091a2.886,2.886,0,0,0,2.885-2.886H7.217A2.886,2.886,0,0,0,10.1,23.091Zm9.714-6.752c-.871-.936-2.5-2.345-2.5-6.959a7.122,7.122,0,0,0-5.77-7v-.94a1.442,1.442,0,1,0-2.885,0v.94a7.122,7.122,0,0,0-5.77,7c0,4.614-1.63,6.022-2.5,6.959A1.409,1.409,0,0,0,0,17.319a1.444,1.444,0,0,0,1.448,1.443h17.31a1.444,1.444,0,0,0,1.448-1.443A1.408,1.408,0,0,0,19.817,16.339Z" transform="translate(12.147 10.455)" fill="#fff"/>
</svg>
