<svg xmlns="http://www.w3.org/2000/svg" width="45.222" height="45.223" viewBox="0 0 45.222 45.223">
  <g id="Group_2178" data-name="Group 2178" transform="translate(-1137 -1756)">
    <path id="Path_323" data-name="Path 323" d="M2022.257,1200.818a17.8,17.8,0,1,0,17.8,17.8A17.8,17.8,0,0,0,2022.257,1200.818Zm9.548,12.852c-2.372,2.156-10.171,10.013-12.01,12.657a3.7,3.7,0,0,1-.291.321c-.25-.381-.488-.751-.723-1.114-.019,0-.038,0-.057,0,0-.031,0-.063,0-.094-.208-.319-.416-.633-.63-.941a36.481,36.481,0,0,0-3.868-4.8l1.7-1.566c.858,1.04,3.79,4.495,3.79,4.495s9.374-9.479,10.685-10.822l1.573,1.709Zm-29.911,4.942a20.38,20.38,0,0,0,4.961,13.361l-1.524,1.524a22.611,22.611,0,0,1,31.906-31.906l-1.524,1.524a20.462,20.462,0,0,0-33.819,15.5Zm37.526-14.832-1.526,1.526a20.461,20.461,0,0,1-28.849,28.849l-1.525,1.525a22.612,22.612,0,0,0,31.9-31.9Z" transform="translate(-862.74 560)" fill="#a3d147"/>
  </g>
</svg>
