<svg id="Group_331" data-name="Group 331" xmlns="http://www.w3.org/2000/svg" width="158.23" height="52.305" viewBox="0 0 158.23 52.305">
  <path id="Path_307" data-name="Path 307" d="M0-1.456H11.405l5.087,36.4h.144l5.087-36.4H33.128V49.4H25.574V10.9H25.43L19.618,49.4H12.933L7.122,10.9H6.974V49.4H0Zm50.637,51.58q5.882,0,9.008-3.341t3.122-9.444V10.6q0-6.1-3.122-9.445t-9.008-3.34q-5.887,0-9.008,3.34T38.5,10.6V37.339q0,6.1,3.126,9.444t9.008,3.341m4.14-12.278q0,5.016-4.14,5.016t-4.143-5.016V10.1q0-5.016,4.143-5.012t4.14,5.012Zm13.37-39.3h12.06q6.176,0,9.008,2.871t2.834,8.827v2.035a14.015,14.015,0,0,1-1.269,6.393,7.469,7.469,0,0,1-3.888,3.559v.144q5.954,2.037,5.956,10.61v4.358q0,5.883-3.085,8.971T80.717,49.4H68.146ZM79.263,19.25a4.789,4.789,0,0,0,3.6-1.236q1.2-1.232,1.2-4.14V11.04a6.445,6.445,0,0,0-.981-4A3.7,3.7,0,0,0,79.988,5.81H76.137V19.25Zm1.454,22.884a4,4,0,0,0,3.122-1.125,5.808,5.808,0,0,0,1.017-3.887V32.69q0-3.485-1.2-4.832A5.08,5.08,0,0,0,79.7,26.515H76.137V42.134ZM97.494,49.4h7.99V-1.456h-7.99Zm13.95-50.855h7.991v43.59h13.151V49.4H111.444ZM136.433,49.4h21.8V42.134H144.424V26.515H155.4V19.25H144.424V5.81H158.23V-1.456h-21.8Z" transform="translate(0 2.181)" fill="#a3d147"/>
</svg>
