<svg xmlns="http://www.w3.org/2000/svg" xmlns:xlink="http://www.w3.org/1999/xlink" width="35.05" height="31.288" viewBox="0 0 35.05 31.288">
  <defs>
    <clipPath id="clip-path">
      <path id="Path_80" data-name="Path 80" d="M0-241.076H35.05v-31.288H0Z" transform="translate(0 272.364)" fill="#fcc44c"/>
    </clipPath>
  </defs>
  <g id="Group_83" data-name="Group 83" clip-path="url(#clip-path)">
    <g id="Group_82" data-name="Group 82" transform="translate(0 0)">
      <path id="Path_79" data-name="Path 79" d="M-269.654-63.045A9.166,9.166,0,0,0-278.4-71.2a9.035,9.035,0,0,0-8.406,4.727c-.095.158-.192.314-.314.515-.138-.244-.241-.429-.347-.613a9.12,9.12,0,0,0-9.853-4.438,8.818,8.818,0,0,0-6.908,6.393,8.736,8.736,0,0,0,2.346,9.109c3.1,3.135,6.267,6.2,9.418,9.288q.425.417.842.841l1.158-1.289-.551-.614-1.365-1.294c-.186-.15-.32-.241-.433-.353-2.64-2.6-5.309-5.177-7.906-7.822a7.114,7.114,0,0,1-1.869-7.419,7.168,7.168,0,0,1,5.575-5.167,7.48,7.48,0,0,1,8.942,6.03h1.94a7.449,7.449,0,0,1,7.776-6.192,7.45,7.45,0,0,1,7.034,7.96,7.4,7.4,0,0,1-2.245,4.878q-3.793,3.755-7.6,7.5c-.179.177-.361.351-.648.63l-1.392,1.256-3.9,4.345-2.217-2.469q-.586.6-1.148,1.226c.783.851,1.534,1.731,2.236,2.655.383.5.741,1.028,1.139,1.581a2.721,2.721,0,0,0,.21-.253,32.185,32.185,0,0,1,4.671-5.568c3.258-3.218,6.535-6.417,9.789-9.639a9.041,9.041,0,0,0,2.775-7.646" transform="translate(304.652 71.228)" fill="#fcc44c"/>
    </g>
  </g>
</svg>
