<svg xmlns="http://www.w3.org/2000/svg" width="53" height="53" viewBox="0 0 53 53">
  <g id="Group_1087" data-name="Group 1087" transform="translate(1708 -702) rotate(90)">
    <path id="Path_323" data-name="Path 323" d="M2026.129,1201.646a20.859,20.859,0,1,0,20.859,20.859A20.859,20.859,0,0,0,2026.129,1201.646Zm-23.865,20.854a23.887,23.887,0,0,0,5.814,15.659l-1.786,1.786a26.5,26.5,0,0,1,37.393-37.393l-1.786,1.786a23.981,23.981,0,0,0-39.635,18.162Zm43.98-17.383-1.788,1.788a23.98,23.98,0,0,1-33.811,33.811l-1.788,1.787a26.5,26.5,0,0,0,37.386-37.386Z" transform="translate(-1297.74 459)" fill="#23aaf7"/>
    <path id="Path_390" data-name="Path 390" d="M11.7-62.213l-.989-.915,8.315-7.688.989-.914.989.914,8.315,7.688-.99.915L20.02-69.9Z" transform="translate(662.197 1661.263) rotate(90)" fill="#fff" stroke="#fff" stroke-width="1"/>
  </g>
</svg>
