<svg xmlns="http://www.w3.org/2000/svg" xmlns:xlink="http://www.w3.org/1999/xlink" width="287" height="287" viewBox="0 0 287 287">
  <defs>
    <clipPath id="clip-path">
      <path id="Path_31" data-name="Path 31" d="M0-98H287V-385H0Z" transform="translate(0 385)" fill="none"/>
    </clipPath>
  </defs>
  <g id="Group_31" data-name="Group 31" clip-path="url(#clip-path)">
    <g id="Group_26" data-name="Group 26" transform="translate(6.709 8.2)">
      <path id="Path_26" data-name="Path 26" d="M-92.909-46.455A136.045,136.045,0,0,1-228.955,89.591,136.045,136.045,0,0,1-365-46.455,136.045,136.045,0,0,1-228.955-182.5,136.045,136.045,0,0,1-92.909-46.455" transform="translate(365 182.5)" fill="#f28e33"/>
    </g>
    <g id="Group_27" data-name="Group 27" transform="translate(0)">
      <path id="Path_27" data-name="Path 27" d="M-49,0A143.5,143.5,0,0,0-192.5,143.5,143.5,143.5,0,0,0-49,287,143.5,143.5,0,0,0,94.5,143.5,143.5,143.5,0,0,0-49,0m0,274.327A130.828,130.828,0,0,1-179.827,143.5,130.828,130.828,0,0,1-49,12.673,130.828,130.828,0,0,1,81.827,143.5,130.828,130.828,0,0,1-49,274.327" transform="translate(192.5)"/>
    </g>
    <g id="Group_28" data-name="Group 28" transform="translate(68.826 80.522)">
      <path id="Path_28" data-name="Path 28" d="M-50.769-12.033c-1.9-19.3-18.453-34.736-37.683-35.141-15.708-.325-27.873,6.506-36.164,20.326-.1.174-.209.348-.317.525-.18-.317-.35-.618-.523-.918-8.633-14.992-26.09-22.847-42.454-19.1-15.35,3.512-25.353,12.773-29.731,27.527-4.332,14.6-.841,28.163,10.1,39.225,10.32,10.438,20.993,20.866,31.314,30.951q4.058,3.964,8.113,7.932,1.773,1.737,3.508,3.506l.834.848,6.311-7.025-2.979-3.317-5.774-5.481-.066-.058c-.274-.221-.522-.413-.748-.589a10.856,10.856,0,0,1-.982-.816q-4.755-4.686-9.528-9.354c-7.769-7.612-15.8-15.482-23.547-23.368C-189.5,5.078-192.036-5-188.64-16.312c3.349-11.16,10.925-18.178,22.514-20.858a29.2,29.2,0,0,1,22.971,4.33,30.263,30.263,0,0,1,13.1,20l.157.932H-119.9l.159-.93A30,30,0,0,1-88.363-37.822,30.058,30.058,0,0,1-67.381-27.651,30.266,30.266,0,0,1-59.971-5.7,30,30,0,0,1-69.04,14Q-80.6,25.445-92.2,36.854l-8.642,8.518c-.482.476-.97.947-1.577,1.536l-1.1,1.067-5.826,5.258-15.587,17.341-9.246-10.295-.834.857c-1.75,1.8-3.333,3.49-4.835,5.165l-.679.756.689.748c3.519,3.823,6.558,7.431,9.288,11.03,1.079,1.422,2.1,2.871,3.19,4.4.508.719,1.026,1.449,1.559,2.192l.839,1.168.925-1.1c.108-.128.213-.244.311-.355a6.269,6.269,0,0,0,.656-.821c5.984-9.417,13.505-17.3,19.39-23.108q9.218-9.1,18.468-18.177c7.384-7.255,15.019-14.757,22.5-22.165,9.178-9.087,13.2-20.157,11.939-32.9" transform="translate(199.448 47.271)"/>
    </g>
    <g id="Group_29" data-name="Group 29" transform="translate(50.13 140.985)">
      <path id="Path_29" data-name="Path 29" d="M-12.706-22.505l6.058,6.745L4.019-27.632l3.8-3.434c.786-.763,1.282-1.239,1.772-1.721Q19.979-43.026,30.358-53.272A20.219,20.219,0,0,0,36.494-66.6,20.359,20.359,0,0,0,17.273-88.354,20.356,20.356,0,0,0-3.976-71.433h-5.3c-1.9-11.261-13.17-19.082-24.434-16.478-7.712,1.783-12.959,6.538-15.234,14.12-2.3,7.662-.485,14.58,5.108,20.273,7.1,7.226,14.39,14.261,21.6,21.374.309.3.675.553,1.183.965l3.729,3.536,1.507,1.678Z" transform="translate(49.915 88.413)" fill="#fff"/>
    </g>
    <g id="Group_30" data-name="Group 30" transform="translate(43.979 135.287)">
      <path id="Path_30" data-name="Path 30" d="M-33.667-8.091A26.448,26.448,0,0,0-59.012-31.721c-10.275-.212-18.266,4.119-23.817,12.888a26.514,26.514,0,0,0-28.248-12.328c-10.165,2.325-17.071,8.722-19.972,18.5-2.912,9.814-.567,18.929,6.78,26.362,6.749,6.825,13.725,13.641,20.472,20.233q2.641,2.58,5.28,5.162c.769.752,1.527,1.513,2.263,2.262l3.116,3.27c2.283,2.479,4.251,4.818,6.019,7.147.7.919,1.363,1.86,2.069,2.856.333.47.672.948,1.021,1.434l1.118,1.557,1.234-1.467c.066-.078.128-.147.187-.213a4.732,4.732,0,0,0,.5-.637A87.48,87.48,0,0,1-68.434,40.348q6.019-5.944,12.057-11.867,7.356-7.228,14.694-14.474a26.2,26.2,0,0,0,8.017-22.1m-25.348-16a18.874,18.874,0,0,1,13.173,6.383A18.994,18.994,0,0,1-41.192-3.937a18.844,18.844,0,0,1-5.7,12.377q-7.582,7.506-15.188,14.989l-5.574,5.493c-.317.313-.637.622-1.038,1.011l-4.49,4.1L-82.846,44.78l-9.563-10.648-3.813-3.622-.087-.078c-.185-.149-.352-.279-.5-.4a6.556,6.556,0,0,1-.57-.47q-3.11-3.066-6.233-6.119c-5.066-4.964-10.305-10.1-15.354-15.237-5.279-5.373-6.875-11.7-4.743-18.8,2.1-7.006,6.861-11.412,14.143-13.1a18.121,18.121,0,0,1,4.088-.469,18.537,18.537,0,0,1,10.316,3.188A19,19,0,0,1-86.944-8.414l.209,1.243h7.818l.212-1.24A18.83,18.83,0,0,1-59.016-24.1" transform="translate(132.264 31.784)"/>
    </g>
  </g>
</svg>
