<svg id="Icon-Value" xmlns="http://www.w3.org/2000/svg" xmlns:xlink="http://www.w3.org/1999/xlink" width="151" height="151" viewBox="0 0 151 151">
  <defs>
    <clipPath id="clip-path">
      <path id="Path_52" data-name="Path 52" d="M0-234H151V-385H0Z" transform="translate(0 385)" fill="none"/>
    </clipPath>
  </defs>
  <g id="Group_54" data-name="Group 54" clip-path="url(#clip-path)">
    <g id="Group_39" data-name="Group 39" transform="translate(3.53 4.314)">
      <path id="Path_37" data-name="Path 37" d="M-221.844-110.922a71.578,71.578,0,0,1-71.578,71.578A71.578,71.578,0,0,1-365-110.922,71.578,71.578,0,0,1-293.422-182.5a71.578,71.578,0,0,1,71.578,71.578" transform="translate(365 182.5)" fill="#f28e33"/>
    </g>
    <g id="Group_40" data-name="Group 40" transform="translate(0)">
      <path id="Path_38" data-name="Path 38" d="M-117,0a75.5,75.5,0,0,0-75.5,75.5A75.5,75.5,0,0,0-117,151,75.5,75.5,0,0,0-41.5,75.5,75.5,75.5,0,0,0-117,0m0,144.332A68.833,68.833,0,0,1-185.832,75.5,68.833,68.833,0,0,1-117,6.668,68.833,68.833,0,0,1-48.168,75.5,68.833,68.833,0,0,1-117,144.332" transform="translate(192.5)"/>
    </g>
    <g id="Group_41" data-name="Group 41" transform="translate(22.356 19.326)">
      <path id="Path_39" data-name="Path 39" d="M-130.255-32.708c.944.159,1.9.327,2.9.491a7.928,7.928,0,0,0-.088-.956,85.353,85.353,0,0,1-1.853-20.141c0-.167,0-.334,0-.5h-5.147c.226,4.211.45,7.832.671,11.678a52.4,52.4,0,0,0-27.887-7.987A52.655,52.655,0,0,0-214.309,2.532,52.459,52.459,0,0,0-200.747,37.8l3.953-3.953A46.9,46.9,0,0,1-208.728,2.532a47.075,47.075,0,0,1,47.074-47.075,46.851,46.851,0,0,1,22.779,5.871c-3.433-.189-6.858-.382-10.463-.575v5.125a116.335,116.335,0,0,1,16.366.991c.824.113,1.647.245,2.48.384l.158.138c.031-.031.051-.066.079-.1" transform="translate(214.309 53.814)"/>
    </g>
    <g id="Group_42" data-name="Group 42" transform="translate(40.512 40.448)">
      <path id="Path_40" data-name="Path 40" d="M-4.5-109.269c-.944-.159-1.9-.327-2.9-.491a7.928,7.928,0,0,0,.088.956A85.353,85.353,0,0,1-5.457-88.664c0,.167,0,.334,0,.5H-.314C-.539-92.374-.764-96-.985-99.841A52.4,52.4,0,0,0,26.9-91.854a52.655,52.655,0,0,0,52.655-52.655A52.459,52.459,0,0,0,66-179.781l-3.953,3.953a46.9,46.9,0,0,1,11.934,31.319A47.075,47.075,0,0,1,26.9-97.434a46.851,46.851,0,0,1-22.779-5.871c3.433.189,6.858.382,10.463.575v-5.125a116.333,116.333,0,0,1-16.366-.991c-.824-.113-1.647-.245-2.48-.384l-.158-.138c-.031.031-.051.066-.079.1" transform="translate(7.398 179.781)"/>
    </g>
    <g id="Group_43" data-name="Group 43" transform="translate(54.331 46.489)">
      <path id="Path_41" data-name="Path 41" d="M-34.559-30.24c.912-.073,2.714-.187,4.509-.366a31.492,31.492,0,0,0,5.916-1.205,22.69,22.69,0,0,0,6.468-2.947,9.206,9.206,0,0,0,3.2-3.393,3.859,3.859,0,0,0,.324-2.834,6.24,6.24,0,0,0-1.6-2.65,14.588,14.588,0,0,0-3.757-2.708A25.771,25.771,0,0,0-23.833-48.1a32.547,32.547,0,0,0-4.94-1.139c-1.321-.2-2.66-.3-3.994-.406a39.737,39.737,0,0,0-9.405.42,45.658,45.658,0,0,0-4.583,1.055,21.212,21.212,0,0,0-5.885,2.553,9.947,9.947,0,0,0-3.66,3.566,4.038,4.038,0,0,0-.009,4.086A8.97,8.97,0,0,0-53.7-35.111a20.391,20.391,0,0,0,5.717,2.905,34.574,34.574,0,0,0,6.316,1.5,51.7,51.7,0,0,0,7.11.468" transform="translate(56.859 49.754)" fill="#2b2e34"/>
    </g>
    <g id="Group_44" data-name="Group 44" transform="translate(70.958 64.672)">
      <path id="Path_42" data-name="Path 42" d="M0-23c.06.073.069.1.084.1a28.512,28.512,0,0,0,5.2,1.337c1.55.246,3.118.408,4.683.529a40.152,40.152,0,0,0,9.645-.478A33.17,33.17,0,0,0,25.465-23a19.185,19.185,0,0,0,5.972-3.254,7.519,7.519,0,0,0,2.306-3.005,3.916,3.916,0,0,0-.357-3.554,8.715,8.715,0,0,0-2.283-2.5,20.388,20.388,0,0,0-4.256-2.449.517.517,0,0,0-.72.164,11.063,11.063,0,0,1-2.548,2.151c-.984.619-2.031,1.136-3.042,1.712a.626.626,0,0,0-.283.349A8.3,8.3,0,0,1,17.8-29.271a17.839,17.839,0,0,1-5.457,3.478,29.932,29.932,0,0,1-7.062,2.085c-1.51.246-3.033.408-4.55.609C.5-23.07.271-23.038,0-23" transform="translate(0 37.842)" fill="#2b2e34"/>
    </g>
    <g id="Group_45" data-name="Group 45" transform="translate(54.32 89.028)">
      <path id="Path_43" data-name="Path 43" d="M-65.179,0a2,2,0,0,0-.233.158,17.545,17.545,0,0,1-4.618,2.951,26.056,26.056,0,0,1-4.953,1.727c-1.549.354-3.111.653-4.674.939a16.7,16.7,0,0,1-2.057.214c-1.528.086-3.059.2-4.588.2a38.9,38.9,0,0,1-6.9-.6c-1.224-.224-2.444-.486-3.646-.8-1.064-.282-2.11-.64-3.149-1.009A19.106,19.106,0,0,1-106.216.214c-.072-.062-.156-.112-.257-.183-.129.238-.243.44-.348.646a3.528,3.528,0,0,0-.274,2.658,7.017,7.017,0,0,0,2.374,3.348,17.814,17.814,0,0,0,4.8,2.823,27.351,27.351,0,0,0,4.388,1.417c1.016.236,2.038.455,3.067.622.94.153,1.891.238,2.84.331a39.67,39.67,0,0,0,6.144.112,32.27,32.27,0,0,0,5.4-.656c1.547-.356,3.11-.681,4.617-1.17a18.937,18.937,0,0,0,6.54-3.46,7.468,7.468,0,0,0,2.274-2.991A3.89,3.89,0,0,0-65.179,0" transform="translate(107.239)" fill="#2b2e34"/>
    </g>
    <g id="Group_46" data-name="Group 46" transform="translate(46.526 57.571)">
      <path id="Path_44" data-name="Path 44" d="M-53.121-21.89-53.142-22c-.1,0-.2-.007-.294,0-.536.044-1.071.1-1.608.136a46.953,46.953,0,0,1-6.693-.019,42.1,42.1,0,0,1-5.419-.759,34.045,34.045,0,0,1-4.932-1.408,20.675,20.675,0,0,1-6.469-3.666,9.6,9.6,0,0,1-2.109-2.536,5.807,5.807,0,0,1-.835-2.578c-.042-.932-.046-1.866-.068-2.8,0-.117-.011-.233-.018-.386a1.954,1.954,0,0,0-.227.094c-.7.421-1.429.811-2.1,1.274a8.753,8.753,0,0,0-2.956,3.132,3.957,3.957,0,0,0-.479,2.521,5.8,5.8,0,0,0,1.677,3.073,14.108,14.108,0,0,0,3.458,2.558,24.065,24.065,0,0,0,5.584,2.195,42.464,42.464,0,0,0,4.526.906,39.108,39.108,0,0,0,4.451.409c1.651.053,3.31.016,4.959-.087a38.579,38.579,0,0,0,4.133-.516c1.165-.2,2.312-.516,3.459-.813.67-.174,1.324-.411,1.986-.62" transform="translate(87.4 36.015)" fill="#2b2e34"/>
    </g>
    <g id="Group_47" data-name="Group 47" transform="translate(54.326 77.725)">
      <path id="Path_45" data-name="Path 45" d="M-53.123-14.818l-.02-.107c-.1,0-.2-.005-.293,0-1.144.073-2.287.165-3.432.218a42.418,42.418,0,0,1-8.973-.6,33.865,33.865,0,0,1-5.213-1.3,24.531,24.531,0,0,1-5.552-2.571,11.983,11.983,0,0,1-3.657-3.382,1.168,1.168,0,0,0-.864-.517c-.966-.175-1.932-.36-2.887-.588-.865-.207-1.714-.482-2.575-.71a.364.364,0,0,0-.323.1,3.775,3.775,0,0,0-.03,3.668A7.816,7.816,0,0,0-84.9-18.1a19.894,19.894,0,0,0,6.673,3.534,29.631,29.631,0,0,0,6.062,1.383c1.652.187,3.309.346,4.968.434a32.193,32.193,0,0,0,5.5-.2c1.037-.124,2.08-.219,3.1-.415,1.2-.23,2.391-.537,3.577-.844.64-.166,1.263-.4,1.893-.606" transform="translate(87.404 24.38)" fill="#2b2e34"/>
    </g>
    <g id="Group_48" data-name="Group 48" transform="translate(44.319 44.593)">
      <path id="Path_46" data-name="Path 46" d="M-53.255-96.432c1.322-.132,2.653-.2,3.964-.408A34.5,34.5,0,0,0-41.3-99a19.292,19.292,0,0,0,5.5-3.294,9.125,9.125,0,0,0,2.565-3.5,6.724,6.724,0,0,0,.439-2.409c.007-1.127-.011-2.254,0-3.38a6.513,6.513,0,0,0-1.134-3.844.683.683,0,0,1,.013-.913,6.752,6.752,0,0,0,.99-2.206.56.56,0,0,1,.267-.323,20.681,20.681,0,0,0,4.148-2.517,9.381,9.381,0,0,0,3.2-4.235c.105-.309.172-.631.257-.948l.035,0s.714-3.488,0-5.749a7.368,7.368,0,0,0-1.356-3.045,12.769,12.769,0,0,0-2.885-2.767,21.819,21.819,0,0,0-3.9-2.152c-.242-.106-.261-.213-.157-.439a5.864,5.864,0,0,0,.522-2.449c0-1.248.022-2.5,0-3.746a6.9,6.9,0,0,0-1.4-4.068,14.151,14.151,0,0,0-4.556-3.817,25.113,25.113,0,0,0-4.363-1.908c-1.044-.354-2.117-.626-3.187-.892a39.16,39.16,0,0,0-6-.947c-.333-.03-.669-.036-1-.057,0,0-4.085-.138-5.857,0-1.639.132-3.268.3-4.89.582a33.945,33.945,0,0,0-5.095,1.272,21,21,0,0,0-7.528,4.1,9.024,9.024,0,0,0-2.47,3.419c-.132.338-.2.7-.317,1.045a.6.6,0,0,1-.258.324,20,20,0,0,0-4.2,2.554,9.324,9.324,0,0,0-3.148,4.2c-.107.322-.17.658-.286.985a15.316,15.316,0,0,0,0,5.719,7.935,7.935,0,0,0,.835,2.206,9.489,9.489,0,0,0,1.7,2.17,18.494,18.494,0,0,0,5.582,3.56c.246.108.282.208.175.457a6.479,6.479,0,0,0-.522,2.635c.013,1.117.017,2.234,0,3.35a6.6,6.6,0,0,0,1.151,3.842.535.535,0,0,1,.009.7,6.585,6.585,0,0,0-1.16,3.868c.014,1.045.011,2.091,0,3.137a7.123,7.123,0,0,0,1.507,4.555,13.059,13.059,0,0,0,2.925,2.724,23.088,23.088,0,0,0,5.912,2.871,33.925,33.925,0,0,0,5.062,1.281,42.407,42.407,0,0,0,5.254.618,38.16,38.16,0,0,0,5.673-.014" transform="translate(87.62 158.659)"/>
    </g>
    <g id="Group_49" data-name="Group 49" transform="translate(70.958 64.672)">
      <path id="Path_47" data-name="Path 47" d="M0-23c.271-.037.5-.069.728-.1,1.517-.2,3.04-.363,4.55-.609a29.932,29.932,0,0,0,7.062-2.085A17.839,17.839,0,0,0,17.8-29.271a8.3,8.3,0,0,0,2.457-4.116.626.626,0,0,1,.283-.349c1.011-.576,2.058-1.094,3.042-1.712A11.063,11.063,0,0,0,26.127-37.6a.517.517,0,0,1,.72-.164A20.388,20.388,0,0,1,31.1-35.314a8.715,8.715,0,0,1,2.283,2.5,3.916,3.916,0,0,1,.357,3.554,7.519,7.519,0,0,1-2.306,3.005A19.185,19.185,0,0,1,25.465-23a33.17,33.17,0,0,1-5.851,1.49,40.152,40.152,0,0,1-9.645.478c-1.566-.121-3.133-.284-4.683-.529A28.512,28.512,0,0,1,.084-22.9C.069-22.9.06-22.927,0-23" transform="translate(0 37.842)" fill="#f28e33"/>
    </g>
    <g id="Group_50" data-name="Group 50" transform="translate(54.32 89.028)">
      <path id="Path_48" data-name="Path 48" d="M-65.179,0a3.89,3.89,0,0,1,.528,3.712A7.468,7.468,0,0,1-66.925,6.7a18.937,18.937,0,0,1-6.54,3.46c-1.507.488-3.07.814-4.617,1.17a32.27,32.27,0,0,1-5.4.656,39.67,39.67,0,0,1-6.144-.112c-.949-.093-1.9-.178-2.84-.331-1.029-.167-2.051-.386-3.067-.622A27.351,27.351,0,0,1-99.92,9.506a17.814,17.814,0,0,1-4.8-2.823A7.017,7.017,0,0,1-107.1,3.335a3.528,3.528,0,0,1,.274-2.658c.106-.206.22-.408.348-.646.1.071.185.121.257.183A19.106,19.106,0,0,0-100,3.771c1.039.369,2.085.728,3.149,1.009,1.2.318,2.422.58,3.646.8a38.9,38.9,0,0,0,6.9.6c1.529,0,3.06-.111,4.588-.2a16.7,16.7,0,0,0,2.057-.214c1.563-.285,3.125-.585,4.674-.939a26.056,26.056,0,0,0,4.953-1.727A17.545,17.545,0,0,0-65.413.158,2,2,0,0,1-65.179,0" transform="translate(107.239)" fill="#f28e33"/>
    </g>
    <g id="Group_51" data-name="Group 51" transform="translate(46.526 57.571)">
      <path id="Path_49" data-name="Path 49" d="M-53.121-21.89c-.661.209-1.315.446-1.986.62-1.147.3-2.294.611-3.459.813a38.579,38.579,0,0,1-4.133.516c-1.649.1-3.308.14-4.959.087a39.108,39.108,0,0,1-4.451-.409,42.464,42.464,0,0,1-4.526-.906,24.065,24.065,0,0,1-5.584-2.195,14.108,14.108,0,0,1-3.458-2.558,5.8,5.8,0,0,1-1.677-3.073,3.957,3.957,0,0,1,.479-2.521,8.753,8.753,0,0,1,2.956-3.132c.675-.463,1.4-.853,2.1-1.274a1.954,1.954,0,0,1,.227-.094c.007.153.015.269.018.386.022.933.026,1.867.068,2.8a5.807,5.807,0,0,0,.835,2.578,9.6,9.6,0,0,0,2.109,2.536,20.675,20.675,0,0,0,6.469,3.666,34.045,34.045,0,0,0,4.932,1.408,42.1,42.1,0,0,0,5.419.759,46.953,46.953,0,0,0,6.693.019c.537-.035,1.072-.092,1.608-.136.1-.008.2,0,.294,0l.021.112" transform="translate(87.4 36.015)" fill="#f28e33"/>
    </g>
    <g id="Group_52" data-name="Group 52" transform="translate(54.326 77.725)">
      <path id="Path_50" data-name="Path 50" d="M-53.123-14.818c-.63.2-1.253.441-1.893.606-1.186.307-2.375.615-3.577.844-1.023.2-2.067.291-3.1.415a32.193,32.193,0,0,1-5.5.2c-1.659-.088-3.317-.247-4.968-.434a29.631,29.631,0,0,1-6.062-1.383A19.894,19.894,0,0,1-84.9-18.1a7.816,7.816,0,0,1-2.043-2.5,3.775,3.775,0,0,1,.03-3.668.364.364,0,0,1,.323-.1c.861.228,1.71.5,2.575.71.955.228,1.921.413,2.887.588a1.168,1.168,0,0,1,.864.517,11.983,11.983,0,0,0,3.657,3.382,24.531,24.531,0,0,0,5.552,2.571,33.865,33.865,0,0,0,5.213,1.3,42.418,42.418,0,0,0,8.973.6c1.145-.053,2.288-.145,3.432-.218.1-.006.2,0,.293,0l.02.107" transform="translate(87.404 24.38)" fill="#fff"/>
    </g>
    <g id="Group_53" data-name="Group 53" transform="translate(54.331 46.489)">
      <path id="Path_51" data-name="Path 51" d="M-34.559-30.24a51.7,51.7,0,0,1-7.11-.468,34.574,34.574,0,0,1-6.316-1.5A20.391,20.391,0,0,1-53.7-35.111a8.97,8.97,0,0,1-2.607-2.849,4.038,4.038,0,0,1,.009-4.086,9.947,9.947,0,0,1,3.66-3.566,21.212,21.212,0,0,1,5.885-2.553,45.658,45.658,0,0,1,4.583-1.055,39.737,39.737,0,0,1,9.405-.42c1.334.107,2.673.206,3.994.406a32.547,32.547,0,0,1,4.94,1.139,25.771,25.771,0,0,1,4.327,1.752,14.588,14.588,0,0,1,3.757,2.708,6.24,6.24,0,0,1,1.6,2.65,3.859,3.859,0,0,1-.324,2.834,9.206,9.206,0,0,1-3.2,3.393,22.69,22.69,0,0,1-6.468,2.947,31.492,31.492,0,0,1-5.916,1.205c-1.8.18-3.6.294-4.509.366" transform="translate(56.859 49.754)" fill="#fff"/>
    </g>
  </g>
</svg>
