<svg xmlns="http://www.w3.org/2000/svg" xmlns:xlink="http://www.w3.org/1999/xlink" width="150" height="150" viewBox="0 0 150 150"><defs><style>.a{fill:none;}.b{clip-path:url(#a);}.c{fill:#23aaf7;}.d{fill:#fff;}</style><clipPath id="a"><path class="a" d="M0-235H150V-385H0Z" transform="translate(0 385)"/></clipPath></defs><g class="b"><g transform="translate(3.506 4.286)"><path class="c" d="M-222.792-111.4a71.1,71.1,0,0,1-71.1,71.1A71.1,71.1,0,0,1-365-111.4a71.1,71.1,0,0,1,71.1-71.1,71.1,71.1,0,0,1,71.1,71.1" transform="translate(365 182.5)"/></g><g transform="translate(0)"><path d="M-117.5,0a75,75,0,0,0-75,75,75,75,0,0,0,75,75,75,75,0,0,0,75-75,75,75,0,0,0-75-75m0,143.377A68.377,68.377,0,0,1-185.877,75,68.377,68.377,0,0,1-117.5,6.623,68.377,68.377,0,0,1-49.123,75,68.377,68.377,0,0,1-117.5,143.377" transform="translate(192.5)"/></g><g transform="translate(35.972 42.085)"><path d="M-121.741-28.854A20.554,20.554,0,0,0-141.436-47.22c-8.21-.17-14.568,3.4-18.9,10.623l-.166.274c-.094-.166-.183-.323-.273-.48a20.622,20.622,0,0,0-22.189-9.985c-8.022,1.835-13.251,6.676-15.539,14.387-2.264,7.63-.439,14.719,5.276,20.5,5.394,5.455,10.972,10.906,16.366,16.176q2.121,2.072,4.24,4.145.927.908,1.833,1.832l.436.443,3.3-3.672-1.557-1.734-3.018-2.864-.035-.03c-.143-.116-.273-.216-.391-.308a5.677,5.677,0,0,1-.513-.426q-2.485-2.449-4.98-4.889c-4.061-3.978-8.259-8.091-12.307-12.213A14.9,14.9,0,0,1-193.8-31.09c1.751-5.833,5.71-9.5,11.767-10.9a15.261,15.261,0,0,1,12.006,2.263,15.817,15.817,0,0,1,6.845,10.455l.082.487h5.229l.083-.486a15.681,15.681,0,0,1,16.4-13.06,15.71,15.71,0,0,1,10.966,5.316,15.818,15.818,0,0,1,3.873,11.471,15.68,15.68,0,0,1-4.74,10.3q-6.042,5.981-12.1,11.944l-4.517,4.452c-.252.249-.507.5-.824.8l-.575.558-3.045,2.748L-160.5,14.32l-4.832-5.381-.436.448c-.915.941-1.742,1.824-2.527,2.7l-.355.4.36.391c1.839,2,3.427,3.884,4.855,5.765.564.743,1.1,1.5,1.667,2.3.266.376.536.757.815,1.145l.439.611.484-.575c.057-.067.111-.128.162-.185a3.276,3.276,0,0,0,.343-.429A70.619,70.619,0,0,1-149.394,9.428q4.818-4.758,9.652-9.5c3.859-3.792,7.85-7.713,11.76-11.585a20.388,20.388,0,0,0,6.24-17.2" transform="translate(199.448 47.271)"/></g><g transform="translate(26.2 73.686)"><path class="d" d="M-30.468-53.966l3.166,3.525,5.575-6.2,1.988-1.795c.411-.4.67-.648.926-.9q5.427-5.351,10.852-10.706a10.568,10.568,0,0,0,3.207-6.967A10.641,10.641,0,0,0-14.8-88.382a10.639,10.639,0,0,0-11.106,8.844h-2.77a10.683,10.683,0,0,0-12.77-8.612,10.236,10.236,0,0,0-7.962,7.38,10.158,10.158,0,0,0,2.67,10.6C-43.028-66.4-39.217-62.721-35.447-59c.162.159.353.289.618.5l1.949,1.848.788.877Z" transform="translate(49.915 88.413)"/></g><g transform="translate(22.986 70.707)"><path d="M-80.733-19.4A13.823,13.823,0,0,0-93.979-31.751a13.584,13.584,0,0,0-12.448,6.736,13.858,13.858,0,0,0-14.764-6.443,13.43,13.43,0,0,0-10.438,9.668,13.291,13.291,0,0,0,3.544,13.778c3.527,3.567,7.174,7.129,10.7,10.575q1.38,1.348,2.76,2.7c.4.393.8.791,1.183,1.182l1.629,1.709c1.193,1.3,2.222,2.518,3.146,3.735.364.48.713.972,1.081,1.493.174.246.351.5.533.75l.584.814.645-.767c.034-.041.067-.077.1-.111a2.473,2.473,0,0,0,.263-.333A45.721,45.721,0,0,1-98.9,5.916q3.146-3.107,6.3-6.2,3.845-3.778,7.68-7.565a13.7,13.7,0,0,0,4.19-11.55m-13.248-8.365A9.864,9.864,0,0,1-87.1-24.429a9.927,9.927,0,0,1,2.431,7.2,9.849,9.849,0,0,1-2.977,6.469q-3.963,3.923-7.938,7.834L-98.494-.057c-.166.164-.333.325-.542.528l-2.347,2.142-5.053,5.618-5-5.565L-113.426.774l-.046-.041c-.1-.078-.184-.146-.264-.208a3.426,3.426,0,0,1-.3-.245q-1.625-1.6-3.258-3.2c-2.648-2.594-5.386-5.277-8.025-7.964a9.355,9.355,0,0,1-2.479-9.826,9.445,9.445,0,0,1,7.392-6.844,9.471,9.471,0,0,1,2.137-.245,9.689,9.689,0,0,1,5.392,1.666,9.929,9.929,0,0,1,4.3,6.561l.109.649h4.086l.111-.648a9.841,9.841,0,0,1,10.29-8.2" transform="translate(132.264 31.784)"/></g></g></svg>