<svg id="Icon-Right_Handset_Right_Price_Right_QUality" data-name="Icon-Right Handset, Right Price, Right QUality" xmlns="http://www.w3.org/2000/svg" width="151" height="150" viewBox="0 0 151 150">
  <ellipse id="Ellipse_49" data-name="Ellipse 49" cx="71.578" cy="71.104" rx="71.578" ry="71.104" transform="translate(3.53 4.286)" fill="#f28e33"/>
  <path id="Path_533" data-name="Path 533" d="M310.166,236.143c-41.7,0-75.5,33.578-75.5,75s33.8,75,75.5,75,75.5-33.579,75.5-75S351.864,236.143,310.166,236.143Zm0,143.376c-38.015,0-68.832-30.614-68.832-68.377s30.817-68.377,68.832-68.377S379,273.379,379,311.143,348.181,379.52,310.166,379.52Z" transform="translate(-234.666 -236.143)"/>
  <path id="Path_534" data-name="Path 534" d="M272.166,297.422q0-17.523,0-35.045c0-1.312,0-1.313,1.344-1.313q24.36,0,48.721-.021c.987,0,1.326.191,1.323,1.279q-.051,35.149,0,70.3c0,1.081-.327,1.282-1.32,1.281q-24.36-.045-48.721-.022c-1.347,0-1.348,0-1.348-1.41Z" transform="translate(-223.14 -228.705)" fill="#fff"/>
  <path id="Path_535" data-name="Path 535" d="M295.442,259.9q-5.2,0-10.392,0c-1.366,0-1.84-.5-1.832-1.9.008-1.372.461-1.856,1.769-1.856q10.44,0,20.882,0c1.315,0,1.77.479,1.783,1.843.012,1.407-.465,1.916-1.819,1.917Q300.637,259.907,295.442,259.9Z" transform="translate(-219.743 -230.17)" fill="#fff"/>
  <path id="Path_536" data-name="Path 536" d="M293.718,331.243a4.937,4.937,0,1,1,5.027-4.895A4.981,4.981,0,0,1,293.718,331.243Z" transform="translate(-218.05 -210.686)" fill="#fff"/>
  <path id="Path_537" data-name="Path 537" d="M330.344,306.012q0-14.363,0-28.725l-5.871,4.782q-.022,25.781.01,51.561c0,1.026-.315,1.218-1.271,1.216q-23.43-.041-46.861-.019c-1.3,0-1.3,0-1.3-1.339V300.2q0-16.642,0-33.283c0-1.245,0-1.247,1.293-1.248q23.43,0,46.862-.02c.948,0,1.275.182,1.272,1.216-.005,3.495,0,6.209-.008,9.7l5.869-4.109v-11.5c0-5.2-3.278-8.461-8.5-8.467q-5.293-.006-10.586,0-16.861,0-33.719,0a8.326,8.326,0,0,0-5.313,1.661,8.072,8.072,0,0,0-3.072,6.831q.02,45.053.008,90.105c0,.195,0,.39,0,.584a7.79,7.79,0,0,0,8,7.869q22.6.05,45.189.005a7.811,7.811,0,0,0,4.921-1.651,8,8,0,0,0,3.072-6.732Q330.328,328.588,330.344,306.012Zm-41.034-48.781q10.44,0,20.881,0c1.317,0,1.772.479,1.784,1.843.012,1.406-.465,1.916-1.818,1.917q-5.2.006-10.392,0t-10.392,0c-1.366,0-1.839-.5-1.832-1.9C287.55,257.716,288,257.232,289.309,257.232Zm10.425,94.586a4.937,4.937,0,1,1,5.027-4.895A4.981,4.981,0,0,1,299.734,351.818Z" transform="translate(-224.066 -231.261)"/>
  <g id="Group_1385" data-name="Group 1385" transform="translate(55.702 35.844)">
    <path id="Path_538" data-name="Path 538" d="M278.569,289.159a28.677,28.677,0,0,1,12.689,4.421c2.63,1.711,5.036,3.77,7.49,5.738.624.5.917.54,1.4-.133a93.275,93.275,0,0,1,15.206-16.509,129.312,129.312,0,0,1,14.567-10.765c4.2-2.681,8.517-5.175,12.793-7.738,1.075-.644,1.608-.561,2.161.223.465.66.277,1.34-.573,2.043A212.966,212.966,0,0,0,324.913,284.5a131.741,131.741,0,0,0-19.223,25.881c-1.616,2.883-2.976,5.908-4.518,8.833-.237.448-.86,1.006-1.264.978a2.015,2.015,0,0,1-1.356-1.026,82.75,82.75,0,0,0-11.119-17.588c-2.755-3.214-5.918-6.08-8.9-9.1-.279-.283-.686-.489-.854-.821-.23-.455-.515-1.084-.358-1.474C277.49,289.742,278.132,289.491,278.569,289.159Z" transform="translate(-277.273 -263.743)" fill="#23aaf7"/>
  </g>
</svg>
