<svg xmlns="http://www.w3.org/2000/svg" width="26" height="26" viewBox="0 0 26 26">
  <g id="Icon-Arrow_Next" data-name="Icon-Arrow / Next" transform="translate(26) rotate(90)">
    <path id="Path_319" data-name="Path 319" d="M2023.654,322.676a11.718,11.718,0,0,0,2.852,7.682l-.876.876a13,13,0,0,1,18.344-18.344l-.876.876a11.764,11.764,0,0,0-19.444,8.91Zm21.575-8.527-.877.877a11.764,11.764,0,0,1-16.587,16.587l-.877.877a13,13,0,0,0,18.34-18.34Zm-4.094,8.5a25.578,25.578,0,0,1-4.661-3.875l-.105-.107-1.091,1.091c.927.833,1.733,1.544,2.581,2.3h-8.382V323.3h8.615c-.878.817-2.218,2.108-2.884,2.706l1.086,1.086a34.842,34.842,0,0,1,3.678-3.258c.2-.151.4-.3.607-.444l.063,0c0-.013,0-.025,0-.038.234-.166.473-.334.719-.511A2.382,2.382,0,0,0,2041.134,322.648Z" transform="translate(-2022.416 -309.676)" fill="#fff"/>
  </g>
</svg>
