<svg xmlns="http://www.w3.org/2000/svg" width="36" height="36" viewBox="0 0 36 36">
  <g id="Icon-Arrow_Next" data-name="Icon-Arrow / Next" transform="translate(0 0)">
    <path id="Path_319" data-name="Path 319" d="M2024.13,327.676a16.224,16.224,0,0,0,3.949,10.636l-1.213,1.213a18,18,0,0,1,25.4-25.4l-1.213,1.213a16.289,16.289,0,0,0-26.922,12.337ZM2054,315.869l-1.214,1.214a16.288,16.288,0,0,1-22.966,22.966l-1.214,1.214A18,18,0,0,0,2054,315.869Zm-5.669,11.768a35.424,35.424,0,0,1-6.453-5.366l-.146-.148-1.51,1.51c1.284,1.153,2.4,2.138,3.573,3.185h-11.606v1.714h11.929c-1.216,1.132-3.072,2.918-3.994,3.746l1.5,1.5a48.276,48.276,0,0,1,5.092-4.511c.275-.209.555-.411.84-.615l.087-.006c0-.018,0-.035-.006-.052.324-.23.655-.463,1-.707A3.3,3.3,0,0,0,2048.334,327.637Z" transform="translate(-2022.416 -309.676)" fill="#59ddc1"/>
  </g>
</svg>
