<?xml version="1.0" encoding="utf-8"?>
<!-- Generator: Adobe Illustrator 22.0.1, SVG Export Plug-In . SVG Version: 6.00 Build 0)  -->
<svg version="1.1" id="Layer_1" xmlns="http://www.w3.org/2000/svg" xmlns:xlink="http://www.w3.org/1999/xlink" x="0px" y="0px"
	 viewBox="0 0 40 40" style="enable-background:new 0 0 40 40;" xml:space="preserve">
<style type="text/css">
	.st0{fill:#A375BC;}
</style>
<path class="st0" d="M1.9,20c0,4.3,1.6,8.5,4.4,11.8l-1.3,1.3c-7.3-8.3-6.4-21,1.9-28.2c7.5-6.6,18.8-6.6,26.3,0l-1.3,1.3
	c-7.6-6.5-19-5.7-25.5,1.9C3.5,11.5,1.9,15.7,1.9,20z M35.1,6.9l-1.3,1.3c6.5,7.6,5.6,19-2,25.5c-6.8,5.8-16.7,5.8-23.5,0l-1.3,1.3
	c8.3,7.2,21,6.4,28.2-2C41.6,25.6,41.6,14.4,35.1,6.9z"/>
</svg>
