<svg xmlns="http://www.w3.org/2000/svg" xmlns:xlink="http://www.w3.org/1999/xlink" width="211" height="211" viewBox="0 0 211 211"><defs><style>.a{fill:none;}.b{clip-path:url(#a);}.c{fill:#fcc44c;}.d{fill:#fff;}</style><clipPath id="a"><path class="a" d="M0-174H211V-385H0Z" transform="translate(0 385)"/></clipPath></defs><g class="b"><g transform="translate(4.932 6.029)"><path class="c" d="M-164.961-82.481A100.019,100.019,0,0,1-264.981,17.539,100.019,100.019,0,0,1-365-82.481,100.019,100.019,0,0,1-264.981-182.5,100.019,100.019,0,0,1-164.961-82.481" transform="translate(365 182.5)"/></g><path d="M-87,0A105.5,105.5,0,0,0-192.5,105.5,105.5,105.5,0,0,0-87,211,105.5,105.5,0,0,0,18.5,105.5,105.5,105.5,0,0,0-87,0m0,201.683A96.183,96.183,0,0,1-183.183,105.5,96.183,96.183,0,0,1-87,9.317,96.183,96.183,0,0,1,9.183,105.5,96.183,96.183,0,0,1-87,201.683" transform="translate(192.5)"/><g transform="translate(36.784 43.013)"><path d="M-113.636-31.347a42,42,0,0,0-12.184-25.625,42.094,42.094,0,0,0-25.69-12.146l-7.055.015c0,.027,0,.054,0,.081-.949.122-1.9.229-2.845.37a40.687,40.687,0,0,0-19,8.061c-.516.394-1.045.775-1.522,1.213a.7.7,0,0,1-1.093.012,41.289,41.289,0,0,0-9.131-5.852,39.171,39.171,0,0,0-9.672-3.134c-1.465-.273-2.946-.466-4.418-.751a27.175,27.175,0,0,0-7.177,0,41.794,41.794,0,0,0-25.759,12.171,41.869,41.869,0,0,0-12.137,25.712,53.558,53.558,0,0,0,.007,7.375l.1-.01c.113.829.223,1.658.34,2.487a39.091,39.091,0,0,0,3.715,12c.518,1.04,1.088,2.055,1.66,3.066a.757.757,0,0,1-.1,1.011,12.4,12.4,0,0,0,5.27,19.862,13.263,13.263,0,0,0,4.213.709c.458.005.618.134.624.614A12.174,12.174,0,0,0-229.2,26.809a11.614,11.614,0,0,0,6.092,1.616c.619,0,.812.18.8.8a12.33,12.33,0,0,0,7.939,11.541,12.019,12.019,0,0,0,4.4.811c.666-.005.83.235.823.863a12.274,12.274,0,0,0,9.021,11.831,12.093,12.093,0,0,0,11.706-2.756c.28-.246.556-.5.848-.759a11.408,11.408,0,0,0,7.27,4.623,14.472,14.472,0,0,0,3.665,0c1-.318,1.863-.525,2.67-.858a11.338,11.338,0,0,0,6.568-6.865,11.459,11.459,0,0,0,.424-1.41c.1-.465.32-.55.768-.425a11.386,11.386,0,0,0,11.878-3.134A11.128,11.128,0,0,0-151.139,35c.023-.659.261-.812.876-.825a11.6,11.6,0,0,0,11.143-9.809,10.016,10.016,0,0,0,.184-1.6c-.007-.556.191-.729.733-.749a12.138,12.138,0,0,0,5.97-1.8,11.725,11.725,0,0,0,5.01-13.1,14.9,14.9,0,0,0-.787-2.062.875.875,0,0,1,.191-1.128C-125.941,1.889-124-.1-122.248-2.252A37.381,37.381,0,0,0-116.3-12.86a38.8,38.8,0,0,0,2.476-10.822.73.73,0,0,1,.2-.386,66.966,66.966,0,0,0-.008-7.278" transform="translate(251.436 69.359)"/></g><g transform="translate(45.762 99.032)"><path class="d" d="M-2.162-17.458A6.039,6.039,0,0,1-2.827-26.9q4.845-4.991,9.846-9.828a6.1,6.1,0,0,1,9.4.657,5.905,5.905,0,0,1,1.166,3.88,5.936,5.936,0,0,1-1.93,4.257q-4.83,4.863-9.693,9.693a6.047,6.047,0,0,1-8.126.777" transform="translate(4.784 38.629)"/></g><g transform="translate(58.953 112.169)"><path class="d" d="M-8.389-17.221a5.936,5.936,0,0,1-6.89.757,6.17,6.17,0,0,1-3.259-6.024,5.759,5.759,0,0,1,1.648-3.6c3.508-3.527,6.954-7.125,10.6-10.5a6.042,6.042,0,0,1,9.815,3.032c.141.558.215,1.134.321,1.7a6.388,6.388,0,0,1-2.031,4.5Q-2.045-23.471-5.925-19.6c-.808.807-1.588,1.652-2.464,2.381" transform="translate(18.562 38.104)"/></g><g transform="translate(72.106 125.356)"><path class="d" d="M-7.538-17.772a4.682,4.682,0,0,1-2.887.778,6.205,6.205,0,0,1-6.206-6.921,6.5,6.5,0,0,1,1.972-3.809q4.8-4.805,9.61-9.591a6.129,6.129,0,0,1,8.237-.763,6.169,6.169,0,0,1,.537,9.465C.842-25.761-2-22.866-4.889-20.02a21.837,21.837,0,0,1-2.649,2.248" transform="translate(16.679 39.323)"/></g><g transform="translate(85.27 138.494)"><path class="d" d="M-12.959-12.694C-14.791-10.855-16.612-9-18.5-7.224a5.464,5.464,0,0,1-3.985,1.5,6.183,6.183,0,0,1-6.121-7.064,6.526,6.526,0,0,1,1.947-3.677q4.793-4.8,9.6-9.579A6.116,6.116,0,0,1-8.507-26.6a6.014,6.014,0,0,1,.844,8.48c-1.66,1.9-3.511,3.637-5.3,5.428" transform="translate(28.674 28.088)"/></g><g transform="translate(104.636 151.241)"><path class="d" d="M-8.712-4.715A5.548,5.548,0,0,1-12.59-.341a5.407,5.407,0,0,1-5.084-1.139c-.476-.392-.993-.735-1.6-1.182,1-.97,1.989-1.869,2.9-2.841,1.486-1.577,2.916-3.207,4.388-4.8a.566.566,0,0,1,.533-.1C-9.521-9-8.3-7.277-8.712-4.715" transform="translate(19.277 10.432)"/></g><g transform="translate(43.144 49.461)"><path class="c" d="M-91.77-62.687a5.542,5.542,0,0,1-5.3,2.617,5.866,5.866,0,0,1-3.559-1.844q-7.385-7.393-14.777-14.779c-.443-.443-.879-.894-1.337-1.323a3.08,3.08,0,0,0-4.455-.037,3.039,3.039,0,0,0,.065,4.448c3.274,3.315,6.58,6.6,9.873,9.893,2.137,2.14,4.29,4.264,6.4,6.425a5.452,5.452,0,0,1-.544,8.361,5.288,5.288,0,0,1-6.49-.055c-1.931-1.735-3.753-3.6-5.595-5.429-3.813-3.795-7.6-7.612-11.413-11.41a3.121,3.121,0,0,0-4.462-.081,3.088,3.088,0,0,0,.041,4.458c4.807,4.828,9.646,9.624,14.437,14.467a17.376,17.376,0,0,1,2.974,3.513,5.344,5.344,0,0,1-3.327,7.525,5.393,5.393,0,0,1-5.306-1.217c-2.394-2.089-4.772-4.2-7.175-6.275a1.928,1.928,0,0,1-.7-1.359,12.141,12.141,0,0,0-6.235-9.5,11.768,11.768,0,0,0-6.1-1.587c-.584,0-.749-.159-.763-.757a12.09,12.09,0,0,0-6.978-11.164,11.266,11.266,0,0,0-5.381-1.241c-.578.009-.765-.161-.783-.757a12.179,12.179,0,0,0-7.053-11.194,11.765,11.765,0,0,0-5.321-1.222c-.587,0-.769-.188-.784-.769a12.018,12.018,0,0,0-6.9-11.083,12.336,12.336,0,0,0-14.563,2.59c-1.564,1.6-3.164,3.17-4.753,4.75-.166.165-.36.3-.55.457-7.4-12.44-6.422-32.6,8.951-44.809,14.893-11.832,34.179-8.529,44.3.55-.772.649-1.532,1.3-2.3,1.936q-7.991,6.573-15.988,13.141c-1.9,1.565-3.8,3.135-5.715,4.689a7.323,7.323,0,0,0-2.839,7.135,7.2,7.2,0,0,0,4.535,5.747,26.664,26.664,0,0,0,14.227,1.706,33,33,0,0,0,13.58-4.928,56.571,56.571,0,0,0,4.665-3.394,2.069,2.069,0,0,1,2.161-.33c2.12.7,4.283,1.263,6.414,1.928a3.394,3.394,0,0,1,1.365.759q14.3,14.3,28.558,28.648c1.518,1.524,3.046,3.042,4.479,4.643a5.246,5.246,0,0,1,.419,6.156" transform="translate(203.055 138.704)"/></g><g transform="translate(80.151 49.521)"><path class="d" d="M-72.53-32.771a34.849,34.849,0,0,1-9.788,20.248c-.7.724-1.4,1.449-2.089,2.189-.311.337-.541.35-.879.009q-7.033-7.089-14.086-14.157-5.36-5.38-10.722-10.76c-.216-.216-.418-.447-.774-.83l2.625-.452a25.739,25.739,0,0,0,10.737-4.5,28.86,28.86,0,0,0,3.022-2.451,3.066,3.066,0,0,0-1.263-5.316,2.883,2.883,0,0,0-2.713.564c-1.162.874-2.276,1.82-3.483,2.624a20.11,20.11,0,0,1-7.171,2.881,25.026,25.026,0,0,1-8.557.211,32.112,32.112,0,0,1-7.512-1.974,7.676,7.676,0,0,0-8.388,1.345A30.142,30.142,0,0,1-145-36.962a22.935,22.935,0,0,1-11.493.454,24.188,24.188,0,0,1-2.94-.908,1.271,1.271,0,0,1-.386-2.375q5.753-4.746,11.525-9.469,7.628-6.272,15.253-12.551c1.986-1.633,3.873-3.414,5.991-4.854a33.693,33.693,0,0,1,18.5-5.836,34.519,34.519,0,0,1,23.164,7.821A34.507,34.507,0,0,1-74.039-48.289,34.879,34.879,0,0,1-72.53-32.771" transform="translate(160.484 72.511)"/></g></g><g transform="translate(80.714 43.416)"><path class="c" d="M0,0-30.428,24.94l-7.8-5.422,31-26Z" transform="translate(38.224 6.482)"/></g></svg>