<svg xmlns="http://www.w3.org/2000/svg" width="151" height="151" viewBox="0 0 151 151"><defs><style>.a{fill:#23aaf7;}.b{fill:#db1c24;}.c{fill:#fff;}.d{fill:#319ce3;font-size:19px;font-family:BebasNeue, Bebas Neue;}</style></defs><circle class="a" cx="71.471" cy="71.471" r="71.471" transform="translate(3.476 4.582)"/><path d="M833.39,185.178a75.5,75.5,0,1,0,75.5,75.5A75.5,75.5,0,0,0,833.39,185.178Zm0,144.332a68.832,68.832,0,1,1,68.832-68.832A68.833,68.833,0,0,1,833.39,329.51Z" transform="translate(-757.89 -185.178)"/><path class="b" d="M853,372.488h7.651l5.637-7.248,6.443,1.208,2.416,6.04h36.643l2.416-6.04,4.429-.805,6.443,2.416v4.429h10.469V340.677l-4.832-7.651L922.661,329H853Z" transform="translate(-816.83 -273.178)"/><rect class="c" width="56.46" height="38.656" transform="translate(34.802 41.137)"/><path d="M934.972,322.625a29.476,29.476,0,0,0-.207-3.387,18.337,18.337,0,0,0-15.315-15.885,44.673,44.673,0,0,0-6.127-.3c-.879,0-1.787-.006-2.674-.032-.461-.014-.922-.01-1.431-.007l-.38,0c-.038-1.944-.03-3.878-.023-5.753.008-2.254.016-4.584-.054-6.872l-.013-.39H846.9l-.062.328c-.356,1.884-.271,52.114,0,60.417l.086.792h8.69a9.349,9.349,0,0,0,18.009,0h32.033a9.349,9.349,0,0,0,18.035-.1l10.819-.012.393,0,.017-.579c.016-.414.054-1.383.055-1.88v-.893C934.983,339.733,934.988,331.108,934.972,322.625Zm-83.2,8.8c1-.068,2.021-.057,3.014-.045.539.006,1.078.012,1.617.006,1.211-.013,2.421-.013,3.631-.013l39.906-.056,3.083-.008q1.736,0,3.593,0h2.132l.025-.376c.043-.649.041-1.189.041-1.712v-.3q.011-7.476.006-14.951V311.7h-5.188v14.5c-15.878.083-31.963.1-47.521.115l-4.319,0V295.052h51.841v13.081h.4c.329,0,.855,0,1.518-.008,3.432-.025,10.576-.076,12.968.236a13.223,13.223,0,0,1,11.255,12.058c.037.435.079.927.079,1.4q.008,11.732,0,23.465c0,.108,0,.215,0,.325,0,.205.006.415,0,.644h-4.166l-2.088.015a9.351,9.351,0,0,0-17.9.108l-6.422,0c-8.615,0-17.523-.007-25.677.026a9.351,9.351,0,0,0-17.916-.11l-3.914-.024Zm17.065,17.6a4.21,4.21,0,1,1-4.21-4.21A4.215,4.215,0,0,1,868.832,349.023Zm45.831-4.21a4.21,4.21,0,1,1-4.21,4.21A4.215,4.215,0,0,1,914.664,344.813Z" transform="translate(-813.04 -249.753)"/><text class="d" transform="translate(50.073 66.675)"><tspan x="0" y="0">free</tspan></text></svg>