<svg xmlns="http://www.w3.org/2000/svg" width="40" height="40" viewBox="0 0 40 40"><g transform="translate(-931.942 -3132.941)"><path d="M2462.049,399.981l1.659,1.913c-.219.315-.431.635-.644.961,0,.032,0,.064,0,.1-.02,0-.038,0-.058,0-.241.37-.483.748-.739,1.138a3.65,3.65,0,0,1-.3-.328,68.2,68.2,0,0,0-5.351-6.049,68.187,68.187,0,0,0-5.35,6.049,3.681,3.681,0,0,1-.3.328c-.256-.389-.5-.768-.739-1.138-.02,0-.038,0-.058,0,0-.032,0-.064,0-.1-.213-.326-.425-.647-.644-.961l1.659-1.913,3.856-3.9c-2.192-2.241-4.291-4.3-5.344-5.254l-.171-.155,1.606-1.746c.628.644,3.069,3.116,5.484,5.561,2.415-2.444,4.856-4.917,5.485-5.561l1.606,1.746-.171.155c-1.053.957-3.153,3.013-5.344,5.254Zm-23.527-3.476a18.026,18.026,0,0,0,4.388,11.818l-1.348,1.348a20,20,0,0,1,28.221-28.221l-1.348,1.348a18.1,18.1,0,0,0-29.914,13.707Zm33.193-13.119-1.349,1.349a18.1,18.1,0,0,1-25.518,25.518L2443.5,411.6a20,20,0,0,0,28.216-28.216Z" transform="translate(-1504.675 2756.437)"/></g></svg>