<svg xmlns="http://www.w3.org/2000/svg" width="98.844" height="99.709" viewBox="0 0 98.844 99.709">
  <g id="Group_2630" data-name="Group 2630" transform="translate(-3014.541 -7807.76)">
    <g id="Group_2631" data-name="Group 2631" transform="translate(3022.191 7816.274)">
      <circle id="Ellipse_82" data-name="Ellipse 82" cx="43.229" cy="43.229" r="43.229" transform="translate(1.461 2.606)" fill="#4ec5a8"/>
      <path id="Path_769" data-name="Path 769" d="M1183.045,1114.332a45.6,45.6,0,1,0,45.6,45.6A45.6,45.6,0,0,0,1183.045,1114.332Zm0,87.168a41.57,41.57,0,1,1,41.57-41.57A41.571,41.571,0,0,1,1183.045,1201.5Z" transform="translate(-1137.448 -1114.332)"/>
      <g id="Group_1778" data-name="Group 1778" transform="translate(18.954 15.517)">
        <g id="Group_1767" data-name="Group 1767" transform="translate(0 21.486)">
          <path id="Path_770" data-name="Path 770" d="M1261.594,1278.162c-.7.958-.7.961,0,1.553q3.394,2.864,6.792,5.725c1.125.949,2.241,1.909,3.38,2.841a.933.933,0,0,1,.259,1.024c-.026.134-.277.284-.448.321q-5.017,1.085-10.043,2.128a.96.96,0,0,1-.687-.182c-.623-.48-1.21-1.007-1.812-1.514-.637-.536-1.276-1.069-1.919-1.608-.562.849-.531,1.1.158,1.676.616.517,1.226,1.042,1.849,1.551a3,3,0,0,0,.491.271l-.139.214c-.223.062-.443.137-.668.185q-12.152,2.58-24.3,5.161a.683.683,0,0,1-.794-.274c-1.269-1.679-2.559-3.344-3.838-5.016-.109-.143-.2-.3-.353-.549l5.227-1.051c-.165-1.077-.252-1.142-1.184-.958-1.461.288-2.922.571-4.382.861a.7.7,0,0,1-.807-.25q-3.609-4.738-7.242-9.458c-.1-.128-.171-.274-.315-.507l7.307-1.232c-.557-1.01-.687-1.076-1.668-.912q-2.557.427-5.115.846c-.24.039-.487.041-.79.065.045-.25.067-.416.106-.579.365-1.531.735-3.061,1.1-4.593.218-.913.088-1.132-.852-1.441-.042.147-.09.291-.125.438-.426,1.763-.858,3.525-1.272,5.292a10.059,10.059,0,0,0-.4,2.056c-.069,3.662-.027,7.327-.134,10.988a5.61,5.61,0,0,0,1.347,3.847q6.056,7.648,12.012,15.375a2.132,2.132,0,0,0,2.4.886c5.057-1.141,10.124-2.243,15.187-3.359q10.778-2.375,21.556-4.75a1.845,1.845,0,0,0,1.694-2.079c.029-4.177.048-8.353.084-12.53a1.244,1.244,0,0,0-.492-1.057q-4.623-3.875-9.223-7.779C1262.9,1279.25,1262.258,1278.717,1261.594,1278.162Z" transform="translate(-1218.614 -1272.008)" fill="#fff"/>
          <path id="Path_771" data-name="Path 771" d="M1232.926,1310.32a2.456,2.456,0,0,1-2.022-1.1c-3.559-4.6-7.769-10.016-12.009-15.372a5.924,5.924,0,0,1-1.424-4.078c.061-2.1.074-4.236.087-6.3.009-1.534.019-3.12.048-4.681a7.247,7.247,0,0,1,.291-1.658c.04-.158.081-.315.118-.472.317-1.351.644-2.7.971-4.049l.3-1.245c.026-.107.057-.212.089-.318l.142-.489.35.115c1.114.365,1.348.765,1.087,1.861q-.283,1.189-.569,2.377-.266,1.107-.531,2.215c-.009.037-.016.075-.024.113.109-.008.209-.017.306-.032q2.558-.416,5.114-.846c1.142-.191,1.409-.048,2.037,1.091l.242.439-7.284,1.228.021.028,2.192,2.859q2.529,3.3,5.051,6.6c.107.14.18.172.456.117q1.324-.263,2.649-.521l1.733-.34c.5-.1.85-.149,1.134.051s.376.594.469,1.2l.051.335-5.056,1.017c.021.031.041.06.062.087q.634.828,1.27,1.655c.845,1.1,1.719,2.237,2.569,3.362.116.153.192.193.437.141q8.212-1.748,16.425-3.488l7.879-1.672c.057-.012.115-.026.172-.042l-.007-.006c-.425-.347-.844-.7-1.262-1.056l-.59-.5c-.83-.7-.878-1.157-.226-2.144l.219-.332.966.809q.632.528,1.259,1.055c.183.154.364.309.545.465.406.349.827.711,1.255,1.04a.628.628,0,0,0,.4.116c2.982-.615,6.173-1.291,10.04-2.128a.532.532,0,0,0,.184-.093c.062-.344.027-.489-.145-.629-.81-.662-1.62-1.349-2.4-2.014q-.49-.416-.981-.83l-2.329-1.962q-2.232-1.88-4.463-3.762c-.889-.75-.83-.974-.061-2.033l.224-.307.915.763c.447.373.886.739,1.323,1.108l2.521,2.13c2.194,1.854,4.463,3.772,6.7,5.649a1.591,1.591,0,0,1,.619,1.332q-.034,4-.055,7.995-.014,2.267-.029,4.534a2.19,2.19,0,0,1-1.972,2.424l-14.1,3.108-7.454,1.642-3.855.848c-3.715.816-7.557,1.66-11.33,2.511A3.353,3.353,0,0,1,1232.926,1310.32Zm-12.932-38.857c-.005.021-.011.041-.016.062l-.3,1.245c-.327,1.347-.653,2.694-.97,4.044-.038.162-.08.324-.121.487a6.618,6.618,0,0,0-.269,1.495c-.029,1.557-.038,3.14-.047,4.672-.012,2.071-.025,4.213-.087,6.32a5.256,5.256,0,0,0,1.27,3.616c4.242,5.358,8.454,10.78,12.014,15.378a1.791,1.791,0,0,0,2.043.756c3.775-.851,7.618-1.7,11.334-2.512l3.855-.848,7.454-1.642q7.051-1.553,14.1-3.108a1.5,1.5,0,0,0,1.415-1.734q.016-2.267.029-4.534.025-4,.055-8a.891.891,0,0,0-.365-.781c-2.24-1.877-4.509-3.8-6.7-5.65l-2.521-2.13c-.436-.368-.874-.734-1.32-1.106l-.33-.275a1.481,1.481,0,0,0-.233.4,3.1,3.1,0,0,0,.4.366q2.231,1.882,4.463,3.762l2.329,1.963q.492.415.983.832c.781.662,1.588,1.347,2.393,2.005a1.289,1.289,0,0,1,.383,1.368c-.067.337-.478.547-.722.6-3.87.837-7.063,1.513-10.047,2.129a1.3,1.3,0,0,1-.976-.249c-.443-.341-.871-.708-1.285-1.064-.179-.154-.359-.308-.54-.46q-.626-.528-1.257-1.054l-.349-.292c-.237.418-.129.508.3.871l.592.5c.416.352.831.7,1.253,1.048a1.372,1.372,0,0,0,.259.146c.06.028.119.057.176.088l.339.184-.422.649-.13.036c-.07.019-.139.04-.208.061-.155.046-.315.094-.482.13l-7.879,1.672q-8.213,1.743-16.425,3.488a1.032,1.032,0,0,1-1.152-.407c-.849-1.123-1.722-2.259-2.566-3.358q-.635-.828-1.271-1.656a4.094,4.094,0,0,1-.231-.35c-.041-.067-.086-.14-.139-.224l-.28-.437,5.4-1.086a1.109,1.109,0,0,0-.12-.395,2.157,2.157,0,0,0-.588.066l-1.734.34q-1.324.259-2.648.521a1.046,1.046,0,0,1-1.16-.384q-2.516-3.3-5.049-6.6l-2.193-2.859a3.16,3.16,0,0,1-.21-.327c-.036-.062-.077-.131-.126-.21l-.277-.449,7.326-1.235c-.266-.427-.4-.4-1.049-.3q-2.558.426-5.117.846a5.293,5.293,0,0,1-.543.05c-.087,0-.179.01-.277.018l-.46.036.083-.454c.016-.084.028-.16.04-.228.024-.141.043-.256.07-.37q.265-1.108.531-2.216.285-1.188.569-2.376C1220.4,1271.781,1220.435,1271.641,1219.993,1271.462Z" transform="translate(-1217.468 -1270.55)"/>
        </g>
        <g id="Group_1768" data-name="Group 1768" transform="translate(2.983 0)">
          <path id="Path_772" data-name="Path 772" d="M1232.479,1199.49c.044-.13.092-.239.119-.352q.622-2.57,1.239-5.141c.4-1.681.85-3.353,1.2-5.045a2.565,2.565,0,0,1,3.669-1.433,43.888,43.888,0,0,0,4.067,2.593,1.358,1.358,0,0,0,.813.2q7.029-.891,14.052-1.823,7.559-.994,15.117-1.995c.257-.034.519-.029.839-.045-.073.2-.1.313-.155.415q-4.19,8.238-8.375,16.478a.982.982,0,0,1-.814.586c-1.674.262-3.344.547-5.015.825-.3.05-.6.106-.931.167a4.954,4.954,0,0,1,.078.557c.009.5.22.609.714.511,1.258-.25,2.531-.425,3.795-.647.389-.068.52.035.493.445-.22,3.3-.433,6.593-.622,9.891-.027.479-.225.64-.663.715-1.046.178-2.085.391-3.123.613a.6.6,0,0,0-.41.291,6.093,6.093,0,0,0-.126,1.018c1.531-.3,2.97-.589,4.407-.882a.352.352,0,0,0,.237-.166,19.455,19.455,0,0,0,.9-2.826,31.7,31.7,0,0,0,.245-3.429c.114-1.828.223-3.656.349-5.483.011-.164.1-.406.219-.458a.624.624,0,0,1,.491.141c.369.277.707.594,1.062.89.389.324.783.642,1.208.989.124-.189.2-.322.291-.439.319-.4.256-.7-.169-1-.472-.337-.884-.758-1.345-1.112a.524.524,0,0,1-.168-.778q4.356-8.528,8.682-17.07a.983.983,0,0,1,.859-.6c1.512-.176,3.024-.369,4.528-.6a.877.877,0,0,0,.6-.491.8.8,0,0,0-.326-.66q-2.1-1.432-4.25-2.788a1.51,1.51,0,0,0-.912-.2q-7.037.825-14.068,1.694-7.287.893-14.572,1.8c-3.278.4-6.557.791-9.833,1.215a3.432,3.432,0,0,0-2.994,2.653q-1.124,4.64-2.224,9.287c-.232.975-.225.977.66,1.453A.935.935,0,0,0,1232.479,1199.49Z" transform="translate(-1231.182 -1180.985)" fill="#fff"/>
          <path id="Path_773" data-name="Path 773" d="M1256.911,1217.61l.051-.48c.012-.115.021-.224.028-.328a3.531,3.531,0,0,1,.11-.753.923.923,0,0,1,.676-.537c.929-.2,2.028-.427,3.138-.616.307-.052.352-.1.368-.385.2-3.522.428-6.978.623-9.894,0-.034,0-.061,0-.083-.021,0-.047.005-.079.011-.493.087-.987.166-1.481.246-.759.122-1.544.249-2.307.4a1.01,1.01,0,0,1-.852-.118.923.923,0,0,1-.286-.735,1.923,1.923,0,0,0-.038-.294c-.012-.067-.024-.139-.036-.217l-.05-.34.656-.119c.214-.039.416-.076.619-.11l1.175-.2c1.259-.21,2.56-.428,3.843-.629a.633.633,0,0,0,.552-.4q3.1-6.133,6.227-12.256l2.087-4.1c-.09,0-.176.011-.259.022q-3.784.5-7.566,1t-7.551,1c-4.75.624-9.4,1.234-14.053,1.824a1.7,1.7,0,0,1-1.042-.246c-.326-.2-.654-.394-.983-.589a30.6,30.6,0,0,1-3.115-2.026,1.876,1.876,0,0,0-1.764-.115,2,2,0,0,0-1.339,1.339c-.246,1.191-.543,2.388-.831,3.545-.125.5-.25,1.006-.371,1.51l-.1.429q-.567,2.356-1.136,4.712a2.341,2.341,0,0,1-.087.268c-.013.037-.028.075-.041.115l-.1.307-.316-.077-.074-.017a.56.56,0,0,1-.172-.057c-1.026-.552-1.1-.724-.836-1.848.723-3.038,1.471-6.18,2.224-9.288a3.765,3.765,0,0,1,3.294-2.922c2.216-.287,4.47-.562,6.651-.827q1.592-.194,3.184-.389l5.557-.688q4.508-.558,9.015-1.113c4.433-.543,9.206-1.124,14.069-1.694a1.875,1.875,0,0,1,1.142.255c1.4.88,2.832,1.821,4.26,2.8a1.128,1.128,0,0,1,.467,1.056,1.224,1.224,0,0,1-.89.74c-1.329.205-2.772.4-4.542.6a.636.636,0,0,0-.584.4c-2.784,5.5-5.705,11.243-8.683,17.071-.1.2-.089.214.068.334.214.165.418.342.614.514.243.213.473.414.721.591a1.088,1.088,0,0,1,.511.72,1.025,1.025,0,0,1-.271.791,2.58,2.58,0,0,0-.156.232c-.034.055-.072.115-.116.181l-.217.33-.7-.572c-.28-.228-.549-.447-.815-.669-.127-.106-.252-.214-.377-.323-.228-.2-.443-.385-.672-.557a.529.529,0,0,0-.115-.063.484.484,0,0,0-.027.121c-.1,1.393-.182,2.786-.268,4.179l-.081,1.3c-.021.341-.034.684-.047,1.027a18.248,18.248,0,0,1-.2,2.44,12.231,12.231,0,0,1-.634,2.111c-.094.256-.188.512-.275.769a.685.685,0,0,1-.5.4c-1.172.239-2.344.472-3.566.715Zm.862-1.327a2.612,2.612,0,0,0-.064.444l.381-.076c1.219-.242,2.388-.475,3.556-.713.083-.24.171-.48.259-.72a11.568,11.568,0,0,0,.6-1.986,17.858,17.858,0,0,0,.192-2.346c.013-.349.026-.7.048-1.044l.081-1.3c.086-1.395.172-2.79.269-4.184a.925.925,0,0,1,.431-.759.935.935,0,0,1,.847.182c.249.187.483.391.71.588.121.105.242.21.366.313.265.22.531.438.809.663l.088.072c.031-.046.062-.09.1-.134a.432.432,0,0,0,.123-.25c0-.021-.028-.1-.22-.24-.276-.2-.53-.419-.776-.634-.2-.172-.383-.334-.579-.485a.867.867,0,0,1-.268-1.221c2.977-5.828,5.9-11.57,8.682-17.069a1.337,1.337,0,0,1,1.135-.789c1.761-.2,3.2-.4,4.516-.6a.608.608,0,0,0,.31-.224.62.62,0,0,0-.178-.282c-1.422-.969-2.848-1.905-4.239-2.781a1.157,1.157,0,0,0-.682-.151c-4.861.57-9.633,1.151-14.066,1.694q-4.508.552-9.014,1.113l-5.557.688q-1.592.2-3.185.389c-2.179.265-4.432.539-6.645.826a3.078,3.078,0,0,0-2.694,2.385c-.752,3.106-1.5,6.247-2.223,9.285a2.23,2.23,0,0,0-.112.683,1.2,1.2,0,0,0,.37.253q.565-2.336,1.126-4.672l.1-.429q.183-.759.372-1.516c.286-1.151.581-2.341.825-3.518a2.705,2.705,0,0,1,1.789-1.861,2.579,2.579,0,0,1,2.445.219,30.022,30.022,0,0,0,3.044,1.977c.331.2.663.394.991.594a1.015,1.015,0,0,0,.583.147c4.653-.59,9.3-1.2,14.051-1.823q3.775-.5,7.55-1t7.567-1a5.576,5.576,0,0,1,.573-.036c.093,0,.19-.006.293-.011l.537-.027-.185.5c-.025.068-.045.125-.062.175a2.081,2.081,0,0,1-.11.278l-2.149,4.223q-3.118,6.125-6.226,12.255a1.336,1.336,0,0,1-1.076.776c-1.28.2-2.579.418-3.836.629l-1.176.2c-.191.032-.381.067-.582.1a1.846,1.846,0,0,1,.025.264.619.619,0,0,0,.025.192.809.809,0,0,0,.265-.023c.776-.154,1.567-.281,2.332-.4.491-.079.981-.158,1.471-.244a.687.687,0,0,1,.909.819c-.195,2.914-.421,6.368-.622,9.887a1.008,1.008,0,0,1-.958,1.045c-1.1.187-2.187.414-3.108.61A.424.424,0,0,0,1257.773,1216.283Zm3.851-.278h0Z" transform="translate(-1230.06 -1179.841)"/>
        </g>
        <g id="Group_1769" data-name="Group 1769" transform="translate(12.667 24.288)">
          <path id="Path_774" data-name="Path 774" d="M1273.116,1285.986c.464,1.019.616,1.1,1.565.934,1.668-.286,3.339-.562,5.009-.84,2.075-.345,4.151-.683,6.224-1.04.168-.029.422-.16.452-.286.149-.643-.176-.959-.808-.853q-5.136.859-10.272,1.715C1274.567,1285.734,1273.851,1285.86,1273.116,1285.986Z" transform="translate(-1272.601 -1283.524)" fill="#fff"/>
          <path id="Path_775" data-name="Path 775" d="M1272.456,1286.19c-.635,0-.913-.307-1.321-1.2l-.191-.42,1.19-.2c.482-.083.958-.165,1.435-.245l4.662-.779,5.61-.937a.974.974,0,0,1,1.213,1.284c-.075.326-.492.514-.738.556-1.511.261-3.05.515-4.537.761l-2.456.408q-2.121.352-4.24.712A3.8,3.8,0,0,1,1272.456,1286.19Zm-.477-1.08c.228.443.353.421.985.313q2.12-.364,4.244-.713l2.456-.408c1.486-.246,3.023-.5,4.532-.76a.544.544,0,0,0,.178-.075.4.4,0,0,0-.031-.32c-.042-.045-.166-.081-.385-.044l-5.61.937-4.662.778c-.476.08-.951.161-1.432.244Z" transform="translate(-1270.944 -1282.378)"/>
        </g>
        <g id="Group_1770" data-name="Group 1770" transform="translate(19.268 36.491)">
          <path id="Path_776" data-name="Path 776" d="M1300.57,1336.936c.223,1.146.243,1.159,1.269.955q2.262-.448,4.526-.889c.835-.161,1-.424.8-1.357Z" transform="translate(-1300.154 -1335.231)" fill="#fff"/>
          <path id="Path_777" data-name="Path 777" d="M1299.827,1337.01a.772.772,0,0,1-.449-.122c-.3-.2-.374-.585-.5-1.22l-.068-.348,7.277-1.425.076.337a1.647,1.647,0,0,1-.067,1.259,1.449,1.449,0,0,1-1.008.525q-2.263.437-4.524.888A4.093,4.093,0,0,1,1299.827,1337.01Zm-.179-1.13a1.36,1.36,0,0,0,.131.422,3.262,3.262,0,0,0,.65-.1q2.263-.448,4.527-.889c.313-.06.492-.131.548-.216a.648.648,0,0,0,.03-.374Z" transform="translate(-1298.813 -1333.895)"/>
        </g>
        <g id="Group_1771" data-name="Group 1771" transform="translate(0.001 21.486)">
          <path id="Path_778" data-name="Path 778" d="M1233.5,1296.87c.3.613.561.732,1.009.637q12.151-2.586,24.3-5.161c.233-.049.459-.128.689-.191l.027-.255a2.043,2.043,0,0,1-.4-.225c-.623-.509-1.233-1.034-1.849-1.551-.688-.578-4.723-4.173-4.162-5.022.643.539,5.286,4.418,5.923,4.954.6.507,1.188,1.034,1.812,1.514a.96.96,0,0,0,.687.182q5.027-1.037,10.043-2.128c.171-.037.422-.187.448-.321a.933.933,0,0,0-.259-1.024c-1.14-.931-2.255-1.892-3.38-2.841q-3.4-2.862-6.792-5.725c-.7-.592-.7-.595,0-1.553.664.556,1.307,1.089,1.944,1.627q4.609,3.892,9.223,7.779a1.245,1.245,0,0,1,.492,1.057c-.036,4.177-.055,8.353-.084,12.53a1.845,1.845,0,0,1-1.694,2.079q-10.777,2.377-21.556,4.75c-5.063,1.116-10.129,2.219-15.187,3.359-1.305.294-1.9-.364-2.9-1.646-3.832-4.934-6.2-8.013-10.247-13.252-1.466-1.9-2.68-3.117-2.618-5.21.107-3.661.066-7.326.134-10.988a10.067,10.067,0,0,1,.4-2.056c.415-1.766.846-3.528,1.272-5.292.036-.147.083-.292.125-.438.94.308,1.069.528.852,1.441-.365,1.531-.735,3.062-1.1,4.593-.039.163-.061.329-.106.579.3-.024.55-.026.79-.065q2.559-.417,5.115-.846c.981-.164,1.11-.1,1.668.912l-7.307,1.232a4.849,4.849,0,0,0,.748.884l6.445,8.3c.655.906.683,1.129,1.172,1.031,1.46-.29,2.922-.573,4.382-.861.932-.184,1.019-.118,1.183.958l-5.227,1.051a2.969,2.969,0,0,0,.6.807Zm.613,13.359c.27-.048.517-.082.76-.136q7.018-1.551,14.035-3.1,11.154-2.458,22.31-4.909c.626-.138.775-.309.78-.947.024-3.27.036-6.539.067-9.809,0-.451-.153-.571-.583-.472-1,.231-2.006.436-3.01.65q-9.188,1.958-18.376,3.915-7.532,1.6-15.068,3.182c-.438.092-.652.222-.661.748-.058,3.337-.164,6.674-.252,10.01C1234.1,1309.626,1234.11,1309.9,1234.11,1310.229Zm-1.326-1.228.131-.052c.018-.251.045-.5.052-.753.074-2.959.123-5.92.234-8.878a2.06,2.06,0,0,0-.474-1.441q-6.009-7.811-12-15.638c-.1-.124-.215-.23-.431-.457-.023.371-.047.584-.049.8-.025,3.063-.032,6.126-.082,9.189a3.055,3.055,0,0,0,.682,2.035q5.827,7.433,11.636,14.881C1232.573,1308.8,1232.683,1308.9,1232.784,1309Z" transform="translate(-1218.616 -1272.008)"/>
          <path id="Path_779" data-name="Path 779" d="M1233.006,1310.31c-1.088,0-1.726-.739-2.593-1.854-2.908-3.744-4.965-6.408-7.568-9.782l-2.68-3.471c-.185-.239-.366-.468-.541-.689-1.234-1.56-2.209-2.792-2.152-4.748.061-2.1.074-4.236.087-6.3.009-1.534.018-3.12.047-4.681a7.24,7.24,0,0,1,.291-1.658c.04-.158.081-.315.118-.472.317-1.351.644-2.7.971-4.049l.3-1.245c.026-.107.057-.212.089-.318l.142-.489.35.115c1.114.365,1.348.766,1.087,1.861q-.283,1.189-.569,2.377-.266,1.107-.531,2.215c-.009.037-.017.075-.024.113.109-.008.209-.017.306-.032q2.558-.416,5.114-.846c1.142-.191,1.409-.048,2.037,1.091l.242.439-7.223,1.218.069.07c.083.084.18.182.307.325l6.459,8.318c.13.18.232.326.318.451.334.483.334.484.5.449q1.325-.263,2.65-.521l1.733-.34c.5-.1.85-.149,1.134.051s.376.594.469,1.2l.051.335-5.056,1.017a1.315,1.315,0,0,0,.257.29l.051.053,3.414,4.455c.256.523.384.5.616.446q8.212-1.748,16.425-3.488l7.878-1.672c.057-.012.115-.026.173-.042l-.007-.006c-.425-.347-.844-.7-1.262-1.056l-.59-.5c-.844-.709-5.015-4.3-4.23-5.491l.219-.332.305.255,1.829,1.53c1.6,1.335,3.683,3.078,4.094,3.425.182.154.363.309.545.465.406.349.827.711,1.255,1.04a.629.629,0,0,0,.4.116c2.982-.615,6.172-1.291,10.04-2.128a.531.531,0,0,0,.184-.093c.063-.344.027-.489-.145-.629-.81-.662-1.62-1.349-2.4-2.014l-.981-.83-2.329-1.962q-2.232-1.88-4.463-3.762c-.889-.75-.831-.974-.061-2.033l.224-.307.914.763c.447.373.886.739,1.323,1.108l2.521,2.13c2.194,1.854,4.462,3.772,6.7,5.649a1.59,1.59,0,0,1,.619,1.332q-.034,4-.055,7.995-.014,2.267-.029,4.534a2.19,2.19,0,0,1-1.972,2.424l-14.1,3.108-7.454,1.642-3.855.848c-3.715.816-7.557,1.66-11.33,2.511A2.984,2.984,0,0,1,1233.006,1310.31ZM1220,1271.462l-.016.062-.3,1.245c-.327,1.347-.653,2.694-.97,4.044-.038.162-.08.324-.122.487a6.633,6.633,0,0,0-.269,1.495c-.029,1.557-.038,3.14-.047,4.672-.012,2.071-.025,4.213-.087,6.32-.05,1.7.809,2.784,2,4.286.177.223.359.454.546.7l2.68,3.471c2.6,3.373,4.659,6.037,7.567,9.78,1.023,1.317,1.476,1.756,2.536,1.517,3.775-.851,7.618-1.7,11.334-2.512l3.855-.848,7.454-1.642q7.051-1.553,14.1-3.108a1.5,1.5,0,0,0,1.415-1.734q.016-2.267.029-4.534.024-4,.055-8a.891.891,0,0,0-.365-.781c-2.24-1.877-4.509-3.8-6.7-5.65l-2.521-2.13c-.436-.368-.874-.734-1.32-1.106l-.33-.275a1.474,1.474,0,0,0-.233.4,3.1,3.1,0,0,0,.4.366q2.231,1.882,4.463,3.762l2.328,1.963q.492.415.983.832c.781.662,1.588,1.347,2.393,2.005a1.289,1.289,0,0,1,.383,1.368c-.067.337-.478.547-.722.6-3.87.837-7.063,1.513-10.047,2.129a1.3,1.3,0,0,1-.976-.249c-.443-.341-.871-.708-1.285-1.064-.179-.154-.359-.308-.54-.46-.411-.346-2.5-2.089-4.092-3.423l-.817-.683a27.37,27.37,0,0,0,3.605,3.631l.592.5c.416.352.831.7,1.253,1.048a1.378,1.378,0,0,0,.259.146l.3.144-.079.743-.233.064c-.076.021-.152.043-.227.066-.155.046-.316.094-.483.13l-7.879,1.672q-8.213,1.743-16.425,3.488c-.63.135-1.035-.1-1.386-.8l-3.334-4.339a2.423,2.423,0,0,1-.5-.636c-.041-.067-.086-.14-.14-.224l-.279-.437,5.4-1.086a1.1,1.1,0,0,0-.12-.395,2.156,2.156,0,0,0-.587.066l-1.734.34q-1.324.259-2.648.521c-.626.124-.84-.183-1.227-.743-.084-.121-.182-.263-.3-.429l-6.438-8.29c-.1-.113-.189-.2-.265-.278a2.981,2.981,0,0,1-.5-.637l-.276-.449,7.326-1.235c-.266-.427-.4-.4-1.049-.3q-2.558.426-5.117.846a5.3,5.3,0,0,1-.543.05c-.088,0-.179.01-.277.018l-.46.036.082-.454c.015-.084.028-.16.04-.228.024-.141.043-.256.07-.37q.264-1.108.531-2.216.285-1.188.569-2.376C1220.4,1271.781,1220.438,1271.641,1220,1271.462Zm12.614,37.733v-.735c0-.2,0-.386,0-.569q.036-1.344.074-2.689c.067-2.4.136-4.879.178-7.319a1,1,0,0,1,.944-1.089c4.482-.939,9.27-1.95,15.067-3.182q6.6-1.4,13.2-2.813l5.96-1.269c.728-.153,1.481-.312,2.217-.482a.736.736,0,0,1,1.018.822q-.028,2.921-.041,5.841-.012,1.984-.026,3.967c-.006.8-.263,1.116-1.059,1.291l-9.347,2.056q-6.482,1.425-12.963,2.853-4.14.913-8.279,1.83l-5.756,1.274c-.171.038-.344.066-.524.1l-.251.043Zm37.943-19.476a.827.827,0,0,0-.139.023c-.742.171-1.5.331-2.23.485l-5.958,1.269q-6.6,1.408-13.2,2.813c-5.8,1.232-10.586,2.243-15.069,3.182-.342.072-.374.106-.379.406-.042,2.443-.111,4.926-.178,7.326q-.037,1.344-.074,2.688c0,.144,0,.288,0,.442.112-.019.222-.039.33-.063l5.755-1.274q4.139-.917,8.279-1.83,6.481-1.429,12.963-2.853l9.347-2.057c.47-.1.5-.137.5-.6q.015-1.983.026-3.966.018-2.922.041-5.843A.9.9,0,0,0,1270.552,1289.719Zm-39.006,18.243-.165-.173c-.03-.031-.061-.062-.091-.093a2.625,2.625,0,0,1-.231-.251l-3.657-4.679q-3.987-5.1-7.979-10.2a3.4,3.4,0,0,1-.757-2.26c.035-2.138.049-4.313.062-6.417q.009-1.385.02-2.77c0-.145.012-.289.026-.479.007-.1.015-.208.023-.338l.052-.814.561.592c.077.081.141.146.2.2a2.984,2.984,0,0,1,.26.284l3.627,4.73q4.183,5.456,8.372,10.907a2.4,2.4,0,0,1,.547,1.672c-.079,2.116-.128,4.27-.175,6.353q-.028,1.26-.059,2.521c0,.178-.019.355-.034.533-.007.079-.013.158-.019.236l-.016.223Zm-12.089-26.76q-.011,1.345-.019,2.69c-.014,2.105-.027,4.282-.062,6.424a2.683,2.683,0,0,0,.606,1.81q3.995,5.1,7.979,10.2l3.5,4.481c0-.026,0-.053,0-.079q.031-1.26.059-2.519c.047-2.085.1-4.242.176-6.363a1.7,1.7,0,0,0-.4-1.211q-4.192-5.449-8.372-10.908Z" transform="translate(-1217.471 -1270.55)"/>
        </g>
        <g id="Group_1772" data-name="Group 1772" transform="translate(2.983 0)">
          <path id="Path_780" data-name="Path 780" d="M1232.479,1199.49a.935.935,0,0,1-.161-.04c-.885-.476-.892-.478-.66-1.453q1.106-4.645,2.224-9.287a3.432,3.432,0,0,1,2.994-2.653c3.275-.425,6.555-.811,9.833-1.215q7.286-.9,14.572-1.8,7.032-.862,14.068-1.694a1.51,1.51,0,0,1,.912.2q2.15,1.354,4.25,2.788a.8.8,0,0,1,.326.66.877.877,0,0,1-.6.491c-1.5.232-3.016.425-4.528.6a.983.983,0,0,0-.859.6q-4.326,8.543-8.682,17.07a.524.524,0,0,0,.168.778c.461.354.873.775,1.345,1.112.425.3.488.6.169,1-.094.117-.167.25-.291.439-.425-.347-.819-.665-1.208-.989-.355-.3-.694-.613-1.062-.89a.624.624,0,0,0-.491-.141c-.119.052-.208.293-.219.458-.127,1.827-.235,3.655-.349,5.483a31.7,31.7,0,0,1-.245,3.429,19.455,19.455,0,0,1-.9,2.826.352.352,0,0,1-.237.166c-1.437.293-2.876.578-4.407.882a6.093,6.093,0,0,1,.126-1.018.6.6,0,0,1,.41-.291c1.037-.222,2.077-.435,3.123-.613.438-.075.636-.236.663-.715.188-3.3.4-6.595.622-9.891.028-.41-.1-.514-.493-.445-1.264.222-2.537.4-3.795.647-.494.1-.705-.009-.714-.511a4.954,4.954,0,0,0-.078-.557c.335-.06.633-.117.931-.167,1.671-.278,3.341-.563,5.015-.825a.982.982,0,0,0,.814-.586q4.174-8.246,8.375-16.478c.052-.1.082-.216.155-.415-.319.016-.582.011-.839.045q-7.559.994-15.117,1.995-7.024.923-14.052,1.823a1.358,1.358,0,0,1-.812-.2,43.888,43.888,0,0,1-4.067-2.593,2.565,2.565,0,0,0-3.669,1.433c-.35,1.692-.8,3.364-1.2,5.045q-.618,2.571-1.239,5.141C1232.571,1199.252,1232.524,1199.36,1232.479,1199.49Zm45.875-14.958.041-.135c-.128-.1-.251-.207-.387-.3-.642-.425-1.3-.828-1.926-1.274a1.45,1.45,0,0,0-1.1-.272q-7.356.928-14.715,1.829-9.753,1.194-19.507,2.376c-.209.026-.415.079-.729.14a4.135,4.135,0,0,0,.38.329c.894.571,1.782,1.153,2.694,1.692a1.292,1.292,0,0,0,.771.142c4.937-.635,9.87-1.289,14.805-1.934q9.539-1.247,19.079-2.487C1277.96,1184.616,1278.157,1184.569,1278.354,1184.532Z" transform="translate(-1231.182 -1180.985)"/>
          <path id="Path_781" data-name="Path 781" d="M1256.911,1217.61l.051-.48c.012-.115.021-.224.028-.328a3.531,3.531,0,0,1,.11-.753.923.923,0,0,1,.676-.537c.929-.2,2.028-.427,3.138-.616.307-.052.352-.1.368-.385.2-3.522.428-6.978.623-9.894,0-.034,0-.061,0-.083-.021,0-.047.005-.079.011-.493.087-.987.166-1.481.246-.759.122-1.544.249-2.307.4a1.01,1.01,0,0,1-.852-.118.923.923,0,0,1-.286-.735,1.923,1.923,0,0,0-.038-.294c-.012-.067-.024-.139-.036-.217l-.05-.34.656-.119c.214-.039.416-.076.619-.11l1.175-.2c1.259-.21,2.56-.428,3.843-.629a.633.633,0,0,0,.552-.4q3.1-6.133,6.227-12.256l2.087-4.1c-.09,0-.176.011-.259.022q-3.784.5-7.566,1t-7.551,1c-4.75.624-9.4,1.234-14.053,1.824a1.7,1.7,0,0,1-1.042-.246c-.326-.2-.654-.394-.983-.589a30.6,30.6,0,0,1-3.115-2.026,1.876,1.876,0,0,0-1.764-.115,2,2,0,0,0-1.339,1.339c-.246,1.191-.543,2.388-.831,3.545-.125.5-.25,1.006-.371,1.51l-.1.429q-.567,2.356-1.136,4.712a2.341,2.341,0,0,1-.087.268c-.013.037-.028.075-.041.115l-.1.307-.316-.077-.074-.017a.56.56,0,0,1-.172-.057c-1.026-.552-1.1-.724-.836-1.848.723-3.038,1.471-6.18,2.224-9.288a3.765,3.765,0,0,1,3.294-2.922c2.216-.287,4.47-.562,6.651-.827q1.592-.194,3.184-.389l5.557-.688q4.508-.558,9.015-1.113c4.433-.543,9.206-1.124,14.069-1.694a1.875,1.875,0,0,1,1.142.255c1.4.88,2.832,1.821,4.26,2.8a1.128,1.128,0,0,1,.467,1.056,1.224,1.224,0,0,1-.89.74c-1.329.205-2.772.4-4.542.6a.636.636,0,0,0-.584.4c-2.784,5.5-5.705,11.243-8.683,17.071-.1.2-.089.214.068.334.214.165.418.342.614.514.243.213.473.414.721.591a1.088,1.088,0,0,1,.511.72,1.025,1.025,0,0,1-.271.791,2.58,2.58,0,0,0-.156.232c-.034.055-.072.115-.116.181l-.217.33-.7-.572c-.28-.228-.549-.447-.815-.669-.127-.106-.252-.214-.377-.323-.228-.2-.443-.385-.672-.557a.529.529,0,0,0-.115-.063.484.484,0,0,0-.027.121c-.1,1.393-.182,2.786-.268,4.179l-.081,1.3c-.021.341-.034.684-.047,1.027a18.248,18.248,0,0,1-.2,2.44,12.231,12.231,0,0,1-.634,2.111c-.094.256-.188.512-.275.769a.685.685,0,0,1-.5.4c-1.172.239-2.344.472-3.566.715Zm.862-1.327a2.612,2.612,0,0,0-.064.444l.381-.076c1.219-.242,2.388-.475,3.556-.713.083-.24.171-.48.259-.72a11.568,11.568,0,0,0,.6-1.986,17.858,17.858,0,0,0,.192-2.346c.013-.349.026-.7.048-1.044l.081-1.3c.086-1.395.172-2.79.269-4.184a.925.925,0,0,1,.431-.759.935.935,0,0,1,.847.182c.249.187.483.391.71.588.121.105.242.21.366.313.265.22.531.438.809.663l.088.072c.031-.046.062-.09.1-.134a.432.432,0,0,0,.123-.25c0-.021-.028-.1-.22-.24-.276-.2-.53-.419-.776-.634-.2-.172-.383-.334-.579-.485a.867.867,0,0,1-.268-1.221c2.977-5.828,5.9-11.57,8.682-17.069a1.337,1.337,0,0,1,1.135-.789c1.761-.2,3.2-.4,4.516-.6a.608.608,0,0,0,.31-.224.62.62,0,0,0-.178-.282c-1.422-.969-2.848-1.905-4.239-2.781a1.157,1.157,0,0,0-.682-.151c-4.861.57-9.633,1.151-14.066,1.694q-4.508.552-9.014,1.113l-5.557.688q-1.592.2-3.185.389c-2.179.265-4.432.539-6.645.826a3.078,3.078,0,0,0-2.694,2.385c-.752,3.106-1.5,6.247-2.223,9.285a2.23,2.23,0,0,0-.112.683,1.2,1.2,0,0,0,.37.253q.565-2.336,1.126-4.672l.1-.429q.183-.759.372-1.516c.286-1.151.581-2.341.825-3.518a2.705,2.705,0,0,1,1.789-1.861,2.579,2.579,0,0,1,2.445.219,30.022,30.022,0,0,0,3.044,1.977c.331.2.663.394.991.594a1.015,1.015,0,0,0,.583.147c4.653-.59,9.3-1.2,14.051-1.823q3.775-.5,7.55-1t7.567-1a5.576,5.576,0,0,1,.573-.036c.093,0,.19-.006.293-.011l.537-.027-.185.5c-.025.068-.045.125-.062.175a2.081,2.081,0,0,1-.11.278l-2.149,4.223q-3.118,6.125-6.226,12.255a1.336,1.336,0,0,1-1.076.776c-1.28.2-2.579.418-3.836.629l-1.176.2c-.191.032-.381.067-.582.1a1.846,1.846,0,0,1,.025.264.619.619,0,0,0,.025.192.809.809,0,0,0,.265-.023c.776-.154,1.567-.281,2.332-.4.491-.079.981-.158,1.471-.244a.687.687,0,0,1,.909.819c-.195,2.914-.421,6.368-.622,9.887a1.008,1.008,0,0,1-.958,1.045c-1.1.187-2.187.414-3.108.61A.424.424,0,0,0,1257.773,1216.283Zm3.851-.278h0Zm-19.027-27.719a1.605,1.605,0,0,1-.794-.2c-.737-.437-1.469-.906-2.176-1.36l-.528-.339a1.8,1.8,0,0,1-.263-.216c-.045-.042-.1-.089-.16-.145l-.546-.478.712-.139c.107-.021.2-.041.288-.059.169-.036.314-.066.466-.085l8.02-.976q5.743-.7,11.487-1.4c4.992-.611,9.942-1.227,14.714-1.829a1.809,1.809,0,0,1,1.349.335c.407.29.838.567,1.254.836.222.143.443.286.662.431.106.07.2.146.291.219l.116.093.194.149-.173.576-.214.04-.183.036c-.143.029-.286.057-.43.076l-8.52,1.111q-5.28.688-10.559,1.377l-4.743.622q-5.031.661-10.063,1.313A1.555,1.555,0,0,1,1242.6,1188.286Zm-2.844-2.325.258.165c.7.451,1.427.916,2.154,1.346a.939.939,0,0,0,.545.1q5.031-.647,10.06-1.312l4.744-.622q5.279-.69,10.559-1.377l8.466-1.1c-.167-.11-.335-.218-.5-.327-.423-.273-.861-.555-1.281-.854a1.1,1.1,0,0,0-.849-.21c-4.772.6-9.724,1.218-14.716,1.829q-5.744.7-11.488,1.4Z" transform="translate(-1230.06 -1179.841)"/>
        </g>
        <g id="Group_1773" data-name="Group 1773" transform="translate(12.667 24.288)">
          <path id="Path_782" data-name="Path 782" d="M1273.116,1285.986c.735-.126,1.451-.251,2.169-.372q5.136-.858,10.272-1.715c.632-.106.957.211.808.853-.029.126-.284.257-.452.286-2.073.357-4.149.7-6.224,1.04-1.67.278-3.341.554-5.009.84C1273.732,1287.083,1273.58,1287,1273.116,1285.986Z" transform="translate(-1272.601 -1283.524)"/>
          <path id="Path_783" data-name="Path 783" d="M1272.456,1286.19c-.635,0-.913-.307-1.321-1.2l-.191-.42,1.19-.2c.482-.083.958-.165,1.435-.245l4.662-.779,5.61-.937a.974.974,0,0,1,1.213,1.284c-.075.326-.492.514-.738.556-1.511.261-3.05.515-4.537.761l-2.456.408q-2.121.352-4.24.712A3.8,3.8,0,0,1,1272.456,1286.19Zm-.477-1.08c.228.443.353.421.985.313q2.12-.364,4.244-.713l2.456-.408c1.486-.246,3.023-.5,4.532-.76a.544.544,0,0,0,.178-.075.4.4,0,0,0-.031-.32c-.042-.045-.166-.081-.385-.044l-5.61.937-4.662.778c-.476.08-.951.161-1.432.244Z" transform="translate(-1270.944 -1282.378)"/>
        </g>
        <g id="Group_1774" data-name="Group 1774" transform="translate(19.268 36.491)">
          <path id="Path_784" data-name="Path 784" d="M1300.57,1336.936l6.59-1.29c.21.933.04,1.2-.8,1.357q-2.264.437-4.526.889C1300.813,1338.095,1300.793,1338.083,1300.57,1336.936Z" transform="translate(-1300.154 -1335.231)"/>
          <path id="Path_785" data-name="Path 785" d="M1299.827,1337.01a.772.772,0,0,1-.449-.122c-.3-.2-.374-.585-.5-1.22l-.068-.348,7.277-1.425.076.337a1.647,1.647,0,0,1-.067,1.259,1.449,1.449,0,0,1-1.008.525q-2.263.437-4.524.888A4.093,4.093,0,0,1,1299.827,1337.01Zm-.179-1.13a1.36,1.36,0,0,0,.131.422,3.262,3.262,0,0,0,.65-.1q2.263-.448,4.527-.889c.313-.06.492-.131.548-.216a.648.648,0,0,0,.03-.374Z" transform="translate(-1298.813 -1333.895)"/>
        </g>
        <g id="Group_1775" data-name="Group 1775" transform="translate(15.137 39.944)">
          <path id="Path_786" data-name="Path 786" d="M1282.874,1369.382c0-.334-.006-.6,0-.871.088-3.337.194-6.673.252-10.01.009-.526.223-.656.661-.748q7.537-1.579,15.068-3.182,9.189-1.952,18.375-3.915c1-.214,2.01-.419,3.011-.65.43-.1.587.021.583.473-.03,3.269-.042,6.539-.067,9.808,0,.638-.154.809-.78.947q-11.155,2.456-22.31,4.909-7.018,1.547-14.034,3.1C1283.391,1369.3,1283.144,1369.334,1282.874,1369.382Z" transform="translate(-1282.516 -1349.618)" fill="#8973a4"/>
          <path id="Path_787" data-name="Path 787" d="M1281.374,1368.661v-.735c0-.2,0-.386,0-.569q.036-1.345.074-2.689c.067-2.4.136-4.879.178-7.318a1.006,1.006,0,0,1,.944-1.09c4.482-.939,9.27-1.95,15.067-3.182q6.6-1.4,13.2-2.813L1316.8,1349c.729-.153,1.481-.312,2.217-.482a.736.736,0,0,1,1.018.822q-.028,2.921-.041,5.841-.012,1.984-.026,3.967c-.006.8-.263,1.116-1.059,1.291l-9.347,2.056q-6.482,1.425-12.963,2.853-4.14.913-8.279,1.83l-5.756,1.274c-.171.038-.344.066-.524.1l-.251.043Zm37.943-19.476a.8.8,0,0,0-.139.023c-.742.171-1.5.331-2.23.484l-5.958,1.269q-6.6,1.408-13.2,2.813c-5.8,1.232-10.586,2.243-15.069,3.182-.342.072-.374.106-.379.407-.042,2.443-.111,4.925-.179,7.326q-.037,1.344-.074,2.688c0,.144,0,.288,0,.442.112-.019.221-.039.33-.063l5.755-1.273q4.139-.917,8.279-1.83,6.481-1.429,12.963-2.853l9.347-2.056c.47-.1.5-.138.5-.6q.015-1.983.026-3.966.017-2.922.041-5.843A.881.881,0,0,0,1319.317,1349.185Z" transform="translate(-1281.371 -1348.473)"/>
        </g>
        <g id="Group_1776" data-name="Group 1776" transform="translate(1.195 30.423)">
          <path id="Path_788" data-name="Path 788" d="M1236.63,1339.033c-.1-.105-.211-.2-.3-.318q-5.818-7.441-11.636-14.88a3.055,3.055,0,0,1-.682-2.035c.05-3.063.057-6.126.082-9.189,0-.213.025-.426.049-.8.216.228.336.333.431.458q6,7.819,12,15.638a2.059,2.059,0,0,1,.474,1.441c-.111,2.958-.161,5.919-.234,8.878-.006.251-.034.5-.051.753Z" transform="translate(-1223.657 -1310.976)" fill="#8973a4"/>
          <path id="Path_789" data-name="Path 789" d="M1235.393,1336.756l-.165-.173c-.03-.032-.061-.062-.091-.093a2.67,2.67,0,0,1-.232-.251l-3.657-4.679q-3.987-5.1-7.979-10.2a3.394,3.394,0,0,1-.757-2.26c.035-2.138.049-4.313.062-6.417q.009-1.385.02-2.77c0-.144.012-.289.026-.479.007-.1.016-.208.024-.338l.051-.814.561.592c.077.081.141.146.2.2a2.987,2.987,0,0,1,.26.285l3.627,4.73q4.183,5.456,8.372,10.907a2.4,2.4,0,0,1,.547,1.671c-.08,2.116-.128,4.27-.175,6.353q-.028,1.261-.059,2.521c0,.178-.019.355-.034.533-.007.079-.013.158-.019.236l-.016.223ZM1223.3,1310q-.011,1.345-.019,2.69c-.014,2.105-.027,4.282-.062,6.424a2.683,2.683,0,0,0,.606,1.81q3.995,5.1,7.979,10.2l3.5,4.481c0-.026,0-.053,0-.079q.031-1.26.059-2.519c.047-2.085.1-4.242.176-6.364a1.7,1.7,0,0,0-.4-1.211q-4.192-5.449-8.372-10.908Z" transform="translate(-1222.511 -1308.281)"/>
        </g>
        <g id="Group_1777" data-name="Group 1777" transform="translate(11.053 1.199)">
          <path id="Path_790" data-name="Path 790" d="M1305.745,1188.4c-.2.037-.394.084-.594.11q-9.539,1.245-19.079,2.487c-4.935.645-9.869,1.3-14.8,1.934a1.292,1.292,0,0,1-.771-.142c-.912-.54-1.8-1.121-2.694-1.692a4.181,4.181,0,0,1-.38-.329c.314-.061.52-.115.729-.14q9.753-1.19,19.507-2.376,7.36-.9,14.715-1.829a1.45,1.45,0,0,1,1.1.273c.627.446,1.284.849,1.926,1.273.135.09.258.2.387.3Z" transform="translate(-1266.642 -1186.047)" fill="#8973a4"/>
          <path id="Path_791" data-name="Path 791" d="M1268.6,1192.149a1.605,1.605,0,0,1-.794-.2c-.738-.437-1.469-.906-2.176-1.36l-.528-.339a1.821,1.821,0,0,1-.263-.216c-.045-.042-.1-.089-.16-.145l-.545-.478.712-.138c.107-.021.2-.041.288-.059.169-.036.314-.066.466-.085l8.021-.976q5.743-.7,11.487-1.4c4.992-.612,9.942-1.227,14.714-1.829a1.809,1.809,0,0,1,1.349.335c.407.289.838.567,1.254.836q.332.214.662.431c.106.07.2.146.291.219l.116.093.194.15-.173.576-.214.04-.183.036c-.143.029-.286.058-.43.076l-8.52,1.111-10.559,1.377-4.743.622q-5.031.661-10.062,1.313A1.578,1.578,0,0,1,1268.6,1192.149Zm-2.844-2.325.258.165c.7.45,1.427.916,2.154,1.346a.94.94,0,0,0,.545.1q5.031-.647,10.061-1.312l4.744-.622q5.279-.69,10.559-1.377l8.466-1.1c-.167-.11-.335-.218-.5-.326-.423-.273-.86-.555-1.281-.854a1.094,1.094,0,0,0-.849-.21c-4.772.6-9.723,1.218-14.716,1.829q-5.743.7-11.488,1.4Z" transform="translate(-1264.13 -1184.903)"/>
        </g>
        <path id="Path_792" data-name="Path 792" d="M1227.137,1216.206l-4.6,20-1.421-2.369,4.264-18Z" transform="translate(-1220.252 -1207.307)"/>
        <path id="Path_793" data-name="Path 793" d="M1370.119,1275.332l.63.237,16.818,14.212-1.658.711-9.747-7.8-7.544-6.409Z" transform="translate(-1332.814 -1252.713)"/>
        <path id="Path_794" data-name="Path 794" d="M1360.617,1290.321l.947-11.607,2.028-.5-.773,12.927Z" transform="translate(-1326.709 -1254.911)"/>
        <path id="Path_795" data-name="Path 795" d="M1258.539,1275.893l-32.319,5.584-.581-2.214,35.762-5.932Z" transform="translate(-1223.703 -1251.187)"/>
        <path id="Path_796" data-name="Path 796" d="M1282.381,1328.656l-25.563,4.782-1.179-2.122,27-4.984Z" transform="translate(-1246.597 -1291.633)"/>
      </g>
    </g>
    <g id="Group_2632" data-name="Group 2632" transform="translate(3014.541 7807.76)">
      <g id="Group_2625" data-name="Group 2625" transform="translate(0 0)">
        <rect id="Rectangle_801" data-name="Rectangle 801" width="38.712" height="40.912" transform="translate(0.99 0.99)" fill="#e4ab43"/>
        <path id="Path_809" data-name="Path 809" d="M514.027,587.945H473.335V545.054h40.692Zm-38.712-1.98h36.733V547.034H475.315Z" transform="translate(-473.335 -545.054)"/>
      </g>
      <g id="Group_2626" data-name="Group 2626" transform="translate(19.513 4.679)">
        <g id="Group_1786" data-name="Group 1786" transform="translate(0 0)">
          <path id="Path_810" data-name="Path 810" d="M563.038,578.5c.046-.141.119-.418.226-.681a1.25,1.25,0,0,0-.145-1.353,3.988,3.988,0,0,0-.58-.521,1.243,1.243,0,0,1-.02-1.967c.147-.123.3-.242.442-.367a1.237,1.237,0,0,0,.348-1.394c-.069-.184-.146-.366-.206-.553a1.235,1.235,0,0,1,.985-1.628c.189-.034.378-.061.566-.1a1.241,1.241,0,0,0,.986-.952c.04-.187.068-.377.094-.567a1.242,1.242,0,0,1,1.682-1.019c.16.058.318.122.477.182a1.24,1.24,0,0,0,1.463-.391c.108-.132.214-.265.324-.395a1.234,1.234,0,0,1,1.922-.02c.12.135.229.28.345.419a1.244,1.244,0,0,0,1.451.391,5.072,5.072,0,0,1,.708-.241,1.226,1.226,0,0,1,1.457,1.046c.028.189.055.379.093.567a1.232,1.232,0,0,0,1.012.981c.194.034.389.062.582.1a1.237,1.237,0,0,1,.948,1.626c-.065.2-.149.387-.217.583a1.233,1.233,0,0,0,.376,1.373c.15.128.3.25.455.376a1.244,1.244,0,0,1,0,1.905c-.15.127-.307.247-.455.376A1.239,1.239,0,0,0,578,577.7c.069.184.144.367.2.554a1.235,1.235,0,0,1-.971,1.611c-.178.032-.357.06-.535.09a1.248,1.248,0,0,0-1.057,1.068c-.027.163-.051.326-.077.489a1.238,1.238,0,0,1-1.661.993c-.186-.064-.367-.142-.553-.207a1.231,1.231,0,0,0-1.373.374c-.12.142-.236.289-.355.431a1.231,1.231,0,0,1-1.9.044c-.129-.141-.244-.3-.366-.443a1.241,1.241,0,0,0-1.465-.385c-.159.061-.317.125-.477.181a1.239,1.239,0,0,1-1.675-1.009c-.025-.163-.049-.326-.077-.488a1.242,1.242,0,0,0-1.042-1.045c-.189-.032-.378-.062-.566-.1A1.281,1.281,0,0,1,563.038,578.5Zm7.62,3.262a6.811,6.811,0,1,0-6.8-6.813A6.811,6.811,0,0,0,570.658,581.762Z" transform="translate(-562.047 -566.329)" fill="#fff"/>
        </g>
      </g>
      <path id="Path_875" data-name="Path 875" d="M498.047,667.45h29.207v-2.275c-3.493-.006-25.706-.016-29.207-.031Z" transform="translate(-492.611 -638.729)"/>
      <path id="Path_876" data-name="Path 876" d="M498.047,686.45h29.207v-2.275c-3.493-.006-25.706-.016-29.207-.031Z" transform="translate(-492.611 -653.55)"/>
      <path id="Path_877" data-name="Path 877" d="M498.047,705.45h29.207v-2.275c-3.493-.006-25.706-.016-29.207-.031Z" transform="translate(-492.611 -668.371)"/>
    </g>
  </g>
</svg>
