<svg xmlns="http://www.w3.org/2000/svg" width="111.113" height="111.113" viewBox="0 0 111.113 111.113">
  <g id="np_pattern-lock_882598_000000" transform="translate(-5 -5)">
    <path id="Path_868" data-name="Path 868" d="M103.767,5a12.364,12.364,0,0,0-11.941,9.259H72.5a12.329,12.329,0,0,0-23.882,0H29.287a12.346,12.346,0,1,0,0,6.173H48.616a12.329,12.329,0,0,0,23.882,0H91.826a12.352,12.352,0,0,0,1.317,3.173L66.817,49.932A12.323,12.323,0,0,0,49.933,66.816L23.606,93.143a12.34,12.34,0,1,0,5.681,13.711H48.616a12.329,12.329,0,0,0,23.882,0H91.826a12.346,12.346,0,1,0,0-6.173H72.5a12.329,12.329,0,0,0-23.882,0H29.287a12.351,12.351,0,0,0-1.317-3.173L54.3,71.181A12.323,12.323,0,0,0,71.181,54.3L97.508,27.97A12.34,12.34,0,1,0,103.767,5ZM17.346,20.432a3.086,3.086,0,1,1,3.086-3.086A3.089,3.089,0,0,1,17.346,20.432Zm43.211,0a3.086,3.086,0,1,1,3.086-3.086A3.089,3.089,0,0,1,60.557,20.432ZM17.346,106.854a3.086,3.086,0,1,1,3.086-3.086A3.089,3.089,0,0,1,17.346,106.854Zm86.422-6.173a3.086,3.086,0,1,1-3.086,3.086A3.089,3.089,0,0,1,103.767,100.681Zm-43.211,0a3.086,3.086,0,1,1-3.086,3.086A3.089,3.089,0,0,1,60.557,100.681Zm0-37.038a3.086,3.086,0,1,1,3.086-3.086A3.089,3.089,0,0,1,60.557,63.643Zm43.211-43.211a3.086,3.086,0,1,1,3.086-3.086A3.089,3.089,0,0,1,103.767,20.432Z" transform="translate(0)" fill="#8973a4"/>
    <path id="Path_869" data-name="Path 869" d="M87.346,40A12.346,12.346,0,1,0,99.692,52.346,12.357,12.357,0,0,0,87.346,40Zm0,15.432a3.086,3.086,0,1,1,3.086-3.086A3.089,3.089,0,0,1,87.346,55.432Z" transform="translate(16.422 8.211)" fill="#8973a4"/>
    <path id="Path_870" data-name="Path 870" d="M17.346,64.692A12.346,12.346,0,1,0,5,52.346,12.357,12.357,0,0,0,17.346,64.692Zm0-15.432a3.086,3.086,0,1,1-3.086,3.086A3.089,3.089,0,0,1,17.346,49.259Z" transform="translate(0 8.211)" fill="#8973a4"/>
  </g>
</svg>
