<svg xmlns="http://www.w3.org/2000/svg" width="92.01" height="16.062" viewBox="0 0 92.01 16.062">
  <g id="np_pin-lock_993178_000000" transform="translate(-3.998 -41.969)">
    <path id="Path_871" data-name="Path 871" d="M4.269,54.016a1.98,1.98,0,0,0,1.211.934,2.005,2.005,0,0,0,1.52-.2l2.223-1.285v2.57a2,2,0,0,0,4,0V53.465l2.227,1.281a2,2,0,0,0,2-3.461L15.223,50l2.223-1.285h0a2,2,0,0,0-2-3.465l-2.223,1.285,0-2.566a2,2,0,0,0-4,0v2.566L7,45.254a2,2,0,1,0-2,3.461L7.223,50,5,51.286a2,2,0,0,0-.73,2.73Z" fill="#8973a4"/>
    <path id="Path_872" data-name="Path 872" d="M30.117,54.016a2,2,0,0,0,2.734.73l2.223-1.285v2.57a2,2,0,0,0,4,0V53.465L41.3,54.746A2,2,0,0,0,44.23,52.5a1.988,1.988,0,0,0-.934-1.215L41.074,50,43.3,48.715a2,2,0,0,0-.48-3.664,2.024,2.024,0,0,0-1.52.2l-2.223,1.285V43.969a2,2,0,0,0-4,0v2.566l-2.223-1.281A2,2,0,0,0,29.918,47.5a1.988,1.988,0,0,0,.934,1.215L33.074,50l-2.223,1.285a2,2,0,0,0-.734,2.73Z" fill="#8973a4"/>
    <path id="Path_873" data-name="Path 873" d="M55.969,54.016a2,2,0,0,0,2.734.73l2.223-1.285v2.57a2,2,0,0,0,4,0V53.465l2.223,1.281A2,2,0,0,0,70.082,52.5a1.988,1.988,0,0,0-.934-1.215L66.926,50l2.223-1.285a2,2,0,0,0-.48-3.664,2.024,2.024,0,0,0-1.52.2l-2.223,1.285V43.969a2,2,0,1,0-4,0v2.566L58.7,45.254A2,2,0,0,0,55.77,47.5a1.988,1.988,0,0,0,.934,1.215L58.926,50,56.7,51.286a2,2,0,0,0-.734,2.73Z" fill="#8973a4"/>
    <path id="Path_874" data-name="Path 874" d="M81.82,54.016a2,2,0,0,0,1.215.934,1.978,1.978,0,0,0,1.516-.2l2.223-1.285v2.566l0,0a2,2,0,0,0,4,0V53.465L93,54.746a2,2,0,1,0,2-3.461L92.777,50,95,48.715a2,2,0,1,0-2-3.461l-2.223,1.285v-2.57a2,2,0,1,0-4,0v2.566L84.55,45.254a2,2,0,0,0-2,3.461L84.777,50l-2.223,1.285h0a2,2,0,0,0-.73,2.73Z" fill="#8973a4"/>
  </g>
</svg>
