<svg xmlns="http://www.w3.org/2000/svg" width="100" height="100" viewBox="0 0 100 100">
  <g id="Group_2628" data-name="Group 2628" transform="translate(-2841.224 -7807.935)">
    <circle id="Ellipse_84" data-name="Ellipse 84" cx="47.403" cy="47.403" r="47.403" transform="translate(2842.826 7810.792)" fill="#8973a4"/>
    <path id="Path_806" data-name="Path 806" d="M537.878,610.329a50,50,0,1,0,50,50A50,50,0,0,0,537.878,610.329Zm0,95.584a45.584,45.584,0,1,1,45.584-45.584A45.585,45.585,0,0,1,537.878,705.913Z" transform="translate(2353.346 7197.606)"/>
    <rect id="Rectangle_799" data-name="Rectangle 799" width="34.545" height="21.558" transform="translate(2873.995 7830.013)" fill="#fff"/>
    <rect id="Rectangle_800" data-name="Rectangle 800" width="33.247" height="21.558" transform="translate(2875.813 7868.455)" fill="#fff"/>
    <g id="Group_1784" data-name="Group 1784" transform="translate(2859.19 7829.703)">
      <path id="Path_807" data-name="Path 807" d="M591.534,821.867h45.792V819.18c-4.125-.008-41.658-.019-45.792-.037Z" transform="translate(-582.576 -786.673)"/>
      <path id="Path_808" data-name="Path 808" d="M621.216,712.409a16.491,16.491,0,0,0-.116-1.9,10.273,10.273,0,0,0-8.58-8.9,25.061,25.061,0,0,0-3.432-.169c-.492,0-1,0-1.5-.018-.258-.008-.517-.006-.8,0l-.213,0c-.021-1.089-.017-2.173-.013-3.223,0-1.263.009-2.568-.03-3.85l-.007-.218h-34.78l-.007.218c-.039,1.281-.035,2.587-.03,3.85,0,1.05.008,2.134-.013,3.223l-.213,0c-.285,0-.543,0-.8,0-.5.015-1.006.016-1.5.018a25.056,25.056,0,0,0-3.432.169,10.273,10.273,0,0,0-8.58,8.9,16.464,16.464,0,0,0-.116,1.9c0,2.123-.006,11.07-.006,15.79h0c0,.1,0,.193,0,.289v2.192h.023a21.573,21.573,0,0,0,.166,2.879,10.272,10.272,0,0,0,8.9,8.58,16.57,16.57,0,0,0,1.9.116c2.4,0,2.174.006,4.134.006-.01,4.055,0,8.782.014,13.007h34.8l.005-.083c.024-.364.023-.666.023-.959v-.167q.006-4.188,0-8.376v-1.272h-2.906v8.12c-8.895.047-17.906.056-26.622.065l-2.42,0V735.085h29.042v7.18h.225l.851,0c.095,0,.2-.008.3-.016v.016c2.629,0,2.116,0,4.737-.006a16.575,16.575,0,0,0,1.9-.116,10.272,10.272,0,0,0,8.9-8.58,21.6,21.6,0,0,0,.166-2.879h.043C621.223,728.051,621.221,715.03,621.216,712.409ZM618.347,729.4c-.011,1.49-.046,2.934-.139,3.64a7.407,7.407,0,0,1-6.754,6.305c-.244.021-.52.044-.784.044-2.113,0-2.406,0-3.643,0-.017-1.035-.015-2.064-.011-3.062,0-1.262.009-2.568-.03-3.85l-.007-.219H572.331l-.035.184c-.06.318-.1,3.095-.117,6.946-2.148,0-2.03,0-4.6,0-.265,0-.541-.023-.784-.044a7.408,7.408,0,0,1-6.755-6.305c-.065-.5-.1-1.365-.122-2.355h0c0-2.782,0-15.941,0-18.723,0-.265.024-.54.044-.784a7.408,7.408,0,0,1,6.3-6.755c.994-.13,3.453-.148,5.442-.142,0,.656,0,1.328,0,2.013h0v1.272q0,4.188,0,8.376v.167c0,.265,0,.541.018.86v.182h34.8l.005-.083c.024-.363.023-.666.023-.959v-.167q.006-4.188,0-8.376v-1.272h-2.906v8.121c-4.813.025-9.659.039-14.475.048-4.846-.009-9.722-.023-14.565-.048v-8.121h0v-2h0v-7.328h29.04v7.328h.225c.184,0,.479,0,.851,0,1.923-.014,5.925-.043,7.265.132a7.407,7.407,0,0,1,6.3,6.755c.021.244.044.52.044.784C618.348,714.43,618.347,725.1,618.347,729.4Z" transform="translate(-557.047 -694.133)"/>
    </g>
  </g>
</svg>
