<svg xmlns="http://www.w3.org/2000/svg" width="150" height="150" viewBox="0 0 150 150">
  <g id="Group_256" data-name="Group 256" transform="translate(-2177.735 -76.114)">
    <path id="Icon_awesome-play-circle" data-name="Icon awesome-play-circle" d="M2252.735,76.114a74.988,74.988,0,1,0,.024,0Z" transform="translate(0)" fill="#fcc44c"/>
    <path id="Path_262" data-name="Path 262" d="M2286.072,158.474l-52.424,30.975a7.056,7.056,0,0,1-9.736-2.875,7.53,7.53,0,0,1-.9-3.565V119.22a7.274,7.274,0,0,1,7.179-7.365,7.018,7.018,0,0,1,3.455.922l52.424,32.816a7.5,7.5,0,0,1,2.747,10.051A7.284,7.284,0,0,1,2286.072,158.474Z" transform="translate(1.257 0)" fill="#fff"/>
  </g>
</svg>
