<svg xmlns="http://www.w3.org/2000/svg" xmlns:xlink="http://www.w3.org/1999/xlink" width="196.25" height="148.381" viewBox="0 0 196.25 148.381"><defs><style>.a{clip-path:url(#a);}</style><clipPath id="a"><path d="M0-128H196.25V-276.381H0Z" transform="translate(0 276.381)"/></clipPath></defs><g class="a"><g transform="translate(0 0)"><path d="M-110.8-1.132a62.956,62.956,0,0,0-11.689-1.236q-7.795-.039-15.591-.053V6.218q7.5.01,15,.033c21.084.077,39.707,12.041,47.608,30.388,12.3,28.563-7.208,61.044-39.582,65.8a70.437,70.437,0,0,1-9.686.647c-4.445.033-9.034.049-13.48.054-.013-.01.139,22.609.139,22.609s-3.32-3.4-4.453-4.477c-5.691-5.415-11.486-10.735-17.131-16.191a6.724,6.724,0,0,0-5.177-2.005q-15.8.133-31.6.01a70.435,70.435,0,0,1-9.685-.647c-32.374-4.759-51.883-37.24-39.582-65.8,7.9-18.347,26.523-30.311,47.607-30.388,22.922-.084,23.943-.02,46.865-.02h3.828V-2.433h-3.723c-23.154,0-24.405-.052-47.559.065A62.955,62.955,0,0,0-210.38-1.132c-41.082,8.035-61.386,52.1-39.237,85.546,11.836,17.872,29.43,26.838,51.8,27.342,9.6.216,19.218.1,28.825-.01a7.531,7.531,0,0,1,5.771,2.237c10.245,9.747,20.591,19.4,30.911,29.079.852.8,1.766,1.542,3.3,2.876.116-11.865-.039-23.134.095-34.094,1.85-.02,3.7-.046,5.549-.088,22.374-.5,39.969-9.47,51.8-27.342C-49.41,50.971-69.715,6.9-110.8-1.132" transform="translate(258.713 2.443)"/></g></g></svg>