<svg xmlns="http://www.w3.org/2000/svg" xmlns:xlink="http://www.w3.org/1999/xlink" width="287" height="106" viewBox="0 0 287 106"><defs><style>.a{clip-path:url(#a);}</style><clipPath id="a"><path d="M0-23H287V-129H0Z" transform="translate(0 129)"/></clipPath></defs><g class="a"><g transform="translate(0 0)"><path d="M-62-10.037H-91.455a53.025,53.025,0,0,0-52.6-46.257,53.025,53.025,0,0,0-52.6,46.257h-18.153a53.025,53.025,0,0,0-52.6-46.257,53.025,53.025,0,0,0-52.6,46.257H-349V2.815h28.913a53.027,53.027,0,0,0,52.681,46.891,53.026,53.026,0,0,0,52.68-46.891h17.992a53.027,53.027,0,0,0,52.681,46.891A53.026,53.026,0,0,0-91.374,2.815H-62ZM-267.406,37.38A40.69,40.69,0,0,1-308.113-3.294a40.69,40.69,0,0,1,40.706-40.674A40.69,40.69,0,0,1-226.7-3.294,40.69,40.69,0,0,1-267.406,37.38m123.352,0A40.69,40.69,0,0,1-184.76-3.294a40.69,40.69,0,0,1,40.706-40.674A40.69,40.69,0,0,1-103.348-3.294,40.69,40.69,0,0,1-144.054,37.38" transform="translate(349 56.294)"/></g></g></svg>