<svg id="Icon-Account" xmlns="http://www.w3.org/2000/svg" width="25" height="23.202" viewBox="0 0 25 23.202">
  <path id="Path_248" data-name="Path 248" d="M1216.461,890.988a12.438,12.438,0,0,0-7.823,10.925h1.328a11.131,11.131,0,0,1,7.8-9.991Zm4.677.419a11.285,11.285,0,0,1,11.172,10.505h1.328a12.453,12.453,0,0,0-9.178-11.38,6.379,6.379,0,1,0-6.458-.049A6.063,6.063,0,0,0,1221.137,891.408Zm-4.907-6.362a5.043,5.043,0,1,1,5.043,5.008A5.026,5.026,0,0,1,1216.23,885.046Z" transform="translate(-1208.637 -878.711)"/>
</svg>
