<svg xmlns="http://www.w3.org/2000/svg" width="19.36" height="13.724" viewBox="0 0 19.36 13.724">
  <path id="Path_419" data-name="Path 419" d="M2068.571,350.742a41.684,41.684,0,0,1-7.6-6.316l-.172-.174-1.778,1.777c1.511,1.357,2.823,2.517,4.206,3.749h-13.661V351.8h14.041c-1.431,1.332-3.615,3.435-4.7,4.41l1.77,1.77a56.834,56.834,0,0,1,5.994-5.31c.323-.245.653-.484.989-.724l.1-.007c0-.021,0-.041-.007-.062.381-.271.771-.545,1.171-.833A3.87,3.87,0,0,0,2068.571,350.742Z" transform="translate(-2049.572 -344.253)"/>
</svg>
