<svg xmlns="http://www.w3.org/2000/svg" width="102.747" height="102.748" viewBox="0 0 102.747 102.748">
  <g id="Icon-Arrow_Next" data-name="Icon-Arrow / Next" transform="matrix(-1, 0.017, -0.017, -1, 102.239, 100.494)">
    <path id="Path_319" data-name="Path 319" d="M2027.178,359.676a45.067,45.067,0,0,0,10.97,29.545l-3.37,3.37a50,50,0,0,1,70.553-70.553l-3.37,3.37a45.247,45.247,0,0,0-74.783,34.268Zm82.98-32.8-3.372,3.373a45.246,45.246,0,0,1-63.795,63.794l-3.372,3.373a50,50,0,0,0,70.539-70.54Zm-15.748,32.69a98.385,98.385,0,0,1-17.925-14.9l-.405-.411-4.195,4.194c3.565,3.2,6.664,5.94,9.926,8.848h-32.239v4.762h33.135c-3.377,3.144-8.532,8.107-11.093,10.407l4.177,4.177a134.058,134.058,0,0,1,14.145-12.531c.764-.579,1.542-1.142,2.334-1.708l.241-.016c0-.05-.012-.1-.016-.146.9-.64,1.818-1.285,2.764-1.965A9.133,9.133,0,0,0,2094.41,359.568Z" transform="translate(-2022.416 -309.676)" stroke="#000" stroke-width="1"/>
  </g>
</svg>
