<svg id="Icon-Tick" xmlns="http://www.w3.org/2000/svg" width="25.416" height="25.416" viewBox="0 0 25.416 25.416">
  <path id="Path_321" data-name="Path 321" d="M2023.626,754.384a11.455,11.455,0,0,0,2.788,7.509l-.857.857a12.708,12.708,0,0,1,17.932-17.932l-.857.857a11.5,11.5,0,0,0-19.007,8.71Zm21.09-8.336-.857.857a11.5,11.5,0,0,1-16.214,16.214l-.857.857a12.708,12.708,0,0,0,17.928-17.928Zm-11.253,13.344a91.182,91.182,0,0,1,7.8-8.216l.109-.1-1.021-1.11c-.851.871-6.936,7.025-6.936,7.025s-1.9-2.243-2.46-2.918l-1.1,1.016a23.692,23.692,0,0,1,2.511,3.117c.139.2.274.4.409.611,0,.021,0,.041,0,.061.013,0,.025,0,.037,0,.153.235.307.475.47.723A2.328,2.328,0,0,0,2033.464,759.392Z" transform="translate(-2022.416 -741.676)"/>
</svg>
