<svg xmlns="http://www.w3.org/2000/svg" width="80" height="80" viewBox="0 0 80 80">
  <g id="Group_425" data-name="Group 425" transform="translate(-920 -3121)">
    <circle id="Ellipse_23" data-name="Ellipse 23" cx="40" cy="40" r="40" transform="translate(920 3121)" fill="#f28e33"/>
    <path id="Path_326" data-name="Path 326" d="M2466.234,403.844l1.932,2.228c-.255.367-.5.74-.75,1.12,0,.037,0,.075,0,.112-.023,0-.045,0-.068,0-.28.431-.563.871-.861,1.325a4.25,4.25,0,0,1-.346-.382,79.456,79.456,0,0,0-6.231-7.044,79.375,79.375,0,0,0-6.231,7.044,4.287,4.287,0,0,1-.346.382c-.3-.453-.581-.894-.861-1.325-.023,0-.045.006-.068,0,0-.037,0-.075,0-.112-.248-.38-.495-.753-.75-1.12l1.932-2.228,4.49-4.542c-2.552-2.61-5-5-6.224-6.118l-.2-.181,1.871-2.034c.732.749,3.575,3.629,6.387,6.476,2.812-2.847,5.655-5.726,6.387-6.476l1.871,2.034-.2.181c-1.226,1.114-3.671,3.509-6.224,6.118Zm-27.4-4.048a20.992,20.992,0,0,0,5.11,13.763l-1.57,1.57a23.291,23.291,0,0,1,32.865-32.866l-1.57,1.57a21.077,21.077,0,0,0-34.836,15.963Zm38.655-15.278-1.571,1.571a21.077,21.077,0,0,1-29.717,29.717l-1.571,1.571a23.292,23.292,0,0,0,32.859-32.859Z" transform="translate(-1499.617 2761.494)" fill="#fff"/>
  </g>
</svg>
