<svg xmlns="http://www.w3.org/2000/svg" width="23.122" height="23.122" viewBox="0 0 23.122 23.122">
  <path id="Icon_awesome-facebook-square" data-name="Icon awesome-facebook-square" d="M20.644,2.25H2.477A2.477,2.477,0,0,0,0,4.727V22.894a2.477,2.477,0,0,0,2.477,2.477H9.561V17.511H6.309v-3.7H9.561v-2.82c0-3.208,1.91-4.979,4.834-4.979a19.7,19.7,0,0,1,2.865.25V9.41H15.647a1.85,1.85,0,0,0-2.086,2v2.4h3.55l-.568,3.7H13.561v7.861h7.084a2.477,2.477,0,0,0,2.477-2.477V4.727A2.477,2.477,0,0,0,20.644,2.25Z" transform="translate(0 -2.25)"/>
</svg>
