<svg id="Icon-Account" xmlns="http://www.w3.org/2000/svg" width="37" height="34.339" viewBox="0 0 37 34.339">
  <path id="Path_248" data-name="Path 248" d="M1220.216,896.881a18.409,18.409,0,0,0-11.579,16.169h1.965a16.474,16.474,0,0,1,11.54-14.787Zm6.921.621a16.7,16.7,0,0,1,16.535,15.548h1.965a18.431,18.431,0,0,0-13.583-16.842,9.441,9.441,0,1,0-9.558-.072A8.975,8.975,0,0,0,1227.137,897.5Zm-7.263-9.415a7.464,7.464,0,1,1,7.464,7.412A7.438,7.438,0,0,1,1219.874,888.087Z" transform="translate(-1208.637 -878.711)" fill="#fff"/>
</svg>
