<svg xmlns="http://www.w3.org/2000/svg" width="23.135" height="23.13" viewBox="0 0 23.135 23.13">
  <path id="Icon_awesome-instagram" data-name="Icon awesome-instagram" d="M11.565,7.872a5.93,5.93,0,1,0,5.93,5.93A5.921,5.921,0,0,0,11.565,7.872Zm0,9.785A3.855,3.855,0,1,1,15.42,13.8a3.862,3.862,0,0,1-3.855,3.855ZM19.121,7.63a1.383,1.383,0,1,1-1.383-1.383A1.38,1.38,0,0,1,19.121,7.63Zm3.928,1.4A6.845,6.845,0,0,0,21.18,4.187a6.89,6.89,0,0,0-4.846-1.868c-1.91-.108-7.633-.108-9.543,0A6.88,6.88,0,0,0,1.944,4.182,6.867,6.867,0,0,0,.076,9.028c-.108,1.91-.108,7.633,0,9.543a6.845,6.845,0,0,0,1.868,4.846,6.9,6.9,0,0,0,4.846,1.868c1.91.108,7.633.108,9.543,0a6.845,6.845,0,0,0,4.846-1.868,6.89,6.89,0,0,0,1.868-4.846c.108-1.91.108-7.628,0-9.538ZM20.581,20.62a3.9,3.9,0,0,1-2.2,2.2c-1.523.6-5.135.465-6.818.465s-5.3.134-6.818-.465a3.9,3.9,0,0,1-2.2-2.2c-.6-1.523-.465-5.135-.465-6.818s-.134-5.3.465-6.818a3.9,3.9,0,0,1,2.2-2.2c1.523-.6,5.135-.465,6.818-.465s5.3-.134,6.818.465a3.9,3.9,0,0,1,2.2,2.2c.6,1.523.465,5.135.465,6.818S21.185,19.1,20.581,20.62Z" transform="translate(0.005 -2.238)"/>
</svg>
