<svg xmlns="http://www.w3.org/2000/svg" width="45.099" height="26.308" viewBox="0 0 45.099 26.308">
  <g id="Icon_ionic-ios-menu" data-name="Icon ionic-ios-menu" transform="translate(-4.5 -10.125)">
    <path id="Path_263" data-name="Path 263" d="M47.72,13.883H6.379A1.885,1.885,0,0,1,4.5,12h0a1.885,1.885,0,0,1,1.879-1.879H47.72A1.885,1.885,0,0,1,49.6,12h0A1.885,1.885,0,0,1,47.72,13.883Z"/>
    <path id="Path_264" data-name="Path 264" d="M47.72,20.633H6.379A1.885,1.885,0,0,1,4.5,18.754h0a1.885,1.885,0,0,1,1.879-1.879H47.72A1.885,1.885,0,0,1,49.6,18.754h0A1.885,1.885,0,0,1,47.72,20.633Z" transform="translate(0 4.525)"/>
    <path id="Path_265" data-name="Path 265" d="M47.72,27.383H6.379A1.885,1.885,0,0,1,4.5,25.5h0a1.885,1.885,0,0,1,1.879-1.879H47.72A1.885,1.885,0,0,1,49.6,25.5h0A1.885,1.885,0,0,1,47.72,27.383Z" transform="translate(0 9.049)"/>
  </g>
</svg>
