<svg xmlns="http://www.w3.org/2000/svg" width="34.547" height="34.547" viewBox="0 0 34.547 34.547">
  <g id="Icon_ionic-ios-menu" data-name="Icon ionic-ios-menu" transform="translate(-9.775 -4.73)">
    <path id="Path_263" data-name="Path 263" d="M47.72,13.883H6.379A1.885,1.885,0,0,1,4.5,12h0a1.885,1.885,0,0,1,1.879-1.879H47.72A1.885,1.885,0,0,1,49.6,12h0A1.885,1.885,0,0,1,47.72,13.883Z" transform="translate(16.41 -5.611) rotate(45)"/>
    <path id="Path_265" data-name="Path 265" d="M47.72,27.383H6.379A1.885,1.885,0,0,1,4.5,25.5h0a1.885,1.885,0,0,1,1.879-1.879H47.72A1.885,1.885,0,0,1,49.6,25.5h0A1.885,1.885,0,0,1,47.72,27.383Z" transform="translate(-10.112 23.097) rotate(-45)"/>
  </g>
</svg>
