<svg id="Group_2104" data-name="Group 2104" xmlns="http://www.w3.org/2000/svg" width="27.26" height="27.26" viewBox="0 0 27.26 27.26">
  <path id="Path_323" data-name="Path 323" d="M2013.313,1198.9a10.729,10.729,0,1,0,10.728,10.729A10.728,10.728,0,0,0,2013.313,1198.9Zm-12.275,10.726a12.285,12.285,0,0,0,2.99,8.054l-.919.919a13.63,13.63,0,0,1,19.233-19.233l-.918.919a12.334,12.334,0,0,0-20.386,9.341Zm22.62-8.94-.92.919a12.334,12.334,0,0,1-17.39,17.39l-.919.919a13.63,13.63,0,0,0,19.229-19.229Z" transform="translate(-1999.74 -1196)" fill="#e51d1d"/>
</svg>
