<svg xmlns="http://www.w3.org/2000/svg" width="29.144" height="20.18" viewBox="0 0 29.144 20.18">
  <g id="Group_2439" data-name="Group 2439" transform="translate(7834 20186)">
    <g id="Emoji-Emotionless" transform="translate(-7834 -20186)">
      <path id="Path_266" data-name="Path 266" d="M103.652,285.53a6.509,6.509,0,0,1,3.93-5.577,6.807,6.807,0,0,1,7.339.719,4.228,4.228,0,0,1,1.7,5.039,11.436,11.436,0,0,1-4.785,6.327c-2.059,1.354-4.363.941-6.187-.93A7.424,7.424,0,0,1,103.652,285.53Zm11.27,1.133c.154-2.7-2.067-3.681-3.876-3.722a3.78,3.78,0,0,0-3.7,3.392,4.053,4.053,0,0,0,3.989,3.972A3.37,3.37,0,0,0,114.922,286.663Zm8.655-7.407a6.946,6.946,0,0,1,4.415,12.465,4.48,4.48,0,0,1-5.6.239,11.719,11.719,0,0,1-4.669-6.253,4.28,4.28,0,0,1,1.655-5A6.61,6.61,0,0,1,123.577,279.256Zm-.734,11.042a4.007,4.007,0,0,0,4.144-3.789,3.718,3.718,0,0,0-3.508-3.573,3.631,3.631,0,0,0-4.057,3.409C119.332,288.735,120.609,290.21,122.842,290.3Zm-2.554,3.626a1.773,1.773,0,0,0,.25-2.752.935.935,0,0,0-.779-.246,9.429,9.429,0,0,1-5.176-.018.762.762,0,0,0-.58.069,1.835,1.835,0,0,0-.408,2.386,4.945,4.945,0,0,0,4.052,2C118.46,295.414,119.38,294.674,120.288,293.924Zm8.719-18.738c-1.3.05-2.285,1.312-2.255,2.974.021,1.139.86,1.841,2.2,1.842,1.953,0,2.633-.5,2.628-1.921A2.815,2.815,0,0,0,129.008,275.187Zm-21.774,2.97c.032-1.679-.933-2.964-2.228-2.964a2.72,2.72,0,0,0-2.555,2.893c-.014,1.427.633,1.9,2.623,1.917C106.419,280.015,107.211,279.338,107.234,278.157Zm6.08,8.62a1.659,1.659,0,0,0-1.6-1.527,1.642,1.642,0,0,0-1.635,1.681,1.528,1.528,0,0,0,1.642,1.532A1.582,1.582,0,0,0,113.314,286.777Zm10.969.126a1.627,1.627,0,0,0-3.252-.108,1.624,1.624,0,0,0,1.634,1.665A1.528,1.528,0,0,0,124.283,286.9Z" transform="translate(-102.451 -275.186)"/>
    </g>
    <path id="Path_889" data-name="Path 889" d="M30,0h0" transform="translate(-7837.5 -20183.5)" fill="none" stroke="#000" stroke-linecap="round" stroke-width="3"/>
  </g>
</svg>
