<svg xmlns="http://www.w3.org/2000/svg" xmlns:xlink="http://www.w3.org/1999/xlink" width="33" height="30.448" viewBox="0 0 33 30.448">
  <defs>
    <clipPath id="clip-path">
      <path id="Path_843" data-name="Path 843" d="M0-217.995H33v-30.448H0Z" transform="translate(0 248.443)" fill="#fff"/>
    </clipPath>
  </defs>
  <g id="Group_1917" data-name="Group 1917" transform="translate(0 0)" clip-path="url(#clip-path)">
    <g id="Group_1916" data-name="Group 1916" transform="translate(0 0)">
      <path id="Path_839" data-name="Path 839" d="M-226.983-75.146c0-.273-.024-.546-.041-.9h-13.223c0-3.1,0-6.881,0-9.593h-1.963c0,3.3,0,8.2,0,11.5,0,.006,12.673.006,13.214.006.019.235.047.418.047.6q0,5.143,0,10.287c0,.21-.018.42-.036.628a6.076,6.076,0,0,1-5.268,5.446c-.7.088-7.455.108-10.055.112s-7.709-.024-8.4-.112a6.076,6.076,0,0,1-5.269-5.446c-.018-.209-.036-.419-.036-.628q0-5.143,0-10.287c0-.183.028-.367.047-.6h13.726v-1.917h-15.7c-.017.357-.04.63-.041.9q0,5.774,0,11.547a12.334,12.334,0,0,0,.093,1.465,8.026,8.026,0,0,0,6.8,6.81c.721.1,4.743.121,7.828.128v0h1.9v0c3.085-.006,8.757-.028,9.478-.128a8.025,8.025,0,0,0,6.8-6.81,12.286,12.286,0,0,0,.093-1.465q.011-5.774,0-11.547" transform="translate(259.98 85.642)" fill="#fff"/>
    </g>
    <g id="np_recycling_1949941_FFFFFF" transform="translate(4.953 8.172)">
      <path id="Path_840" data-name="Path 840" d="M45.148,7.393V5.6L41.9,7.047l1.633,3.424L44.6,9.054a3.594,3.594,0,0,1,2.066,3.265,3.331,3.331,0,0,1-.058.65l1.762.015s.043-.448.043-.665a5.338,5.338,0,0,0-3.265-4.926Z" transform="translate(-31.31)" fill="#fff"/>
      <path id="Path_841" data-name="Path 841" d="M37.4,60.951a3.67,3.67,0,0,1-2.4.91,3.543,3.543,0,0,1-2.008-.621s-.694,1.618-.694,1.633a5.534,5.534,0,0,0,2.7.737,5.389,5.389,0,0,0,3.612-1.4l1.589.766.029-3.64L36.577,59.3Z" transform="translate(-23.099 -45.945)" fill="#fff"/>
      <path id="Path_842" data-name="Path 842" d="M8.292,23.067a3.856,3.856,0,0,1-.144-1A3.589,3.589,0,0,1,10.791,18.6s-.679-1.488-.722-1.6A5.391,5.391,0,0,0,6.4,22.071a5.109,5.109,0,0,0,.274,1.676L5.3,24.8l3.279,1.574,1.574-3.265Z" transform="translate(0 -9.751)" fill="#fff"/>
    </g>
  </g>
</svg>
