<svg xmlns="http://www.w3.org/2000/svg" width="35.959" height="36.277" viewBox="0 0 35.959 36.277">
  <g id="Icon-Search" transform="translate(0 0)">
    <path id="Path_311" data-name="Path 311" d="M1196.011,847.132a13.137,13.137,0,1,0,12.92,13.136A13.029,13.029,0,0,0,1196.011,847.132Zm0,24.41a11.276,11.276,0,1,1,11.09-11.274A11.183,11.183,0,0,1,1196.011,871.542Zm21.591,11.867-11.866-12.063,1.448-1.472,11.866,12.063Zm-21.166-32.1V853.2c-.141-.009-.282-.014-.425-.014a7.027,7.027,0,0,0-6.968,7.084c0,.013,0,.027,0,.04h-1.855c0-.013,0-.027,0-.04a8.9,8.9,0,0,1,8.822-8.969C1196.154,851.3,1196.3,851.3,1196.437,851.309Z" transform="translate(-1183.091 -847.132)" fill="#fff"/>
  </g>
</svg>
