<svg xmlns="http://www.w3.org/2000/svg" width="50" height="49.989" viewBox="0 0 50 49.989">
  <path id="Icon_awesome-instagram" data-name="Icon awesome-instagram" d="M25,14.416A12.817,12.817,0,1,0,37.817,27.232,12.8,12.8,0,0,0,25,14.416Zm0,21.149a8.332,8.332,0,1,1,8.332-8.332A8.348,8.348,0,0,1,25,35.565ZM41.33,13.891A2.989,2.989,0,1,1,38.341,10.9,2.982,2.982,0,0,1,41.33,13.891Zm8.489,3.034c-.19-4-1.1-7.552-4.038-10.474s-6.47-3.837-10.474-4.038c-4.127-.234-16.5-.234-20.625,0-3.993.19-7.54,1.1-10.474,4.027S.371,12.91.17,16.914c-.234,4.127-.234,16.5,0,20.625.19,4,1.1,7.552,4.038,10.474s6.47,3.837,10.474,4.038c4.127.234,16.5.234,20.625,0,4-.19,7.552-1.1,10.474-4.038s3.837-6.47,4.038-10.474c.234-4.127.234-16.486,0-20.613ZM44.487,41.967a8.436,8.436,0,0,1-4.752,4.752c-3.291,1.305-11.1,1-14.735,1s-11.456.29-14.735-1a8.436,8.436,0,0,1-4.752-4.752c-1.305-3.291-1-11.1-1-14.735s-.29-11.456,1-14.735a8.436,8.436,0,0,1,4.752-4.752c3.291-1.305,11.1-1,14.735-1s11.456-.29,14.735,1A8.436,8.436,0,0,1,44.487,12.5c1.305,3.291,1,11.1,1,14.735S45.792,38.688,44.487,41.967Z" transform="translate(0.005 -2.238)" fill="#fff"/>
</svg>
