<svg xmlns="http://www.w3.org/2000/svg" width="50" height="40.638" viewBox="0 0 50 40.638">
  <path id="Icon_simple-twitter" data-name="Icon simple-twitter" d="M49.9,8.208a20.834,20.834,0,0,1-5.885,1.615A10.329,10.329,0,0,0,48.523,4.15a21.172,21.172,0,0,1-6.514,2.467,10.247,10.247,0,0,0-17.731,7,10.489,10.489,0,0,0,.265,2.342A29.029,29.029,0,0,1,3.417,5.275a10.045,10.045,0,0,0-1.387,5.156,10.251,10.251,0,0,0,4.558,8.533,10.217,10.217,0,0,1-4.641-1.283v.127a10.256,10.256,0,0,0,8.22,10.056,10.344,10.344,0,0,1-4.608.177,10.284,10.284,0,0,0,9.591,7.118A20.557,20.557,0,0,1,2.437,39.545,21.756,21.756,0,0,1,0,39.4a29.156,29.156,0,0,0,15.743,4.6c18.862,0,29.163-15.616,29.163-29.136,0-.435,0-.875-.031-1.312A20.7,20.7,0,0,0,50,8.25l-.1-.042Z" transform="translate(0 -3.369)" fill="#fff"/>
</svg>
