<svg id="Icon-Time" xmlns="http://www.w3.org/2000/svg" width="25" height="25" viewBox="0 0 25 25">
  <path id="Path_395" data-name="Path 395" d="M1755.893,888.256a12.514,12.514,0,1,1-4.594-9.674l-1.111,1.111a10.956,10.956,0,1,0,.957.856l1.1-1.1A12.461,12.461,0,0,1,1755.893,888.256Zm-7.162,3.558a.782.782,0,0,0-.217-1.084l-4.34-2.893v-7.395a.781.781,0,0,0-1.562,0v7.813a.784.784,0,0,0,.348.65l4.687,3.125a.789.789,0,0,0,.433.131h0A.782.782,0,0,0,1748.731,891.814Z" transform="translate(-1730.893 -875.756)"/>
</svg>
