<svg xmlns="http://www.w3.org/2000/svg" width="26.425" height="21.462" viewBox="0 0 26.425 21.462">
  <path id="Icon_awesome-twitter" data-name="Icon awesome-twitter" d="M23.709,8.729c.017.235.017.47.017.7A15.3,15.3,0,0,1,8.316,24.843,15.3,15.3,0,0,1,0,22.411a11.2,11.2,0,0,0,1.308.067,10.846,10.846,0,0,0,6.724-2.314,5.425,5.425,0,0,1-5.064-3.756,6.83,6.83,0,0,0,1.023.084,5.728,5.728,0,0,0,1.425-.184,5.416,5.416,0,0,1-4.343-5.315v-.067a5.454,5.454,0,0,0,2.448.687A5.424,5.424,0,0,1,1.844,4.37a15.394,15.394,0,0,0,11.167,5.667A6.114,6.114,0,0,1,12.877,8.8,5.421,5.421,0,0,1,22.25,5.091a10.663,10.663,0,0,0,3.437-1.308,5.4,5.4,0,0,1-2.381,2.985,10.857,10.857,0,0,0,3.119-.838,11.642,11.642,0,0,1-2.716,2.8Z" transform="translate(0 -3.381)"/>
</svg>
